<svg width="12" height="12" viewBox="0 0 12 12" fill="none" xmlns="http://www.w3.org/2000/svg">
<path d="M11.7669 2.04194L9.9592 0.229604C9.65303 -0.0765345 9.09212 -0.0765345 8.7884 0.229604L4.94286 4.08449C4.76406 4.23879 4.68812 4.44206 4.68812 4.67228C4.47258 4.67228 4.25458 4.7482 4.10272 4.90249L0.254736 8.75739C0.0759309 8.91168 0 9.11495 0 9.34517C0 9.57539 0.102874 9.77866 0.254736 9.93296L2.06238 11.7453C2.21425 11.9241 2.41999 12 2.64779 12C2.87803 12 3.08133 11.8971 3.23319 11.7453L7.07873 7.8904C7.25018 7.74346 7.32856 7.54753 7.33346 7.32956C7.53676 7.32956 7.74006 7.22669 7.91886 7.07485L11.7644 3.21996C12.0632 2.93097 12.0926 2.39216 11.7669 2.04194V2.04194ZM6.75051 7.53283L2.90252 11.3877C2.77515 11.5151 2.54491 11.5151 2.41754 11.3877L0.609897 9.57539C0.494776 9.46273 0.462934 9.2668 0.609897 9.11496L4.45543 5.28456C4.5975 5.14496 4.81794 5.13761 4.94041 5.26006L5.66298 5.985L4.3697 7.28302L4.72976 7.64304L6.02304 6.34502L6.74806 7.0724C6.90727 7.24139 6.87053 7.41528 6.75051 7.53283V7.53283ZM11.4362 2.85994L7.59065 6.71483C7.46328 6.84219 7.23304 6.84219 7.10567 6.71483L6.38065 5.98745L7.64698 4.71636L7.28692 4.35634L6.02059 5.62743L5.29802 4.90249C5.18045 4.79718 5.1682 4.54982 5.29802 4.44206L9.14356 0.587173C9.27827 0.459819 9.48647 0.450023 9.62854 0.587173L11.4362 2.39951C11.5733 2.54891 11.5244 2.78157 11.4362 2.85994V2.85994Z" fill="white"/>
</svg>
