<svg width="377" height="377" viewBox="0 0 377 377" fill="none" xmlns="http://www.w3.org/2000/svg">
<g opacity="0.5">
<path d="M358.674 256.094C335.379 225.456 306.464 199.532 273.472 179.706C211.439 142.727 101.873 108.729 39.391 158.96C20.2757 174.336 -2.47484 204.056 5.15291 227.763C16.8549 264.231 91.2229 283.568 145.904 262.679C158.438 257.842 170.073 250.941 180.326 242.26M349.076 276.504C329.726 243.236 304.217 213.958 273.912 190.233C216.893 145.903 112.33 98.6943 44.1603 140.88C23.2988 153.785 -2.91327 180.483 1.72261 204.945C8.87043 242.588 80.2772 270.909 137.113 256.891C150.15 253.634 162.549 248.212 173.791 240.852M337.038 295.565C321.925 260.167 300.207 227.971 273.044 200.698C221.907 149.712 123.961 90.0061 51.094 123.493C28.803 133.703 -0.492912 157.011 1.05919 181.861C3.59156 220.117 70.9853 257.004 129.087 250.071C142.426 248.435 155.396 244.577 167.461 238.657M322.743 313.033C312.097 276.049 294.502 241.432 270.901 211.03C226.411 154.142 136.532 82.8487 60.1221 107.137C36.7385 114.56 4.79794 134.06 3.33775 158.92C1.07086 197.165 63.4305 242.046 121.971 242.312C135.407 242.335 148.752 240.102 161.448 235.706M306.413 328.593C300.388 290.595 287.182 254.093 267.499 221.035C230.34 159.063 149.907 77.2746 71.0866 91.9866C46.9678 96.4788 12.8829 111.916 8.36957 136.408C1.42597 174.082 57.7917 226.252 115.852 233.746C129.187 235.413 142.707 234.834 155.85 232.031M288.299 342.029C287.012 303.571 278.411 265.709 262.955 230.469C233.69 164.444 163.906 73.3952 83.8917 78.3468C59.3848 79.8476 23.6457 90.976 16.1813 114.723C4.61207 151.212 54.1261 209.958 110.808 224.486C123.837 227.782 137.326 228.869 150.714 227.702M268.673 353.146C272.102 314.812 268.199 276.175 257.175 239.3C236.253 170.181 178.202 71.2507 98.1668 66.2888C73.6599 64.7778 36.8997 71.3936 26.5047 94.069C10.5855 128.914 52.5126 193.296 106.999 214.685C119.522 219.553 132.773 222.29 146.2 222.781M247.822 361.753C255.937 324.147 256.814 285.34 250.405 247.406C238.142 176.205 192.681 70.8831 113.872 56.1303C89.7527 51.6177 52.39 53.6902 39.3299 74.8955C19.2445 107.566 52.9312 176.562 104.385 204.485C116.216 210.857 129.032 215.199 142.299 217.329M226.074 367.746C238.757 331.41 244.402 292.991 242.708 254.543C239.267 182.402 207.101 72.3024 130.701 47.9731C107.328 40.5303 69.9654 37.9984 54.424 57.4373C30.489 87.3411 55.4451 160.002 103.07 194.041C114.028 201.816 126.212 207.7 139.115 211.448M203.731 371.013C220.772 336.52 231.092 299.101 234.14 260.75C239.603 188.742 221.213 75.5184 148.366 41.9903C126.086 31.7297 89.3457 24.6341 71.5068 41.9903C44.1102 68.7087 59.9477 143.882 103.029 183.515C112.949 192.579 124.318 199.915 136.664 205.22M181.204 371.514C202.369 339.368 217.215 303.485 224.948 265.784C239.244 194.991 234.884 80.3683 166.745 38.111C145.883 25.1857 110.297 13.6081 90.4568 28.6876C59.9254 51.8837 66.3993 128.445 104.283 173.051C113.012 183.268 123.395 191.947 134.998 198.728M158.802 369.247C183.758 339.946 202.902 306.159 215.208 269.694C238.071 201.188 247.884 86.9428 185.402 36.6302C166.256 21.2444 132.355 5.38899 110.809 17.8651C77.674 37.1101 74.6924 113.835 106.807 162.841C114.213 174.051 123.45 183.939 134.132 192.091M136.767 364.234C165.139 338.217 188.293 307.032 204.987 272.348C236.091 207.181 259.852 94.9572 204.048 37.3958C186.975 19.7843 155.279 -0.10386 132.376 9.6973C97.1268 24.7258 84.7304 100.562 110.585 153.05C116.55 165.083 124.488 176.033 134.071 185.444M115.557 356.557C146.904 334.226 173.71 306.128 194.54 273.767C233.425 212.868 270.798 104.463 222.499 40.4691C207.713 20.9281 178.713 -2.74788 154.778 4.13335C117.957 14.7104 96.3294 88.4234 115.537 143.718C119.997 156.398 126.555 168.239 134.938 178.747M95.4909 346.337C129.349 328.019 159.406 303.417 184.052 273.849C230.125 218.238 280.548 115.203 240.469 45.7577C228.216 24.5116 202.33 -2.51307 177.722 1.37677C139.879 7.34936 109.368 77.8565 121.632 135.122C124.488 148.252 129.528 160.811 136.54 172.274M76.7553 333.718C112.604 319.701 145.456 298.988 173.557 272.685C226.104 223.149 288.811 127.107 257.575 53.2516C248.017 30.6579 225.655 0.662262 200.76 1.53007C162.468 2.80627 123.523 69.0254 128.659 127.332C129.872 140.711 133.324 153.791 138.87 166.026M59.7548 318.894C97.0532 309.393 132.2 292.876 163.317 270.225C221.561 227.518 295.633 139.89 273.669 62.787C266.96 39.1928 248.457 6.63454 223.634 4.43949C185.475 1.00908 138.677 61.9396 136.604 120.43C136.176 133.86 138.002 147.267 142.006 160.094M44.6917 302.099C82.8793 297.254 119.794 285.179 153.461 266.519C216.515 231.296 300.737 153.428 288.484 74.2119C284.726 49.9643 270.359 15.4254 246.015 10.1572C208.571 2.06106 154.635 56.7842 145.394 114.58C143.314 127.854 143.476 141.382 145.874 154.602M31.8154 283.579C70.3106 283.467 108.432 276.021 144.138 261.639C211.032 234.43 304.209 167.496 301.758 87.3718C301.013 62.8689 290.996 26.7986 267.479 18.5901C231.301 5.95068 171.055 53.5986 154.789 109.853C151.093 122.784 149.592 136.243 150.347 149.67M21.3181 263.619C59.5328 268.236 98.2775 265.53 135.479 255.646C205.211 236.86 305.904 181.892 313.327 102.064C315.594 77.6423 310.09 40.6327 287.799 29.5758C253.459 12.5973 187.801 52.5064 164.744 106.311C159.49 118.676 156.345 131.835 155.442 145.24M13.3419 242.526C50.702 251.803 89.4874 253.882 127.625 248.652C199.104 238.575 305.831 196.399 322.996 118.092C328.306 94.1099 327.336 56.6613 306.535 43.0009C274.544 21.9488 204.485 53.4759 174.985 104.023C168.252 115.653 163.516 128.328 160.975 141.523M8.03333 220.607C43.9697 234.398 82.2041 241.22 120.693 240.709C192.907 239.494 303.964 210.744 330.635 135.142C338.804 112.008 342.48 74.7733 323.487 58.6218C294.324 33.7718 220.916 56.4676 185.432 103.023C177.337 113.737 171.096 125.733 166.97 138.512M5.44819 198.196C39.4139 216.303 76.5194 227.772 114.779 231.99C186.595 239.668 300.347 224.772 336.107 153.019C347.053 131.058 355.283 94.5695 338.455 76.2026C312.58 47.963 236.936 61.4702 195.989 103.309C186.62 112.956 178.937 124.107 173.259 136.296M5.63387 175.643C37.1176 197.782 72.5317 213.721 109.982 222.607C180.317 239.045 295.029 238.248 339.335 171.427C352.896 151.008 365.558 115.775 351.109 95.4883C328.899 64.2777 252.173 68.3921 206.396 104.871C195.917 113.282 186.922 123.39 179.786 134.775M8.60483 153.285C37.1309 179.123 70.3157 199.296 106.387 212.725C174.169 237.677 288.146 250.98 340.305 190.111C356.265 171.489 373.154 138.104 361.319 116.194C343.103 82.5024 266.458 77.1423 216.545 107.73C205.111 114.79 194.94 123.714 186.453 134.132M14.293 131.467C39.4279 160.611 69.8819 184.706 104.029 202.464C168.227 235.553 279.661 262.761 338.947 208.763C357.082 192.244 377.944 161.187 368.886 137.991C354.958 102.298 279.549 87.5758 226.257 111.793C214.045 117.38 202.856 124.972 193.152 134.254M22.6158 110.496C43.9781 142.515 71.2445 170.172 102.957 191.989C162.591 232.725 269.859 273.41 335.313 227.11C355.347 212.939 379.864 184.679 373.727 160.544C364.292 123.422 291.262 99.5415 235.386 117.03C222.578 121.08 210.539 127.247 199.77 135.275M33.4598 90.7204C50.7209 125.121 74.3801 155.918 103.172 181.463C157.352 229.213 258.8 282.772 329.451 244.864C351.068 233.266 378.884 208.232 375.759 183.525C370.949 145.484 301.411 112.814 243.82 123.35C230.607 125.802 217.899 130.45 206.223 137.102M46.6517 72.4253C59.5557 108.674 79.2504 142.132 104.682 171.009C152.582 225.119 246.678 290.705 321.455 261.771C344.338 252.91 375.013 231.49 374.941 206.589C374.849 168.283 309.845 127.312 251.386 130.65C237.973 131.457 224.79 134.512 212.389 139.686M61.9892 55.8859C70.3329 93.4591 85.7653 129.097 107.46 160.891C148.355 220.413 233.67 297.097 311.438 277.566C335.23 271.583 368.304 254.084 371.306 229.366C375.911 191.336 316.442 142.698 258.034 138.828C244.619 137.982 231.157 139.394 218.21 143.004M79.2373 41.3473C82.9071 79.6595 93.8442 116.922 111.464 151.141C144.732 215.236 219.978 301.823 299.554 292.033C323.907 289.021 358.881 275.697 364.905 251.562C374.157 214.389 321.11 158.808 263.621 147.792C250.413 145.31 236.884 145.055 223.593 147.037M98.1465 29.0957C97.0827 67.5666 103.355 105.888 116.629 142.013C141.769 209.682 205.772 304.855 285.981 304.876C310.488 304.876 346.87 295.983 355.805 272.736C369.549 237.003 323.742 175.307 268.04 157.307C255.24 153.212 241.846 151.286 228.411 151.61M118.424 19.1822C112.632 57.2351 114.146 96.0431 122.887 133.529C139.521 203.801 191.373 306.07 270.949 315.994C295.302 319.057 332.461 314.646 344.183 292.675C362.227 258.882 324.343 192.04 271.276 167.343C259.077 161.708 246.02 158.161 232.647 156.848M139.769 11.8621C129.346 48.9124 126.078 87.609 130.14 125.882C138.013 197.666 176.887 305.57 254.645 325.152C278.437 331.145 315.861 331.38 330.208 311.022C352.264 279.699 322.876 208.712 273.25 177.675C261.835 170.588 249.313 165.463 236.203 162.514M161.865 7.22715C146.961 42.7131 138.956 80.7134 138.277 119.195C137.256 191.407 162.58 303.284 237.326 332.258C260.199 341.13 297.306 345.959 314.043 327.511C339.775 299.138 319.342 225.078 273.902 188.181C263.446 179.743 251.648 173.117 239.001 168.579M184.329 5.33781C165.184 38.7255 152.577 75.4539 147.18 113.559C137.296 185.097 148.681 299.24 219.312 337.148C240.919 348.767 277.158 358.118 296.029 341.865C325.059 316.872 313.878 240.862 273.319 198.656C263.976 188.997 253.079 180.974 241.082 174.918M206.854 6.22651C183.751 37.0099 166.725 71.9124 156.686 109.067C138.092 178.839 135.314 293.523 200.788 339.854C220.813 354.035 255.623 367.767 276.351 353.953C308.241 332.718 306.484 255.942 271.419 209.039C263.336 198.307 253.509 189.006 242.348 181.524M229.117 9.8711C202.406 37.5829 181.222 70.1293 166.696 105.769C139.656 172.734 122.849 286.203 182.094 340.221C200.219 356.761 233.078 374.658 255.339 363.509C289.597 346.347 297.297 269.908 268.256 219.085C261.553 207.44 252.945 197.001 242.789 188.201M250.764 16.2318C220.848 40.4504 195.82 70.1449 177.018 103.728C141.963 166.863 111.33 277.412 163.489 338.302C179.449 356.935 209.858 378.742 233.343 370.401C269.44 357.578 286.441 282.67 263.905 228.662C258.695 216.285 251.447 204.869 242.462 194.889M271.461 25.1953C238.797 45.5572 210.311 71.9529 187.525 102.972C144.965 161.319 100.985 267.264 145.261 334.106C158.811 354.525 186.3 379.936 210.612 374.546C248.016 366.255 274.136 294.002 258.37 237.636C254.708 224.706 248.903 212.482 241.195 201.473M290.892 36.6407C255.976 52.8344 224.465 75.5297 198.042 103.513C148.59 156.194 91.9685 255.921 127.687 327.694C138.613 349.665 162.793 378.221 187.576 375.863C225.725 372.228 260.524 303.733 251.804 245.865C249.756 232.585 245.501 219.741 239.214 207.865M308.783 50.3829C272.138 62.1644 238.073 80.816 208.407 105.341C152.91 151.549 84.4131 243.568 111.034 319.18C119.203 342.325 139.625 373.638 164.561 374.311C202.853 375.394 245.811 311.696 244.269 253.185C243.853 239.764 241.195 226.506 236.406 213.96M324.845 66.2182C287.031 73.4102 250.932 87.7339 218.475 108.424C157.709 147.466 78.4292 230.367 95.5533 308.685C100.802 332.657 117.272 366.246 141.892 370.003C179.765 375.782 230.229 317.843 235.896 259.587C237.15 246.209 236.153 232.716 232.945 219.668M338.836 83.9109C300.423 86.3993 262.837 96.1808 228.085 112.732C162.989 144.004 74.111 216.543 81.4834 296.372C83.7503 320.793 95.9629 356.159 119.939 362.917C156.811 373.3 214.014 321.998 226.788 264.906C229.685 251.784 230.358 238.27 228.78 224.925M350.545 103.187C312.117 100.936 273.612 106.026 237.089 118.184C168.674 141.217 71.5246 202.28 69.033 282.415C68.2774 306.918 76.0481 343.529 99.0131 353.177C134.293 368.053 197.398 324.152 217.105 269.02C221.589 256.354 223.915 243.026 223.988 229.591M359.801 123.758C321.942 116.801 283.104 117.12 245.364 124.697C174.601 139.154 70.7531 187.823 58.3975 267.039C54.6296 291.276 57.8563 328.552 79.453 340.946C112.68 360.017 180.666 324.212 206.991 271.94C213.001 259.921 216.949 246.98 218.672 233.654M366.456 145.311C329.729 133.758 291.136 129.312 252.744 132.212C180.765 137.827 71.6896 173.366 49.7253 250.469C43.0064 274.063 41.6176 311.451 61.5294 326.408C92.163 349.41 164.039 322.232 196.593 273.594C204.04 262.403 209.563 250.046 212.931 237.033M370.408 167.516C335.394 151.532 297.654 142.367 259.208 140.512C187.056 137.276 74.386 159.134 43.1602 232.96C33.5924 255.543 27.6188 292.481 45.5394 309.766C73.1096 336.311 147.784 318.23 186.066 273.951C194.823 263.759 201.81 252.17 206.733 239.667M371.613 190.029C338.82 169.87 302.489 156.139 264.559 149.569C193.356 137.491 78.899 145.342 38.7895 214.767C26.5361 236.003 16.0594 271.94 31.7234 291.288C55.8115 321.069 132.14 312.238 175.578 273.002C185.524 263.969 193.881 253.329 200.3 241.526M370.03 212.53C339.966 188.495 305.599 170.404 268.765 159.226C199.585 138.491 85.0253 132.212 36.6958 196.195C21.8998 215.767 7.08333 250.132 20.266 271.266C40.5249 303.783 117.354 304.396 165.265 270.796C176.244 263.051 185.846 253.519 193.672 242.597M365.701 234.665C338.817 207.121 306.935 184.946 271.758 169.324C205.64 140.247 92.725 119.951 36.9005 177.492C19.807 195.103 0.89591 227.386 11.3726 249.979C27.4654 284.692 103.651 294.789 155.35 267.336C167.197 260.993 177.896 252.711 187.005 242.833" stroke="url(#paint0_linear_83_2655)" stroke-width="0.738226" stroke-miterlimit="10"/>
</g>
<defs>
<linearGradient id="paint0_linear_83_2655" x1="-32.8802" y1="295.762" x2="313.518" y2="120.336" gradientUnits="userSpaceOnUse">
<stop offset="0.15" stop-color="#EF6129"/>
<stop offset="0.2" stop-color="#F06032"/>
<stop offset="0.55" stop-color="#F85D6A"/>
<stop offset="0.81" stop-color="#FD5B8C"/>
<stop offset="0.96" stop-color="#FF5A99"/>
</linearGradient>
</defs>
</svg>
