<svg width="16" height="16" viewBox="0 0 16 16" fill="none" xmlns="http://www.w3.org/2000/svg">
<path d="M15.9735 4.99796C15.74 2.42735 13.9205 0.562319 11.6434 0.562319C10.1264 0.562319 8.73742 1.37867 7.95583 2.68706C7.18133 1.36175 5.84925 0.562012 4.35655 0.562012C2.0798 0.562012 0.260003 2.42704 0.026759 4.99765C0.00829637 5.1112 -0.0674003 5.70877 0.162767 6.68329C0.494478 8.08891 1.26068 9.36744 2.37797 10.3798L7.95214 15.4383L13.622 10.3801C14.7393 9.36744 15.5055 8.08921 15.8372 6.68329C16.0674 5.70908 15.9917 5.11151 15.9735 4.99796ZM15.2381 6.54236C14.9353 7.82612 14.2334 8.99573 13.2103 9.92255L7.95583 14.6105L2.79153 9.92378C1.76655 8.99511 1.06497 7.82582 0.761878 6.54205C0.54402 5.61984 0.633563 5.09889 0.633871 5.0955L0.638487 5.06442C0.838498 2.8123 2.40197 1.17743 4.35655 1.17743C5.79878 1.17743 7.0684 2.06364 7.67089 3.48987L7.95429 4.1616L8.23769 3.48987C8.83065 2.08548 10.1673 1.17774 11.6437 1.17774C13.598 1.17774 15.1618 2.8126 15.3658 5.09397C15.3664 5.09889 15.456 5.62015 15.2381 6.54236Z" fill="url(#paint0_linear_1810_3470)"/>
<defs>
<linearGradient id="paint0_linear_1810_3470" x1="-1.44548" y1="12.2552" x2="12.8758" y2="4.45468" gradientUnits="userSpaceOnUse">
<stop offset="0.15" stop-color="#EF6129"/>
<stop offset="0.2" stop-color="#F06032"/>
<stop offset="0.55" stop-color="#F85D6A"/>
<stop offset="0.81" stop-color="#FD5B8C"/>
<stop offset="0.96" stop-color="#FF5A99"/>
</linearGradient>
</defs>
</svg>
