<svg width="141" height="42" viewBox="0 0 141 42" fill="none" xmlns="http://www.w3.org/2000/svg">
<mask id="mask0_1457_41764" style="mask-type:alpha" maskUnits="userSpaceOnUse" x="26" y="0" width="115" height="42">
  <rect x="26" width="115" height="42" fill="#C4C4C4"/>
</mask>
<g mask="url(#mask0_1457_41764)">
  <path fill-rule="evenodd" clip-rule="evenodd" d="M51 12V30H54.1514V19.0534H54.2137L57.3038 26.7895H58.8805L62.0055 19.0534H62.0678V30H65.2154V12H62.1565L58.1384 21.531H58.077L54.0287 12H51ZM68.496 12V30H78.3375V27.4213H71.7982V22.138H77.4958V19.7106H71.7982V14.4266H78.3375V12H68.496ZM81.6182 30V12H90.3661V14.4266H84.5526V19.7106H89.618V22.138H84.5526V27.4213H90.3661V30H81.6182ZM97.083 14.4266V30H100.052V14.4266H103.488V12H93.6465V14.4266H97.083ZM116.609 12V25.8384C116.618 26.3831 116.496 26.9236 116.25 27.4276C116.004 27.9315 115.64 28.3884 115.179 28.7708C114.726 29.1538 114.19 29.4603 113.599 29.6737C112.996 29.8923 112.345 30.0033 111.688 29.9999C111.037 30.0037 110.392 29.8926 109.795 29.6737C108.617 29.2354 107.676 28.4436 107.155 27.4528C106.893 26.9427 106.761 26.3919 106.768 25.8361V12H109.815V25.5872C109.815 26.2229 109.994 26.6908 110.352 26.991C110.714 27.2806 111.194 27.4422 111.693 27.4422C112.193 27.4422 112.673 27.2806 113.034 26.991C113.392 26.6898 113.57 26.2218 113.57 25.5872V12H116.609ZM119.891 12.0009L119.973 30H123.074L122.992 22.848H124.569C125.722 22.848 126.653 22.6856 127.362 22.3609C128.066 22.0396 128.653 21.569 129.062 20.998C129.422 20.5254 129.665 19.9989 129.777 19.4489C129.898 18.7787 129.953 18.1016 129.943 17.4241C129.943 16.3577 129.841 15.5122 129.639 14.8877C129.445 14.276 129.07 13.7135 128.546 13.2507C128.067 12.8101 127.461 12.4749 126.784 12.2757C126.059 12.0827 125.299 11.9898 124.537 12.0009H119.891ZM122.988 20.4483V14.3998L124.594 14.3991C125.201 14.4021 125.667 14.4785 125.991 14.6281C126.312 14.7753 126.567 15.0029 126.72 15.2778C126.889 15.5889 126.982 15.9244 126.993 16.2651C127.013 16.6402 127.023 17.0359 127.023 17.4523C127.023 17.9002 127.008 18.3074 126.978 18.6739C126.962 18.9954 126.863 19.3104 126.689 19.5985C126.524 19.8682 126.258 20.0874 125.931 20.2238C125.585 20.3735 125.099 20.4483 124.472 20.4483H122.988Z" fill="url(#paint0_linear_1457_41764)"/>
  <path d="M25.5 0.5H120C131.322 0.5 140.5 9.67816 140.5 21C140.5 32.3218 131.322 41.5 120 41.5H25.5V0.5Z" stroke="url(#paint1_linear_1457_41764)"/>
</g>
<defs>
  <linearGradient id="paint0_linear_1457_41764" x1="43.8677" y1="26.1486" x2="59.3105" y2="-8.15115" gradientUnits="userSpaceOnUse">
    <stop offset="0.15" stop-color="#EF6129"/>
    <stop offset="0.2" stop-color="#F06032"/>
    <stop offset="0.55" stop-color="#F85D6A"/>
    <stop offset="0.81" stop-color="#FD5B8C"/>
    <stop offset="0.96" stop-color="#FF5A99"/>
  </linearGradient>
  <linearGradient id="paint1_linear_1457_41764" x1="14.5197" y1="33.0133" x2="60.0599" y2="-30.6839" gradientUnits="userSpaceOnUse">
    <stop offset="0.15" stop-color="#EF6129"/>
    <stop offset="0.2" stop-color="#F06032"/>
    <stop offset="0.55" stop-color="#F85D6A"/>
    <stop offset="0.81" stop-color="#FD5B8C"/>
    <stop offset="0.96" stop-color="#FF5A99"/>
  </linearGradient>
  <linearGradient id="paint2_linear_1457_41764" x1="0.205426" y1="33.0133" x2="39.002" y2="13.3656" gradientUnits="userSpaceOnUse">
    <stop offset="0.15" stop-color="#EF6129"/>
    <stop offset="0.2" stop-color="#F06032"/>
    <stop offset="0.55" stop-color="#F85D6A"/>
    <stop offset="0.81" stop-color="#FD5B8C"/>
    <stop offset="0.96" stop-color="#FF5A99"/>
  </linearGradient>
</defs>
</svg>
