<svg width="24" height="36" viewBox="0 0 24 36" fill="none" xmlns="http://www.w3.org/2000/svg">
<path d="M24 12.2079C24 18.1476 14.7072 32.398 12.4704 35.7458C12.4169 35.8242 12.3456 35.8883 12.2625 35.9326C12.1793 35.9769 12.0869 36 11.9931 36C11.8993 36 11.8068 35.9769 11.7237 35.9326C11.6406 35.8883 11.5692 35.8242 11.5157 35.7458C9.92465 33.3558 4.70871 25.369 1.87243 18.8425C0.747144 16.2553 0 13.8936 0 12.2079C0 8.9702 1.26331 5.86505 3.51202 3.57561C5.76072 1.28618 8.81062 0 11.9908 0C15.1709 0 18.2208 1.28618 20.4695 3.57561C22.7182 5.86505 23.9815 8.9702 23.9815 12.2079H24Z" fill="url(#paint0_linear_911_51703)"/>
<path d="M11.9991 18C15.3128 18 18.0012 15.3137 18.0039 12C18.0066 8.6863 15.3225 6 12.0088 6C8.69505 6 6.00661 8.6863 6.00393 12C6.00125 15.3137 8.68533 18 11.9991 18Z" fill="white"/>
<path d="M11.9185 17.9856C10.4681 17.9844 9.06772 17.452 7.97937 16.488C6.89102 15.524 6.18921 14.1944 6.00507 12.7479C5.9832 12.5696 6.03269 12.3899 6.14258 12.2484C6.25248 12.1068 6.41376 12.0149 6.59104 11.9929C6.76832 11.9709 6.94698 12.0206 7.08779 12.1311C7.22861 12.2416 7.32008 12.4038 7.34194 12.5821C7.45308 13.4641 7.81311 14.2956 8.37941 14.9784C8.94571 15.6612 9.69461 16.1667 10.5376 16.4351C11.3806 16.7034 12.2823 16.7235 13.1363 16.4929C13.9902 16.2623 14.7607 15.7906 15.3564 15.1337C15.9522 14.4768 16.3485 13.662 16.4984 12.7859C16.6482 11.9097 16.5453 11.0087 16.202 10.1894C15.8587 9.37008 15.2892 8.66677 14.5609 8.1626C13.8326 7.65842 12.976 7.37447 12.0923 7.34431C12.0045 7.34142 11.9181 7.32116 11.8381 7.28468C11.7581 7.24821 11.6861 7.19623 11.6261 7.13173C11.5661 7.06723 11.5192 6.99147 11.4883 6.90878C11.4575 6.8261 11.4432 6.7381 11.4461 6.64983C11.4542 6.47235 11.531 6.30508 11.66 6.1837C11.7891 6.06233 11.9602 5.99645 12.1369 6.00015C13.7194 6.02807 15.226 6.68694 16.3254 7.8318C17.4247 8.97667 18.0269 10.5137 17.9991 12.1049C17.9713 13.6961 17.316 15.211 16.1773 16.3163C15.0387 17.4217 13.51 18.027 11.9274 17.9991L11.9185 17.9856Z" fill="#1B1C21"/>
<defs>
<linearGradient id="paint0_linear_911_51703" x1="-2.16833" y1="28.2971" x2="22.8367" y2="19.8549" gradientUnits="userSpaceOnUse">
<stop offset="0.15" stop-color="#EF6129"/>
<stop offset="0.2" stop-color="#F06032"/>
<stop offset="0.55" stop-color="#F85D6A"/>
<stop offset="0.81" stop-color="#FD5B8C"/>
<stop offset="0.96" stop-color="#FF5A99"/>
</linearGradient>
</defs>
</svg>
