<svg width="48" height="48" viewBox="0 0 48 48" fill="none" xmlns="http://www.w3.org/2000/svg">
<g filter="url(#filter0_b_431_57698)">
<rect width="48" height="48" rx="1" fill="url(#paint0_linear_431_57698)" fill-opacity="0.03"/>
</g>
<path d="M25.0607 18.9393C24.4749 18.3536 23.5251 18.3536 22.9393 18.9393L13.3934 28.4853C12.8076 29.0711 12.8076 30.0208 13.3934 30.6066C13.9792 31.1924 14.9289 31.1924 15.5147 30.6066L24 22.1213L32.4853 30.6066C33.0711 31.1924 34.0208 31.1924 34.6066 30.6066C35.1924 30.0208 35.1924 29.0711 34.6066 28.4853L25.0607 18.9393ZM25.5 21L25.5 20L22.5 20L22.5 21L25.5 21Z" fill="url(#paint1_linear_431_57698)"/>
<defs>
<filter id="filter0_b_431_57698" x="-10" y="-10" width="68" height="68" filterUnits="userSpaceOnUse" color-interpolation-filters="sRGB">
<feFlood flood-opacity="0" result="BackgroundImageFix"/>
<feGaussianBlur in="BackgroundImage" stdDeviation="5"/>
<feComposite in2="SourceAlpha" operator="in" result="effect1_backgroundBlur_431_57698"/>
<feBlend mode="normal" in="SourceGraphic" in2="effect1_backgroundBlur_431_57698" result="shape"/>
</filter>
<linearGradient id="paint0_linear_431_57698" x1="-4.33666" y1="37.7295" x2="40.0023" y2="15.275" gradientUnits="userSpaceOnUse">
<stop offset="0.15" stop-color="#EF6129"/>
<stop offset="0.2" stop-color="#F06032"/>
<stop offset="0.55" stop-color="#F85D6A"/>
<stop offset="0.81" stop-color="#FD5B8C"/>
<stop offset="0.96" stop-color="#FF5A99"/>
</linearGradient>
<linearGradient id="paint1_linear_431_57698" x1="24.786" y1="21.0903" x2="24.3182" y2="20.1666" gradientUnits="userSpaceOnUse">
<stop offset="0.15" stop-color="#EF6129"/>
<stop offset="0.2" stop-color="#F06032"/>
<stop offset="0.55" stop-color="#F85D6A"/>
<stop offset="0.81" stop-color="#FD5B8C"/>
<stop offset="0.96" stop-color="#FF5A99"/>
</linearGradient>
</defs>
</svg>
