<svg width="17" height="18" viewBox="0 0 26 26" fill="none" xmlns="http://www.w3.org/2000/svg">
<path d="M10.6485 21.314C12.8408 21.314 14.8661 20.6454 16.5573 19.517L22.675 25.6395C23.1554 26.1202 23.9488 26.1202 24.4497 25.6395L25.6398 24.4485C26.1201 23.9679 26.1201 23.1738 25.6398 22.6723L19.5013 16.5706C20.6286 14.878 21.2969 12.8511 21.2969 10.657C21.2969 4.78521 16.5156 0 10.6485 0C4.78137 0 0 4.78521 0 10.657C0 16.5286 4.76049 21.314 10.6485 21.314ZM10.6485 4.17922C14.2188 4.17922 17.1211 7.08379 17.1211 10.657C17.1211 14.2303 14.2188 17.1348 10.6485 17.1348C7.0781 17.1348 4.17587 14.2303 4.17587 10.657C4.17587 7.08379 7.0781 4.17922 10.6485 4.17922Z" fill="url(#paint0_linear_431_62264)"/>
<defs>
<linearGradient id="paint0_linear_431_62264" x1="-2.34902" y1="20.4368" x2="21.6679" y2="8.27397" gradientUnits="userSpaceOnUse">
<stop offset="0.15" stop-color="#EF6129"/>
<stop offset="0.2" stop-color="#F06032"/>
<stop offset="0.55" stop-color="#F85D6A"/>
<stop offset="0.81" stop-color="#FD5B8C"/>
<stop offset="0.96" stop-color="#FF5A99"/>
</linearGradient>
</defs>
</svg>
