<svg width="16" height="16" viewBox="0 0 16 16" fill="none" xmlns="http://www.w3.org/2000/svg">
<path d="M12.7542 9.99098C11.6938 9.99098 10.7599 10.5432 10.2251 11.3751L6.01654 9.16387C6.16759 8.80575 6.25117 8.41246 6.25117 8.00004C6.25117 7.58761 6.16759 7.19432 6.01654 6.8362L10.2251 4.62493C10.76 5.45686 11.6938 6.00908 12.7542 6.00908C14.4109 6.00908 15.7587 4.66126 15.7587 3.00459C15.7587 1.34782 14.4109 0 12.7542 0C11.0975 0 9.7497 1.34782 9.7497 3.00452C9.7497 3.41698 9.83328 3.81024 9.98433 4.16836L5.77578 6.37963C5.2409 5.5477 4.30708 4.99548 3.24668 4.99548C1.59001 4.99548 0.242188 6.34329 0.242188 8C0.242188 9.65671 1.59001 11.0045 3.24668 11.0045C4.30708 11.0045 5.24093 10.4523 5.77578 9.62037L9.98433 11.8316C9.83328 12.1898 9.7497 12.5831 9.7497 12.9955C9.7497 14.6522 11.0975 16 12.7542 16C14.4109 16 15.7587 14.6522 15.7587 12.9955C15.7587 11.3388 14.4109 9.99098 12.7542 9.99098ZM12.7542 0.516129C14.1263 0.516129 15.2426 1.63241 15.2426 3.00452C15.2426 4.3766 14.1263 5.49289 12.7542 5.49289C11.3821 5.49289 10.2658 4.3766 10.2658 3.00452C10.2658 1.63241 11.3821 0.516129 12.7542 0.516129ZM3.24664 10.4884C1.87457 10.4884 0.758282 9.37211 0.758282 8C0.758282 6.62789 1.87457 5.5116 3.24664 5.5116C4.61872 5.5116 5.73501 6.62789 5.73501 8C5.73501 9.37211 4.61872 10.4884 3.24664 10.4884ZM12.7542 15.4839C11.3821 15.4839 10.2658 14.3676 10.2658 12.9955C10.2658 11.6234 11.3821 10.5071 12.7542 10.5071C14.1263 10.5071 15.2426 11.6234 15.2426 12.9955C15.2426 14.3676 14.1263 15.4839 12.7542 15.4839Z" fill="url(#paint0_linear_484_317)"/>
<defs>
<linearGradient id="paint0_linear_484_317" x1="-1.15968" y1="12.5765" x2="13.3496" y2="5.4506" gradientUnits="userSpaceOnUse">
<stop offset="0.15" stop-color="#EF6129"/>
<stop offset="0.2" stop-color="#F06032"/>
<stop offset="0.55" stop-color="#F85D6A"/>
<stop offset="0.81" stop-color="#FD5B8C"/>
<stop offset="0.96" stop-color="#FF5A99"/>
</linearGradient>
</defs>
</svg>
