<svg width="139" height="304" viewBox="0 0 139 304" fill="none" xmlns="http://www.w3.org/2000/svg">
<path d="M73.237 298.781C73.1316 298.782 73.0292 298.747 72.9463 298.682C72.8634 298.618 72.8049 298.528 72.7803 298.427C72.7558 298.326 72.7666 298.219 72.811 298.125C72.8554 298.03 72.9309 297.953 73.025 297.907C87.3366 290.792 100.133 281.032 110.72 269.156C110.803 269.064 110.919 269.008 111.044 269.001C111.168 268.994 111.29 269.035 111.383 269.117C111.476 269.199 111.532 269.314 111.54 269.436C111.547 269.559 111.505 269.679 111.422 269.771C100.761 281.736 87.8746 291.569 73.4615 298.738C73.3912 298.77 73.3143 298.784 73.237 298.781Z" fill="url(#paint0_linear_286_6716)"/>
<path d="M84.6965 298.781C84.5911 298.782 84.4886 298.747 84.4057 298.682C84.3228 298.618 84.2643 298.528 84.2398 298.427C84.2152 298.326 84.2261 298.219 84.2705 298.125C84.3149 298.03 84.3903 297.953 84.4845 297.907C98.796 290.792 111.592 281.032 122.18 269.156C122.263 269.064 122.379 269.008 122.503 269.001C122.627 268.994 122.749 269.035 122.842 269.117C122.935 269.199 122.992 269.314 122.999 269.436C123.006 269.559 122.964 269.679 122.881 269.771C112.22 281.736 99.3341 291.569 84.921 298.738C84.8507 298.77 84.7737 298.784 84.6965 298.781Z" fill="url(#paint1_linear_286_6716)"/>
<path d="M67.6205 304C67.1786 304.001 66.744 303.89 66.3576 303.678C65.9713 303.466 65.6461 303.161 65.413 302.79C65.0406 302.209 64.9134 301.507 65.0585 300.834C65.2036 300.161 65.6095 299.572 66.1893 299.191C66.4738 299.006 66.7929 298.88 67.1277 298.82C67.4624 298.76 67.806 298.766 68.138 298.84C68.4774 298.913 68.7985 299.053 69.0823 299.25C69.3661 299.448 69.6069 299.7 69.7905 299.991C70.1621 300.573 70.2889 301.274 70.1438 301.947C69.9988 302.619 69.5934 303.209 69.0142 303.59C68.5996 303.857 68.1154 304 67.6205 304ZM67.5862 299.689C67.2715 299.69 66.9638 299.781 66.7007 299.951C66.3257 300.199 66.0639 300.582 65.9713 301.018C65.8786 301.455 65.9625 301.909 66.205 302.285C66.3227 302.472 66.4771 302.634 66.6592 302.762C66.8412 302.889 67.0472 302.979 67.265 303.027C67.4775 303.074 67.6975 303.079 67.9118 303.04C68.1261 303.002 68.3303 302.921 68.5122 302.802C68.8869 302.555 69.1487 302.172 69.2414 301.737C69.3341 301.301 69.2503 300.847 69.0079 300.472C68.8908 300.284 68.7365 300.121 68.5544 299.994C68.3723 299.866 68.166 299.777 67.9479 299.729C67.8289 299.706 67.7074 299.697 67.5862 299.702V299.689Z" fill="url(#paint2_linear_286_6716)"/>
<path d="M27.2929 160.16C26.9067 160.159 26.5365 160.005 26.2629 159.732C26.1265 159.597 26.0184 159.437 25.9445 159.26C25.8706 159.083 25.8328 158.893 25.8328 158.701C25.8328 158.509 25.8706 158.32 25.9445 158.143C26.0184 157.966 26.1265 157.805 26.2629 157.67L30.4995 153.43C30.7727 153.156 31.1438 153.001 31.531 153C31.9182 152.999 32.2899 153.152 32.5644 153.426C32.8388 153.699 32.9936 154.07 32.9945 154.458C32.9954 154.845 32.8425 155.217 32.5694 155.492L28.323 159.732C28.1894 159.87 28.0292 159.979 27.8521 160.052C27.675 160.126 27.4847 160.163 27.2929 160.16Z" fill="url(#paint3_linear_286_6716)"/>
<path d="M12.4563 175C12.1682 175 11.8868 174.914 11.6473 174.754C11.4079 174.594 11.2212 174.366 11.1109 174.1C11.0007 173.833 10.9718 173.54 11.0279 173.257C11.084 172.975 11.2229 172.715 11.4265 172.511L15.6629 168.271C15.7982 168.135 15.959 168.027 16.1359 167.953C16.3129 167.879 16.5026 167.841 16.6944 167.84C16.8861 167.84 17.076 167.877 17.2533 167.95C17.4306 168.023 17.5918 168.131 17.7277 168.266C17.8636 168.401 17.9716 168.562 18.0454 168.739C18.1192 168.916 18.1574 169.106 18.1578 169.298C18.1583 169.49 18.121 169.68 18.048 169.858C17.975 170.035 17.868 170.196 17.7327 170.332L13.4863 174.572C13.3514 174.708 13.191 174.816 13.0142 174.89C12.8374 174.963 12.6477 175.001 12.4563 175Z" fill="url(#paint4_linear_286_6716)"/>
<path d="M31.5117 175C31.1259 174.996 30.7565 174.843 30.4817 174.572L26.245 170.332C26.1018 170.198 25.9871 170.037 25.9074 169.858C25.8278 169.679 25.7849 169.486 25.7815 169.29C25.778 169.094 25.814 168.9 25.8873 168.718C25.9606 168.537 26.0698 168.372 26.2083 168.233C26.3467 168.095 26.5114 167.985 26.6929 167.912C26.8744 167.839 27.0687 167.803 27.2644 167.806C27.4601 167.81 27.6533 167.852 27.8321 167.932C28.0109 168.012 28.1717 168.127 28.3051 168.27L32.5515 172.51C32.8221 172.785 32.9738 173.155 32.9738 173.541C32.9738 173.927 32.8221 174.297 32.5515 174.572C32.2743 174.845 31.9009 174.999 31.5117 175Z" fill="url(#paint5_linear_286_6716)"/>
<path d="M16.6932 160.161C16.5001 160.163 16.3085 160.126 16.13 160.052C15.9514 159.979 15.7894 159.87 15.6534 159.733L11.4169 155.493C11.1595 155.216 11.0193 154.851 11.026 154.473C11.0326 154.095 11.1855 153.734 11.4525 153.467C11.7196 153.2 12.0798 153.047 12.4574 153.04C12.835 153.033 13.2005 153.174 13.4768 153.431L17.7232 157.671C17.9938 157.946 18.1455 158.316 18.1455 158.702C18.1455 159.088 17.9938 159.458 17.7232 159.733C17.4484 160.004 17.079 160.157 16.6932 160.161Z" fill="url(#paint6_linear_286_6716)"/>
<path d="M75 196.208C75 202.148 65.7072 216.398 63.4704 219.746C63.4169 219.824 63.3456 219.888 63.2625 219.933C63.1793 219.977 63.0869 220 62.9931 220C62.8993 220 62.8068 219.977 62.7237 219.933C62.6406 219.888 62.5692 219.824 62.5157 219.746C60.9247 217.356 55.7087 209.369 52.8724 202.842C51.7471 200.255 51 197.894 51 196.208C51 192.97 52.2633 189.865 54.512 187.576C56.7607 185.286 59.8106 184 62.9908 184C66.1709 184 69.2208 185.286 71.4695 187.576C73.7182 189.865 74.9815 192.97 74.9815 196.208H75Z" fill="url(#paint7_linear_286_6716)"/>
<path d="M62.9991 202C66.3128 202 69.0012 199.314 69.0039 196C69.0066 192.686 66.3225 190 63.0088 190C59.6951 190 57.0066 192.686 57.0039 196C57.0012 199.314 59.6853 202 62.9991 202Z" fill="white"/>
<path d="M62.9185 201.986C61.4681 201.984 60.0677 201.452 58.9794 200.488C57.891 199.524 57.1892 198.194 57.0051 196.748C56.9832 196.57 57.0327 196.39 57.1426 196.248C57.2525 196.107 57.4138 196.015 57.591 195.993C57.7683 195.971 57.947 196.021 58.0878 196.131C58.2286 196.242 58.3201 196.404 58.3419 196.582C58.4531 197.464 58.8131 198.296 59.3794 198.978C59.9457 199.661 60.6946 200.167 61.5376 200.435C62.3806 200.703 63.2823 200.724 64.1363 200.493C64.9902 200.262 65.7607 199.791 66.3564 199.134C66.9522 198.477 67.3485 197.662 67.4984 196.786C67.6482 195.91 67.5453 195.009 67.202 194.189C66.8587 193.37 66.2892 192.667 65.5609 192.163C64.8326 191.658 63.976 191.374 63.0923 191.344C63.0045 191.341 62.9181 191.321 62.8381 191.285C62.7581 191.248 62.6861 191.196 62.6261 191.132C62.5661 191.067 62.5192 190.991 62.4883 190.909C62.4575 190.826 62.4432 190.738 62.4461 190.65C62.4542 190.472 62.531 190.305 62.66 190.184C62.7891 190.062 62.9602 189.996 63.1369 190C64.7194 190.028 66.226 190.687 67.3254 191.832C68.4247 192.977 69.0269 194.514 68.9991 196.105C68.9713 197.696 68.316 199.211 67.1773 200.316C66.0386 201.422 64.51 202.027 62.9274 201.999L62.9185 201.986Z" fill="#1B1C21"/>
<mask id="mask0_286_6716" style="mask-type:alpha" maskUnits="userSpaceOnUse" x="0" y="0" width="139" height="82">
<rect width="139" height="82" rx="1" fill="#E38DDD"/>
</mask>
<g mask="url(#mask0_286_6716)">
<g opacity="0.5">
<path d="M73.9395 8.77881L83.5962 27.5114C87.519 35.2046 77.9558 47.9275 62.2334 55.9229C46.5109 63.9184 30.5808 64.1686 26.6683 56.4702L16.9961 37.7377L73.9395 8.77881Z" fill="url(#paint8_linear_286_6716)"/>
<path d="M39.5553 62.865C32.8097 62.865 27.984 60.7332 25.9966 56.8293L16.3193 38.0759C16.23 37.8915 16.2157 37.6795 16.2797 37.4848C16.3436 37.2901 16.4807 37.1282 16.6617 37.0334L73.5844 8.07459C73.767 7.9831 73.9782 7.96735 74.1723 8.03072C74.3664 8.09409 74.528 8.2315 74.6222 8.41338L84.3048 27.1303C85.4983 29.4654 85.5916 32.2174 84.5953 35.2978C82.1773 42.7668 73.7505 50.9343 62.6046 56.6C54.8991 60.5195 46.8926 62.7347 40.0587 62.8546L39.5553 62.865ZM18.0627 38.0759L27.3769 56.11C31.1025 63.4071 46.576 63.0161 61.9041 55.2239C72.531 49.8189 80.8541 41.8182 83.1165 34.8391C83.9831 32.1601 83.9156 29.8198 82.9193 27.8704L73.6052 9.82587L18.0627 38.0759Z" fill="#1B1C21"/>
<path d="M12.5047 32.8644L35.362 5.57343C35.8116 5.09381 36.4133 4.78611 37.064 4.703L72.603 2.29498L84.2262 -3.62085L87.1009 2.01351C87.1984 2.19801 87.2354 2.40878 87.2065 2.61568C87.1776 2.82257 87.0843 3.01499 86.94 3.16541L54.0681 38.087C53.6203 38.5683 53.0174 38.8748 52.3661 38.9522L4.78357 44.9827C4.57801 45.0164 4.36698 44.9842 4.18069 44.8906C3.9944 44.797 3.8423 44.6469 3.74579 44.4615L0.871094 38.8271L12.5047 32.8644Z" fill="white"/>
<path opacity="0.3" d="M12.5047 32.8644L35.362 5.57343C35.8116 5.09381 36.4133 4.78611 37.064 4.703L72.603 2.29498L84.2262 -3.62085L87.1009 2.01351C87.1984 2.19801 87.2354 2.40878 87.2065 2.61568C87.1776 2.82257 87.0843 3.01499 86.94 3.16541L54.0681 38.087C53.6203 38.5683 53.0174 38.8748 52.3661 38.9522L4.78357 44.9827C4.57801 45.0164 4.36698 44.9842 4.18069 44.8906C3.9944 44.797 3.8423 44.6469 3.74579 44.4615L0.871094 38.8271L12.5047 32.8644Z" fill="url(#paint9_linear_286_6716)"/>
<path d="M4.65866 45.7231C4.32933 45.7249 4.00613 45.6341 3.72552 45.4609C3.4449 45.2877 3.21818 45.0391 3.07095 44.7432L0.201446 39.1192C0.154112 39.0276 0.125604 38.9273 0.117582 38.8243C0.109559 38.7213 0.122142 38.6178 0.1547 38.5198C0.185945 38.4219 0.236564 38.3313 0.303426 38.2534C0.370287 38.1754 0.452021 38.1119 0.54387 38.0664L12.0219 32.2235L34.7753 5.05245C35.3537 4.42678 36.1323 4.0247 36.9754 3.9162L72.4055 1.50817L83.8887 -4.33468C84.072 -4.42578 84.2836 -4.44076 84.4778 -4.37639C84.672 -4.31202 84.8332 -4.17346 84.9265 -3.99068L87.8012 1.64369C87.9712 1.97208 88.0346 2.34571 87.9825 2.71215C87.9303 3.07859 87.7654 3.41945 87.5106 3.68687L54.6438 38.598C54.071 39.2089 53.3039 39.5997 52.4748 39.703L4.88707 45.7335C4.81082 45.7352 4.73445 45.7317 4.65866 45.7231ZM1.93966 39.1192L4.45635 44.05C4.47631 44.095 4.51049 44.1323 4.55364 44.1558C4.5968 44.1794 4.64651 44.188 4.69502 44.1803L52.2828 38.1498C52.7523 38.0867 53.1864 37.8641 53.5126 37.5191L86.3845 2.62358C86.4178 2.58996 86.4395 2.54638 86.446 2.49937C86.4526 2.45237 86.4437 2.40449 86.4208 2.36297L83.8991 -2.57817L72.9659 2.98322C72.8742 3.03144 72.7734 3.05985 72.6701 3.06661L37.1259 5.47986C36.6708 5.54737 36.2519 5.76785 35.9376 6.10531L13.1063 33.365C13.0383 33.4447 12.9555 33.5102 12.8624 33.5578L1.93966 39.1192Z" fill="#1B1C21"/>
<path d="M1.04959 37.6024L33.9216 2.70692C34.3702 2.22673 34.9727 1.92043 35.6236 1.8417L83.2113 -4.194C83.4121 -4.20503 83.6117 -4.15723 83.7859 -4.05642C83.9602 -3.95561 84.1015 -3.80613 84.1927 -3.62614C84.284 -3.44615 84.3212 -3.24341 84.2999 -3.04257C84.2786 -2.84173 84.1996 -2.65144 84.0726 -2.49483L51.206 32.4268C50.7566 32.9059 50.1545 33.212 49.504 33.292L1.91623 39.3277C1.71029 39.3448 1.5039 39.2997 1.32361 39.1983C1.14332 39.0968 0.997242 38.9437 0.90416 38.7583C0.811078 38.573 0.775258 38.364 0.801166 38.1581C0.827075 37.9522 0.913539 37.7587 1.04959 37.6024V37.6024Z" fill="url(#paint10_linear_286_6716)"/>
<path d="M1.78357 40.0893C1.43512 40.089 1.09433 39.9863 0.803301 39.7938C0.512276 39.6013 0.283744 39.3274 0.145815 39.006C0.00788732 38.6846 -0.0333958 38.3296 0.0271134 37.9849C0.0876226 37.6403 0.247284 37.3209 0.48634 37.0662L33.3582 2.14465C33.9341 1.53883 34.7 1.15051 35.5273 1.04488L83.115 -4.98561C83.4798 -5.03231 83.85 -4.96471 84.1751 -4.79206C84.5002 -4.61941 84.7642 -4.35012 84.9311 -4.02102C85.0981 -3.69191 85.1598 -3.31905 85.1077 -2.9534C85.0557 -2.58775 84.8925 -2.24716 84.6405 -1.97819L51.7737 32.9173C51.2002 33.5272 50.4335 33.9178 49.6048 34.0223L2.01705 40.0528L1.78357 40.0893ZM1.61749 38.1399C1.58377 38.1724 1.56223 38.2155 1.55656 38.2621C1.55088 38.3086 1.56139 38.3557 1.58633 38.3953C1.60458 38.4406 1.63772 38.4782 1.6802 38.5019C1.72268 38.5256 1.77192 38.534 1.81981 38.5256L49.4077 32.4952C49.8791 32.4332 50.315 32.2106 50.6426 31.8645L83.5094 -3.03104C83.5423 -3.06382 83.5636 -3.10651 83.5702 -3.15261C83.5767 -3.19872 83.5681 -3.24571 83.5456 -3.28644C83.5257 -3.33152 83.4915 -3.36873 83.4483 -3.39229C83.4052 -3.41585 83.3555 -3.42445 83.3069 -3.41675L35.7244 2.63459C35.253 2.69654 34.8171 2.91917 34.4895 3.26527L1.61749 38.1868V38.1399Z" fill="#1B1C21"/>
<path d="M25.3291 54.0789C25.7568 54.0242 26.1892 54.1341 26.5396 54.3864C26.8899 54.6388 27.1323 55.0149 27.218 55.4393L32.22 80.2962L25.4173 81.1979L23.8606 55.8771C23.8344 55.4466 23.9712 55.022 24.2436 54.6885C24.5159 54.355 24.9036 54.1373 25.3291 54.0789Z" fill="white"/>
<path opacity="0.3" d="M25.3291 54.0775C25.7568 54.0228 26.1892 54.1326 26.5396 54.3849C26.8899 54.6373 27.1323 55.0134 27.218 55.4378L32.22 80.2947L25.4173 81.1964L23.8606 55.8757C23.8344 55.4451 23.9712 55.0206 24.2436 54.6871C24.5159 54.3536 24.9036 54.1358 25.3291 54.0775Z" fill="url(#paint11_linear_286_6716)"/>
<path d="M25.4404 81.9893C25.2607 81.9887 25.0867 81.9262 24.9474 81.8121C24.8648 81.7437 24.7973 81.6588 24.7491 81.5628C24.7008 81.4668 24.6729 81.3618 24.6672 81.2544L23.0794 55.9336C23.0477 55.3072 23.2515 54.6916 23.6503 54.2089C24.0492 53.7262 24.614 53.4117 25.2329 53.3275V53.3275C25.8548 53.2477 26.4837 53.4068 26.9938 53.7732C27.5038 54.1395 27.8572 54.686 27.983 55.3029L33.0059 80.1703C33.0267 80.2757 33.0258 80.3842 33.0032 80.4893C32.9807 80.5943 32.9369 80.6936 32.8746 80.781C32.8124 80.8684 32.7331 80.9421 32.6414 80.9975C32.5498 81.0529 32.4477 81.0889 32.3417 81.1032L25.5441 81.9997L25.4404 81.9893ZM25.4404 54.8547C25.2089 54.8871 24.998 55.0059 24.8499 55.1876C24.7018 55.3692 24.6273 55.6002 24.6413 55.8346L26.1721 80.3318L31.3195 79.649L26.4626 55.6053C26.4159 55.3724 26.2826 55.1661 26.0897 55.0286C25.8969 54.891 25.6591 54.8326 25.4248 54.8651L25.4404 54.8547Z" fill="#1B1C21"/>
<path d="M25.6139 54.6109C25.4236 54.611 25.2398 54.5411 25.0973 54.4143C24.9549 54.2875 24.8636 54.1127 24.8408 53.9229L22.7652 36.7696C22.7521 36.6573 22.7628 36.5435 22.7968 36.4356C22.8308 36.3278 22.8872 36.2284 22.9623 36.1442L41.4454 15.9835C41.5084 15.8917 41.5903 15.8146 41.6855 15.7572C41.7806 15.6999 41.8869 15.6636 41.9971 15.6509C42.1074 15.6381 42.2191 15.6492 42.3247 15.6834C42.4304 15.7176 42.5274 15.7741 42.6095 15.8491C42.6916 15.9241 42.7569 16.0158 42.8008 16.1182C42.8447 16.2206 42.8663 16.3312 42.8641 16.4427C42.862 16.5541 42.8362 16.6638 42.7884 16.7644C42.7406 16.865 42.6719 16.9542 42.587 17.0259L24.3531 36.9208L26.3715 53.7197C26.3838 53.8217 26.3761 53.9251 26.3486 54.024C26.3211 54.123 26.2744 54.2156 26.2113 54.2964C26.1481 54.3772 26.0697 54.4448 25.9806 54.4952C25.8914 54.5456 25.7933 54.5778 25.6917 54.5901L25.6139 54.6109Z" fill="#1B1C21"/>
</g>
</g>
<defs>
<linearGradient id="paint0_linear_286_6716" x1="59.7599" y1="296.511" x2="99.2582" y2="263.363" gradientUnits="userSpaceOnUse">
<stop offset="0.15" stop-color="#EF6129"/>
<stop offset="0.2" stop-color="#F06032"/>
<stop offset="0.55" stop-color="#F85D6A"/>
<stop offset="0.81" stop-color="#FD5B8C"/>
<stop offset="0.96" stop-color="#FF5A99"/>
</linearGradient>
<linearGradient id="paint1_linear_286_6716" x1="59.7599" y1="296.511" x2="99.2582" y2="263.363" gradientUnits="userSpaceOnUse">
<stop offset="0.15" stop-color="#EF6129"/>
<stop offset="0.2" stop-color="#F06032"/>
<stop offset="0.55" stop-color="#F85D6A"/>
<stop offset="0.81" stop-color="#FD5B8C"/>
<stop offset="0.96" stop-color="#FF5A99"/>
</linearGradient>
<linearGradient id="paint2_linear_286_6716" x1="59.7599" y1="296.511" x2="99.2582" y2="263.363" gradientUnits="userSpaceOnUse">
<stop offset="0.15" stop-color="#EF6129"/>
<stop offset="0.2" stop-color="#F06032"/>
<stop offset="0.55" stop-color="#F85D6A"/>
<stop offset="0.81" stop-color="#FD5B8C"/>
<stop offset="0.96" stop-color="#FF5A99"/>
</linearGradient>
<linearGradient id="paint3_linear_286_6716" x1="25.1857" y1="158.628" x2="31.8006" y2="155.277" gradientUnits="userSpaceOnUse">
<stop offset="0.15" stop-color="#EF6129"/>
<stop offset="0.2" stop-color="#F06032"/>
<stop offset="0.55" stop-color="#F85D6A"/>
<stop offset="0.81" stop-color="#FD5B8C"/>
<stop offset="0.96" stop-color="#FF5A99"/>
</linearGradient>
<linearGradient id="paint4_linear_286_6716" x1="10.3533" y1="173.468" x2="16.966" y2="170.12" gradientUnits="userSpaceOnUse">
<stop offset="0.15" stop-color="#EF6129"/>
<stop offset="0.2" stop-color="#F06032"/>
<stop offset="0.55" stop-color="#F85D6A"/>
<stop offset="0.81" stop-color="#FD5B8C"/>
<stop offset="0.96" stop-color="#FF5A99"/>
</linearGradient>
<linearGradient id="paint5_linear_286_6716" x1="25.1314" y1="173.46" x2="31.7759" y2="170.096" gradientUnits="userSpaceOnUse">
<stop offset="0.15" stop-color="#EF6129"/>
<stop offset="0.2" stop-color="#F06032"/>
<stop offset="0.55" stop-color="#F85D6A"/>
<stop offset="0.81" stop-color="#FD5B8C"/>
<stop offset="0.96" stop-color="#FF5A99"/>
</linearGradient>
<linearGradient id="paint6_linear_286_6716" x1="10.3825" y1="158.637" x2="16.9597" y2="155.307" gradientUnits="userSpaceOnUse">
<stop offset="0.15" stop-color="#EF6129"/>
<stop offset="0.2" stop-color="#F06032"/>
<stop offset="0.55" stop-color="#F85D6A"/>
<stop offset="0.81" stop-color="#FD5B8C"/>
<stop offset="0.96" stop-color="#FF5A99"/>
</linearGradient>
<linearGradient id="paint7_linear_286_6716" x1="48.8317" y1="212.297" x2="73.8367" y2="203.855" gradientUnits="userSpaceOnUse">
<stop offset="0.15" stop-color="#EF6129"/>
<stop offset="0.2" stop-color="#F06032"/>
<stop offset="0.55" stop-color="#F85D6A"/>
<stop offset="0.81" stop-color="#FD5B8C"/>
<stop offset="0.96" stop-color="#FF5A99"/>
</linearGradient>
<linearGradient id="paint8_linear_286_6716" x1="10.8995" y1="50.6796" x2="66.4068" y2="15.0952" gradientUnits="userSpaceOnUse">
<stop offset="0.15" stop-color="#EF6129"/>
<stop offset="0.2" stop-color="#F06032"/>
<stop offset="0.55" stop-color="#F85D6A"/>
<stop offset="0.81" stop-color="#FD5B8C"/>
<stop offset="0.96" stop-color="#FF5A99"/>
</linearGradient>
<linearGradient id="paint9_linear_286_6716" x1="-6.92992" y1="34.5932" x2="48.4686" y2="-15.2342" gradientUnits="userSpaceOnUse">
<stop offset="0.15" stop-color="#EF6129"/>
<stop offset="0.2" stop-color="#F06032"/>
<stop offset="0.55" stop-color="#F85D6A"/>
<stop offset="0.81" stop-color="#FD5B8C"/>
<stop offset="0.96" stop-color="#FF5A99"/>
</linearGradient>
<linearGradient id="paint10_linear_286_6716" x1="-6.75216" y1="30.0178" x2="43.1048" y2="-18.4261" gradientUnits="userSpaceOnUse">
<stop offset="0.15" stop-color="#EF6129"/>
<stop offset="0.2" stop-color="#F06032"/>
<stop offset="0.55" stop-color="#F85D6A"/>
<stop offset="0.81" stop-color="#FD5B8C"/>
<stop offset="0.96" stop-color="#FF5A99"/>
</linearGradient>
<linearGradient id="paint11_linear_286_6716" x1="23.1019" y1="75.3909" x2="32.577" y2="73.9119" gradientUnits="userSpaceOnUse">
<stop offset="0.15" stop-color="#EF6129"/>
<stop offset="0.2" stop-color="#F06032"/>
<stop offset="0.55" stop-color="#F85D6A"/>
<stop offset="0.81" stop-color="#FD5B8C"/>
<stop offset="0.96" stop-color="#FF5A99"/>
</linearGradient>
</defs>
</svg>
