<svg width="26" height="26" viewBox="0 0 26 26" fill="none" xmlns="http://www.w3.org/2000/svg">
<path d="M24.7 11.9587H23.426C22.7071 11.9587 22.126 12.4254 22.126 13C22.126 13.5733 22.7071 14.0387 23.426 14.0387H24.7C25.4176 14.0387 26 13.5746 26 13C26 12.4267 25.4163 11.9587 24.7 11.9587ZM13 5.85C9.0337 5.85 5.85 9.0337 5.85 13C5.85 16.9663 9.0337 20.15 13 20.15C16.965 20.15 20.15 16.9663 20.15 13C20.15 9.0337 16.9637 5.85 13 5.85ZM13 18.2C10.1257 18.2 7.8 15.8717 7.8 13C7.8 10.1257 10.1257 7.8 13 7.8C14.3791 7.8 15.7018 8.34786 16.677 9.32304C17.6521 10.2982 18.2 11.6209 18.2 13C18.2 14.3791 17.6521 15.7018 16.677 16.677C15.7018 17.6521 14.3791 18.2 13 18.2ZM3.9 13C3.9 12.4267 3.3163 11.9587 2.6 11.9587H1.3C0.5811 11.9587 0 12.4254 0 13C0 13.5733 0.5811 14.0387 1.3 14.0387H2.6C3.3163 14.0387 3.9 13.5733 3.9 13ZM13 3.9C13.5733 3.9 14.0387 3.3189 14.0387 2.6V1.3C14.0387 0.5811 13.5733 0 13 0C12.4254 0 11.9587 0.5811 11.9587 1.3V2.6C11.9587 3.3189 12.4254 3.9 13 3.9ZM13 22.1C12.4254 22.1 11.9587 22.6811 11.9587 23.4V24.7C11.9587 25.4189 12.4254 26 13 26C13.5733 26 14.0387 25.4189 14.0387 24.7V23.4C14.0387 22.6811 13.5733 22.1 13 22.1ZM22.5745 4.8958C23.0828 4.3875 23.1647 3.6465 22.7591 3.2409C22.3535 2.8353 21.6112 2.9185 21.1055 3.4268L20.1955 4.3355C19.6872 4.8438 19.6053 5.5848 20.0109 5.9904C20.4165 6.396 21.1588 6.3128 21.6658 5.8045L22.5745 4.8958V4.8958ZM4.3342 20.1929L3.4242 21.1042C2.9159 21.6125 2.834 22.3509 3.2396 22.7565C3.6452 23.1621 4.3875 23.0815 4.8932 22.5732L5.8032 21.6645C6.3115 21.1562 6.3934 20.4152 5.9878 20.0083C5.5822 19.6014 4.8399 19.6872 4.3342 20.1929V20.1929ZM4.8945 3.4255C4.3875 2.9172 3.6452 2.834 3.2396 3.2396C2.834 3.6452 2.9172 4.3875 3.4229 4.8958L4.3329 5.8045C4.8412 6.3128 5.5809 6.396 5.9865 5.9904C6.3921 5.5848 6.3102 4.8425 5.8032 4.3355L4.8945 3.4255V3.4255ZM20.1942 21.6658L21.1042 22.5745C21.6125 23.0828 22.3522 23.1634 22.7578 22.7604C23.1634 22.3548 23.0815 21.6125 22.5732 21.1055L21.6645 20.1968C21.1562 19.6885 20.4152 19.6053 20.0083 20.0109C19.6014 20.4165 19.6859 21.1575 20.1942 21.6658V21.6658Z" fill="url(#paint0_linear_431_62263)"/>
<defs>
<linearGradient id="paint0_linear_431_62263" x1="-2.34902" y1="20.4368" x2="21.6679" y2="8.27397" gradientUnits="userSpaceOnUse">
<stop offset="0.15" stop-color="#EF6129"/>
<stop offset="0.2" stop-color="#F06032"/>
<stop offset="0.55" stop-color="#F85D6A"/>
<stop offset="0.81" stop-color="#FD5B8C"/>
<stop offset="0.96" stop-color="#FF5A99"/>
</linearGradient>
</defs>
</svg>
