<svg width="12" height="13" viewBox="0 0 12 13" fill="none" xmlns="http://www.w3.org/2000/svg">
  <path fill-rule="evenodd" clip-rule="evenodd" d="M7.84 0.5C11.2 0.5 12 1.3 12 4.66V8.34C12 11.7 11.2 12.5 7.84 12.5H4.16C0.8 12.5 0 11.7 0 8.34V4.66C0 1.3 0.8 0.5 4.16 0.5H7.84ZM3.25 4.25H2.375C2.125 4.25 2.075 4.37 2.075 4.495C2.075 4.73 2.37 5.88 3.455 7.4C3.74204 7.85863 4.13364 8.24273 4.59774 8.52084C5.06183 8.79895 5.58521 8.96315 6.125 9C6.68 9 6.75 8.875 6.75 8.66V7.875C6.75 7.625 6.805 7.575 6.98 7.575C7.155 7.575 7.33 7.64 7.85 8.14C8.445 8.735 8.54 9 8.875 9H9.75C10 9 10.125 8.875 10.055 8.63C9.86871 8.24856 9.61842 7.90188 9.315 7.605C9.11 7.36 8.815 7.105 8.71 6.975C8.605 6.845 8.62 6.73 8.71 6.585C9.17333 5.96219 9.5689 5.29173 9.89 4.585C9.945 4.4 9.89 4.265 9.625 4.265H8.75C8.66892 4.26054 8.5885 4.28184 8.52025 4.32584C8.452 4.36985 8.39941 4.43431 8.37 4.51C8.09886 5.15488 7.73686 5.75765 7.295 6.3C7.09 6.505 6.995 6.57 6.885 6.57C6.775 6.57 6.75 6.505 6.75 6.32V4.57C6.75 4.35 6.685 4.25 6.5 4.25H5.125C5.06878 4.24725 5.01372 4.26666 4.97166 4.30405C4.92959 4.34144 4.90386 4.39385 4.9 4.45C4.9 4.66 5.22 4.71 5.25 5.305V6.59C5.25 6.875 5.2 6.925 5.09 6.925C4.79 6.925 4.09 5.835 3.64 4.59C3.56 4.35 3.5 4.25 3.25 4.25Z" fill="#4872A3"/>
</svg>
