<svg width="208" height="235" viewBox="29 29 208 235" fill="none" xmlns="http://www.w3.org/2000/svg">
  <g filter="url(#filter0_d_235_6677)">
    <rect x="28" y="26" width="208" height="235" fill="#B0B0B0"/>
  </g>
  <path d="M98.915 151.588V139.952H102.847C103.76 139.952 104.506 140.117 105.085 140.446C105.669 140.772 106.101 141.213 106.381 141.77C106.661 142.327 106.801 142.948 106.801 143.634C106.801 144.319 106.661 144.942 106.381 145.503C106.104 146.064 105.676 146.511 105.097 146.844C104.517 147.173 103.775 147.338 102.869 147.338H100.051V146.088H102.824C103.449 146.088 103.951 145.98 104.33 145.764C104.709 145.548 104.983 145.257 105.154 144.889C105.328 144.518 105.415 144.1 105.415 143.634C105.415 143.168 105.328 142.751 105.154 142.384C104.983 142.016 104.707 141.728 104.324 141.52C103.941 141.308 103.434 141.202 102.801 141.202H100.324V151.588H98.915ZM112.455 151.77C111.614 151.77 110.888 151.584 110.279 151.213C109.673 150.838 109.205 150.315 108.875 149.645C108.549 148.971 108.387 148.187 108.387 147.293C108.387 146.399 108.549 145.611 108.875 144.929C109.205 144.243 109.663 143.709 110.25 143.327C110.841 142.94 111.53 142.747 112.318 142.747C112.773 142.747 113.222 142.823 113.665 142.975C114.108 143.126 114.512 143.372 114.875 143.713C115.239 144.05 115.529 144.497 115.744 145.054C115.96 145.611 116.068 146.297 116.068 147.111V147.679H109.341V146.52H114.705C114.705 146.028 114.606 145.588 114.409 145.202C114.216 144.815 113.94 144.511 113.58 144.287C113.224 144.064 112.803 143.952 112.318 143.952C111.784 143.952 111.322 144.084 110.932 144.35C110.546 144.611 110.248 144.952 110.04 145.372C109.832 145.793 109.727 146.243 109.727 146.725V147.497C109.727 148.156 109.841 148.715 110.068 149.173C110.299 149.628 110.619 149.975 111.029 150.213C111.438 150.448 111.913 150.565 112.455 150.565C112.807 150.565 113.125 150.516 113.409 150.418C113.697 150.315 113.945 150.164 114.154 149.963C114.362 149.759 114.523 149.505 114.637 149.202L115.932 149.565C115.796 150.005 115.566 150.391 115.244 150.725C114.923 151.054 114.525 151.312 114.051 151.497C113.578 151.679 113.046 151.77 112.455 151.77ZM118.108 151.588V142.861H119.449V146.656H120.335L123.472 142.861H125.199L121.676 147.065L125.244 151.588H123.517L120.654 147.906H119.449V151.588H118.108ZM125.929 151.588V150.338H126.247C126.509 150.338 126.727 150.287 126.901 150.185C127.075 150.079 127.215 149.895 127.321 149.634C127.431 149.368 127.514 149.001 127.571 148.531C127.632 148.058 127.675 147.456 127.702 146.725L127.861 142.861H133.679V151.588H132.338V144.111H129.134L128.997 147.225C128.967 147.94 128.903 148.571 128.804 149.117C128.709 149.658 128.564 150.113 128.367 150.48C128.173 150.848 127.916 151.124 127.594 151.31C127.272 151.495 126.869 151.588 126.384 151.588H125.929ZM138.708 151.793C138.155 151.793 137.653 151.689 137.202 151.48C136.751 151.268 136.393 150.963 136.128 150.565C135.863 150.164 135.73 149.679 135.73 149.111C135.73 148.611 135.829 148.206 136.026 147.895C136.223 147.581 136.486 147.334 136.816 147.156C137.145 146.978 137.509 146.846 137.906 146.759C138.308 146.668 138.711 146.596 139.117 146.543C139.647 146.475 140.077 146.423 140.406 146.389C140.74 146.351 140.982 146.289 141.134 146.202C141.289 146.115 141.367 145.963 141.367 145.747V145.702C141.367 145.141 141.213 144.706 140.906 144.395C140.603 144.084 140.143 143.929 139.526 143.929C138.886 143.929 138.384 144.069 138.02 144.35C137.656 144.63 137.401 144.929 137.253 145.247L135.98 144.793C136.208 144.262 136.511 143.85 136.889 143.554C137.272 143.255 137.689 143.047 138.139 142.929C138.594 142.808 139.041 142.747 139.48 142.747C139.761 142.747 140.083 142.781 140.446 142.85C140.814 142.914 141.168 143.048 141.509 143.253C141.853 143.458 142.139 143.766 142.367 144.179C142.594 144.592 142.708 145.145 142.708 145.838V151.588H141.367V150.406H141.298C141.208 150.596 141.056 150.798 140.844 151.014C140.632 151.23 140.35 151.414 139.997 151.565C139.645 151.717 139.215 151.793 138.708 151.793ZM138.912 150.588C139.442 150.588 139.889 150.484 140.253 150.276C140.62 150.067 140.897 149.798 141.083 149.469C141.272 149.139 141.367 148.793 141.367 148.429V147.202C141.31 147.27 141.185 147.333 140.992 147.389C140.802 147.442 140.583 147.49 140.333 147.531C140.086 147.569 139.846 147.603 139.611 147.634C139.38 147.66 139.192 147.683 139.048 147.702C138.7 147.747 138.374 147.821 138.071 147.923C137.772 148.022 137.53 148.172 137.344 148.372C137.162 148.569 137.071 148.838 137.071 149.179C137.071 149.645 137.244 149.997 137.588 150.236C137.937 150.471 138.378 150.588 138.912 150.588ZM149.928 149.77L152.973 142.861H154.246L150.473 151.588H149.382L145.678 142.861H146.928L149.928 149.77ZM146.496 142.861V151.588H145.155V142.861H146.496ZM153.36 151.588V142.861H154.7V151.588H153.36ZM159.723 151.793C159.17 151.793 158.668 151.689 158.218 151.48C157.767 151.268 157.409 150.963 157.144 150.565C156.878 150.164 156.746 149.679 156.746 149.111C156.746 148.611 156.844 148.206 157.041 147.895C157.238 147.581 157.502 147.334 157.831 147.156C158.161 146.978 158.524 146.846 158.922 146.759C159.324 146.668 159.727 146.596 160.132 146.543C160.663 146.475 161.093 146.423 161.422 146.389C161.755 146.351 161.998 146.289 162.149 146.202C162.305 146.115 162.382 145.963 162.382 145.747V145.702C162.382 145.141 162.229 144.706 161.922 144.395C161.619 144.084 161.159 143.929 160.541 143.929C159.901 143.929 159.399 144.069 159.036 144.35C158.672 144.63 158.416 144.929 158.269 145.247L156.996 144.793C157.223 144.262 157.526 143.85 157.905 143.554C158.288 143.255 158.704 143.047 159.155 142.929C159.61 142.808 160.057 142.747 160.496 142.747C160.776 142.747 161.098 142.781 161.462 142.85C161.829 142.914 162.183 143.048 162.524 143.253C162.869 143.458 163.155 143.766 163.382 144.179C163.61 144.592 163.723 145.145 163.723 145.838V151.588H162.382V150.406H162.314C162.223 150.596 162.072 150.798 161.86 151.014C161.647 151.23 161.365 151.414 161.013 151.565C160.661 151.717 160.231 151.793 159.723 151.793ZM159.928 150.588C160.458 150.588 160.905 150.484 161.269 150.276C161.636 150.067 161.913 149.798 162.098 149.469C162.288 149.139 162.382 148.793 162.382 148.429V147.202C162.325 147.27 162.2 147.333 162.007 147.389C161.818 147.442 161.598 147.49 161.348 147.531C161.102 147.569 160.861 147.603 160.627 147.634C160.396 147.66 160.208 147.683 160.064 147.702C159.716 147.747 159.39 147.821 159.087 147.923C158.788 148.022 158.545 148.172 158.36 148.372C158.178 148.569 158.087 148.838 158.087 149.179C158.087 149.645 158.259 149.997 158.604 150.236C158.952 150.471 159.394 150.588 159.928 150.588Z" fill="white"/>
  <defs>
    <filter id="filter0_d_235_6677" x="0" y="0" width="268" height="295" filterUnits="userSpaceOnUse" color-interpolation-filters="sRGB">
      <feFlood flood-opacity="0" result="BackgroundImageFix"/>
      <feColorMatrix in="SourceAlpha" type="matrix" values="0 0 0 0 0 0 0 0 0 0 0 0 0 0 0 0 0 0 127 0" result="hardAlpha"/>
      <feOffset dx="2" dy="4"/>
      <feGaussianBlur stdDeviation="15"/>
      <feComposite in2="hardAlpha" operator="out"/>
      <feColorMatrix type="matrix" values="0 0 0 0 0 0 0 0 0 0 0 0 0 0 0 0 0 0 0.2 0"/>
      <feBlend mode="normal" in2="BackgroundImageFix" result="effect1_dropShadow_235_6677"/>
      <feBlend mode="normal" in="SourceGraphic" in2="effect1_dropShadow_235_6677" result="shape"/>
    </filter>
  </defs>
</svg>

