<svg width="19" height="19" viewBox="0 0 19 19" fill="none" xmlns="http://www.w3.org/2000/svg">
  <path d="M9.72162 18.8176C8.42642 18.8176 7.30564 17.6367 6.95117 15.9257H1.0392C0.89084 15.9257 0.756065 15.8371 0.698157 15.7002C0.639642 15.5636 0.66838 15.4057 0.7713 15.2975C1.15268 14.8988 1.51572 14.5893 1.83634 14.316C2.62412 13.6444 3.09994 13.2389 3.09994 12.1919V8.7285C3.11544 5.74832 5.09931 3.09725 7.85296 2.32496C7.98643 1.71964 8.47065 0.899658 9.66769 0.899658C10.8524 0.899658 11.3424 1.74596 11.4799 2.3646C14.2488 3.13966 16.2423 5.77438 16.2565 8.72729V12.3059C16.2565 13.3208 16.6775 13.6647 17.4402 14.2877C17.7766 14.5621 18.1573 14.8731 18.565 15.2979C18.6676 15.4054 18.697 15.5637 18.6382 15.7007C18.5799 15.8372 18.4455 15.9261 18.2971 15.9261H12.4915C12.137 17.6367 11.0168 18.8176 9.72162 18.8176ZM7.74675 16.0593C8.07888 17.2501 8.86666 18.0753 9.72162 18.0753C10.5763 18.0753 11.3635 17.2501 11.6959 16.0593H7.74675ZM1.9667 15.1832H17.3593C17.2249 15.0689 17.0948 14.9626 16.9715 14.8626C16.158 14.1981 15.5152 13.6733 15.5152 12.3059V8.7285C15.5022 6.0306 13.631 3.63002 11.0654 3.0235C10.9071 2.98602 10.7918 2.84968 10.7803 2.68738C10.7729 2.58265 10.6688 1.64156 9.66821 1.64156C8.63814 1.64156 8.56076 2.53902 8.55609 2.64185C8.54743 2.80666 8.43092 2.94577 8.27044 2.98325C5.71916 3.58545 3.85708 6.00272 3.84315 8.73066V12.1922C3.84315 13.5819 3.13621 14.1838 2.31804 14.8815C2.2056 14.9766 2.08788 15.077 1.9667 15.1832Z" fill="white"/>
  <path d="M11.6461 3.17377C11.6104 3.17377 11.5739 3.16849 11.538 3.15732C9.56961 2.55824 7.946 3.06064 7.92964 3.06592C7.73323 3.12789 7.52627 3.02004 7.46369 2.82554C7.4011 2.63069 7.508 2.42217 7.70251 2.35959C7.77712 2.33544 9.55282 1.77782 11.7539 2.44753C11.9499 2.50674 12.0602 2.71422 12.0011 2.91037C11.9522 3.07059 11.8047 3.17377 11.6461 3.17377Z" fill="white"/>
</svg>
