<svg width="18" height="18" viewBox="0 0 18 18" fill="none" xmlns="http://www.w3.org/2000/svg">
  <path d="M11.2242 3.51416C10.7188 3.51416 10.3105 3.92239 10.3105 4.42782C10.3105 4.93325 10.7188 5.34149 11.2242 5.34149C11.7296 5.34149 12.1379 4.93325 12.1379 4.42782C12.1379 3.92239 11.7296 3.51416 11.2242 3.51416ZM11.2242 4.7583C11.0415 4.7583 10.8937 4.61056 10.8937 4.42782C10.8937 4.24509 11.0415 4.09735 11.2242 4.09735C11.4069 4.09735 11.5547 4.24509 11.5547 4.42782C11.5547 4.61056 11.4069 4.7583 11.2242 4.7583Z" fill="white"/>
  <path d="M14.483 5.83545C13.9776 5.83545 13.5693 6.24368 13.5693 6.74911C13.5693 7.25454 13.9776 7.66278 14.483 7.66278C14.9884 7.66278 15.3967 7.25454 15.3967 6.74911C15.3967 6.24368 14.9884 5.83545 14.483 5.83545ZM14.483 7.07959C14.3003 7.07959 14.1525 6.93185 14.1525 6.74911C14.1525 6.56638 14.3003 6.41864 14.483 6.41864C14.6657 6.41864 14.8135 6.56638 14.8135 6.74911C14.8135 6.93185 14.6657 7.07959 14.483 7.07959Z" fill="white"/>
  <path d="M2.86474 10.0459C2.35154 10.0459 1.93164 10.4658 1.93164 10.979C1.93164 11.4922 2.35154 11.9121 2.86474 11.9121C3.38184 11.9121 3.79785 11.4922 3.79785 10.979C3.79785 10.4658 3.37795 10.0459 2.86474 10.0459ZM2.86474 11.3289C2.67035 11.3289 2.51483 11.1734 2.51483 10.979C2.51483 10.7846 2.67035 10.6291 2.86474 10.6291C3.05914 10.6291 3.21466 10.7846 3.21466 10.979C3.21466 11.1734 3.05914 11.3289 2.86474 11.3289Z" fill="white"/>
  <path d="M5.43115 9.28809C5.94825 9.28809 6.36425 8.86819 6.36425 8.35498C6.36425 7.84177 5.94436 7.42188 5.43115 7.42188C4.91794 7.42188 4.49805 7.84177 4.49805 8.35498C4.49805 8.86819 4.91794 9.28809 5.43115 9.28809ZM5.43115 8.00507C5.62555 8.00507 5.78106 8.16058 5.78106 8.35498C5.78106 8.54938 5.62555 8.7049 5.43115 8.7049C5.23675 8.7049 5.08124 8.54938 5.08124 8.35498C5.08124 8.16058 5.23675 8.00507 5.43115 8.00507Z" fill="white"/>
  <path d="M8.22641 11.0449C7.63544 11.0449 7.15723 11.5231 7.15723 12.1141C7.15723 12.7051 7.63544 13.1833 8.22641 13.1833C8.81737 13.1833 9.29558 12.7051 9.29558 12.1141C9.29558 11.5231 8.81737 11.0449 8.22641 11.0449ZM8.22641 12.6001C7.95814 12.6001 7.74042 12.3824 7.74042 12.1141C7.74042 11.8458 7.95814 11.6281 8.22641 11.6281C8.49467 11.6281 8.7124 11.8458 8.7124 12.1141C8.7124 12.3824 8.49467 12.6001 8.22641 12.6001Z" fill="white"/>
  <path d="M17.3518 4.89833C17.3169 4.82834 17.2585 4.77391 17.1847 4.75059C17.1108 4.72726 17.0291 4.73115 16.963 4.76614C16.9242 4.78558 16.7998 4.78558 16.7531 4.78558C16.201 4.78558 15.7383 4.33846 15.7383 3.80582V3.65808C15.7383 3.55699 15.6839 3.46368 15.5984 3.40925C15.5129 3.35482 15.404 3.35093 15.3146 3.39759C15.1746 3.46757 14.9802 3.51422 14.8169 3.51422C13.9266 3.51422 13.1723 2.77552 13.1723 1.90073C13.1723 1.76077 13.0751 1.64413 12.939 1.61302C12.6669 1.55859 12.453 1.55859 12.2042 1.55859C10.1086 1.55859 8.13744 2.8455 7.14991 4.84001C6.85442 4.80113 6.55117 4.7778 6.24791 4.7778C4.57998 4.7778 3.01315 5.38432 1.8351 6.4846C0.653173 7.59267 0 9.06619 0 10.633C0 13.8367 2.8032 16.4416 6.24791 16.4416C8.44848 16.4416 10.3886 15.3763 11.5044 13.7706C11.7765 13.8134 12.0448 13.8328 12.3131 13.8328C14.8597 13.8328 17.1341 11.9899 17.8184 9.23726C18.1722 7.79873 18.005 6.21245 17.3518 4.89833ZM6.24402 15.8701C3.12201 15.8701 0.579302 13.5257 0.579302 10.6447C0.579302 7.73652 3.12201 5.36877 6.24402 5.36877C9.36603 5.36877 11.9087 7.73652 11.9087 10.6447C11.9087 13.5257 9.36603 15.8701 6.24402 15.8701ZM17.243 9.10896C16.5859 11.7683 14.2959 13.4868 11.831 13.2379C12.2509 12.4565 12.488 11.5739 12.488 10.6447C12.488 9.07397 11.8349 7.60044 10.6529 6.49627C9.83647 5.73423 8.83338 5.20936 7.74087 4.95665C8.65454 3.24207 10.373 2.14567 12.1964 2.14567C12.3481 2.14567 12.4725 2.14567 12.5969 2.15733C12.7291 3.23429 13.6894 4.09741 14.8091 4.09741C14.9258 4.09741 15.0463 4.08186 15.1668 4.05853C15.2912 4.80113 15.9522 5.36877 16.7453 5.36877C16.7959 5.36877 16.8542 5.36877 16.9203 5.36488C17.4374 6.51182 17.554 7.86482 17.243 9.10896Z" fill="white"/>
  <path d="M9.16419 8.43232L8.95813 8.5373V8.35068C8.95813 8.19127 8.82594 8.05908 8.66654 8.05908C8.50713 8.05908 8.37494 8.19127 8.37494 8.35068V8.82889L7.9045 9.06606C7.76065 9.13993 7.70233 9.31488 7.7762 9.45874C7.82675 9.55982 7.93172 9.61814 8.03669 9.61814C8.07946 9.61814 8.12612 9.60648 8.16888 9.58704L8.37494 9.48207V9.66869C8.37494 9.82809 8.50713 9.96028 8.66654 9.96028C8.82594 9.96028 8.95813 9.82809 8.95813 9.66869V9.19047L9.42857 8.95331C9.57242 8.87944 9.62686 8.70448 9.55687 8.56062C9.483 8.41677 9.30805 8.35845 9.16419 8.43232Z" fill="white"/>
  <path d="M14.7668 9.38118V9.32675C14.7668 9.16735 14.6346 9.03516 14.4752 9.03516C14.3158 9.03516 14.1836 9.16735 14.1836 9.32675V9.55614L13.7598 9.68444C13.6043 9.73109 13.5188 9.89439 13.5654 10.0499C13.6043 10.1743 13.721 10.256 13.8454 10.256C13.8726 10.256 13.9037 10.2521 13.9309 10.2443L14.1836 10.1665V10.6486C14.1836 10.808 14.3158 10.9402 14.4752 10.9402C14.6346 10.9402 14.7668 10.808 14.7668 10.6486V9.99158L14.899 9.9527C15.0545 9.89827 15.1401 9.73498 15.0934 9.58335C15.0506 9.44339 14.9107 9.35785 14.7668 9.38118Z" fill="white"/>
  <path d="M6.09989 13.2806H5.64112L5.39229 12.7635C5.32231 12.6197 5.14735 12.5575 5.0035 12.6274C4.85964 12.6974 4.79744 12.8724 4.86742 13.0162L4.99572 13.2845H4.79355C4.63414 13.2845 4.50195 13.4167 4.50195 13.5761C4.50195 13.7355 4.63414 13.8677 4.79355 13.8677H5.27565L5.50115 14.3381C5.55169 14.4431 5.65667 14.5053 5.76553 14.5053C5.8083 14.5053 5.85106 14.4975 5.88994 14.4781C6.0338 14.4081 6.096 14.2332 6.02602 14.0893L5.92105 13.8716H6.09989C6.25929 13.8716 6.39148 13.7394 6.39148 13.58C6.39148 13.4206 6.25929 13.2806 6.09989 13.2806Z" fill="white"/>
</svg>
