<svg xmlns="http://www.w3.org/2000/svg" width="91" height="87" viewBox="0 0 91 87" fill="none">
  <path d="M66.7755 69.2994C66.7755 66.1506 68.5849 63.4267 71.2125 62.1131C66.1018 58.5295 62.762 52.5989 62.762 45.8761C62.762 38.458 66.8332 32.0057 72.8487 28.6057C68.6427 26.7415 65.7072 22.5205 65.7072 17.604C65.7072 14.4938 66.891 11.6733 68.8159 9.53864C61.7225 4.17784 52.9062 1 43.3489 1C19.9607 1 1 20.0284 1 43.5C1 66.9716 19.9607 86 43.3489 86C53.6858 86 63.1662 82.2716 70.5195 76.0994C68.277 74.6699 66.7755 72.1682 66.7755 69.2994Z" fill="url(#paint0_linear_3015_4707)"/>
  <path d="M19.3661 55.2714L16.8383 57.1369C16.4315 57.4372 16.3443 58.0115 16.6434 58.4198L20.4353 63.5945C20.7344 64.0028 21.3068 64.0904 21.7136 63.7902L24.2413 61.9247C24.6482 61.6244 24.7354 61.0501 24.4363 60.6418L20.6444 55.4671C20.3452 55.0588 19.7729 54.9712 19.3661 55.2714Z" fill="url(#paint1_linear_3015_4707)"/>
  <path d="M53.8475 11.6201L52.4094 8.82142C52.178 8.371 51.6265 8.19416 51.1777 8.42644L45.4891 11.3705C45.0403 11.6028 44.8641 12.1562 45.0955 12.6066L46.5336 15.4053C46.7651 15.8557 47.3166 16.0325 47.7654 15.8002L53.4539 12.8562C53.9028 12.6239 54.079 12.0705 53.8475 11.6201Z" fill="url(#paint2_linear_3015_4707)"/>
  <path d="M86.5073 51.9779L88.1862 47.5653C88.3664 47.0919 88.13 46.5615 87.6582 46.3808L79.2692 43.1659C78.7974 42.9851 78.269 43.2223 78.0888 43.6957L76.4098 48.1083C76.2297 48.5817 76.4661 49.1121 76.9378 49.2929L85.3269 52.5078C85.7986 52.6885 86.3271 52.4513 86.5073 51.9779Z" fill="url(#paint3_linear_3015_4707)"/>
  <path d="M45.8032 64.4409V62.9534C45.8032 62.4466 45.3938 62.0358 44.8888 62.0358H42.0592C41.5542 62.0358 41.1448 62.4466 41.1448 62.9534V64.4409C41.1448 64.9477 41.5542 65.3585 42.0592 65.3585H44.8888C45.3938 65.3585 45.8032 64.9477 45.8032 64.4409Z" fill="url(#paint4_linear_3015_4707)"/>
  <path d="M61.1334 75.1353L60.1982 73.3154C59.9668 72.865 59.4153 72.6881 58.9665 72.9204L54.9032 75.0233C54.4544 75.2556 54.2782 75.809 54.5097 76.2594L55.4449 78.0794C55.6763 78.5298 56.2278 78.7066 56.6766 78.4744L60.7399 76.3715C61.1887 76.1392 61.3649 75.5858 61.1334 75.1353Z" fill="url(#paint5_linear_3015_4707)"/>
  <path d="M28.454 18.2301L29.8325 16.7204C30.1737 16.3467 30.1484 15.7663 29.7761 15.4239L26.4055 12.3243C26.0332 11.9819 25.4548 12.0072 25.1136 12.3809L23.7351 13.8906C23.394 14.2642 23.4192 14.8447 23.7915 15.1871L27.1622 18.2867C27.5345 18.6291 28.1129 18.6038 28.454 18.2301Z" fill="url(#paint6_linear_3015_4707)"/>
  <path d="M11.8763 36.8752L12.0406 37.7975C12.1295 38.2964 12.6046 38.6284 13.1017 38.5392L15.8114 38.0529C16.3085 37.9637 16.6394 37.4869 16.5505 36.988L16.3861 36.0657C16.2972 35.5669 15.8221 35.2348 15.325 35.324L12.6154 35.8104C12.1183 35.8996 11.7874 36.3763 11.8763 36.8752Z" fill="url(#paint7_linear_3015_4707)"/>
  <path d="M78.8931 65.3065L79.0575 66.2287C79.1464 66.7276 79.6214 67.0597 80.1185 66.9705L82.8282 66.4841C83.3253 66.3949 83.6562 65.9182 83.5673 65.4193L83.4029 64.497C83.314 63.9981 82.839 63.666 82.3419 63.7553L79.6322 64.2416C79.1351 64.3308 78.8042 64.8076 78.8931 65.3065Z" fill="url(#paint8_linear_3015_4707)"/>
  <path d="M54.2345 32.2085L49.4991 36.9608L54.2345 40.7085" fill="url(#paint9_linear_3015_4707)"/>
  <path d="M30.7982 32.2085L35.5432 36.9608L30.7982 40.7085" fill="url(#paint10_linear_3015_4707)"/>
  <path d="M34.5807 47.8369C35.1197 51.7682 38.4595 54.7915 42.5211 54.7915C46.5828 54.7915 49.9226 51.7585 50.4616 47.8369H34.5807Z" fill="url(#paint11_linear_3015_4707)"/>
  <path d="M79.6245 22.2983C83.473 22.2983 86.5928 19.1673 86.5928 15.3051C86.5928 11.4429 83.473 8.31193 79.6245 8.31193C75.776 8.31193 72.6562 11.4429 72.6562 15.3051C72.6562 19.1673 75.776 22.2983 79.6245 22.2983Z" fill="url(#paint12_linear_3015_4707)"/>
  <path d="M87.7478 32.5949C88.9917 32.5949 90 31.5829 90 30.3347C90 29.0864 88.9917 28.0744 87.7478 28.0744C86.504 28.0744 85.4956 29.0864 85.4956 30.3347C85.4956 31.5829 86.504 32.5949 87.7478 32.5949Z" fill="url(#paint13_linear_3015_4707)"/>
  <path d="M54.2345 32.2085L49.4991 36.9608L54.2345 40.7085M30.7982 32.2085L35.5432 36.9608L30.7982 40.7085M66.7755 69.2994C66.7755 66.1506 68.5849 63.4267 71.2125 62.1131C66.1018 58.5295 62.762 52.5989 62.762 45.8761C62.762 38.458 66.8332 32.0057 72.8487 28.6057C68.6427 26.7415 65.7071 22.5205 65.7071 17.604C65.7071 14.4938 66.891 11.6733 68.8159 9.53864C61.7225 4.17784 52.9062 1 43.3489 1C19.9607 1 1 20.0284 1 43.5C1 66.9716 19.9607 86 43.3489 86C53.6858 86 63.1662 82.2716 70.5195 76.0994C68.277 74.6699 66.7755 72.1682 66.7755 69.2994ZM16.8383 57.1369L19.3661 55.2714C19.7729 54.9712 20.3452 55.0588 20.6444 55.4671L24.4363 60.6418C24.7354 61.0501 24.6482 61.6244 24.2413 61.9247L21.7136 63.7902C21.3068 64.0904 20.7344 64.0028 20.4353 63.5945L16.6434 58.4198C16.3443 58.0115 16.4315 57.4372 16.8383 57.1369ZM52.4094 8.82142L53.8475 11.6201C54.079 12.0705 53.9028 12.6239 53.4539 12.8562L47.7654 15.8002C47.3166 16.0325 46.7651 15.8557 46.5336 15.4053L45.0955 12.6066C44.8641 12.1562 45.0403 11.6028 45.4891 11.3705L51.1777 8.42644C51.6265 8.19416 52.178 8.371 52.4094 8.82142ZM88.1862 47.5653L86.5073 51.9779C86.3271 52.4513 85.7986 52.6885 85.3269 52.5078L76.9378 49.2929C76.4661 49.1121 76.2297 48.5817 76.4098 48.1083L78.0888 43.6957C78.269 43.2223 78.7974 42.9851 79.2692 43.1659L87.6582 46.3808C88.13 46.5615 88.3664 47.0919 88.1862 47.5653ZM45.8032 62.9534V64.4409C45.8032 64.9477 45.3938 65.3585 44.8888 65.3585H42.0592C41.5542 65.3585 41.1448 64.9477 41.1448 64.4409V62.9534C41.1448 62.4466 41.5542 62.0358 42.0592 62.0358H44.8888C45.3938 62.0358 45.8032 62.4466 45.8032 62.9534ZM60.1982 73.3154L61.1335 75.1353C61.3649 75.5858 61.1887 76.1392 60.7399 76.3715L56.6766 78.4744C56.2278 78.7066 55.6763 78.5298 55.4449 78.0794L54.5097 76.2594C54.2782 75.809 54.4544 75.2556 54.9032 75.0233L58.9665 72.9204C59.4153 72.6881 59.9668 72.8649 60.1982 73.3154ZM29.8325 16.7204L28.454 18.2301C28.1129 18.6038 27.5345 18.6291 27.1622 18.2867L23.7915 15.1871C23.4192 14.8447 23.394 14.2642 23.7351 13.8906L25.1136 12.3809C25.4548 12.0072 26.0332 11.9819 26.4055 12.3243L29.7761 15.4239C30.1484 15.7663 30.1737 16.3467 29.8325 16.7204ZM12.0406 37.7975L11.8763 36.8752C11.7874 36.3763 12.1183 35.8996 12.6154 35.8104L15.325 35.324C15.8221 35.2348 16.2972 35.5669 16.3861 36.0657L16.5505 36.988C16.6394 37.4869 16.3085 37.9637 15.8114 38.0529L13.1017 38.5392C12.6046 38.6284 12.1295 38.2964 12.0406 37.7975ZM79.0575 66.2287L78.8931 65.3065C78.8042 64.8076 79.1351 64.3308 79.6322 64.2416L82.3419 63.7553C82.839 63.666 83.314 63.9981 83.4029 64.497L83.5673 65.4193C83.6562 65.9182 83.3253 66.3949 82.8282 66.4841L80.1185 66.9705C79.6214 67.0597 79.1464 66.7276 79.0575 66.2287ZM34.5807 47.8369C35.1197 51.7682 38.4595 54.7915 42.5211 54.7915C46.5828 54.7915 49.9226 51.7585 50.4616 47.8369H34.5807ZM86.5928 15.3051C86.5928 19.1673 83.473 22.2983 79.6245 22.2983C75.776 22.2983 72.6562 19.1673 72.6562 15.3051C72.6562 11.4429 75.776 8.31193 79.6245 8.31193C83.473 8.31193 86.5928 11.4429 86.5928 15.3051ZM90 30.3347C90 31.5829 88.9917 32.5949 87.7478 32.5949C86.504 32.5949 85.4956 31.5829 85.4956 30.3347C85.4956 29.0864 86.504 28.0744 87.7478 28.0744C88.9917 28.0744 90 29.0864 90 30.3347Z" stroke="#231F20" stroke-width="2" stroke-miterlimit="10" stroke-linecap="round"/>
  <defs>
    <linearGradient id="paint0_linear_3015_4707" x1="-7.04088" y1="67.8126" x2="73.5855" y2="25.0597" gradientUnits="userSpaceOnUse">
      <stop offset="0.15" stop-color="#EF6129"/>
      <stop offset="0.2" stop-color="#F06032"/>
      <stop offset="0.55" stop-color="#F85D6A"/>
      <stop offset="0.81" stop-color="#FD5B8C"/>
      <stop offset="0.96" stop-color="#FF5A99"/>
    </linearGradient>
    <linearGradient id="paint1_linear_3015_4707" x1="-7.04088" y1="67.8126" x2="73.5855" y2="25.0597" gradientUnits="userSpaceOnUse">
      <stop offset="0.15" stop-color="#EF6129"/>
      <stop offset="0.2" stop-color="#F06032"/>
      <stop offset="0.55" stop-color="#F85D6A"/>
      <stop offset="0.81" stop-color="#FD5B8C"/>
      <stop offset="0.96" stop-color="#FF5A99"/>
    </linearGradient>
    <linearGradient id="paint2_linear_3015_4707" x1="-7.04088" y1="67.8126" x2="73.5855" y2="25.0597" gradientUnits="userSpaceOnUse">
      <stop offset="0.15" stop-color="#EF6129"/>
      <stop offset="0.2" stop-color="#F06032"/>
      <stop offset="0.55" stop-color="#F85D6A"/>
      <stop offset="0.81" stop-color="#FD5B8C"/>
      <stop offset="0.96" stop-color="#FF5A99"/>
    </linearGradient>
    <linearGradient id="paint3_linear_3015_4707" x1="-7.04088" y1="67.8126" x2="73.5855" y2="25.0597" gradientUnits="userSpaceOnUse">
      <stop offset="0.15" stop-color="#EF6129"/>
      <stop offset="0.2" stop-color="#F06032"/>
      <stop offset="0.55" stop-color="#F85D6A"/>
      <stop offset="0.81" stop-color="#FD5B8C"/>
      <stop offset="0.96" stop-color="#FF5A99"/>
    </linearGradient>
    <linearGradient id="paint4_linear_3015_4707" x1="-7.04088" y1="67.8126" x2="73.5855" y2="25.0597" gradientUnits="userSpaceOnUse">
      <stop offset="0.15" stop-color="#EF6129"/>
      <stop offset="0.2" stop-color="#F06032"/>
      <stop offset="0.55" stop-color="#F85D6A"/>
      <stop offset="0.81" stop-color="#FD5B8C"/>
      <stop offset="0.96" stop-color="#FF5A99"/>
    </linearGradient>
    <linearGradient id="paint5_linear_3015_4707" x1="-7.04088" y1="67.8126" x2="73.5855" y2="25.0597" gradientUnits="userSpaceOnUse">
      <stop offset="0.15" stop-color="#EF6129"/>
      <stop offset="0.2" stop-color="#F06032"/>
      <stop offset="0.55" stop-color="#F85D6A"/>
      <stop offset="0.81" stop-color="#FD5B8C"/>
      <stop offset="0.96" stop-color="#FF5A99"/>
    </linearGradient>
    <linearGradient id="paint6_linear_3015_4707" x1="-7.04088" y1="67.8126" x2="73.5855" y2="25.0597" gradientUnits="userSpaceOnUse">
      <stop offset="0.15" stop-color="#EF6129"/>
      <stop offset="0.2" stop-color="#F06032"/>
      <stop offset="0.55" stop-color="#F85D6A"/>
      <stop offset="0.81" stop-color="#FD5B8C"/>
      <stop offset="0.96" stop-color="#FF5A99"/>
    </linearGradient>
    <linearGradient id="paint7_linear_3015_4707" x1="-7.04088" y1="67.8126" x2="73.5855" y2="25.0597" gradientUnits="userSpaceOnUse">
      <stop offset="0.15" stop-color="#EF6129"/>
      <stop offset="0.2" stop-color="#F06032"/>
      <stop offset="0.55" stop-color="#F85D6A"/>
      <stop offset="0.81" stop-color="#FD5B8C"/>
      <stop offset="0.96" stop-color="#FF5A99"/>
    </linearGradient>
    <linearGradient id="paint8_linear_3015_4707" x1="-7.04088" y1="67.8126" x2="73.5855" y2="25.0597" gradientUnits="userSpaceOnUse">
      <stop offset="0.15" stop-color="#EF6129"/>
      <stop offset="0.2" stop-color="#F06032"/>
      <stop offset="0.55" stop-color="#F85D6A"/>
      <stop offset="0.81" stop-color="#FD5B8C"/>
      <stop offset="0.96" stop-color="#FF5A99"/>
    </linearGradient>
    <linearGradient id="paint9_linear_3015_4707" x1="-7.04088" y1="67.8126" x2="73.5855" y2="25.0597" gradientUnits="userSpaceOnUse">
      <stop offset="0.15" stop-color="#EF6129"/>
      <stop offset="0.2" stop-color="#F06032"/>
      <stop offset="0.55" stop-color="#F85D6A"/>
      <stop offset="0.81" stop-color="#FD5B8C"/>
      <stop offset="0.96" stop-color="#FF5A99"/>
    </linearGradient>
    <linearGradient id="paint10_linear_3015_4707" x1="-7.04088" y1="67.8126" x2="73.5855" y2="25.0597" gradientUnits="userSpaceOnUse">
      <stop offset="0.15" stop-color="#EF6129"/>
      <stop offset="0.2" stop-color="#F06032"/>
      <stop offset="0.55" stop-color="#F85D6A"/>
      <stop offset="0.81" stop-color="#FD5B8C"/>
      <stop offset="0.96" stop-color="#FF5A99"/>
    </linearGradient>
    <linearGradient id="paint11_linear_3015_4707" x1="-7.04088" y1="67.8126" x2="73.5855" y2="25.0597" gradientUnits="userSpaceOnUse">
      <stop offset="0.15" stop-color="#EF6129"/>
      <stop offset="0.2" stop-color="#F06032"/>
      <stop offset="0.55" stop-color="#F85D6A"/>
      <stop offset="0.81" stop-color="#FD5B8C"/>
      <stop offset="0.96" stop-color="#FF5A99"/>
    </linearGradient>
    <linearGradient id="paint12_linear_3015_4707" x1="-7.04088" y1="67.8126" x2="73.5855" y2="25.0597" gradientUnits="userSpaceOnUse">
      <stop offset="0.15" stop-color="#EF6129"/>
      <stop offset="0.2" stop-color="#F06032"/>
      <stop offset="0.55" stop-color="#F85D6A"/>
      <stop offset="0.81" stop-color="#FD5B8C"/>
      <stop offset="0.96" stop-color="#FF5A99"/>
    </linearGradient>
    <linearGradient id="paint13_linear_3015_4707" x1="-7.04088" y1="67.8126" x2="73.5855" y2="25.0597" gradientUnits="userSpaceOnUse">
      <stop offset="0.15" stop-color="#EF6129"/>
      <stop offset="0.2" stop-color="#F06032"/>
      <stop offset="0.55" stop-color="#F85D6A"/>
      <stop offset="0.81" stop-color="#FD5B8C"/>
      <stop offset="0.96" stop-color="#FF5A99"/>
    </linearGradient>
  </defs>
</svg>