<svg width="8" height="8" viewBox="0 0 8 8" fill="none" xmlns="http://www.w3.org/2000/svg">
<path d="M5.9247 2.60363C5.78426 2.60312 5.64966 2.54721 5.55014 2.44803C5.50057 2.39902 5.46123 2.34065 5.43437 2.27631C5.40751 2.21196 5.39374 2.14292 5.39374 2.07319C5.39374 2.00345 5.40751 1.93441 5.43437 1.87006C5.46123 1.80572 5.50057 1.74735 5.55014 1.69834L7.09075 0.156522C7.19008 0.0566373 7.32502 0.000333042 7.46583 1.47276e-06C7.60664 -0.000330097 7.7418 0.0553363 7.8416 0.154752C7.9414 0.254167 7.99767 0.389189 7.998 0.530115C7.99833 0.671041 7.94275 0.806328 7.84341 0.906212L6.29926 2.44803C6.2507 2.49811 6.19243 2.53774 6.12803 2.56449C6.06362 2.59125 5.99442 2.60457 5.9247 2.60363V2.60363Z" fill="url(#paint0_linear_911_51688)"/>
<path d="M0.529553 8.00011C0.424794 8.00002 0.322463 7.96885 0.235389 7.91056C0.148314 7.85227 0.0804203 7.76946 0.0403432 7.67259C0.000266172 7.57572 -0.0102618 7.46914 0.0101504 7.36631C0.0305625 7.26347 0.0810462 7.169 0.155076 7.09482L1.6956 5.553C1.74479 5.50354 1.80326 5.46426 1.86761 5.43741C1.93197 5.41055 2.00096 5.39665 2.07068 5.39649C2.1404 5.39632 2.20944 5.4099 2.27392 5.43645C2.3384 5.46301 2.39703 5.50201 2.44645 5.55123C2.49587 5.60046 2.53513 5.65895 2.56196 5.72335C2.58879 5.78776 2.60269 5.85681 2.60285 5.92659C2.60301 5.99637 2.58944 6.0655 2.56291 6.13003C2.53638 6.19456 2.49745 6.25323 2.44826 6.30269L0.904117 7.84452C0.855064 7.89394 0.796738 7.93314 0.732449 7.95985C0.668159 7.98656 0.599161 8.00025 0.529553 8.00011Z" fill="url(#paint1_linear_911_51688)"/>
<path d="M7.45882 7.99998C7.31853 7.99871 7.1842 7.94292 7.08425 7.84438L5.54364 6.30255C5.49157 6.25399 5.44986 6.19544 5.42089 6.13037C5.39192 6.0653 5.37634 5.99506 5.37508 5.92383C5.37383 5.85261 5.3869 5.78187 5.41356 5.71582C5.44021 5.64977 5.47994 5.58977 5.53027 5.5394C5.5806 5.48903 5.64052 5.44932 5.70651 5.42264C5.77251 5.39596 5.84316 5.38286 5.91433 5.38412C5.98549 5.38537 6.05574 5.40096 6.12076 5.42995C6.18577 5.45895 6.24425 5.50075 6.29277 5.55286L7.83692 7.09468C7.93532 7.19459 7.99047 7.32925 7.99047 7.46953C7.99047 7.60982 7.93532 7.74447 7.83692 7.84438C7.7361 7.94377 7.60033 7.99963 7.45882 7.99998V7.99998Z" fill="url(#paint2_linear_911_51688)"/>
<path d="M2.07027 2.60388C2.00007 2.60448 1.93041 2.59103 1.86548 2.56431C1.80055 2.53758 1.74164 2.49814 1.69217 2.44828L0.151647 0.906463C0.0580255 0.805909 0.00705932 0.672913 0.00948199 0.535492C0.0119047 0.398071 0.0674792 0.266952 0.164587 0.169766C0.261694 0.0725796 0.392697 0.0169116 0.530006 0.0144869C0.667316 0.0120623 0.800215 0.0630751 0.900688 0.156772L2.44483 1.69859C2.54323 1.7985 2.59839 1.93315 2.59839 2.07344C2.59839 2.21372 2.54323 2.34837 2.44483 2.44828C2.34489 2.54682 2.21056 2.60262 2.07027 2.60388Z" fill="url(#paint3_linear_911_51688)"/>
<defs>
<linearGradient id="paint0_linear_911_51688" x1="5.15845" y1="2.04657" x2="7.56386" y2="0.82813" gradientUnits="userSpaceOnUse">
<stop offset="0.15" stop-color="#EF6129"/>
<stop offset="0.2" stop-color="#F06032"/>
<stop offset="0.55" stop-color="#F85D6A"/>
<stop offset="0.81" stop-color="#FD5B8C"/>
<stop offset="0.96" stop-color="#FF5A99"/>
</linearGradient>
<linearGradient id="paint1_linear_911_51688" x1="-0.23516" y1="7.44302" x2="2.16946" y2="6.22562" gradientUnits="userSpaceOnUse">
<stop offset="0.15" stop-color="#EF6129"/>
<stop offset="0.2" stop-color="#F06032"/>
<stop offset="0.55" stop-color="#F85D6A"/>
<stop offset="0.81" stop-color="#FD5B8C"/>
<stop offset="0.96" stop-color="#FF5A99"/>
</linearGradient>
<linearGradient id="paint2_linear_911_51688" x1="5.1387" y1="7.44024" x2="7.55486" y2="6.21686" gradientUnits="userSpaceOnUse">
<stop offset="0.15" stop-color="#EF6129"/>
<stop offset="0.2" stop-color="#F06032"/>
<stop offset="0.55" stop-color="#F85D6A"/>
<stop offset="0.81" stop-color="#FD5B8C"/>
<stop offset="0.96" stop-color="#FF5A99"/>
</linearGradient>
<linearGradient id="paint3_linear_911_51688" x1="-0.224508" y1="2.04983" x2="2.1672" y2="0.838837" gradientUnits="userSpaceOnUse">
<stop offset="0.15" stop-color="#EF6129"/>
<stop offset="0.2" stop-color="#F06032"/>
<stop offset="0.55" stop-color="#F85D6A"/>
<stop offset="0.81" stop-color="#FD5B8C"/>
<stop offset="0.96" stop-color="#FF5A99"/>
</linearGradient>
</defs>
</svg>
