<svg width="134" height="192" viewBox="0 0 134 192" fill="none" xmlns="http://www.w3.org/2000/svg">
<path d="M110.293 7.15998C109.907 7.15858 109.537 7.00483 109.263 6.73209C109.127 6.59731 109.018 6.43679 108.945 6.25984C108.871 6.08289 108.833 5.89304 108.833 5.70126C108.833 5.50949 108.871 5.31962 108.945 5.14267C109.018 4.96572 109.127 4.80521 109.263 4.67044L113.5 0.430434C113.773 0.155753 114.144 0.000915866 114.531 4.05009e-06C114.918 -0.000907766 115.29 0.152175 115.564 0.425567C115.839 0.698959 115.994 1.07027 115.995 1.45782C115.995 1.84536 115.843 2.2174 115.569 2.49208L111.323 6.73209C111.189 6.8698 111.029 6.97878 110.852 7.05235C110.675 7.12593 110.485 7.16256 110.293 7.15998Z" fill="url(#paint0_linear_276_6713)"/>
<path d="M95.4563 22.0003C95.1682 22.0001 94.8868 21.9144 94.6473 21.754C94.4079 21.5937 94.2212 21.366 94.1109 21.0996C94.0007 20.8332 93.9718 20.5401 94.0279 20.2573C94.084 19.9745 94.2229 19.7147 94.4265 19.5107L98.6629 15.2708C98.7982 15.1347 98.959 15.0267 99.1359 14.9529C99.3129 14.879 99.5026 14.8408 99.6944 14.8403C99.8861 14.8399 100.076 14.8772 100.253 14.9502C100.431 15.0233 100.592 15.1305 100.728 15.2659C100.864 15.4013 100.972 15.5621 101.045 15.7392C101.119 15.9163 101.157 16.1062 101.158 16.2981C101.158 16.49 101.121 16.6801 101.048 16.8576C100.975 17.035 100.868 17.1964 100.733 17.3324L96.4863 21.5724C96.3514 21.7083 96.191 21.8161 96.0142 21.8896C95.8374 21.963 95.6477 22.0007 95.4563 22.0003Z" fill="url(#paint1_linear_276_6713)"/>
<path d="M114.512 21.9998C114.126 21.9963 113.757 21.8429 113.482 21.5719L109.245 17.3319C109.102 17.1983 108.987 17.0373 108.907 16.8584C108.828 16.6794 108.785 16.4863 108.781 16.2904C108.778 16.0945 108.814 15.9 108.887 15.7184C108.961 15.5367 109.07 15.3717 109.208 15.2332C109.347 15.0947 109.511 14.9855 109.693 14.9121C109.874 14.8388 110.069 14.8027 110.264 14.8062C110.46 14.8096 110.653 14.8525 110.832 14.9322C111.011 15.012 111.172 15.1269 111.305 15.2702L115.552 19.5102C115.822 19.785 115.974 20.1553 115.974 20.5411C115.974 20.9269 115.822 21.2972 115.552 21.5719C115.274 21.8452 114.901 21.9989 114.512 21.9998Z" fill="url(#paint2_linear_276_6713)"/>
<path d="M99.6932 7.1608C99.5001 7.16246 99.3085 7.12546 99.13 7.05198C98.9514 6.97849 98.7894 6.87001 98.6534 6.73291L94.417 2.49291C94.1595 2.21638 94.0193 1.85064 94.026 1.47274C94.0327 1.09483 94.1855 0.734253 94.4525 0.466991C94.7196 0.199728 95.0798 0.0466411 95.4574 0.0399733C95.8351 0.0333056 96.2005 0.173591 96.4768 0.431259L100.723 4.67126C100.994 4.94602 101.145 5.3163 101.145 5.70209C101.145 6.08787 100.994 6.45816 100.723 6.73291C100.448 7.0039 100.079 7.15733 99.6932 7.1608Z" fill="url(#paint3_linear_276_6713)"/>
<path d="M5.92471 127.604C5.78427 127.603 5.64967 127.547 5.55015 127.448C5.50058 127.399 5.46124 127.341 5.43438 127.276C5.40752 127.212 5.39375 127.143 5.39375 127.073C5.39375 127.003 5.40752 126.934 5.43438 126.87C5.46124 126.806 5.50058 126.747 5.55015 126.698L7.09076 125.157C7.19009 125.057 7.32503 125 7.46584 125C7.60665 125 7.74181 125.055 7.84161 125.155C7.94141 125.254 7.99768 125.389 7.99801 125.53C7.99834 125.671 7.94276 125.806 7.84342 125.906L6.29928 127.448C6.25071 127.498 6.19244 127.538 6.12804 127.564C6.06364 127.591 5.99444 127.605 5.92471 127.604Z" fill="url(#paint4_linear_276_6713)"/>
<path d="M0.529553 133C0.424794 133 0.322463 132.969 0.235389 132.911C0.148314 132.852 0.0804202 132.769 0.0403432 132.673C0.000266172 132.576 -0.0102618 132.469 0.0101504 132.366C0.0305625 132.263 0.0810462 132.169 0.155076 132.095L1.6956 130.553C1.74479 130.504 1.80326 130.464 1.86761 130.437C1.93197 130.411 2.00096 130.397 2.07068 130.396C2.1404 130.396 2.20944 130.41 2.27392 130.436C2.3384 130.463 2.39703 130.502 2.44645 130.551C2.49587 130.6 2.53513 130.659 2.56196 130.723C2.58879 130.788 2.60269 130.857 2.60285 130.927C2.60301 130.996 2.58944 131.066 2.56291 131.13C2.53638 131.195 2.49745 131.253 2.44826 131.303L0.904117 132.845C0.855064 132.894 0.796738 132.933 0.732449 132.96C0.668159 132.987 0.599161 133 0.529553 133Z" fill="url(#paint5_linear_276_6713)"/>
<path d="M7.45882 133C7.31853 132.999 7.1842 132.943 7.08425 132.844L5.54364 131.303C5.49157 131.254 5.44986 131.195 5.42089 131.13C5.39192 131.065 5.37634 130.995 5.37508 130.924C5.37383 130.853 5.3869 130.782 5.41356 130.716C5.44021 130.65 5.47994 130.59 5.53027 130.539C5.5806 130.489 5.64052 130.449 5.70651 130.423C5.77251 130.396 5.84316 130.383 5.91433 130.384C5.98549 130.385 6.05574 130.401 6.12076 130.43C6.18577 130.459 6.24425 130.501 6.29277 130.553L7.83692 132.095C7.93532 132.195 7.99047 132.329 7.99047 132.469C7.99047 132.61 7.93532 132.744 7.83692 132.844C7.7361 132.944 7.60033 133 7.45882 133Z" fill="url(#paint6_linear_276_6713)"/>
<path d="M2.07025 127.604C2.00004 127.605 1.93038 127.591 1.86545 127.564C1.80052 127.538 1.74162 127.498 1.69215 127.448L0.151623 125.907C0.0580011 125.806 0.00703491 125.673 0.00945758 125.536C0.0118802 125.398 0.0674548 125.267 0.164562 125.17C0.26167 125.073 0.392672 125.017 0.529982 125.015C0.667291 125.012 0.80019 125.063 0.900663 125.157L2.44481 126.699C2.54321 126.799 2.59836 126.933 2.59836 127.073C2.59836 127.214 2.54321 127.348 2.44481 127.448C2.34487 127.547 2.21054 127.603 2.07025 127.604Z" fill="url(#paint7_linear_276_6713)"/>
<path d="M131.406 185.255C131.23 185.254 131.062 185.184 130.937 185.06C130.875 184.999 130.826 184.926 130.793 184.845C130.759 184.765 130.742 184.679 130.742 184.591C130.742 184.504 130.759 184.418 130.793 184.338C130.826 184.257 130.875 184.184 130.937 184.123L132.863 182.196C132.987 182.071 133.156 182 133.332 182C133.508 182 133.677 182.069 133.802 182.193C133.927 182.318 133.997 182.486 133.997 182.663C133.998 182.839 133.928 183.008 133.804 183.133L131.874 185.06C131.813 185.123 131.74 185.172 131.66 185.206C131.579 185.239 131.493 185.256 131.406 185.255Z" fill="url(#paint8_linear_276_6713)"/>
<path d="M124.662 192C124.531 192 124.403 191.961 124.294 191.888C124.185 191.815 124.101 191.712 124.05 191.591C124 191.47 123.987 191.336 124.013 191.208C124.038 191.079 124.101 190.961 124.194 190.868L126.119 188.941C126.181 188.879 126.254 188.83 126.335 188.797C126.415 188.763 126.501 188.746 126.588 188.745C126.676 188.745 126.762 188.762 126.842 188.795C126.923 188.829 126.996 188.877 127.058 188.939C127.12 189 127.169 189.074 127.202 189.154C127.236 189.235 127.253 189.321 127.254 189.408C127.254 189.495 127.237 189.582 127.204 189.662C127.17 189.743 127.122 189.816 127.06 189.878L125.13 191.806C125.069 191.867 124.996 191.916 124.916 191.95C124.835 191.983 124.749 192 124.662 192Z" fill="url(#paint9_linear_276_6713)"/>
<path d="M133.324 192C133.149 191.998 132.981 191.929 132.856 191.805L130.93 189.878C130.865 189.818 130.813 189.744 130.777 189.663C130.741 189.582 130.721 189.494 130.72 189.405C130.718 189.316 130.734 189.227 130.768 189.145C130.801 189.062 130.851 188.987 130.914 188.924C130.977 188.861 131.051 188.812 131.134 188.778C131.216 188.745 131.305 188.729 131.394 188.73C131.483 188.732 131.57 188.751 131.652 188.787C131.733 188.824 131.806 188.876 131.867 188.941L133.797 190.868C133.92 190.993 133.989 191.162 133.989 191.337C133.989 191.512 133.92 191.681 133.797 191.805C133.671 191.93 133.501 192 133.324 192Z" fill="url(#paint10_linear_276_6713)"/>
<path d="M126.587 185.255C126.5 185.256 126.412 185.239 126.331 185.206C126.25 185.172 126.177 185.123 126.115 185.061L124.189 183.133C124.072 183.008 124.008 182.841 124.011 182.67C124.014 182.498 124.084 182.334 124.205 182.212C124.327 182.091 124.49 182.021 124.662 182.018C124.834 182.015 125 182.079 125.125 182.196L127.055 184.123C127.178 184.248 127.247 184.417 127.247 184.592C127.247 184.767 127.178 184.936 127.055 185.061C126.931 185.184 126.763 185.253 126.587 185.255Z" fill="url(#paint11_linear_276_6713)"/>
<defs>
<linearGradient id="paint0_linear_276_6713" x1="92.0129" y1="17.2929" x2="112.332" y2="7.00545" gradientUnits="userSpaceOnUse">
<stop offset="0.15" stop-color="#EF6129"/>
<stop offset="0.2" stop-color="#F06032"/>
<stop offset="0.55" stop-color="#F85D6A"/>
<stop offset="0.81" stop-color="#FD5B8C"/>
<stop offset="0.96" stop-color="#FF5A99"/>
</linearGradient>
<linearGradient id="paint1_linear_276_6713" x1="92.0129" y1="17.2929" x2="112.332" y2="7.00545" gradientUnits="userSpaceOnUse">
<stop offset="0.15" stop-color="#EF6129"/>
<stop offset="0.2" stop-color="#F06032"/>
<stop offset="0.55" stop-color="#F85D6A"/>
<stop offset="0.81" stop-color="#FD5B8C"/>
<stop offset="0.96" stop-color="#FF5A99"/>
</linearGradient>
<linearGradient id="paint2_linear_276_6713" x1="92.0129" y1="17.2929" x2="112.332" y2="7.00545" gradientUnits="userSpaceOnUse">
<stop offset="0.15" stop-color="#EF6129"/>
<stop offset="0.2" stop-color="#F06032"/>
<stop offset="0.55" stop-color="#F85D6A"/>
<stop offset="0.81" stop-color="#FD5B8C"/>
<stop offset="0.96" stop-color="#FF5A99"/>
</linearGradient>
<linearGradient id="paint3_linear_276_6713" x1="92.0129" y1="17.2929" x2="112.332" y2="7.00545" gradientUnits="userSpaceOnUse">
<stop offset="0.15" stop-color="#EF6129"/>
<stop offset="0.2" stop-color="#F06032"/>
<stop offset="0.55" stop-color="#F85D6A"/>
<stop offset="0.81" stop-color="#FD5B8C"/>
<stop offset="0.96" stop-color="#FF5A99"/>
</linearGradient>
<linearGradient id="paint4_linear_276_6713" x1="-0.722596" y1="131.288" x2="6.66618" y2="127.547" gradientUnits="userSpaceOnUse">
<stop offset="0.15" stop-color="#EF6129"/>
<stop offset="0.2" stop-color="#F06032"/>
<stop offset="0.55" stop-color="#F85D6A"/>
<stop offset="0.81" stop-color="#FD5B8C"/>
<stop offset="0.96" stop-color="#FF5A99"/>
</linearGradient>
<linearGradient id="paint5_linear_276_6713" x1="-0.722596" y1="131.288" x2="6.66618" y2="127.547" gradientUnits="userSpaceOnUse">
<stop offset="0.15" stop-color="#EF6129"/>
<stop offset="0.2" stop-color="#F06032"/>
<stop offset="0.55" stop-color="#F85D6A"/>
<stop offset="0.81" stop-color="#FD5B8C"/>
<stop offset="0.96" stop-color="#FF5A99"/>
</linearGradient>
<linearGradient id="paint6_linear_276_6713" x1="-0.722596" y1="131.288" x2="6.66618" y2="127.547" gradientUnits="userSpaceOnUse">
<stop offset="0.15" stop-color="#EF6129"/>
<stop offset="0.2" stop-color="#F06032"/>
<stop offset="0.55" stop-color="#F85D6A"/>
<stop offset="0.81" stop-color="#FD5B8C"/>
<stop offset="0.96" stop-color="#FF5A99"/>
</linearGradient>
<linearGradient id="paint7_linear_276_6713" x1="-0.722596" y1="131.288" x2="6.66618" y2="127.547" gradientUnits="userSpaceOnUse">
<stop offset="0.15" stop-color="#EF6129"/>
<stop offset="0.2" stop-color="#F06032"/>
<stop offset="0.55" stop-color="#F85D6A"/>
<stop offset="0.81" stop-color="#FD5B8C"/>
<stop offset="0.96" stop-color="#FF5A99"/>
</linearGradient>
<linearGradient id="paint8_linear_276_6713" x1="123.097" y1="189.86" x2="132.333" y2="185.184" gradientUnits="userSpaceOnUse">
<stop offset="0.15" stop-color="#EF6129"/>
<stop offset="0.2" stop-color="#F06032"/>
<stop offset="0.55" stop-color="#F85D6A"/>
<stop offset="0.81" stop-color="#FD5B8C"/>
<stop offset="0.96" stop-color="#FF5A99"/>
</linearGradient>
<linearGradient id="paint9_linear_276_6713" x1="123.097" y1="189.86" x2="132.333" y2="185.184" gradientUnits="userSpaceOnUse">
<stop offset="0.15" stop-color="#EF6129"/>
<stop offset="0.2" stop-color="#F06032"/>
<stop offset="0.55" stop-color="#F85D6A"/>
<stop offset="0.81" stop-color="#FD5B8C"/>
<stop offset="0.96" stop-color="#FF5A99"/>
</linearGradient>
<linearGradient id="paint10_linear_276_6713" x1="123.097" y1="189.86" x2="132.333" y2="185.184" gradientUnits="userSpaceOnUse">
<stop offset="0.15" stop-color="#EF6129"/>
<stop offset="0.2" stop-color="#F06032"/>
<stop offset="0.55" stop-color="#F85D6A"/>
<stop offset="0.81" stop-color="#FD5B8C"/>
<stop offset="0.96" stop-color="#FF5A99"/>
</linearGradient>
<linearGradient id="paint11_linear_276_6713" x1="123.097" y1="189.86" x2="132.333" y2="185.184" gradientUnits="userSpaceOnUse">
<stop offset="0.15" stop-color="#EF6129"/>
<stop offset="0.2" stop-color="#F06032"/>
<stop offset="0.55" stop-color="#F85D6A"/>
<stop offset="0.81" stop-color="#FD5B8C"/>
<stop offset="0.96" stop-color="#FF5A99"/>
</linearGradient>
</defs>
</svg>
