<svg width="8" height="8" viewBox="0 0 25 20" fill="none" xmlns="http://www.w3.org/2000/svg">
<path d="M16.293 7.15998C15.9068 7.15858 15.5366 7.00483 15.2629 6.73209C15.1266 6.59731 15.0184 6.43679 14.9446 6.25984C14.8707 6.08289 14.8328 5.89304 14.8328 5.70126C14.8328 5.50949 14.8707 5.31962 14.9446 5.14267C15.0184 4.96572 15.1266 4.80521 15.2629 4.67044L19.4996 0.430434C19.7728 0.155753 20.1438 0.000915866 20.5311 4.05009e-06C20.9183 -0.000907766 21.29 0.152175 21.5644 0.425567C21.8389 0.698959 21.9936 1.07027 21.9945 1.45782C21.9955 1.84536 21.8426 2.2174 21.5694 2.49208L17.323 6.73209C17.1895 6.8698 17.0292 6.97878 16.8521 7.05235C16.675 7.12593 16.4847 7.16256 16.293 7.15998Z" fill="url(#paint0_linear_911_51693)"/>
<path d="M1.45627 22.0003C1.16818 22.0001 0.886774 21.9144 0.647319 21.754C0.407864 21.5937 0.221156 21.366 0.110944 21.0996C0.000731973 20.8332 -0.0282198 20.5401 0.0279136 20.2573C0.084047 19.9745 0.222877 19.7147 0.426459 19.5107L4.6629 15.2708C4.79816 15.1347 4.95896 15.0267 5.13593 14.9529C5.3129 14.879 5.50263 14.8408 5.69437 14.8403C5.88611 14.8399 6.07597 14.8772 6.25328 14.9502C6.4306 15.0233 6.59184 15.1305 6.72774 15.2659C6.86364 15.4013 6.9716 15.5621 7.04539 15.7392C7.11918 15.9163 7.15739 16.1062 7.15784 16.2981C7.15829 16.49 7.12096 16.6801 7.048 16.8576C6.97504 17.035 6.86798 17.1964 6.73272 17.3324L2.48632 21.5724C2.35143 21.7083 2.19103 21.8161 2.01423 21.8896C1.83744 21.963 1.64769 22.0007 1.45627 22.0003Z" fill="url(#paint1_linear_911_51693)"/>
<path d="M20.5117 21.9998C20.1259 21.9963 19.7565 21.8428 19.4817 21.5719L15.245 17.3318C15.1018 17.1983 14.9871 17.0373 14.9074 16.8583C14.8278 16.6794 14.7849 16.4862 14.7815 16.2904C14.778 16.0945 14.814 15.9 14.8873 15.7183C14.9606 15.5367 15.0698 15.3717 15.2083 15.2332C15.3467 15.0946 15.5114 14.9855 15.6929 14.9121C15.8744 14.8387 16.0687 14.8027 16.2644 14.8061C16.4601 14.8096 16.6533 14.8525 16.8321 14.9322C17.0109 15.0119 17.1717 15.1269 17.3051 15.2702L21.5515 19.5102C21.8221 19.7849 21.9738 20.1552 21.9738 20.541C21.9738 20.9268 21.8221 21.2971 21.5515 21.5719C21.2743 21.8452 20.9009 21.9988 20.5117 21.9998Z" fill="url(#paint2_linear_911_51693)"/>
<path d="M5.69315 7.16085C5.5001 7.16251 5.30853 7.12551 5.12997 7.05203C4.95142 6.97854 4.78942 6.87006 4.65338 6.73296L0.416938 2.49296C0.159478 2.21643 0.0193216 1.85069 0.0259839 1.47279C0.0326463 1.09488 0.185476 0.734302 0.452522 0.467039C0.719568 0.199777 1.07982 0.0466899 1.45743 0.0400222C1.83503 0.0333544 2.2005 0.17364 2.4768 0.431307L6.7232 4.67131C6.9938 4.94606 7.14547 5.31635 7.14547 5.70214C7.14547 6.08792 6.9938 6.45821 6.7232 6.73296C6.44836 7.00394 6.07895 7.15738 5.69315 7.16085Z" fill="url(#paint3_linear_911_51693)"/>
<defs>
<linearGradient id="paint0_linear_911_51693" x1="14.1858" y1="5.62806" x2="20.8007" y2="2.27736" gradientUnits="userSpaceOnUse">
<stop offset="0.15" stop-color="#EF6129"/>
<stop offset="0.2" stop-color="#F06032"/>
<stop offset="0.55" stop-color="#F85D6A"/>
<stop offset="0.81" stop-color="#FD5B8C"/>
<stop offset="0.96" stop-color="#FF5A99"/>
</linearGradient>
<linearGradient id="paint1_linear_911_51693" x1="-0.64669" y1="20.4683" x2="5.96602" y2="17.1204" gradientUnits="userSpaceOnUse">
<stop offset="0.15" stop-color="#EF6129"/>
<stop offset="0.2" stop-color="#F06032"/>
<stop offset="0.55" stop-color="#F85D6A"/>
<stop offset="0.81" stop-color="#FD5B8C"/>
<stop offset="0.96" stop-color="#FF5A99"/>
</linearGradient>
<linearGradient id="paint2_linear_911_51693" x1="14.1314" y1="20.4605" x2="20.7759" y2="17.0962" gradientUnits="userSpaceOnUse">
<stop offset="0.15" stop-color="#EF6129"/>
<stop offset="0.2" stop-color="#F06032"/>
<stop offset="0.55" stop-color="#F85D6A"/>
<stop offset="0.81" stop-color="#FD5B8C"/>
<stop offset="0.96" stop-color="#FF5A99"/>
</linearGradient>
<linearGradient id="paint3_linear_911_51693" x1="-0.617488" y1="5.63721" x2="5.95972" y2="2.30698" gradientUnits="userSpaceOnUse">
<stop offset="0.15" stop-color="#EF6129"/>
<stop offset="0.2" stop-color="#F06032"/>
<stop offset="0.55" stop-color="#F85D6A"/>
<stop offset="0.81" stop-color="#FD5B8C"/>
<stop offset="0.96" stop-color="#FF5A99"/>
</linearGradient>
</defs>
</svg>
