<svg width="12" height="12" viewBox="0 0 12 12" fill="none" xmlns="http://www.w3.org/2000/svg">
<path d="M8.88702 3.90544C8.67635 3.90468 8.47445 3.82082 8.32517 3.67205C8.25082 3.59854 8.19181 3.51098 8.15152 3.41446C8.11123 3.31794 8.09058 3.21438 8.09058 3.10978C8.09058 3.00518 8.11123 2.90161 8.15152 2.80509C8.19181 2.70857 8.25082 2.62103 8.32517 2.54751L10.6361 0.234782C10.7851 0.0849559 10.9875 0.000499564 11.1987 2.20914e-06C11.4099 -0.000495145 11.6127 0.0830045 11.7624 0.232128C11.9121 0.381251 11.9965 0.583783 11.997 0.795172C11.9975 1.00656 11.9141 1.20949 11.7651 1.35932L9.44886 3.67205C9.37602 3.74717 9.28861 3.80661 9.19201 3.84674C9.09541 3.88687 8.99161 3.90685 8.88702 3.90544Z" fill="url(#paint0_linear_911_51683)"/>
<path d="M0.79433 12.0002C0.637191 12 0.483695 11.9533 0.353083 11.8658C0.222471 11.7784 0.12063 11.6542 0.0605148 11.5089C0.000399258 11.3636 -0.0153926 11.2037 0.0152256 11.0495C0.0458438 10.8952 0.121569 10.7535 0.232614 10.6422L2.5434 8.3295C2.61718 8.25531 2.70489 8.1964 2.80142 8.15611C2.89795 8.11583 3.00144 8.09498 3.10602 8.09473C3.21061 8.09448 3.31416 8.11485 3.41088 8.15468C3.5076 8.19451 3.59555 8.25301 3.66968 8.32685C3.7438 8.40068 3.80269 8.48842 3.84294 8.58503C3.88319 8.68163 3.90403 8.78522 3.90428 8.88989C3.90452 8.99456 3.88416 9.09825 3.84436 9.19505C3.80457 9.29184 3.74617 9.37985 3.67239 9.45404L1.35617 11.7668C1.2826 11.8409 1.19511 11.8997 1.09867 11.9398C1.00224 11.9798 0.898742 12.0004 0.79433 12.0002Z" fill="url(#paint1_linear_911_51683)"/>
<path d="M11.1882 11.9998C10.9778 11.9979 10.7763 11.9143 10.6264 11.7664L8.31547 9.45371C8.23736 9.38087 8.17479 9.29303 8.13133 9.19543C8.08788 9.09783 8.06451 8.99246 8.06262 8.88563C8.06074 8.77879 8.08035 8.67268 8.12034 8.57361C8.16032 8.47453 8.21992 8.38453 8.29541 8.30898C8.3709 8.23342 8.46078 8.17386 8.55977 8.13384C8.65876 8.09382 8.76474 8.07417 8.87149 8.07605C8.97824 8.07794 9.08362 8.10132 9.18114 8.14481C9.27866 8.1883 9.36637 8.251 9.43916 8.32917L11.7554 10.6419C11.903 10.7918 11.9857 10.9938 11.9857 11.2042C11.9857 11.4146 11.903 11.6166 11.7554 11.7664C11.6041 11.9155 11.4005 11.9993 11.1882 11.9998Z" fill="url(#paint2_linear_911_51683)"/>
<path d="M3.10534 3.90594C3.00004 3.90685 2.89555 3.88666 2.79815 3.84658C2.70076 3.8065 2.6124 3.74733 2.53819 3.67255L0.227409 1.35982C0.0869771 1.20899 0.010528 1.00949 0.014162 0.80336C0.017796 0.597229 0.101158 0.40055 0.246819 0.254771C0.392481 0.108992 0.588984 0.0254894 0.794948 0.0218525C1.00091 0.0182155 1.20026 0.0947347 1.35097 0.235281L3.66719 2.54801C3.81479 2.69788 3.89752 2.89985 3.89752 3.11028C3.89752 3.32071 3.81479 3.52268 3.66719 3.67255C3.51727 3.82036 3.31578 3.90405 3.10534 3.90594Z" fill="url(#paint3_linear_911_51683)"/>
<defs>
<linearGradient id="paint0_linear_911_51683" x1="7.73765" y1="3.06985" x2="11.3458" y2="1.2422" gradientUnits="userSpaceOnUse">
<stop offset="0.15" stop-color="#EF6129"/>
<stop offset="0.2" stop-color="#F06032"/>
<stop offset="0.55" stop-color="#F85D6A"/>
<stop offset="0.81" stop-color="#FD5B8C"/>
<stop offset="0.96" stop-color="#FF5A99"/>
</linearGradient>
<linearGradient id="paint1_linear_911_51683" x1="-0.35274" y1="11.1645" x2="3.25419" y2="9.33842" gradientUnits="userSpaceOnUse">
<stop offset="0.15" stop-color="#EF6129"/>
<stop offset="0.2" stop-color="#F06032"/>
<stop offset="0.55" stop-color="#F85D6A"/>
<stop offset="0.81" stop-color="#FD5B8C"/>
<stop offset="0.96" stop-color="#FF5A99"/>
</linearGradient>
<linearGradient id="paint2_linear_911_51683" x1="7.70805" y1="11.1602" x2="11.3323" y2="9.32516" gradientUnits="userSpaceOnUse">
<stop offset="0.15" stop-color="#EF6129"/>
<stop offset="0.2" stop-color="#F06032"/>
<stop offset="0.55" stop-color="#F85D6A"/>
<stop offset="0.81" stop-color="#FD5B8C"/>
<stop offset="0.96" stop-color="#FF5A99"/>
</linearGradient>
<linearGradient id="paint3_linear_911_51683" x1="-0.336823" y1="3.07486" x2="3.25074" y2="1.25838" gradientUnits="userSpaceOnUse">
<stop offset="0.15" stop-color="#EF6129"/>
<stop offset="0.2" stop-color="#F06032"/>
<stop offset="0.55" stop-color="#F85D6A"/>
<stop offset="0.81" stop-color="#FD5B8C"/>
<stop offset="0.96" stop-color="#FF5A99"/>
</linearGradient>
</defs>
</svg>
