<svg width="12" height="12" viewBox="0 0 16 16" fill="none" xmlns="http://www.w3.org/2000/svg">
<path d="M10.3683 4.55635C10.1225 4.55546 9.88694 4.45762 9.71278 4.28406C9.62604 4.19829 9.5572 4.09614 9.51019 3.98354C9.46318 3.87093 9.43909 3.75011 9.43909 3.62808C9.43909 3.50604 9.46318 3.38521 9.51019 3.27261C9.5572 3.16 9.62604 3.05786 9.71278 2.9721L12.4089 0.273913C12.5827 0.0991152 12.8188 0.000582824 13.0652 2.57733e-06C13.3117 -0.000577669 13.5482 0.0968386 13.7228 0.270815C13.8975 0.444792 13.996 0.68108 13.9965 0.927701C13.9971 1.17432 13.8998 1.41107 13.726 1.58587L11.0238 4.28406C10.9388 4.37169 10.8368 4.44104 10.7241 4.48786C10.6114 4.53468 10.4903 4.55799 10.3683 4.55635Z" fill="url(#paint0_linear_911_51698)"/>
<path d="M0.926718 14.0002C0.74339 14 0.564311 13.9455 0.41193 13.8435C0.25955 13.7415 0.140735 13.5966 0.0706006 13.427C0.000465801 13.2575 -0.0179581 13.071 0.0177632 12.891C0.0534845 12.7111 0.141831 12.5457 0.271383 12.4159L2.9673 9.71775C3.05337 9.6312 3.1557 9.56246 3.26832 9.51547C3.38094 9.46847 3.50168 9.44414 3.62369 9.44385C3.74571 9.44356 3.86653 9.46733 3.97936 9.51379C4.0922 9.56026 4.19481 9.62851 4.28129 9.71465C4.36777 9.8008 4.43647 9.90315 4.48343 10.0159C4.53039 10.1286 4.5547 10.2494 4.55499 10.3715C4.55528 10.4937 4.53152 10.6146 4.48509 10.7276C4.43866 10.8405 4.37054 10.9432 4.28446 11.0297L1.5822 13.7279C1.49636 13.8144 1.39429 13.883 1.28179 13.9297C1.16928 13.9765 1.04853 14.0004 0.926718 14.0002Z" fill="url(#paint1_linear_911_51698)"/>
<path d="M13.0529 13.9998C12.8074 13.9976 12.5723 13.8999 12.3974 13.7275L9.70138 11.0293C9.61025 10.9443 9.53725 10.8418 9.48656 10.728C9.43586 10.6141 9.40859 10.4912 9.40639 10.3665C9.4042 10.2419 9.42708 10.1181 9.47372 10.0025C9.52037 9.88692 9.5899 9.78191 9.67798 9.69377C9.76605 9.60562 9.87091 9.53613 9.9864 9.48944C10.1019 9.44275 10.2255 9.41982 10.3501 9.42202C10.4746 9.42422 10.5976 9.4515 10.7113 9.50224C10.8251 9.55297 10.9274 9.62613 11.0124 9.71733L13.7146 12.4155C13.8868 12.5903 13.9833 12.826 13.9833 13.0715C13.9833 13.317 13.8868 13.5526 13.7146 13.7275C13.5382 13.9014 13.3006 13.9992 13.0529 13.9998Z" fill="url(#paint2_linear_911_51698)"/>
<path d="M3.62288 4.55697C3.50003 4.55803 3.37812 4.53448 3.26449 4.48772C3.15087 4.44096 3.04778 4.37192 2.96121 4.28468L0.265291 1.58649C0.101453 1.41052 0.0122623 1.17778 0.0165019 0.937294C0.0207416 0.696808 0.117997 0.467349 0.287935 0.297273C0.457874 0.127197 0.687127 0.0297783 0.927419 0.0255352C1.16771 0.0212921 1.40028 0.110565 1.57611 0.274535L4.27837 2.97272C4.45057 3.14756 4.54708 3.3832 4.54708 3.6287C4.54708 3.8742 4.45057 4.10984 4.27837 4.28468C4.10347 4.45712 3.86839 4.55476 3.62288 4.55697Z" fill="url(#paint3_linear_911_51698)"/>
<defs>
<linearGradient id="paint0_linear_911_51698" x1="9.02733" y1="3.5815" x2="13.2368" y2="1.44923" gradientUnits="userSpaceOnUse">
<stop offset="0.15" stop-color="#EF6129"/>
<stop offset="0.2" stop-color="#F06032"/>
<stop offset="0.55" stop-color="#F85D6A"/>
<stop offset="0.81" stop-color="#FD5B8C"/>
<stop offset="0.96" stop-color="#FF5A99"/>
</linearGradient>
<linearGradient id="paint1_linear_911_51698" x1="-0.41153" y1="13.0253" x2="3.79656" y2="10.8948" gradientUnits="userSpaceOnUse">
<stop offset="0.15" stop-color="#EF6129"/>
<stop offset="0.2" stop-color="#F06032"/>
<stop offset="0.55" stop-color="#F85D6A"/>
<stop offset="0.81" stop-color="#FD5B8C"/>
<stop offset="0.96" stop-color="#FF5A99"/>
</linearGradient>
<linearGradient id="paint2_linear_911_51698" x1="8.99273" y1="13.0202" x2="13.221" y2="10.8793" gradientUnits="userSpaceOnUse">
<stop offset="0.15" stop-color="#EF6129"/>
<stop offset="0.2" stop-color="#F06032"/>
<stop offset="0.55" stop-color="#F85D6A"/>
<stop offset="0.81" stop-color="#FD5B8C"/>
<stop offset="0.96" stop-color="#FF5A99"/>
</linearGradient>
<linearGradient id="paint3_linear_911_51698" x1="-0.39298" y1="3.58738" x2="3.79251" y2="1.46815" gradientUnits="userSpaceOnUse">
<stop offset="0.15" stop-color="#EF6129"/>
<stop offset="0.2" stop-color="#F06032"/>
<stop offset="0.55" stop-color="#F85D6A"/>
<stop offset="0.81" stop-color="#FD5B8C"/>
<stop offset="0.96" stop-color="#FF5A99"/>
</linearGradient>
</defs>
</svg>
