<svg width="18" height="17" viewBox="0 0 18 17" fill="none" xmlns="http://www.w3.org/2000/svg">
<path d="M7.33014 13.0929H1.02942" stroke="current" stroke-width="2" stroke-linecap="round" stroke-linejoin="round"/>
<path d="M10.1405 3.40042H16.4412" stroke="current" stroke-width="2" stroke-linecap="round" stroke-linejoin="round"/>
<path fill-rule="evenodd" clip-rule="evenodd" d="M5.72629 3.34625C5.72629 2.0506 4.66813 1 3.36314 1C2.05816 1 1 2.0506 1 3.34625C1 4.64191 2.05816 5.69251 3.36314 5.69251C4.66813 5.69251 5.72629 4.64191 5.72629 3.34625Z" fill="none" stroke="current" stroke-width="2" stroke-linecap="round" stroke-linejoin="round"/>
<path fill-rule="evenodd" clip-rule="evenodd" d="M17 13.0538C17 11.7581 15.9426 10.7075 14.6376 10.7075C13.3318 10.7075 12.2737 11.7581 12.2737 13.0538C12.2737 14.3494 13.3318 15.4 14.6376 15.4C15.9426 15.4 17 14.3494 17 13.0538Z" fill="none" stroke="current" stroke-width="2" stroke-linecap="round" stroke-linejoin="round"/>
</svg>
