<svg xmlns="http://www.w3.org/2000/svg" width="163" height="32" viewBox="0 0 163 32" fill="none">
<path d="M71.0576 24.114V14.6412L67.6627 20.9254H65.3202L61.9253 14.6412V24.114H57.7099V7.57705H62.0174L66.5598 15.964L71.0546 7.57705H75.27V24.114H71.0546H71.0576ZM92.503 10.8376V7.57705H80.5614V24.114H92.503V20.8534H84.7768V17.1429H91.8014V14.0712H84.7768V10.8346H92.503V10.8376ZM130.617 7.57705V17.4998C130.617 18.6487 130.783 19.6565 131.119 20.5234C131.455 21.3903 131.93 22.1102 132.546 22.6862C133.161 23.2621 133.91 23.694 134.793 23.985C135.676 24.276 136.663 24.4229 137.754 24.4229C138.845 24.4229 139.856 24.276 140.739 23.985C141.622 23.694 142.371 23.2621 142.986 22.6862C143.602 22.1102 144.074 21.3903 144.404 20.5234C144.731 19.6565 144.895 18.6487 144.895 17.4998V7.57705H140.679V17.0259C140.679 17.6558 140.632 18.2107 140.54 18.6907C140.444 19.1706 140.287 19.5726 140.061 19.8965C139.835 20.2205 139.535 20.4634 139.16 20.6284C138.786 20.7934 138.316 20.8774 137.754 20.8774C137.222 20.8774 136.77 20.7934 136.396 20.6284C136.021 20.4634 135.718 20.2175 135.483 19.8965C135.248 19.5726 135.082 19.1676 134.981 18.6787C134.879 18.1897 134.829 17.6318 134.829 17.0019V7.57405H130.614L130.617 7.57705ZM109.424 10.8376V7.57705H97.4823V24.114H109.424V20.8534H101.698V17.1429H108.722V14.0712H101.698V10.8346H109.424V10.8376ZM153.48 24.114H149.265V7.57705H155.938C157.077 7.57705 158.064 7.70604 158.899 7.967C159.735 8.22797 160.427 8.59692 160.983 9.07687C161.536 9.5568 161.946 10.1477 162.214 10.8496C162.478 11.5516 162.612 12.3435 162.612 13.2253C162.612 14.1072 162.478 14.8991 162.214 15.601C161.949 16.303 161.539 16.8939 160.983 17.3738C160.43 17.8538 159.735 18.2257 158.899 18.4837C158.064 18.7447 157.077 18.8736 155.938 18.8736H153.48V24.12V24.114ZM153.48 15.3731H155.469C156.545 15.3731 157.303 15.1931 157.74 14.8301C158.177 14.4672 158.397 13.9333 158.397 13.2223C158.397 12.5114 158.177 11.9775 157.74 11.6145C157.303 11.2516 156.545 11.0716 155.469 11.0716H153.48V15.3701V15.3731ZM122.123 24.114V11.0716H127.156V7.57405H112.875V11.0716H117.908V24.114H122.123ZM49.6568 4.70641C52.5552 7.72703 54.1516 11.7375 54.1516 16C54.1516 20.2625 52.5552 24.273 49.6568 27.2936C46.7435 30.3292 42.867 32 38.7379 32H15.4137C11.2875 32 7.40809 30.3292 4.49479 27.2936C1.59637 24.273 0 20.2625 0 16C0 11.7375 1.59637 7.72703 4.49479 4.70641C7.40809 1.67079 11.2845 0 15.4137 0H38.7379C42.867 0 46.7435 1.67079 49.6568 4.70641ZM50.6437 16C50.6437 9.13086 45.3047 3.53956 38.7379 3.53956H15.4137C8.84987 3.53956 3.50784 9.12786 3.50784 16C3.50784 22.8721 8.8469 28.4604 15.4137 28.4604H38.7379C45.3017 28.4604 50.6437 22.8721 50.6437 16ZM47.0645 16C47.0645 21.0484 42.9919 25.1579 37.9887 25.1579C32.9856 25.1579 28.9129 21.0484 28.9129 16C28.9129 10.9516 32.9856 6.84214 37.9887 6.84214C42.9919 6.84214 47.0645 10.9516 47.0645 16ZM43.5567 16C43.5567 12.9014 41.0596 10.3817 37.9887 10.3817C34.9179 10.3817 32.4208 12.9014 32.4208 16C32.4208 19.0986 34.9179 21.6183 37.9887 21.6183C41.0596 21.6183 43.5567 19.0986 43.5567 16ZM16.6771 19.2156H20.6546C19.6528 20.6464 18 21.5853 16.1331 21.5853C13.0801 21.5853 10.5978 19.0806 10.5978 16C10.5978 12.9194 13.0801 10.4147 16.1331 10.4147C17.9524 10.4147 19.6588 11.3176 20.6933 12.8324L23.5798 10.8226C21.8883 8.35096 19.1058 6.87514 16.1331 6.87514C11.1448 6.87514 7.09 10.9696 7.09 16C7.09 21.0304 11.1478 25.1249 16.1331 25.1249C18.761 25.1249 21.1303 23.988 22.7831 22.1762V25.3768H26.291V15.676H16.6771V19.2156Z" fill="url(#paint0_linear_2919_38277)"/>
<defs>
<linearGradient id="paint0_linear_2919_38277" x1="1.88769" y1="26.7747" x2="160.431" y2="-1.21107" gradientUnits="userSpaceOnUse">
<stop stop-color="#EF6129"/>
<stop offset="0.34" stop-color="#FF5A99"/>
</linearGradient>
</defs>
</svg>