<svg width="88" height="82" viewBox="0 0 88 82" fill="none" xmlns="http://www.w3.org/2000/svg">
<g opacity="0.5">
<path d="M73.9395 8.77881L83.5962 27.5114C87.519 35.2045 77.9558 47.9275 62.2334 55.9229C46.5109 63.9184 30.5808 64.1686 26.6683 56.4702L16.9961 37.7377L73.9395 8.77881Z" fill="url(#paint0_linear_911_51709)"/>
<path d="M39.5553 62.865C32.8097 62.865 27.984 60.7332 25.9966 56.8293L16.3193 38.0759C16.23 37.8915 16.2157 37.6795 16.2797 37.4848C16.3436 37.2901 16.4807 37.1282 16.6617 37.0334L73.5844 8.07459C73.767 7.9831 73.9782 7.96735 74.1723 8.03072C74.3664 8.09409 74.528 8.2315 74.6222 8.41338L84.3048 27.1303C85.4983 29.4654 85.5916 32.2174 84.5953 35.2978C82.1773 42.7668 73.7505 50.9343 62.6046 56.6C54.8991 60.5195 46.8925 62.7347 40.0587 62.8546L39.5553 62.865ZM18.0627 38.0759L27.3769 56.11C31.1025 63.4071 46.576 63.0161 61.9041 55.2239C72.531 49.8189 80.8541 41.8182 83.1165 34.8391C83.9831 32.1601 83.9156 29.8198 82.9193 27.8704L73.6052 9.82587L18.0627 38.0759Z" fill="#1B1C21"/>
<path d="M12.5047 32.8644L35.362 5.57343C35.8116 5.09381 36.4133 4.78611 37.0639 4.703L72.603 2.29498L84.2262 -3.62085L87.1009 2.01351C87.1984 2.19801 87.2354 2.40878 87.2065 2.61568C87.1776 2.82257 87.0843 3.01499 86.94 3.16541L54.0681 38.087C53.6203 38.5683 53.0174 38.8748 52.3661 38.9522L4.78357 44.9827C4.57801 45.0164 4.36698 44.9842 4.18069 44.8906C3.9944 44.797 3.8423 44.6469 3.74579 44.4615L0.871094 38.8271L12.5047 32.8644Z" fill="white"/>
<path opacity="0.3" d="M12.5047 32.8644L35.362 5.57343C35.8116 5.09381 36.4133 4.78611 37.0639 4.703L72.603 2.29498L84.2262 -3.62085L87.1009 2.01351C87.1984 2.19801 87.2354 2.40878 87.2065 2.61568C87.1776 2.82257 87.0843 3.01499 86.94 3.16541L54.0681 38.087C53.6203 38.5683 53.0174 38.8748 52.3661 38.9522L4.78357 44.9827C4.57801 45.0164 4.36698 44.9842 4.18069 44.8906C3.9944 44.797 3.8423 44.6469 3.74579 44.4615L0.871094 38.8271L12.5047 32.8644Z" fill="url(#paint1_linear_911_51709)"/>
<path d="M4.65866 45.7231C4.32933 45.7249 4.00613 45.6341 3.72552 45.4609C3.4449 45.2877 3.21818 45.0391 3.07095 44.7432L0.201446 39.1192C0.154112 39.0276 0.125604 38.9273 0.117582 38.8243C0.109559 38.7213 0.122142 38.6178 0.1547 38.5198C0.185945 38.4219 0.236564 38.3313 0.303426 38.2534C0.370287 38.1754 0.452021 38.1119 0.54387 38.0664L12.0219 32.2235L34.7753 5.05245C35.3537 4.42678 36.1323 4.0247 36.9754 3.9162L72.4055 1.50817L83.8887 -4.33468C84.072 -4.42578 84.2836 -4.44076 84.4778 -4.37639C84.672 -4.31202 84.8332 -4.17346 84.9265 -3.99068L87.8012 1.64369C87.9712 1.97208 88.0346 2.34571 87.9825 2.71215C87.9303 3.07859 87.7654 3.41945 87.5106 3.68687L54.6438 38.598C54.071 39.2089 53.3039 39.5997 52.4748 39.703L4.88707 45.7335C4.81082 45.7352 4.73445 45.7317 4.65866 45.7231ZM1.93966 39.1192L4.45635 44.05C4.47631 44.095 4.51049 44.1323 4.55364 44.1558C4.5968 44.1794 4.64651 44.188 4.69502 44.1803L52.2828 38.1498C52.7523 38.0867 53.1864 37.8641 53.5126 37.5191L86.3845 2.62358C86.4178 2.58996 86.4395 2.54638 86.446 2.49937C86.4526 2.45237 86.4437 2.40449 86.4208 2.36297L83.8991 -2.57817L72.966 2.98322C72.8742 3.03144 72.7734 3.05985 72.6701 3.06662L37.1259 5.47986C36.6708 5.54737 36.2519 5.76785 35.9376 6.10532L13.1063 33.365C13.0383 33.4447 12.9555 33.5102 12.8624 33.5578L1.93966 39.1192Z" fill="#1B1C21"/>
<path d="M1.04959 37.6024L33.9216 2.70692C34.3702 2.22673 34.9727 1.92043 35.6236 1.8417L83.2113 -4.194C83.4121 -4.20503 83.6117 -4.15723 83.7859 -4.05642C83.9602 -3.95561 84.1015 -3.80613 84.1927 -3.62614C84.284 -3.44615 84.3212 -3.24341 84.2999 -3.04257C84.2786 -2.84173 84.1996 -2.65144 84.0726 -2.49483L51.206 32.4268C50.7566 32.9059 50.1544 33.212 49.504 33.292L1.91623 39.3277C1.71029 39.3448 1.5039 39.2997 1.32361 39.1983C1.14332 39.0968 0.997242 38.9437 0.90416 38.7583C0.811078 38.573 0.775258 38.364 0.801166 38.1581C0.827075 37.9522 0.913539 37.7587 1.04959 37.6024Z" fill="url(#paint2_linear_911_51709)"/>
<path d="M1.78357 40.0893C1.43512 40.089 1.09433 39.9863 0.803301 39.7938C0.512276 39.6013 0.283744 39.3274 0.145815 39.006C0.00788732 38.6846 -0.0333958 38.3296 0.0271134 37.9849C0.0876226 37.6403 0.247284 37.3209 0.48634 37.0662L33.3582 2.14465C33.9341 1.53883 34.7 1.15051 35.5273 1.04488L83.115 -4.98561C83.4798 -5.03231 83.85 -4.96471 84.1751 -4.79206C84.5002 -4.61941 84.7642 -4.35012 84.9311 -4.02102C85.0981 -3.69191 85.1598 -3.31905 85.1077 -2.9534C85.0557 -2.58775 84.8925 -2.24716 84.6405 -1.97819L51.7737 32.9173C51.2002 33.5272 50.4335 33.9178 49.6048 34.0223L2.01705 40.0528L1.78357 40.0893ZM1.61749 38.1399C1.58377 38.1724 1.56223 38.2155 1.55656 38.2621C1.55088 38.3086 1.56139 38.3557 1.58633 38.3953C1.60458 38.4406 1.63772 38.4782 1.6802 38.5019C1.72268 38.5256 1.77192 38.534 1.81981 38.5256L49.4077 32.4952C49.8791 32.4332 50.315 32.2106 50.6426 31.8645L83.5094 -3.03104C83.5423 -3.06382 83.5636 -3.10651 83.5702 -3.15261C83.5767 -3.19872 83.5681 -3.24571 83.5456 -3.28644C83.5257 -3.33152 83.4915 -3.36873 83.4483 -3.39229C83.4052 -3.41585 83.3555 -3.42445 83.3069 -3.41675L35.7244 2.63459C35.253 2.69654 34.8171 2.91917 34.4895 3.26527L1.61749 38.1868V38.1399Z" fill="#1B1C21"/>
<path d="M25.3291 54.0789C25.7568 54.0242 26.1892 54.1341 26.5396 54.3864C26.8899 54.6388 27.1323 55.0149 27.218 55.4393L32.22 80.2962L25.4173 81.1979L23.8606 55.8771C23.8344 55.4466 23.9712 55.022 24.2436 54.6885C24.5159 54.355 24.9036 54.1373 25.3291 54.0789Z" fill="white"/>
<path opacity="0.3" d="M25.3291 54.0775C25.7568 54.0228 26.1892 54.1326 26.5396 54.3849C26.8899 54.6373 27.1323 55.0134 27.218 55.4378L32.22 80.2947L25.4173 81.1964L23.8606 55.8757C23.8344 55.4451 23.9712 55.0206 24.2436 54.6871C24.5159 54.3536 24.9036 54.1358 25.3291 54.0775Z" fill="url(#paint3_linear_911_51709)"/>
<path d="M25.4404 81.9893C25.2607 81.9887 25.0867 81.9262 24.9474 81.8121C24.8648 81.7437 24.7973 81.6588 24.7491 81.5628C24.7008 81.4668 24.6729 81.3618 24.6672 81.2544L23.0794 55.9336C23.0477 55.3072 23.2515 54.6916 23.6503 54.2089C24.0492 53.7262 24.614 53.4117 25.2329 53.3275C25.8548 53.2477 26.4837 53.4068 26.9938 53.7732C27.5038 54.1395 27.8572 54.686 27.983 55.3029L33.0059 80.1702C33.0267 80.2757 33.0258 80.3842 33.0032 80.4893C32.9807 80.5943 32.9369 80.6936 32.8746 80.781C32.8124 80.8684 32.7331 80.9421 32.6414 80.9975C32.5498 81.0529 32.4477 81.0889 32.3417 81.1032L25.5441 81.9997L25.4404 81.9893ZM25.4404 54.8547C25.2089 54.8871 24.998 55.0059 24.8499 55.1876C24.7018 55.3692 24.6273 55.6002 24.6413 55.8346L26.1721 80.3318L31.3195 79.649L26.4626 55.6053C26.4159 55.3724 26.2826 55.1661 26.0897 55.0286C25.8969 54.891 25.6591 54.8326 25.4248 54.8651L25.4404 54.8547Z" fill="#1B1C21"/>
<path d="M25.6139 54.6109C25.4236 54.611 25.2398 54.5411 25.0973 54.4143C24.9549 54.2875 24.8636 54.1127 24.8408 53.9229L22.7652 36.7696C22.7521 36.6573 22.7628 36.5435 22.7968 36.4356C22.8308 36.3278 22.8872 36.2284 22.9623 36.1442L41.4454 15.9835C41.5084 15.8917 41.5903 15.8146 41.6855 15.7572C41.7806 15.6999 41.8869 15.6636 41.9971 15.6509C42.1074 15.6381 42.2191 15.6492 42.3247 15.6834C42.4304 15.7176 42.5274 15.7741 42.6095 15.8491C42.6916 15.9241 42.7569 16.0158 42.8008 16.1182C42.8447 16.2206 42.8663 16.3312 42.8641 16.4427C42.862 16.5541 42.8362 16.6638 42.7884 16.7644C42.7406 16.865 42.6719 16.9542 42.587 17.0259L24.3531 36.9208L26.3715 53.7197C26.3838 53.8217 26.3761 53.9251 26.3486 54.024C26.3211 54.123 26.2744 54.2156 26.2113 54.2964C26.1481 54.3772 26.0697 54.4448 25.9806 54.4952C25.8914 54.5456 25.7933 54.5778 25.6917 54.5901L25.6139 54.6109Z" fill="#1B1C21"/>
</g>
<defs>
<linearGradient id="paint0_linear_911_51709" x1="10.8995" y1="50.6796" x2="66.4068" y2="15.0952" gradientUnits="userSpaceOnUse">
<stop offset="0.15" stop-color="#EF6129"/>
<stop offset="0.2" stop-color="#F06032"/>
<stop offset="0.55" stop-color="#F85D6A"/>
<stop offset="0.81" stop-color="#FD5B8C"/>
<stop offset="0.96" stop-color="#FF5A99"/>
</linearGradient>
<linearGradient id="paint1_linear_911_51709" x1="-6.92992" y1="34.5932" x2="48.4686" y2="-15.2342" gradientUnits="userSpaceOnUse">
<stop offset="0.15" stop-color="#EF6129"/>
<stop offset="0.2" stop-color="#F06032"/>
<stop offset="0.55" stop-color="#F85D6A"/>
<stop offset="0.81" stop-color="#FD5B8C"/>
<stop offset="0.96" stop-color="#FF5A99"/>
</linearGradient>
<linearGradient id="paint2_linear_911_51709" x1="-6.75216" y1="30.0178" x2="43.1048" y2="-18.4261" gradientUnits="userSpaceOnUse">
<stop offset="0.15" stop-color="#EF6129"/>
<stop offset="0.2" stop-color="#F06032"/>
<stop offset="0.55" stop-color="#F85D6A"/>
<stop offset="0.81" stop-color="#FD5B8C"/>
<stop offset="0.96" stop-color="#FF5A99"/>
</linearGradient>
<linearGradient id="paint3_linear_911_51709" x1="23.1019" y1="75.3909" x2="32.577" y2="73.9119" gradientUnits="userSpaceOnUse">
<stop offset="0.15" stop-color="#EF6129"/>
<stop offset="0.2" stop-color="#F06032"/>
<stop offset="0.55" stop-color="#F85D6A"/>
<stop offset="0.81" stop-color="#FD5B8C"/>
<stop offset="0.96" stop-color="#FF5A99"/>
</linearGradient>
</defs>
</svg>
