<svg width="256" height="256" viewBox="0 0 256 256" fill="none" xmlns="http://www.w3.org/2000/svg">
<path d="M120.825 72.8308C119.901 72.6273 120.11 74.8906 118.884 75.2977C117.658 75.7047 117.146 76.3276 117.454 78.594C117.762 80.8605 117.248 83.8361 116.021 84.974C114.795 86.1118 113.061 86.929 112.959 89.7073C112.857 92.4856 110.303 95.1622 108.772 96.0903C107.24 97.0185 104.889 98.4555 104.889 100.824C104.889 102.347 104.849 104.296 105.198 105.794C113.458 97.7282 119.274 87.4916 121.977 76.2628C121.74 74.7457 121.349 72.951 120.825 72.8308Z" fill="url(#paint0_linear_911_51721)"/>
<path d="M245.566 166.57L101.605 146.527C99.8572 146.305 98.2508 145.453 97.0864 144.13C95.9219 142.807 95.2794 141.105 95.2792 139.342L93.3041 38.8663C93.3041 38.8663 96.5855 36.4981 98.4465 35.5915C99.4299 35.1121 100.532 34.9309 101.617 35.0704L245.141 53.3746C246.888 53.5975 248.495 54.4503 249.659 55.7735C250.824 57.0967 251.466 58.7993 251.466 60.5625V159.268C251.468 160.101 251.284 160.923 250.929 161.676C250.573 162.428 250.055 163.092 249.411 163.619C248.271 164.563 245.566 166.57 245.566 166.57Z" fill="white"/>
<path opacity="0.6" d="M245.566 166.57L101.605 146.527C99.8572 146.305 98.2508 145.453 97.0864 144.13C95.9219 142.807 95.2794 141.105 95.2792 139.342L93.3041 38.8663C93.3041 38.8663 96.5855 36.4981 98.4465 35.5915C99.4299 35.1121 100.532 34.9309 101.617 35.0704L245.141 53.3746C246.888 53.5975 248.495 54.4503 249.659 55.7735C250.824 57.0967 251.466 58.7993 251.466 60.5625V159.268C251.468 160.101 251.284 160.923 250.929 161.676C250.573 162.428 250.055 163.092 249.411 163.619C248.271 164.563 245.566 166.57 245.566 166.57Z" fill="url(#paint1_linear_911_51721)"/>
<path d="M241.174 167.904L97.6414 149.585C95.8943 149.362 94.2882 148.51 93.1239 147.187C91.9595 145.865 91.3168 144.163 91.3159 142.4V43.6911C91.3161 42.8917 91.4863 42.1014 91.8154 41.3729C92.1444 40.6443 92.6247 39.9943 93.2243 39.466C93.8239 38.9377 94.5289 38.5433 95.2927 38.3089C96.0564 38.0745 96.8613 38.0056 97.6538 38.1068L241.19 56.4418C242.937 56.6653 244.543 57.5185 245.706 58.8416C246.87 60.1647 247.512 61.867 247.512 63.6297V162.336C247.51 163.134 247.338 163.922 247.008 164.649C246.678 165.376 246.197 166.024 245.598 166.55C244.999 167.077 244.294 167.47 243.532 167.704C242.769 167.937 241.966 168.005 241.174 167.904Z" fill="white"/>
<path opacity="0.6" d="M238.122 163.838L101.069 146.344C99.7983 146.182 98.6308 145.561 97.7846 144.599C96.9385 143.637 96.4717 142.399 96.4716 141.118V45.9054C96.4717 45.3717 96.5853 44.8442 96.8049 44.3579C97.0246 43.8716 97.3451 43.4377 97.7453 43.085C98.1455 42.7324 98.6161 42.469 99.1259 42.3125C99.6357 42.156 100.173 42.1099 100.702 42.1773L237.746 59.6706C239.021 59.8271 240.194 60.4445 241.045 61.4066C241.896 62.3687 242.367 63.6091 242.368 64.8942V160.106C242.368 160.642 242.254 161.171 242.033 161.658C241.813 162.146 241.491 162.581 241.089 162.934C240.687 163.287 240.215 163.55 239.703 163.706C239.191 163.862 238.652 163.907 238.122 163.838Z" fill="url(#paint2_linear_911_51721)"/>
<path opacity="0.5" d="M232.159 159.289L106.89 143.301C105.729 143.152 104.662 142.585 103.889 141.706C103.115 140.827 102.688 139.696 102.688 138.524V51.5082C102.688 51.0203 102.792 50.538 102.994 50.0935C103.195 49.649 103.488 49.2524 103.854 48.9301C104.22 48.6077 104.65 48.3671 105.117 48.2241C105.583 48.0812 106.074 48.0391 106.558 48.1008L231.823 64.0893C232.984 64.2371 234.052 64.8039 234.825 65.6832C235.599 66.5625 236.026 67.6941 236.025 68.8658V155.879C236.026 156.367 235.922 156.849 235.722 157.294C235.521 157.739 235.228 158.136 234.862 158.459C234.497 158.781 234.066 159.022 233.6 159.166C233.134 159.309 232.642 159.351 232.159 159.289Z" fill="white"/>
<path d="M241.885 168.414C241.627 168.415 241.37 168.398 241.115 168.365L118.619 152.731C118.559 152.723 118.5 152.704 118.447 152.673C118.394 152.643 118.347 152.602 118.31 152.554C118.272 152.506 118.245 152.45 118.229 152.391C118.212 152.332 118.208 152.271 118.216 152.21C118.223 152.149 118.243 152.09 118.273 152.037C118.304 151.984 118.344 151.937 118.392 151.9C118.441 151.862 118.496 151.835 118.555 151.819C118.614 151.802 118.676 151.798 118.736 151.806L241.232 167.452C241.959 167.546 242.698 167.483 243.4 167.269C244.101 167.054 244.749 166.692 245.299 166.207C245.85 165.722 246.29 165.125 246.592 164.456C246.894 163.787 247.05 163.061 247.049 162.327V84.8117C247.049 84.689 247.098 84.5713 247.184 84.4846C247.271 84.3979 247.388 84.3491 247.511 84.3491C247.634 84.3491 247.751 84.3979 247.838 84.4846C247.924 84.5713 247.973 84.689 247.973 84.8117V162.321C247.973 163.937 247.332 165.487 246.19 166.629C245.048 167.772 243.5 168.414 241.885 168.414Z" fill="#1B1C21"/>
<path d="M157.434 226.04L9.81512 206.983C9.31013 206.923 8.84608 206.675 8.51423 206.289C8.18238 205.904 8.00674 205.408 8.0219 204.899C8.0219 204.233 8.08667 199.53 8.08667 199.53L86.1555 154.871C90.0685 152.635 95.1277 151.772 99.5953 152.345L245.35 171.155C245.781 171.211 246.191 171.379 246.538 171.642C246.884 171.904 247.157 172.253 247.328 172.654L247.562 173.203C247.562 173.203 247.436 177.125 247.488 178.041C247.511 178.42 247.427 178.799 247.244 179.132C247.061 179.465 246.788 179.74 246.456 179.925L170.353 223.468C166.441 225.709 161.905 226.612 157.434 226.04Z" fill="url(#paint3_linear_911_51721)"/>
<path d="M27.9731 204.066L10.343 201.787C9.9164 201.732 9.51789 201.545 9.2037 201.251C8.88951 200.957 8.67551 200.571 8.59207 200.149C8.50863 199.727 8.55994 199.289 8.73868 198.897C8.91741 198.506 9.21457 198.18 9.58816 197.967L85.2723 154.704C89.1835 152.47 93.715 151.57 98.1821 152.141L245.274 171.152C245.701 171.206 246.1 171.394 246.414 171.688C246.729 171.981 246.943 172.367 247.027 172.789C247.111 173.211 247.06 173.65 246.881 174.041C246.703 174.433 246.405 174.759 246.032 174.972L170.345 218.235C166.434 220.471 161.902 221.371 157.435 220.798L27.9731 204.06V204.066Z" fill="white"/>
<path opacity="0.3" d="M27.9731 204.066L10.343 201.787C9.9164 201.732 9.51789 201.545 9.2037 201.251C8.88951 200.957 8.67551 200.571 8.59207 200.149C8.50863 199.727 8.55994 199.289 8.73868 198.897C8.91741 198.506 9.21457 198.18 9.58816 197.967L85.2723 154.704C89.1835 152.47 93.715 151.57 98.1821 152.141L245.274 171.152C245.701 171.206 246.1 171.394 246.414 171.688C246.729 171.981 246.943 172.367 247.027 172.789C247.111 173.211 247.06 173.65 246.881 174.041C246.703 174.433 246.405 174.759 246.032 174.972L170.345 218.235C166.434 220.471 161.902 221.371 157.435 220.798L27.9731 204.06V204.066Z" fill="url(#paint4_linear_911_51721)"/>
<path opacity="0.6" d="M186.234 196.789L58.6769 180.178C58.2906 180.13 57.9291 179.962 57.6439 179.697C57.3587 179.432 57.1644 179.084 57.0886 178.702C57.0128 178.32 57.0594 177.924 57.2218 177.57C57.3841 177.216 57.654 176.922 57.9929 176.73L87.9812 159.771C91.5135 157.75 95.6077 156.937 99.6432 157.455L227.201 174.066C227.584 174.116 227.943 174.284 228.226 174.548C228.509 174.812 228.702 175.159 228.778 175.538C228.854 175.918 228.809 176.312 228.649 176.665C228.489 177.017 228.223 177.311 227.888 177.504L197.899 194.464C194.367 196.487 190.272 197.303 186.234 196.789Z" fill="url(#paint5_linear_911_51721)"/>
<path d="M160.035 221.43C159.146 221.43 158.258 221.375 157.376 221.264L85.3459 212.013C85.2852 212.005 85.2266 211.986 85.1735 211.955C85.1204 211.925 85.0737 211.885 85.0362 211.836C84.9987 211.788 84.9712 211.732 84.955 211.673C84.9389 211.614 84.9346 211.553 84.9423 211.492C84.9499 211.431 84.9695 211.373 84.9998 211.319C85.0301 211.266 85.0707 211.22 85.119 211.182C85.1674 211.144 85.2226 211.117 85.2817 211.101C85.3407 211.085 85.4022 211.08 85.4629 211.088L157.493 220.339C161.863 220.891 166.295 220.013 170.125 217.835L245.813 174.572C246.102 174.407 246.332 174.154 246.471 173.85C246.609 173.547 246.649 173.207 246.584 172.88C246.518 172.552 246.352 172.254 246.108 172.026C245.864 171.799 245.555 171.654 245.224 171.612L98.1325 152.595C93.7615 152.042 89.3291 152.921 85.4999 155.102L74.8948 161.161C74.8419 161.2 74.7815 161.227 74.7174 161.241C74.6533 161.255 74.587 161.254 74.523 161.24C74.459 161.226 74.3987 161.199 74.3461 161.16C74.2935 161.121 74.2497 161.071 74.2178 161.014C74.1859 160.956 74.1666 160.893 74.161 160.828C74.1555 160.762 74.1638 160.697 74.1856 160.635C74.2073 160.573 74.242 160.516 74.2873 160.469C74.3325 160.422 74.3873 160.384 74.448 160.36L85.0531 154.297C89.054 152.021 93.6837 151.103 98.2495 151.679L245.344 170.696C245.867 170.762 246.356 170.992 246.741 171.352C247.126 171.712 247.389 172.184 247.491 172.701C247.593 173.219 247.53 173.755 247.311 174.235C247.091 174.715 246.727 175.113 246.269 175.374L170.578 218.64C167.365 220.468 163.731 221.43 160.035 221.43Z" fill="url(#paint6_linear_911_51721)"/>
<path d="M174.942 81.4067L249.07 81.4067C252.643 81.4067 255.54 78.5075 255.54 74.9312V22.9942C255.54 19.4178 252.643 16.5186 249.07 16.5186L174.942 16.5186C171.368 16.5186 168.471 19.4178 168.471 22.9942V74.9312C168.471 78.5075 171.368 81.4067 174.942 81.4067Z" fill="white"/>
<path opacity="0.4" d="M191.74 22.4858H176.88C176.276 22.4858 175.786 22.9759 175.786 23.5805V23.6114C175.786 24.2159 176.276 24.706 176.88 24.706H191.74C192.345 24.706 192.834 24.2159 192.834 23.6114V23.5805C192.834 22.9759 192.345 22.4858 191.74 22.4858Z" fill="url(#paint7_linear_911_51721)"/>
<path opacity="0.4" d="M194.96 27.2405H173.691C173.087 27.2405 172.598 27.7306 172.598 28.3352V28.366C172.598 28.9706 173.087 29.4607 173.691 29.4607H194.96C195.564 29.4607 196.054 28.9706 196.054 28.366V28.3352C196.054 27.7306 195.564 27.2405 194.96 27.2405Z" fill="url(#paint8_linear_911_51721)"/>
<path opacity="0.4" d="M194.891 36.1797H173.637C173.033 36.1797 172.544 36.6698 172.544 37.2744V37.3052C172.544 37.9098 173.033 38.3999 173.637 38.3999H194.891C195.495 38.3999 195.985 37.9098 195.985 37.3052V37.2744C195.985 36.6698 195.495 36.1797 194.891 36.1797Z" fill="url(#paint9_linear_911_51721)"/>
<path opacity="0.4" d="M194.5 40.4758H173.709C173.105 40.4758 172.615 40.9659 172.615 41.5705V41.6013C172.615 42.2059 173.105 42.696 173.709 42.696H194.5C195.105 42.696 195.594 42.2059 195.594 41.6013V41.5705C195.594 40.9659 195.105 40.4758 194.5 40.4758Z" fill="url(#paint10_linear_911_51721)"/>
<path opacity="0.4" d="M194.357 44.8386H173.565C172.961 44.8386 172.472 45.3287 172.472 45.9333V45.9641C172.472 46.5687 172.961 47.0588 173.565 47.0588H194.357C194.961 47.0588 195.451 46.5687 195.451 45.9641V45.9333C195.451 45.3287 194.961 44.8386 194.357 44.8386Z" fill="url(#paint11_linear_911_51721)"/>
<path opacity="0.4" d="M194.891 49.1338H173.637C173.033 49.1338 172.544 49.6239 172.544 50.2285V50.2593C172.544 50.8639 173.033 51.354 173.637 51.354H194.891C195.495 51.354 195.985 50.8639 195.985 50.2593V50.2285C195.985 49.6239 195.495 49.1338 194.891 49.1338Z" fill="url(#paint12_linear_911_51721)"/>
<path opacity="0.4" d="M194.963 53.5679H173.709C173.105 53.5679 172.615 54.058 172.615 54.6626V54.6934C172.615 55.298 173.105 55.7881 173.709 55.7881H194.963C195.567 55.7881 196.056 55.298 196.056 54.6934V54.6626C196.056 54.058 195.567 53.5679 194.963 53.5679Z" fill="url(#paint13_linear_911_51721)"/>
<path opacity="0.4" d="M194.92 31.8997H187.159C186.555 31.8997 186.065 32.3898 186.065 32.9943V33.0252C186.065 33.6297 186.555 34.1198 187.159 34.1198H194.92C195.524 34.1198 196.014 33.6297 196.014 33.0252V32.9943C196.014 32.3898 195.524 31.8997 194.92 31.8997Z" fill="url(#paint14_linear_911_51721)"/>
<path opacity="0.4" d="M181.774 31.8997H173.587C172.983 31.8997 172.493 32.3898 172.493 32.9943V33.0252C172.493 33.6297 172.983 34.1198 173.587 34.1198H181.774C182.378 34.1198 182.867 33.6297 182.867 33.0252V32.9943C182.867 32.3898 182.378 31.8997 181.774 31.8997Z" fill="url(#paint15_linear_911_51721)"/>
<path opacity="0.4" d="M249.773 57.1047H228.825C228.22 57.1047 227.731 57.5948 227.731 58.1994V58.2302C227.731 58.8348 228.22 59.3249 228.825 59.3249H249.773C250.377 59.3249 250.867 58.8348 250.867 58.2302V58.1994C250.867 57.5948 250.377 57.1047 249.773 57.1047Z" fill="url(#paint16_linear_911_51721)"/>
<path opacity="0.4" d="M225.011 57.0347H208.964C208.36 57.0347 207.871 57.5248 207.871 58.1293V58.1602C207.871 58.7648 208.36 59.2549 208.964 59.2549H225.011C225.615 59.2549 226.105 58.7648 226.105 58.1602V58.1293C226.105 57.5248 225.615 57.0347 225.011 57.0347Z" fill="url(#paint17_linear_911_51721)"/>
<path opacity="0.4" d="M249.843 52.4739H235.07C234.465 52.4739 233.976 52.964 233.976 53.5685V53.5994C233.976 54.204 234.465 54.6941 235.07 54.6941H249.843C250.447 54.6941 250.937 54.204 250.937 53.5994V53.5685C250.937 52.964 250.447 52.4739 249.843 52.4739Z" fill="url(#paint18_linear_911_51721)"/>
<path opacity="0.4" d="M249.359 62.637H210.266C209.018 62.637 208.007 63.6489 208.007 64.8972V76.2849C208.007 77.5333 209.018 78.5452 210.266 78.5452H249.359C250.606 78.5452 251.617 77.5333 251.617 76.2849V64.8972C251.617 63.6489 250.606 62.637 249.359 62.637Z" fill="url(#paint19_linear_911_51721)"/>
<path opacity="0.4" d="M201.604 62.3193H174.047C172.8 62.3193 171.789 63.3313 171.789 64.5796V75.9673C171.789 77.2156 172.8 78.2276 174.047 78.2276H201.604C202.852 78.2276 203.863 77.2156 203.863 75.9673V64.5796C203.863 63.3313 202.852 62.3193 201.604 62.3193Z" fill="url(#paint20_linear_911_51721)"/>
<path opacity="0.8" d="M248.527 22.4053H201.337C199.975 22.4053 198.872 23.5097 198.872 24.8721V44.5085C198.872 45.8709 199.975 46.9754 201.337 46.9754H248.527C249.888 46.9754 250.991 45.8709 250.991 44.5085V24.8721C250.991 23.5097 249.888 22.4053 248.527 22.4053Z" fill="url(#paint21_linear_911_51721)"/>
<path d="M249.071 81.8695H174.939C173.102 81.867 171.34 81.1352 170.041 79.8345C168.742 78.5338 168.012 76.7704 168.01 74.9314V22.9913C168.012 21.1522 168.742 19.3889 170.041 18.0882C171.34 16.7875 173.102 16.0557 174.939 16.0532H249.071C250.908 16.0557 252.67 16.7875 253.969 18.0882C255.268 19.3889 255.998 21.1522 256 22.9913V74.9437C255.995 76.7806 255.263 78.5408 253.965 79.8388C252.666 81.1369 250.906 81.867 249.071 81.8695ZM174.939 16.9721C173.347 16.9746 171.821 17.609 170.695 18.7362C169.569 19.8634 168.936 21.3914 168.934 22.9851V74.9437C168.936 76.5374 169.569 78.0655 170.695 79.1927C171.821 80.3199 173.347 80.9543 174.939 80.9567H249.071C250.663 80.9543 252.19 80.3199 253.315 79.1927C254.441 78.0655 255.074 76.5374 255.076 74.9437V22.9913C255.074 21.3976 254.441 19.8696 253.315 18.7424C252.19 17.6151 250.663 16.9807 249.071 16.9783L174.939 16.9721Z" fill="url(#paint22_linear_911_51721)"/>
<path d="M165.739 77.3771C166.586 77.3092 170.746 85.8323 183.757 85.4777C196.769 85.123 207.21 70.5469 207.21 70.5469C207.21 70.5469 211.706 62.9612 215.117 60.2199C218.527 57.4786 219.06 57.1147 219.06 57.1147C219.37 57.5734 219.535 58.114 219.535 58.6673C219.535 59.2206 219.37 59.7613 219.06 60.2199C217.991 61.8974 215.055 65.0365 215.055 65.0365C215.055 65.0365 218.309 66.825 216.842 70.5469C215.154 74.8269 210.399 74.4816 210.399 74.4816C210.399 74.4816 200.753 117.233 160.877 96.9178L165.739 77.3771Z" fill="white"/>
<path d="M180.634 102.856C174.561 102.856 167.878 101.006 160.65 97.3305C160.557 97.2828 160.483 97.205 160.44 97.1098C160.397 97.0147 160.387 96.9077 160.413 96.8063L165.29 77.2656C165.313 77.1712 165.364 77.0863 165.438 77.0232C165.512 76.96 165.603 76.9218 165.7 76.914C166.11 76.8832 166.412 77.2224 167.083 77.9748C169.043 80.1641 173.624 85.2922 183.743 85.0146C196.19 84.6724 206.429 70.8301 206.823 70.2905C207.131 69.7786 211.445 62.5815 214.834 59.8587C218.223 57.1359 218.787 56.7473 218.809 56.7319C218.906 56.669 219.023 56.6448 219.137 56.6643C219.251 56.6837 219.354 56.7452 219.425 56.8368C219.792 57.3702 219.991 58.0018 219.995 58.6497C219.999 59.2975 219.808 59.9315 219.447 60.4692C218.581 61.826 216.566 64.0585 215.749 64.962C216.674 65.6836 218.491 67.5923 217.262 70.716C215.765 74.515 211.984 74.919 210.752 74.9467C210.062 77.6109 205.283 94.1359 191.942 100.405C188.401 102.052 184.538 102.889 180.634 102.856ZM161.399 96.6891C173.033 102.548 183.173 103.513 191.538 99.5815C205.591 92.9796 209.889 74.5798 209.932 74.3947C209.956 74.2865 210.018 74.1906 210.107 74.1248C210.196 74.059 210.306 74.0278 210.416 74.037C210.595 74.037 214.856 74.2961 216.393 70.3922C217.687 67.1051 214.933 65.5232 214.816 65.4585C214.753 65.4251 214.7 65.3776 214.659 65.3198C214.618 65.2619 214.592 65.1954 214.582 65.1255C214.571 65.0558 214.576 64.9846 214.597 64.9173C214.618 64.8499 214.653 64.7882 214.702 64.7369C214.729 64.7061 217.638 61.6102 218.67 59.9882C218.883 59.6753 219.016 59.3147 219.057 58.9382C219.098 58.5618 219.045 58.1811 218.904 57.8297C218.424 58.1966 217.419 58.9798 215.404 60.6049C212.095 63.263 207.652 70.7314 207.606 70.8054C207.601 70.8178 207.593 70.8293 207.584 70.8394C207.153 71.4561 196.859 85.6036 183.767 85.949C183.493 85.949 183.222 85.949 182.954 85.949C172.984 85.949 168.387 80.8179 166.393 78.5915L166.014 78.1752L161.399 96.6891Z" fill="#1B1C21"/>
<path d="M101.253 96.9178C101.253 96.9178 105.157 71.694 118.954 65.4867C132.751 59.2795 151.417 60.1429 156.562 63.2419C161.707 66.3409 175.126 80.3558 175.126 80.3558L163.27 96.9178C163.27 96.9178 166.967 138.599 164.81 150.369C164.81 150.369 146.348 148.084 140.405 147.184C135.401 146.425 124.334 145.969 112.367 143.693L113.876 94.9104L101.253 96.9178Z" fill="url(#paint23_linear_911_51721)"/>
<path d="M124.389 140.187C124.267 140.198 124.145 140.159 124.051 140.08C123.957 140.001 123.898 139.887 123.887 139.765C123.876 139.642 123.915 139.52 123.994 139.426C124.073 139.331 124.187 139.273 124.309 139.262C145.215 135.562 151.318 121.087 151.377 120.942C151.423 120.829 151.512 120.738 151.625 120.69C151.738 120.643 151.865 120.642 151.979 120.688C152.093 120.734 152.183 120.824 152.231 120.937C152.279 121.05 152.279 121.177 152.233 121.291C152.172 121.445 150.653 125.127 146.459 129.308C142.605 133.163 135.657 138.176 124.473 140.156C124.446 140.17 124.418 140.18 124.389 140.187Z" fill="#1B1C21"/>
<path d="M162.261 114.55H135.415L143.824 84.5371H170.669L162.261 114.55Z" fill="#1B1C21"/>
<path d="M103.001 96.7357L117.685 94.8855C117.685 94.8855 115.285 113.976 142.775 103.338C142.131 101.261 141.836 99.0912 141.903 96.9176C142.047 93.4609 144.115 96.8066 144.405 99.6188C144.694 102.431 151.146 101.287 155.025 100.18C158.904 99.073 163.994 99.7977 155.025 104.75C146.056 109.702 144.09 107.491 144.09 107.491C144.09 107.491 132.638 123.526 118.385 120.134C100.856 115.934 103.001 96.7357 103.001 96.7357Z" fill="white"/>
<path d="M122.357 121.053C120.983 121.054 119.612 120.894 118.275 120.575C109.01 118.358 105.22 111.969 103.677 107.007C102.651 103.672 102.265 100.174 102.54 96.6956C102.551 96.5925 102.596 96.4961 102.669 96.4222C102.742 96.3483 102.837 96.3012 102.94 96.2886L117.628 94.4384C117.697 94.4296 117.768 94.437 117.834 94.46C117.901 94.483 117.961 94.521 118.01 94.571C118.06 94.62 118.099 94.6801 118.122 94.7464C118.145 94.8128 118.152 94.8837 118.142 94.9534C118.142 95.012 117.462 100.865 121.532 104.035C125.479 107.118 132.433 106.81 142.209 103.072C141.637 101.069 141.379 98.9882 141.445 96.9053C141.466 96.4397 141.525 95.0181 142.443 94.9904H142.468C143.626 94.9904 144.68 97.7409 144.868 99.5788C144.883 99.7466 144.936 99.9087 145.024 100.052C145.113 100.196 145.233 100.317 145.376 100.405C146.957 101.475 151.495 100.714 154.903 99.7453C156.813 99.1995 159.851 98.8788 160.406 100.223C160.714 100.957 160.504 102.265 155.254 105.157C148.118 109.095 145.219 108.62 144.205 108.123C142.074 110.864 139.61 113.327 136.869 115.456C132.063 119.157 127.133 121.053 122.357 121.053ZM103.427 97.1458C103.243 100.389 103.629 103.639 104.567 106.748C106.724 113.631 111.401 117.979 118.491 119.675C119.761 119.979 121.063 120.134 122.37 120.134C134.343 120.134 143.611 107.365 143.712 107.223C143.753 107.167 143.806 107.12 143.867 107.087C143.927 107.053 143.995 107.033 144.064 107.029C144.133 107.025 144.202 107.037 144.266 107.064C144.33 107.09 144.387 107.131 144.433 107.183C144.433 107.183 146.448 108.953 154.801 104.343C159.876 101.543 159.549 100.575 159.546 100.566C159.374 100.146 157.408 99.9796 155.149 100.624C153.319 101.148 147.169 102.73 144.852 101.161C144.594 100.999 144.376 100.78 144.216 100.521C144.056 100.261 143.957 99.9687 143.928 99.6651C143.743 97.8674 142.902 96.2732 142.502 95.9648C142.397 96.282 142.345 96.6143 142.347 96.9484C142.287 99.0642 142.574 101.176 143.195 103.199C143.233 103.312 143.226 103.435 143.176 103.543C143.125 103.651 143.035 103.736 142.924 103.779C132.608 107.772 125.207 108.096 120.934 104.756C117.209 101.842 117.082 97.0872 117.163 95.4252L103.427 97.1458Z" fill="#1B1C21"/>
<path d="M139.881 53.9906C138.707 55.0637 136.412 56.3773 134.619 55.4738C133.282 54.7985 132.533 53.0532 132.579 51.055C131.963 51.1044 131.149 51.055 130.57 50.5493C129.68 49.7599 129.846 48.3076 129.88 47.3547C130.04 42.9544 127.486 42.2791 128.112 39.2911C128.601 36.9445 130.444 35.5446 130.789 35.2825C132.53 33.9627 133.707 34.3882 136.643 33.6235C141.573 32.3314 141.721 30.2099 144.962 30.2007C145.15 30.2007 149.562 30.2469 151.06 33.2997C152.277 35.7666 150.853 38.7947 149.383 40.392C147.479 42.4426 146.111 41.4311 144.198 43.1518C140.833 46.1583 143.369 50.796 139.881 53.9906Z" fill="#1B1C21"/>
<path d="M149.7 46.1363L149.506 45.9667C148.532 45.128 147.516 44.1535 147.26 42.8831C146.16 37.5269 141.255 35.5811 141.03 40.4995C140.971 41.7329 136.442 41.6774 136.981 42.9818C138.38 46.3737 138.411 45.4641 136.436 46.716C136.208 46.7242 135.984 46.7777 135.777 46.8733C134.763 47.3451 134.406 48.7234 134.976 49.9569C135.127 50.298 135.348 50.6032 135.626 50.852C135.904 51.1008 136.232 51.2876 136.587 51.4V56.7685C136.586 57.7526 136.293 58.7143 135.744 59.5309C135.196 60.3475 134.416 60.9821 133.506 61.3538L131.694 62.0939C131.694 62.0939 140.14 67.6104 148.711 61.5543L147.568 61.0393C146.581 60.5963 145.737 59.8843 145.135 58.9847C144.532 58.085 144.195 57.0339 144.16 55.9514V54.9029C144.715 54.9606 145.275 54.9135 145.812 54.7642C148.209 54.0673 149.004 51.3013 148.585 47.8662L149.558 47.342C149.664 47.2862 149.754 47.2056 149.822 47.107C149.889 47.0085 149.932 46.895 149.946 46.7764C149.96 46.6578 149.945 46.5375 149.902 46.426C149.859 46.3145 149.79 46.2151 149.7 46.1363Z" fill="white"/>
<path d="M140.052 64.8384C137.029 64.8175 134.063 64.0065 131.449 62.4856C131.38 62.4386 131.324 62.3738 131.287 62.2979C131.251 62.222 131.236 62.1377 131.243 62.0539C131.251 61.9694 131.281 61.8887 131.332 61.8207C131.382 61.7526 131.451 61.7 131.53 61.6684L133.338 60.9284C134.164 60.5928 134.871 60.0178 135.369 59.2772C135.866 58.5365 136.131 57.6641 136.13 56.7717V51.7269C135.433 51.4113 134.875 50.8521 134.561 50.1543C133.884 48.6988 134.343 47.0429 135.587 46.454C135.81 46.3495 136.048 46.2848 136.293 46.2628C136.601 46.0654 136.875 45.9236 137.091 45.8095C137.242 45.7343 137.387 45.6478 137.525 45.5505C137.416 45.1503 137.267 44.7619 137.082 44.391C136.937 44.058 136.774 43.6541 136.558 43.1576C136.502 43.0358 136.472 42.9033 136.472 42.7691C136.472 42.6349 136.502 42.5023 136.558 42.3805C136.851 41.7638 137.747 41.5233 138.789 41.2334C139.315 41.0854 140.548 40.7401 140.56 40.478C140.69 37.6811 142.172 37.2649 142.806 37.2155C144.578 37.0737 146.96 39.1674 147.705 42.7907C147.936 43.9223 148.907 44.8382 149.8 45.6091L149.995 45.7756C150.141 45.9032 150.255 46.0647 150.326 46.246C150.397 46.4273 150.423 46.6232 150.401 46.8167C150.38 47.0102 150.311 47.1956 150.202 47.3569C150.094 47.5183 149.947 47.6507 149.776 47.7429L149.076 48.1191C149.452 51.9335 148.315 54.5083 145.924 55.2114C145.5 55.3337 145.06 55.3939 144.618 55.3902V55.9514C144.655 56.9446 144.968 57.9079 145.521 58.7331C146.075 59.5583 146.847 60.2128 147.751 60.6231L148.895 61.135C148.969 61.1685 149.033 61.221 149.08 61.2872C149.127 61.3534 149.156 61.4309 149.164 61.512C149.172 61.593 149.158 61.6746 149.125 61.7487C149.091 61.8227 149.038 61.8865 148.972 61.9336C146.378 63.8179 143.257 64.8345 140.052 64.8384ZM132.768 62.1618C134.968 63.2657 141.3 65.7388 147.764 61.6376L147.382 61.4649C146.318 60.983 145.41 60.2131 144.76 59.2422C144.11 58.2713 143.744 57.1379 143.703 55.9699V54.9092C143.703 54.845 143.715 54.7814 143.741 54.7225C143.766 54.6635 143.804 54.6106 143.851 54.5669C143.898 54.5229 143.954 54.4895 144.015 54.4687C144.076 54.448 144.141 54.4405 144.205 54.4466C144.703 54.4974 145.205 54.4556 145.687 54.3233C148.491 53.5061 148.337 49.5746 148.152 47.9248C148.141 47.8325 148.157 47.7388 148.2 47.6562C148.243 47.5736 148.31 47.506 148.392 47.4623L149.366 46.9381C149.405 46.917 149.439 46.8866 149.465 46.8495C149.49 46.8125 149.506 46.7699 149.511 46.7253C149.517 46.6807 149.511 46.6354 149.495 46.5934C149.479 46.5514 149.453 46.5141 149.418 46.4848L149.227 46.3183C148.22 45.4487 147.12 44.4034 146.83 42.9849C146.152 39.6793 144.107 38.0512 142.908 38.1468C142.088 38.2115 141.58 39.0718 141.515 40.5304C141.472 41.4555 140.249 41.8008 139.069 42.1339C138.53 42.2849 137.528 42.5656 137.421 42.7907C137.421 42.7907 137.421 42.7907 137.421 42.8122C137.624 43.3025 137.796 43.7034 137.938 44.0303C138.601 45.5566 138.779 45.9668 137.535 46.6328C137.313 46.7531 137.032 46.9011 136.697 47.1169C136.628 47.1602 136.549 47.1846 136.469 47.1879C136.302 47.1917 136.138 47.2306 135.988 47.302C135.205 47.6658 134.946 48.7697 135.409 49.7688C135.533 50.0491 135.714 50.3003 135.941 50.5058C136.168 50.7114 136.436 50.8669 136.727 50.9622C136.824 50.9896 136.909 51.0478 136.97 51.1279C137.03 51.2081 137.063 51.3057 137.063 51.4062V56.7748C137.065 57.8508 136.746 58.9029 136.146 59.7962C135.547 60.6895 134.695 61.3833 133.699 61.7887L132.768 62.1618Z" fill="#1B1C21"/>
<path d="M144.155 55.3697H144.084C143.038 55.211 142.038 54.8317 141.15 54.2571C140.262 53.6824 139.506 52.9254 138.932 52.0363C138.902 51.9837 138.882 51.9256 138.874 51.8653C138.866 51.8051 138.87 51.7439 138.886 51.6852C138.902 51.6265 138.929 51.5714 138.966 51.5232C139.003 51.475 139.049 51.4346 139.102 51.4042C139.154 51.3738 139.212 51.3541 139.273 51.3462C139.333 51.3383 139.394 51.3423 139.453 51.3581C139.511 51.3738 139.566 51.401 139.614 51.438C139.663 51.475 139.703 51.5212 139.733 51.5738C140.243 52.3388 140.905 52.99 141.678 53.4862C142.451 53.9825 143.318 54.313 144.226 54.457C144.348 54.4664 144.462 54.5241 144.542 54.6175C144.622 54.7109 144.662 54.8323 144.652 54.955C144.643 55.0776 144.585 55.1916 144.492 55.2716C144.399 55.3517 144.277 55.3915 144.155 55.382V55.3697Z" fill="#1B1C21"/>
<path fill-rule="evenodd" clip-rule="evenodd" d="M65.4606 201.846L39.3613 201.587L40.1147 201.615V243.808H53.1241C54.2912 243.807 55.4472 244.035 56.526 244.481C57.6047 244.927 58.585 245.581 59.4109 246.407C60.2368 247.232 60.892 248.212 61.339 249.291C61.786 250.371 62.0161 251.527 62.0161 252.695H12.8171C12.8171 250.338 13.7526 248.078 15.4179 246.411C17.0832 244.745 19.3418 243.808 21.6968 243.808H33.1267V201.524L22.9938 201.424C15.3126 201.424 8.74364 196.404 7.3972 188.781L0.125856 147.485C-0.0801189 146.336 -0.0328162 145.156 0.264415 144.027C0.561646 142.898 1.1016 141.848 1.84664 140.949C2.59168 140.051 3.52381 139.326 4.5778 138.826C5.6318 138.326 6.78222 138.062 7.94873 138.053H35.6786L65.4606 201.846Z" fill="white"/>
<path opacity="0.3" fill-rule="evenodd" clip-rule="evenodd" d="M65.4606 201.846L39.3613 201.587L40.1147 201.615V243.808H53.1241C54.2912 243.807 55.4472 244.035 56.526 244.481C57.6047 244.927 58.585 245.581 59.4109 246.407C60.2368 247.232 60.892 248.212 61.339 249.291C61.786 250.371 62.0161 251.527 62.0161 252.695H12.8171C12.8171 250.338 13.7526 248.078 15.4179 246.411C17.0832 244.745 19.3418 243.808 21.6968 243.808H33.1267V201.524L22.9938 201.424C15.3126 201.424 8.74364 196.404 7.3972 188.781L0.125856 147.485C-0.0801189 146.336 -0.0328162 145.156 0.264415 144.027C0.561646 142.898 1.1016 141.848 1.84664 140.949C2.59168 140.051 3.52381 139.326 4.5778 138.826C5.6318 138.326 6.78222 138.062 7.94873 138.053H35.6786L65.4606 201.846Z" fill="url(#paint24_linear_911_51721)"/>
<path d="M11.5921 170.381C11.4837 170.381 11.3786 170.342 11.2957 170.272C11.2128 170.202 11.1574 170.105 11.1392 169.998L7.61445 149.955C7.60035 149.838 7.63173 149.719 7.70216 149.624C7.77258 149.529 7.87665 149.465 7.99304 149.444C8.10943 149.424 8.2293 149.449 8.32793 149.514C8.42656 149.579 8.49648 149.679 8.52336 149.795L12.0481 169.838C12.0592 169.898 12.0582 169.96 12.0452 170.019C12.0322 170.079 12.0075 170.135 11.9725 170.185C11.9375 170.235 11.893 170.278 11.8414 170.31C11.7898 170.343 11.7323 170.364 11.6722 170.375L11.5921 170.381Z" fill="url(#paint25_linear_911_51721)"/>
<path d="M51.5647 104.749C54.3561 104.502 56.3065 107.05 57.8686 110.916C59.1442 114.065 58.642 116.686 56.9197 118.413C51.349 124 45.3039 140.115 37.0404 145.018C30.4468 148.928 16.6435 148.203 10.2687 140.084C4.20815 132.375 3.28385 121.206 10.1455 116.183C16.3077 111.666 22.0539 119.406 28.5981 115.206C35.05 111.064 34.9483 107.632 38.7658 105.613C42.8605 103.448 43.6524 105.452 51.5647 104.749Z" fill="#1B1C21"/>
<path d="M91.3442 227.462C91.2856 227.702 94.1172 240.721 94.1172 240.721L87.5791 239.627L85.6102 228.615L91.3442 227.462Z" fill="url(#paint26_linear_911_51721)"/>
<path d="M90.6572 236.453C91.1313 236.039 91.7297 235.795 92.3579 235.759C92.8981 235.749 93.4292 235.9 93.8832 236.193C94.3371 236.487 94.6932 236.909 94.906 237.406C96.0398 239.928 99.0285 246.95 99.8727 252.691C100.181 254.72 98.6403 256.37 96.2586 255.041C92.3518 252.861 86.9321 247.859 84.0975 240.474C83.9333 240.059 83.8754 239.609 83.9293 239.166C83.9831 238.723 84.1468 238.3 84.4056 237.936C84.9107 237.233 85.4856 236.584 86.1218 235.997C86.4417 235.713 86.8524 235.554 87.2796 235.547C87.7068 235.54 88.1223 235.687 88.4511 235.96L89.0673 236.466C89.2911 236.652 89.5735 236.752 89.8645 236.75C90.1555 236.748 90.4363 236.643 90.6572 236.453Z" fill="white"/>
<path d="M97.8632 255.985C97.2107 255.969 96.5737 255.783 96.0146 255.446C91.9013 253.152 86.494 248.045 83.6471 240.644C83.4556 240.156 83.3901 239.627 83.4569 239.106C83.5237 238.585 83.7205 238.09 84.0291 237.666C84.5523 236.937 85.149 236.264 85.8099 235.658C86.2103 235.298 86.727 235.095 87.2653 235.085C87.8035 235.075 88.3271 235.26 88.7401 235.606L89.3563 236.112C89.495 236.226 89.6693 236.289 89.8493 236.289C90.0293 236.289 90.2036 236.226 90.3423 236.112C90.8929 235.631 91.5878 235.348 92.3173 235.307C92.9498 235.293 93.5719 235.469 94.1042 235.811C94.6366 236.153 95.0549 236.647 95.3059 237.228C96.5383 239.944 99.4654 246.892 100.31 252.646C100.491 253.879 100.079 255.005 99.2312 255.591C98.8249 255.856 98.3484 255.994 97.8632 255.985ZM87.3136 236.01C86.9927 236.009 86.6832 236.128 86.4447 236.343C85.8306 236.906 85.2762 237.531 84.7902 238.208C84.5733 238.508 84.4353 238.857 84.389 239.224C84.3427 239.591 84.3895 239.964 84.5251 240.308C87.2981 247.496 92.5083 252.424 96.4798 254.638C97.3672 255.131 98.1621 255.193 98.7198 254.807C99.2775 254.422 99.5394 253.639 99.41 252.76C98.5811 247.132 95.688 240.281 94.4802 237.598C94.3045 237.186 94.0103 236.835 93.6351 236.59C93.26 236.345 92.8206 236.217 92.3727 236.223C91.8469 236.253 91.3466 236.459 90.9523 236.808C90.6503 237.061 90.2701 237.2 89.8767 237.203C89.4833 237.206 89.1012 237.072 88.7956 236.824L88.1794 236.318C87.9365 236.118 87.6313 236.009 87.3166 236.01H87.3136Z" fill="#1B1C21"/>
<path d="M98.3913 253.696C97.8644 253.696 92.2599 253.37 85.5338 240.067C85.5065 240.013 85.4902 239.954 85.4857 239.893C85.4812 239.832 85.4887 239.771 85.5077 239.714C85.5462 239.597 85.6292 239.501 85.7387 239.446C85.8482 239.39 85.9752 239.381 86.0916 239.419C86.208 239.458 86.3044 239.541 86.3596 239.651C92.9315 252.648 98.2988 252.771 98.3943 252.771C98.5151 252.771 98.6312 252.818 98.718 252.902C98.8048 252.986 98.8556 253.101 98.8596 253.222C98.8617 253.282 98.8518 253.342 98.8306 253.399C98.8094 253.455 98.7773 253.507 98.7361 253.551C98.6949 253.595 98.6454 253.631 98.5904 253.656C98.5355 253.681 98.4762 253.694 98.4159 253.696H98.3913Z" fill="#1B1C21"/>
<path d="M94.2043 246.42C94.0975 246.419 93.9942 246.381 93.9122 246.312C93.8302 246.243 93.7745 246.149 93.7545 246.043C93.7345 245.938 93.7515 245.83 93.8026 245.736C93.8537 245.642 93.9358 245.569 94.0348 245.528L97.1344 244.295C97.1912 244.271 97.2522 244.258 97.3139 244.258C97.3756 244.258 97.4367 244.27 97.4936 244.294C97.5505 244.318 97.6021 244.353 97.6452 244.397C97.6884 244.441 97.7222 244.494 97.7448 244.551C97.7674 244.609 97.7784 244.67 97.7769 244.732C97.7755 244.793 97.7617 244.854 97.7364 244.91C97.7111 244.967 97.6747 245.017 97.6296 245.059C97.5844 245.101 97.5313 245.134 97.4733 245.155L94.3922 246.389C94.3322 246.411 94.2684 246.422 94.2043 246.42Z" fill="#1B1C21"/>
<path d="M93.1161 244.045C93.0081 244.045 92.9034 244.007 92.8204 243.938C92.7373 243.869 92.6809 243.773 92.6612 243.667C92.6414 243.56 92.6595 243.451 92.7122 243.356C92.7649 243.262 92.8489 243.189 92.9497 243.15L96.5823 241.735C96.6967 241.69 96.824 241.693 96.9364 241.743C97.0488 241.792 97.137 241.884 97.1815 241.999C97.226 242.113 97.2233 242.241 97.1739 242.353C97.1245 242.466 97.0325 242.554 96.9181 242.598L93.2824 244.014C93.2294 244.035 93.173 244.045 93.1161 244.045Z" fill="#1B1C21"/>
<path d="M63.456 227.424C63.1182 228.806 62.8854 230.213 62.7596 231.63C62.2882 235.922 67.0886 239.894 67.0886 239.894L55.7193 238.352L56.1538 228.42L63.456 227.424Z" fill="url(#paint27_linear_911_51721)"/>
<path d="M58.3436 235.479C59.0092 235.26 58.8582 234.227 59.4035 233.743C60.2231 233.009 61.2522 233.024 62.2351 233.518C64.7 234.751 71.386 238.313 75.6194 242.235C77.1168 243.623 76.9565 245.877 74.276 246.361C69.8823 247.15 62.5679 246.713 55.7494 242.775C55.363 242.553 55.0386 242.237 54.806 241.856C54.5734 241.476 54.4401 241.043 54.4183 240.598C54.382 239.223 54.4334 237.847 54.5724 236.478C54.6425 236.055 54.8604 235.671 55.1872 235.395C55.5139 235.118 55.9283 234.966 56.3563 234.967H57.1482C57.7429 234.983 57.7767 235.667 58.3436 235.479Z" fill="white"/>
<path d="M70.2971 247.153C65.106 247.134 60.0093 245.763 55.5078 243.175C55.0519 242.916 54.6695 242.546 54.3967 242.098C54.1239 241.65 53.9697 241.14 53.9488 240.616C53.9092 239.21 53.9617 237.803 54.1059 236.404C54.1937 235.872 54.4675 235.389 54.8785 235.041C55.2894 234.693 55.8107 234.503 56.349 234.504H57.1408C57.3131 234.509 57.4824 234.55 57.6379 234.624C57.7934 234.698 57.9316 234.805 58.0436 234.936C58.0803 234.975 58.1205 235.011 58.1637 235.044H58.1884C58.3178 235.001 58.3856 234.825 58.4965 234.461C58.5887 234.06 58.7903 233.693 59.0789 233.4C59.9785 232.595 61.1986 232.475 62.428 233.092C65.0716 234.427 71.6713 237.958 75.917 241.883C76.8229 242.722 77.2049 243.86 76.9153 244.85C76.7428 245.435 76.182 246.472 74.3395 246.801C73.005 247.038 71.6523 247.155 70.2971 247.153ZM56.3521 235.435C56.0337 235.433 55.7252 235.546 55.4823 235.751C55.2393 235.957 55.0779 236.243 55.0272 236.558C54.8939 237.89 54.8445 239.228 54.8793 240.566C54.8959 240.935 55.0054 241.294 55.1978 241.608C55.3901 241.923 55.6589 242.184 55.9793 242.367C62.6005 246.194 69.7302 246.684 74.1916 245.895C75.193 245.713 75.8523 245.25 76.0403 244.591C76.2282 243.931 75.9479 243.163 75.3008 242.565C71.1506 238.719 64.634 235.238 62.0213 233.931C61.405 233.622 60.4807 233.388 59.7073 234.088C59.5532 234.277 59.4475 234.502 59.3992 234.742C59.2575 235.179 59.0911 235.722 58.4934 235.919C58.3027 235.984 58.0969 235.99 57.9031 235.934C57.7094 235.879 57.537 235.767 57.4089 235.611C57.2671 235.472 57.2302 235.448 57.1532 235.448H56.3582L56.3521 235.435Z" fill="#1B1C21"/>
<path d="M70.1785 245.158C67.2853 245.158 62.9256 244.372 56.6216 241.541C56.5662 241.516 56.5163 241.481 56.4746 241.436C56.4329 241.392 56.4003 241.34 56.3787 241.283C56.3571 241.226 56.3469 241.166 56.3486 241.105C56.3504 241.044 56.3642 240.984 56.389 240.929C56.4139 240.873 56.4495 240.823 56.4937 240.782C56.5379 240.74 56.5899 240.707 56.6467 240.686C56.7035 240.664 56.7639 240.654 56.8247 240.656C56.8854 240.657 56.9452 240.671 57.0006 240.696C70.3664 246.688 74.4797 243.274 74.5198 243.24C74.5653 243.2 74.6183 243.168 74.6758 243.149C74.7334 243.129 74.7943 243.12 74.8551 243.124C74.9159 243.127 74.9754 243.143 75.0302 243.169C75.085 243.196 75.134 243.233 75.1745 243.279C75.215 243.324 75.2461 243.377 75.266 243.435C75.286 243.492 75.2944 243.553 75.2909 243.614C75.2873 243.675 75.2718 243.735 75.2452 243.79C75.2186 243.844 75.1815 243.893 75.136 243.934C75.022 244.023 73.657 245.158 70.1785 245.158Z" fill="#1B1C21"/>
<path d="M67.0182 241.072C66.939 241.073 66.8611 241.052 66.7933 241.011C66.6895 240.951 66.613 240.853 66.5802 240.738C66.5474 240.623 66.5609 240.499 66.6177 240.394L68.2599 237.474C68.32 237.367 68.4201 237.288 68.5383 237.254C68.6565 237.221 68.783 237.236 68.89 237.296C68.9971 237.357 69.0759 237.457 69.1091 237.575C69.1423 237.693 69.1272 237.82 69.0672 237.927L67.4218 240.847C67.3798 240.916 67.3205 240.974 67.2497 241.013C67.179 241.052 67.0992 241.073 67.0182 241.072Z" fill="#1B1C21"/>
<path d="M64.6946 239.916C64.6097 239.917 64.5264 239.893 64.4543 239.848C64.3497 239.785 64.2748 239.682 64.2459 239.563C64.217 239.444 64.2365 239.318 64.3002 239.213L66.1489 236.17C66.2149 236.07 66.317 236 66.4336 235.974C66.5503 235.948 66.6725 235.968 66.7746 236.03C66.8767 236.092 66.9507 236.192 66.9811 236.307C67.0115 236.423 66.996 236.546 66.9376 236.651L65.089 239.694C65.048 239.762 64.9901 239.818 64.921 239.857C64.8519 239.896 64.7739 239.916 64.6946 239.916Z" fill="#1B1C21"/>
<path d="M32.6418 177.35C32.6418 177.35 72.4465 175.62 76.797 179.666C82.7004 185.151 92.8372 230.816 92.8372 230.816L83.0486 233.564C83.0486 233.564 68.2839 196.086 64.6421 196.086C61.0002 196.086 26.5258 194.852 26.5258 194.852L32.6418 177.35Z" fill="#1B1C21"/>
<path d="M24.8174 176.085C24.8174 176.085 19.5795 191.503 23.7452 194.322C27.9108 197.14 58.0348 196.897 56.9903 196.545C55.9458 196.194 54.2974 221.797 54.2974 231.643L63.7779 232.01C63.7779 232.01 78.8753 192.41 77.2577 187.991C74.343 180.079 52.3778 177.408 45.1989 176.354C43.723 176.141 24.8174 176.085 24.8174 176.085Z" fill="#1B1C21"/>
<path d="M72.2479 209.944C72.174 209.943 72.1013 209.925 72.0358 209.891C71.9702 209.857 71.9136 209.808 71.8706 209.748C71.8277 209.687 71.7995 209.618 71.7885 209.545C71.7775 209.472 71.7839 209.397 71.8072 209.327C72.1503 208.26 72.4871 207.213 72.8178 206.185C75.4645 198.007 77.7476 190.946 76.8233 188.13C74.8421 182.139 59.8495 179.805 54.9259 179.055C54.8652 179.046 54.807 179.025 54.7544 178.993C54.7019 178.961 54.6562 178.919 54.6199 178.87C54.5835 178.82 54.5573 178.764 54.5427 178.704C54.5281 178.644 54.5253 178.583 54.5346 178.522C54.5439 178.461 54.5651 178.403 54.5969 178.35C54.6287 178.298 54.6706 178.252 54.7201 178.215C54.7696 178.179 54.8258 178.153 54.8854 178.138C54.945 178.124 55.007 178.121 55.0677 178.13C63.855 179.493 75.7634 181.978 77.7014 187.828C78.7305 190.933 76.5121 197.785 73.696 206.462C73.3632 207.486 73.0243 208.534 72.6854 209.598C72.659 209.695 72.6023 209.781 72.5235 209.843C72.4447 209.905 72.3481 209.941 72.2479 209.944Z" fill="url(#paint28_linear_911_51721)"/>
<path d="M29.5306 129.326C29.5306 129.326 29.6724 126.785 28.1041 153.292C28.1041 153.292 29.1825 173.804 29.3181 176.111C29.4536 178.417 49.4931 177.418 49.4931 177.418C51.8655 167.014 51.6067 155.077 49.9522 142.327L53.3876 142.018L53.6248 134.001C53.0086 131.639 50.3804 129.943 48.618 129.314C43.9224 127.214 35.5973 127.892 29.5306 129.326Z" fill="white"/>
<path d="M40.4983 178.102H39.4537C30.2382 178.035 28.9164 177.122 28.8579 176.147C28.7254 173.859 27.6532 153.523 27.6439 153.329V153.267C28.3033 142.148 28.6607 136.138 28.8517 132.915C28.9503 131.3 29.0058 130.381 29.0366 129.866C29.0366 129.672 29.0581 129.505 29.0735 129.369C29.0704 129.349 29.0704 129.328 29.0735 129.308V129.255C29.1228 128.913 29.2276 128.787 29.548 128.805C29.5844 128.81 29.6204 128.817 29.6559 128.827C35.4853 127.482 43.8843 126.711 48.7771 128.904C50.4132 129.493 53.3464 131.201 54.0582 133.899C54.0709 133.942 54.0761 133.987 54.0736 134.032L53.8364 142.049C53.833 142.162 53.7881 142.271 53.7103 142.353C53.6325 142.435 53.5271 142.486 53.4142 142.496L50.4594 142.761C52.2403 156.783 52.0677 168.161 49.9325 177.535C49.91 177.634 49.856 177.722 49.7787 177.787C49.7015 177.852 49.6051 177.89 49.5043 177.896C49.4735 177.887 45.1168 178.102 40.4983 178.102ZM28.5683 153.295C28.6114 154.131 29.6497 173.841 29.7822 176.089C29.8284 176.178 30.5432 177.131 39.8019 177.177C43.8875 177.199 47.933 177.032 49.1223 176.977C51.1866 167.671 51.3067 156.354 49.4951 142.394C49.4867 142.333 49.4911 142.27 49.5081 142.21C49.525 142.15 49.5542 142.094 49.5937 142.046C49.6699 141.95 49.7805 141.888 49.9018 141.873L52.9274 141.602L53.1523 134.069C52.5854 132.061 50.327 130.433 48.4506 129.752H48.4167C43.7642 127.658 35.6486 128.401 29.9609 129.702C29.8962 130.911 29.6127 135.626 28.5683 153.295Z" fill="#1B1C21"/>
<path d="M55.2308 177.149L54.3619 134.873C54.0538 132.897 53.3698 132.098 51.7183 130.997C50.9007 130.478 49.9988 130.105 49.0532 129.896C49.0532 129.896 48.5849 129.631 48.4832 132.193C48.4339 133.442 50.0237 147.319 50.3041 159.215C50.5013 167.541 49.2627 174.812 49.3459 176.412C49.3459 176.529 54.8241 177.627 55.2 177.257L55.2308 177.149Z" fill="url(#paint29_linear_911_51721)"/>
<path d="M41.5076 151.655C41.404 151.655 41.3033 151.621 41.2216 151.557C41.1398 151.493 41.0819 151.404 41.057 151.303C41.0321 151.202 41.0417 151.096 41.0844 151.002C41.127 150.907 41.2 150.83 41.2919 150.782C45.9813 148.315 46.2925 141.328 46.2956 141.257C46.3001 141.134 46.3531 141.018 46.443 140.935C46.4874 140.893 46.5396 140.861 46.5966 140.84C46.6535 140.819 46.7141 140.809 46.7748 140.811C46.8355 140.813 46.8951 140.828 46.9503 140.853C47.0055 140.878 47.0552 140.914 47.0966 140.959C47.1379 141.003 47.1701 141.055 47.1913 141.112C47.2124 141.169 47.2221 141.23 47.2199 141.291C47.2199 141.599 46.8811 148.882 41.7233 151.602C41.657 151.637 41.5828 151.656 41.5076 151.655Z" fill="#1B1C21"/>
<path d="M32.9172 128.974C32.9172 128.974 28.0922 128.416 24.9834 132.675C21.8746 136.933 21.5234 141.703 22.1057 145.57C23.0917 152.132 27.2142 159.607 27.0355 161.645C26.943 162.635 25.8954 169.662 21.927 175.974C18.6579 181.164 18.7996 192.607 19.4374 192.98C23.751 195.49 30.7944 200.582 39.1966 201.189C40.7371 201.303 42.0188 200.498 42.2437 199.24C43.1403 194.217 45.5467 179.644 45.9072 165.965C46.2153 154.118 37.7916 136.128 37.4188 134.586C36.5068 130.834 32.9172 128.974 32.9172 128.974Z" fill="url(#paint30_linear_911_51721)"/>
<path d="M37.3233 160.667C41.2548 169.665 48.2859 171.805 59.8153 173.341L58.5829 176.733C41.3534 178.891 38.1121 175.475 31.1457 166.344L37.3233 160.667Z" fill="url(#paint31_linear_911_51721)"/>
<path d="M53.9766 144.898C54.8547 152.342 66.4827 163.378 72.7373 165.808L68.544 168.975C63.1398 169.172 56.1087 162.937 53.6808 160.729L53.9766 144.898Z" fill="url(#paint32_linear_911_51721)"/>
<path d="M65.6142 166.745C65.7693 166.433 66.0369 166.192 66.3629 166.07C66.5982 165.984 66.8269 165.881 67.0469 165.762L70.0942 164.146C70.6642 163.865 71.4806 164.516 72.0722 164.713C73.8592 165.299 77.5566 166.684 77.2546 167.982C76.925 169.385 73.7453 168.722 72.6176 168.438C72.3588 168.373 70.0233 169.221 69.2838 169.277C68.264 169.354 68.0267 169.095 67.5276 168.833C67.2943 168.713 67.035 168.653 66.7727 168.657C66.5655 168.659 66.3604 168.614 66.1727 168.526C65.985 168.438 65.8195 168.309 65.6882 168.148C65.5466 167.971 65.4591 167.756 65.4361 167.531C65.4132 167.305 65.4557 167.077 65.5587 166.875L65.6142 166.745Z" fill="white"/>
<path d="M68.9424 169.749C68.4397 169.767 67.9436 169.63 67.5221 169.355L67.3126 169.237C67.1444 169.153 66.9582 169.112 66.7703 169.117C66.4944 169.118 66.2217 169.058 65.9722 168.94C65.7226 168.822 65.5026 168.65 65.3283 168.436C65.1282 168.188 65.0043 167.887 64.9715 167.57C64.9387 167.254 64.9984 166.934 65.1435 166.65L65.202 166.533C65.4115 166.117 65.7718 165.796 66.2096 165.636C66.4216 165.556 66.6276 165.462 66.8258 165.352L69.8729 163.733C70.4892 163.425 71.1578 163.767 71.6939 164.042C71.8609 164.131 72.0338 164.21 72.2115 164.276C78.1365 166.225 77.8068 167.631 77.699 168.093C77.6551 168.272 77.5757 168.441 77.4656 168.589C77.3556 168.736 77.217 168.861 77.0581 168.954C75.9828 169.611 73.7952 169.213 72.5505 168.904C72.3656 168.929 71.771 169.105 71.318 169.237C70.659 169.459 69.983 169.627 69.2968 169.74C69.1828 169.746 69.0564 169.749 68.9424 169.749ZM70.4091 164.535C70.3707 164.534 70.3327 164.543 70.2982 164.56L67.2663 166.169C67.0265 166.301 66.7773 166.414 66.5207 166.508C66.3055 166.59 66.1286 166.75 66.0247 166.956L65.9661 167.073C65.9031 167.196 65.8769 167.335 65.8905 167.473C65.9042 167.61 65.9572 167.741 66.0432 167.85C66.1315 167.959 66.2433 168.046 66.3704 168.106C66.4974 168.165 66.6363 168.194 66.7765 168.192C67.1127 168.189 67.4447 168.267 67.7439 168.42L67.9812 168.55C68.3547 168.798 68.8095 168.892 69.2506 168.812C69.8696 168.698 70.4801 168.541 71.0777 168.343C72.2177 168.004 72.5042 167.93 72.7291 167.989C74.5377 168.439 76.0136 168.507 76.5836 168.158C76.638 168.129 76.6857 168.088 76.7239 168.039C76.762 167.991 76.7898 167.934 76.8054 167.874C76.9009 167.455 75.684 166.385 71.9281 165.149C71.7076 165.069 71.4933 164.973 71.2872 164.862C71.0169 164.7 70.7192 164.589 70.4091 164.535Z" fill="#1B1C21"/>
<path d="M28.7768 183.079C27.3698 183.062 25.9793 182.773 24.682 182.228C24.6257 182.205 24.5745 182.172 24.5313 182.129C24.4881 182.086 24.4537 182.036 24.4301 181.98C24.4065 181.924 24.3942 181.863 24.3938 181.803C24.3934 181.742 24.4049 181.682 24.4278 181.625C24.4507 181.569 24.4844 181.518 24.527 181.475C24.5697 181.431 24.6204 181.397 24.6763 181.373C24.7323 181.35 24.7923 181.337 24.853 181.337C24.9137 181.337 24.9739 181.348 25.0302 181.371C32.7021 184.47 36.5966 177.489 36.7599 177.19C36.7864 177.132 36.8244 177.081 36.8716 177.039C36.9187 176.997 36.974 176.965 37.0341 176.945C37.0941 176.925 37.1576 176.917 37.2205 176.923C37.2835 176.929 37.3447 176.947 37.4002 176.977C37.4558 177.008 37.5045 177.049 37.5435 177.099C37.5824 177.149 37.6107 177.206 37.6267 177.267C37.6426 177.328 37.6459 177.392 37.6361 177.455C37.6264 177.517 37.604 177.577 37.5702 177.631C37.5364 177.698 34.5384 183.079 28.7768 183.079Z" fill="url(#paint33_linear_911_51721)"/>
<path d="M54.9193 161.439C54.7993 161.439 54.684 161.392 54.5978 161.309C54.5115 161.225 54.4611 161.112 54.4571 160.992L54.0442 149.453C54.0397 149.33 54.0841 149.211 54.1676 149.121C54.2511 149.031 54.3669 148.978 54.4894 148.973C54.612 148.969 54.7313 149.013 54.8212 149.097C54.911 149.181 54.964 149.296 54.9685 149.419L55.3814 160.961C55.3848 161.083 55.3397 161.202 55.2561 161.292C55.1725 161.381 55.0569 161.434 54.9346 161.439H54.9193Z" fill="url(#paint34_linear_911_51721)"/>
<path d="M49.0702 177.833C44.7136 177.833 42.5722 176.908 39.8578 175.706C39.1738 175.397 38.4652 175.089 37.6641 174.781C35.3255 173.856 33.6309 172.388 32.1735 170.072C31.5049 169.008 30.9411 167.88 30.3834 166.785C29.8997 165.829 29.4005 164.839 28.8429 163.911C28.7795 163.806 28.7605 163.68 28.79 163.561C28.8194 163.442 28.895 163.339 29 163.276C29.105 163.212 29.2309 163.193 29.3499 163.223C29.469 163.252 29.5714 163.328 29.6347 163.433C30.2109 164.389 30.7192 165.397 31.2091 166.369C31.7514 167.442 32.3122 168.552 32.9592 169.579C34.3057 171.719 35.8647 173.06 38.0122 173.923C38.8256 174.25 39.5527 174.562 40.2306 174.867C43.7862 176.424 46.1371 177.451 53.7536 176.628C54.4129 176.557 56.9148 176.588 57.4509 176.609C57.5732 176.615 57.6884 176.669 57.7714 176.759C57.8545 176.849 57.8987 176.968 57.8946 177.09C57.893 177.151 57.8792 177.211 57.854 177.267C57.8288 177.323 57.7928 177.373 57.748 177.414C57.7032 177.455 57.6505 177.487 57.5931 177.508C57.5357 177.529 57.4748 177.538 57.4139 177.534C56.7576 177.507 54.3975 177.491 53.8583 177.55C52.2684 177.729 50.6702 177.824 49.0702 177.833Z" fill="url(#paint35_linear_911_51721)"/>
<path d="M45.5995 169.841C45.5257 169.842 45.4529 169.825 45.3869 169.792L42.6479 168.376L42.5924 168.312C40.8454 166.326 39.5359 162.922 38.3805 159.539C38.3396 159.423 38.3466 159.295 38.3998 159.184C38.4529 159.073 38.548 158.988 38.664 158.947C38.78 158.906 38.9075 158.913 39.0185 158.966C39.1294 159.019 39.2147 159.114 39.2556 159.23C40.3648 162.487 41.6156 165.752 43.2271 167.624L45.8091 168.947C45.9005 168.995 45.9733 169.071 46.016 169.165C46.0587 169.259 46.0688 169.365 46.0447 169.465C46.0206 169.565 45.9638 169.655 45.8831 169.719C45.8024 169.783 45.7026 169.819 45.5995 169.82V169.841Z" fill="url(#paint36_linear_911_51721)"/>
<path d="M57.0778 174.917C57.2331 174.606 57.5008 174.366 57.8266 174.245C58.0621 174.157 58.2917 174.054 58.5137 173.937L61.5578 172.318C62.1278 172.04 62.9443 172.691 63.5359 172.885C65.3229 173.474 69.0233 174.855 68.7182 176.157C68.3886 177.557 65.2089 176.894 64.0966 176.613C63.8378 176.548 61.5024 177.393 60.7629 177.449C59.7431 177.526 59.5058 177.267 59.0066 177.005C58.7728 176.886 58.5138 176.826 58.2518 176.829C58.0445 176.83 57.8397 176.785 57.6521 176.697C57.4645 176.609 57.2988 176.48 57.1672 176.32C57.0257 176.142 56.9383 175.927 56.9154 175.701C56.8924 175.475 56.9349 175.246 57.0378 175.044L57.0778 174.917Z" fill="white"/>
<path d="M60.4069 177.936C59.9038 177.953 59.4077 177.814 58.9866 177.538L58.7801 177.424C58.6106 177.34 58.4237 177.298 58.2347 177.301C57.9588 177.302 57.6861 177.241 57.4366 177.123C57.1871 177.005 56.9671 176.833 56.7928 176.619C56.593 176.372 56.4691 176.072 56.4363 175.755C56.4035 175.439 56.4632 175.12 56.608 174.837L56.6665 174.72C56.875 174.302 57.2356 173.981 57.674 173.822C57.8855 173.74 58.0914 173.645 58.2903 173.535L61.3374 171.92C61.9536 171.611 62.6223 171.95 63.1584 172.228C63.326 172.317 63.4988 172.395 63.676 172.462C69.601 174.408 69.2713 175.814 69.1635 176.277C69.1201 176.456 69.0409 176.625 68.9308 176.774C68.8207 176.922 68.6819 177.047 68.5226 177.14C67.4473 177.794 65.2596 177.396 64.0149 177.088C63.83 177.116 63.2385 177.291 62.7979 177.421C62.1385 177.642 61.4626 177.811 60.7766 177.926C60.6472 177.917 60.524 177.936 60.4069 177.936ZM61.8766 172.721C61.8375 172.72 61.7985 172.727 61.7627 172.743L58.7308 174.353C58.491 174.484 58.2418 174.597 57.9852 174.692C57.77 174.774 57.5931 174.933 57.4891 175.139L57.4306 175.253C57.3672 175.376 57.3407 175.515 57.3544 175.653C57.3681 175.791 57.4213 175.922 57.5076 176.03C57.5959 176.139 57.7078 176.226 57.8349 176.286C57.9619 176.345 58.1007 176.375 58.2409 176.372C58.5769 176.37 58.9086 176.449 59.2084 176.601L59.4457 176.733C59.8198 176.98 60.274 177.073 60.715 176.995C61.3341 176.881 61.9446 176.724 62.5422 176.527C63.6822 176.187 63.9718 176.113 64.1936 176.169C66.0022 176.622 67.4781 176.687 68.0481 176.342C68.1029 176.312 68.1509 176.271 68.1891 176.221C68.2273 176.172 68.2548 176.115 68.2699 176.055C68.3685 175.638 67.1484 174.565 63.3926 173.332C63.1731 173.25 62.959 173.154 62.7517 173.045C62.4831 172.88 62.1864 172.766 61.8766 172.709V172.721Z" fill="#1B1C21"/>
<path d="M55.0674 123.816C55.1675 123.801 55.2636 123.767 55.3497 123.714C55.4359 123.661 55.5101 123.59 55.568 123.507C55.6258 123.424 55.6659 123.33 55.6858 123.231C55.7057 123.132 55.705 123.03 55.6837 122.931C55.1044 120.334 55.3262 115.891 55.2399 116.014C54.3156 117.374 52.3899 115.669 49.6477 115.561C48.0148 115.496 47.3862 116.464 47.1428 117.257C47.1288 117.318 47.0968 117.373 47.0509 117.415C47.0049 117.457 46.9471 117.485 46.8854 117.493C46.8236 117.502 46.7606 117.492 46.7048 117.464C46.649 117.436 46.603 117.392 46.5728 117.337C46.1723 116.72 45.4944 116.19 44.4777 117.208C43.35 118.336 44.2959 120.954 45.3157 121.811C45.0661 122.095 41.1686 126.301 38.1799 129.459C38.0387 129.607 37.9304 129.783 37.8621 129.976C37.7938 130.168 37.7671 130.374 37.7837 130.577C37.8003 130.781 37.8598 130.979 37.9584 131.159C38.0569 131.338 38.1923 131.494 38.3556 131.617L41.0145 133.637C41.8287 134.254 42.8133 134.605 43.8339 134.641C44.8545 134.677 45.8616 134.398 46.7176 133.841L47.1305 133.578C47.23 133.514 47.314 133.428 47.3767 133.328C47.4394 133.227 47.4793 133.114 47.4934 132.996C47.5075 132.879 47.4956 132.759 47.4584 132.647C47.4212 132.534 47.3598 132.431 47.2784 132.345L46.4742 131.491C45.821 130.717 45.9412 129.733 46.3602 128.913L48.0024 126.138C48.3774 126.62 48.8123 127.052 49.2965 127.424C49.7031 127.72 50.2022 127.861 50.7035 127.821C51.2048 127.78 51.6752 127.562 52.0294 127.205C53.0049 126.319 53.7396 125.199 54.1646 123.951L55.0674 123.816Z" fill="white"/>
<path d="M44.0224 135.095C42.837 135.096 41.6837 134.71 40.738 133.994L38.0913 131.99C37.878 131.828 37.7011 131.623 37.5722 131.387C37.4433 131.152 37.3653 130.893 37.3432 130.625C37.3211 130.358 37.3555 130.089 37.444 129.836C37.5326 129.583 37.6733 129.351 37.8571 129.156C40.4391 126.43 43.6958 122.921 44.691 121.839C43.9994 120.982 43.5905 119.932 43.5202 118.832C43.4857 118.482 43.5251 118.129 43.6361 117.796C43.747 117.462 43.927 117.155 44.1641 116.896C44.6818 116.378 45.2025 116.14 45.7047 116.196C45.9239 116.227 46.1344 116.302 46.3231 116.418C46.5118 116.533 46.6747 116.687 46.8016 116.868C47.1097 116.082 47.8738 115.04 49.6732 115.114C50.7028 115.182 51.7184 115.39 52.6926 115.73C54.0082 116.137 54.5413 116.248 54.8494 115.764C54.9059 115.682 54.9871 115.62 55.0812 115.586C55.1753 115.553 55.2776 115.551 55.3732 115.579C55.7183 115.687 55.7183 115.817 55.7183 116.837C55.7183 118.194 55.7183 121.016 56.125 122.838C56.1601 123 56.1615 123.167 56.129 123.329C56.0965 123.491 56.0309 123.644 55.9363 123.78C55.8417 123.915 55.7201 124.03 55.5792 124.116C55.4383 124.202 55.2811 124.259 55.1175 124.281L54.4858 124.371C54.0202 125.578 53.2821 126.662 52.3291 127.537C51.897 127.968 51.3263 128.231 50.7186 128.28C50.1108 128.328 49.5055 128.159 49.0107 127.803C48.6599 127.547 48.3385 127.253 48.0525 126.927L46.7369 129.162C46.512 129.603 46.2039 130.491 46.8078 131.204L47.5965 132.039C47.7244 132.175 47.8207 132.338 47.8788 132.515C47.9369 132.693 47.9553 132.881 47.9326 133.066C47.91 133.252 47.8469 133.43 47.7478 133.588C47.6487 133.746 47.5161 133.881 47.3593 133.982L46.9495 134.244C46.0755 134.803 45.0594 135.098 44.0224 135.095ZM45.563 117.096C45.2688 117.149 45.0026 117.304 44.8112 117.534C44.6707 117.705 44.5654 117.902 44.5014 118.114C44.4375 118.325 44.4161 118.548 44.4384 118.768C44.4962 119.774 44.9152 120.726 45.6184 121.447C45.7107 121.525 45.7693 121.636 45.7817 121.756C45.7865 121.817 45.7789 121.879 45.7593 121.937C45.7397 121.995 45.7086 122.049 45.6678 122.095C45.4274 122.369 41.5945 126.511 38.5226 129.754C38.4279 129.855 38.3553 129.975 38.3097 130.105C38.264 130.236 38.2463 130.374 38.2576 130.512C38.269 130.65 38.3091 130.784 38.3755 130.905C38.4419 131.026 38.5329 131.132 38.6428 131.216L41.3018 133.236C42.0373 133.793 42.9259 134.111 43.8477 134.147C44.7695 134.183 45.68 133.935 46.4565 133.436L46.8663 133.171C46.9097 133.145 46.9464 133.109 46.9737 133.066C47.0009 133.023 47.0179 132.975 47.0234 132.924C47.0299 132.874 47.025 132.822 47.0091 132.774C46.9931 132.725 46.9663 132.681 46.931 132.644L46.1268 131.79C45.4182 130.951 45.3535 129.825 45.9358 128.684L47.5935 125.872C47.6309 125.808 47.6832 125.754 47.746 125.715C47.8088 125.676 47.8801 125.652 47.954 125.646C48.0279 125.64 48.1021 125.653 48.1702 125.682C48.2383 125.711 48.2984 125.756 48.3452 125.814C48.6945 126.262 49.0981 126.665 49.5468 127.013C49.867 127.249 50.2617 127.361 50.6581 127.329C51.0544 127.297 51.4257 127.122 51.7036 126.837C52.622 126.008 53.3144 124.959 53.7156 123.788C53.741 123.704 53.7899 123.628 53.8564 123.571C53.923 123.514 54.0045 123.477 54.0914 123.464L55.0158 123.334C55.0538 123.329 55.0904 123.315 55.1232 123.295C55.156 123.275 55.1845 123.249 55.2068 123.217C55.2272 123.187 55.2413 123.154 55.2482 123.118C55.2551 123.083 55.2546 123.046 55.2469 123.011C54.8278 121.124 54.8186 118.314 54.8186 116.893C54.1377 117.112 53.2996 116.853 52.4277 116.584C51.5334 116.268 50.6007 116.073 49.6547 116.005C48.5855 115.965 47.9015 116.424 47.6119 117.374C47.5675 117.516 47.4839 117.642 47.3707 117.738C47.2575 117.833 47.1194 117.895 46.9725 117.915C46.8256 117.936 46.6759 117.914 46.5409 117.853C46.4059 117.791 46.2912 117.692 46.21 117.568C46.0776 117.362 45.8649 117.106 45.6246 117.081L45.563 117.096Z" fill="#1B1C21"/>
<path d="M47.461 125.398L47.9884 126.129L47.461 125.398Z" fill="white"/>
<path d="M47.9901 126.591C47.9167 126.592 47.8442 126.575 47.7787 126.542C47.7133 126.508 47.6568 126.46 47.6141 126.4L47.0904 125.666C47.0274 125.566 47.0048 125.447 47.0272 125.331C47.0496 125.215 47.1153 125.112 47.2109 125.044C47.3064 124.975 47.4246 124.945 47.5414 124.96C47.6581 124.976 47.7646 125.035 47.839 125.126L48.366 125.86C48.4369 125.96 48.4654 126.084 48.4452 126.205C48.425 126.326 48.3577 126.434 48.2581 126.505C48.1801 126.561 48.0863 126.591 47.9901 126.591Z" fill="#1B1C21"/>
<path d="M73.6337 176.246L82.8585 149.036C83.1368 148.613 83.5162 148.267 83.9622 148.028C84.4082 147.789 84.9068 147.665 85.4127 147.667H110.003C110.249 147.665 110.492 147.722 110.712 147.834C110.931 147.945 111.121 148.108 111.265 148.307C111.409 148.507 111.503 148.739 111.539 148.983C111.575 149.226 111.552 149.475 111.473 149.708C111.328 150.088 111.165 150.464 111.044 150.852L102.707 176.295C102.695 177.011 102.402 177.694 101.892 178.196C101.382 178.698 100.696 178.98 99.9802 178.981H54.5987C54.2399 178.981 53.8846 178.91 53.5532 178.773C53.2218 178.635 52.9208 178.434 52.6673 178.18C52.4137 177.926 52.2127 177.624 52.0757 177.292C51.9387 176.96 51.8684 176.605 51.8688 176.246H73.6337Z" fill="#1B1C21"/>
<path d="M91.9067 161.615C91.5616 162.765 92.0916 163.946 93.0899 164.248C94.0881 164.55 95.1819 163.859 95.5301 162.706C95.8782 161.553 95.3452 160.372 94.347 160.07C93.3487 159.767 92.2549 160.461 91.9067 161.615Z" fill="url(#paint37_linear_911_51721)"/>
<path d="M145.418 178.529H36.2425C34.2089 178.529 32.6283 180.44 32.8533 182.624L40.3927 254.144H45.837L41.1168 187.021C41.0879 186.752 41.1144 186.48 41.1946 186.221C41.2748 185.963 41.4069 185.723 41.583 185.518C41.7591 185.313 41.9753 185.145 42.2183 185.027C42.4614 184.908 42.7261 184.841 42.9962 184.828H136.717C138.359 184.828 139.653 186.339 139.53 188.109L134.859 254.567H140.3L147.969 181.618C148.145 179.972 146.953 178.529 145.418 178.529Z" fill="white"/>
<path d="M140.305 255.025H134.863C134.8 255.025 134.737 255.012 134.679 254.986C134.621 254.961 134.568 254.924 134.525 254.877C134.482 254.831 134.448 254.776 134.427 254.716C134.406 254.656 134.397 254.592 134.401 254.529L139.072 188.071C139.102 187.701 139.055 187.328 138.935 186.976C138.814 186.625 138.623 186.302 138.373 186.027C138.164 185.796 137.909 185.61 137.625 185.483C137.34 185.356 137.033 185.289 136.721 185.287H43.0003C42.8137 185.288 42.6294 185.328 42.4591 185.405C42.2888 185.481 42.1363 185.592 42.0113 185.731C41.8577 185.9 41.7403 186.098 41.6661 186.314C41.5919 186.53 41.5626 186.758 41.58 186.986L46.3002 254.1C46.3048 254.163 46.2965 254.227 46.2755 254.287C46.2545 254.346 46.2214 254.401 46.1783 254.447C46.1352 254.494 46.083 254.531 46.025 254.556C45.967 254.581 45.9043 254.594 45.8411 254.594H40.3968C40.2828 254.594 40.173 254.551 40.0882 254.475C40.0035 254.399 39.9499 254.294 39.9377 254.181L32.3983 182.66C32.3315 182.06 32.391 181.453 32.573 180.878C32.755 180.303 33.0555 179.772 33.4551 179.32C33.8017 178.925 34.2281 178.608 34.706 178.389C35.184 178.171 35.7027 178.056 36.2281 178.053H145.407C145.821 178.053 146.23 178.142 146.607 178.313C146.985 178.485 147.321 178.734 147.594 179.046C147.906 179.398 148.141 179.812 148.283 180.261C148.426 180.71 148.472 181.183 148.42 181.651L140.754 254.6C140.745 254.714 140.693 254.82 140.61 254.898C140.528 254.977 140.419 255.022 140.305 255.025ZM135.375 254.1H139.904L147.53 181.565C147.568 181.226 147.535 180.882 147.432 180.557C147.33 180.231 147.16 179.931 146.935 179.675C146.748 179.46 146.517 179.288 146.259 179.17C146 179.051 145.719 178.989 145.435 178.987H36.2435C35.8455 178.989 35.4523 179.075 35.0905 179.241C34.7286 179.407 34.4063 179.648 34.1452 179.949C33.8321 180.305 33.5968 180.722 33.4546 181.174C33.3124 181.626 33.2664 182.102 33.3195 182.573L40.8159 253.678H45.3481L40.6618 187.051C40.6353 186.697 40.6815 186.341 40.7975 186.006C40.9136 185.671 41.097 185.363 41.3365 185.102C41.5477 184.869 41.805 184.683 42.092 184.556C42.379 184.429 42.6894 184.362 43.0034 184.362H136.724C137.162 184.363 137.595 184.456 137.996 184.634C138.396 184.811 138.755 185.071 139.05 185.395C139.387 185.763 139.645 186.196 139.809 186.667C139.972 187.139 140.037 187.639 139.999 188.136L135.375 254.1Z" fill="url(#paint38_linear_911_51721)"/>
<defs>
<linearGradient id="paint0_linear_911_51721" x1="103.344" y1="98.7384" x2="121.9" y2="93.8685" gradientUnits="userSpaceOnUse">
<stop offset="0.15" stop-color="#EF6129"/>
<stop offset="0.2" stop-color="#F06032"/>
<stop offset="0.55" stop-color="#F85D6A"/>
<stop offset="0.81" stop-color="#FD5B8C"/>
<stop offset="0.96" stop-color="#FF5A99"/>
</linearGradient>
<linearGradient id="paint1_linear_911_51721" x1="79.0147" y1="138.424" x2="212.933" y2="56.8815" gradientUnits="userSpaceOnUse">
<stop offset="0.15" stop-color="#EF6129"/>
<stop offset="0.2" stop-color="#F06032"/>
<stop offset="0.55" stop-color="#F85D6A"/>
<stop offset="0.81" stop-color="#FD5B8C"/>
<stop offset="0.96" stop-color="#FF5A99"/>
</linearGradient>
<linearGradient id="paint2_linear_911_51721" x1="83.2903" y1="137.824" x2="207.03" y2="62.7138" gradientUnits="userSpaceOnUse">
<stop offset="0.15" stop-color="#EF6129"/>
<stop offset="0.2" stop-color="#F06032"/>
<stop offset="0.55" stop-color="#F85D6A"/>
<stop offset="0.81" stop-color="#FD5B8C"/>
<stop offset="0.96" stop-color="#FF5A99"/>
</linearGradient>
<linearGradient id="paint3_linear_911_51721" x1="-13.6208" y1="210.366" x2="61.828" y2="86.7389" gradientUnits="userSpaceOnUse">
<stop offset="0.15" stop-color="#EF6129"/>
<stop offset="0.2" stop-color="#F06032"/>
<stop offset="0.55" stop-color="#F85D6A"/>
<stop offset="0.81" stop-color="#FD5B8C"/>
<stop offset="0.96" stop-color="#FF5A99"/>
</linearGradient>
<linearGradient id="paint4_linear_911_51721" x1="-12.9958" y1="206.204" x2="55.1004" y2="86.9824" gradientUnits="userSpaceOnUse">
<stop offset="0.15" stop-color="#EF6129"/>
<stop offset="0.2" stop-color="#F06032"/>
<stop offset="0.55" stop-color="#F85D6A"/>
<stop offset="0.81" stop-color="#FD5B8C"/>
<stop offset="0.96" stop-color="#FF5A99"/>
</linearGradient>
<linearGradient id="paint5_linear_911_51721" x1="41.5351" y1="188.458" x2="75.8106" y2="113.238" gradientUnits="userSpaceOnUse">
<stop offset="0.15" stop-color="#EF6129"/>
<stop offset="0.2" stop-color="#F06032"/>
<stop offset="0.55" stop-color="#F85D6A"/>
<stop offset="0.81" stop-color="#FD5B8C"/>
<stop offset="0.96" stop-color="#FF5A99"/>
</linearGradient>
<linearGradient id="paint6_linear_911_51721" x1="58.4951" y1="206.47" x2="136.581" y2="108.41" gradientUnits="userSpaceOnUse">
<stop offset="0.15" stop-color="#EF6129"/>
<stop offset="0.2" stop-color="#F06032"/>
<stop offset="0.55" stop-color="#F85D6A"/>
<stop offset="0.81" stop-color="#FD5B8C"/>
<stop offset="0.96" stop-color="#FF5A99"/>
</linearGradient>
<linearGradient id="paint7_linear_911_51721" x1="174.246" y1="24.231" x2="175.474" y2="19.4584" gradientUnits="userSpaceOnUse">
<stop offset="0.15" stop-color="#EF6129"/>
<stop offset="0.2" stop-color="#F06032"/>
<stop offset="0.55" stop-color="#F85D6A"/>
<stop offset="0.81" stop-color="#FD5B8C"/>
<stop offset="0.96" stop-color="#FF5A99"/>
</linearGradient>
<linearGradient id="paint8_linear_911_51721" x1="170.478" y1="28.9856" x2="171.397" y2="24.0691" gradientUnits="userSpaceOnUse">
<stop offset="0.15" stop-color="#EF6129"/>
<stop offset="0.2" stop-color="#F06032"/>
<stop offset="0.55" stop-color="#F85D6A"/>
<stop offset="0.81" stop-color="#FD5B8C"/>
<stop offset="0.96" stop-color="#FF5A99"/>
</linearGradient>
<linearGradient id="paint9_linear_911_51721" x1="170.426" y1="37.9248" x2="171.345" y2="33.0085" gradientUnits="userSpaceOnUse">
<stop offset="0.15" stop-color="#EF6129"/>
<stop offset="0.2" stop-color="#F06032"/>
<stop offset="0.55" stop-color="#F85D6A"/>
<stop offset="0.81" stop-color="#FD5B8C"/>
<stop offset="0.96" stop-color="#FF5A99"/>
</linearGradient>
<linearGradient id="paint10_linear_911_51721" x1="170.539" y1="42.221" x2="171.476" y2="37.3114" gradientUnits="userSpaceOnUse">
<stop offset="0.15" stop-color="#EF6129"/>
<stop offset="0.2" stop-color="#F06032"/>
<stop offset="0.55" stop-color="#F85D6A"/>
<stop offset="0.81" stop-color="#FD5B8C"/>
<stop offset="0.96" stop-color="#FF5A99"/>
</linearGradient>
<linearGradient id="paint11_linear_911_51721" x1="170.396" y1="46.5838" x2="171.332" y2="41.6742" gradientUnits="userSpaceOnUse">
<stop offset="0.15" stop-color="#EF6129"/>
<stop offset="0.2" stop-color="#F06032"/>
<stop offset="0.55" stop-color="#F85D6A"/>
<stop offset="0.81" stop-color="#FD5B8C"/>
<stop offset="0.96" stop-color="#FF5A99"/>
</linearGradient>
<linearGradient id="paint12_linear_911_51721" x1="170.426" y1="50.8789" x2="171.345" y2="45.9626" gradientUnits="userSpaceOnUse">
<stop offset="0.15" stop-color="#EF6129"/>
<stop offset="0.2" stop-color="#F06032"/>
<stop offset="0.55" stop-color="#F85D6A"/>
<stop offset="0.81" stop-color="#FD5B8C"/>
<stop offset="0.96" stop-color="#FF5A99"/>
</linearGradient>
<linearGradient id="paint13_linear_911_51721" x1="170.498" y1="55.313" x2="171.417" y2="50.3967" gradientUnits="userSpaceOnUse">
<stop offset="0.15" stop-color="#EF6129"/>
<stop offset="0.2" stop-color="#F06032"/>
<stop offset="0.55" stop-color="#F85D6A"/>
<stop offset="0.81" stop-color="#FD5B8C"/>
<stop offset="0.96" stop-color="#FF5A99"/>
</linearGradient>
<linearGradient id="paint14_linear_911_51721" x1="185.166" y1="33.6448" x2="187.044" y2="29.3839" gradientUnits="userSpaceOnUse">
<stop offset="0.15" stop-color="#EF6129"/>
<stop offset="0.2" stop-color="#F06032"/>
<stop offset="0.55" stop-color="#F85D6A"/>
<stop offset="0.81" stop-color="#FD5B8C"/>
<stop offset="0.96" stop-color="#FF5A99"/>
</linearGradient>
<linearGradient id="paint15_linear_911_51721" x1="171.556" y1="33.6448" x2="173.38" y2="29.3276" gradientUnits="userSpaceOnUse">
<stop offset="0.15" stop-color="#EF6129"/>
<stop offset="0.2" stop-color="#F06032"/>
<stop offset="0.55" stop-color="#F85D6A"/>
<stop offset="0.81" stop-color="#FD5B8C"/>
<stop offset="0.96" stop-color="#FF5A99"/>
</linearGradient>
<linearGradient id="paint16_linear_911_51721" x1="225.641" y1="58.8499" x2="226.571" y2="53.938" gradientUnits="userSpaceOnUse">
<stop offset="0.15" stop-color="#EF6129"/>
<stop offset="0.2" stop-color="#F06032"/>
<stop offset="0.55" stop-color="#F85D6A"/>
<stop offset="0.81" stop-color="#FD5B8C"/>
<stop offset="0.96" stop-color="#FF5A99"/>
</linearGradient>
<linearGradient id="paint17_linear_911_51721" x1="206.223" y1="58.7798" x2="207.38" y2="53.9696" gradientUnits="userSpaceOnUse">
<stop offset="0.15" stop-color="#EF6129"/>
<stop offset="0.2" stop-color="#F06032"/>
<stop offset="0.55" stop-color="#F85D6A"/>
<stop offset="0.81" stop-color="#FD5B8C"/>
<stop offset="0.96" stop-color="#FF5A99"/>
</linearGradient>
<linearGradient id="paint18_linear_911_51721" x1="232.443" y1="54.219" x2="233.676" y2="49.4494" gradientUnits="userSpaceOnUse">
<stop offset="0.15" stop-color="#EF6129"/>
<stop offset="0.2" stop-color="#F06032"/>
<stop offset="0.55" stop-color="#F85D6A"/>
<stop offset="0.81" stop-color="#FD5B8C"/>
<stop offset="0.96" stop-color="#FF5A99"/>
</linearGradient>
<linearGradient id="paint19_linear_911_51721" x1="204.067" y1="75.1413" x2="221.358" y2="51.1372" gradientUnits="userSpaceOnUse">
<stop offset="0.15" stop-color="#EF6129"/>
<stop offset="0.2" stop-color="#F06032"/>
<stop offset="0.55" stop-color="#F85D6A"/>
<stop offset="0.81" stop-color="#FD5B8C"/>
<stop offset="0.96" stop-color="#FF5A99"/>
</linearGradient>
<linearGradient id="paint20_linear_911_51721" x1="168.891" y1="74.8237" x2="187.116" y2="56.2145" gradientUnits="userSpaceOnUse">
<stop offset="0.15" stop-color="#EF6129"/>
<stop offset="0.2" stop-color="#F06032"/>
<stop offset="0.55" stop-color="#F85D6A"/>
<stop offset="0.81" stop-color="#FD5B8C"/>
<stop offset="0.96" stop-color="#FF5A99"/>
</linearGradient>
<linearGradient id="paint21_linear_911_51721" x1="194.163" y1="41.7181" x2="222.246" y2="11.5495" gradientUnits="userSpaceOnUse">
<stop offset="0.15" stop-color="#EF6129"/>
<stop offset="0.2" stop-color="#F06032"/>
<stop offset="0.55" stop-color="#F85D6A"/>
<stop offset="0.81" stop-color="#FD5B8C"/>
<stop offset="0.96" stop-color="#FF5A99"/>
</linearGradient>
<linearGradient id="paint22_linear_911_51721" x1="160.06" y1="67.7868" x2="230.086" y2="20.3764" gradientUnits="userSpaceOnUse">
<stop offset="0.15" stop-color="#EF6129"/>
<stop offset="0.2" stop-color="#F06032"/>
<stop offset="0.55" stop-color="#F85D6A"/>
<stop offset="0.81" stop-color="#FD5B8C"/>
<stop offset="0.96" stop-color="#FF5A99"/>
</linearGradient>
<linearGradient id="paint23_linear_911_51721" x1="94.5791" y1="131.216" x2="167.569" y2="100.711" gradientUnits="userSpaceOnUse">
<stop offset="0.15" stop-color="#EF6129"/>
<stop offset="0.2" stop-color="#F06032"/>
<stop offset="0.55" stop-color="#F85D6A"/>
<stop offset="0.81" stop-color="#FD5B8C"/>
<stop offset="0.96" stop-color="#FF5A99"/>
</linearGradient>
<linearGradient id="paint24_linear_911_51721" x1="-5.91417" y1="228.165" x2="64.1989" y2="207.891" gradientUnits="userSpaceOnUse">
<stop offset="0.15" stop-color="#EF6129"/>
<stop offset="0.2" stop-color="#F06032"/>
<stop offset="0.55" stop-color="#F85D6A"/>
<stop offset="0.81" stop-color="#FD5B8C"/>
<stop offset="0.96" stop-color="#FF5A99"/>
</linearGradient>
<linearGradient id="paint25_linear_911_51721" x1="7.20959" y1="165.899" x2="12.3092" y2="165.351" gradientUnits="userSpaceOnUse">
<stop offset="0.15" stop-color="#EF6129"/>
<stop offset="0.2" stop-color="#F06032"/>
<stop offset="0.55" stop-color="#F85D6A"/>
<stop offset="0.81" stop-color="#FD5B8C"/>
<stop offset="0.96" stop-color="#FF5A99"/>
</linearGradient>
<linearGradient id="paint26_linear_911_51721" x1="84.8417" y1="237.884" x2="93.7723" y2="234.983" gradientUnits="userSpaceOnUse">
<stop offset="0.15" stop-color="#EF6129"/>
<stop offset="0.2" stop-color="#F06032"/>
<stop offset="0.55" stop-color="#F85D6A"/>
<stop offset="0.81" stop-color="#FD5B8C"/>
<stop offset="0.96" stop-color="#FF5A99"/>
</linearGradient>
<linearGradient id="paint27_linear_911_51721" x1="54.6921" y1="237.226" x2="65.5689" y2="232.204" gradientUnits="userSpaceOnUse">
<stop offset="0.15" stop-color="#EF6129"/>
<stop offset="0.2" stop-color="#F06032"/>
<stop offset="0.55" stop-color="#F85D6A"/>
<stop offset="0.81" stop-color="#FD5B8C"/>
<stop offset="0.96" stop-color="#FF5A99"/>
</linearGradient>
<linearGradient id="paint28_linear_911_51721" x1="52.4125" y1="203.135" x2="76.2851" y2="194.234" gradientUnits="userSpaceOnUse">
<stop offset="0.15" stop-color="#EF6129"/>
<stop offset="0.2" stop-color="#F06032"/>
<stop offset="0.55" stop-color="#F85D6A"/>
<stop offset="0.81" stop-color="#FD5B8C"/>
<stop offset="0.96" stop-color="#FF5A99"/>
</linearGradient>
<linearGradient id="paint29_linear_911_51721" x1="47.8723" y1="167.181" x2="55.6648" y2="166.62" gradientUnits="userSpaceOnUse">
<stop offset="0.15" stop-color="#EF6129"/>
<stop offset="0.2" stop-color="#F06032"/>
<stop offset="0.55" stop-color="#F85D6A"/>
<stop offset="0.81" stop-color="#FD5B8C"/>
<stop offset="0.96" stop-color="#FF5A99"/>
</linearGradient>
<linearGradient id="paint30_linear_911_51721" x1="16.6477" y1="185.741" x2="46.737" y2="180.079" gradientUnits="userSpaceOnUse">
<stop offset="0.15" stop-color="#EF6129"/>
<stop offset="0.2" stop-color="#F06032"/>
<stop offset="0.55" stop-color="#F85D6A"/>
<stop offset="0.81" stop-color="#FD5B8C"/>
<stop offset="0.96" stop-color="#FF5A99"/>
</linearGradient>
<linearGradient id="paint31_linear_911_51721" x1="28.5555" y1="173.787" x2="47.4977" y2="157.31" gradientUnits="userSpaceOnUse">
<stop offset="0.15" stop-color="#EF6129"/>
<stop offset="0.2" stop-color="#F06032"/>
<stop offset="0.55" stop-color="#F85D6A"/>
<stop offset="0.81" stop-color="#FD5B8C"/>
<stop offset="0.96" stop-color="#FF5A99"/>
</linearGradient>
<linearGradient id="paint32_linear_911_51721" x1="51.9591" y1="163.827" x2="71.0161" y2="156.19" gradientUnits="userSpaceOnUse">
<stop offset="0.15" stop-color="#EF6129"/>
<stop offset="0.2" stop-color="#F06032"/>
<stop offset="0.55" stop-color="#F85D6A"/>
<stop offset="0.81" stop-color="#FD5B8C"/>
<stop offset="0.96" stop-color="#FF5A99"/>
</linearGradient>
<linearGradient id="paint33_linear_911_51721" x1="23.1969" y1="181.762" x2="30.2278" y2="174.102" gradientUnits="userSpaceOnUse">
<stop offset="0.15" stop-color="#EF6129"/>
<stop offset="0.2" stop-color="#F06032"/>
<stop offset="0.55" stop-color="#F85D6A"/>
<stop offset="0.81" stop-color="#FD5B8C"/>
<stop offset="0.96" stop-color="#FF5A99"/>
</linearGradient>
<linearGradient id="paint34_linear_911_51721" x1="53.923" y1="158.772" x2="55.471" y2="158.687" gradientUnits="userSpaceOnUse">
<stop offset="0.15" stop-color="#EF6129"/>
<stop offset="0.2" stop-color="#F06032"/>
<stop offset="0.55" stop-color="#F85D6A"/>
<stop offset="0.81" stop-color="#FD5B8C"/>
<stop offset="0.96" stop-color="#FF5A99"/>
</linearGradient>
<linearGradient id="paint35_linear_911_51721" x1="26.1457" y1="174.704" x2="42.903" y2="157.807" gradientUnits="userSpaceOnUse">
<stop offset="0.15" stop-color="#EF6129"/>
<stop offset="0.2" stop-color="#F06032"/>
<stop offset="0.55" stop-color="#F85D6A"/>
<stop offset="0.81" stop-color="#FD5B8C"/>
<stop offset="0.96" stop-color="#FF5A99"/>
</linearGradient>
<linearGradient id="paint36_linear_911_51721" x1="37.6582" y1="167.504" x2="45.5872" y2="164.672" gradientUnits="userSpaceOnUse">
<stop offset="0.15" stop-color="#EF6129"/>
<stop offset="0.2" stop-color="#F06032"/>
<stop offset="0.55" stop-color="#F85D6A"/>
<stop offset="0.81" stop-color="#FD5B8C"/>
<stop offset="0.96" stop-color="#FF5A99"/>
</linearGradient>
<linearGradient id="paint37_linear_911_51721" x1="91.4548" y1="163.395" x2="95.1577" y2="161.73" gradientUnits="userSpaceOnUse">
<stop offset="0.15" stop-color="#EF6129"/>
<stop offset="0.2" stop-color="#F06032"/>
<stop offset="0.55" stop-color="#F85D6A"/>
<stop offset="0.81" stop-color="#FD5B8C"/>
<stop offset="0.96" stop-color="#FF5A99"/>
</linearGradient>
<linearGradient id="paint38_linear_911_51721" x1="21.8852" y1="238.556" x2="106.977" y2="173.575" gradientUnits="userSpaceOnUse">
<stop offset="0.15" stop-color="#EF6129"/>
<stop offset="0.2" stop-color="#F06032"/>
<stop offset="0.55" stop-color="#F85D6A"/>
<stop offset="0.81" stop-color="#FD5B8C"/>
<stop offset="0.96" stop-color="#FF5A99"/>
</linearGradient>
</defs>
</svg>
