<svg width="17" height="18" viewBox="0 0 16 17" fill="none" xmlns="http://www.w3.org/2000/svg">
  <path d="M15.9735 5.49784C15.7399 2.92723 13.9204 1.0622 11.6434 1.0622C10.1264 1.0622 8.73735 1.87855 7.95577 3.18694C7.18126 1.86163 5.84919 1.06189 4.35649 1.06189C2.07974 1.06189 0.259942 2.92692 0.0266979 5.49753C0.00823534 5.61107 -0.0674614 6.20865 0.162706 7.18317C0.494417 8.58878 1.26062 9.86732 2.37791 10.8797L7.95208 15.9381L13.6219 10.88C14.7392 9.86732 15.5054 8.58909 15.8371 7.18317C16.0673 6.20896 15.9916 5.61138 15.9735 5.49784Z" fill="url(#paint0_linear_225_12272)"/>
  <defs>
    <linearGradient id="paint0_linear_225_12272" x1="-1.44554" y1="12.7551" x2="12.8757" y2="4.95456" gradientUnits="userSpaceOnUse">
      <stop offset="0.15" stop-color="#EF6129"/>
      <stop offset="0.2" stop-color="#F06032"/>
      <stop offset="0.55" stop-color="#F85D6A"/>
      <stop offset="0.81" stop-color="#FD5B8C"/>
      <stop offset="0.96" stop-color="#FF5A99"/>
    </linearGradient>
  </defs>
</svg>
