<svg width="16" height="17" viewBox="0 0 16 17" fill="none" xmlns="http://www.w3.org/2000/svg">
  <path d="M15.9735 5.49784C15.7399 2.92723 13.9204 1.0622 11.6434 1.0622C10.1264 1.0622 8.73735 1.87855 7.95577 3.18694C7.18126 1.86163 5.84919 1.06189 4.35649 1.06189C2.07974 1.06189 0.259942 2.92692 0.0266979 5.49753C0.00823534 5.61107 -0.0674613 6.20865 0.162706 7.18317C0.494417 8.58879 1.26062 9.86732 2.37791 10.8797L7.95208 15.9381L13.6219 10.88C14.7392 9.86732 15.5054 8.58909 15.8371 7.18317C16.0673 6.20896 15.9916 5.61138 15.9735 5.49784ZM15.238 7.04223C14.9353 8.326 14.2334 9.49561 13.2102 10.4224L7.95577 15.1104L2.79147 10.4237C1.76649 9.49499 1.06491 8.32569 0.761817 7.04193C0.543959 6.11972 0.633502 5.59877 0.63381 5.59538L0.638426 5.5643C0.838437 3.31217 2.40191 1.67731 4.35649 1.67731C5.79872 1.67731 7.06834 2.56351 7.67083 3.98975L7.95423 4.66148L8.23763 3.98975C8.83059 2.58536 10.1673 1.67762 11.6437 1.67762C13.5979 1.67762 15.1617 3.31248 15.3657 5.59384C15.3664 5.59877 15.4559 6.12003 15.238 7.04223Z" fill="white"/>
</svg>
