<svg width="141" height="42" viewBox="0 0 141 42" fill="none" xmlns="http://www.w3.org/2000/svg">
<mask id="mask0_1457_41764" style="mask-type:alpha" maskUnits="userSpaceOnUse" x="26" y="0" width="115" height="42">
<rect x="26" width="115" height="42" fill="#C4C4C4"/>
</mask>
<g mask="url(#mask0_1457_41764)">
<path fill-rule="evenodd" clip-rule="evenodd" d="M51 12V30H54.1514V19.0534H54.2137L57.3038 26.7895H58.8805L62.0055 19.0534H62.0678V30H65.2154V12H62.1565L58.1384 21.531H58.077L54.0287 12H51ZM68.496 12V30H78.3375V27.4213H71.7982V22.138H77.4958V19.7106H71.7982V14.4266H78.3375V12H68.496ZM81.6182 30V12H90.3661V14.4266H84.5526V19.7106H89.618V22.138H84.5526V27.4213H90.3661V30H81.6182ZM97.083 14.4266V30H100.052V14.4266H103.488V12H93.6465V14.4266H97.083ZM116.609 12V25.8384C116.618 26.3831 116.496 26.9236 116.25 27.4276C116.004 27.9315 115.64 28.3884 115.179 28.7708C114.726 29.1538 114.19 29.4603 113.599 29.6737C112.996 29.8923 112.345 30.0033 111.688 29.9999C111.037 30.0037 110.392 29.8926 109.795 29.6737C108.617 29.2354 107.676 28.4436 107.155 27.4528C106.893 26.9427 106.761 26.3919 106.768 25.8361V12H109.815V25.5872C109.815 26.2229 109.994 26.6908 110.352 26.991C110.714 27.2806 111.194 27.4422 111.693 27.4422C112.193 27.4422 112.673 27.2806 113.034 26.991C113.392 26.6898 113.57 26.2218 113.57 25.5872V12H116.609ZM119.891 12.0009L119.973 30H123.074L122.992 22.848H124.569C125.722 22.848 126.653 22.6856 127.362 22.3609C128.066 22.0396 128.653 21.569 129.062 20.998C129.422 20.5254 129.665 19.9989 129.777 19.4489C129.898 18.7787 129.953 18.1016 129.943 17.4241C129.943 16.3577 129.841 15.5122 129.639 14.8877C129.445 14.276 129.07 13.7135 128.546 13.2507C128.067 12.8101 127.461 12.4749 126.784 12.2757C126.059 12.0827 125.299 11.9898 124.537 12.0009H119.891ZM122.988 20.4483V14.3998L124.594 14.3991C125.201 14.4021 125.667 14.4785 125.991 14.6281C126.312 14.7753 126.567 15.0029 126.72 15.2778C126.889 15.5889 126.982 15.9244 126.993 16.2651C127.013 16.6402 127.023 17.0359 127.023 17.4523C127.023 17.9002 127.008 18.3074 126.978 18.6739C126.962 18.9954 126.863 19.3104 126.689 19.5985C126.524 19.8682 126.258 20.0874 125.931 20.2238C125.585 20.3735 125.099 20.4483 124.472 20.4483H122.988Z" fill="url(#paint0_linear_1457_41764)"/>
<path d="M25.5 0.5H120C131.322 0.5 140.5 9.67816 140.5 21C140.5 32.3218 131.322 41.5 120 41.5H25.5V0.5Z" stroke="url(#paint1_linear_1457_41764)"/>
</g>
<g>
<circle cx="25" cy="21" r="20.5" stroke="url(#paint2_linear_1457_41764)"/>
</g>
<path fill-rule="evenodd" clip-rule="evenodd" d="M27.0929 17.5653C26.9753 18.263 26.9165 19.6431 26.9165 21.7057C26.9165 23.7315 26.9767 25.1023 27.0971 25.8181C27.1449 26.141 27.2239 26.4585 27.3329 26.7662C27.4335 27.0071 27.5466 27.2615 27.6721 27.5295C28.0877 28.3499 28.7543 29.071 29.6719 29.693C30.5737 30.3392 31.6994 30.6785 33.049 30.7107C34.4139 30.6802 35.5515 30.3409 36.4617 29.693C37.3618 29.0688 38.012 28.3476 38.4123 27.5295C38.708 27.097 38.9071 26.5242 39.0094 25.8113C39.1117 25.0983 39.1629 23.7289 39.1629 21.7031C39.1702 19.6457 39.1191 18.2684 39.0094 17.5712C38.8997 16.8741 38.6998 16.311 38.4098 15.8818C38.0191 15.0711 37.3689 14.3417 36.4592 13.6938C35.5495 13.0458 34.4119 12.7137 33.0465 12.6973C31.6997 12.7131 30.574 13.0441 29.6694 13.6904C28.7518 14.3281 28.0852 15.0544 27.6696 15.8691C27.4027 16.3022 27.2105 16.8676 27.0929 17.5653ZM29.7033 25.2498C29.5778 24.633 29.515 23.4516 29.515 21.7057C29.515 19.9603 29.5775 18.7707 29.7025 18.1369C29.8116 17.5365 30.0358 17.0454 30.375 16.6638C30.6663 16.2845 31.0364 15.9729 31.4597 15.7504C31.9001 15.5152 32.4268 15.3891 33.0397 15.3721C33.5999 15.3743 34.1523 15.5037 34.6553 15.7504C35.0651 15.9737 35.4198 16.2857 35.6934 16.6638C36.0315 17.0454 36.2633 17.5367 36.3888 18.1378C36.507 18.771 36.5661 19.9603 36.5661 21.7057C36.5723 23.451 36.5132 24.6324 36.3888 25.2498C36.2644 25.8672 36.0326 26.3668 35.6934 26.7484C35.4231 27.1231 35.0672 27.4278 34.6553 27.6372C34.1629 27.9145 33.6046 28.0534 33.0397 28.0392C32.4268 28.0392 31.9001 27.9052 31.4597 27.6372C31.0343 27.4287 30.663 27.1245 30.375 26.7484C30.0358 26.3645 29.8119 25.865 29.7033 25.2498ZM23.0572 20.8247H16.6354L20.4442 24.6369C20.4289 25.7479 20.1092 26.2771 19.4502 26.9555C18.791 27.6691 17.9559 28.0258 16.945 28.0258C16.3327 28.0258 15.8071 27.8921 15.3684 27.6247C14.9435 27.4169 14.5728 27.1132 14.2854 26.7376C13.9484 26.3571 13.7251 25.859 13.6154 25.2433C13.4899 24.6287 13.4271 23.4498 13.4271 21.7067C13.4271 19.9636 13.4899 18.7763 13.6154 18.1447C13.7228 17.5454 13.9461 17.0552 14.2854 16.6742C14.5751 16.298 14.9428 15.989 15.3633 15.7684C15.8026 15.5332 16.3276 15.4077 16.9382 15.3919C17.7716 15.4077 18.4783 15.6553 19.0584 16.1348C19.6056 16.6244 20.0046 17.2575 20.2101 17.9624H22.9647C22.6911 16.4833 22.0335 15.2426 20.9921 14.2401C19.9517 13.2467 18.6055 12.7416 16.9535 12.7246C15.6078 12.7404 14.485 13.072 13.5848 13.7194C12.6683 14.3583 12.0029 15.0857 11.5884 15.9016C11.3221 16.3307 11.1305 16.8927 11.0134 17.5876C10.8964 18.2824 10.8379 19.6566 10.8379 21.7101C10.8379 23.7314 10.8964 25.0977 11.0134 25.8089C11.0614 26.1309 11.14 26.4476 11.2484 26.7545C11.3501 26.996 11.4632 27.2504 11.5876 27.5178C12.0026 28.3348 12.6681 29.0543 13.584 29.6762C14.4835 30.3225 15.6064 30.6617 16.9526 30.6939C18.6985 30.6623 20.1465 30.0528 21.2965 28.8654C22.4386 27.6702 23.0255 26.1889 23.0572 24.4215V20.8247Z" fill="url(#paint3_linear_1457_41764)"/>
<defs>
<linearGradient id="paint0_linear_1457_41764" x1="43.8677" y1="26.1486" x2="59.3105" y2="-8.15115" gradientUnits="userSpaceOnUse">
<stop offset="0.15" stop-color="#EF6129"/>
<stop offset="0.2" stop-color="#F06032"/>
<stop offset="0.55" stop-color="#F85D6A"/>
<stop offset="0.81" stop-color="#FD5B8C"/>
<stop offset="0.96" stop-color="#FF5A99"/>
</linearGradient>
<linearGradient id="paint1_linear_1457_41764" x1="14.5197" y1="33.0133" x2="60.0599" y2="-30.6839" gradientUnits="userSpaceOnUse">
<stop offset="0.15" stop-color="#EF6129"/>
<stop offset="0.2" stop-color="#F06032"/>
<stop offset="0.55" stop-color="#F85D6A"/>
<stop offset="0.81" stop-color="#FD5B8C"/>
<stop offset="0.96" stop-color="#FF5A99"/>
</linearGradient>
<linearGradient id="paint2_linear_1457_41764" x1="0.205426" y1="33.0133" x2="39.002" y2="13.3656" gradientUnits="userSpaceOnUse">
<stop offset="0.15" stop-color="#EF6129"/>
<stop offset="0.2" stop-color="#F06032"/>
<stop offset="0.55" stop-color="#F85D6A"/>
<stop offset="0.81" stop-color="#FD5B8C"/>
<stop offset="0.96" stop-color="#FF5A99"/>
</linearGradient>
<linearGradient id="paint3_linear_1457_41764" x1="8.27875" y1="26.8564" x2="28.3965" y2="10.8357" gradientUnits="userSpaceOnUse">
<stop offset="0.15" stop-color="#EF6129"/>
<stop offset="0.2" stop-color="#F06032"/>
<stop offset="0.55" stop-color="#F85D6A"/>
<stop offset="0.81" stop-color="#FD5B8C"/>
<stop offset="0.96" stop-color="#FF5A99"/>
</linearGradient>
</defs>
</svg>
