<svg xmlns="http://www.w3.org/2000/svg" width="216" height="42" viewBox="0 0 216 42" fill="none">
<path d="M94.1063 31.6496V19.2165L89.6102 27.4646H86.5079L82.0118 19.2165V31.6496H76.4291V9.94488H82.1339L88.1496 20.9528L94.1024 9.94488H99.6851V31.6496H94.1024H94.1063ZM122.508 14.2244V9.94488H106.693V31.6496H122.508V27.3701H112.276V22.5H121.579V18.4685H112.276V14.2205H122.508V14.2244ZM172.984 9.94488V22.9685C172.984 24.4764 173.205 25.7992 173.65 26.937C174.094 28.0748 174.724 29.0197 175.539 29.7756C176.354 30.5315 177.346 31.0984 178.516 31.4803C179.685 31.8622 180.992 32.0551 182.437 32.0551C183.882 32.0551 185.22 31.8622 186.39 31.4803C187.559 31.0984 188.551 30.5315 189.366 29.7756C190.181 29.0197 190.807 28.0748 191.244 26.937C191.677 25.7992 191.894 24.4764 191.894 22.9685V9.94488H186.311V22.3465C186.311 23.1732 186.248 23.9016 186.126 24.5315C186 25.1614 185.791 25.689 185.492 26.1142C185.193 26.5394 184.795 26.8583 184.299 27.0748C183.803 27.2913 183.181 27.4016 182.437 27.4016C181.732 27.4016 181.134 27.2913 180.638 27.0748C180.142 26.8583 179.74 26.5354 179.429 26.1142C179.118 25.689 178.898 25.1575 178.764 24.5157C178.63 23.874 178.563 23.1417 178.563 22.315V9.94094H172.98L172.984 9.94488ZM144.917 14.2244V9.94488H129.102V31.6496H144.917V27.3701H134.685V22.5H143.988V18.4685H134.685V14.2205H144.917V14.2244ZM203.264 31.6496H197.681V9.94488H206.52C208.028 9.94488 209.335 10.1142 210.441 10.4567C211.547 10.7992 212.465 11.2835 213.201 11.9134C213.933 12.5433 214.476 13.3189 214.831 14.2402C215.181 15.1614 215.358 16.2008 215.358 17.3583C215.358 18.5157 215.181 19.5551 214.831 20.4764C214.48 21.3976 213.937 22.1732 213.201 22.8031C212.469 23.4331 211.547 23.9213 210.441 24.2598C209.335 24.6024 208.028 24.7717 206.52 24.7717H203.264V31.6575V31.6496ZM203.264 20.1772H205.898C207.323 20.1772 208.327 19.9409 208.906 19.4646C209.484 18.9882 209.776 18.2874 209.776 17.3543C209.776 16.4213 209.484 15.7205 208.906 15.2441C208.327 14.7677 207.323 14.5315 205.898 14.5315H203.264V20.1732V20.1772ZM161.736 31.6496V14.5315H168.402V9.94094H149.488V14.5315H156.154V31.6496H161.736ZM65.7638 6.17717C69.6024 10.1417 71.7165 15.4055 71.7165 21C71.7165 26.5945 69.6024 31.8583 65.7638 35.8228C61.9055 39.8071 56.7717 42 51.3032 42H20.4134C14.9488 42 9.81103 39.8071 5.95276 35.8228C2.11417 31.8583 0 26.5945 0 21C0 15.4055 2.11417 10.1417 5.95276 6.17717C9.81103 2.19291 14.9449 0 20.4134 0H51.3032C56.7717 0 61.9055 2.19291 65.7638 6.17717ZM67.0709 21C67.0709 11.9843 60 4.64567 51.3032 4.64567H20.4134C11.7205 4.64567 4.64567 11.9803 4.64567 21C4.64567 30.0197 11.7165 37.3543 20.4134 37.3543H51.3032C59.9961 37.3543 67.0709 30.0197 67.0709 21ZM62.3307 21C62.3307 27.626 56.937 33.0197 50.311 33.0197C43.685 33.0197 38.2913 27.626 38.2913 21C38.2913 14.374 43.685 8.98031 50.311 8.98031C56.937 8.98031 62.3307 14.374 62.3307 21ZM57.685 21C57.685 16.9331 54.378 13.626 50.311 13.626C46.2441 13.626 42.937 16.9331 42.937 21C42.937 25.0669 46.2441 28.374 50.311 28.374C54.378 28.374 57.685 25.0669 57.685 21ZM22.0866 25.2205H27.3543C26.0276 27.0984 23.8386 28.3307 21.3661 28.3307C17.3228 28.3307 14.0354 25.0433 14.0354 21C14.0354 16.9567 17.3228 13.6693 21.3661 13.6693C23.7756 13.6693 26.0354 14.8543 27.4055 16.8425L31.2284 14.2047C28.9882 10.9606 25.3032 9.02362 21.3661 9.02362C14.7598 9.02362 9.38977 14.3976 9.38977 21C9.38977 27.6024 14.7638 32.9764 21.3661 32.9764C24.8465 32.9764 27.9843 31.4843 30.1732 29.1063V33.3071H34.8189V20.5748H22.0866V25.2205Z" fill="url(#paint0_linear_2915_7338)"/>
<defs>
<linearGradient id="paint0_linear_2915_7338" x1="2.5" y1="35.1417" x2="212.354" y2="-2.23623" gradientUnits="userSpaceOnUse">
<stop stop-color="#EF6129"/>
<stop offset="0.34" stop-color="#FF5A99"/>
</linearGradient>
</defs>
</svg>
