<svg xmlns="http://www.w3.org/2000/svg" width="72" height="42" viewBox="0 0 72 42" fill="none">
<path d="M65.765 6.17747C69.6034 10.1414 71.7178 15.405 71.7178 21C71.7178 26.595 69.6034 31.8601 65.765 35.8225C61.9064 39.8066 56.7714 42 51.3049 42H20.4129C14.9464 42 9.81146 39.8066 5.95287 35.8225C2.11441 31.8586 0 26.595 0 21C0 15.405 2.11441 10.1399 5.95287 6.17747C9.80991 2.19341 14.9449 0 20.4129 0H51.3049C56.7714 0 61.9064 2.19341 65.765 6.17747ZM67.0708 21C67.0708 11.9832 59.998 4.6455 51.3034 4.6455H20.4114C11.7183 4.6455 4.64395 11.9816 4.64395 21C4.64395 30.0184 11.7168 37.3545 20.4114 37.3545H51.3034C59.998 37.3545 67.0708 30.0184 67.0708 21ZM62.3293 21C62.3293 27.6282 56.9371 33.0204 50.3089 33.0204C43.6807 33.0204 38.2886 27.6282 38.2886 21C38.2886 14.3718 43.6807 8.97964 50.3089 8.97964C56.9371 8.97964 62.3293 14.3718 62.3293 21ZM57.6822 21C57.6822 16.9338 54.3751 13.6267 50.3089 13.6267C46.2427 13.6267 42.9356 16.9338 42.9356 21C42.9356 25.0662 46.2427 28.3733 50.3089 28.3733C54.3751 28.3733 57.6822 25.0662 57.6822 21ZM22.0843 25.2211H27.351C26.0219 27.1 23.8347 28.3299 21.3625 28.3299C17.3195 28.3299 14.031 25.0414 14.031 20.9984C14.031 16.9555 17.3195 13.667 21.3625 13.667C23.7727 13.667 26.0312 14.8535 27.4021 16.8409L31.2266 14.2014C28.9883 10.9562 25.3001 9.01992 21.3625 9.01992C14.7575 9.01992 9.38548 14.3934 9.38548 20.9969C9.38548 27.6004 14.759 32.9739 21.3625 32.9739C24.8431 32.9739 27.9814 31.4806 30.1717 29.1029V33.3054H34.8188V20.5709H22.0843V25.218V25.2211Z" fill="url(#paint0_linear_3165_35358)"/>
<defs>
<linearGradient id="paint0_linear_3165_35358" x1="0.872096" y1="27.2317" x2="71.0564" y2="14.7311" gradientUnits="userSpaceOnUse">
<stop stop-color="#EC622A"/>
<stop offset="0.49" stop-color="#EB5D98"/>
</linearGradient>
</defs>
</svg>
