<svg width="12" height="9" viewBox="0 0 12 9" fill="none" xmlns="http://www.w3.org/2000/svg">
  <path d="M11.7551 0.581635H0.244898C0.109665 0.581635 0 0.6913 0 0.826532V8.17347C0 8.3087 0.109665 8.41837 0.244898 8.41837H11.7551C11.8903 8.41837 12 8.3087 12 8.17347V0.826532C12 0.6913 11.8903 0.581635 11.7551 0.581635ZM10.8655 1.07143L6 3.97004L1.13447 1.07143H10.8655ZM11.5102 7.92857H0.489796V1.25748L4.18303 3.45769L1.56228 5.53247L1.86629 5.91652L4.6333 3.72598L5.87464 4.4655C5.91328 4.48849 5.95663 4.5 6 4.5C6.04337 4.5 6.08672 4.48849 6.12534 4.4655L7.36668 3.72598L10.1337 5.91652L10.4377 5.53247L7.81697 3.45772L11.5102 1.25748V7.92857Z" fill="black"/>
</svg>
