<svg width="289" height="231" viewBox="0 0 289 231" fill="none" xmlns="http://www.w3.org/2000/svg">
  <path d="M120.388 46.0821L0 77.8623L54.2524 0.000268244L120.388 46.0821Z" fill="url(#paint0_linear_225_6276)" fill-opacity="0.3"/>
  <path d="M154.063 123.643L114.343 79.4639L159.215 85.5292L154.063 123.643Z" fill="url(#paint1_linear_225_6276)" fill-opacity="0.3"/>
  <path d="M258.051 83.2155L198.141 16.5786L265.822 25.7271L258.051 83.2155Z" fill="url(#paint2_linear_225_6276)" fill-opacity="0.5"/>
  <path fill-rule="evenodd" clip-rule="evenodd" d="M158.278 155.228C157.014 162.733 156.382 177.571 156.382 199.741C156.382 221.515 157.017 236.229 158.287 243.88C158.805 247.35 159.654 250.763 160.821 254.071C161.903 256.666 163.118 259.401 164.468 262.276C168.928 271.094 176.096 278.845 185.972 285.53C195.665 292.477 207.765 296.123 222.272 296.47C236.936 296.147 249.16 292.501 258.945 285.53C268.62 278.821 275.609 271.07 279.911 262.276C283.12 257.669 285.272 251.531 286.365 243.862C287.459 236.192 288.006 221.473 288.006 199.704C288.091 177.571 287.544 162.763 286.365 155.282C285.186 147.801 283.038 141.748 279.921 137.123C275.727 128.421 268.738 120.584 258.954 113.614C249.17 106.643 236.945 103.073 222.281 102.902C207.805 103.073 195.705 106.628 185.981 113.568C176.112 120.429 168.943 128.238 164.477 136.996C161.608 141.645 159.542 147.722 158.278 155.228ZM186.346 237.836C184.99 231.2 184.313 218.501 184.313 199.741C184.313 180.98 184.99 168.193 186.346 161.381C187.513 154.921 189.919 149.64 193.566 145.537C196.704 141.467 200.68 138.119 205.225 135.72C210.495 133.06 216.314 131.67 222.217 131.663C228.222 131.691 234.144 133.077 239.537 135.72C243.933 138.128 247.741 141.481 250.686 145.537C254.314 149.646 256.809 154.927 258.17 161.381C259.44 168.193 260.072 180.98 260.066 199.741C260.06 218.501 259.428 231.2 258.17 237.836C256.827 244.466 254.332 249.836 250.686 253.944C247.779 257.967 243.958 261.241 239.537 263.497C234.257 266.47 228.274 267.962 222.217 267.818C215.617 267.818 209.953 266.378 205.225 263.497C200.656 261.251 196.666 257.982 193.566 253.944C189.937 249.842 187.531 244.472 186.346 237.836ZM131.914 190.05H62.8881L103.782 231.036C103.618 242.977 100.181 248.657 93.0983 255.949C86.0122 263.619 77.036 267.454 66.1699 267.454C59.5821 267.46 53.9333 266.025 49.2234 263.151C44.6612 260.91 40.6775 257.647 37.5824 253.616C33.9603 249.52 31.5568 244.162 30.3717 237.544C29.0286 230.944 28.3571 218.276 28.3571 199.54C28.3571 180.804 29.0286 168.042 30.3717 161.253C31.5324 154.811 33.936 149.542 37.5824 145.446C40.7031 141.378 44.6683 138.035 49.2052 135.647C53.9272 133.125 59.57 131.775 66.1334 131.599C75.0913 131.769 82.6879 134.431 88.9232 139.585C94.8256 144.858 99.1277 151.684 101.339 159.284H130.92C127.967 143.301 120.899 129.964 109.717 119.274C98.5344 108.585 84.0644 103.155 66.3066 102.984C51.8427 103.161 39.7732 106.722 30.0982 113.668C20.247 120.529 13.094 128.351 8.63936 137.133C5.86813 141.739 3.80793 147.777 2.45878 155.246C1.20078 162.721 0.571777 177.495 0.571777 199.567C0.571777 221.294 1.20078 235.976 2.45878 243.615C2.97395 247.079 3.81952 250.486 4.9839 253.789C6.07173 256.396 7.28719 259.131 8.63027 261.993C13.091 270.775 20.2439 278.508 30.0891 285.193C39.758 292.139 51.8275 295.786 66.2975 296.132C85.1431 295.865 100.707 289.314 112.989 276.478C125.271 263.643 131.58 247.721 131.914 228.711V190.05Z" fill="url(#paint3_linear_225_6276)" fill-opacity="0.3"/>
  <defs>
    <linearGradient id="paint0_linear_225_6276" x1="33.0686" y1="100.904" x2="87.3238" y2="23.0376" gradientUnits="userSpaceOnUse">
      <stop offset="0.08" stop-color="#37F4D4"/>
      <stop offset="0.3" stop-color="#27ECA9"/>
      <stop offset="0.6" stop-color="#12E172"/>
      <stop offset="0.83" stop-color="#05DA4F"/>
      <stop offset="0.96" stop-color="#00D842"/>
    </linearGradient>
    <linearGradient id="paint1_linear_225_6276" x1="111.767" y1="98.5214" x2="156.641" y2="104.587" gradientUnits="userSpaceOnUse">
      <stop offset="0.08" stop-color="#37F4D4"/>
      <stop offset="0.3" stop-color="#27ECA9"/>
      <stop offset="0.6" stop-color="#12E172"/>
      <stop offset="0.83" stop-color="#05DA4F"/>
      <stop offset="0.96" stop-color="#00D842"/>
    </linearGradient>
    <linearGradient id="paint2_linear_225_6276" x1="194.255" y1="45.3234" x2="261.94" y2="54.4724" gradientUnits="userSpaceOnUse">
      <stop offset="0.08" stop-color="#37F4D4"/>
      <stop offset="0.3" stop-color="#27ECA9"/>
      <stop offset="0.6" stop-color="#12E172"/>
      <stop offset="0.83" stop-color="#05DA4F"/>
      <stop offset="0.96" stop-color="#00D842"/>
    </linearGradient>
    <linearGradient id="paint3_linear_225_6276" x1="-25.3979" y1="255.052" x2="187.7" y2="94.7951" gradientUnits="userSpaceOnUse">
      <stop offset="0.15" stop-color="#EF6129"/>
      <stop offset="0.2" stop-color="#F06032"/>
      <stop offset="0.55" stop-color="#F85D6A"/>
      <stop offset="0.81" stop-color="#FD5B8C"/>
      <stop offset="0.96" stop-color="#FF5A99"/>
    </linearGradient>
  </defs>
</svg>
