<svg xmlns="http://www.w3.org/2000/svg" width="24" height="24" viewBox="0 0 24 24" fill="none">
  <path fill-rule="evenodd" clip-rule="evenodd" d="M16.3638 9.72707C16.3638 12.137 14.4101 14.0907 12.0002 14.0907C9.59023 14.0907 7.63657 12.137 7.63657 9.72707C7.63657 7.3171 9.59023 5.36343 12.0002 5.36343C14.4101 5.36343 16.3638 7.3171 16.3638 9.72707ZM14.182 9.72707C14.182 10.9321 13.2052 11.9089 12.0002 11.9089C10.7952 11.9089 9.81839 10.9321 9.81839 9.72707C9.81839 8.52208 10.7952 7.54525 12.0002 7.54525C13.2052 7.54525 14.182 8.52208 14.182 9.72707Z" fill="url(#paint0_linear_3165_35193)"/>
  <path fill-rule="evenodd" clip-rule="evenodd" d="M12 0C5.37259 0 0 5.37259 0 12C0 18.6274 5.37259 24 12 24C18.6274 24 24 18.6274 24 12C24 5.37259 18.6274 0 12 0ZM2.18182 12C2.18182 14.2802 2.95915 16.3789 4.26325 18.0455C6.05722 15.697 8.88684 14.1818 12.0704 14.1818C15.2125 14.1818 18.01 15.6579 19.8071 17.9545C21.0687 16.3029 21.8182 14.239 21.8182 12C21.8182 6.57757 17.4225 2.18182 12 2.18182C6.57757 2.18182 2.18182 6.57757 2.18182 12ZM12 21.8182C9.65429 21.8182 7.50071 20.9955 5.812 19.6231C7.19293 17.6522 9.48116 16.3636 12.0704 16.3636C14.6273 16.3636 16.8909 17.6205 18.2769 19.5501C16.5752 20.9663 14.387 21.8182 12 21.8182Z" fill="url(#paint1_linear_3165_35193)"/>
  <defs>
    <linearGradient id="paint0_linear_3165_35193" x1="-2.16833" y1="18.8647" x2="20.0011" y2="7.63751" gradientUnits="userSpaceOnUse">
      <stop offset="0.15" stop-color="#EF6129"/>
      <stop offset="0.2" stop-color="#F06032"/>
      <stop offset="0.55" stop-color="#F85D6A"/>
      <stop offset="0.81" stop-color="#FD5B8C"/>
      <stop offset="0.96" stop-color="#FF5A99"/>
    </linearGradient>
    <linearGradient id="paint1_linear_3165_35193" x1="-2.16833" y1="18.8647" x2="20.0011" y2="7.63751" gradientUnits="userSpaceOnUse">
      <stop offset="0.15" stop-color="#EF6129"/>
      <stop offset="0.2" stop-color="#F06032"/>
      <stop offset="0.55" stop-color="#F85D6A"/>
      <stop offset="0.81" stop-color="#FD5B8C"/>
      <stop offset="0.96" stop-color="#FF5A99"/>
    </linearGradient>
  </defs>
</svg>