<svg width="18" height="18" viewBox="0 0 18 18" fill="none" xmlns="http://www.w3.org/2000/svg">
<path d="M17.9016 17.4247L12.6573 12.1731C13.9949 10.8814 14.8236 9.10059 14.8236 7.13665C14.8236 3.2013 11.4989 0 7.41181 0C3.32473 0 0 3.2013 0 7.13665C0 11.072 3.32473 14.2733 7.41181 14.2733C9.20582 14.2733 10.8523 13.6558 12.1356 12.6312L17.3927 17.8957C17.4619 17.9653 17.5543 18 17.6472 18C17.7354 18 17.8233 17.9684 17.8918 17.9052C18.0322 17.775 18.0365 17.5599 17.9016 17.4247ZM7.41181 13.5936C3.71402 13.5936 0.705887 10.6972 0.705887 7.13665C0.705887 3.57614 3.71402 0.679681 7.41181 0.679681C11.1096 0.679681 14.1177 3.57614 14.1177 7.13665C14.1177 10.6972 11.1092 13.5936 7.41181 13.5936Z" fill="white"/>
</svg>
