<svg xmlns="http://www.w3.org/2000/svg" width="18" height="18" viewBox="0 0 18 18" fill="none">
<path d="M16.6464 17.3536C16.8417 17.5488 17.1583 17.5488 17.3536 17.3536C17.5488 17.1583 17.5488 16.8417 17.3536 16.6464L16.6464 17.3536ZM15.5 8.5C15.5 12.366 12.366 15.5 8.5 15.5V16.5C12.9183 16.5 16.5 12.9183 16.5 8.5H15.5ZM8.5 15.5C4.63401 15.5 1.5 12.366 1.5 8.5H0.5C0.5 12.9183 4.08172 16.5 8.5 16.5V15.5ZM1.5 8.5C1.5 4.63401 4.63401 1.5 8.5 1.5V0.5C4.08172 0.5 0.5 4.08172 0.5 8.5H1.5ZM8.5 1.5C12.366 1.5 15.5 4.63401 15.5 8.5H16.5C16.5 4.08172 12.9183 0.5 8.5 0.5V1.5ZM13.1464 13.8536L16.6464 17.3536L17.3536 16.6464L13.8536 13.1464L13.1464 13.8536Z" fill="white"/>
</svg>