<svg width="22" height="22" viewBox="0 0 22 22" fill="none" xmlns="http://www.w3.org/2000/svg">
<path d="M20.8907 20.3607L15.0636 14.5257C16.5499 13.0904 17.4707 11.1118 17.4707 8.92962C17.4707 4.557 13.7765 1 9.23534 1C4.69414 1 1 4.557 1 8.92962C1 13.3022 4.69414 16.8592 9.23534 16.8592C11.2287 16.8592 13.0581 16.1731 14.484 15.0347L20.3252 20.8841C20.4021 20.9615 20.5048 21 20.608 21C20.706 21 20.8036 20.9649 20.8797 20.8946C21.0358 20.75 21.0405 20.511 20.8907 20.3607ZM9.23534 16.104C5.12669 16.104 1.78432 12.8857 1.78432 8.92962C1.78432 4.97349 5.12669 1.7552 9.23534 1.7552C13.344 1.7552 16.6864 4.97349 16.6864 8.92962C16.6864 12.8857 13.3436 16.104 9.23534 16.104Z" fill="white" stroke="white" stroke-width="0.3"/>
</svg>
