<svg width="12" height="13" viewBox="0 0 12 13" fill="none" xmlns="http://www.w3.org/2000/svg">
  <g clip-path="url(#clip0_715_131)">
    <path d="M11.7669 2.54194L9.9592 0.729604C9.65303 0.423465 9.09212 0.423465 8.7884 0.729604L4.94286 4.58449C4.76406 4.73879 4.68812 4.94206 4.68812 5.17228C4.47258 5.17228 4.25458 5.2482 4.10272 5.40249L0.254736 9.25739C0.0759309 9.41168 0 9.61495 0 9.84517C0 10.0754 0.102874 10.2787 0.254736 10.433L2.06238 12.2453C2.21425 12.4241 2.41999 12.5 2.64779 12.5C2.87803 12.5 3.08133 12.3971 3.23319 12.2453L7.07873 8.3904C7.25018 8.24346 7.32856 8.04753 7.33346 7.82956C7.53676 7.82956 7.74006 7.72669 7.91886 7.57485L11.7644 3.71996C12.0632 3.43097 12.0926 2.89216 11.7669 2.54194ZM6.75051 8.03283L2.90252 11.8877C2.77515 12.0151 2.54491 12.0151 2.41754 11.8877L0.609897 10.0754C0.494776 9.96273 0.462934 9.7668 0.609897 9.61495L4.45543 5.78456C4.5975 5.64496 4.81794 5.63761 4.94041 5.76006L5.66298 6.485L4.3697 7.78302L4.72976 8.14304L6.02304 6.84502L6.74806 7.5724C6.90727 7.74139 6.87053 7.91528 6.75051 8.03283ZM11.4362 3.35994L7.59065 7.21483C7.46328 7.34219 7.23304 7.34219 7.10567 7.21483L6.38065 6.48745L7.64698 5.21636L7.28692 4.85634L6.02059 6.12743L5.29802 5.40249C5.18045 5.29718 5.1682 5.04982 5.29802 4.94206L9.14356 1.08717C9.27827 0.959819 9.48647 0.950023 9.62854 1.08717L11.4362 2.89951C11.5733 3.04891 11.5244 3.28157 11.4362 3.35994Z" fill="black"/>
  </g>
  <defs>
    <clipPath id="clip0_715_131">
      <rect width="12" height="12" fill="white" transform="translate(0 0.5)"/>
    </clipPath>
  </defs>
</svg>
