<svg width="453" height="246" viewBox="0 0 453 246" fill="none" xmlns="http://www.w3.org/2000/svg">
<mask id="mask0_286_6711" style="mask-type:alpha" maskUnits="userSpaceOnUse" x="0" y="0" width="53" height="43">
<rect width="53" height="43" rx="1" fill="#E38DDD"/>
</mask>
<g mask="url(#mask0_286_6711)">
<path d="M42.3489 4.71009C42.4853 4.70956 42.6178 4.75428 42.725 4.83697C42.8321 4.91965 42.9078 5.03545 42.9395 5.16561C42.9713 5.29577 42.9573 5.43265 42.8999 5.55403C42.8424 5.67542 42.7449 5.77421 42.6231 5.83436C24.1165 14.982 7.56923 27.5307 -6.12168 42.8001C-6.22861 42.9182 -6.37896 42.9897 -6.53963 42.999C-6.70031 43.0083 -6.85815 42.9545 -6.97845 42.8496C-7.09874 42.7446 -7.17167 42.5969 -7.18112 42.4392C-7.19057 42.2814 -7.13578 42.1265 -7.02884 42.0083C6.7571 26.6259 23.4208 13.9831 42.0587 4.76552C42.1496 4.7248 42.2491 4.7058 42.3489 4.71009Z" fill="url(#paint0_linear_286_6711)"/>
<path d="M27.5316 4.71009C27.6679 4.70956 27.8004 4.75428 27.9076 4.83697C28.0148 4.91965 28.0905 5.03545 28.1222 5.16561C28.1539 5.29577 28.14 5.43265 28.0825 5.55403C28.0251 5.67542 27.9275 5.77421 27.8057 5.83436C9.29918 14.982 -7.24811 27.5307 -20.939 42.8001C-21.046 42.9182 -21.1963 42.9897 -21.357 42.999C-21.5176 43.0083 -21.6755 42.9545 -21.7958 42.8496C-21.9161 42.7446 -21.989 42.5969 -21.9985 42.4392C-22.0079 42.2814 -21.9531 42.1265 -21.8462 42.0083C-8.06024 26.6259 8.60345 13.9831 27.2413 4.76552C27.3323 4.7248 27.4317 4.7058 27.5316 4.71009Z" fill="url(#paint1_linear_286_6711)"/>
<path d="M49.6114 -2C50.1828 -2.00084 50.7449 -1.85835 51.2444 -1.58608C51.744 -1.31382 52.1645 -0.920776 52.466 -0.444232C52.9475 0.303018 53.112 1.2056 52.9244 2.07043C52.7368 2.93527 52.2119 3.69367 51.4621 4.18341C51.0942 4.42045 50.6816 4.58252 50.2487 4.66005C49.8158 4.73757 49.3716 4.72894 48.9422 4.63468C48.5033 4.54054 48.0881 4.36103 47.7211 4.10675C47.3541 3.85246 47.0427 3.52856 46.8053 3.15415C46.3248 2.40662 46.1609 1.50436 46.3485 0.639825C46.536 -0.224711 47.0602 -0.983084 47.8092 -1.47349C48.3453 -1.81677 48.9714 -1.99969 49.6114 -2ZM49.6558 3.54209C50.0627 3.54162 50.4606 3.42469 50.8008 3.20562C51.2857 2.88681 51.6243 2.39434 51.7441 1.83355C51.8639 1.27277 51.7555 0.688216 51.4419 0.204965C51.2897 -0.0357217 51.09 -0.244106 50.8546 -0.407941C50.6191 -0.571776 50.3528 -0.687746 50.0711 -0.749055C49.7963 -0.80995 49.5119 -0.815745 49.2347 -0.766088C48.9576 -0.716432 48.6936 -0.612354 48.4584 -0.460082C47.9738 -0.142012 47.6352 0.34977 47.5154 0.909903C47.3956 1.47004 47.5039 2.05397 47.8173 2.53661C47.9688 2.77788 48.1682 2.98671 48.4038 3.15062C48.6393 3.31454 48.906 3.43019 49.1881 3.49065C49.342 3.52072 49.499 3.53267 49.6558 3.52626V3.54209Z" fill="url(#paint2_linear_286_6711)"/>
</g>
<path d="M300.406 239.255C300.23 239.254 300.062 239.184 299.937 239.06C299.875 238.999 299.826 238.926 299.793 238.845C299.759 238.765 299.742 238.679 299.742 238.591C299.742 238.504 299.759 238.418 299.793 238.338C299.826 238.257 299.875 238.184 299.937 238.123L301.863 236.196C301.987 236.071 302.156 236 302.332 236C302.508 236 302.677 236.069 302.802 236.193C302.927 236.318 302.997 236.486 302.997 236.663C302.998 236.839 302.928 237.008 302.804 237.133L300.874 239.06C300.813 239.123 300.74 239.172 300.66 239.206C300.579 239.239 300.493 239.256 300.406 239.255Z" fill="url(#paint3_linear_286_6711)"/>
<path d="M293.662 246C293.531 246 293.403 245.961 293.294 245.888C293.185 245.815 293.101 245.712 293.05 245.591C293 245.47 292.987 245.336 293.013 245.208C293.038 245.079 293.101 244.961 293.194 244.868L295.119 242.941C295.181 242.879 295.254 242.83 295.335 242.797C295.415 242.763 295.501 242.746 295.588 242.745C295.676 242.745 295.762 242.762 295.842 242.795C295.923 242.829 295.996 242.877 296.058 242.939C296.12 243 296.169 243.074 296.202 243.154C296.236 243.235 296.253 243.321 296.254 243.408C296.254 243.495 296.237 243.582 296.204 243.662C296.17 243.743 296.122 243.816 296.06 243.878L294.13 245.806C294.069 245.867 293.996 245.916 293.916 245.95C293.835 245.983 293.749 246 293.662 246Z" fill="url(#paint4_linear_286_6711)"/>
<path d="M302.324 246C302.149 245.998 301.981 245.929 301.856 245.805L299.93 243.878C299.865 243.818 299.813 243.744 299.777 243.663C299.741 243.582 299.721 243.494 299.72 243.405C299.718 243.316 299.734 243.227 299.768 243.145C299.801 243.062 299.851 242.987 299.914 242.924C299.977 242.861 300.051 242.812 300.134 242.778C300.216 242.745 300.305 242.729 300.394 242.73C300.483 242.732 300.57 242.751 300.652 242.787C300.733 242.824 300.806 242.876 300.867 242.941L302.797 244.868C302.92 244.993 302.989 245.162 302.989 245.337C302.989 245.512 302.92 245.681 302.797 245.805C302.671 245.93 302.501 246 302.324 246Z" fill="url(#paint5_linear_286_6711)"/>
<path d="M295.587 239.255C295.5 239.256 295.412 239.239 295.331 239.206C295.25 239.172 295.177 239.123 295.115 239.061L293.189 237.133C293.072 237.008 293.008 236.841 293.011 236.67C293.014 236.498 293.084 236.334 293.205 236.212C293.327 236.091 293.49 236.021 293.662 236.018C293.834 236.015 294 236.079 294.125 236.196L296.055 238.123C296.178 238.248 296.247 238.417 296.247 238.592C296.247 238.767 296.178 238.936 296.055 239.061C295.931 239.184 295.763 239.253 295.587 239.255Z" fill="url(#paint6_linear_286_6711)"/>
<path d="M449.368 59.5564C449.122 59.5555 448.887 59.4576 448.713 59.2841C448.626 59.1983 448.557 59.0961 448.51 58.9835C448.463 58.8709 448.439 58.7501 448.439 58.6281C448.439 58.506 448.463 58.3852 448.51 58.2726C448.557 58.16 448.626 58.0579 448.713 57.9721L451.409 55.2739C451.583 55.0991 451.819 55.0006 452.065 55C452.312 54.9994 452.548 55.0968 452.723 55.2708C452.897 55.4448 452.996 55.6811 452.997 55.9277C452.997 56.1743 452.9 56.4111 452.726 56.5859L450.024 59.2841C449.939 59.3717 449.837 59.441 449.724 59.4879C449.611 59.5347 449.49 59.558 449.368 59.5564Z" fill="url(#paint7_linear_286_6711)"/>
<path d="M439.927 69.0002C439.743 69 439.564 68.9455 439.412 68.8435C439.26 68.7415 439.141 68.5966 439.071 68.427C439 68.2575 438.982 68.071 439.018 67.891C439.053 67.7111 439.142 67.5457 439.271 67.4159L441.967 64.7178C442.053 64.6312 442.156 64.5625 442.268 64.5155C442.381 64.4685 442.502 64.4441 442.624 64.4439C442.746 64.4436 442.867 64.4673 442.979 64.5138C443.092 64.5603 443.195 64.6285 443.281 64.7147C443.368 64.8008 443.436 64.9032 443.483 65.0159C443.53 65.1286 443.555 65.2494 443.555 65.3715C443.555 65.4937 443.532 65.6146 443.485 65.7276C443.439 65.8405 443.371 65.9432 443.284 66.0297L440.582 68.7279C440.496 68.8144 440.394 68.883 440.282 68.9297C440.169 68.9765 440.049 69.0004 439.927 69.0002Z" fill="url(#paint8_linear_286_6711)"/>
<path d="M452.053 68.9999C451.807 68.9977 451.572 68.9 451.397 68.7276L448.701 66.0294C448.61 65.9444 448.537 65.8419 448.487 65.7281C448.436 65.6142 448.409 65.4913 448.406 65.3666C448.404 65.242 448.427 65.1182 448.474 65.0026C448.52 64.887 448.59 64.782 448.678 64.6939C448.766 64.6057 448.871 64.5362 448.986 64.4895C449.102 64.4429 449.226 64.4199 449.35 64.4221C449.475 64.4243 449.598 64.4516 449.711 64.5023C449.825 64.5531 449.927 64.6262 450.012 64.7174L452.715 67.4156C452.887 67.5904 452.983 67.8261 452.983 68.0716C452.983 68.3171 452.887 68.5527 452.715 68.7276C452.538 68.9015 452.301 68.9993 452.053 68.9999Z" fill="url(#paint9_linear_286_6711)"/>
<path d="M442.623 59.5569C442.5 59.5579 442.378 59.5344 442.265 59.4876C442.151 59.4409 442.048 59.3718 441.961 59.2846L439.265 56.5864C439.102 56.4104 439.012 56.1777 439.017 55.9372C439.021 55.6967 439.118 55.4673 439.288 55.2972C439.458 55.1271 439.687 55.0297 439.927 55.0254C440.168 55.0212 440.4 55.1105 440.576 55.2744L443.278 57.9726C443.451 58.1475 443.547 58.3831 443.547 58.6286C443.547 58.8741 443.451 59.1097 443.278 59.2846C443.104 59.457 442.868 59.5547 442.623 59.5569Z" fill="url(#paint10_linear_286_6711)"/>
<defs>
<linearGradient id="paint0_linear_286_6711" x1="-28.7755" y1="33.3714" x2="22.0578" y2="-9.53393" gradientUnits="userSpaceOnUse">
<stop offset="0.15" stop-color="#EF6129"/>
<stop offset="0.2" stop-color="#F06032"/>
<stop offset="0.55" stop-color="#F85D6A"/>
<stop offset="0.81" stop-color="#FD5B8C"/>
<stop offset="0.96" stop-color="#FF5A99"/>
</linearGradient>
<linearGradient id="paint1_linear_286_6711" x1="-28.7755" y1="33.3714" x2="22.0578" y2="-9.53393" gradientUnits="userSpaceOnUse">
<stop offset="0.15" stop-color="#EF6129"/>
<stop offset="0.2" stop-color="#F06032"/>
<stop offset="0.55" stop-color="#F85D6A"/>
<stop offset="0.81" stop-color="#FD5B8C"/>
<stop offset="0.96" stop-color="#FF5A99"/>
</linearGradient>
<linearGradient id="paint2_linear_286_6711" x1="-28.7755" y1="33.3714" x2="22.0578" y2="-9.53393" gradientUnits="userSpaceOnUse">
<stop offset="0.15" stop-color="#EF6129"/>
<stop offset="0.2" stop-color="#F06032"/>
<stop offset="0.55" stop-color="#F85D6A"/>
<stop offset="0.81" stop-color="#FD5B8C"/>
<stop offset="0.96" stop-color="#FF5A99"/>
</linearGradient>
<linearGradient id="paint3_linear_286_6711" x1="292.097" y1="243.86" x2="301.333" y2="239.184" gradientUnits="userSpaceOnUse">
<stop offset="0.15" stop-color="#EF6129"/>
<stop offset="0.2" stop-color="#F06032"/>
<stop offset="0.55" stop-color="#F85D6A"/>
<stop offset="0.81" stop-color="#FD5B8C"/>
<stop offset="0.96" stop-color="#FF5A99"/>
</linearGradient>
<linearGradient id="paint4_linear_286_6711" x1="292.097" y1="243.86" x2="301.333" y2="239.184" gradientUnits="userSpaceOnUse">
<stop offset="0.15" stop-color="#EF6129"/>
<stop offset="0.2" stop-color="#F06032"/>
<stop offset="0.55" stop-color="#F85D6A"/>
<stop offset="0.81" stop-color="#FD5B8C"/>
<stop offset="0.96" stop-color="#FF5A99"/>
</linearGradient>
<linearGradient id="paint5_linear_286_6711" x1="292.097" y1="243.86" x2="301.333" y2="239.184" gradientUnits="userSpaceOnUse">
<stop offset="0.15" stop-color="#EF6129"/>
<stop offset="0.2" stop-color="#F06032"/>
<stop offset="0.55" stop-color="#F85D6A"/>
<stop offset="0.81" stop-color="#FD5B8C"/>
<stop offset="0.96" stop-color="#FF5A99"/>
</linearGradient>
<linearGradient id="paint6_linear_286_6711" x1="292.097" y1="243.86" x2="301.333" y2="239.184" gradientUnits="userSpaceOnUse">
<stop offset="0.15" stop-color="#EF6129"/>
<stop offset="0.2" stop-color="#F06032"/>
<stop offset="0.55" stop-color="#F85D6A"/>
<stop offset="0.81" stop-color="#FD5B8C"/>
<stop offset="0.96" stop-color="#FF5A99"/>
</linearGradient>
<linearGradient id="paint7_linear_286_6711" x1="437.735" y1="66.0046" x2="450.666" y2="59.458" gradientUnits="userSpaceOnUse">
<stop offset="0.15" stop-color="#EF6129"/>
<stop offset="0.2" stop-color="#F06032"/>
<stop offset="0.55" stop-color="#F85D6A"/>
<stop offset="0.81" stop-color="#FD5B8C"/>
<stop offset="0.96" stop-color="#FF5A99"/>
</linearGradient>
<linearGradient id="paint8_linear_286_6711" x1="437.735" y1="66.0046" x2="450.666" y2="59.458" gradientUnits="userSpaceOnUse">
<stop offset="0.15" stop-color="#EF6129"/>
<stop offset="0.2" stop-color="#F06032"/>
<stop offset="0.55" stop-color="#F85D6A"/>
<stop offset="0.81" stop-color="#FD5B8C"/>
<stop offset="0.96" stop-color="#FF5A99"/>
</linearGradient>
<linearGradient id="paint9_linear_286_6711" x1="437.735" y1="66.0046" x2="450.666" y2="59.458" gradientUnits="userSpaceOnUse">
<stop offset="0.15" stop-color="#EF6129"/>
<stop offset="0.2" stop-color="#F06032"/>
<stop offset="0.55" stop-color="#F85D6A"/>
<stop offset="0.81" stop-color="#FD5B8C"/>
<stop offset="0.96" stop-color="#FF5A99"/>
</linearGradient>
<linearGradient id="paint10_linear_286_6711" x1="437.735" y1="66.0046" x2="450.666" y2="59.458" gradientUnits="userSpaceOnUse">
<stop offset="0.15" stop-color="#EF6129"/>
<stop offset="0.2" stop-color="#F06032"/>
<stop offset="0.55" stop-color="#F85D6A"/>
<stop offset="0.81" stop-color="#FD5B8C"/>
<stop offset="0.96" stop-color="#FF5A99"/>
</linearGradient>
</defs>
</svg>
