<svg width="12" height="13" viewBox="0 0 12 13" fill="none" xmlns="http://www.w3.org/2000/svg">
  <path d="M6 0.5C2.68627 0.5 0 3.18627 0 6.5C0 9.81373 2.68627 12.5 6 12.5C9.31373 12.5 12 9.81373 12 6.5C12 3.18627 9.31373 0.5 6 0.5Z" fill="#40B3E0"/>
  <path d="M8.91938 3.95144L7.84772 9.35458C7.84772 9.35458 7.69786 9.7293 7.28569 9.54944L4.81266 7.65344L3.91341 7.21881L2.39963 6.70919C2.39963 6.70919 2.16732 6.62678 2.14482 6.44692C2.12236 6.26706 2.40713 6.16966 2.40713 6.16966L8.42475 3.80903C8.42475 3.80903 8.91938 3.59172 8.91938 3.95144Z" fill="white"/>
  <path d="M4.62226 9.29391C4.62226 9.29391 4.55007 9.28716 4.46012 9.00235C4.37021 8.71758 3.91309 7.2188 3.91309 7.2188L7.54763 4.91067C7.54763 4.91067 7.75749 4.78327 7.74999 4.91067C7.74999 4.91067 7.78745 4.93313 7.67504 5.03803C7.56263 5.14299 4.81984 7.60847 4.81984 7.60847" fill="#D2E5F1"/>
  <path d="M5.76136 8.38041L4.78317 9.27225C4.78317 9.27225 4.70672 9.33029 4.62305 9.29391L4.81036 7.6373" fill="#B5CFE4"/>
</svg>
