<svg width="12" height="11" viewBox="0 0 12 11" fill="none" xmlns="http://www.w3.org/2000/svg">
  <path d="M3.77387 10.3762C8.3024 10.3762 10.7789 6.62455 10.7789 3.37123C10.7789 3.26468 10.7767 3.15861 10.7719 3.05299C11.2537 2.70434 11.6696 2.27264 12 1.77811C11.5589 1.97421 11.0841 2.10621 10.5862 2.16573C11.0945 1.8609 11.4847 1.37877 11.6688 0.803988C11.1855 1.09071 10.6568 1.29281 10.1054 1.4016C9.65617 0.92306 9.01659 0.623749 8.30832 0.623749C6.94871 0.623749 5.84618 1.72632 5.84618 3.08541C5.84618 3.27861 5.8678 3.46654 5.91004 3.64678C3.86383 3.54382 2.0494 2.56414 0.835076 1.07447C0.616369 1.45016 0.501325 1.87718 0.501698 2.3119C0.501698 3.16606 0.93635 3.92012 1.59731 4.36126C1.20635 4.34933 0.823961 4.24373 0.482289 4.05333C0.481926 4.06368 0.481926 4.07374 0.481926 4.08478C0.481926 5.27711 1.33057 6.27261 2.45711 6.49819C2.24553 6.55583 2.0272 6.58497 1.80791 6.58485C1.65261 6.58474 1.49767 6.56987 1.34519 6.54043C1.65864 7.51866 2.56752 8.23052 3.64509 8.25041C2.80245 8.91089 1.74094 9.30426 0.587267 9.30426C0.388787 9.30426 0.192722 9.29299 0 9.2702C1.08961 9.9686 2.38342 10.3761 3.77399 10.3761" fill="#1DA1F2"/>
</svg>
