<svg width="18" height="19" viewBox="0 0 18 19" fill="none" xmlns="http://www.w3.org/2000/svg">
  <g clip-path="url(#clip0_446_6588)">
    <path d="M12.6334 14.24C12.3019 14.0654 11.4858 13.6029 11.134 13.2711V12.3691C12.2617 11.7244 13.0328 10.5675 13.2793 9.15156C13.9182 8.96863 14.4742 8.36895 14.4742 7.81741C14.4742 7.25911 14.0545 6.88861 13.3608 6.81186V3.8835L13.3511 3.84779C13.3427 3.81688 13.1388 3.08185 12.4998 2.34622C11.9103 1.66757 10.8246 0.858643 9 0.858643C7.17543 0.858643 6.08971 1.66757 5.50021 2.34622C4.86119 3.08185 4.65721 3.81684 4.64886 3.84779L4.63918 3.8835V6.81186C3.94545 6.88861 3.52577 7.25911 3.52577 7.81741C3.52577 8.36895 4.08184 8.96863 4.72068 9.15156C4.96737 10.5681 5.73862 11.7248 6.86598 12.3691V13.2711C6.51403 13.6031 5.69705 14.0659 5.36597 14.2403C1.74808 15.414 1.67163 17.557 1.67014 17.6479L1.6701 18.8586H16.3299V17.6509C16.3294 17.5595 16.2759 15.403 12.6334 14.24ZM13.3608 7.37138C13.8569 7.44093 13.9175 7.69745 13.9175 7.81741C13.9175 8.04476 13.6716 8.35433 13.3509 8.52516C13.3571 8.41515 13.3608 7.37138 13.3608 7.37138ZM4.08247 7.81741C4.08247 7.69745 4.14308 7.44093 4.63918 7.37138C4.63918 7.37138 4.64292 8.41519 4.64905 8.52516C4.32842 8.35433 4.08247 8.04476 4.08247 7.81741ZM5.19588 3.96121C5.23926 3.82423 5.43544 3.26964 5.92048 2.71127C6.66746 1.85135 7.70355 1.41534 9 1.41534C10.287 1.41534 11.3178 1.84534 12.0639 2.69345C12.5564 3.25331 12.7598 3.82345 12.8041 3.96169V4.52426C12.6091 4.42108 12.3554 4.31037 12.049 4.22598C11.3766 4.04086 10.3091 3.95019 9 4.54137C7.69093 3.95019 6.62344 4.04082 5.95102 4.22598C5.64458 4.31037 5.39091 4.42105 5.19588 4.52426V3.96121ZM5.19588 5.17319C5.34645 5.06957 5.6674 4.87747 6.12575 4.7554C6.99328 4.52441 7.91989 4.64013 8.8799 5.09941L9 5.15686L9.1201 5.09941C10.0801 4.64016 11.0068 4.52437 11.8742 4.7554C12.3326 4.87747 12.6536 5.0696 12.8041 5.17319V7.74166C12.4652 8.30868 11.5704 9.53546 10.7175 9.73743C10.6839 9.61362 10.6256 9.46606 10.5248 9.31816C10.3407 9.04823 9.97812 8.73244 9.27835 8.66552V7.44627H8.72165V8.66574C7.7911 8.75571 7.40008 9.29515 7.28031 9.73691C6.42811 9.53331 5.53446 8.30819 5.19588 7.74166V5.17319ZM5.24141 8.88096C5.23618 8.8437 5.23199 8.80522 5.22765 8.76691C5.7574 9.45266 6.60811 10.3226 7.51546 10.3226L7.79092 10.3203L7.79381 10.0449C7.7947 9.95933 7.83616 9.20916 9 9.20916C10.1638 9.20916 10.2053 9.95933 10.2062 10.0442V10.3226H10.4845C11.3918 10.3226 12.2426 9.4527 12.7724 8.76695C12.768 8.80544 12.7638 8.84411 12.7585 8.88159C12.5671 10.2677 11.8269 11.3886 10.7272 11.9573C10.209 12.227 9.62788 12.3638 9 12.3638C8.37211 12.3638 7.79103 12.227 7.27218 11.957C6.17311 11.3886 5.43296 10.2677 5.24141 8.88096ZM10.5773 12.6347V13.2605L9 14.68L7.42268 13.2605V12.6347C7.91191 12.8242 8.44048 12.9205 9 12.9205C9.55963 12.9205 10.0883 12.8242 10.5773 12.6347ZM15.7732 18.3019H2.22681V17.6576C2.22859 17.6249 2.26036 17.1774 2.65665 16.6178C3.35442 15.6325 4.6204 15.0652 5.55955 14.7628C5.55955 14.7628 6.6325 14.2015 7.14923 13.7633L8.72165 15.1785V16.9102H9.27835V15.1785L10.8508 13.7633C11.3675 14.2015 12.4417 14.7631 12.4417 14.7631C13.3865 15.0624 14.6582 15.6263 15.3513 16.6127C15.7491 17.1788 15.7723 17.6317 15.7732 17.6554V18.3019Z" fill="white"/>
  </g>
  <defs>
    <clipPath id="clip0_446_6588">
      <rect width="18" height="18" fill="white" transform="translate(0 0.858643)"/>
    </clipPath>
  </defs>
</svg>
