<!-- <svg width="46" height="42" viewBox="0 0 46 42" fill="none" xmlns="http://www.w3.org/2000/svg">
  <circle cx="25" cy="21" r="20.5" stroke="url(#paint2_linear_1457_41764)"/>
  <path fill-rule="evenodd" clip-rule="evenodd" d="M27.0929 17.5653C26.9753 18.263 26.9165 19.6431 26.9165 21.7057C26.9165 23.7315 26.9767 25.1023 27.0971 25.8181C27.1449 26.141 27.2239 26.4585 27.3329 26.7662C27.4335 27.0071 27.5466 27.2615 27.6721 27.5295C28.0877 28.3499 28.7543 29.071 29.6719 29.693C30.5737 30.3392 31.6994 30.6785 33.049 30.7107C34.4139 30.6802 35.5515 30.3409 36.4617 29.693C37.3618 29.0688 38.012 28.3476 38.4123 27.5295C38.708 27.097 38.9071 26.5242 39.0094 25.8113C39.1117 25.0983 39.1629 23.7289 39.1629 21.7031C39.1702 19.6457 39.1191 18.2684 39.0094 17.5712C38.8997 16.8741 38.6998 16.311 38.4098 15.8818C38.0191 15.0711 37.3689 14.3417 36.4592 13.6938C35.5495 13.0458 34.4119 12.7137 33.0465 12.6973C31.6997 12.7131 30.574 13.0441 29.6694 13.6904C28.7518 14.3281 28.0852 15.0544 27.6696 15.8691C27.4027 16.3022 27.2105 16.8676 27.0929 17.5653ZM29.7033 25.2498C29.5778 24.633 29.515 23.4516 29.515 21.7057C29.515 19.9603 29.5775 18.7707 29.7025 18.1369C29.8116 17.5365 30.0358 17.0454 30.375 16.6638C30.6663 16.2845 31.0364 15.9729 31.4597 15.7504C31.9001 15.5152 32.4268 15.3891 33.0397 15.3721C33.5999 15.3743 34.1523 15.5037 34.6553 15.7504C35.0651 15.9737 35.4198 16.2857 35.6934 16.6638C36.0315 17.0454 36.2633 17.5367 36.3888 18.1378C36.507 18.771 36.5661 19.9603 36.5661 21.7057C36.5723 23.451 36.5132 24.6324 36.3888 25.2498C36.2644 25.8672 36.0326 26.3668 35.6934 26.7484C35.4231 27.1231 35.0672 27.4278 34.6553 27.6372C34.1629 27.9145 33.6046 28.0534 33.0397 28.0392C32.4268 28.0392 31.9001 27.9052 31.4597 27.6372C31.0343 27.4287 30.663 27.1245 30.375 26.7484C30.0358 26.3645 29.8119 25.865 29.7033 25.2498ZM23.0572 20.8247H16.6354L20.4442 24.6369C20.4289 25.7479 20.1092 26.2771 19.4502 26.9555C18.791 27.6691 17.9559 28.0258 16.945 28.0258C16.3327 28.0258 15.8071 27.8921 15.3684 27.6247C14.9435 27.4169 14.5728 27.1132 14.2854 26.7376C13.9484 26.3571 13.7251 25.859 13.6154 25.2433C13.4899 24.6287 13.4271 23.4498 13.4271 21.7067C13.4271 19.9636 13.4899 18.7763 13.6154 18.1447C13.7228 17.5454 13.9461 17.0552 14.2854 16.6742C14.5751 16.298 14.9428 15.989 15.3633 15.7684C15.8026 15.5332 16.3276 15.4077 16.9382 15.3919C17.7716 15.4077 18.4783 15.6553 19.0584 16.1348C19.6056 16.6244 20.0046 17.2575 20.2101 17.9624H22.9647C22.6911 16.4833 22.0335 15.2426 20.9921 14.2401C19.9517 13.2467 18.6055 12.7416 16.9535 12.7246C15.6078 12.7404 14.485 13.072 13.5848 13.7194C12.6683 14.3583 12.0029 15.0857 11.5884 15.9016C11.3221 16.3307 11.1305 16.8927 11.0134 17.5876C10.8964 18.2824 10.8379 19.6566 10.8379 21.7101C10.8379 23.7314 10.8964 25.0977 11.0134 25.8089C11.0614 26.1309 11.14 26.4476 11.2484 26.7545C11.3501 26.996 11.4632 27.2504 11.5876 27.5178C12.0026 28.3348 12.6681 29.0543 13.584 29.6762C14.4835 30.3225 15.6064 30.6617 16.9526 30.6939C18.6985 30.6623 20.1465 30.0528 21.2965 28.8654C22.4386 27.6702 23.0255 26.1889 23.0572 24.4215V20.8247Z" fill="url(#paint3_linear_1457_41764)"/>
  <defs>
    <linearGradient id="paint2_linear_1457_41764" x1="0.205426" y1="33.0133" x2="39.002" y2="13.3656" gradientUnits="userSpaceOnUse">
      <stop offset="0.15" stop-color="#EF6129"/>
      <stop offset="0.2" stop-color="#F06032"/>
      <stop offset="0.55" stop-color="#F85D6A"/>
      <stop offset="0.81" stop-color="#FD5B8C"/>
      <stop offset="0.96" stop-color="#FF5A99"/>
    </linearGradient>
    <linearGradient id="paint3_linear_1457_41764" x1="8.27875" y1="26.8564" x2="28.3965" y2="10.8357" gradientUnits="userSpaceOnUse">
      <stop offset="0.15" stop-color="#EF6129"/>
      <stop offset="0.2" stop-color="#F06032"/>
      <stop offset="0.55" stop-color="#F85D6A"/>
      <stop offset="0.81" stop-color="#FD5B8C"/>
      <stop offset="0.96" stop-color="#FF5A99"/>
    </linearGradient>
  </defs>
</svg> -->

<svg xmlns="http://www.w3.org/2000/svg" width="40" height="48" viewBox="0 0 40 48" fill="none">
<path d="M39.9967 19.8526C39.9967 8.79475 30.8891 -0.147842 19.716 0.00185232C9.08385 0.148292 0.323732 8.69713 0.0089975 19.2473C-0.177876 25.5084 2.55966 31.1382 6.96595 34.9034L19.3127 47.1587C19.693 47.5362 20.3094 47.5362 20.6897 47.1587L33.0365 34.9034C37.2985 31.2619 40 25.8729 40 19.8558L39.9967 19.8526Z" fill="url(#paint0_linear_2944_24996)"/>
<path d="M19.9832 24.0107H24.953C23.6989 25.8676 21.6349 27.083 19.302 27.083C15.4869 27.083 12.3837 23.8331 12.3837 19.8377C12.3837 15.8423 15.4869 12.5924 19.302 12.5924C21.5765 12.5924 23.7077 13.765 25.0013 15.729L28.6103 13.1206C26.4981 9.91351 23.0177 8 19.302 8C13.0692 8 8 13.3104 8 19.8362C8 26.362 13.0707 31.6724 19.302 31.6724C22.5865 31.6724 25.548 30.1967 27.6148 27.8469V32H32V19.4152H19.9832V24.0077V24.0107Z" fill="white"/>
<defs>
<linearGradient id="paint0_linear_2944_24996" x1="-3.61388" y1="37.2908" x2="35.6525" y2="20.5245" gradientUnits="userSpaceOnUse">
<stop offset="0.15" stop-color="#EF6129"/>
<stop offset="0.2" stop-color="#F06032"/>
<stop offset="0.55" stop-color="#F85D6A"/>
<stop offset="0.81" stop-color="#FD5B8C"/>
<stop offset="0.96" stop-color="#FF5A99"/>
</linearGradient>
</defs>
</svg>