<svg width="1294" height="393" viewBox="0 0 1294 393" fill="none" xmlns="http://www.w3.org/2000/svg">
<g opacity="0.15">
<path opacity="0.15" d="M1592.77 -49.0932L785.453 707.402L860.743 -116.431L1592.77 -49.0932Z" fill="url(#paint0_linear_427_30391)"/>
<path opacity="0.15" d="M1592.77 -49.0932L785.453 707.402L860.743 -116.431L1592.77 -49.0932Z" stroke="url(#paint1_linear_427_30391)" stroke-width="25"/>
</g>
<g opacity="0.15">
<path opacity="0.15" d="M1427.82 -35.6128L1183.07 471.96L1067.75 66.6483L1427.82 -35.6128Z" fill="url(#paint2_linear_427_30391)"/>
<path opacity="0.15" d="M1427.82 -35.6128L1183.07 471.96L1067.75 66.6483L1427.82 -35.6128Z" stroke="url(#paint3_linear_427_30391)" stroke-width="25"/>
</g>
<g opacity="0.15">
<path opacity="0.15" d="M1147.13 347.145L994.998 662.643L923.32 410.707L1147.13 347.145Z" fill="url(#paint4_linear_427_30391)"/>
<path opacity="0.15" d="M1147.13 347.145L994.998 662.643L923.32 410.707L1147.13 347.145Z" stroke="url(#paint5_linear_427_30391)" stroke-width="25"/>
</g>
<g opacity="0.15">
<path opacity="0.15" d="M1562.33 -239.991L974.185 979.741L697.056 5.74928L1562.33 -239.991Z" stroke="url(#paint6_linear_427_30391)" stroke-width="25"/>
</g>
<g opacity="0.15">
<path opacity="0.15" d="M-341.166 268.851L466.154 -487.638L390.859 336.182L-341.166 268.851Z" fill="url(#paint7_linear_427_30391)"/>
<path opacity="0.15" d="M-341.166 268.851L466.154 -487.638L390.859 336.182L-341.166 268.851Z" stroke="url(#paint8_linear_427_30391)" stroke-width="25"/>
</g>
<g opacity="0.15">
<path opacity="0.15" d="M-176.213 255.369L68.5378 -252.203L183.854 153.109L-176.213 255.369Z" fill="url(#paint9_linear_427_30391)"/>
<path opacity="0.15" d="M-176.213 255.369L68.5378 -252.203L183.854 153.109L-176.213 255.369Z" stroke="url(#paint10_linear_427_30391)" stroke-width="25"/>
</g>
<g opacity="0.15">
<path opacity="0.15" d="M-338.949 450.653L249.206 -769.08L526.32 204.913L-338.949 450.653Z" fill="url(#paint11_linear_427_30391)"/>
<path opacity="0.15" d="M-338.949 450.653L-350.208 445.223L-362.288 470.275L-335.534 462.677L-338.949 450.653ZM249.206 -769.08L261.229 -772.501L252.23 -804.13L237.947 -774.509L249.206 -769.08ZM526.32 204.913L529.735 216.937L541.766 213.521L538.343 201.492L526.32 204.913ZM-327.689 456.082L260.465 -763.651L237.947 -774.509L-350.208 445.223L-327.689 456.082ZM237.183 -765.659L514.298 208.334L538.343 201.492L261.229 -772.501L237.183 -765.659ZM522.905 192.888L-342.364 438.628L-335.534 462.677L529.735 216.937L522.905 192.888Z" fill="url(#paint12_linear_427_30391)"/>
</g>
<defs>
<linearGradient id="paint0_linear_427_30391" x1="632.029" y1="689.703" x2="653.908" y2="-209.751" gradientUnits="userSpaceOnUse">
<stop offset="0.15" stop-color="#EF6129"/>
<stop offset="0.2" stop-color="#F06032"/>
<stop offset="0.55" stop-color="#F85D6A"/>
<stop offset="0.81" stop-color="#FD5B8C"/>
<stop offset="0.96" stop-color="#FF5A99"/>
</linearGradient>
<linearGradient id="paint1_linear_427_30391" x1="632.029" y1="689.703" x2="653.908" y2="-209.751" gradientUnits="userSpaceOnUse">
<stop offset="0.15" stop-color="#EF6129"/>
<stop offset="0.2" stop-color="#F06032"/>
<stop offset="0.55" stop-color="#F85D6A"/>
<stop offset="0.81" stop-color="#FD5B8C"/>
<stop offset="0.96" stop-color="#FF5A99"/>
</linearGradient>
<linearGradient id="paint2_linear_427_30391" x1="1093.62" y1="445.825" x2="1193.07" y2="-41.4048" gradientUnits="userSpaceOnUse">
<stop offset="0.15" stop-color="#EF6129"/>
<stop offset="0.2" stop-color="#F06032"/>
<stop offset="0.55" stop-color="#F85D6A"/>
<stop offset="0.81" stop-color="#FD5B8C"/>
<stop offset="0.96" stop-color="#FF5A99"/>
</linearGradient>
<linearGradient id="paint3_linear_427_30391" x1="1093.62" y1="445.825" x2="1193.07" y2="-41.4048" gradientUnits="userSpaceOnUse">
<stop offset="0.15" stop-color="#EF6129"/>
<stop offset="0.2" stop-color="#F06032"/>
<stop offset="0.55" stop-color="#F85D6A"/>
<stop offset="0.81" stop-color="#FD5B8C"/>
<stop offset="0.96" stop-color="#FF5A99"/>
</linearGradient>
<linearGradient id="paint4_linear_427_30391" x1="939.397" y1="646.398" x2="1001.21" y2="343.545" gradientUnits="userSpaceOnUse">
<stop offset="0.15" stop-color="#EF6129"/>
<stop offset="0.2" stop-color="#F06032"/>
<stop offset="0.55" stop-color="#F85D6A"/>
<stop offset="0.81" stop-color="#FD5B8C"/>
<stop offset="0.96" stop-color="#FF5A99"/>
</linearGradient>
<linearGradient id="paint5_linear_427_30391" x1="939.397" y1="646.398" x2="1001.21" y2="343.545" gradientUnits="userSpaceOnUse">
<stop offset="0.15" stop-color="#EF6129"/>
<stop offset="0.2" stop-color="#F06032"/>
<stop offset="0.55" stop-color="#F85D6A"/>
<stop offset="0.81" stop-color="#FD5B8C"/>
<stop offset="0.96" stop-color="#FF5A99"/>
</linearGradient>
<linearGradient id="paint6_linear_427_30391" x1="759.227" y1="916.936" x2="998.214" y2="-253.907" gradientUnits="userSpaceOnUse">
<stop offset="0.15" stop-color="#EF6129"/>
<stop offset="0.2" stop-color="#F06032"/>
<stop offset="0.55" stop-color="#F85D6A"/>
<stop offset="0.81" stop-color="#FD5B8C"/>
<stop offset="0.96" stop-color="#FF5A99"/>
</linearGradient>
<linearGradient id="paint7_linear_427_30391" x1="496.692" y1="52.4483" x2="-168.254" y2="-195.101" gradientUnits="userSpaceOnUse">
<stop stop-color="#00E1C8"/>
<stop offset="0.17" stop-color="#00E1C3"/>
<stop offset="0.37" stop-color="#00E1B4"/>
<stop offset="0.59" stop-color="#00E19C"/>
<stop offset="0.82" stop-color="#00E27B"/>
<stop offset="1" stop-color="#00E25B"/>
</linearGradient>
<linearGradient id="paint8_linear_427_30391" x1="-901.943" y1="1570.83" x2="-397.797" y2="-591.37" gradientUnits="userSpaceOnUse">
<stop offset="0.08" stop-color="#37F4D4"/>
<stop offset="0.3" stop-color="#27ECA9"/>
<stop offset="0.6" stop-color="#12E172"/>
<stop offset="0.83" stop-color="#05DA4F"/>
<stop offset="0.96" stop-color="#00D842"/>
</linearGradient>
<linearGradient id="paint9_linear_427_30391" x1="-501.133" y1="811.127" x2="-72.2711" y2="-255.696" gradientUnits="userSpaceOnUse">
<stop offset="0.08" stop-color="#37F4D4"/>
<stop offset="0.3" stop-color="#27ECA9"/>
<stop offset="0.6" stop-color="#12E172"/>
<stop offset="0.83" stop-color="#05DA4F"/>
<stop offset="0.96" stop-color="#00D842"/>
</linearGradient>
<linearGradient id="paint10_linear_427_30391" x1="-501.133" y1="811.127" x2="-72.2711" y2="-255.696" gradientUnits="userSpaceOnUse">
<stop offset="0.08" stop-color="#37F4D4"/>
<stop offset="0.3" stop-color="#27ECA9"/>
<stop offset="0.6" stop-color="#12E172"/>
<stop offset="0.83" stop-color="#05DA4F"/>
<stop offset="0.96" stop-color="#00D842"/>
</linearGradient>
<linearGradient id="paint11_linear_427_30391" x1="-1119.75" y1="1786.18" x2="-89.1698" y2="-777.473" gradientUnits="userSpaceOnUse">
<stop offset="0.08" stop-color="#37F4D4"/>
<stop offset="0.3" stop-color="#27ECA9"/>
<stop offset="0.6" stop-color="#12E172"/>
<stop offset="0.83" stop-color="#05DA4F"/>
<stop offset="0.96" stop-color="#00D842"/>
</linearGradient>
<linearGradient id="paint12_linear_427_30391" x1="-1119.75" y1="1786.18" x2="-89.1698" y2="-777.473" gradientUnits="userSpaceOnUse">
<stop offset="0.08" stop-color="#37F4D4"/>
<stop offset="0.3" stop-color="#27ECA9"/>
<stop offset="0.6" stop-color="#12E172"/>
<stop offset="0.83" stop-color="#05DA4F"/>
<stop offset="0.96" stop-color="#00D842"/>
</linearGradient>
</defs>
</svg>
