<svg viewBox="0 0 779 702" fill="none" xmlns="http://www.w3.org/2000/svg">
<path d="M1031.1 735.673C964.015 647.436 880.739 572.774 785.722 515.676C607.068 409.177 291.518 311.263 111.569 455.928C56.5167 500.21 -9.00481 585.804 12.9631 654.079C46.6649 759.108 260.845 814.798 418.326 754.639C454.423 740.709 487.932 720.831 517.461 695.831M1003.46 794.45C947.734 698.641 874.267 614.319 786.988 545.991C622.772 418.321 321.632 282.359 125.303 403.854C65.2221 441.02 -10.2688 517.91 3.08256 588.361C23.6683 696.772 229.32 778.337 393.006 737.966C430.554 728.586 466.261 712.971 498.64 691.773M968.788 849.348C925.263 747.401 862.715 654.676 784.487 576.13C637.211 429.289 355.128 257.338 145.271 353.781C81.0725 383.185 -3.29959 450.313 1.17046 521.881C8.46369 632.056 202.558 738.291 369.89 718.326C408.306 713.614 445.662 702.502 480.406 685.453M927.618 899.656C896.955 793.143 846.284 693.444 778.313 605.886C650.181 442.05 391.33 236.725 171.268 306.676C103.924 328.052 11.9348 384.213 7.72947 455.81C1.20085 565.956 180.797 695.214 349.394 695.978C388.089 696.047 426.522 689.616 463.086 676.954M880.592 944.468C863.24 835.035 825.204 729.908 768.517 634.702C661.501 456.223 429.852 220.671 202.85 263.042C133.388 275.979 35.2237 320.438 22.2253 390.977C2.2277 499.475 164.561 649.727 331.776 671.309C370.18 676.111 409.117 674.442 446.968 666.37M828.421 983.163C824.715 872.403 799.943 763.363 755.43 661.871C671.146 471.718 470.17 209.498 239.727 223.758C169.148 228.081 66.219 260.131 44.7216 328.523C11.4021 433.611 154.003 602.799 317.247 644.64C354.769 654.132 393.617 657.263 432.175 653.902M771.899 1015.18C781.773 904.779 770.535 793.505 738.786 687.304C678.528 488.242 511.343 203.323 280.841 189.033C210.262 184.681 104.392 203.734 74.4546 269.039C28.6072 369.394 149.357 554.812 306.279 616.412C342.346 630.433 380.507 638.315 419.177 639.729M711.85 1039.97C735.221 931.666 737.746 819.901 719.29 710.651C683.971 505.591 553.045 202.265 326.073 159.777C256.611 146.78 149.006 152.749 111.393 213.82C53.547 307.912 150.565 506.62 298.753 587.039C332.824 605.391 369.734 617.895 407.945 624.029M649.211 1057.23C685.739 952.581 701.997 841.934 697.117 731.203C687.206 523.438 594.57 206.351 374.538 136.282C307.223 114.847 199.618 107.555 154.859 163.539C85.9262 249.662 157.8 458.927 294.96 556.958C326.519 579.351 361.609 596.297 398.771 607.091M584.865 1066.64C633.942 967.299 663.663 859.529 672.443 749.08C688.176 541.698 635.212 215.613 425.414 119.052C361.245 89.5013 255.434 69.0658 204.058 119.052C125.156 196.001 170.768 412.499 294.841 526.643C323.411 552.746 356.155 573.876 391.712 589.155M519.989 1068.08C580.945 975.5 623.702 872.156 645.974 763.577C687.145 559.693 674.588 229.58 478.347 107.879C418.266 70.6543 315.779 37.3107 258.639 80.7397C170.708 147.544 189.353 368.041 298.457 496.505C323.598 525.93 353.5 550.928 386.917 570.455M455.469 1061.55C527.343 977.166 582.477 879.859 617.92 774.838C683.765 577.541 712.026 248.516 532.077 103.615C476.937 59.3042 379.302 13.6405 317.25 49.5716C221.821 104.997 213.234 325.964 305.722 467.101C327.053 499.388 353.655 527.865 384.419 551.342M392.007 1047.11C473.72 972.186 540.402 882.374 588.483 782.483C678.06 594.801 746.493 271.597 585.777 105.82C536.607 55.0993 445.324 -2.17868 379.361 26.0487C277.844 69.3306 242.142 287.74 316.604 438.903C333.783 473.56 356.645 505.095 384.243 532.201M330.926 1025C421.206 960.691 498.406 879.771 558.398 786.571C670.385 611.179 778.019 298.973 638.918 114.672C596.335 58.3938 512.816 -9.79293 443.883 10.025C337.837 40.487 275.55 252.78 330.867 412.03C343.714 448.547 362.601 482.649 386.743 512.913M273.139 995.57C370.65 942.815 457.213 871.963 528.196 786.806C660.886 626.645 806.103 329.905 690.676 129.902C655.386 68.7134 580.837 -9.11763 509.963 2.0851C400.976 19.2861 313.104 222.347 348.424 387.271C356.651 425.087 371.165 461.255 391.36 494.27M219.177 959.227C322.421 918.856 417.036 859.203 497.966 783.453C649.301 640.787 829.897 364.188 739.937 151.483C712.411 86.4134 648.007 0.0258868 576.31 2.52518C466.029 6.20062 353.866 196.912 368.659 364.835C372.153 403.366 382.094 441.036 398.067 476.274M170.21 916.535C277.629 889.173 378.853 841.603 468.468 776.368C636.212 653.373 849.539 401.003 786.282 178.948C766.961 110.996 713.674 17.2287 642.182 10.907C532.284 1.02738 397.506 176.507 391.536 344.96C390.302 383.639 395.561 422.251 407.093 459.193M126.833 868.165C236.813 854.212 343.128 819.435 440.089 765.694C621.685 664.252 864.244 439.992 828.954 211.85C818.132 142.017 776.754 42.5446 706.645 27.3724C598.805 4.05546 443.471 161.658 416.857 328.111C410.864 366.339 411.331 405.3 418.239 443.373M89.749 814.828C200.615 814.507 310.404 793.062 413.239 751.64C605.892 673.28 874.242 480.51 867.184 249.752C865.037 179.183 836.188 75.3008 768.461 51.6604C664.268 15.2588 490.759 152.485 443.912 314.498C433.269 351.739 428.944 390.501 431.119 429.172M59.5146 757.342C169.573 770.639 281.158 762.845 388.298 734.378C589.127 680.275 879.121 521.967 900.501 292.061C907.029 221.728 891.178 115.14 826.98 83.2962C728.081 34.3981 538.986 149.336 472.582 304.293C457.449 339.905 448.393 377.802 445.791 416.408M36.5459 696.595C144.143 723.313 255.845 729.301 365.682 714.237C571.54 685.216 878.914 563.75 928.35 338.225C943.642 269.156 940.848 161.304 880.944 121.962C788.808 61.3321 587.038 152.13 502.078 297.707C482.687 331.199 469.049 367.705 461.73 405.706M21.2559 633.466C124.753 673.184 234.868 692.833 345.717 691.361C553.691 687.862 873.535 605.062 950.349 387.329C973.876 320.701 984.463 213.466 929.763 166.95C845.774 95.3815 634.358 160.746 532.165 294.825C508.85 325.682 490.877 360.23 478.995 397.032M13.8145 568.925C111.636 621.072 218.5 654.103 328.688 666.251C535.516 688.362 863.123 645.463 966.111 438.815C997.636 375.568 1021.34 270.48 972.875 217.583C898.354 136.253 680.498 175.154 562.571 295.649C535.591 323.434 513.463 355.547 497.109 390.652M14.3447 503.972C105.018 567.732 207.01 613.636 314.867 639.228C517.431 686.568 847.803 684.274 975.405 491.828C1014.46 433.021 1050.92 331.55 1009.31 273.125C945.35 183.239 724.376 195.088 592.539 300.147C562.36 324.371 536.455 353.482 515.902 386.27M22.9023 439.58C105.058 513.994 200.63 572.09 304.515 610.767C499.727 682.629 827.981 720.942 978.198 545.639C1024.16 492.007 1072.8 395.857 1038.72 332.757C986.256 235.726 765.518 220.289 621.771 308.382C588.842 328.715 559.548 354.416 535.105 384.419M39.2822 376.746C111.671 460.683 199.378 530.075 297.722 581.218C482.611 676.514 803.543 754.875 974.287 599.359C1026.52 551.785 1086.6 462.339 1060.51 395.535C1020.4 292.74 803.219 250.34 649.738 320.085C614.57 336.177 582.344 358.042 554.396 384.773M63.2529 316.35C124.776 408.563 203.304 488.215 294.637 551.049C466.381 668.369 775.314 785.542 963.82 652.197C1021.52 611.385 1092.13 529.996 1074.45 460.486C1047.28 353.575 836.953 284.8 676.032 335.168C639.144 346.831 604.472 364.592 573.456 387.712M94.4863 259.396C144.198 358.469 212.337 447.163 295.256 520.734C451.296 658.254 743.466 812.505 946.942 703.329C1009.2 669.927 1089.31 597.83 1080.31 526.673C1066.46 417.116 866.187 323.025 700.325 353.369C662.271 360.43 625.671 373.817 592.044 392.976M132.479 206.705C169.642 311.101 226.363 407.46 299.605 490.625C437.559 646.464 708.556 835.352 923.912 752.022C989.816 726.5 1078.16 664.812 1077.95 593.096C1077.69 482.775 890.475 364.778 722.113 374.393C683.483 376.718 645.518 385.514 609.803 400.415M176.652 159.07C200.682 267.281 245.127 369.918 307.607 461.485C425.387 632.907 671.092 853.757 895.065 797.508C963.586 780.277 1058.84 729.88 1067.49 658.694C1080.75 549.166 909.475 409.088 741.26 397.944C702.626 395.508 663.857 399.573 626.568 409.97M226.322 117.2C236.891 227.539 268.39 334.855 319.135 433.405C414.946 618.001 631.656 867.372 860.834 839.174C930.972 830.5 1031.7 792.128 1049.05 722.618C1075.69 615.56 922.914 455.487 757.346 423.761C719.31 416.613 680.345 415.878 642.066 421.585M280.785 81.915C277.721 192.711 295.786 303.078 334.014 407.118C406.417 602.004 590.747 876.103 821.749 876.162C892.328 876.162 997.11 850.552 1022.84 783.6C1062.43 680.688 930.5 503.003 770.078 451.164C733.215 439.369 694.639 433.824 655.945 434.757M339.184 53.3652C322.502 162.958 326.863 274.725 352.035 382.684C399.941 585.069 549.276 879.603 778.454 908.184C848.593 917.005 955.609 904.302 989.37 841.026C1041.33 743.7 932.23 551.196 779.395 480.069C744.264 463.841 706.658 453.623 668.144 449.842M400.651 32.2817C370.632 138.987 361.22 250.433 372.919 360.66C395.593 567.396 507.55 878.161 731.493 934.557C800.014 951.817 907.795 952.493 949.114 893.863C1012.64 803.653 927.999 599.21 785.075 509.824C752.2 489.412 716.136 474.653 678.382 466.16M464.291 18.9326C421.368 121.132 398.312 230.573 396.358 341.401C393.418 549.372 466.35 871.575 681.618 955.022C747.492 980.574 854.362 994.482 902.562 941.35C976.67 859.637 917.825 646.344 786.958 540.08C756.844 515.777 722.867 496.695 686.441 483.625M528.989 13.4937C473.854 109.65 437.544 215.428 422.001 325.171C393.534 531.201 426.324 859.932 629.741 969.107C691.969 1002.57 796.339 1029.5 850.685 982.692C934.292 910.712 902.09 691.803 785.281 570.249C758.373 542.433 726.991 519.325 692.439 501.886M593.859 16.0513C527.321 104.708 478.286 205.227 449.376 312.233C395.824 513.176 387.825 843.466 576.39 976.899C634.06 1017.74 734.312 1057.29 794.011 1017.5C885.853 956.346 880.795 735.231 779.807 600.152C756.526 569.243 728.225 542.457 696.082 520.909M657.976 26.5483C581.05 106.358 520.038 200.092 478.203 302.735C400.33 495.593 351.924 822.383 522.551 977.957C574.75 1025.59 669.386 1077.14 733.496 1045.03C832.16 995.599 854.334 775.455 770.697 629.085C751.392 595.547 726.601 565.481 697.353 540.139M720.319 44.8677C634.162 114.617 562.082 200.137 507.933 296.856C406.975 478.687 318.75 797.068 468.967 972.43C514.932 1026.09 602.51 1088.9 670.149 1064.87C774.107 1027.94 823.071 812.211 758.168 656.666C743.162 621.021 722.287 588.144 696.41 559.399M779.927 70.6826C685.855 129.325 603.815 205.345 538.191 294.678C415.618 462.719 288.957 767.84 416.471 960.344C455.496 1019.15 534.662 1092.34 604.683 1076.81C712.406 1052.94 787.632 844.847 742.225 682.511C731.68 645.273 714.959 610.068 692.761 578.363M835.891 103.645C735.332 150.283 644.579 215.645 568.482 296.237C426.059 447.96 262.99 735.173 365.86 941.88C397.327 1005.16 466.965 1087.4 538.339 1080.61C648.208 1070.14 748.431 872.869 723.317 706.21C717.419 667.964 705.163 630.973 687.056 596.771M887.417 143.223C781.88 177.154 683.771 230.871 598.334 301.502C438.501 434.582 241.231 699.596 317.898 917.358C341.424 984.016 400.241 1074.2 472.056 1076.14C582.336 1079.25 706.057 895.806 701.616 727.294C700.417 688.639 692.764 650.457 678.972 614.326M933.675 188.828C824.77 209.541 720.804 250.793 627.33 310.382C452.322 422.821 223.996 661.578 273.314 887.132C288.43 956.171 335.865 1052.91 406.768 1063.73C515.843 1080.37 661.179 913.507 677.5 745.73C681.112 707.202 678.24 668.341 669.001 630.763M973.967 239.784C863.339 246.951 755.089 275.121 655.005 322.79C467.528 412.853 211.559 621.765 232.792 851.671C239.32 922.004 274.493 1023.86 343.543 1043.32C449.736 1073.23 614.481 925.474 651.27 761.049C659.611 723.259 661.55 684.337 657.005 645.905M1007.69 295.298C897.021 288.817 786.126 303.476 680.94 338.491C483.905 404.826 204.115 580.688 196.94 811.476C194.764 882.044 217.143 987.485 283.282 1015.27C384.888 1058.11 566.63 931.677 623.388 772.899C636.301 736.421 643.001 698.036 643.209 659.342M1034.34 354.544C925.309 334.508 813.455 335.426 704.765 357.25C500.966 398.885 201.885 539.051 166.301 767.193C155.449 836.997 164.742 944.349 226.941 980.045C322.635 1034.97 518.435 931.853 594.249 781.307C611.558 746.695 622.93 709.422 627.892 671.044M1053.51 416.616C947.739 383.343 836.591 370.54 726.022 378.891C518.724 395.063 204.585 497.417 141.328 719.472C121.978 787.423 117.978 895.099 175.324 938.175C263.549 1004.42 470.553 926.149 564.307 786.071C585.756 753.843 601.66 718.253 611.36 680.777M1064.89 480.567C964.051 434.532 855.36 408.137 744.635 402.795C536.837 393.474 212.347 456.427 122.417 669.043C94.8612 734.084 77.6574 840.466 129.269 890.246C208.671 966.695 423.733 914.621 533.984 787.098C559.207 757.745 579.327 724.37 593.507 688.362M1068.36 545.403C973.921 487.344 869.285 447.798 760.047 428.877C554.983 394.093 225.347 416.704 109.831 616.648C74.5416 677.807 44.3688 781.307 89.4809 837.027C158.855 922.797 378.681 897.363 503.784 784.365C532.427 758.349 556.495 727.706 574.981 693.714M1063.81 610.209C977.224 540.987 878.247 488.886 772.166 456.693C572.925 396.975 242.995 378.892 103.806 563.163C61.1932 619.53 18.5219 718.502 56.4879 779.367C114.834 873.018 336.101 874.782 474.084 778.015C505.704 755.707 533.359 728.256 555.898 696.802M1051.34 673.956C973.912 594.63 882.092 530.766 780.78 485.774C590.362 402.033 265.167 343.578 104.392 509.297C55.1626 560.018 0.698595 652.991 30.8714 718.061C77.2187 818.033 296.633 847.113 445.527 768.047C479.645 749.782 510.46 725.928 536.692 697.479" stroke="url(#paint0_linear_201_4654)" stroke-width="0.738226" stroke-miterlimit="10"/>
<defs>
<linearGradient id="paint0_linear_201_4654" x1="-96.5751" y1="849.913" x2="901.053" y2="344.685" gradientUnits="userSpaceOnUse">
<stop offset="0.15" stop-color="#EF6129"/>
<stop offset="0.2" stop-color="#F06032"/>
<stop offset="0.55" stop-color="#F85D6A"/>
<stop offset="0.81" stop-color="#FD5B8C"/>
<stop offset="0.96" stop-color="#FF5A99"/>
</linearGradient>
</defs>
</svg>
