<svg viewBox="0 0 246 266" fill="none" xmlns="http://www.w3.org/2000/svg">
<path d="M156.925 80.9687L141.018 80.9771L83.3008 180.045L99.2081 180.036L156.925 80.9687Z" fill="url(#paint0_linear_99_7793)"/>
<path d="M159.925 83.955L144.018 83.9634L86.3008 183.031L102.208 183.023L159.925 83.955Z" fill="url(#paint1_linear_99_7793)" fill-opacity="0.1"/>
<g opacity="0.25">
<path d="M78.6377 185.128C79.5622 177.379 81.6359 168.491 84.7946 158.712C88.0953 148.638 91.9992 138.829 96.4793 129.353C101.142 119.407 106.348 109.798 112.067 100.581C117.426 91.8428 123.378 83.5877 129.87 75.8909C135.822 68.8955 141.471 63.6254 146.588 60.2255C151.519 56.9417 155.769 55.5426 159.217 56.05C162.664 56.5575 165.123 58.9497 166.542 63.1904C168.006 67.5399 168.282 73.7089 167.357 81.4582C166.433 89.2076 164.359 98.1312 161.2 107.874C157.9 117.95 153.994 127.759 149.509 137.233C144.855 147.182 139.656 156.794 133.941 166.012C128.58 174.749 122.628 183.004 116.138 190.703C110.148 197.698 104.517 202.968 99.4068 206.368C94.4698 209.652 90.2196 211.051 86.7785 210.544C83.3373 210.036 80.8719 207.644 79.4531 203.403C77.9829 199.054 77.7132 192.885 78.6377 185.135V185.128ZM78.1434 185.708C74.2913 217.764 91.2918 220.286 116.061 191.333C140.829 162.38 164.019 112.941 167.845 80.8856C171.672 48.8299 154.703 46.3072 129.967 75.2602C105.23 104.213 82.0083 153.652 78.1755 185.708H78.1434Z" stroke="url(#paint2_linear_99_7793)" stroke-width="0.134619"/>
<path d="M74.3495 184.251C76.0701 175.748 79.0234 166.128 83.1322 155.74C87.3733 145.094 92.2088 134.763 97.6096 124.808C103.148 114.513 109.226 104.6 115.811 95.123C121.866 86.2915 128.52 78.005 135.713 70.3383C142.281 63.4588 148.316 58.4497 153.651 55.4558C158.787 52.5561 163.088 51.65 166.382 52.7519C169.675 53.8537 171.826 56.9129 172.757 61.8423C173.72 66.9167 173.335 73.8468 171.614 82.3428C169.894 90.8388 166.941 100.466 162.832 110.854C158.591 121.501 153.753 131.833 148.348 141.786C142.811 152.081 136.736 161.993 130.153 171.471C124.084 180.302 117.417 188.589 110.212 196.256C103.645 203.135 97.6096 208.144 92.2809 211.138C87.1448 214.038 82.8433 214.944 79.5498 213.842C76.2563 212.74 74.1056 209.681 73.1746 204.752C72.2116 199.677 72.5904 192.747 74.3174 184.251H74.3495ZM73.7781 184.817C66.6582 219.968 82.9075 225.412 110.071 196.952C137.235 168.492 165.034 116.936 172.154 81.7774C179.274 46.6191 163.024 41.1823 135.854 69.6423C108.684 98.1024 80.8981 149.658 73.7781 184.817Z" stroke="url(#paint3_linear_99_7793)" stroke-width="0.134619"/>
<path d="M70.2692 182.597C73.3289 172.088 77.1956 161.9 81.8254 152.151C87.0508 141.012 92.8629 130.238 99.2304 119.885C105.652 109.336 112.613 99.2183 120.077 89.5835C126.84 80.7647 134.205 72.5577 142.104 65.0379C149.224 58.376 155.625 53.7293 161.127 51.2066C166.449 48.7709 170.712 48.4229 173.807 50.1627C176.901 51.9025 178.66 55.643 179.045 61.2829C179.443 67.1257 178.339 74.759 175.765 83.9726C172.707 94.483 168.841 104.671 164.208 114.419C159.008 125.552 153.219 136.322 146.874 146.67C140.45 157.218 133.49 167.335 126.028 176.972C119.264 185.791 111.899 193.997 104.001 201.517C96.8806 208.179 90.4797 212.826 84.9713 215.349C79.6554 217.784 75.3925 218.132 72.298 216.393C69.2035 214.653 67.4444 210.912 67.0592 205.272C66.6611 199.43 67.7654 191.796 70.3398 182.583L70.2692 182.597ZM69.7556 183.126C59.1046 221.235 74.346 229.803 103.782 202.279C133.218 174.754 165.666 121.552 176.317 83.4507C186.968 45.3493 171.726 36.7735 142.29 64.2985C112.854 91.8235 80.3295 145.039 69.6978 183.141L69.7556 183.126Z" stroke="url(#paint4_linear_99_7793)" stroke-width="0.134619"/>
<path d="M66.4841 180.127C70.5311 168.983 75.3728 158.229 80.9614 147.97C93.4087 124.909 108.102 103.492 124.766 84.1196C132.192 75.4141 140.226 67.3973 148.79 60.1467C156.424 53.8255 163.145 49.621 168.769 47.6637C174.207 45.7717 178.4 46.0399 181.218 48.4611C184.036 50.8823 185.359 55.326 185.134 61.6763C184.91 68.2513 183.028 76.595 179.549 86.4683C175.502 97.6121 170.66 108.367 165.071 118.625C158.874 130.152 152.094 141.267 144.765 151.913C137.457 162.601 129.611 172.805 121.267 182.476C113.839 191.182 105.803 199.198 97.2364 206.449C89.6093 212.77 82.8875 216.974 77.257 218.932C71.8256 220.824 67.6268 220.556 64.8148 218.134C62.0028 215.713 60.6738 211.269 60.8921 204.919C61.1233 198.344 63.0043 190 66.4841 180.127ZM65.842 180.642C51.4481 221.491 65.367 233.408 96.9347 207.261C128.502 181.113 165.758 126.795 180.152 85.9536C194.546 45.112 180.627 33.1872 149.06 59.3348C117.492 85.4824 80.236 139.793 65.842 180.642Z" stroke="url(#paint5_linear_99_7793)" stroke-width="0.134619"/>
<path d="M63.0309 176.776C68.0954 165.086 73.9418 153.849 80.5193 143.162C87.7122 131.349 95.4863 120.001 103.805 109.171C111.977 98.4617 120.69 88.2959 129.903 78.7245C139.007 69.3007 147.725 61.5731 155.821 55.7013C163.917 49.8295 170.902 46.1832 176.584 44.8711C182.073 43.6025 186.117 44.5449 188.609 47.6765C191.1 50.8081 191.915 55.9767 191.029 63.0229C190.104 70.3228 187.395 79.3335 182.959 89.8447C177.899 101.538 172.053 112.776 165.47 123.459C158.282 135.274 150.51 146.622 142.191 157.45C134.02 168.159 125.306 178.325 116.093 187.896C106.99 197.32 98.271 205.048 90.1752 210.92C82.0794 216.792 75.0943 220.438 69.4125 221.75C63.9233 223.019 59.8787 222.076 57.3877 218.945C54.8967 215.813 54.0813 210.644 54.9673 203.598C55.8853 196.298 58.6011 187.288 63.0309 176.776ZM62.3889 177.262C44.0595 220.59 56.3476 236.031 89.8285 211.753C123.309 187.476 165.297 132.658 183.626 89.33C201.956 46.0019 189.668 30.5613 156.187 54.8386C122.706 79.116 80.6991 133.934 62.3697 177.262H62.3889Z" stroke="url(#paint6_linear_99_7793)" stroke-width="0.134619"/>
<path d="M60.0649 172.522C66.1643 160.373 73.0414 148.744 80.6414 137.726C88.821 125.753 97.5853 114.303 106.893 103.431C115.895 92.8249 125.444 82.8279 135.488 73.4919C145.343 64.4087 154.653 57.1161 163.146 51.817C171.64 46.5179 178.837 43.5602 184.5 42.9658C189.97 42.4004 193.809 44.0822 195.902 47.9605C197.995 51.8388 198.239 57.7251 196.634 65.4454C194.964 73.4194 191.369 83.0753 185.951 94.0722C179.849 106.219 172.972 117.849 165.374 128.868C157.191 140.838 148.427 152.288 139.122 163.164C130.113 173.772 120.556 183.769 110.501 193.103C100.653 202.186 91.3437 209.478 82.8435 214.778C74.3433 220.077 67.1656 223.049 61.4966 223.643C56.0267 224.209 52.1874 222.527 50.0945 218.649C48.0015 214.77 47.7511 208.884 49.3626 201.164C51.0318 193.19 54.6271 183.534 60.0457 172.537L60.0649 172.522ZM59.3459 172.972C36.9525 218.475 47.2247 237.562 82.4005 215.662C117.576 193.762 164.225 139.133 186.644 93.6373C209.063 48.1417 198.74 29.033 163.596 50.9326C128.452 72.8322 81.7713 127.462 59.3459 172.957V172.972Z" stroke="url(#paint7_linear_99_7793)" stroke-width="0.134619"/>
<path d="M57.5919 167.302C64.7349 154.813 72.6537 142.911 81.2886 131.687C90.4423 119.683 100.184 108.267 110.468 97.4931C120.272 87.1394 130.628 77.4728 141.477 68.5473C152.032 59.9353 161.855 53.2444 170.689 48.6557C179.523 44.067 186.823 41.8488 192.402 42.0662C197.788 42.2837 201.338 44.7484 202.969 49.4024C204.6 54.0563 204.215 60.6458 201.826 69.0113C199.361 77.7102 194.841 87.859 188.402 99.2909C181.261 111.78 173.344 123.681 164.712 134.906C155.562 146.912 145.822 158.328 135.539 169.1C125.734 179.456 115.376 189.122 104.523 198.046C93.9748 206.658 84.1456 213.349 75.3179 217.937C66.4902 222.526 59.1841 224.744 53.605 224.527C48.2186 224.309 44.6618 221.845 43.0375 217.191C41.4132 212.537 41.792 205.947 44.1803 197.582C46.6456 188.919 51.1654 178.734 57.6048 167.302H57.5919ZM56.8793 167.679C30.2486 214.944 38.261 237.865 74.7914 218.873C111.322 199.88 162.497 146.178 189.108 98.9139C215.72 51.6496 207.726 28.7278 171.196 47.7206C134.665 66.7133 83.4971 120.415 56.8536 167.679H56.8793Z" stroke="url(#paint8_linear_99_7793)" stroke-width="0.134619"/>
<path d="M55.7522 161.111C63.9416 148.4 72.9089 136.351 82.5883 125.054C92.6831 113.168 103.371 101.942 114.599 91.4322C125.145 81.4745 136.247 72.2927 147.836 63.9435C159.013 55.9694 169.286 50.0324 178.364 46.2773C187.442 42.5223 194.786 41.203 200.192 42.2903C205.412 43.3559 208.609 46.6398 209.7 52.0984C210.792 57.557 209.7 64.8351 206.49 73.7951C203.171 83.0739 197.701 93.7374 190.228 105.481C182.049 118.189 173.095 130.237 163.43 141.538C153.334 153.422 142.647 164.648 131.42 175.16C120.874 185.117 109.772 194.299 98.1828 202.648C87.0054 210.622 76.7332 216.559 67.6551 220.315C58.5771 224.07 51.2324 225.389 45.8267 224.302C40.6071 223.236 37.4035 219.952 36.3121 214.493C35.2207 209.035 36.3121 201.757 39.5221 192.797C42.8413 183.518 48.3113 172.854 55.7843 161.111H55.7522ZM55.0396 161.415C24.1267 209.985 29.5068 236.806 67.0516 221.279C104.596 205.751 160.105 153.767 191.024 105.177C221.943 56.5856 216.557 29.7856 179.006 45.3132C141.454 60.8409 85.9268 112.824 55.0075 161.415H55.0396Z" stroke="url(#paint9_linear_99_7793)" stroke-width="0.134619"/>
<path d="M54.6207 153.957C63.8382 141.162 73.8373 129.111 84.5449 117.892C95.5382 106.283 107.127 95.4148 119.252 85.3437C130.474 75.9291 142.252 67.3914 154.505 59.7905C166.222 52.6356 176.847 47.5975 186.079 44.8138C195.311 42.0301 202.592 41.6677 207.728 43.7699C212.69 45.7779 215.432 49.9462 215.939 56.1804C216.446 62.4147 214.61 70.3887 210.546 79.8924C206.335 89.7222 199.882 100.763 191.363 112.709C182.145 125.504 172.146 137.555 161.439 148.774C150.444 160.381 138.855 171.249 126.731 181.322C115.522 190.71 103.759 199.223 91.5235 206.803C79.8004 213.958 69.1815 218.996 59.9494 221.78C50.7172 224.563 43.3726 224.926 38.2365 222.86C33.2738 220.852 30.5324 216.683 30.0188 210.449C29.5052 204.215 31.3542 196.241 35.4181 186.737C39.649 176.907 46.1012 165.867 54.6207 153.957ZM53.8631 154.181C18.6359 203.592 21.037 234.313 59.2175 222.802C97.398 211.29 156.906 161.909 192.114 112.484C227.322 63.0599 224.94 32.3525 186.76 43.8642C148.579 55.3758 89.0646 104.757 53.8631 154.181Z" stroke="url(#paint10_linear_99_7793)" stroke-width="0.134619"/>
<path d="M54.2863 145.722C64.5076 132.993 75.5157 121.098 87.2279 110.129C99.0615 98.9602 111.498 88.632 124.465 79.2037C136.268 70.5122 148.627 62.8216 161.438 56.195C173.598 50.026 184.467 46.0462 193.744 44.3716C203.021 42.6971 210.148 43.4147 214.931 46.5464C219.553 49.5475 221.8 54.6292 221.614 61.6608C221.428 68.6925 218.821 77.2972 213.852 87.2648C208.716 97.5803 201.269 108.896 191.715 120.901C181.496 133.63 170.49 145.524 158.78 156.494C146.945 167.661 134.509 177.989 121.543 187.419C109.73 196.112 97.3604 203.803 84.5379 210.428C72.3782 216.597 61.5089 220.576 52.2319 222.251C42.9548 223.925 35.822 223.208 31.0455 220.076C26.4294 217.075 24.1824 211.993 24.3685 204.962C24.5547 197.93 27.1741 189.325 32.1369 179.329C37.273 169.013 44.7267 157.697 54.2735 145.693L54.2863 145.722ZM53.5159 145.831C14.0129 195.487 13.0691 230.116 51.4679 223.179C89.8666 216.241 152.976 170.362 192.479 120.705C231.982 71.0484 232.926 36.4193 194.527 43.3567C156.129 50.2942 93.0189 96.2029 53.5159 145.86V145.831Z" stroke="url(#paint11_linear_99_7793)" stroke-width="0.134619"/>
<path d="M54.8154 136.56C65.9907 124.055 77.962 112.49 90.6332 101.96C103.22 91.4077 116.41 81.8059 130.117 73.2168C142.433 65.3956 155.292 58.7188 168.567 53.2527C181.054 48.2508 192.052 45.4961 201.258 45.0611C210.465 44.6262 217.309 46.511 221.649 50.7372C225.828 54.7967 227.478 60.8135 226.554 68.6208C225.629 76.4281 222.175 85.6273 216.281 95.9718C210.189 106.686 201.74 118.154 191.179 130.043C180.001 142.544 168.03 154.109 155.361 164.643C142.773 175.193 129.583 184.795 115.877 193.386C103.561 201.198 90.7017 207.865 77.427 213.321C64.9463 218.323 53.9486 221.077 44.7422 221.512C35.5357 221.947 28.6919 220.062 24.3519 215.836C20.1724 211.777 18.5224 205.76 19.4469 197.953C20.3714 190.145 23.8254 180.946 29.7191 170.602C35.8118 159.887 44.2543 148.419 54.8218 136.531L54.8154 136.56ZM54.0642 136.531C10.3624 185.854 5.80416 224.318 43.8819 222.513C81.9596 220.708 148.241 179.33 191.943 130.035C235.644 80.7414 240.196 42.321 202.119 44.0897C164.041 45.8585 97.7531 87.2656 54.0578 136.56L54.0642 136.531Z" stroke="url(#paint12_linear_99_7793)" stroke-width="0.134619"/>
<path d="M56.3018 126.359C68.3782 114.252 81.2559 103.204 94.8225 93.3105C108.081 83.5592 121.938 74.889 136.29 67.3659C150.267 60.0732 163.563 54.5929 175.812 51.077C188.486 47.4525 199.483 46.0534 208.484 46.9958C217.485 47.9382 223.963 51.1205 227.745 56.4777C231.385 61.6463 232.354 68.6127 230.627 77.1739C228.9 85.7352 224.567 95.4707 217.749 106.098C210.686 117.095 201.255 128.57 189.712 140.234C177.637 152.343 164.759 163.392 151.191 173.283C137.936 183.036 124.08 191.706 109.73 199.228C95.7534 206.52 82.4573 212.001 70.2077 215.516C57.528 219.141 46.5367 220.54 37.5293 219.598C28.5219 218.655 22.0568 215.473 18.2689 210.116C14.6352 204.947 13.6657 197.981 15.3927 189.42C17.1197 180.858 21.4533 171.123 28.2715 160.495C35.3336 149.499 44.7648 138.023 56.3018 126.359ZM55.5699 126.28C7.82983 174.472 -0.67683 216.684 36.5663 220.555C73.8094 224.426 142.691 188.506 190.424 140.314C238.158 92.1216 246.671 49.9099 209.428 46.0751C172.185 42.2404 103.297 78.0873 55.5699 126.28Z" stroke="url(#paint13_linear_99_7793)" stroke-width="0.134619"/>
<path d="M58.8328 115.246C84.2309 92.63 112.586 74.6064 142.885 61.8199C157.253 55.8538 170.774 51.7943 183.062 49.7646C195.787 47.6623 206.63 47.829 215.291 50.2647C223.952 52.7005 229.916 57.2602 233.017 63.8134C236.003 70.1491 236.227 78.0652 233.627 87.3441C231.027 96.623 225.795 106.815 218.033 117.609C210.001 128.787 199.607 140.132 187.139 151.347C174.251 162.875 160.554 173.203 146.185 182.228C132.36 191.003 117.948 198.541 103.08 204.773C88.7057 210.739 75.1913 214.798 62.8968 216.828C50.1785 218.93 39.3349 218.764 30.6678 216.328C22.0006 213.892 16.0491 209.332 12.9482 202.779C9.95644 196.444 9.73815 188.527 12.3383 179.249C14.9385 169.97 20.1837 159.756 27.9649 148.983C35.9965 137.805 46.3906 126.46 58.8521 115.246H58.8328ZM58.1459 115.05C6.5923 161.445 -6.15165 207.165 29.6791 217.263C65.5098 227.361 136.343 197.922 187.89 151.557C239.437 105.191 252.181 59.4422 216.357 49.3441C180.533 39.2461 109.674 68.6848 58.1395 115.05H58.1459Z" stroke="url(#paint14_linear_99_7793)" stroke-width="0.134619"/>
<path d="M62.4753 103.248C76.1007 92.4671 90.5371 83.0556 105.619 75.1218C119.88 67.5228 134.703 61.3471 149.917 56.6655C164.53 52.2291 178.115 49.7933 190.287 49.4164C202.89 49.0394 213.4 50.8662 221.598 54.9547C229.797 59.0432 235.08 65.0165 237.404 72.8093C239.645 80.3339 239.009 89.1924 235.51 99.1454C232.011 109.098 225.829 119.639 217.136 130.483C208.148 141.705 196.823 152.753 183.507 163.329C169.88 174.108 155.444 183.519 140.364 191.456C126.102 199.054 111.28 205.229 96.0654 209.912C81.4532 214.349 67.8682 216.784 55.6957 217.161C43.0866 217.538 32.5833 215.675 24.3848 211.623C16.1863 207.571 10.9025 201.561 8.572 193.768C6.33138 186.244 6.97339 177.385 10.498 167.432C14.0227 157.479 20.1732 146.939 28.8724 136.094C37.8606 124.873 49.1857 113.825 62.501 103.248H62.4753ZM61.859 102.915C6.79363 146.649 -10.4508 195.704 23.3383 212.486C57.1274 229.267 129.174 207.411 184.239 163.677C239.305 119.943 256.549 70.8883 222.76 54.1066C188.971 37.3248 116.924 59.181 61.8526 102.915H61.859Z" stroke="url(#paint15_linear_99_7793)" stroke-width="0.134619"/>
<path d="M67.2815 90.4243C81.5301 80.5946 96.579 72.3267 112.222 65.7338C126.813 59.4841 141.913 54.8708 157.304 51.9604C171.994 49.2783 185.47 48.6621 197.353 50.1337C209.654 51.6995 219.727 55.4038 227.245 61.1668C234.763 66.9299 239.309 74.4762 240.728 83.5159C242.114 92.2149 240.554 102.037 236.099 112.599C231.643 123.161 224.542 133.955 214.912 144.706C204.967 155.826 192.788 166.403 178.716 176.138C164.467 185.968 149.418 194.236 133.775 200.829C119.182 207.065 104.082 211.666 88.6926 214.566C74.0034 217.248 60.5276 217.864 48.6375 216.393C36.3109 214.892 26.2698 211.224 18.7454 205.425C11.221 199.625 6.68842 192.115 5.26316 183.076C3.88283 174.377 5.4365 164.554 9.89849 153.992C14.3605 143.43 21.4868 132.636 31.0849 121.886C41.0361 110.765 53.215 100.189 67.2879 90.4533L67.2815 90.4243ZM66.6459 89.9821C8.44754 130.215 -13.5221 182.227 17.5898 206.193C48.7017 230.159 121.121 216.9 179.332 176.638C237.543 136.377 259.513 84.3641 228.401 60.3984C197.289 36.4328 124.909 49.6915 66.6652 89.9531L66.6459 89.9821Z" stroke="url(#paint16_linear_99_7793)" stroke-width="0.134619"/>
<path d="M73.3159 76.8772C88.08 68.1789 103.62 61.2753 119.676 56.2824C134.459 51.5992 149.66 48.8005 164.995 47.9386C179.575 47.2137 192.749 48.6128 204.158 52.0996C215.971 55.7242 225.344 61.3858 232.073 69.0046C238.801 76.6234 242.403 85.6776 242.839 96.0221C243.263 105.975 240.708 116.646 235.251 127.737C229.794 138.828 221.717 149.767 211.233 160.264C200.377 171.138 187.401 181.04 172.712 189.717C157.948 198.415 142.408 205.319 126.353 210.312C111.569 214.995 96.368 217.794 81.0329 218.656C66.4528 219.381 53.2723 217.982 41.8702 214.495C30.0572 210.87 20.6838 205.209 13.9619 197.59C7.24005 189.971 3.56774 180.88 3.15685 170.572C2.73312 160.619 5.28833 149.948 10.739 138.857C16.1897 127.766 24.279 116.827 34.7631 106.33C45.6195 95.4567 58.5882 85.5544 73.3159 76.8772ZM72.7638 76.2465C11.8561 112.151 -15.0506 166.795 12.7164 198.3C40.4834 229.805 112.325 226.246 173.219 190.326C234.114 154.407 261.015 99.7989 233.28 68.2942C205.545 36.7895 133.671 40.3488 72.7766 76.2682L72.7638 76.2465Z" stroke="url(#paint17_linear_99_7793)" stroke-width="0.134619"/>
<path d="M80.6095 62.6896C95.7609 55.3206 111.637 50.0179 127.9 46.8938C142.746 43.9567 157.865 43.1844 172.886 44.5958C187.145 46.0456 199.85 49.6702 210.559 55.2883C221.666 61.1311 230.205 68.9311 235.925 78.4855C241.591 87.7953 244.279 99.0071 243.546 110.273C242.904 121.444 239.289 132.948 232.811 144.467C226.333 155.986 217.307 166.939 205.988 177.03C194.278 187.476 180.603 196.523 165.361 203.924C150.21 211.293 134.334 216.595 118.071 219.72C103.225 222.657 88.1057 223.43 73.0851 222.018C58.8196 220.569 46.1206 216.944 35.4118 211.326C24.2986 205.483 15.7663 197.683 10.0459 188.129C4.38144 178.818 1.69783 167.606 2.43809 156.341C3.08011 145.17 6.69463 133.659 13.1982 122.147C19.7018 110.635 28.7028 99.6747 40.0151 89.5839C52.4488 78.6568 66.0963 69.6151 80.6095 62.6896ZM80.1537 61.8922C17.0888 92.5271 -14.8577 149.31 8.80685 188.752C32.4714 228.195 102.772 235.32 165.843 204.7C228.914 174.08 260.861 117.297 237.19 77.8403C213.519 38.3833 143.219 31.2864 80.1537 61.8922Z" stroke="url(#paint18_linear_99_7793)" stroke-width="0.134619"/>
<path d="M89.2378 48.0037C104.648 42.1484 120.691 38.6831 136.926 37.7026C151.708 36.7224 166.537 38.2026 180.936 42.0956C194.663 45.9159 206.617 51.8819 216.465 59.8415C226.661 68.0765 234.14 78.0948 238.698 89.6064C243.252 101.088 244.662 113.843 242.749 126.236C240.945 138.596 236.214 150.883 228.683 162.714C221.152 174.545 211.22 185.382 199.15 194.878C186.099 205.021 171.83 213.006 156.778 218.59C141.368 224.446 125.325 227.911 109.089 228.891C94.3053 229.871 79.4746 228.391 65.0725 224.498C51.3463 220.678 39.392 214.712 29.55 206.752C19.3356 198.517 11.8497 188.499 7.29141 176.988C2.73792 165.506 1.32935 152.75 3.24674 140.358C5.05079 127.998 9.78242 115.711 17.3068 103.88C24.8312 92.0494 34.776 81.2119 46.8394 71.7156C59.8904 61.5714 74.1591 53.5866 89.2122 48.0037H89.2378ZM88.8334 47.0613C24.2534 71.4546 -12.8421 129.846 6.01381 177.473C24.8697 225.1 92.5249 243.933 157.131 219.518C221.736 195.103 258.838 136.733 239.982 89.1062C221.126 41.4794 153.471 22.6462 88.8591 47.0613H88.8334Z" stroke="url(#paint19_linear_99_7793)" stroke-width="0.134619"/>
<path d="M99.1718 32.9534C114.724 28.8151 130.751 27.4261 146.681 28.8359C161.282 30.0631 175.601 34.0194 189.054 40.5432C202.003 46.9225 213.007 55.433 221.745 65.8282C230.538 76.095 236.89 88.7054 240.209 102.487C243.428 116.072 243.45 130.37 240.273 143.967C237.211 157.472 231.285 170.426 222.727 182.474C214.169 194.522 203.338 205.055 190.581 213.776C177.017 222.969 162.25 229.683 146.828 233.667C131.276 237.806 115.249 239.195 99.3195 237.785C84.7187 236.558 70.3997 232.601 56.9467 226.078C43.9973 219.698 32.9932 211.188 24.2554 200.793C15.2223 190.006 9.00124 177.675 5.78476 164.105C2.56936 150.52 2.54724 136.223 5.72056 122.625C8.78938 109.12 14.7087 96.1658 23.2667 84.1178C31.8248 72.0697 42.6619 61.5657 55.4187 52.845C68.9826 43.6504 83.7496 36.9368 99.1718 32.9534ZM98.9086 31.8443C33.4555 49.061 -8.81459 108.439 4.4879 164.474C17.7904 220.51 81.6385 251.964 147.092 234.748C212.545 217.531 254.815 158.153 241.512 102.088C228.21 46.0236 164.362 14.6276 98.9086 31.8443Z" stroke="url(#paint20_linear_99_7793)" stroke-width="0.134619"/>
<path d="M110.431 17.7094C126.002 15.4975 141.797 16.4302 157.079 20.4641C171.355 24.1785 184.909 30.812 197.07 40.0367C208.672 48.784 218.583 60.0956 226.205 73.2885C233.796 86.4615 238.623 101.418 240.316 117.018C242.01 132.617 240.525 148.448 235.976 163.301C231.409 178.187 224.215 191.871 214.828 203.526C205.013 215.81 193.286 225.957 180.23 233.465C152.049 249.672 119.714 254.155 88.8975 246.13C74.6231 242.415 61.0716 235.782 48.913 226.557C37.3114 217.81 27.4004 206.498 19.7785 193.305C12.1838 180.134 7.35388 165.178 5.65711 149.578C3.96033 133.979 5.44157 118.148 9.98781 103.293C14.5663 88.4035 21.774 74.7186 31.1742 63.0672C40.9895 50.7839 52.716 40.6365 65.7722 33.1283C79.7377 25.0395 94.8657 19.8186 110.45 17.7094H110.431ZM110.309 16.4336C44.8234 25.5095 -2.62131 85.1988 4.37662 149.745C11.3746 214.291 70.1957 259.243 135.707 250.16C201.218 241.077 248.637 181.395 241.639 116.849C234.641 52.3023 175.8 7.35039 110.289 16.4336H110.309Z" stroke="url(#paint21_linear_99_7793)" stroke-width="0.134619"/>
<path d="M122.984 2.44983C149.719 2.46898 175.626 12.9222 196.317 32.0388C217.007 51.1555 231.21 77.7601 236.518 107.346C241.826 136.932 237.914 167.68 225.444 194.382C212.973 221.084 192.712 242.098 168.092 253.864C139.818 267.085 108.062 267.145 79.7494 254.031C51.437 240.917 28.866 215.694 16.9596 183.863C5.05329 152.032 4.77781 116.176 16.1933 84.1166C27.6087 52.0572 49.7888 26.3955 77.8954 12.7291C92.1598 5.91397 107.495 2.41782 122.984 2.44983ZM122.984 1C99.8105 1 77.1574 8.75907 57.8893 23.296C38.6213 37.833 23.6037 58.4949 14.7356 82.6689C5.86745 106.843 3.54715 133.443 8.06807 159.107C12.589 184.77 23.7481 208.343 40.1342 226.845C56.5203 245.347 77.3975 257.947 100.126 263.051C122.854 268.156 146.412 265.536 167.822 255.523C189.231 245.51 207.53 228.553 220.405 206.797C233.279 185.041 240.151 159.463 240.151 133.297C240.151 115.923 237.121 98.7199 231.232 82.6689C225.344 66.618 216.714 52.0337 205.834 39.7488C194.954 27.4639 182.037 17.719 167.822 11.0705C153.607 4.42195 138.371 1 122.984 1Z" stroke="url(#paint22_linear_99_7793)" stroke-width="0.134619"/>
</g>
<defs>
<linearGradient id="paint0_linear_99_7793" x1="76.378" y1="161.193" x2="154.079" y2="131.651" gradientUnits="userSpaceOnUse">
<stop offset="0.15" stop-color="#EF6129"/>
<stop offset="0.2" stop-color="#F06032"/>
<stop offset="0.55" stop-color="#F85D6A"/>
<stop offset="0.81" stop-color="#FD5B8C"/>
<stop offset="0.96" stop-color="#FF5A99"/>
</linearGradient>
<linearGradient id="paint1_linear_99_7793" x1="98.3645" y1="159.711" x2="112.83" y2="167.02" gradientUnits="userSpaceOnUse">
<stop offset="0.15" stop-color="#EF6129"/>
<stop offset="0.2" stop-color="#F06032"/>
<stop offset="0.55" stop-color="#F85D6A"/>
<stop offset="0.81" stop-color="#FD5B8C"/>
<stop offset="0.96" stop-color="#FF5A99"/>
</linearGradient>
<linearGradient id="paint2_linear_99_7793" x1="-21.0447" y1="208.979" x2="211.444" y2="100.403" gradientUnits="userSpaceOnUse">
<stop offset="0.15" stop-color="#EF6129"/>
<stop offset="0.2" stop-color="#F06032"/>
<stop offset="0.55" stop-color="#F85D6A"/>
<stop offset="0.81" stop-color="#FD5B8C"/>
<stop offset="0.96" stop-color="#FF5A99"/>
</linearGradient>
<linearGradient id="paint3_linear_99_7793" x1="-21.0447" y1="208.979" x2="211.444" y2="100.403" gradientUnits="userSpaceOnUse">
<stop offset="0.15" stop-color="#EF6129"/>
<stop offset="0.2" stop-color="#F06032"/>
<stop offset="0.55" stop-color="#F85D6A"/>
<stop offset="0.81" stop-color="#FD5B8C"/>
<stop offset="0.96" stop-color="#FF5A99"/>
</linearGradient>
<linearGradient id="paint4_linear_99_7793" x1="-21.0447" y1="208.979" x2="211.444" y2="100.403" gradientUnits="userSpaceOnUse">
<stop offset="0.15" stop-color="#EF6129"/>
<stop offset="0.2" stop-color="#F06032"/>
<stop offset="0.55" stop-color="#F85D6A"/>
<stop offset="0.81" stop-color="#FD5B8C"/>
<stop offset="0.96" stop-color="#FF5A99"/>
</linearGradient>
<linearGradient id="paint5_linear_99_7793" x1="-21.0447" y1="208.979" x2="211.444" y2="100.403" gradientUnits="userSpaceOnUse">
<stop offset="0.15" stop-color="#EF6129"/>
<stop offset="0.2" stop-color="#F06032"/>
<stop offset="0.55" stop-color="#F85D6A"/>
<stop offset="0.81" stop-color="#FD5B8C"/>
<stop offset="0.96" stop-color="#FF5A99"/>
</linearGradient>
<linearGradient id="paint6_linear_99_7793" x1="-21.0447" y1="208.979" x2="211.444" y2="100.403" gradientUnits="userSpaceOnUse">
<stop offset="0.15" stop-color="#EF6129"/>
<stop offset="0.2" stop-color="#F06032"/>
<stop offset="0.55" stop-color="#F85D6A"/>
<stop offset="0.81" stop-color="#FD5B8C"/>
<stop offset="0.96" stop-color="#FF5A99"/>
</linearGradient>
<linearGradient id="paint7_linear_99_7793" x1="-21.0447" y1="208.979" x2="211.444" y2="100.403" gradientUnits="userSpaceOnUse">
<stop offset="0.15" stop-color="#EF6129"/>
<stop offset="0.2" stop-color="#F06032"/>
<stop offset="0.55" stop-color="#F85D6A"/>
<stop offset="0.81" stop-color="#FD5B8C"/>
<stop offset="0.96" stop-color="#FF5A99"/>
</linearGradient>
<linearGradient id="paint8_linear_99_7793" x1="-21.0447" y1="208.979" x2="211.444" y2="100.403" gradientUnits="userSpaceOnUse">
<stop offset="0.15" stop-color="#EF6129"/>
<stop offset="0.2" stop-color="#F06032"/>
<stop offset="0.55" stop-color="#F85D6A"/>
<stop offset="0.81" stop-color="#FD5B8C"/>
<stop offset="0.96" stop-color="#FF5A99"/>
</linearGradient>
<linearGradient id="paint9_linear_99_7793" x1="-21.0447" y1="208.979" x2="211.444" y2="100.403" gradientUnits="userSpaceOnUse">
<stop offset="0.15" stop-color="#EF6129"/>
<stop offset="0.2" stop-color="#F06032"/>
<stop offset="0.55" stop-color="#F85D6A"/>
<stop offset="0.81" stop-color="#FD5B8C"/>
<stop offset="0.96" stop-color="#FF5A99"/>
</linearGradient>
<linearGradient id="paint10_linear_99_7793" x1="-21.0447" y1="208.979" x2="211.444" y2="100.403" gradientUnits="userSpaceOnUse">
<stop offset="0.15" stop-color="#EF6129"/>
<stop offset="0.2" stop-color="#F06032"/>
<stop offset="0.55" stop-color="#F85D6A"/>
<stop offset="0.81" stop-color="#FD5B8C"/>
<stop offset="0.96" stop-color="#FF5A99"/>
</linearGradient>
<linearGradient id="paint11_linear_99_7793" x1="-21.0447" y1="208.979" x2="211.444" y2="100.403" gradientUnits="userSpaceOnUse">
<stop offset="0.15" stop-color="#EF6129"/>
<stop offset="0.2" stop-color="#F06032"/>
<stop offset="0.55" stop-color="#F85D6A"/>
<stop offset="0.81" stop-color="#FD5B8C"/>
<stop offset="0.96" stop-color="#FF5A99"/>
</linearGradient>
<linearGradient id="paint12_linear_99_7793" x1="-21.0447" y1="208.979" x2="211.444" y2="100.403" gradientUnits="userSpaceOnUse">
<stop offset="0.15" stop-color="#EF6129"/>
<stop offset="0.2" stop-color="#F06032"/>
<stop offset="0.55" stop-color="#F85D6A"/>
<stop offset="0.81" stop-color="#FD5B8C"/>
<stop offset="0.96" stop-color="#FF5A99"/>
</linearGradient>
<linearGradient id="paint13_linear_99_7793" x1="-21.0447" y1="208.979" x2="211.444" y2="100.403" gradientUnits="userSpaceOnUse">
<stop offset="0.15" stop-color="#EF6129"/>
<stop offset="0.2" stop-color="#F06032"/>
<stop offset="0.55" stop-color="#F85D6A"/>
<stop offset="0.81" stop-color="#FD5B8C"/>
<stop offset="0.96" stop-color="#FF5A99"/>
</linearGradient>
<linearGradient id="paint14_linear_99_7793" x1="-21.0447" y1="208.979" x2="211.444" y2="100.403" gradientUnits="userSpaceOnUse">
<stop offset="0.15" stop-color="#EF6129"/>
<stop offset="0.2" stop-color="#F06032"/>
<stop offset="0.55" stop-color="#F85D6A"/>
<stop offset="0.81" stop-color="#FD5B8C"/>
<stop offset="0.96" stop-color="#FF5A99"/>
</linearGradient>
<linearGradient id="paint15_linear_99_7793" x1="-21.0447" y1="208.979" x2="211.444" y2="100.403" gradientUnits="userSpaceOnUse">
<stop offset="0.15" stop-color="#EF6129"/>
<stop offset="0.2" stop-color="#F06032"/>
<stop offset="0.55" stop-color="#F85D6A"/>
<stop offset="0.81" stop-color="#FD5B8C"/>
<stop offset="0.96" stop-color="#FF5A99"/>
</linearGradient>
<linearGradient id="paint16_linear_99_7793" x1="-21.0447" y1="208.979" x2="211.444" y2="100.403" gradientUnits="userSpaceOnUse">
<stop offset="0.15" stop-color="#EF6129"/>
<stop offset="0.2" stop-color="#F06032"/>
<stop offset="0.55" stop-color="#F85D6A"/>
<stop offset="0.81" stop-color="#FD5B8C"/>
<stop offset="0.96" stop-color="#FF5A99"/>
</linearGradient>
<linearGradient id="paint17_linear_99_7793" x1="-21.0447" y1="208.979" x2="211.444" y2="100.403" gradientUnits="userSpaceOnUse">
<stop offset="0.15" stop-color="#EF6129"/>
<stop offset="0.2" stop-color="#F06032"/>
<stop offset="0.55" stop-color="#F85D6A"/>
<stop offset="0.81" stop-color="#FD5B8C"/>
<stop offset="0.96" stop-color="#FF5A99"/>
</linearGradient>
<linearGradient id="paint18_linear_99_7793" x1="-21.0447" y1="208.979" x2="211.444" y2="100.403" gradientUnits="userSpaceOnUse">
<stop offset="0.15" stop-color="#EF6129"/>
<stop offset="0.2" stop-color="#F06032"/>
<stop offset="0.55" stop-color="#F85D6A"/>
<stop offset="0.81" stop-color="#FD5B8C"/>
<stop offset="0.96" stop-color="#FF5A99"/>
</linearGradient>
<linearGradient id="paint19_linear_99_7793" x1="-21.0447" y1="208.979" x2="211.444" y2="100.403" gradientUnits="userSpaceOnUse">
<stop offset="0.15" stop-color="#EF6129"/>
<stop offset="0.2" stop-color="#F06032"/>
<stop offset="0.55" stop-color="#F85D6A"/>
<stop offset="0.81" stop-color="#FD5B8C"/>
<stop offset="0.96" stop-color="#FF5A99"/>
</linearGradient>
<linearGradient id="paint20_linear_99_7793" x1="-21.0447" y1="208.979" x2="211.444" y2="100.403" gradientUnits="userSpaceOnUse">
<stop offset="0.15" stop-color="#EF6129"/>
<stop offset="0.2" stop-color="#F06032"/>
<stop offset="0.55" stop-color="#F85D6A"/>
<stop offset="0.81" stop-color="#FD5B8C"/>
<stop offset="0.96" stop-color="#FF5A99"/>
</linearGradient>
<linearGradient id="paint21_linear_99_7793" x1="-21.0447" y1="208.979" x2="211.444" y2="100.403" gradientUnits="userSpaceOnUse">
<stop offset="0.15" stop-color="#EF6129"/>
<stop offset="0.2" stop-color="#F06032"/>
<stop offset="0.55" stop-color="#F85D6A"/>
<stop offset="0.81" stop-color="#FD5B8C"/>
<stop offset="0.96" stop-color="#FF5A99"/>
</linearGradient>
<linearGradient id="paint22_linear_99_7793" x1="-21.0447" y1="208.979" x2="211.444" y2="100.403" gradientUnits="userSpaceOnUse">
<stop offset="0.15" stop-color="#EF6129"/>
<stop offset="0.2" stop-color="#F06032"/>
<stop offset="0.55" stop-color="#F85D6A"/>
<stop offset="0.81" stop-color="#FD5B8C"/>
<stop offset="0.96" stop-color="#FF5A99"/>
</linearGradient>
</defs>
</svg>
