<svg width="288" height="155" viewBox="0 0 288 155" fill="none" xmlns="http://www.w3.org/2000/svg">
<mask id="mask0_989_79435" style="mask-type:alpha" maskUnits="userSpaceOnUse" x="0" y="0" width="288" height="155">
<rect width="288" height="155" fill="#25262D"/>
</mask>
<g mask="url(#mask0_989_79435)">
<rect width="288" height="155" fill="current"/>
<path d="M199.656 130.647C207.648 123.969 212.024 112.916 212.127 106.056C212.89 54.9319 216.135 30.3139 185.669 16.3815C178.626 13.1615 136.418 0.231445 104.518 14.7549C89.7827 21.4596 66.4733 34.5062 78.0914 89.4414C82.6916 111.189 96.1778 138.906 116.422 143.523C129.152 146.425 133.206 146.719 159.664 144.317C182.566 142.234 189.875 138.806 199.656 130.647Z" opacity="0.47" fill="url(#paint0_linear_989_79435)"/>
<path d="M155.47 13.7992C155.424 13.7984 155.379 13.7852 155.34 13.7609L154.447 13.2148C154.391 13.1802 154.35 13.1245 154.335 13.06C154.32 12.9955 154.33 12.9275 154.365 12.871C154.4 12.8145 154.455 12.7741 154.52 12.7586C154.584 12.7431 154.652 12.7539 154.709 12.7886L155.601 13.3364C155.648 13.3648 155.684 13.4077 155.704 13.4585C155.723 13.5093 155.726 13.5653 155.711 13.6178C155.696 13.6702 155.665 13.7164 155.621 13.7492C155.577 13.7819 155.524 13.7995 155.47 13.7992Z" fill="#1B1C21"/>
<path d="M158.591 15.7138C158.545 15.7139 158.499 15.7012 158.46 15.6772L157.567 15.1294C157.515 15.0929 157.479 15.0378 157.466 14.9755C157.453 14.9132 157.465 14.8483 157.498 14.7941C157.531 14.7399 157.584 14.7005 157.646 14.6839C157.707 14.6673 157.772 14.6748 157.829 14.7049L158.721 15.251C158.767 15.2794 158.803 15.3221 158.823 15.3728C158.843 15.4234 158.846 15.4792 158.831 15.5316C158.817 15.584 158.785 15.6301 158.742 15.663C158.698 15.6959 158.646 15.7138 158.591 15.7138Z" fill="#1B1C21"/>
<path d="M155.366 16.4981C155.321 16.498 155.277 16.4854 155.238 16.4614C155.21 16.4445 155.185 16.4222 155.166 16.3958C155.146 16.3694 155.132 16.3394 155.125 16.3075C155.117 16.2757 155.115 16.2426 155.12 16.2101C155.125 16.1777 155.136 16.1465 155.153 16.1185L155.694 15.2227C155.729 15.166 155.784 15.1252 155.849 15.1095C155.913 15.0937 155.981 15.1042 156.038 15.1386C156.095 15.1731 156.136 15.2286 156.151 15.2931C156.167 15.3576 156.157 15.4257 156.122 15.4824L155.579 16.3782C155.557 16.4148 155.526 16.445 155.488 16.466C155.451 16.487 155.409 16.498 155.366 16.4981Z" fill="#1B1C21"/>
<path d="M157.261 13.363C157.215 13.363 157.171 13.3503 157.133 13.3264C157.104 13.3094 157.08 13.2871 157.06 13.2607C157.041 13.2343 157.027 13.2043 157.019 13.1725C157.011 13.1406 157.01 13.1075 157.015 13.0751C157.019 13.0426 157.031 13.0115 157.048 12.9834L157.59 12.0876C157.607 12.0583 157.629 12.0326 157.655 12.012C157.682 11.9915 157.712 11.9765 157.745 11.9679C157.777 11.9594 157.811 11.9575 157.845 11.9623C157.878 11.9672 157.91 11.9787 157.938 11.9962C157.967 12.0137 157.992 12.0368 158.012 12.0641C158.031 12.0914 158.045 12.1224 158.052 12.1551C158.06 12.1879 158.06 12.2218 158.054 12.2549C158.048 12.2879 158.035 12.3194 158.017 12.3474L157.476 13.2431C157.453 13.2798 157.421 13.3101 157.384 13.3311C157.346 13.3521 157.304 13.3631 157.261 13.363Z" fill="#1B1C21"/>
<path d="M78.2188 67.3657C78.1605 67.3658 78.1039 67.3453 78.0592 67.3079C78.0144 67.2704 77.9843 67.2184 77.9741 67.1609C76.7387 60.3895 77.3381 53.1753 79.7056 46.319C79.7166 46.288 79.7335 46.2595 79.7554 46.2351C79.7774 46.2107 79.8039 46.1909 79.8335 46.1768C79.8631 46.1626 79.8952 46.1544 79.928 46.1527C79.9608 46.151 79.9935 46.1557 80.0245 46.1666C80.0554 46.1775 80.0839 46.1945 80.1083 46.2164C80.1327 46.2383 80.1525 46.2649 80.1667 46.2945C80.1808 46.3241 80.189 46.3562 80.1907 46.389C80.1925 46.4217 80.1877 46.4545 80.1768 46.4855C77.8459 53.2685 77.2465 60.3878 78.4652 67.0743C78.4765 67.1396 78.4617 67.2066 78.424 67.2611C78.3863 67.3156 78.3288 67.3531 78.2638 67.3657C78.2488 67.3673 78.2338 67.3673 78.2188 67.3657Z" fill="#1B1C21"/>
<path d="M82.0248 45.4017C81.9675 45.4013 81.9119 45.382 81.8667 45.3467L80.3182 44.0997C80.2813 44.0693 80.2538 44.029 80.239 43.9836C80.2241 43.9381 80.2226 43.8894 80.2345 43.8431C80.2463 43.7967 80.2712 43.7548 80.3061 43.7221C80.341 43.6894 80.3845 43.6673 80.4315 43.6585L82.4394 43.2972C82.48 43.2896 82.5219 43.2923 82.5611 43.3051C82.6004 43.3179 82.6358 43.3404 82.6642 43.3704C82.6928 43.4003 82.7135 43.4367 82.7245 43.4765C82.7356 43.5163 82.7366 43.5583 82.7274 43.5985C82.536 44.4194 82.2712 45.1986 82.2612 45.2319C82.2488 45.2709 82.2272 45.3064 82.1982 45.3354C82.1693 45.3643 82.1338 45.3859 82.0947 45.3984C82.0717 45.403 82.0482 45.4041 82.0248 45.4017ZM81.0592 44.0531L81.8916 44.729C81.9616 44.5059 82.0581 44.1946 82.1414 43.8566L81.0592 44.0531Z" fill="#1B1C21"/>
<path d="M170.395 141.32C170.333 141.319 170.274 141.296 170.228 141.254C170.182 141.213 170.153 141.156 170.146 141.094C170.139 141.033 170.155 140.971 170.191 140.921C170.227 140.87 170.28 140.834 170.34 140.82C171.311 140.604 172.288 140.362 173.244 140.106C173.276 140.095 173.311 140.091 173.345 140.094C173.38 140.097 173.413 140.107 173.444 140.123C173.474 140.139 173.501 140.162 173.522 140.189C173.544 140.216 173.559 140.247 173.568 140.28C173.577 140.314 173.579 140.348 173.574 140.382C173.569 140.417 173.558 140.449 173.539 140.479C173.521 140.508 173.497 140.534 173.469 140.553C173.441 140.573 173.409 140.587 173.375 140.594C172.413 140.852 171.429 141.093 170.45 141.313C170.432 141.318 170.413 141.32 170.395 141.32Z" fill="#1B1C21"/>
<path d="M173.308 140.601C173.253 140.6 173.2 140.582 173.157 140.548C173.113 140.514 173.082 140.467 173.068 140.414C173.05 140.352 173.058 140.285 173.089 140.227C173.12 140.17 173.172 140.128 173.235 140.109C186.571 136.526 198.277 129.077 206.201 119.131C206.242 119.079 206.302 119.046 206.368 119.038C206.434 119.031 206.5 119.05 206.552 119.091C206.604 119.132 206.637 119.192 206.645 119.258C206.652 119.324 206.633 119.39 206.592 119.442C202.481 124.57 197.543 128.976 191.982 132.479C186.225 136.113 179.948 138.85 173.368 140.596C173.348 140.6 173.328 140.602 173.308 140.601Z" fill="#1B1C21"/>
<path d="M180.293 134.603C180.236 134.602 180.18 134.581 180.136 134.544C180.092 134.507 180.062 134.456 180.051 134.4C180.041 134.343 180.049 134.285 180.076 134.234C180.103 134.183 180.147 134.143 180.2 134.121C189.456 130.394 197.481 124.615 203.408 117.411C203.428 117.384 203.454 117.362 203.483 117.345C203.512 117.328 203.545 117.318 203.578 117.314C203.612 117.31 203.646 117.313 203.678 117.323C203.71 117.332 203.74 117.348 203.766 117.37C203.792 117.391 203.813 117.417 203.829 117.447C203.844 117.477 203.854 117.51 203.856 117.544C203.859 117.577 203.854 117.611 203.843 117.643C203.832 117.675 203.815 117.704 203.793 117.729C197.814 124.998 189.719 130.826 180.387 134.585C180.357 134.597 180.325 134.603 180.293 134.603Z" fill="#1B1C21"/>
<path d="M206.692 22.5334C206.631 22.5338 206.571 22.5119 206.525 22.4718C201.667 18.2045 195.979 14.7664 189.621 12.269C189.561 12.2435 189.513 12.1957 189.488 12.1356C189.463 12.0756 189.462 12.008 189.486 11.9474C189.51 11.8869 189.557 11.838 189.616 11.8113C189.675 11.7846 189.743 11.7821 189.804 11.8044C196.216 14.3302 201.958 17.7983 206.857 22.1005C206.894 22.1342 206.921 22.1786 206.933 22.2278C206.945 22.277 206.942 22.3287 206.924 22.3761C206.906 22.4234 206.874 22.4641 206.832 22.4928C206.79 22.5215 206.741 22.5368 206.69 22.5367L206.692 22.5334Z" fill="#1B1C21"/>
<path d="M200.807 21.8592C200.752 21.8596 200.697 21.8408 200.654 21.8059C194.427 16.8926 187.06 13.4079 178.755 11.4499C178.723 11.4423 178.693 11.4286 178.666 11.4094C178.64 11.3902 178.617 11.366 178.6 11.3381C178.583 11.3102 178.571 11.2791 178.566 11.2468C178.56 11.2144 178.562 11.1813 178.569 11.1494C178.577 11.1174 178.591 11.0873 178.61 11.0607C178.629 11.0341 178.653 11.0115 178.681 10.9943C178.709 10.9771 178.74 10.9655 178.772 10.9602C178.805 10.955 178.838 10.9562 178.87 10.9637C187.244 12.9384 194.687 16.4581 200.962 21.4146C201.002 21.4469 201.032 21.4909 201.046 21.5405C201.06 21.5901 201.059 21.6429 201.042 21.6916C201.025 21.7403 200.993 21.7826 200.951 21.8126C200.909 21.8426 200.859 21.8589 200.807 21.8592Z" fill="#1B1C21"/>
<path d="M113.23 36.3504C114.324 31.7164 111.454 27.0732 106.82 25.9794C102.186 24.8857 97.5428 27.7557 96.4491 32.3897C95.3554 37.0237 98.2254 41.6669 102.859 42.7606C107.493 43.8544 112.137 40.9844 113.23 36.3504Z" fill="url(#paint0_linear_989_79435)"/>
<path d="M104.85 43.2456C103.096 43.2443 101.381 42.7228 99.9228 41.7471C98.4646 40.7713 97.3284 39.3852 96.6578 37.7638C95.9873 36.1424 95.8126 34.3587 96.1557 32.638C96.4988 30.9173 97.3443 29.337 98.5854 28.0968C99.8265 26.8567 101.408 26.0123 103.128 25.6705C104.849 25.3287 106.633 25.5048 108.254 26.1765C109.875 26.8482 111.26 27.9855 112.235 29.4444C113.209 30.9033 113.729 32.6185 113.729 34.373C113.727 36.7265 112.79 38.9828 111.125 40.6463C109.461 42.3099 107.204 43.2447 104.85 43.2456ZM104.85 26.0016C103.194 26.003 101.576 26.4952 100.2 27.4161C98.824 28.337 97.7518 29.6453 97.1192 31.1755C96.4865 32.7057 96.3217 34.3891 96.6457 36.0129C96.9697 37.6367 97.7678 39.128 98.9392 40.2983C100.111 41.4686 101.603 42.2652 103.227 42.5876C104.851 42.9099 106.534 42.7435 108.064 42.1093C109.593 41.4751 110.901 40.4016 111.82 39.0246C112.74 37.6476 113.23 36.0289 113.23 34.373C113.227 32.1522 112.343 30.0232 110.772 28.4535C109.201 26.8839 107.071 26.0021 104.85 26.0016Z" fill="#1B1C21"/>
<path d="M102.822 37.5881L102.388 31.4161C102.383 31.3437 102.396 31.2711 102.426 31.2053C102.457 31.1394 102.504 31.0825 102.562 31.0398C102.621 30.9971 102.69 30.9701 102.762 30.9614C102.834 30.9526 102.907 30.9624 102.974 30.9898L109.374 33.6021C109.447 33.632 109.511 33.6817 109.558 33.7457C109.605 33.8097 109.633 33.8855 109.639 33.9645C109.645 34.0436 109.629 34.1228 109.592 34.1932C109.556 34.2636 109.5 34.3224 109.432 34.363L103.467 37.9327C103.404 37.9704 103.332 37.9912 103.258 37.9929C103.185 37.9947 103.112 37.9774 103.047 37.9427C102.982 37.908 102.927 37.8571 102.888 37.7949C102.849 37.7328 102.826 37.6615 102.822 37.5881Z" fill="white"/>
<path d="M209.522 99.1249L130.463 88.1362C129.504 88.0139 128.622 87.5463 127.983 86.821C127.344 86.0956 126.991 85.1621 126.99 84.1952L125.906 29.0502C125.906 29.0502 127.708 27.7516 128.737 27.2538C129.277 26.9905 129.882 26.8915 130.478 26.9691L209.296 37.0121C210.255 37.1347 211.137 37.6029 211.776 38.3289C212.416 39.0549 212.768 39.989 212.769 40.9563V95.1173C212.769 95.5741 212.669 96.0254 212.473 96.4383C212.278 96.8513 211.993 97.2156 211.64 97.5049C211.009 98.0227 209.522 99.1249 209.522 99.1249Z" fill="white"/>
<path opacity="0.8" d="M209.522 99.1249L130.463 88.1362C129.504 88.0139 128.622 87.5463 127.983 86.821C127.344 86.0956 126.991 85.1621 126.99 84.1952L125.906 29.0502C125.906 29.0502 127.708 27.7516 128.737 27.2538C129.277 26.9905 129.882 26.8915 130.478 26.9691L209.296 37.0121C210.255 37.1347 211.137 37.6029 211.776 38.3289C212.416 39.0549 212.768 39.989 212.769 40.9563V95.1173C212.769 95.5741 212.669 96.0254 212.473 96.4383C212.278 96.8513 211.993 97.2156 211.64 97.5049C211.009 98.0227 209.522 99.1249 209.522 99.1249Z" fill="url(#paint1_linear_989_79435)"/>
<path d="M207.112 99.8573L128.288 89.8043C127.328 89.6819 126.446 89.2138 125.807 88.4877C125.168 87.7616 124.816 86.8273 124.816 85.86V31.699C124.816 31.2604 124.91 30.8268 125.09 30.4271C125.271 30.0274 125.535 29.6708 125.864 29.381C126.193 29.0911 126.58 28.8747 127 28.7462C127.419 28.6177 127.861 28.5799 128.296 28.6355L207.118 38.6868C208.078 38.8092 208.96 39.2772 209.6 40.0033C210.239 40.7294 210.592 41.6637 210.592 42.6311V96.7921C210.592 97.2308 210.498 97.6644 210.317 98.0642C210.137 98.4639 209.873 98.8207 209.544 99.1106C209.215 99.4006 208.828 99.6171 208.408 99.7459C207.989 99.8746 207.547 99.9126 207.112 99.8573Z" fill="white"/>
<path d="M205.438 97.6247L130.182 88.0262C129.484 87.9372 128.843 87.5969 128.378 87.0692C127.913 86.5415 127.657 85.8625 127.656 85.1592V32.9145C127.656 32.6208 127.718 32.3305 127.839 32.0628C127.96 31.7952 128.137 31.5565 128.358 31.3628C128.578 31.169 128.838 31.0247 129.119 30.9394C129.4 30.8541 129.696 30.8299 129.987 30.8683L205.251 40.4668C205.949 40.5555 206.591 40.8956 207.056 41.4234C207.521 41.9512 207.777 42.6304 207.777 43.3338V95.5785C207.777 95.8728 207.714 96.1637 207.593 96.4317C207.471 96.6998 207.294 96.9387 207.072 97.1324C206.85 97.3262 206.59 97.4704 206.308 97.5553C206.026 97.6402 205.73 97.6639 205.438 97.6247Z" fill="white"/>
<path opacity="0.4" d="M205.438 97.6247L130.182 88.0262C129.484 87.9372 128.843 87.5969 128.378 87.0692C127.913 86.5415 127.657 85.8625 127.656 85.1592V32.9145C127.656 32.6208 127.718 32.3305 127.839 32.0628C127.96 31.7952 128.137 31.5565 128.358 31.3628C128.578 31.169 128.838 31.0247 129.119 30.9394C129.4 30.8541 129.696 30.8299 129.987 30.8683L205.251 40.4668C205.949 40.5555 206.591 40.8956 207.056 41.4234C207.521 41.9512 207.777 42.6304 207.777 43.3338V95.5785C207.777 95.8728 207.714 96.1637 207.593 96.4317C207.471 96.6998 207.294 96.9387 207.072 97.1324C206.85 97.3262 206.59 97.4704 206.308 97.5553C206.026 97.6402 205.73 97.6639 205.438 97.6247Z" fill="url(#paint2_linear_989_79435)"/>
<path d="M207.501 100.132C207.36 100.132 207.218 100.123 207.078 100.105L139.814 91.526C139.781 91.5218 139.749 91.5113 139.721 91.4949C139.692 91.4785 139.667 91.4566 139.647 91.4305C139.626 91.4043 139.611 91.3745 139.603 91.3426C139.594 91.3107 139.592 91.2774 139.596 91.2446C139.6 91.2118 139.61 91.1801 139.627 91.1514C139.643 91.1227 139.665 91.0975 139.691 91.0773C139.717 91.057 139.747 91.0421 139.779 91.0334C139.811 91.0247 139.844 91.0223 139.877 91.0265L207.141 99.606C207.541 99.6571 207.948 99.6224 208.333 99.5042C208.719 99.3859 209.075 99.1869 209.377 98.9204C209.68 98.6538 209.922 98.3259 210.088 97.9584C210.254 97.5908 210.34 97.1922 210.34 96.7889V42.6312C210.338 41.725 210.007 40.8502 209.408 40.1701C208.809 39.49 207.983 39.051 207.085 38.935L155.957 32.4151C155.924 32.4109 155.893 32.4003 155.864 32.3839C155.835 32.3676 155.81 32.3457 155.79 32.3195C155.749 32.2668 155.731 32.1999 155.739 32.1337C155.748 32.0674 155.782 32.0073 155.835 31.9664C155.887 31.9254 155.954 31.9072 156.021 31.9156L207.148 38.4355C208.167 38.5676 209.103 39.0657 209.783 39.837C210.462 40.6083 210.837 41.6002 210.839 42.6279V96.7889C210.839 97.6744 210.488 98.5237 209.862 99.15C209.236 99.7763 208.386 100.128 207.501 100.129V100.132Z" fill="#1B1C21"/>
<path d="M161.125 131.755L80.0587 121.3C79.7814 121.267 79.5266 121.131 79.3445 120.92C79.1623 120.708 79.0661 120.436 79.0748 120.157C79.0748 119.79 79.1097 117.21 79.1097 117.21L121.974 92.7048C124.122 91.4777 126.901 91.0049 129.353 91.3179L209.398 101.641C209.634 101.671 209.859 101.763 210.05 101.908C210.24 102.052 210.389 102.243 210.483 102.463L210.611 102.764C210.611 102.764 210.543 104.916 210.571 105.418C210.585 105.627 210.538 105.835 210.438 106.018C210.337 106.201 210.187 106.352 210.004 106.452L168.213 130.346C166.066 131.573 163.578 132.068 161.125 131.755Z" fill="white"/>
<path opacity="0.8" d="M161.125 131.755L80.0587 121.3C79.7814 121.267 79.5266 121.131 79.3445 120.92C79.1623 120.708 79.0661 120.436 79.0748 120.157C79.0748 119.79 79.1097 117.21 79.1097 117.21L121.974 92.7048C124.122 91.4777 126.901 91.0049 129.353 91.3179L209.398 101.641C209.634 101.671 209.859 101.763 210.05 101.908C210.24 102.052 210.389 102.243 210.483 102.463L210.611 102.764C210.611 102.764 210.543 104.916 210.571 105.418C210.585 105.627 210.538 105.835 210.438 106.018C210.337 106.201 210.187 106.352 210.004 106.452L168.213 130.346C166.066 131.573 163.578 132.068 161.125 131.755Z" fill="url(#paint3_linear_989_79435)"/>
<path d="M90.0309 119.699L80.3492 118.448C80.1151 118.418 79.8965 118.315 79.7241 118.153C79.5518 117.992 79.4344 117.781 79.3886 117.549C79.3428 117.318 79.3709 117.077 79.4688 116.863C79.5668 116.648 79.7297 116.469 79.9347 116.352L121.499 92.6132C123.646 91.3871 126.135 90.8938 128.588 91.2079L209.365 101.642C209.599 101.673 209.818 101.776 209.99 101.937C210.162 102.098 210.28 102.31 210.326 102.541C210.371 102.773 210.343 103.013 210.245 103.228C210.147 103.443 209.984 103.621 209.78 103.738L168.216 127.484C166.068 128.71 163.579 129.204 161.126 128.889L90.0326 119.705L90.0309 119.699Z" fill="white"/>
<path opacity="0.8" d="M176.943 115.706L106.905 106.592C106.694 106.565 106.496 106.473 106.339 106.327C106.183 106.182 106.077 105.991 106.035 105.781C105.994 105.572 106.019 105.355 106.107 105.16C106.196 104.966 106.344 104.805 106.529 104.699L122.999 95.387C124.939 94.2793 127.187 93.8339 129.402 94.1183L199.445 103.232C199.657 103.259 199.855 103.352 200.011 103.497C200.168 103.643 200.274 103.834 200.316 104.043C200.357 104.253 200.332 104.47 200.243 104.664C200.155 104.858 200.007 105.02 199.822 105.125L183.352 114.436C181.411 115.545 179.161 115.991 176.943 115.706Z" fill="url(#paint4_linear_989_79435)"/>
<path d="M162.556 129.224C162.067 129.224 161.58 129.192 161.095 129.131L121.538 124.057C121.472 124.049 121.411 124.014 121.371 123.961C121.33 123.908 121.312 123.841 121.32 123.775C121.329 123.709 121.364 123.649 121.417 123.608C121.47 123.567 121.536 123.549 121.603 123.558L161.159 128.631C163.558 128.935 165.991 128.452 168.093 127.256L209.657 103.519C209.817 103.427 209.943 103.288 210.02 103.121C210.096 102.954 210.118 102.767 210.082 102.587C210.046 102.406 209.955 102.242 209.821 102.116C209.687 101.991 209.516 101.911 209.334 101.887L128.557 91.4526C126.158 91.1499 123.725 91.6324 121.623 92.8279L115.795 96.1578C115.767 96.177 115.735 96.19 115.701 96.1962C115.667 96.2024 115.632 96.2015 115.599 96.1936C115.565 96.1858 115.534 96.1711 115.506 96.1505C115.479 96.13 115.456 96.1039 115.439 96.0741C115.422 96.0442 115.411 96.0112 115.408 95.977C115.404 95.9428 115.407 95.9083 115.418 95.8755C115.428 95.8427 115.445 95.8124 115.468 95.7865C115.49 95.7606 115.518 95.7396 115.549 95.7249L121.376 92.395C123.573 91.1461 126.115 90.642 128.622 90.9581L209.399 101.392C209.685 101.431 209.951 101.557 210.161 101.755C210.37 101.953 210.513 102.211 210.568 102.494C210.623 102.776 210.588 103.069 210.468 103.331C210.348 103.593 210.149 103.81 209.899 103.953L168.341 127.694C166.578 128.697 164.584 129.224 162.556 129.224Z" fill="url(#paint5_linear_989_79435)"/>
<path d="M117.851 26.1781C122.752 26.1781 126.725 22.205 126.725 17.3039C126.725 12.4028 122.752 8.42969 117.851 8.42969C112.95 8.42969 108.977 12.4028 108.977 17.3039C108.977 22.205 112.95 26.1781 117.851 26.1781Z" fill="url(#paint6_linear_989_79435)"/>
<path d="M117.851 26.4213C116.046 26.4213 114.282 25.8861 112.781 24.8835C111.281 23.8809 110.111 22.4558 109.421 20.7885C108.73 19.1212 108.55 17.2866 108.902 15.5167C109.254 13.7468 110.123 12.121 111.399 10.8451C112.676 9.56916 114.302 8.70032 116.072 8.34846C117.842 7.99659 119.676 8.17752 121.343 8.86834C123.01 9.55917 124.435 10.7289 125.438 12.2295C126.44 13.7302 126.975 15.4943 126.974 17.299C126.972 19.7178 126.01 22.0368 124.299 23.7471C122.589 25.4573 120.269 26.4191 117.851 26.4213ZM117.851 8.6745C116.145 8.6745 114.477 9.18031 113.059 10.128C111.641 11.0756 110.535 12.4226 109.883 13.9985C109.23 15.5744 109.059 17.3085 109.392 18.9815C109.725 20.6545 110.546 22.1912 111.752 23.3974C112.958 24.6035 114.495 25.4249 116.168 25.7577C117.841 26.0905 119.575 25.9197 121.151 25.2669C122.727 24.6142 124.074 23.5087 125.022 22.0905C125.969 20.6722 126.475 19.0047 126.475 17.299C126.471 15.0132 125.562 12.8221 123.945 11.2062C122.328 9.59036 120.136 8.68169 117.851 8.67949V8.6745Z" fill="#1B1C21"/>
<path d="M120.248 18.188C120.011 18.1885 119.778 18.2437 119.566 18.3491C119.355 18.4545 119.17 18.6073 119.027 18.7957L116.03 17.6302C116.03 17.5902 116.042 17.552 116.042 17.512C116.04 17.4389 116.033 17.366 116.02 17.2939L119.092 15.872C119.235 16.0385 119.413 16.1723 119.612 16.2645C119.811 16.3567 120.028 16.4051 120.248 16.4065C120.556 16.4088 120.859 16.3193 121.117 16.1495C121.375 15.9796 121.577 15.737 121.697 15.4523C121.817 15.1676 121.85 14.8538 121.791 14.5505C121.732 14.2472 121.585 13.9681 121.368 13.7486C121.15 13.5292 120.873 13.3792 120.57 13.3176C120.267 13.2561 119.953 13.2858 119.667 13.4031C119.381 13.5203 119.137 13.7197 118.965 13.9761C118.792 14.2324 118.7 14.5342 118.699 14.8431C118.701 14.9167 118.709 14.9902 118.721 15.0628L115.649 16.4847C115.506 16.318 115.329 16.184 115.129 16.0918C114.93 15.9995 114.713 15.9513 114.493 15.9503C114.089 15.9635 113.705 16.1336 113.423 16.4245C113.142 16.7155 112.984 17.1046 112.984 17.5095C112.984 17.9144 113.142 18.3035 113.423 18.5945C113.705 18.8854 114.089 19.0555 114.493 19.0687C114.73 19.0683 114.963 19.0132 115.175 18.9078C115.387 18.8024 115.571 18.6495 115.714 18.461L118.711 19.6265C118.711 19.6648 118.699 19.7031 118.699 19.743C118.7 20.0493 118.793 20.3484 118.964 20.6024C119.135 20.8564 119.377 21.0541 119.661 21.1704C119.944 21.2867 120.255 21.3164 120.556 21.2558C120.856 21.1953 121.132 21.0471 121.348 20.8301C121.564 20.613 121.711 20.3368 121.77 20.0363C121.829 19.7358 121.798 19.4245 121.681 19.1417C121.563 18.8588 121.364 18.6171 121.11 18.4471C120.855 18.277 120.556 18.1863 120.249 18.1863L120.248 18.188Z" fill="white"/>
<path d="M202.094 95.9848L131.406 87.2288V22.5653C131.405 22.2572 131.469 21.9524 131.595 21.6713C131.721 21.3902 131.906 21.1392 132.137 20.9351C132.367 20.731 132.639 20.5785 132.933 20.4878C133.228 20.3971 133.538 20.3703 133.844 20.4091L202.094 28.8621V95.9848Z" fill="white"/>
<path d="M131.352 25.2407L202.256 32.2668L206.418 32.375L206.16 29.9592C206.014 29.4242 205.711 28.9448 205.292 28.5817C204.873 28.2186 204.355 27.9882 203.804 27.9196L134.732 19.1919C134.298 19.137 133.857 19.1759 133.44 19.3062C133.022 19.4365 132.638 19.655 132.312 19.9469C131.986 20.2389 131.727 20.5975 131.552 20.9983C131.377 21.3992 131.29 21.833 131.297 22.2704L131.352 25.2407Z" fill="white"/>
<path d="M202.094 33.0809C201.392 27.5866 206.796 26.2546 206.688 33.0809H202.094Z" fill="url(#paint7_linear_989_79435)"/>
<path opacity="0.4" d="M197.963 37.5049L173.781 34.4497V31.8557L197.963 34.9109V37.5049Z" fill="url(#paint8_linear_989_79435)"/>
<path opacity="0.4" d="M197.963 42.0435L173.781 38.99V36.396L197.963 39.4495V42.0435Z" fill="url(#paint9_linear_989_79435)"/>
<path opacity="0.4" d="M197.963 46.2591L173.781 43.2055V40.6099L197.963 43.6651V46.2591Z" fill="url(#paint10_linear_989_79435)"/>
<path opacity="0.4" d="M197.963 50.6363L173.781 47.5828V44.9888L197.963 48.0423V50.6363Z" fill="url(#paint11_linear_989_79435)"/>
<path opacity="0.4" d="M198.047 54.8619L173.863 51.8084V49.2144L198.047 52.2679V54.8619Z" fill="url(#paint12_linear_989_79435)"/>
<path opacity="0.4" d="M198.047 59.4007L173.863 56.3472V53.7532L198.047 56.8067V59.4007Z" fill="url(#paint13_linear_989_79435)"/>
<path opacity="0.4" d="M198.047 63.6163L173.863 60.5627V57.9688L198.047 61.0223V63.6163Z" fill="url(#paint14_linear_989_79435)"/>
<path opacity="0.4" d="M198.047 67.9935L173.863 64.9399V62.3459L198.047 65.3995V67.9935Z" fill="url(#paint15_linear_989_79435)"/>
<path opacity="0.4" d="M198.096 72.9718L135.402 65.0549V62.4609L198.096 70.3778V72.9718Z" fill="url(#paint16_linear_989_79435)"/>
<path opacity="0.4" d="M198.203 77.6336L135.508 69.7151V67.1211L198.203 75.0396V77.6336Z" fill="url(#paint17_linear_989_79435)"/>
<path opacity="0.4" d="M198.047 82.3688L135.352 74.4519V71.8579L198.047 79.7748V82.3688Z" fill="url(#paint18_linear_989_79435)"/>
<path opacity="0.4" d="M198.149 87.0306L135.453 79.1121V76.5181L198.149 84.4366V87.0306Z" fill="url(#paint19_linear_989_79435)"/>
<path opacity="0.4" d="M197.963 91.7674L135.219 84.0669V81.5945L197.963 89.2949V91.7674Z" fill="url(#paint20_linear_989_79435)"/>
<path d="M171.65 64.6618L135.297 60.0699V26.4294L171.65 31.0197V64.6618Z" fill="white"/>
<path opacity="0.6" d="M171.65 64.6621L135.297 60.0701V26.4297L171.65 31.02V64.6621Z" fill="url(#paint21_linear_989_79435)"/>
<path d="M135.35 52.581C135.399 52.156 135.591 51.7603 135.895 51.4588L146.617 40.7765C146.971 40.4243 147.45 40.2266 147.949 40.2266C148.448 40.2266 148.927 40.4243 149.281 40.7765L154.157 45.6465C154.499 45.9872 154.958 46.1845 155.44 46.1981C155.922 46.2117 156.391 46.0406 156.751 45.7197L157.108 45.4001C157.479 45.069 157.965 44.8976 158.462 44.9232C158.959 44.9487 159.425 45.1692 159.76 45.5366L169.485 56.184C169.835 56.5669 171.65 58.2801 171.611 58.798C171.556 62.2028 171.646 64.6586 171.646 64.6586L135.297 60.07L135.35 52.581Z" fill="url(#paint22_linear_989_79435)"/>
<path d="M165.727 39.9474C167.49 39.9474 168.919 38.5184 168.919 36.7557C168.919 34.9929 167.49 33.564 165.727 33.564C163.964 33.564 162.535 34.9929 162.535 36.7557C162.535 38.5184 163.964 39.9474 165.727 39.9474Z" fill="white"/>
<path d="M113.558 109.932H79.3635C77.3635 109.932 75.7422 111.553 75.7422 113.553V136.788C75.7422 138.788 77.3635 140.409 79.3635 140.409H113.558C115.558 140.409 117.18 138.788 117.18 136.788V113.553C117.18 111.553 115.558 109.932 113.558 109.932Z" fill="white"/>
<path opacity="0.6" d="M113.558 109.932H79.3635C77.3635 109.932 75.7422 111.553 75.7422 113.553V136.788C75.7422 138.788 77.3635 140.409 79.3635 140.409H113.558C115.558 140.409 117.18 138.788 117.18 136.788V113.553C117.18 111.553 115.558 109.932 113.558 109.932Z" fill="url(#paint23_linear_989_79435)"/>
<path d="M116.604 109.924H76.2934C75.6654 109.924 75.1562 110.433 75.1562 111.061V113.86C75.1562 114.488 75.6654 114.997 76.2934 114.997H116.604C117.232 114.997 117.741 114.488 117.741 113.86V111.061C117.741 110.433 117.232 109.924 116.604 109.924Z" fill="white"/>
<path opacity="0.6" d="M116.604 109.924H76.2934C75.6654 109.924 75.1562 110.433 75.1562 111.061V113.86C75.1562 114.488 75.6654 114.997 76.2934 114.997H116.604C117.232 114.997 117.741 114.488 117.741 113.86V111.061C117.741 110.433 117.232 109.924 116.604 109.924Z" fill="url(#paint24_linear_989_79435)"/>
<path d="M116.742 115.247H76.1551C75.8185 115.241 75.4979 115.102 75.2637 114.86C75.0296 114.618 74.9011 114.293 74.9064 113.956V110.959C74.9015 110.623 75.0302 110.298 75.2642 110.056C75.4983 109.814 75.8186 109.675 76.1551 109.669H101.129C101.196 109.669 101.259 109.695 101.306 109.742C101.353 109.789 101.379 109.852 101.379 109.919C101.379 109.985 101.353 110.048 101.306 110.095C101.259 110.142 101.196 110.168 101.129 110.168H76.1551C75.9511 110.175 75.7578 110.261 75.6174 110.409C75.477 110.557 75.401 110.755 75.4059 110.959V113.956C75.401 114.16 75.477 114.358 75.6174 114.506C75.7578 114.654 75.9511 114.741 76.1551 114.747H116.742C116.808 114.747 116.872 114.773 116.918 114.82C116.965 114.867 116.992 114.931 116.992 114.997C116.992 115.063 116.965 115.127 116.918 115.173C116.872 115.22 116.808 115.247 116.742 115.247Z" fill="white"/>
<path d="M90.5042 139.805C90.4714 139.804 90.4391 139.797 90.4089 139.784C90.3788 139.771 90.3515 139.753 90.3286 139.729C90.3057 139.706 90.2877 139.678 90.2756 139.647C90.2634 139.617 90.2574 139.584 90.2578 139.552L90.6491 115.909C90.65 115.844 90.6764 115.781 90.7228 115.735C90.7692 115.689 90.8318 115.663 90.8972 115.663C90.9636 115.664 91.0267 115.692 91.0729 115.739C91.1191 115.787 91.1445 115.851 91.1436 115.918L90.7523 139.56C90.7514 139.625 90.7249 139.687 90.6785 139.733C90.6321 139.779 90.5695 139.805 90.5042 139.805Z" fill="white"/>
<path d="M114.719 136.808C115.118 136.405 117.426 129.227 117.426 129.227L121.985 132.479L116.99 139.195L114.719 136.808Z" fill="white"/>
<path d="M116.983 139.445C116.949 139.445 116.915 139.438 116.884 139.425C116.853 139.411 116.825 139.392 116.801 139.367L114.534 136.974C114.49 136.928 114.465 136.866 114.465 136.802C114.465 136.738 114.49 136.676 114.534 136.63C114.827 136.27 116.314 131.85 117.183 129.137C117.195 129.098 117.216 129.062 117.245 129.033C117.274 129.004 117.31 128.983 117.349 128.971C117.387 128.958 117.427 128.955 117.466 128.961C117.505 128.967 117.542 128.981 117.574 129.004L122.133 132.258C122.16 132.277 122.183 132.302 122.201 132.33C122.218 132.359 122.23 132.391 122.234 132.424C122.239 132.457 122.238 132.49 122.23 132.523C122.222 132.555 122.207 132.585 122.188 132.612L117.193 139.33C117.171 139.359 117.143 139.383 117.111 139.4C117.079 139.418 117.044 139.428 117.008 139.43L116.983 139.445ZM115.027 136.771L116.96 138.806L121.622 132.531L117.557 129.627C116.971 131.437 115.559 135.721 115.027 136.771Z" fill="#1B1C21"/>
<path d="M122.933 145.882L119.901 145.863C118.913 145.858 117.942 145.607 117.075 145.134C116.209 144.66 115.473 143.979 114.934 143.151L111.937 138.404C111.741 138.095 111.611 137.747 111.555 137.385C111.499 137.022 111.518 136.652 111.612 136.297C111.706 135.943 111.872 135.611 112.1 135.324C112.328 135.036 112.612 134.799 112.936 134.627C114.188 133.961 115.499 133.315 115.807 133.343C116.429 133.403 116.682 136.353 116.682 136.353L119.383 136.458C119.383 136.458 120.715 142.006 121.892 142.637C122.646 143.056 123.283 143.658 123.745 144.387C123.84 144.533 123.894 144.702 123.901 144.876C123.908 145.05 123.868 145.223 123.784 145.376C123.701 145.529 123.578 145.657 123.428 145.746C123.278 145.835 123.107 145.882 122.933 145.882Z" fill="#1B1C21"/>
<path d="M122.629 144.948H122.591L118.443 144.323C117.947 144.249 117.474 144.066 117.057 143.787C116.641 143.507 116.291 143.139 116.034 142.708L112.371 136.586C112.354 136.558 112.343 136.527 112.339 136.494C112.334 136.462 112.336 136.429 112.344 136.397C112.352 136.365 112.366 136.335 112.385 136.309C112.405 136.282 112.43 136.26 112.458 136.243C112.486 136.227 112.517 136.215 112.55 136.211C112.582 136.206 112.615 136.208 112.647 136.216C112.679 136.224 112.709 136.238 112.735 136.258C112.762 136.277 112.784 136.302 112.801 136.33L116.464 142.452C116.683 142.819 116.981 143.133 117.336 143.371C117.692 143.61 118.095 143.766 118.518 143.829L122.666 144.453C122.732 144.458 122.794 144.489 122.837 144.539C122.88 144.59 122.902 144.655 122.897 144.721C122.892 144.788 122.861 144.849 122.811 144.893C122.761 144.936 122.695 144.958 122.629 144.953V144.948Z" fill="white"/>
<path d="M117.507 140.342C117.445 140.344 117.385 140.324 117.338 140.284C117.291 140.244 117.26 140.188 117.252 140.127C117.244 140.066 117.259 140.004 117.294 139.953C117.329 139.903 117.382 139.867 117.442 139.853L119.751 139.223C119.783 139.213 119.817 139.209 119.851 139.212C119.885 139.215 119.917 139.225 119.947 139.241C119.977 139.257 120.003 139.279 120.024 139.305C120.046 139.332 120.061 139.362 120.07 139.395C120.079 139.428 120.081 139.462 120.076 139.495C120.072 139.529 120.06 139.561 120.043 139.59C120.025 139.619 120.002 139.644 119.974 139.664C119.947 139.684 119.916 139.697 119.882 139.705L117.571 140.334C117.55 140.34 117.528 140.343 117.507 140.342Z" fill="white"/>
<path d="M118.711 141.53C118.645 141.538 118.578 141.519 118.526 141.478C118.473 141.436 118.439 141.376 118.431 141.31C118.424 141.244 118.442 141.177 118.483 141.124C118.525 141.072 118.585 141.038 118.651 141.03L120.201 140.652C120.234 140.642 120.268 140.639 120.302 140.643C120.336 140.647 120.368 140.657 120.398 140.674C120.427 140.691 120.453 140.714 120.473 140.741C120.494 140.768 120.508 140.799 120.517 140.832C120.525 140.865 120.526 140.899 120.52 140.933C120.515 140.966 120.502 140.998 120.484 141.027C120.465 141.055 120.441 141.08 120.413 141.099C120.385 141.117 120.353 141.13 120.32 141.137L118.769 141.516C118.751 141.523 118.731 141.528 118.711 141.53Z" fill="white"/>
<path d="M130.273 135.438L135.566 140.755L138.373 139.725L133.493 132.92L130.273 135.438Z" fill="white"/>
<path d="M135.565 141.005C135.499 141.005 135.436 140.978 135.388 140.932L130.096 135.614C130.071 135.589 130.052 135.558 130.039 135.525C130.027 135.492 130.022 135.456 130.024 135.421C130.026 135.386 130.035 135.352 130.052 135.321C130.068 135.29 130.091 135.262 130.119 135.241L133.339 132.724C133.365 132.703 133.395 132.688 133.428 132.679C133.46 132.671 133.494 132.669 133.527 132.674C133.56 132.679 133.592 132.69 133.621 132.708C133.649 132.725 133.674 132.748 133.694 132.775L138.572 139.58C138.595 139.611 138.61 139.647 138.616 139.685C138.623 139.723 138.62 139.761 138.608 139.798C138.598 139.836 138.578 139.871 138.552 139.9C138.525 139.928 138.492 139.951 138.455 139.965L135.65 140.995C135.622 141.003 135.594 141.007 135.565 141.005ZM130.648 135.461L135.63 140.471L137.977 139.608L133.44 133.281L130.648 135.461Z" fill="#1B1C21"/>
<path d="M133.895 139.923C133.895 139.923 133.639 142.186 134.074 144.185C134.191 144.702 134.481 145.163 134.895 145.493C135.31 145.823 135.825 146.002 136.355 146H149.341C149.544 145.997 149.74 145.932 149.905 145.815C150.07 145.698 150.196 145.533 150.265 145.342C150.334 145.152 150.344 144.945 150.293 144.749C150.242 144.553 150.132 144.378 149.979 144.245C147.67 142.309 143.421 139.355 138.196 138.488L136.739 140.526L133.895 139.923Z" fill="#1B1C21"/>
<path d="M148.727 144.467H135.265C135.199 144.467 135.136 144.44 135.089 144.393C135.042 144.347 135.016 144.283 135.016 144.217C135.016 144.151 135.042 144.087 135.089 144.04C135.136 143.993 135.199 143.967 135.265 143.967H148.727C148.793 143.967 148.856 143.993 148.903 144.04C148.95 144.087 148.976 144.151 148.976 144.217C148.976 144.283 148.95 144.347 148.903 144.393C148.856 144.44 148.793 144.467 148.727 144.467Z" fill="white"/>
<path d="M141.214 142.072C141.181 142.072 141.149 142.066 141.119 142.052C141.088 142.04 141.059 142.022 141.035 141.998C141.011 141.975 140.992 141.946 140.979 141.915C140.967 141.884 140.96 141.851 140.961 141.817C140.962 141.783 140.969 141.75 140.983 141.719L141.695 139.991C141.707 139.96 141.726 139.932 141.749 139.908C141.772 139.884 141.8 139.865 141.83 139.852C141.861 139.839 141.894 139.832 141.927 139.832C141.96 139.832 141.993 139.838 142.024 139.851C142.055 139.864 142.082 139.883 142.106 139.906C142.129 139.93 142.148 139.958 142.16 139.989C142.172 140.02 142.178 140.053 142.178 140.086C142.177 140.119 142.17 140.152 142.157 140.183L141.444 141.911C141.427 141.958 141.395 141.999 141.354 142.028C141.313 142.056 141.264 142.072 141.214 142.072Z" fill="white"/>
<path d="M143.556 142.527C143.516 142.526 143.477 142.517 143.441 142.498C143.406 142.48 143.375 142.453 143.352 142.421C143.329 142.388 143.313 142.351 143.308 142.311C143.302 142.272 143.305 142.232 143.318 142.194L143.834 140.634C143.855 140.571 143.899 140.519 143.959 140.489C144.018 140.459 144.086 140.454 144.149 140.475C144.212 140.495 144.264 140.54 144.294 140.6C144.324 140.659 144.329 140.727 144.308 140.79L143.792 142.35C143.777 142.401 143.745 142.445 143.703 142.477C143.66 142.509 143.609 142.526 143.556 142.527Z" fill="white"/>
<path d="M102.257 98.2225C102.257 98.2225 126.447 95.4071 133.639 101.634C140.832 107.861 122.284 134.643 122.284 134.643L116.419 130.293L121.983 111.369L99.6211 105.007L102.257 98.2225Z" fill="#1B1C21"/>
<path d="M88.9409 110.546C92.454 111.662 98.7408 113.104 107.528 112.984C108.753 112.966 109.957 113.29 111.007 113.921C112.056 114.552 112.908 115.464 113.466 116.554C116.068 121.657 121.702 130.849 130.876 136.808L135.26 134.447L124.073 109.266C123.567 108.128 122.838 107.104 121.929 106.253C121.02 105.403 119.949 104.743 118.78 104.314L96.6114 96.1828C96.6114 96.1828 89.7368 94.2615 86.3669 100.398C85.7658 101.494 84.647 99.5344 84.3806 100.418C83.4682 103.45 85.9223 109.589 88.9409 110.546Z" fill="#1B1C21"/>
<path d="M129.131 120.892C129.082 120.892 129.035 120.878 128.995 120.852C128.954 120.826 128.922 120.788 128.903 120.744L123.848 109.366C123.353 108.26 122.643 107.264 121.758 106.436C120.874 105.609 119.833 104.966 118.696 104.546L108.079 100.653C108.021 100.628 107.975 100.582 107.95 100.524C107.925 100.466 107.923 100.401 107.944 100.341C107.965 100.282 108.008 100.232 108.064 100.203C108.12 100.174 108.185 100.167 108.246 100.184L118.861 104.078C120.062 104.52 121.163 105.199 122.098 106.073C123.032 106.948 123.783 108 124.304 109.169L129.359 120.548C129.376 120.586 129.383 120.627 129.38 120.669C129.376 120.71 129.363 120.75 129.34 120.785C129.318 120.82 129.286 120.849 129.25 120.869C129.213 120.889 129.172 120.899 129.131 120.899V120.892Z" fill="white"/>
<path d="M123.229 130.676C123.196 130.676 123.162 130.669 123.132 130.656C123.101 130.642 123.073 130.623 123.049 130.599C122.03 129.539 121.028 128.401 120.071 127.218C120.05 127.192 120.035 127.163 120.026 127.131C120.016 127.1 120.014 127.067 120.017 127.034C120.021 127.001 120.031 126.97 120.046 126.941C120.062 126.912 120.083 126.887 120.109 126.866C120.135 126.846 120.164 126.83 120.195 126.821C120.227 126.812 120.26 126.809 120.293 126.813C120.325 126.816 120.357 126.826 120.386 126.842C120.414 126.858 120.44 126.879 120.46 126.905C121.408 128.07 122.4 129.202 123.409 130.253C123.443 130.288 123.466 130.333 123.475 130.381C123.483 130.429 123.478 130.479 123.459 130.524C123.44 130.569 123.408 130.607 123.367 130.634C123.326 130.661 123.278 130.676 123.229 130.676Z" fill="white"/>
<path d="M120.267 127.318C120.23 127.318 120.193 127.309 120.159 127.293C120.125 127.277 120.096 127.253 120.072 127.224C119.601 126.642 119.133 126.039 118.68 125.429C118.658 125.403 118.642 125.373 118.632 125.341C118.622 125.308 118.619 125.274 118.623 125.24C118.627 125.206 118.637 125.173 118.654 125.143C118.671 125.114 118.694 125.088 118.722 125.068C118.749 125.047 118.78 125.033 118.813 125.025C118.847 125.017 118.881 125.016 118.915 125.022C118.948 125.028 118.98 125.041 119.009 125.06C119.037 125.078 119.061 125.103 119.08 125.131C119.53 125.734 119.994 126.334 120.462 126.911C120.492 126.948 120.51 126.992 120.515 127.039C120.521 127.086 120.513 127.133 120.493 127.176C120.472 127.218 120.44 127.254 120.4 127.279C120.36 127.304 120.314 127.318 120.267 127.318Z" fill="white"/>
<path d="M133.787 62.8403L127.485 66.2418C127.485 66.2418 123.622 76.3165 118.093 76.9242C112.564 77.5319 107.093 69.8764 107.093 69.8764L103.43 77.7284C103.43 77.7284 108.819 86.0631 117.367 84.7212C125.915 83.3792 128.236 70.5424 128.236 70.5424C128.236 70.5424 130.26 70.7422 131.023 68.7676C131.674 67.0876 131.403 66.1037 131.403 66.1037C131.403 66.1037 134.439 64.4803 133.787 62.8403Z" fill="white"/>
<path d="M115.519 85.1209C111.885 85.1209 108.953 83.4559 107.028 81.9308C105.561 80.7743 104.275 79.405 103.212 77.8683C103.189 77.8328 103.175 77.792 103.172 77.7497C103.17 77.7075 103.177 77.6652 103.195 77.6269L106.858 69.7733C106.877 69.7337 106.906 69.6998 106.942 69.6747C106.978 69.6496 107.019 69.6342 107.063 69.6301C107.106 69.6262 107.15 69.6336 107.189 69.6517C107.229 69.6698 107.263 69.698 107.288 69.7333C107.343 69.8083 112.737 77.2556 118.058 76.6729C123.38 76.0901 127.206 66.2486 127.244 66.1503C127.265 66.094 127.306 66.0473 127.359 66.0188L133.661 62.6173C133.692 62.6009 133.726 62.5912 133.762 62.5886C133.797 62.586 133.832 62.5907 133.865 62.6023C133.899 62.6147 133.929 62.6338 133.954 62.6584C133.979 62.6831 133.999 62.7128 134.012 62.7455C134.651 64.3539 132.322 65.849 131.671 66.2269C131.724 66.6099 131.761 67.5323 131.248 68.8559C131.061 69.3702 130.734 69.8221 130.304 70.1604C129.874 70.4987 129.358 70.7101 128.814 70.7706C128.687 70.7879 128.559 70.7984 128.431 70.8022C127.947 73.0259 127.204 75.1854 126.22 77.2373C124.022 81.7327 120.969 84.4083 117.396 84.9693C116.775 85.0687 116.148 85.1193 115.519 85.1209ZM103.708 77.7135C104.391 78.6941 109.574 85.7053 117.319 84.4799C125.596 83.1795 127.975 70.6258 127.99 70.4942C127.999 70.4435 128.023 70.3969 128.06 70.3608C128.097 70.3247 128.144 70.3009 128.195 70.2928C128.223 70.2878 128.253 70.2878 128.281 70.2928C128.389 70.3027 130.113 70.4193 130.789 68.6744C131.396 67.106 131.162 66.177 131.16 66.1603C131.146 66.1059 131.15 66.0483 131.172 65.9967C131.195 65.9451 131.234 65.9025 131.283 65.8756C132.011 65.486 133.719 64.3089 133.614 63.2117L127.677 66.4167C127.259 67.4773 123.514 76.573 118.112 77.1707C117.891 77.1953 117.668 77.2076 117.446 77.2073C112.691 77.2073 108.237 71.8062 107.135 70.3644L103.708 77.7135Z" fill="#1B1C21"/>
<path d="M128.05 69.7217C127.99 69.7225 127.931 69.7014 127.885 69.6623C127.839 69.6232 127.809 69.5687 127.8 69.509C127.791 69.4492 127.804 69.3882 127.836 69.3374C127.869 69.2865 127.919 69.2491 127.977 69.2322C127.987 69.2322 129.004 68.8992 129.116 68.0917C129.199 67.5833 129.446 67.1157 129.818 66.7598C130.026 66.5547 130.155 66.2829 130.183 65.9922L128.413 66.7131C128.382 66.7279 128.349 66.7362 128.314 66.7374C128.28 66.7387 128.246 66.7329 128.214 66.7205C128.182 66.708 128.154 66.6892 128.129 66.6651C128.105 66.641 128.086 66.6122 128.073 66.5805C128.061 66.5487 128.055 66.5147 128.056 66.4805C128.057 66.4463 128.065 66.4127 128.079 66.3818C128.094 66.3508 128.114 66.3232 128.14 66.3006C128.166 66.2779 128.196 66.2608 128.228 66.2503L130.353 65.4028C130.391 65.3876 130.432 65.3819 130.472 65.3862C130.513 65.3905 130.552 65.4046 130.586 65.4275C130.619 65.4503 130.647 65.4811 130.666 65.5172C130.686 65.5532 130.696 65.5934 130.696 65.6343V65.8807C130.697 66.1128 130.651 66.3427 130.562 66.5571C130.473 66.7715 130.343 66.966 130.178 67.1294C129.884 67.4067 129.688 67.7708 129.617 68.1683C129.462 69.2971 128.185 69.7017 128.132 69.7184C128.105 69.7233 128.077 69.7244 128.05 69.7217Z" fill="#1B1C21"/>
<path d="M87.4222 66.4067C90.1944 65.754 91.3499 65.7407 101.425 66.1103C103.887 66.2002 106.816 69.2904 107.105 71.7378C106.323 74.0838 102.712 85.6719 109.017 94.7259C110.079 96.2468 111.352 97.609 112.798 98.7717C111.859 99.5293 107.533 99.1047 105.575 99.6791C102.325 100.645 102.866 99.9339 100.247 100.012C93.3179 100.219 91.4698 109.023 86.9944 108.054C85.7989 107.794 84.2155 106.862 82.7304 103.735C81.7697 100.781 81.0972 97.7411 80.7225 94.6576C79.592 85.3339 81.4417 77.5652 83.095 72.6919C83.5795 71.1534 84.1506 67.1742 87.4222 66.4067Z" fill="url(#paint25_linear_989_79435)"/>
<path d="M112.044 73.4012C112.044 73.4012 106.753 66.7414 102.086 66.2036L104.387 83.8521L112.044 73.4012Z" fill="url(#paint26_linear_989_79435)"/>
<path d="M78.1133 83.093C78.1133 83.093 78.5978 78.4761 78.9058 75.4192C79.5884 68.6345 87.2938 66.3918 87.2938 66.3918L90.2059 82.9432L78.1133 83.093Z" fill="url(#paint27_linear_989_79435)"/>
<path d="M80.2656 82.6967C80.2656 82.6967 83.2326 95.442 85.6801 99.5894C88.6021 104.543 103.345 97.8711 103.345 97.8711L105.06 96.9005C105.634 96.5763 106.269 96.3748 106.925 96.3086C107.58 96.2424 108.243 96.313 108.87 96.5159L111.64 97.4099C111.64 97.4099 109.352 94.6678 107.408 93.6188C106.495 93.1194 105.313 93.5922 104.314 94.2249C102.586 95.3009 100.576 95.8366 98.5418 95.7633L92.6762 95.5885C92.2005 95.5743 91.7465 95.3859 91.4005 95.059C91.0546 94.7321 90.8408 94.2895 90.7998 93.8153L88.9234 81.8643L80.2656 82.6967Z" fill="white"/>
<path d="M90.1486 101.677C88.0591 101.677 86.3192 101.158 85.4651 99.7241C83.026 95.5917 80.1373 83.2827 80.0224 82.7616C80.0141 82.7269 80.0134 82.6908 80.0203 82.6559C80.0273 82.6209 80.0416 82.5878 80.0625 82.5589C80.0834 82.53 80.1102 82.5059 80.1412 82.4883C80.1722 82.4707 80.2066 82.46 80.2422 82.4569L88.8999 81.6244C88.9633 81.6177 89.0268 81.6358 89.0771 81.675C89.1273 81.7141 89.1605 81.7711 89.1697 81.8342L91.0461 93.7819C91.0469 93.7874 91.0469 93.793 91.0461 93.7986C91.0822 94.2119 91.2688 94.5976 91.5705 94.8824C91.8722 95.1672 92.268 95.3314 92.6827 95.3436L98.5467 95.5185C100.532 95.5942 102.494 95.0721 104.179 94.02C105.548 93.1526 106.677 92.9461 107.524 93.4056C109.489 94.4645 111.735 97.1435 111.83 97.2567C111.864 97.2982 111.885 97.3499 111.887 97.4039C111.89 97.458 111.875 97.5115 111.845 97.5564C111.815 97.6013 111.771 97.6351 111.72 97.6528C111.669 97.6705 111.613 97.6712 111.562 97.6546L108.791 96.7605C108.197 96.5694 107.569 96.5034 106.948 96.5667C106.327 96.6301 105.725 96.8213 105.182 97.1285L103.467 98.0991L103.447 98.1091C103.009 98.2973 95.4732 101.677 90.1486 101.677ZM80.5752 82.9264C81.0247 84.8111 83.6936 95.7466 85.903 99.4711C88.6485 104.123 102.787 97.8594 103.24 97.6563L104.945 96.6923C105.549 96.351 106.217 96.1384 106.907 96.0679C107.597 95.9974 108.294 96.0705 108.954 96.2827L110.856 96.897C110.055 96.0246 108.586 94.5395 107.296 93.8435C106.45 93.3857 105.285 93.9151 104.456 94.4396C102.687 95.546 100.626 96.0953 98.5417 96.0163L92.6777 95.8498C92.1414 95.8336 91.6296 95.6212 91.2393 95.253C90.8491 94.8848 90.6073 94.3863 90.5599 93.8518L88.7284 82.1439L80.5752 82.9264Z" fill="#1B1C21"/>
<path d="M92.84 60.328C92.3312 60.6086 91.7555 60.745 91.175 60.7226C89.7548 60.641 88.844 59.4972 88.6642 59.2674C87.7235 58.0853 87.269 56.144 88.0665 55.0035C88.6409 54.1827 89.3635 54.4924 90.0245 53.5733C90.7754 52.531 90.0062 51.6819 90.6905 50.7695C91.4863 49.7189 93.2429 49.7988 93.5592 49.8138C94.6431 49.8638 94.773 50.3999 95.7969 50.3733C96.8209 50.3466 96.9807 49.8188 97.9414 49.8138C98.7039 49.8138 99.8161 50.1335 100.314 51.0159C100.938 52.1231 100.299 53.5816 99.558 54.3458C98.6673 55.2699 98.0396 54.7737 96.7909 55.5263C94.6431 56.8366 95.1592 59.1592 92.84 60.328Z" fill="#1B1C21"/>
<path d="M96.8636 65.2495L96.2775 61.6066C96.7259 61.5429 97.1705 61.4551 97.6095 61.3435C98.6085 60.844 98.3304 58.3466 98.3304 58.3466L98.8865 57.6806L97.2299 53.9761C95.4717 55.4412 94.844 54.001 93.1041 54.7236C91.3642 55.4462 92.3083 57.3876 92.3083 57.3876C92.3083 57.3876 90.8864 56.7615 91.1911 58.1368C91.4192 59.1757 92.1767 59.2407 92.6746 59.199L91.7505 65.4343C91.7505 65.4343 88.7652 66.2834 88.1875 66.4333C88.9384 66.3983 94.1347 68.6576 100.027 66.1885L96.8636 65.2495Z" fill="white"/>
<path d="M94.1901 67.5938C92.4454 67.5724 90.7107 67.3267 89.0287 66.8629C88.7565 66.7812 88.4781 66.7216 88.1962 66.6847C88.13 66.6946 88.0625 66.6779 88.0087 66.638C87.9548 66.5982 87.919 66.5387 87.909 66.4724C87.8991 66.4062 87.9159 66.3387 87.9557 66.2849C87.9955 66.231 88.0551 66.1952 88.1213 66.1852C88.6208 66.0554 90.9035 65.406 91.5245 65.2295L92.3853 59.4371C91.4279 59.3955 91.0733 58.7429 90.9468 58.1718C90.8402 57.6906 90.9101 57.3393 91.1565 57.1428C91.2651 57.0673 91.3883 57.0152 91.5182 56.99C91.6481 56.9648 91.7818 56.9669 91.9108 56.9963C91.764 56.5176 91.7693 56.0051 91.9258 55.5295C92.0222 55.2881 92.1687 55.0699 92.3555 54.8891C92.5423 54.7083 92.7652 54.5691 93.0096 54.4806C93.8255 54.1476 94.4265 54.2425 94.956 54.3307C95.6219 54.4439 96.1581 54.5322 97.0704 53.7713C97.1001 53.7466 97.135 53.7291 97.1726 53.7202C97.2101 53.7112 97.2492 53.7111 97.2868 53.7198C97.3244 53.7285 97.3594 53.7458 97.3892 53.7704C97.419 53.7949 97.4427 53.826 97.4584 53.8612L99.1134 57.5674C99.1325 57.6099 99.1394 57.6569 99.1332 57.7031C99.127 57.7493 99.108 57.7928 99.0784 57.8288L98.5906 58.4115C98.6388 58.9593 98.7571 61.0455 97.7215 61.5583C97.3427 61.668 96.9566 61.7504 96.566 61.8047L97.0804 65.048L100.089 65.9438C100.138 65.9589 100.182 65.9887 100.213 66.0292C100.245 66.0696 100.264 66.1188 100.267 66.1702C100.27 66.2215 100.256 66.2724 100.229 66.3158C100.201 66.3593 100.161 66.3933 100.114 66.4133C98.238 67.1983 96.2237 67.5997 94.1901 67.5938ZM89.2418 66.4017C91.025 66.8529 94.9193 67.7902 99.2549 66.2218L96.7941 65.4893C96.7507 65.4745 96.7121 65.448 96.6828 65.4127C96.6534 65.3775 96.6343 65.3349 96.6276 65.2895L96.0415 61.6465C96.0364 61.6133 96.038 61.5793 96.0463 61.5467C96.0546 61.5141 96.0694 61.4835 96.0898 61.4567C96.1301 61.4033 96.19 61.3679 96.2563 61.3585C96.3962 61.3435 97.3768 61.1687 97.5117 61.1154C98.191 60.7824 98.1544 58.9726 98.0878 58.3682C98.0843 58.3347 98.0875 58.3008 98.0972 58.2685C98.1069 58.2362 98.1229 58.2062 98.1444 58.1801L98.5989 57.6373L97.1371 54.3657C96.1897 55.0517 95.5254 54.9401 94.8794 54.8319C94.3699 54.747 93.8904 54.6654 93.2144 54.9501C93.0336 55.0134 92.8682 55.1142 92.729 55.2459C92.5899 55.3776 92.4801 55.5372 92.4069 55.7143C92.1405 56.4186 92.5418 57.2594 92.5468 57.2677C92.569 57.3139 92.5766 57.3657 92.5686 57.4163C92.5606 57.4668 92.5373 57.5138 92.5018 57.5508C92.4668 57.588 92.421 57.6133 92.3708 57.6231C92.3206 57.633 92.2686 57.6269 92.2221 57.6057C92.0057 57.5125 91.6227 57.4259 91.4862 57.5374C91.4013 57.6074 91.388 57.8022 91.4479 58.0735C91.5928 58.7312 91.969 58.9993 92.6683 58.9393C92.7059 58.9366 92.7435 58.9421 92.7787 58.9557C92.8138 58.9692 92.8455 58.9903 92.8714 59.0176C92.893 59.0463 92.9083 59.0792 92.9163 59.1142C92.9243 59.1492 92.9249 59.1855 92.9181 59.2207L91.9907 65.466C91.9833 65.5135 91.9624 65.5579 91.9305 65.5939C91.8987 65.6299 91.8571 65.656 91.8109 65.6691C91.7309 65.699 90.2924 66.107 89.2418 66.4017Z" fill="#1B1C21"/>
<path d="M95.8728 61.8848C95.4207 61.8885 94.9749 61.7783 94.5766 61.5645C94.1783 61.3506 93.8402 61.0399 93.5934 60.6611C93.5744 60.6328 93.5613 60.601 93.5551 60.5675C93.5488 60.534 93.5494 60.4996 93.5569 60.4663C93.5645 60.4331 93.5787 60.4018 93.5988 60.3742C93.6189 60.3467 93.6444 60.3236 93.6737 60.3063C93.7031 60.289 93.7357 60.2779 93.7695 60.2737C93.8033 60.2694 93.8376 60.2722 93.8703 60.2817C93.9031 60.2912 93.9335 60.3073 93.9597 60.3291C93.986 60.3508 94.0075 60.3777 94.023 60.408C94.262 60.7644 94.5991 61.0439 94.9935 61.2129C95.3879 61.3819 95.8228 61.4331 96.2457 61.3604C96.2785 61.356 96.3118 61.3581 96.3438 61.3666C96.3758 61.3751 96.4058 61.3899 96.4321 61.41C96.4583 61.4301 96.4804 61.4551 96.497 61.4838C96.5136 61.5124 96.5244 61.544 96.5287 61.5768C96.5331 61.6096 96.531 61.6429 96.5225 61.6749C96.514 61.7069 96.4993 61.7369 96.4792 61.7631C96.4591 61.7894 96.434 61.8115 96.4054 61.8281C96.3767 61.8447 96.3451 61.8555 96.3123 61.8598C96.1666 61.8785 96.0197 61.8868 95.8728 61.8848Z" fill="#1B1C21"/>
<path d="M96.5262 99.1897H131.768V99.7558C131.768 100.109 131.628 100.448 131.378 100.698C131.128 100.947 130.79 101.088 130.436 101.088H97.8515C97.4982 101.088 97.1594 100.947 96.9097 100.698C96.6599 100.448 96.5195 100.109 96.5195 99.7558V99.1897H96.5262Z" fill="white"/>
<path opacity="0.6" d="M96.5262 99.1899H131.768V99.756C131.768 100.109 131.628 100.448 131.378 100.698C131.128 100.948 130.79 101.088 130.436 101.088H97.8515C97.4982 101.088 97.1594 100.948 96.9097 100.698C96.6599 100.448 96.5195 100.109 96.5195 99.756V99.1899H96.5262Z" fill="url(#paint28_linear_989_79435)"/>
<path d="M130.44 101.332H97.8485C97.4309 101.332 97.0305 101.166 96.7352 100.871C96.44 100.575 96.2739 100.175 96.2734 99.7574V99.1897C96.2734 99.1234 96.2997 99.0599 96.3466 99.0131C96.3934 98.9663 96.4569 98.9399 96.5232 98.9399H131.765C131.832 98.9399 131.895 98.9663 131.942 99.0131C131.989 99.0599 132.015 99.1234 132.015 99.1897V99.7574C132.014 100.175 131.848 100.575 131.553 100.87C131.258 101.165 130.857 101.332 130.44 101.332ZM96.7729 99.4394V99.7574C96.7734 100.043 96.8868 100.316 97.0884 100.517C97.29 100.719 97.5634 100.833 97.8485 100.833H130.44C130.725 100.833 130.998 100.719 131.2 100.517C131.402 100.316 131.515 100.043 131.516 99.7574V99.4394H96.7729Z" fill="#1B1C21"/>
<path d="M131.768 99.2247H111.602L118.008 80.3658C118.202 80.0734 118.464 79.8337 118.773 79.6683C119.082 79.5029 119.428 79.417 119.778 79.4184H136.826C136.997 79.415 137.167 79.4532 137.32 79.5297C137.473 79.6063 137.606 79.7189 137.706 79.8579C137.806 79.9969 137.871 80.1582 137.895 80.3279C137.919 80.4975 137.902 80.6705 137.845 80.832C137.743 81.095 137.635 81.3548 137.547 81.6228L131.768 99.2247Z" fill="white"/>
<path opacity="0.6" d="M131.768 99.2247H111.602L118.008 80.3658C118.202 80.0734 118.464 79.8337 118.773 79.6683C119.082 79.5029 119.428 79.417 119.778 79.4184H136.826C136.997 79.415 137.167 79.4532 137.32 79.5297C137.473 79.6063 137.606 79.7189 137.706 79.8579C137.806 79.9969 137.871 80.1582 137.895 80.3279C137.919 80.4975 137.902 80.6705 137.845 80.832C137.743 81.095 137.635 81.3548 137.547 81.6228L131.768 99.2247Z" fill="url(#paint29_linear_989_79435)"/>
<path d="M131.768 99.4745H111.602C111.562 99.4747 111.523 99.4652 111.487 99.4469C111.452 99.4286 111.421 99.402 111.398 99.3693C111.374 99.3367 111.36 99.299 111.354 99.2593C111.348 99.2197 111.353 99.1793 111.366 99.1415L117.773 80.2826C117.779 80.263 117.789 80.2445 117.801 80.2276C118.015 79.899 118.309 79.6295 118.654 79.4439C119 79.2583 119.387 79.1625 119.779 79.1654H136.826C137.043 79.1628 137.257 79.2138 137.45 79.3136C137.642 79.4135 137.807 79.5593 137.93 79.7381C138.049 79.9078 138.124 80.1038 138.15 80.3092C138.176 80.5146 138.151 80.7232 138.078 80.9169C138.05 80.9918 138.02 81.0668 137.992 81.14C137.92 81.3232 137.847 81.5113 137.785 81.6978L132.005 99.2997C131.989 99.3502 131.958 99.3944 131.915 99.4259C131.873 99.4573 131.821 99.4744 131.768 99.4745ZM111.955 98.975H131.59L137.314 81.5429C137.379 81.3448 137.456 81.15 137.529 80.9602C137.557 80.8869 137.587 80.8137 137.614 80.7404C137.658 80.6227 137.673 80.4959 137.657 80.3711C137.641 80.2463 137.595 80.1273 137.522 80.0245C137.445 79.9128 137.341 79.8218 137.22 79.7594C137.1 79.697 136.966 79.6651 136.83 79.6665H119.779C119.475 79.6641 119.175 79.7366 118.906 79.8778C118.637 80.0189 118.406 80.2243 118.235 80.4757L111.955 98.975Z" fill="#1B1C21"/>
<path d="M124.284 89.0651C124.044 89.8626 124.412 90.6784 125.105 90.8965C125.798 91.1146 126.555 90.6285 126.795 89.8309C127.035 89.0334 126.668 88.2176 125.974 88.0095C125.28 87.8014 124.526 88.2676 124.284 89.0651Z" fill="white"/>
<path d="M125.719 99.4743H114.609C114.543 99.4743 114.479 99.448 114.433 99.4012C114.386 99.3544 114.359 99.2908 114.359 99.2246C114.359 99.1584 114.386 99.0948 114.433 99.048C114.479 99.0012 114.543 98.9749 114.609 98.9749H125.719C125.786 98.9749 125.849 99.0012 125.896 99.048C125.943 99.0948 125.969 99.1584 125.969 99.2246C125.969 99.2908 125.943 99.3544 125.896 99.4012C125.849 99.448 125.786 99.4743 125.719 99.4743Z" fill="white"/>
<path d="M131.368 99.4743H129.398C129.332 99.4743 129.268 99.448 129.222 99.4012C129.175 99.3544 129.148 99.2908 129.148 99.2246C129.148 99.1584 129.175 99.0948 129.222 99.048C129.268 99.0012 129.332 98.9749 129.398 98.9749H131.368C131.434 98.9749 131.498 99.0012 131.544 99.048C131.591 99.0948 131.618 99.1584 131.618 99.2246C131.618 99.2908 131.591 99.3544 131.544 99.4012C131.498 99.448 131.434 99.4743 131.368 99.4743Z" fill="white"/>
<path d="M91.7131 24.8296C91.6914 22.4787 89.7867 20.6339 87.4808 20.7638C85.2314 20.892 83.4932 22.8217 83.5481 25.1276C83.5618 26.1874 83.9834 27.2012 84.7253 27.9581C85.2775 28.5166 85.5894 29.2689 85.5944 30.0542V30.5254C85.5937 30.6165 85.6112 30.7067 85.646 30.7909C85.6807 30.8751 85.7319 30.9515 85.7966 31.0155C85.8613 31.0796 85.9382 31.1301 86.0227 31.164C86.1072 31.1979 86.1976 31.2146 86.2887 31.213L89.0641 31.1331C89.2498 31.1249 89.4249 31.0447 89.5524 30.9095C89.6798 30.7742 89.7495 30.5947 89.7468 30.4089V29.9394C89.7346 29.1542 90.0243 28.3944 90.556 27.8165C91.3128 27.0076 91.7274 25.9373 91.7131 24.8296Z" fill="white"/>
<path d="M86.2685 31.4577C86.031 31.4577 85.8028 31.3651 85.6325 31.1996C85.5415 31.1121 85.4691 31.0071 85.4196 30.891C85.3701 30.7748 85.3446 30.6499 85.3445 30.5236V30.0524C85.3411 29.332 85.0554 28.6416 84.5486 28.1294C83.7631 27.3276 83.3155 26.2548 83.2982 25.1325C83.24 22.6784 85.0697 20.6504 87.4606 20.5156C88.0301 20.4802 88.6009 20.5623 89.1373 20.7568C89.6738 20.9512 90.1645 21.254 90.5791 21.6461C91.0136 22.0541 91.3602 22.5467 91.5972 23.0936C91.8343 23.6405 91.957 24.2301 91.9577 24.8262C91.9745 25.9996 91.5352 27.1337 90.7323 27.9896C90.2465 28.521 89.9816 29.2176 89.9913 29.9376V30.4071C89.9942 30.6583 89.8991 30.9008 89.7264 31.0832C89.5536 31.2656 89.3166 31.3736 89.0656 31.3844L86.2901 31.4627L86.2685 31.4577ZM87.7054 21.0067C87.6338 21.0067 87.5622 21.0067 87.4889 21.0067C85.3644 21.1266 83.7394 22.9314 83.7927 25.1142C83.8064 26.1085 84.2023 27.0595 84.8982 27.7698C85.4973 28.3742 85.8352 29.1898 85.839 30.0408V30.512C85.8383 30.5719 85.85 30.6313 85.8732 30.6866C85.8964 30.7418 85.9306 30.7918 85.9738 30.8333C86.0136 30.8727 86.061 30.9035 86.1131 30.9238C86.1652 30.9441 86.2209 30.9536 86.2768 30.9515L89.0523 30.8716C89.1726 30.8652 89.2857 30.8122 89.3677 30.724C89.4497 30.6358 89.4942 30.5192 89.4919 30.3988V29.9292C89.4808 29.0808 89.7941 28.2602 90.3676 27.6349C91.0805 26.8741 91.4713 25.867 91.4582 24.8245C91.4582 24.2959 91.3499 23.773 91.14 23.2879C90.9301 22.8028 90.623 22.3659 90.2378 22.004C89.552 21.3603 88.6459 21.0035 87.7054 21.0067Z" fill="#1B1C21"/>
<path d="M87.7086 34.0217C87.482 34.0264 87.2567 33.9855 87.0462 33.9016C86.8356 33.8177 86.644 33.6924 86.4827 33.5331C86.3214 33.3739 86.1937 33.1838 86.1071 32.9743C86.0206 32.7648 85.9769 32.5401 85.9787 32.3134L85.9688 31.1713L89.3986 31.0747L89.4086 32.2152C89.4164 32.6784 89.2431 33.1264 88.9256 33.4638C88.6081 33.8012 88.1715 34.0014 87.7086 34.0217Z" fill="white"/>
<path d="M87.6589 34.2731C87.1621 34.2748 86.6841 34.0824 86.327 33.737C86.1362 33.5525 85.9844 33.3316 85.8806 33.0873C85.7768 32.8431 85.7231 32.5805 85.7226 32.3151L85.7109 30.9282L89.6386 30.8167L89.6519 32.2136C89.6598 32.7418 89.4614 33.2522 89.0989 33.6365C88.7364 34.0207 88.2383 34.2485 87.7106 34.2714H87.6539L87.6589 34.2731ZM86.2188 31.416V32.3118C86.2188 32.511 86.2589 32.7081 86.3367 32.8914C86.4145 33.0748 86.5284 33.2406 86.6716 33.379C86.8063 33.5103 86.9662 33.6129 87.1416 33.6807C87.317 33.7485 87.5043 33.7801 87.6922 33.7736C88.0894 33.755 88.4637 33.5824 88.7357 33.2924C89.0077 33.0024 89.156 32.6178 89.1491 32.2202L89.1407 31.3328L86.2188 31.416Z" fill="#1B1C21"/>
<path d="M87.6296 17.9866C87.564 17.9866 87.5009 17.9608 87.4542 17.9147C87.4075 17.8686 87.3807 17.8059 87.3799 17.7402L87.3516 15.063C87.3516 14.9967 87.3779 14.9332 87.4247 14.8864C87.4716 14.8395 87.5351 14.8132 87.6013 14.8132C87.6675 14.8132 87.7311 14.8395 87.7779 14.8864C87.8247 14.9332 87.851 14.9967 87.851 15.063L87.8794 17.7402C87.8796 17.773 87.8733 17.8055 87.861 17.8359C87.8486 17.8663 87.8304 17.894 87.8074 17.9173C87.7844 17.9407 87.7569 17.9592 87.7267 17.972C87.6965 17.9847 87.6641 17.9914 87.6313 17.9916L87.6296 17.9866Z" fill="url(#paint30_linear_989_79435)"/>
<path d="M77.6482 26.2981C77.5819 26.2981 77.5184 26.2718 77.4716 26.225C77.4247 26.1781 77.3984 26.1146 77.3984 26.0484C77.3984 25.9821 77.4247 25.9186 77.4716 25.8718C77.5184 25.8249 77.5819 25.7986 77.6482 25.7986L80.5669 25.7703C80.5996 25.7696 80.6322 25.7755 80.6627 25.7876C80.6932 25.7997 80.7209 25.8177 80.7443 25.8407C80.7677 25.8636 80.7863 25.891 80.799 25.9213C80.8117 25.9515 80.8183 25.9839 80.8183 26.0167C80.8187 26.0495 80.8127 26.0821 80.8005 26.1126C80.7884 26.143 80.7704 26.1708 80.7475 26.1943C80.7246 26.2178 80.6973 26.2366 80.6672 26.2495C80.637 26.2625 80.6046 26.2694 80.5718 26.2698L77.6532 26.2981H77.6482Z" fill="url(#paint31_linear_989_79435)"/>
<path d="M97.1511 26.2431H94.4372C94.371 26.2431 94.3075 26.2168 94.2606 26.17C94.2138 26.1232 94.1875 26.0596 94.1875 25.9934C94.1875 25.9272 94.2138 25.8636 94.2606 25.8168C94.3075 25.77 94.371 25.7437 94.4372 25.7437H97.1511C97.2174 25.7437 97.2809 25.77 97.3277 25.8168C97.3745 25.8636 97.4009 25.9272 97.4009 25.9934C97.4009 26.0596 97.3745 26.1232 97.3277 26.17C97.2809 26.2168 97.2174 26.2431 97.1511 26.2431Z" fill="url(#paint32_linear_989_79435)"/>
<path d="M82.0759 20.7804C82.0431 20.7805 82.0106 20.774 81.9803 20.7615C81.95 20.7489 81.9225 20.7304 81.8994 20.7072L79.8465 18.6559C79.7997 18.6091 79.7734 18.5456 79.7734 18.4795C79.7734 18.4133 79.7997 18.3498 79.8465 18.303C79.8938 18.2565 79.9575 18.2305 80.0238 18.2305C80.0901 18.2305 80.1538 18.2565 80.2011 18.303L82.254 20.3542C82.3004 20.4012 82.3264 20.4646 82.3264 20.5307C82.3264 20.5967 82.3004 20.6601 82.254 20.7072C82.2065 20.754 82.1425 20.7803 82.0759 20.7804Z" fill="url(#paint33_linear_989_79435)"/>
<path d="M92.927 20.9268C92.8644 20.9249 92.8049 20.8993 92.7605 20.8552C92.7138 20.8084 92.6875 20.7449 92.6875 20.6787C92.6875 20.6125 92.7138 20.549 92.7605 20.5022L94.8034 18.4343C94.8503 18.3897 94.9128 18.365 94.9775 18.3655C95.0423 18.366 95.1043 18.3916 95.1506 18.437C95.1968 18.4823 95.2236 18.5439 95.2253 18.6086C95.227 18.6734 95.2035 18.7362 95.1597 18.784L93.1168 20.8519C93.0922 20.877 93.0627 20.8967 93.0299 20.9096C92.9972 20.9225 92.9621 20.9284 92.927 20.9268Z" fill="url(#paint34_linear_989_79435)"/>
</g>
<defs>
<linearGradient id="paint0_linear_989_79435" x1="107.301" y1="45.4097" x2="103.11" y2="28.0556" gradientUnits="userSpaceOnUse">
<stop offset="0.15" stop-color="#EF6129"/>
<stop offset="0.2" stop-color="#F06032"/>
<stop offset="0.55" stop-color="#F85D6A"/>
<stop offset="0.81" stop-color="#FD5B8C"/>
<stop offset="0.96" stop-color="#FF5A99"/>
</linearGradient>
<linearGradient id="paint1_linear_989_79435" x1="118.058" y1="83.6803" x2="191.571" y2="38.8795" gradientUnits="userSpaceOnUse">
<stop offset="0.15" stop-color="#EF6129"/>
<stop offset="0.2" stop-color="#F06032"/>
<stop offset="0.55" stop-color="#F85D6A"/>
<stop offset="0.81" stop-color="#FD5B8C"/>
<stop offset="0.96" stop-color="#FF5A99"/>
</linearGradient>
<linearGradient id="paint2_linear_989_79435" x1="120.418" y1="83.3515" x2="188.342" y2="42.0884" gradientUnits="userSpaceOnUse">
<stop offset="0.15" stop-color="#EF6129"/>
<stop offset="0.2" stop-color="#F06032"/>
<stop offset="0.55" stop-color="#F85D6A"/>
<stop offset="0.81" stop-color="#FD5B8C"/>
<stop offset="0.96" stop-color="#FF5A99"/>
</linearGradient>
<linearGradient id="paint3_linear_989_79435" x1="67.1902" y1="123.154" x2="108.573" y2="55.2923" gradientUnits="userSpaceOnUse">
<stop offset="0.15" stop-color="#EF6129"/>
<stop offset="0.2" stop-color="#F06032"/>
<stop offset="0.55" stop-color="#F85D6A"/>
<stop offset="0.81" stop-color="#FD5B8C"/>
<stop offset="0.96" stop-color="#FF5A99"/>
</linearGradient>
<linearGradient id="paint4_linear_989_79435" x1="97.4941" y1="111.135" x2="116.301" y2="69.8419" gradientUnits="userSpaceOnUse">
<stop offset="0.15" stop-color="#EF6129"/>
<stop offset="0.2" stop-color="#F06032"/>
<stop offset="0.55" stop-color="#F85D6A"/>
<stop offset="0.81" stop-color="#FD5B8C"/>
<stop offset="0.96" stop-color="#FF5A99"/>
</linearGradient>
<linearGradient id="paint5_linear_989_79435" x1="106.806" y1="121.016" x2="149.637" y2="67.1893" gradientUnits="userSpaceOnUse">
<stop offset="0.15" stop-color="#EF6129"/>
<stop offset="0.2" stop-color="#F06032"/>
<stop offset="0.55" stop-color="#F85D6A"/>
<stop offset="0.81" stop-color="#FD5B8C"/>
<stop offset="0.96" stop-color="#FF5A99"/>
</linearGradient>
<linearGradient id="paint6_linear_989_79435" x1="107.373" y1="22.3805" x2="123.768" y2="14.0777" gradientUnits="userSpaceOnUse">
<stop offset="0.15" stop-color="#EF6129"/>
<stop offset="0.2" stop-color="#F06032"/>
<stop offset="0.55" stop-color="#F85D6A"/>
<stop offset="0.81" stop-color="#FD5B8C"/>
<stop offset="0.96" stop-color="#FF5A99"/>
</linearGradient>
<linearGradient id="paint7_linear_989_79435" x1="201.61" y1="32.0895" x2="205.904" y2="29.9035" gradientUnits="userSpaceOnUse">
<stop offset="0.15" stop-color="#EF6129"/>
<stop offset="0.2" stop-color="#F06032"/>
<stop offset="0.55" stop-color="#F85D6A"/>
<stop offset="0.81" stop-color="#FD5B8C"/>
<stop offset="0.96" stop-color="#FF5A99"/>
</linearGradient>
<linearGradient id="paint8_linear_989_79435" x1="171.596" y1="36.2962" x2="176.521" y2="25.6209" gradientUnits="userSpaceOnUse">
<stop offset="0.15" stop-color="#EF6129"/>
<stop offset="0.2" stop-color="#F06032"/>
<stop offset="0.55" stop-color="#F85D6A"/>
<stop offset="0.81" stop-color="#FD5B8C"/>
<stop offset="0.96" stop-color="#FF5A99"/>
</linearGradient>
<linearGradient id="paint9_linear_989_79435" x1="171.596" y1="40.8351" x2="176.519" y2="30.1619" gradientUnits="userSpaceOnUse">
<stop offset="0.15" stop-color="#EF6129"/>
<stop offset="0.2" stop-color="#F06032"/>
<stop offset="0.55" stop-color="#F85D6A"/>
<stop offset="0.81" stop-color="#FD5B8C"/>
<stop offset="0.96" stop-color="#FF5A99"/>
</linearGradient>
<linearGradient id="paint10_linear_989_79435" x1="171.596" y1="45.0503" x2="176.521" y2="34.3751" gradientUnits="userSpaceOnUse">
<stop offset="0.15" stop-color="#EF6129"/>
<stop offset="0.2" stop-color="#F06032"/>
<stop offset="0.55" stop-color="#F85D6A"/>
<stop offset="0.81" stop-color="#FD5B8C"/>
<stop offset="0.96" stop-color="#FF5A99"/>
</linearGradient>
<linearGradient id="paint11_linear_989_79435" x1="171.596" y1="49.4279" x2="176.519" y2="38.7547" gradientUnits="userSpaceOnUse">
<stop offset="0.15" stop-color="#EF6129"/>
<stop offset="0.2" stop-color="#F06032"/>
<stop offset="0.55" stop-color="#F85D6A"/>
<stop offset="0.81" stop-color="#FD5B8C"/>
<stop offset="0.96" stop-color="#FF5A99"/>
</linearGradient>
<linearGradient id="paint12_linear_989_79435" x1="171.678" y1="53.6535" x2="176.6" y2="42.98" gradientUnits="userSpaceOnUse">
<stop offset="0.15" stop-color="#EF6129"/>
<stop offset="0.2" stop-color="#F06032"/>
<stop offset="0.55" stop-color="#F85D6A"/>
<stop offset="0.81" stop-color="#FD5B8C"/>
<stop offset="0.96" stop-color="#FF5A99"/>
</linearGradient>
<linearGradient id="paint13_linear_989_79435" x1="171.678" y1="58.1923" x2="176.6" y2="47.5189" gradientUnits="userSpaceOnUse">
<stop offset="0.15" stop-color="#EF6129"/>
<stop offset="0.2" stop-color="#F06032"/>
<stop offset="0.55" stop-color="#F85D6A"/>
<stop offset="0.81" stop-color="#FD5B8C"/>
<stop offset="0.96" stop-color="#FF5A99"/>
</linearGradient>
<linearGradient id="paint14_linear_989_79435" x1="171.678" y1="62.4079" x2="176.6" y2="51.7344" gradientUnits="userSpaceOnUse">
<stop offset="0.15" stop-color="#EF6129"/>
<stop offset="0.2" stop-color="#F06032"/>
<stop offset="0.55" stop-color="#F85D6A"/>
<stop offset="0.81" stop-color="#FD5B8C"/>
<stop offset="0.96" stop-color="#FF5A99"/>
</linearGradient>
<linearGradient id="paint15_linear_989_79435" x1="171.678" y1="66.7851" x2="176.6" y2="56.1116" gradientUnits="userSpaceOnUse">
<stop offset="0.15" stop-color="#EF6129"/>
<stop offset="0.2" stop-color="#F06032"/>
<stop offset="0.55" stop-color="#F85D6A"/>
<stop offset="0.81" stop-color="#FD5B8C"/>
<stop offset="0.96" stop-color="#FF5A99"/>
</linearGradient>
<linearGradient id="paint16_linear_989_79435" x1="129.738" y1="70.7228" x2="136.925" y2="49.0132" gradientUnits="userSpaceOnUse">
<stop offset="0.15" stop-color="#EF6129"/>
<stop offset="0.2" stop-color="#F06032"/>
<stop offset="0.55" stop-color="#F85D6A"/>
<stop offset="0.81" stop-color="#FD5B8C"/>
<stop offset="0.96" stop-color="#FF5A99"/>
</linearGradient>
<linearGradient id="paint17_linear_989_79435" x1="129.843" y1="75.3843" x2="137.032" y2="53.6718" gradientUnits="userSpaceOnUse">
<stop offset="0.15" stop-color="#EF6129"/>
<stop offset="0.2" stop-color="#F06032"/>
<stop offset="0.55" stop-color="#F85D6A"/>
<stop offset="0.81" stop-color="#FD5B8C"/>
<stop offset="0.96" stop-color="#FF5A99"/>
</linearGradient>
<linearGradient id="paint18_linear_989_79435" x1="129.687" y1="80.1198" x2="136.874" y2="58.41" gradientUnits="userSpaceOnUse">
<stop offset="0.15" stop-color="#EF6129"/>
<stop offset="0.2" stop-color="#F06032"/>
<stop offset="0.55" stop-color="#F85D6A"/>
<stop offset="0.81" stop-color="#FD5B8C"/>
<stop offset="0.96" stop-color="#FF5A99"/>
</linearGradient>
<linearGradient id="paint19_linear_989_79435" x1="129.789" y1="84.7812" x2="136.978" y2="63.0687" gradientUnits="userSpaceOnUse">
<stop offset="0.15" stop-color="#EF6129"/>
<stop offset="0.2" stop-color="#F06032"/>
<stop offset="0.55" stop-color="#F85D6A"/>
<stop offset="0.81" stop-color="#FD5B8C"/>
<stop offset="0.96" stop-color="#FF5A99"/>
</linearGradient>
<linearGradient id="paint20_linear_989_79435" x1="129.55" y1="89.5907" x2="136.32" y2="68.4439" gradientUnits="userSpaceOnUse">
<stop offset="0.15" stop-color="#EF6129"/>
<stop offset="0.2" stop-color="#F06032"/>
<stop offset="0.55" stop-color="#F85D6A"/>
<stop offset="0.81" stop-color="#FD5B8C"/>
<stop offset="0.96" stop-color="#FF5A99"/>
</linearGradient>
<linearGradient id="paint21_linear_989_79435" x1="132.013" y1="56.4815" x2="166.263" y2="39.9889" gradientUnits="userSpaceOnUse">
<stop offset="0.15" stop-color="#EF6129"/>
<stop offset="0.2" stop-color="#F06032"/>
<stop offset="0.55" stop-color="#F85D6A"/>
<stop offset="0.81" stop-color="#FD5B8C"/>
<stop offset="0.96" stop-color="#FF5A99"/>
</linearGradient>
<linearGradient id="paint22_linear_989_79435" x1="132.013" y1="59.4309" x2="158.924" y2="39.1547" gradientUnits="userSpaceOnUse">
<stop offset="0.15" stop-color="#EF6129"/>
<stop offset="0.2" stop-color="#F06032"/>
<stop offset="0.55" stop-color="#F85D6A"/>
<stop offset="0.81" stop-color="#FD5B8C"/>
<stop offset="0.96" stop-color="#FF5A99"/>
</linearGradient>
<linearGradient id="paint23_linear_989_79435" x1="71.9984" y1="133.888" x2="104.624" y2="111.423" gradientUnits="userSpaceOnUse">
<stop offset="0.15" stop-color="#EF6129"/>
<stop offset="0.2" stop-color="#F06032"/>
<stop offset="0.55" stop-color="#F85D6A"/>
<stop offset="0.81" stop-color="#FD5B8C"/>
<stop offset="0.96" stop-color="#FF5A99"/>
</linearGradient>
<linearGradient id="paint24_linear_989_79435" x1="71.3089" y1="113.911" x2="73.9005" y2="102.894" gradientUnits="userSpaceOnUse">
<stop offset="0.15" stop-color="#EF6129"/>
<stop offset="0.2" stop-color="#F06032"/>
<stop offset="0.55" stop-color="#F85D6A"/>
<stop offset="0.81" stop-color="#FD5B8C"/>
<stop offset="0.96" stop-color="#FF5A99"/>
</linearGradient>
<linearGradient id="paint25_linear_989_79435" x1="77.4457" y1="99.0855" x2="110.141" y2="86.3825" gradientUnits="userSpaceOnUse">
<stop offset="0.15" stop-color="#EF6129"/>
<stop offset="0.2" stop-color="#F06032"/>
<stop offset="0.55" stop-color="#F85D6A"/>
<stop offset="0.81" stop-color="#FD5B8C"/>
<stop offset="0.96" stop-color="#FF5A99"/>
</linearGradient>
<linearGradient id="paint26_linear_989_79435" x1="101.186" y1="80.0759" x2="111.871" y2="77.0226" gradientUnits="userSpaceOnUse">
<stop offset="0.15" stop-color="#EF6129"/>
<stop offset="0.2" stop-color="#F06032"/>
<stop offset="0.55" stop-color="#F85D6A"/>
<stop offset="0.81" stop-color="#FD5B8C"/>
<stop offset="0.96" stop-color="#FF5A99"/>
</linearGradient>
<linearGradient id="paint27_linear_989_79435" x1="77.0208" y1="79.5195" x2="89.3924" y2="74.983" gradientUnits="userSpaceOnUse">
<stop offset="0.15" stop-color="#EF6129"/>
<stop offset="0.2" stop-color="#F06032"/>
<stop offset="0.55" stop-color="#F85D6A"/>
<stop offset="0.81" stop-color="#FD5B8C"/>
<stop offset="0.96" stop-color="#FF5A99"/>
</linearGradient>
<linearGradient id="paint28_linear_989_79435" x1="93.3349" y1="100.682" x2="93.7923" y2="96.3805" gradientUnits="userSpaceOnUse">
<stop offset="0.15" stop-color="#EF6129"/>
<stop offset="0.2" stop-color="#F06032"/>
<stop offset="0.55" stop-color="#F85D6A"/>
<stop offset="0.81" stop-color="#FD5B8C"/>
<stop offset="0.96" stop-color="#FF5A99"/>
</linearGradient>
<linearGradient id="paint29_linear_989_79435" x1="109.225" y1="94.9868" x2="130.246" y2="80.8488" gradientUnits="userSpaceOnUse">
<stop offset="0.15" stop-color="#EF6129"/>
<stop offset="0.2" stop-color="#F06032"/>
<stop offset="0.55" stop-color="#F85D6A"/>
<stop offset="0.81" stop-color="#FD5B8C"/>
<stop offset="0.96" stop-color="#FF5A99"/>
</linearGradient>
<linearGradient id="paint30_linear_989_79435" x1="87.3039" y1="17.3116" x2="87.9122" y2="17.2604" gradientUnits="userSpaceOnUse">
<stop offset="0.15" stop-color="#EF6129"/>
<stop offset="0.2" stop-color="#F06032"/>
<stop offset="0.55" stop-color="#F85D6A"/>
<stop offset="0.81" stop-color="#FD5B8C"/>
<stop offset="0.96" stop-color="#FF5A99"/>
</linearGradient>
<linearGradient id="paint31_linear_989_79435" x1="77.0895" y1="26.1852" x2="77.4268" y2="25.0783" gradientUnits="userSpaceOnUse">
<stop offset="0.15" stop-color="#EF6129"/>
<stop offset="0.2" stop-color="#F06032"/>
<stop offset="0.55" stop-color="#F85D6A"/>
<stop offset="0.81" stop-color="#FD5B8C"/>
<stop offset="0.96" stop-color="#FF5A99"/>
</linearGradient>
<linearGradient id="paint32_linear_989_79435" x1="93.8972" y1="26.1363" x2="94.2183" y2="25.0901" gradientUnits="userSpaceOnUse">
<stop offset="0.15" stop-color="#EF6129"/>
<stop offset="0.2" stop-color="#F06032"/>
<stop offset="0.55" stop-color="#F85D6A"/>
<stop offset="0.81" stop-color="#FD5B8C"/>
<stop offset="0.96" stop-color="#FF5A99"/>
</linearGradient>
<linearGradient id="paint33_linear_989_79435" x1="79.5428" y1="20.2348" x2="81.8999" y2="19.0397" gradientUnits="userSpaceOnUse">
<stop offset="0.15" stop-color="#EF6129"/>
<stop offset="0.2" stop-color="#F06032"/>
<stop offset="0.55" stop-color="#F85D6A"/>
<stop offset="0.81" stop-color="#FD5B8C"/>
<stop offset="0.96" stop-color="#FF5A99"/>
</linearGradient>
<linearGradient id="paint34_linear_989_79435" x1="92.4582" y1="20.3789" x2="94.8114" y2="19.1982" gradientUnits="userSpaceOnUse">
<stop offset="0.15" stop-color="#EF6129"/>
<stop offset="0.2" stop-color="#F06032"/>
<stop offset="0.55" stop-color="#F85D6A"/>
<stop offset="0.81" stop-color="#FD5B8C"/>
<stop offset="0.96" stop-color="#FF5A99"/>
</linearGradient>
</defs>
</svg>
