<svg width="288" height="155" viewBox="0 0 288 155" fill="none" xmlns="http://www.w3.org/2000/svg">
<mask id="mask0_989_80118" style="mask-type:alpha" maskUnits="userSpaceOnUse" x="0" y="0" width="288" height="155">
<rect width="288" height="155" fill="#25262D"/>
</mask>
<g mask="url(#mask0_989_80118)">
<rect width="288" height="155" fill="current"/>
<path d="M182.844 13.5601C199.519 23.0191 203.841 41.4405 205.47 48.3893C211.017 72.033 205.318 107.231 177.406 124.596C152.907 139.836 126.374 131.959 122.739 130.822C116.637 128.902 101.998 124.087 91.9122 109.957C76.2196 87.9534 79.1489 54.0186 94.8248 42.1815C102.188 36.6222 105.688 40.9773 118.757 34.437C136.258 25.672 135.675 15.1364 149.715 10.0098C165.567 4.22263 181.303 12.6854 182.844 13.5601Z" opacity="0.47" fill="url(#paint0_linear_989_80118)"/>
<path d="M169.929 105.318C167.97 103.717 165.913 102.223 163.807 100.8C159.53 97.915 155.023 95.3335 150.469 92.8248C148.073 91.5083 145.586 90.3162 143.129 89.0908C140.672 87.8653 138.181 86.6368 135.705 85.4159C133.439 84.3023 131.176 83.1847 128.915 82.063C123.778 64.6954 118.199 45.0106 119.306 45.0106L203.541 42.6326C205.524 42.6326 206.854 44.2453 206.506 46.2285L196.299 104.426C195.951 106.41 194.054 108.022 192.071 108.022H173.326C172.221 107.092 171.049 106.232 169.929 105.318Z" fill="url(#paint0_linear_989_80118)"/>
<path d="M116.899 42.8315H201.785C203.659 42.8315 204.912 44.3501 204.582 46.224L194.382 104.427C194.054 106.3 192.268 107.82 190.394 107.82H105.51C103.636 107.82 102.384 106.302 102.712 104.427L112.92 46.224C113.24 44.3501 115.026 42.8315 116.899 42.8315Z" fill="white"/>
<path opacity="0.3" d="M118.993 45.0745H199.223C200.994 45.0745 202.178 46.4897 201.867 48.233L192.218 102.418C191.915 104.162 190.222 105.576 188.451 105.576H108.222C106.45 105.576 105.267 104.162 105.577 102.418L115.228 48.233C115.532 46.4867 117.222 45.0745 118.993 45.0745Z" fill="url(#paint1_linear_989_80118)"/>
<path opacity="0.5" d="M124.63 50.2937H190.922C192.386 50.2937 193.364 51.4615 193.107 52.9026L185.136 97.6736C184.88 99.1147 183.484 100.282 182.022 100.282H115.73C114.266 100.282 113.288 99.1147 113.545 97.6736L121.516 52.9026C121.772 51.4615 123.168 50.2937 124.63 50.2937Z" fill="url(#paint2_linear_989_80118)"/>
<path d="M85.8359 107.854H190.682C191.341 107.854 191.973 108.116 192.439 108.581C192.904 109.047 193.166 109.679 193.166 110.338C193.166 110.997 192.904 111.629 192.439 112.095C191.973 112.561 191.341 112.822 190.682 112.822H85.8359C85.177 112.822 84.5451 112.561 84.0792 112.095C83.6133 111.629 83.3516 110.997 83.3516 110.338C83.3516 109.679 83.6133 109.047 84.0792 108.581C84.5451 108.116 85.177 107.854 85.8359 107.854Z" fill="url(#paint3_linear_989_80118)"/>
<path d="M142.493 108.129C142.433 108.129 142.375 108.105 142.332 108.062C142.29 108.019 142.266 107.961 142.266 107.901C142.266 107.84 142.29 107.782 142.332 107.74C142.375 107.697 142.433 107.673 142.493 107.673L190.394 107.593C192.16 107.593 193.847 106.154 194.159 104.387L204.365 46.1828C204.446 45.7943 204.44 45.3926 204.346 45.0068C204.253 44.621 204.075 44.2607 203.826 43.9521C203.574 43.6616 203.261 43.4307 202.909 43.276C202.557 43.1213 202.175 43.0467 201.791 43.0577L158.96 42.842C158.9 42.842 158.842 42.818 158.799 42.7753C158.757 42.7326 158.733 42.6747 158.733 42.6143C158.733 42.5538 158.757 42.4959 158.799 42.4532C158.842 42.4105 158.9 42.3865 158.96 42.3865L201.783 42.6036C202.234 42.5927 202.682 42.6824 203.094 42.8662C203.507 43.0501 203.873 43.3235 204.166 43.6666C204.458 44.0261 204.667 44.4461 204.778 44.8962C204.888 45.3464 204.897 45.8154 204.804 46.2694L194.605 104.466C194.259 106.44 192.37 108.048 190.393 108.048L142.493 108.129Z" fill="#1B1C21"/>
<path d="M146.715 17.2852H98.5604C96.805 17.2852 95.1999 18.7156 94.9751 20.4741L90.4013 56.3572C90.1766 58.1217 91.4172 59.5461 93.1711 59.5461H141.326C143.081 59.5461 144.686 58.1171 144.911 56.3572L149.485 20.4817C149.709 18.7156 148.469 17.2852 146.715 17.2852Z" fill="white"/>
<path d="M141.324 59.7464H93.1692C92.7435 59.7542 92.3211 59.6701 91.9309 59.4997C91.5407 59.3294 91.1918 59.0768 90.9081 58.7593C90.6232 58.4287 90.4129 58.0405 90.2916 57.6212C90.1702 57.2019 90.1407 56.7614 90.205 56.3297L94.7788 20.4542C95.0157 18.5985 96.7104 17.0891 98.5585 17.0891H146.713C147.139 17.0813 147.561 17.1655 147.951 17.3358C148.341 17.5062 148.69 17.7587 148.974 18.0762C149.259 18.4068 149.469 18.795 149.59 19.2143C149.712 19.6336 149.741 20.0741 149.677 20.5058L145.103 56.3798C144.866 58.2355 143.167 59.7464 141.324 59.7464ZM98.5585 17.4824C96.9017 17.4824 95.3817 18.8385 95.1691 20.5058L90.5953 56.3798C90.537 56.757 90.5612 57.1423 90.666 57.5093C90.7709 57.8763 90.954 58.2162 91.2027 58.5058C91.4502 58.7806 91.7539 58.999 92.0932 59.1462C92.4324 59.2935 92.7994 59.3661 93.1692 59.3592H141.324C142.98 59.3592 144.5 58.0031 144.713 56.3358L149.288 20.4603C149.345 20.0843 149.32 19.7004 149.216 19.3349C149.111 18.9693 148.928 18.6306 148.681 18.3419C148.434 18.0652 148.131 17.8451 147.791 17.6967C147.451 17.5483 147.083 17.4752 146.713 17.4824H98.5585Z" fill="#1B1C21"/>
<path d="M146.7 22.7228H97.2428C97.217 22.7228 97.1916 22.7178 97.1678 22.7079C97.144 22.6981 97.1224 22.6837 97.1042 22.6655C97.0861 22.6473 97.0716 22.6257 97.0618 22.6019C97.0519 22.5781 97.0469 22.5527 97.0469 22.5269C97.0469 22.5012 97.0519 22.4758 97.0618 22.452C97.0716 22.4282 97.0861 22.4066 97.1042 22.3884C97.1224 22.3702 97.144 22.3558 97.1678 22.346C97.1916 22.3361 97.217 22.3311 97.2428 22.3311H146.7C146.752 22.3311 146.802 22.3517 146.839 22.3884C146.875 22.4252 146.896 22.475 146.896 22.5269C146.896 22.5789 146.875 22.6287 146.839 22.6655C146.802 22.7022 146.752 22.7228 146.7 22.7228Z" fill="#1B1C21"/>
<path d="M100.733 19.742C100.701 19.965 100.591 20.1695 100.423 20.3195C100.255 20.4695 100.039 20.5554 99.814 20.5621C99.7104 20.5644 99.6075 20.5438 99.5128 20.5018C99.4181 20.4598 99.3338 20.3974 99.2659 20.3191C99.198 20.2408 99.1483 20.1485 99.1202 20.0487C99.0921 19.949 99.0863 19.8443 99.1033 19.742C99.1354 19.5192 99.2452 19.3149 99.4133 19.1652C99.5814 19.0154 99.797 18.9298 100.022 18.9235C100.126 18.921 100.228 18.9414 100.323 18.9832C100.418 19.025 100.502 19.0873 100.57 19.1655C100.638 19.2437 100.688 19.3359 100.716 19.4356C100.744 19.5352 100.75 19.6399 100.733 19.742Z" fill="url(#paint4_linear_989_80118)"/>
<path d="M103.99 19.742C103.958 19.9653 103.848 20.17 103.68 20.32C103.512 20.47 103.296 20.5558 103.07 20.5621C102.967 20.5641 102.864 20.5434 102.77 20.5013C102.675 20.4592 102.591 20.3968 102.523 20.3185C102.456 20.2402 102.406 20.148 102.378 20.0483C102.35 19.9487 102.344 19.8441 102.361 19.742C102.393 19.5192 102.503 19.3149 102.671 19.1652C102.839 19.0154 103.055 18.9298 103.28 18.9235C103.383 18.921 103.486 18.9414 103.581 18.9832C103.676 19.025 103.76 19.0873 103.828 19.1655C103.896 19.2437 103.946 19.3359 103.974 19.4356C104.002 19.5352 104.008 19.6399 103.99 19.742Z" fill="url(#paint5_linear_989_80118)"/>
<path d="M107.248 19.742C107.216 19.9653 107.106 20.1699 106.938 20.32C106.769 20.47 106.554 20.5557 106.328 20.562C106.225 20.5641 106.122 20.5434 106.027 20.5013C105.933 20.4592 105.849 20.3968 105.781 20.3185C105.713 20.2402 105.664 20.148 105.636 20.0483C105.608 19.9487 105.602 19.8441 105.619 19.742C105.651 19.5205 105.759 19.3171 105.926 19.1675C106.093 19.0179 106.306 18.9316 106.53 18.9235C106.634 18.9199 106.738 18.9394 106.834 18.9807C106.929 19.022 107.015 19.0841 107.083 19.1624C107.152 19.2408 107.203 19.3334 107.231 19.4337C107.26 19.5339 107.265 19.6392 107.248 19.742Z" fill="url(#paint6_linear_989_80118)"/>
<path d="M147.093 19.9395H142.504C142.455 19.9351 142.409 19.9126 142.376 19.8762C142.343 19.8398 142.324 19.7922 142.324 19.7428C142.324 19.6935 142.343 19.6459 142.376 19.6095C142.409 19.5731 142.455 19.5505 142.504 19.5462H147.093C147.121 19.5438 147.148 19.5471 147.174 19.5559C147.2 19.5647 147.224 19.5787 147.244 19.5972C147.264 19.6157 147.28 19.6382 147.291 19.6633C147.302 19.6884 147.308 19.7154 147.308 19.7428C147.308 19.7702 147.302 19.7973 147.291 19.8224C147.28 19.8474 147.264 19.8699 147.244 19.8884C147.224 19.9069 147.2 19.921 147.174 19.9298C147.148 19.9386 147.121 19.9419 147.093 19.9395Z" fill="#1B1C21"/>
<path d="M140.435 19.9395H118.247C118.197 19.9351 118.152 19.9126 118.118 19.8762C118.085 19.8398 118.066 19.7922 118.066 19.7428C118.066 19.6935 118.085 19.6459 118.118 19.6095C118.152 19.5731 118.197 19.5505 118.247 19.5462H140.435C140.463 19.5438 140.49 19.5471 140.516 19.5559C140.542 19.5647 140.566 19.5787 140.586 19.5972C140.606 19.6157 140.622 19.6382 140.633 19.6633C140.644 19.6884 140.65 19.7154 140.65 19.7428C140.65 19.7702 140.644 19.7973 140.633 19.8224C140.622 19.8474 140.606 19.8699 140.586 19.8884C140.566 19.9069 140.542 19.921 140.516 19.9298C140.49 19.9386 140.463 19.9419 140.435 19.9395Z" fill="#1B1C21"/>
<path d="M113.253 19.9394H109.204C109.154 19.9351 109.109 19.9125 109.075 19.8761C109.042 19.8397 109.023 19.7922 109.023 19.7428C109.023 19.6934 109.042 19.6459 109.075 19.6095C109.109 19.5731 109.154 19.5505 109.204 19.5461H113.253C113.303 19.5505 113.348 19.5731 113.382 19.6095C113.415 19.6459 113.434 19.6934 113.434 19.7428C113.434 19.7922 113.415 19.8397 113.382 19.8761C113.348 19.9125 113.303 19.9351 113.253 19.9394Z" fill="#1B1C21"/>
<path opacity="0.3" d="M95.596 53.3367H139.963C140.084 53.3366 140.2 53.2927 140.291 53.213C140.381 53.1334 140.44 53.0235 140.455 52.904L143.834 26.4055C143.843 26.3357 143.837 26.2648 143.816 26.1976C143.795 26.1303 143.76 26.0683 143.714 26.0156C143.667 25.9628 143.61 25.9206 143.546 25.8918C143.482 25.8629 143.412 25.848 143.342 25.8481H98.9762C98.8559 25.8482 98.7397 25.892 98.6492 25.9713C98.5587 26.0506 98.5001 26.1601 98.4842 26.2794L95.1055 52.7794C95.0967 52.8491 95.1028 52.9198 95.1234 52.987C95.144 53.0541 95.1786 53.1161 95.225 53.1688C95.2714 53.2215 95.3284 53.2637 95.3924 53.2927C95.4564 53.3216 95.5258 53.3367 95.596 53.3367Z" fill="url(#paint7_linear_989_80118)"/>
<path d="M131.549 30.8078H109.777L110.114 27.9849H131.886L131.549 30.8078Z" fill="white"/>
<path d="M139.555 36.2046H100.688L101.025 33.3801H139.892L139.555 36.2046Z" fill="white"/>
<path d="M138.164 46.1875H99.2969L99.634 43.3645H138.499L138.164 46.1875Z" fill="white"/>
<path d="M131.258 41.1458H99.9453L100.282 38.3213H131.595L131.258 41.1458Z" fill="white"/>
<path d="M130.133 51.0271H98.8203L99.1574 48.2041H130.47L130.133 51.0271Z" fill="white"/>
<path d="M154.654 39.2189C152.861 39.1247 150.975 40.8528 151.406 43.4844C151.757 45.6332 154.068 46.0933 155.212 47.1578C158.911 50.6034 160.133 61.8876 165.538 64.826C169.852 67.1752 177.487 66.2883 181.38 60.9507C185.084 55.8742 185.415 48.7052 180.904 45.6499C176.849 42.9013 174.486 46.7129 170.196 44.183C165.966 41.6835 166.822 38.8316 164.232 37.8583C160.693 36.528 159.738 39.4831 154.654 39.2189Z" fill="#1B1C21"/>
<path d="M148.141 67.2725C146.243 78.8999 146.015 79.0715 145.766 80.2894C145.297 82.5065 144.975 84.7523 144.803 87.012C144.622 89.8729 145.16 107.057 154.045 110.853C157.254 112.22 158.183 109.707 165.015 109.98C172.015 110.259 167.968 112.285 171.024 111.412C177.634 109.523 184.338 95.8681 183.974 87.1031C183.67 79.9659 181.046 73.1614 173.941 59.6798C172.858 57.6267 171.126 54.4909 168.336 54.0916C167.056 53.9078 166.546 54.1052 161.408 55.5144C155.822 57.0482 154.403 55.4172 152.006 56.9282C149.529 58.4832 149.09 61.455 148.141 67.2725Z" fill="url(#paint8_linear_989_80118)"/>
<path d="M158.336 134.595V140.218L161.042 140.053L161.573 134.595H158.336Z" fill="white"/>
<path d="M158.337 140.446C158.277 140.446 158.219 140.422 158.176 140.38C158.133 140.337 158.109 140.279 158.109 140.218V134.6C158.109 134.539 158.133 134.482 158.176 134.439C158.219 134.396 158.277 134.372 158.337 134.372H161.575C161.607 134.372 161.638 134.379 161.667 134.392C161.697 134.404 161.723 134.423 161.745 134.446C161.766 134.47 161.782 134.498 161.792 134.528C161.802 134.558 161.805 134.59 161.802 134.621L161.269 140.08C161.264 140.134 161.239 140.184 161.201 140.222C161.162 140.259 161.111 140.282 161.057 140.285L158.352 140.445L158.337 140.446ZM158.565 134.828V139.98L160.843 139.842L161.332 134.831L158.565 134.828Z" fill="#1B1C21"/>
<path d="M161.452 147.228C159.781 147.402 158.095 147.346 156.44 147.061C156.278 147.033 156.123 146.972 155.985 146.881C155.848 146.789 155.731 146.67 155.643 146.531C155.555 146.391 155.497 146.235 155.473 146.072C155.449 145.908 155.46 145.742 155.505 145.583C156.032 143.709 157.072 140.218 157.901 138.545L158.401 139.456L158.8 138.493C158.834 138.437 158.88 138.389 158.935 138.354C158.991 138.319 159.054 138.297 159.119 138.291L160.556 138.3C160.981 138.3 161.011 138.531 161.069 138.707L161.354 139.456L161.748 138.442L162.486 145.943C162.517 146.25 162.426 146.558 162.233 146.798C162.039 147.039 161.758 147.193 161.452 147.228Z" fill="white"/>
<path d="M159.567 147.555C158.507 147.555 157.449 147.465 156.404 147.286C156.21 147.253 156.025 147.179 155.861 147.07C155.697 146.961 155.558 146.819 155.453 146.653C155.347 146.487 155.278 146.3 155.249 146.106C155.221 145.911 155.233 145.712 155.286 145.523C155.719 143.984 156.82 140.208 157.698 138.443C157.716 138.406 157.745 138.375 157.78 138.352C157.816 138.33 157.856 138.318 157.898 138.317C157.94 138.316 157.981 138.327 158.017 138.348C158.053 138.369 158.082 138.399 158.102 138.436L158.373 138.931L158.591 138.407L158.606 138.376C158.659 138.291 158.731 138.219 158.817 138.166C158.902 138.114 158.999 138.082 159.099 138.073H159.122L160.557 138.082C161.113 138.082 161.219 138.436 161.271 138.607L161.283 138.647L161.353 138.831L161.532 138.375C161.551 138.327 161.585 138.287 161.629 138.261C161.673 138.235 161.724 138.225 161.775 138.232C161.825 138.239 161.872 138.262 161.908 138.299C161.943 138.336 161.966 138.383 161.971 138.434L162.709 145.936C162.745 146.303 162.635 146.67 162.403 146.958C162.17 147.245 161.834 147.429 161.467 147.469C160.835 147.531 160.201 147.56 159.567 147.555ZM157.918 139.051C157.093 140.909 156.124 144.23 155.725 145.647C155.689 145.774 155.68 145.908 155.699 146.039C155.718 146.17 155.765 146.295 155.836 146.406C155.907 146.519 156.001 146.616 156.112 146.69C156.223 146.764 156.348 146.814 156.48 146.836C158.112 147.118 159.775 147.173 161.423 147.002C161.67 146.974 161.897 146.85 162.053 146.656C162.21 146.463 162.285 146.216 162.261 145.968L161.617 139.421L161.568 139.546C161.553 139.59 161.525 139.628 161.487 139.655C161.449 139.682 161.404 139.697 161.357 139.698C161.311 139.697 161.265 139.682 161.228 139.655C161.19 139.628 161.161 139.59 161.145 139.546L160.841 138.738C160.796 138.586 160.78 138.537 160.559 138.537L159.134 138.528C159.109 138.532 159.084 138.541 159.062 138.555C159.04 138.568 159.02 138.586 159.005 138.607L158.613 139.552C158.597 139.591 158.57 139.626 158.535 139.65C158.5 139.675 158.458 139.69 158.416 139.692C158.373 139.695 158.33 139.685 158.292 139.664C158.255 139.643 158.224 139.612 158.203 139.575L157.918 139.051Z" fill="#1B1C21"/>
<path d="M159.257 146.28C158.42 146.282 157.585 146.175 156.775 145.964C156.743 145.959 156.714 145.947 156.688 145.929C156.661 145.912 156.639 145.889 156.622 145.862C156.605 145.835 156.594 145.805 156.589 145.774C156.584 145.743 156.585 145.711 156.594 145.68C156.602 145.65 156.616 145.621 156.636 145.596C156.655 145.571 156.68 145.551 156.708 145.536C156.736 145.521 156.767 145.512 156.798 145.51C156.83 145.508 156.862 145.512 156.892 145.523C158.429 145.921 160.042 145.921 161.579 145.523C161.636 145.51 161.695 145.518 161.745 145.547C161.795 145.575 161.833 145.622 161.85 145.677C161.867 145.732 161.863 145.791 161.839 145.843C161.814 145.896 161.771 145.937 161.718 145.958C160.917 146.18 160.088 146.288 159.257 146.28Z" fill="#1B1C21"/>
<path d="M160.377 143.36H157.907C157.847 143.36 157.789 143.336 157.746 143.294C157.704 143.251 157.68 143.193 157.68 143.133C157.68 143.072 157.704 143.014 157.746 142.972C157.789 142.929 157.847 142.905 157.907 142.905H160.377C160.437 142.905 160.495 142.929 160.538 142.972C160.58 143.014 160.604 143.072 160.604 143.133C160.604 143.193 160.58 143.251 160.538 143.294C160.495 143.336 160.437 143.36 160.377 143.36Z" fill="#1B1C21"/>
<path d="M178.238 131.62L179.039 138.399L181.573 138.311V131.62H178.238Z" fill="white"/>
<path d="M179.04 138.627C178.984 138.627 178.93 138.607 178.889 138.57C178.847 138.533 178.82 138.482 178.813 138.426L178.013 131.646C178.01 131.614 178.013 131.582 178.022 131.551C178.032 131.521 178.048 131.493 178.07 131.469C178.091 131.445 178.117 131.426 178.146 131.412C178.176 131.399 178.207 131.393 178.239 131.393H181.58C181.641 131.393 181.699 131.417 181.741 131.459C181.784 131.502 181.808 131.56 181.808 131.62V138.311C181.808 138.37 181.785 138.427 181.745 138.469C181.704 138.511 181.648 138.536 181.589 138.539L179.053 138.627H179.04ZM178.496 131.848L179.24 138.164L181.346 138.091V131.848H178.496Z" fill="#1B1C21"/>
<path d="M178.435 136.782C178.435 136.782 178.11 139.792 178.211 141.004C178.282 141.871 179.472 144.487 180.142 145.905C180.261 146.18 180.453 146.418 180.697 146.591C180.941 146.765 181.228 146.868 181.527 146.889C182.239 146.92 183.228 146.955 184.027 146.956C185.125 146.956 185.879 145.71 185.487 144.546C185.028 143.194 184.41 141.901 183.647 140.694C182.967 139.616 181.977 136.683 181.977 136.683H179.907L179.501 138.399L178.435 136.782Z" fill="white"/>
<path d="M184.027 147.184C183.219 147.184 182.217 147.147 181.519 147.117C181.179 147.093 180.851 146.977 180.573 146.78C180.294 146.584 180.074 146.315 179.938 146.002C179.086 144.201 178.055 141.873 177.985 141.022C177.883 139.807 178.198 136.881 178.21 136.758C178.215 136.711 178.234 136.667 178.265 136.632C178.296 136.596 178.337 136.571 178.383 136.56C178.429 136.549 178.477 136.552 178.52 136.569C178.564 136.586 178.602 136.617 178.627 136.656L179.402 137.833L179.686 136.63C179.698 136.58 179.726 136.536 179.766 136.504C179.807 136.472 179.856 136.455 179.908 136.455H181.974C182.021 136.455 182.068 136.47 182.106 136.497C182.145 136.524 182.174 136.563 182.19 136.607C182.201 136.636 183.183 139.526 183.841 140.569C184.614 141.791 185.239 143.101 185.704 144.47C185.817 144.798 185.851 145.148 185.802 145.491C185.753 145.835 185.623 146.161 185.423 146.444C185.266 146.67 185.058 146.855 184.815 146.984C184.572 147.113 184.302 147.181 184.027 147.184ZM178.599 137.447C178.51 138.395 178.368 140.15 178.436 140.988C178.488 141.596 179.183 143.349 180.348 145.813C180.45 146.05 180.614 146.254 180.824 146.405C181.033 146.555 181.28 146.645 181.537 146.666C182.231 146.696 183.227 146.731 184.026 146.733C184.228 146.729 184.427 146.677 184.605 146.58C184.784 146.483 184.936 146.345 185.049 146.177C185.207 145.954 185.309 145.697 185.347 145.427C185.385 145.157 185.358 144.881 185.268 144.624C184.813 143.29 184.202 142.016 183.446 140.827C182.838 139.869 182.02 137.55 181.803 136.923H180.087L179.722 138.463C179.712 138.506 179.689 138.545 179.657 138.576C179.625 138.606 179.584 138.627 179.54 138.634C179.497 138.642 179.452 138.637 179.411 138.619C179.37 138.602 179.335 138.573 179.311 138.536L178.599 137.447Z" fill="#1B1C21"/>
<path d="M182.454 145.893C181.534 145.893 180.775 144.678 180.69 144.54L179.513 142.262C179.489 142.209 179.486 142.149 179.505 142.093C179.524 142.038 179.563 141.992 179.615 141.965C179.667 141.938 179.727 141.932 179.784 141.949C179.84 141.965 179.888 142.002 179.917 142.053L181.085 144.311C181.279 144.63 181.894 145.438 182.451 145.438H184.236C184.296 145.438 184.354 145.462 184.397 145.504C184.439 145.547 184.463 145.605 184.463 145.666C184.463 145.726 184.439 145.784 184.397 145.827C184.354 145.869 184.296 145.893 184.236 145.893H182.454Z" fill="#1B1C21"/>
<path d="M183.713 143.444H181.45C181.39 143.444 181.332 143.42 181.289 143.377C181.247 143.334 181.223 143.276 181.223 143.216C181.223 143.156 181.247 143.098 181.289 143.055C181.332 143.012 181.39 142.988 181.45 142.988H183.713C183.773 142.988 183.831 143.012 183.874 143.055C183.917 143.098 183.941 143.156 183.941 143.216C183.941 143.276 183.917 143.334 183.874 143.377C183.831 143.42 183.773 143.444 183.713 143.444Z" fill="#1B1C21"/>
<path d="M153.992 78.3835C153.992 78.3835 154.262 99.0721 155.131 112.542C156 126.011 157.713 136.308 157.713 136.308C157.713 136.308 160.663 137.371 162.601 136.812C162.601 136.812 164.204 124.998 164.575 121.004C164.945 117.011 163.967 115.029 163.89 111.761C163.813 108.493 165.299 94.0609 165.299 94.0609C165.299 94.0609 176.424 126.685 177.691 133.891C177.691 133.891 180.384 134.346 182.284 133.311C182.284 133.311 182.343 120.48 182.073 118.499C181.575 114.825 178.706 111.21 178.19 107.309C177.674 103.408 177.376 93.6175 175.958 87.7453C174.54 81.8731 171.755 75.2766 171.755 75.2766L153.992 78.3835Z" fill="#1B1C21"/>
<path d="M172.373 86.0885C172.344 86.0881 172.314 86.0824 172.287 86.0718C170.788 85.4545 169.497 84.4218 168.566 83.0955C168.531 83.0463 168.517 82.9852 168.526 82.9256C168.536 82.8659 168.569 82.8126 168.619 82.7773C168.668 82.7421 168.729 82.7278 168.788 82.7377C168.848 82.7475 168.901 82.7806 168.937 82.8297C169.818 84.0864 171.04 85.0649 172.46 85.6497C172.509 85.6696 172.549 85.7059 172.574 85.7525C172.6 85.799 172.608 85.8529 172.598 85.9048C172.587 85.9567 172.559 86.0035 172.518 86.037C172.477 86.0705 172.426 86.0887 172.373 86.0885Z" fill="url(#paint9_linear_989_80118)"/>
<path d="M155.598 86.0079C155.553 86.007 155.509 85.9927 155.472 85.9667C155.435 85.9408 155.407 85.9044 155.39 85.8622C155.374 85.8201 155.371 85.774 155.381 85.7299C155.391 85.6858 155.413 85.6457 155.446 85.6146C156.643 84.4864 156.813 83.841 157.079 82.7704C157.103 82.6763 157.129 82.5791 157.155 82.4773C157.161 82.4474 157.174 82.4192 157.192 82.3943C157.21 82.3694 157.232 82.3483 157.258 82.3324C157.285 82.3164 157.314 82.3059 157.344 82.3015C157.374 82.297 157.405 82.2987 157.435 82.3065C157.464 82.3143 157.492 82.3279 157.516 82.3467C157.541 82.3654 157.561 82.3888 157.576 82.4156C157.591 82.4423 157.6 82.4717 157.603 82.5022C157.607 82.5326 157.604 82.5634 157.595 82.5927L157.521 82.8828C157.249 83.9533 157.053 84.7263 155.759 85.9457C155.716 85.9866 155.658 86.0089 155.598 86.0079Z" fill="url(#paint10_linear_989_80118)"/>
<path d="M122.051 54.4969C122.673 54.9829 123.638 56.3192 123.721 56.5864C124.354 58.6456 126.231 56.881 126.231 56.881C126.231 56.881 124.561 54.2206 123.313 53.3276C120.895 51.6041 120.745 53.4795 122.051 54.4969Z" fill="white"/>
<path d="M124.769 57.8118C124.666 57.8129 124.564 57.8001 124.465 57.7738C124.019 57.6554 123.694 57.2788 123.502 56.6531C123.439 56.4527 122.524 55.1543 121.911 54.679C121.138 54.0716 120.789 53.1605 121.152 52.673C121.363 52.3891 121.943 52.0656 123.445 53.1453C124.719 54.0564 126.356 56.6531 126.424 56.764C126.452 56.8086 126.464 56.8617 126.457 56.914C126.451 56.9664 126.426 57.0148 126.388 57.051C126.351 57.0829 125.557 57.8118 124.769 57.8118ZM122.187 54.3191C122.842 54.8309 123.833 56.2006 123.932 56.5225C124.075 56.9872 124.292 57.2605 124.578 57.3365C125.026 57.4564 125.613 57.0905 125.928 56.8399C125.543 56.2507 124.198 54.2462 123.174 53.5158C122.096 52.7459 121.615 52.8067 121.504 52.9464C121.343 53.162 121.557 53.8332 122.181 54.3131L122.187 54.3191Z" fill="#1B1C21"/>
<path d="M151.976 55.5203C151.976 55.5203 158.615 54.5697 165.149 54.3799C165.149 54.3799 173.741 77.328 173.741 78.7707C173.741 80.2133 169.626 83.4781 165.541 80.8814C158.735 76.5369 154.483 78.019 151.129 78.8025C146.099 79.9764 151.976 55.5203 151.976 55.5203Z" fill="white"/>
<path d="M168.745 82.0857C167.561 82.0786 166.404 81.7267 165.416 81.0728C159.164 77.0821 155.133 78.0631 151.892 78.8527C151.649 78.9119 151.412 78.9696 151.178 79.0243C150.942 79.0922 150.692 79.0946 150.455 79.0312C150.218 78.9678 150.002 78.841 149.832 78.6644C146.925 75.7397 151.551 56.2933 151.749 55.4672C151.76 55.4227 151.783 55.3824 151.817 55.3515C151.85 55.3206 151.893 55.3006 151.938 55.2941C152.005 55.285 158.663 54.3405 165.137 54.1522C165.185 54.1511 165.232 54.1652 165.271 54.1925C165.31 54.2198 165.34 54.2588 165.356 54.304C165.708 55.2425 173.963 77.3068 173.963 78.7737C173.963 79.5452 173.052 80.6066 171.779 81.2991C170.848 81.8073 169.806 82.0775 168.745 82.0857ZM156.638 77.6819C159.087 77.6819 162.004 78.3577 165.662 80.6932C168.277 82.3636 170.658 81.3947 171.56 80.9012C172.775 80.2346 173.506 79.2961 173.507 78.7753C173.507 77.6348 167.413 61.101 164.987 54.6168C159.137 54.7991 153.18 55.5887 152.156 55.7284C151.95 56.6076 150.896 61.1769 150.137 65.9785C148.747 74.7861 149.377 77.568 150.155 78.3486C150.272 78.4689 150.419 78.5547 150.582 78.5965C150.744 78.6383 150.915 78.6345 151.075 78.5854C151.308 78.5308 151.543 78.4731 151.784 78.4139C153.213 78.0616 154.793 77.6774 156.638 77.6774V77.6819Z" fill="#1B1C21"/>
<path d="M129.68 65.3347C130.506 66.3385 133.382 71.3861 136.893 72.5265C143.914 74.8043 148.248 70.1773 148.248 70.1773L147.641 84.0279C147.641 84.0279 151.032 86.0385 151.032 85.8608C151.032 85.6831 152.515 54.9646 152.515 54.9646C152.515 54.9646 149.782 55.0086 148.557 56.7458C147.331 58.4831 143.268 65.1418 137.954 65.2284C135.538 65.2679 132.005 62.0531 131.241 61.7783L129.68 65.3347Z" fill="url(#paint11_linear_989_80118)"/>
<path d="M143.681 60.0289H156.517C156.725 60.0385 156.924 60.1191 157.08 60.2572C157.236 60.3954 157.339 60.5828 157.374 60.7881L160.288 78.7737C160.309 78.8649 160.309 78.9596 160.288 79.0508C160.268 79.1421 160.227 79.2274 160.168 79.3005C160.11 79.3735 160.035 79.4324 159.951 79.4727C159.867 79.5129 159.774 79.5336 159.68 79.533H146.84C146.632 79.523 146.434 79.4423 146.278 79.3042C146.123 79.166 146.019 78.9788 145.985 78.7737L143.071 60.7866C143.049 60.6953 143.049 60.6003 143.07 60.509C143.091 60.4176 143.133 60.3321 143.191 60.2591C143.25 60.1861 143.325 60.1274 143.41 60.0876C143.495 60.0477 143.587 60.0276 143.681 60.0289Z" fill="white"/>
<path d="M159.674 79.7578H146.836C146.575 79.749 146.324 79.6496 146.127 79.4765C145.93 79.3034 145.799 79.0674 145.757 78.8088L142.843 60.8232C142.819 60.6945 142.824 60.5622 142.857 60.4356C142.89 60.3089 142.95 60.1909 143.033 60.0897C143.112 59.997 143.211 59.923 143.323 59.8731C143.434 59.8232 143.556 59.7987 143.678 59.8012H156.514C156.776 59.81 157.027 59.9094 157.224 60.0824C157.422 60.2555 157.553 60.4915 157.595 60.7503L160.509 78.7359C160.533 78.8643 160.528 78.9963 160.495 79.1227C160.462 79.2491 160.402 79.3668 160.32 79.4678C160.24 79.5609 160.141 79.6351 160.029 79.6853C159.918 79.7354 159.797 79.7602 159.674 79.7578ZM143.678 60.2568C143.621 60.2544 143.564 60.2647 143.512 60.287C143.459 60.3094 143.412 60.3431 143.374 60.3858C143.334 60.4366 143.306 60.4955 143.291 60.5585C143.276 60.6214 143.275 60.6869 143.288 60.7503L146.206 78.7359C146.233 78.8872 146.309 79.0252 146.424 79.1279C146.538 79.2306 146.683 79.292 146.836 79.3023H159.674C159.731 79.3049 159.788 79.2947 159.841 79.2723C159.893 79.25 159.94 79.2161 159.978 79.1732C160.018 79.1226 160.047 79.0637 160.062 79.0007C160.077 78.9377 160.078 78.8721 160.064 78.8088L157.14 60.8232C157.113 60.6717 157.036 60.5337 156.922 60.431C156.807 60.3283 156.662 60.267 156.508 60.2568H143.678Z" fill="#1B1C21"/>
<path d="M158.42 67.3057L158.634 68.6648C158.637 68.8097 158.609 68.9536 158.55 69.086C158.491 69.2184 158.403 69.3361 158.293 69.4303C158.183 69.5246 158.053 69.5931 157.913 69.6309C157.773 69.6687 157.627 69.6748 157.484 69.6488L154.143 69.0414C154.023 69.0185 153.898 69.0233 153.78 69.0554C153.661 69.0875 153.551 69.1461 153.459 69.2268C153.366 69.3075 153.293 69.4082 153.245 69.5213C153.196 69.6343 153.175 69.7568 153.181 69.8796C153.219 70.2688 153.405 70.6283 153.702 70.8833C153.875 71.0504 156.843 73.313 159.124 72.9015C159.224 72.8833 161.361 74.0859 161.443 74.0267C161.801 73.7701 162.05 72.9516 162.131 72.2607C162.131 72.2014 160.36 71.1977 160.181 70.6495C160.002 70.1013 160.146 69.667 159.92 68.6982C159.651 67.5593 158.42 67.3057 158.42 67.3057Z" fill="white"/>
<path d="M161.444 74.2635C161.307 74.2635 161.02 74.1208 160.024 73.5999C159.673 73.4177 159.243 73.193 159.113 73.1353C156.633 73.5377 153.571 71.0716 153.546 71.0458C153.208 70.7508 152.997 70.3378 152.955 69.8917C152.946 69.7365 152.972 69.5812 153.032 69.4378C153.092 69.2943 153.184 69.1665 153.301 69.0641C153.42 68.9583 153.561 68.881 153.714 68.8381C153.868 68.7952 154.028 68.7878 154.185 68.8165L157.526 69.424C157.634 69.4436 157.745 69.4392 157.851 69.411C157.957 69.3829 158.056 69.3317 158.14 69.2611C158.224 69.1904 158.291 69.1022 158.337 69.0025C158.384 68.9028 158.407 68.7942 158.406 68.6844L158.195 67.342C158.19 67.3056 158.193 67.2683 158.205 67.2333C158.217 67.1984 158.237 67.1669 158.264 67.1414C158.29 67.1159 158.323 67.0972 158.358 67.0869C158.394 67.0767 158.431 67.0751 158.467 67.0824C158.523 67.0945 159.845 67.3861 160.138 68.6465C160.228 69.0388 160.279 69.4391 160.289 69.8416C160.289 70.0912 160.324 70.3397 160.393 70.5796C160.497 70.9 161.529 71.5772 161.911 71.8324C162.294 72.0875 162.367 72.1361 162.347 72.2879C162.267 72.9758 162.014 73.8915 161.565 74.2134C161.531 74.2436 161.489 74.2613 161.444 74.2635ZM159.128 72.6721C159.217 72.6721 159.369 72.7435 160.235 73.196C160.613 73.3949 161.157 73.6789 161.378 73.7746C161.592 73.5392 161.796 72.9743 161.882 72.3578C161.823 72.3168 161.741 72.2636 161.665 72.2059C160.88 71.6896 160.101 71.1429 159.958 70.7132C159.876 70.4346 159.834 70.1457 159.834 69.8552C159.825 69.4804 159.777 69.1074 159.693 68.7421C159.627 68.4919 159.504 68.2608 159.331 68.0678C159.159 67.8748 158.944 67.7255 158.703 67.6321L158.854 68.6222C158.855 68.6318 158.855 68.6414 158.854 68.651C158.859 68.8298 158.823 69.0073 158.751 69.1707C158.678 69.334 158.57 69.4792 158.434 69.5955C158.298 69.7118 158.138 69.7964 157.966 69.8432C157.793 69.89 157.612 69.8977 157.436 69.8659L154.095 69.2584C154.007 69.2421 153.915 69.2461 153.829 69.2703C153.742 69.2945 153.662 69.3383 153.594 69.3981C153.53 69.4546 153.479 69.5249 153.446 69.6038C153.412 69.6827 153.397 69.7681 153.401 69.8537C153.439 70.1857 153.602 70.4909 153.857 70.7071C154.115 70.9562 156.984 73.0426 159.081 72.666C159.097 72.6667 159.112 72.6687 159.128 72.6721Z" fill="#1B1C21"/>
<path d="M161.401 71.304C162.875 71.5439 163.08 72.2698 164.909 71.4649C169.031 69.6548 168.249 63.3256 167.551 60.1761C167.399 59.5292 167.226 58.8975 167.032 58.3038C166.672 57.2119 171.098 56.2006 171.882 57.0419C172.976 58.2156 173.92 59.5215 174.691 60.9293C177.259 65.6337 178.094 76.1618 169.505 78.0721C164.981 79.0743 161.384 75.3706 160.09 73.7746C159.793 73.4026 160.98 71.2387 161.401 71.304Z" fill="url(#paint12_linear_989_80118)"/>
<path d="M173.154 76.9468C173.107 76.9476 173.061 76.9339 173.022 76.9076C172.983 76.8813 172.953 76.8436 172.937 76.7998C172.92 76.7559 172.917 76.708 172.929 76.6626C172.941 76.6172 172.966 76.5764 173.002 76.546C176.462 73.5924 176.172 68.6632 176.168 68.6131C176.164 68.5527 176.184 68.4932 176.224 68.4476C176.264 68.402 176.32 68.3742 176.38 68.3701C176.441 68.3661 176.5 68.3862 176.546 68.4261C176.591 68.466 176.619 68.5223 176.623 68.5827C176.637 68.7938 176.927 73.7928 173.298 76.8922C173.257 76.9264 173.206 76.9457 173.154 76.9468Z" fill="#1B1C21"/>
<path d="M126.069 57.9196C126.028 57.9196 125.987 57.9084 125.952 57.8873C125.917 57.8662 125.888 57.8359 125.868 57.7997L113.805 35.3086C113.789 35.2822 113.779 35.2529 113.775 35.2225C113.771 35.1921 113.774 35.1612 113.782 35.1316C113.79 35.1021 113.804 35.0745 113.823 35.0506C113.843 35.0266 113.866 35.0068 113.893 34.9923C113.92 34.9777 113.95 34.9688 113.981 34.966C114.011 34.9632 114.042 34.9667 114.071 34.9761C114.1 34.9855 114.127 35.0007 114.15 35.0208C114.174 35.0408 114.192 35.0654 114.206 35.093L126.269 57.584C126.296 57.6368 126.302 57.698 126.285 57.7547C126.267 57.8114 126.228 57.8591 126.177 57.8878C126.144 57.9071 126.107 57.918 126.069 57.9196Z" fill="url(#paint13_linear_989_80118)"/>
<path d="M125.258 53.5993C125.441 54.1945 125.991 54.928 126.472 55.3152C126.688 55.4903 126.923 55.6386 127.174 55.7571C129.16 56.6682 127.309 59.1905 131.139 61.9391C131.274 62.0348 130.22 64.6482 129.885 65.2981C128.548 63.7173 127.101 60.987 125.892 60.7425C123.66 60.2991 123.522 58.9627 123.347 58.29C122.892 56.524 124.945 56.0623 124.945 56.0623C124.945 56.0623 124.718 55.8938 124.157 55.0844C123.303 53.8529 124.434 50.9479 125.258 53.5993Z" fill="white"/>
<path d="M129.895 65.5261C129.862 65.5261 129.829 65.5189 129.799 65.505C129.769 65.4911 129.742 65.4708 129.72 65.4456C129.292 64.9384 128.85 64.3112 128.422 63.7053C127.525 62.4328 126.6 61.1238 125.857 60.972C123.657 60.5346 123.346 59.2226 123.177 58.518L123.138 58.354C123.064 58.1148 123.042 57.863 123.071 57.6146C123.101 57.3662 123.182 57.1267 123.309 56.9114C123.627 56.392 124.175 56.1035 124.539 55.9623C124.407 55.8104 124.222 55.5705 123.979 55.2213C123.484 54.5075 123.557 53.314 123.933 52.6899C124.164 52.3072 124.433 52.2783 124.574 52.295C124.939 52.3391 125.235 52.7506 125.485 53.5342C125.721 54.1593 126.114 54.7131 126.626 55.1423C126.826 55.3052 127.045 55.4439 127.279 55.5553C128.229 55.9896 128.398 56.7595 128.592 57.6509C128.844 58.8005 129.157 60.2324 131.283 61.751C131.435 61.8603 131.518 61.9195 130.911 63.4897C130.618 64.249 130.269 65.069 130.097 65.4C130.08 65.433 130.055 65.4613 130.024 65.4824C129.993 65.5036 129.958 65.517 129.921 65.5215L129.895 65.5261ZM124.512 52.746C124.462 52.746 124.389 52.8144 124.324 52.9222C124.067 53.3474 123.948 54.3769 124.354 54.9601C124.872 55.7042 125.092 55.8849 125.093 55.8864C125.127 55.9134 125.153 55.9493 125.167 55.9901C125.182 56.0309 125.185 56.0749 125.175 56.1172C125.166 56.1589 125.145 56.1972 125.115 56.2276C125.085 56.258 125.047 56.2792 125.005 56.2888C124.996 56.2888 124.094 56.5044 123.696 57.1483C123.603 57.3118 123.544 57.4929 123.523 57.6803C123.503 57.8677 123.522 58.0572 123.578 58.2371L123.62 58.4117C123.784 59.1011 124.032 60.1444 125.947 60.524C126.858 60.7062 127.801 62.0349 128.794 63.4426C129.142 63.9346 129.499 64.4403 129.845 64.8761C130.223 64.0485 130.837 62.4753 130.923 62.0562C128.744 60.4572 128.398 58.8885 128.147 57.7436C127.965 56.9084 127.833 56.3055 127.084 55.9653C126.817 55.8385 126.567 55.6805 126.337 55.4946C125.753 55.011 125.306 54.3827 125.04 53.6723C124.767 52.7931 124.524 52.7612 124.515 52.7521L124.512 52.746Z" fill="#1B1C21"/>
<path d="M125.654 59.1041C125.565 59.1041 125.477 59.0949 125.391 59.0767C125.333 59.0633 125.283 59.028 125.251 58.9782C125.219 58.9284 125.208 58.8681 125.219 58.8101C125.231 58.752 125.265 58.7008 125.313 58.6672C125.362 58.6337 125.422 58.6204 125.481 58.6303C125.581 58.6587 125.688 58.6596 125.789 58.6329C125.89 58.6062 125.982 58.5528 126.056 58.4784C126.308 58.2203 126.402 57.6736 126.284 57.1482C126.191 56.7382 126.009 56.4649 125.74 56.3358C125.221 56.0852 124.504 56.4163 124.496 56.4193C124.443 56.4422 124.382 56.4434 124.327 56.4228C124.272 56.4022 124.228 56.3612 124.202 56.3085C124.177 56.2557 124.173 56.1952 124.191 56.1395C124.209 56.0838 124.248 56.0372 124.299 56.0093C124.336 55.9911 125.21 55.575 125.939 55.9258C126.338 56.1186 126.604 56.4967 126.729 57.048C126.853 57.5992 126.799 58.3721 126.383 58.7973C126.288 58.8955 126.175 58.9734 126.05 59.0261C125.924 59.0789 125.79 59.1054 125.654 59.1041Z" fill="#1B1C21"/>
<path d="M158.049 46.4867C158.019 46.5049 157.986 46.5164 157.951 46.5203C157.917 46.5243 157.882 46.5206 157.849 46.5096C157.816 46.4986 157.786 46.4806 157.76 46.4567C157.735 46.4328 157.715 46.4036 157.703 46.3713C157.437 45.7153 157.009 44.4473 156.135 44.2454C155.015 43.9857 153.202 43.6531 153.045 44.5384C152.91 45.3144 153.07 46.6538 152.253 47.6241C152.175 47.7183 152.242 47.8671 152.339 47.94L152.854 48.3743C152.974 48.5139 153.048 48.6865 153.068 48.8693C153.109 49.2899 153.542 50.7553 153.688 50.8707C153.972 51.097 155.387 51.0089 155.387 51.0089L156.146 54.3497C156.156 54.3847 156.159 54.4214 156.155 54.4576C156.151 54.4937 156.139 54.5287 156.121 54.5604C156.103 54.5921 156.079 54.6199 156.05 54.6421C156.021 54.6643 155.988 54.6806 155.953 54.6899L154.6 55.1454C154.6 55.1454 155.686 56.664 159.077 56.4362C161.245 56.2843 162.832 54.7658 162.832 54.7658C162.832 54.7658 158.617 54.1675 158.049 49.1852C158.043 49.1314 158.051 49.0769 158.072 49.0271C158.093 48.9774 158.127 48.934 158.17 48.9012C158.507 48.6491 159.412 47.905 159.255 47.1503C159.081 46.3425 158.483 46.221 158.049 46.4867Z" fill="white"/>
<path d="M158.39 56.6851C155.454 56.6851 154.455 55.3351 154.411 55.2744C154.391 55.2454 154.377 55.2121 154.372 55.177C154.367 55.1419 154.37 55.1061 154.381 55.0724C154.39 55.0373 154.408 55.005 154.433 54.9785C154.458 54.952 154.489 54.9321 154.523 54.9206L155.875 54.465H155.893C155.899 54.4637 155.904 54.4613 155.908 54.4579C155.913 54.4545 155.916 54.4502 155.919 54.4453C155.921 54.4395 155.923 54.4333 155.923 54.427C155.923 54.4208 155.921 54.4146 155.919 54.4088L155.201 51.2457C154.686 51.2685 153.817 51.27 153.538 51.0498C153.289 50.8509 152.868 49.2382 152.835 48.8905C152.819 48.7695 152.775 48.654 152.706 48.5533L152.185 48.1145C152.076 48.0293 152.005 47.905 151.987 47.7683C151.981 47.7167 151.985 47.6643 152 47.6144C152.014 47.5645 152.039 47.5181 152.072 47.4782C152.636 46.807 152.697 45.9156 152.745 45.2004C152.756 44.966 152.78 44.7323 152.815 44.5004C152.833 44.3915 152.874 44.2876 152.935 44.1956C152.996 44.1035 153.076 44.0252 153.169 43.9658C153.661 43.6393 154.59 43.6621 156.18 44.0235C157.091 44.2346 157.539 45.3599 157.835 46.1039C157.86 46.1677 157.884 46.2285 157.907 46.2846L158.049 46.4866L157.934 46.2907C158.068 46.2053 158.221 46.1536 158.38 46.1401C158.539 46.1266 158.698 46.1517 158.845 46.2133C159.068 46.3105 159.358 46.5443 159.475 47.1031C159.65 47.9307 158.818 48.6991 158.306 49.0772C158.295 49.0862 158.286 49.0979 158.28 49.1112C158.275 49.1244 158.273 49.1389 158.274 49.1532C158.809 53.9047 162.819 54.5349 162.86 54.5349C162.902 54.5413 162.942 54.5593 162.974 54.5869C163.006 54.6145 163.031 54.6506 163.044 54.6911C163.057 54.7316 163.058 54.7749 163.048 54.8163C163.038 54.8576 163.017 54.8953 162.986 54.9251C162.918 54.9889 161.316 56.512 159.09 56.6623C158.845 56.6775 158.611 56.6851 158.39 56.6851ZM155.012 55.241C155.468 55.6312 156.671 56.3677 159.056 56.2068C160.549 56.105 161.77 55.3093 162.332 54.875C161.188 54.544 158.285 53.3033 157.817 49.2048C157.806 49.1115 157.82 49.0171 157.857 48.9308C157.894 48.8446 157.953 48.7694 158.028 48.7128C158.37 48.4562 159.152 47.7941 159.026 47.1942C158.964 46.9012 158.836 46.7053 158.657 46.6263C158.576 46.595 158.489 46.5834 158.403 46.5927C158.317 46.6019 158.234 46.6317 158.162 46.6795C158.104 46.7142 158.039 46.736 157.972 46.7433C157.905 46.7506 157.837 46.7432 157.772 46.7217C157.708 46.7002 157.65 46.6651 157.601 46.6187C157.551 46.5724 157.513 46.5159 157.488 46.4532C157.465 46.397 157.44 46.3348 157.415 46.2679C157.17 45.6529 156.762 44.6218 156.08 44.4654C154.681 44.142 153.788 44.101 153.422 44.3424C153.382 44.3685 153.348 44.4029 153.322 44.4432C153.295 44.4835 153.278 44.5288 153.271 44.5763C153.239 44.7585 153.223 44.9863 153.207 45.2277C153.155 45.9992 153.09 46.9558 152.457 47.7348C152.462 47.743 152.47 47.7502 152.478 47.7561L153 48.198C153.175 48.3286 153.28 48.6855 153.295 48.8449C153.336 49.2549 153.715 50.4971 153.842 50.699C153.993 50.7841 154.695 50.822 155.374 50.7795C155.428 50.7767 155.481 50.7929 155.524 50.8254C155.568 50.8578 155.598 50.9045 155.611 50.9572L156.37 54.298C156.387 54.3609 156.391 54.4267 156.383 54.4913C156.374 54.556 156.353 54.6183 156.32 54.6746C156.287 54.7317 156.244 54.7818 156.191 54.822C156.139 54.8621 156.08 54.8915 156.016 54.9084L155.012 55.241Z" fill="#1B1C21"/>
<path d="M82.7852 116.048C83.9484 113.653 84.0592 111.24 82.7852 108.803L83.6963 107.705L108.713 108.528L107.85 116.475L83.6431 116.754L82.7852 116.048Z" fill="white"/>
<path d="M83.645 116.982C83.5898 116.983 83.5359 116.965 83.4931 116.93L82.6397 116.222C82.6005 116.19 82.5734 116.145 82.5626 116.095C82.5519 116.045 82.5582 115.993 82.5805 115.948C83.774 113.491 83.7756 111.188 82.5805 108.908C82.5597 108.868 82.5512 108.823 82.556 108.778C82.5609 108.734 82.5789 108.691 82.6078 108.657L83.5189 107.559C83.5411 107.533 83.5691 107.511 83.6006 107.497C83.6322 107.483 83.6666 107.476 83.7012 107.477L108.718 108.3C108.749 108.301 108.78 108.309 108.808 108.323C108.837 108.336 108.862 108.355 108.883 108.379C108.903 108.403 108.919 108.43 108.928 108.46C108.937 108.49 108.94 108.521 108.936 108.552L108.075 116.5C108.069 116.556 108.043 116.607 108.001 116.644C107.96 116.681 107.906 116.702 107.85 116.702L83.645 116.982ZM83.0725 115.986L83.7255 116.526L107.656 116.25L108.47 108.748L83.809 107.937L83.0619 108.833C84.2083 111.125 84.2129 113.53 83.0679 115.986H83.0725Z" fill="#1B1C21"/>
<path d="M128.751 106.83H82.3184C82.0579 106.83 81.808 106.934 81.6237 107.118C81.4394 107.302 81.3359 107.552 81.3359 107.813C81.3359 108.073 81.4394 108.323 81.6237 108.508C81.808 108.692 82.0579 108.795 82.3184 108.795H103.665C104.037 108.795 104.405 108.869 104.749 109.011C105.093 109.154 105.405 109.363 105.668 109.627C105.931 109.89 106.139 110.203 106.281 110.547C106.423 110.891 106.496 111.26 106.495 111.632V113.223C106.495 113.974 106.197 114.694 105.666 115.225C105.135 115.756 104.415 116.054 103.665 116.054H82.3184C82.0579 116.054 81.808 116.157 81.6237 116.342C81.4394 116.526 81.3359 116.776 81.3359 117.036C81.3359 117.297 81.4394 117.547 81.6237 117.731C81.808 117.915 82.0579 118.019 82.3184 118.019H128.751C130.135 118.019 131.463 117.469 132.441 116.49C133.42 115.511 133.97 114.184 133.97 112.8V112.056C133.971 111.37 133.836 110.69 133.574 110.056C133.313 109.423 132.928 108.846 132.443 108.361C131.959 107.876 131.383 107.491 130.75 107.228C130.116 106.966 129.437 106.83 128.751 106.83Z" fill="white"/>
<path opacity="0.6" d="M128.751 106.83H82.3184C82.0579 106.83 81.808 106.934 81.6237 107.118C81.4394 107.302 81.3359 107.552 81.3359 107.813C81.3359 108.073 81.4394 108.323 81.6237 108.508C81.808 108.692 82.0579 108.795 82.3184 108.795H103.665C104.037 108.795 104.405 108.869 104.749 109.011C105.093 109.154 105.405 109.363 105.668 109.627C105.931 109.89 106.139 110.203 106.281 110.547C106.423 110.891 106.496 111.26 106.495 111.632V113.223C106.495 113.974 106.197 114.694 105.666 115.225C105.135 115.756 104.415 116.054 103.665 116.054H82.3184C82.0579 116.054 81.808 116.157 81.6237 116.342C81.4394 116.526 81.3359 116.776 81.3359 117.036C81.3359 117.297 81.4394 117.547 81.6237 117.731C81.808 117.915 82.0579 118.019 82.3184 118.019H128.751C130.135 118.019 131.463 117.469 132.441 116.49C133.42 115.511 133.97 114.184 133.97 112.8V112.056C133.971 111.37 133.836 110.69 133.574 110.056C133.313 109.423 132.928 108.846 132.443 108.361C131.959 107.876 131.383 107.491 130.75 107.228C130.116 106.966 129.437 106.83 128.751 106.83Z" fill="url(#paint14_linear_989_80118)"/>
<path d="M128.752 118.241H82.3199C82.0171 118.214 81.7351 118.075 81.5296 117.851C81.3242 117.627 81.2102 117.334 81.2102 117.03C81.2102 116.726 81.3242 116.433 81.5296 116.209C81.7351 115.985 82.0171 115.846 82.3199 115.82H103.666C104.356 115.819 105.018 115.545 105.506 115.057C105.994 114.569 106.268 113.907 106.269 113.217V111.632C106.268 110.942 105.994 110.28 105.506 109.792C105.018 109.304 104.356 109.03 103.666 109.029H82.3199C82.1522 109.044 81.9832 109.023 81.8238 108.969C81.6644 108.915 81.5179 108.828 81.3938 108.714C81.2697 108.6 81.1706 108.462 81.1028 108.308C81.035 108.154 81 107.987 81 107.819C81 107.65 81.035 107.484 81.1028 107.33C81.1706 107.176 81.2697 107.037 81.3938 106.923C81.5179 106.81 81.6644 106.723 81.8238 106.669C81.9832 106.614 82.1522 106.594 82.3199 106.609H128.752C130.196 106.61 131.581 107.185 132.602 108.206C133.623 109.227 134.198 110.611 134.199 112.056V112.8C134.196 114.243 133.621 115.626 132.6 116.646C131.579 117.665 130.195 118.239 128.752 118.241ZM82.3199 116.276C82.1341 116.296 81.9623 116.384 81.8375 116.524C81.7127 116.663 81.6437 116.843 81.6437 117.03C81.6437 117.217 81.7127 117.398 81.8375 117.537C81.9623 117.676 82.1341 117.765 82.3199 117.785H128.752C130.076 117.783 131.344 117.257 132.28 116.321C133.216 115.386 133.742 114.117 133.744 112.794V112.049C133.742 110.726 133.216 109.458 132.28 108.522C131.344 107.586 130.076 107.06 128.752 107.058H82.3199C82.2139 107.046 82.1065 107.057 82.0049 107.09C81.9033 107.122 81.8097 107.176 81.7302 107.247C81.6507 107.318 81.5872 107.406 81.5436 107.503C81.5001 107.601 81.4776 107.706 81.4776 107.813C81.4776 107.919 81.5001 108.025 81.5436 108.122C81.5872 108.22 81.6507 108.307 81.7302 108.378C81.8097 108.449 81.9033 108.503 82.0049 108.536C82.1065 108.568 82.2139 108.579 82.3199 108.567H103.666C104.068 108.568 104.466 108.647 104.837 108.802C105.209 108.956 105.546 109.182 105.83 109.466C106.114 109.751 106.339 110.089 106.493 110.46C106.646 110.832 106.725 111.23 106.724 111.632V113.223C106.724 114.034 106.401 114.812 105.828 115.385C105.254 115.958 104.477 116.281 103.666 116.282L82.3199 116.276Z" fill="#1B1C21"/>
<path d="M96.8703 111.131H95.0481C94.9877 111.131 94.9297 111.107 94.887 111.064C94.8443 111.021 94.8203 110.963 94.8203 110.903C94.8203 110.843 94.8443 110.785 94.887 110.742C94.9297 110.699 94.9877 110.675 95.0481 110.675H96.8703C96.9308 110.675 96.9887 110.699 97.0314 110.742C97.0741 110.785 97.0981 110.843 97.0981 110.903C97.0981 110.963 97.0741 111.021 97.0314 111.064C96.9887 111.107 96.9308 111.131 96.8703 111.131Z" fill="url(#paint15_linear_989_80118)"/>
<path d="M93.8976 111.131H84.22C84.1596 111.131 84.1016 111.107 84.0589 111.064C84.0162 111.021 83.9922 110.963 83.9922 110.903C83.9922 110.843 84.0162 110.785 84.0589 110.742C84.1016 110.699 84.1596 110.675 84.22 110.675H93.8976C93.958 110.675 94.016 110.699 94.0587 110.742C94.1014 110.785 94.1254 110.843 94.1254 110.903C94.1254 110.963 94.1014 111.021 94.0587 111.064C94.016 111.107 93.958 111.131 93.8976 111.131Z" fill="url(#paint16_linear_989_80118)"/>
<path d="M95.7572 112.315H84.3059C84.2455 112.315 84.1876 112.291 84.1448 112.248C84.1021 112.206 84.0781 112.148 84.0781 112.087C84.0781 112.027 84.1021 111.969 84.1448 111.926C84.1876 111.884 84.2455 111.86 84.3059 111.86H95.7572C95.8176 111.86 95.8756 111.884 95.9183 111.926C95.961 111.969 95.985 112.027 95.985 112.087C95.985 112.148 95.961 112.206 95.9183 112.248C95.8756 112.291 95.8176 112.315 95.7572 112.315Z" fill="url(#paint17_linear_989_80118)"/>
<path d="M98.6363 114.437H96.5559C96.4955 114.437 96.4376 114.413 96.3948 114.37C96.3521 114.327 96.3281 114.269 96.3281 114.209C96.3281 114.149 96.3521 114.091 96.3948 114.048C96.4376 114.005 96.4955 113.981 96.5559 113.981H98.6363C98.6967 113.981 98.7547 114.005 98.7974 114.048C98.8401 114.091 98.8641 114.149 98.8641 114.209C98.8641 114.269 98.8401 114.327 98.7974 114.37C98.7547 114.413 98.6967 114.437 98.6363 114.437Z" fill="url(#paint18_linear_989_80118)"/>
<path d="M95.6713 114.437H84.22C84.1596 114.437 84.1016 114.413 84.0589 114.37C84.0162 114.327 83.9922 114.269 83.9922 114.209C83.9922 114.149 84.0162 114.091 84.0589 114.048C84.1016 114.005 84.1596 113.981 84.22 113.981H95.6713C95.7317 113.981 95.7896 114.005 95.8323 114.048C95.8751 114.091 95.8991 114.149 95.8991 114.209C95.8991 114.269 95.8751 114.327 95.8323 114.37C95.7896 114.413 95.7317 114.437 95.6713 114.437Z" fill="url(#paint19_linear_989_80118)"/>
<path d="M83.5078 129.437H125.448V119.161H83.5078C84.7469 122.632 84.7803 126.058 83.5078 129.437Z" fill="white"/>
<path d="M125.449 129.665H83.5084C83.4716 129.665 83.4353 129.656 83.4028 129.638C83.3702 129.621 83.3424 129.596 83.3216 129.566C83.3007 129.536 83.2875 129.501 83.283 129.464C83.2785 129.428 83.2829 129.391 83.2958 129.356C84.5258 126.091 84.5243 122.687 83.2958 119.238C83.2838 119.204 83.2802 119.167 83.2852 119.131C83.2902 119.095 83.3037 119.06 83.3247 119.03C83.3455 119 83.3732 118.976 83.4055 118.959C83.4377 118.942 83.4735 118.933 83.5099 118.933H125.449C125.509 118.933 125.567 118.957 125.61 119C125.653 119.043 125.677 119.1 125.677 119.161V129.437C125.677 129.497 125.653 129.555 125.61 129.598C125.567 129.641 125.509 129.665 125.449 129.665ZM83.841 129.209H125.221V119.389H83.8288C84.954 122.731 84.9556 126.031 83.8349 129.209H83.841Z" fill="#1B1C21"/>
<path d="M120.389 119.668H83.2156C83.001 119.668 82.7951 119.583 82.6433 119.431C82.4915 119.279 82.4062 119.073 82.4062 118.859C82.4062 118.644 82.4915 118.438 82.6433 118.286C82.7951 118.135 83.001 118.049 83.2156 118.049H131.463C132.406 118.049 133.311 118.424 133.978 119.091C134.646 119.759 135.021 120.664 135.021 121.607V127.2C135.022 127.668 134.93 128.131 134.752 128.564C134.574 128.996 134.312 129.39 133.981 129.721C133.651 130.052 133.258 130.315 132.826 130.494C132.394 130.673 131.931 130.766 131.463 130.766H83.2156C83.1093 130.766 83.0041 130.745 82.9059 130.704C82.8077 130.663 82.7185 130.604 82.6433 130.529C82.5682 130.453 82.5085 130.364 82.4679 130.266C82.4272 130.168 82.4062 130.062 82.4062 129.956C82.4062 129.85 82.4272 129.745 82.4679 129.646C82.5085 129.548 82.5682 129.459 82.6433 129.384C82.7185 129.309 82.8077 129.249 82.9059 129.208C83.0041 129.168 83.1093 129.147 83.2156 129.147H120.389C121.056 129.146 121.696 128.881 122.167 128.41C122.639 127.938 122.904 127.299 122.904 126.632V122.181C122.904 121.515 122.639 120.875 122.167 120.404C121.696 119.933 121.056 119.668 120.389 119.668Z" fill="url(#paint20_linear_989_80118)"/>
<path d="M131.464 130.986H83.2168C82.9418 130.986 82.678 130.876 82.4835 130.682C82.289 130.487 82.1797 130.224 82.1797 129.949C82.1797 129.674 82.289 129.41 82.4835 129.215C82.678 129.021 82.9418 128.911 83.2168 128.911H120.391C120.997 128.911 121.578 128.669 122.007 128.241C122.436 127.812 122.677 127.231 122.678 126.624V122.181C122.677 121.575 122.436 120.994 122.007 120.566C121.578 120.137 120.997 119.896 120.391 119.896H83.2168C82.9418 119.896 82.678 119.787 82.4835 119.592C82.289 119.398 82.1797 119.134 82.1797 118.859C82.1797 118.584 82.289 118.32 82.4835 118.125C82.678 117.931 82.9418 117.822 83.2168 117.822H131.464C132.467 117.824 133.428 118.224 134.138 118.933C134.847 119.643 135.247 120.604 135.25 121.607V127.2C135.247 128.203 134.847 129.164 134.138 129.874C133.428 130.583 132.467 130.983 131.464 130.986ZM83.2168 129.367C83.0626 129.367 82.9147 129.428 82.8056 129.537C82.6965 129.646 82.6352 129.794 82.6352 129.949C82.6352 130.103 82.6965 130.251 82.8056 130.36C82.9147 130.469 83.0626 130.53 83.2168 130.53H131.464C132.346 130.527 133.192 130.176 133.816 129.552C134.439 128.928 134.791 128.082 134.794 127.2V121.607C134.791 120.725 134.439 119.879 133.816 119.256C133.192 118.632 132.346 118.28 131.464 118.277H83.2168C83.0626 118.277 82.9147 118.338 82.8056 118.447C82.6965 118.557 82.6352 118.704 82.6352 118.859C82.6352 119.013 82.6965 119.161 82.8056 119.27C82.9147 119.379 83.0626 119.44 83.2168 119.44H120.391C121.118 119.441 121.814 119.73 122.328 120.244C122.843 120.758 123.132 121.454 123.133 122.181V126.624C123.132 127.352 122.843 128.049 122.329 128.563C121.815 129.077 121.118 129.366 120.391 129.367H83.2168Z" fill="#1B1C21"/>
<path d="M91.0517 121.829H84.8606C84.8002 121.829 84.7422 121.805 84.6995 121.762C84.6568 121.719 84.6328 121.661 84.6328 121.601C84.6328 121.541 84.6568 121.483 84.6995 121.44C84.7422 121.397 84.8002 121.373 84.8606 121.373H91.0532C91.1136 121.373 91.1715 121.397 91.2143 121.44C91.257 121.483 91.281 121.541 91.281 121.601C91.281 121.661 91.257 121.719 91.2143 121.762C91.1715 121.805 91.1136 121.829 91.0532 121.829H91.0517Z" fill="url(#paint21_linear_989_80118)"/>
<path d="M103.368 121.829H92.1106C92.0502 121.829 91.9922 121.805 91.9495 121.762C91.9068 121.719 91.8828 121.661 91.8828 121.601C91.8828 121.541 91.9068 121.483 91.9495 121.44C91.9922 121.397 92.0502 121.373 92.1106 121.373H103.368C103.428 121.373 103.486 121.397 103.529 121.44C103.571 121.483 103.595 121.541 103.595 121.601C103.595 121.661 103.571 121.719 103.529 121.762C103.486 121.805 103.428 121.829 103.368 121.829Z" fill="url(#paint22_linear_989_80118)"/>
<path d="M100.461 123.2H84.9856C84.9252 123.2 84.8672 123.176 84.8245 123.133C84.7818 123.091 84.7578 123.033 84.7578 122.972C84.7578 122.912 84.7818 122.854 84.8245 122.811C84.8672 122.769 84.9252 122.745 84.9856 122.745H100.461C100.521 122.745 100.579 122.769 100.622 122.811C100.665 122.854 100.689 122.912 100.689 122.972C100.689 123.033 100.665 123.091 100.622 123.133C100.579 123.176 100.521 123.2 100.461 123.2Z" fill="url(#paint23_linear_989_80118)"/>
<path d="M104.924 123.2H101.775C101.714 123.2 101.656 123.176 101.614 123.133C101.571 123.091 101.547 123.033 101.547 122.972C101.547 122.912 101.571 122.854 101.614 122.811C101.656 122.769 101.714 122.745 101.775 122.745H104.924C104.985 122.745 105.042 122.769 105.085 122.811C105.128 122.854 105.152 122.912 105.152 122.972C105.152 123.033 105.128 123.091 105.085 123.133C105.042 123.176 104.985 123.2 104.924 123.2Z" fill="url(#paint24_linear_989_80118)"/>
<path d="M101.396 126.058H84.9856C84.9252 126.058 84.8672 126.034 84.8245 125.991C84.7818 125.949 84.7578 125.891 84.7578 125.83C84.7578 125.77 84.7818 125.712 84.8245 125.669C84.8672 125.627 84.9252 125.603 84.9856 125.603H101.396C101.457 125.603 101.515 125.627 101.558 125.669C101.6 125.712 101.624 125.77 101.624 125.83C101.624 125.891 101.6 125.949 101.558 125.991C101.515 126.034 101.457 126.058 101.396 126.058Z" fill="url(#paint25_linear_989_80118)"/>
<path d="M103.369 126.058H101.943C101.882 126.058 101.824 126.034 101.782 125.991C101.739 125.949 101.715 125.891 101.715 125.83C101.715 125.77 101.739 125.712 101.782 125.669C101.824 125.627 101.882 125.603 101.943 125.603H103.369C103.429 125.603 103.487 125.627 103.53 125.669C103.572 125.712 103.596 125.77 103.596 125.83C103.596 125.891 103.572 125.949 103.53 125.991C103.487 126.034 103.429 126.058 103.369 126.058Z" fill="url(#paint26_linear_989_80118)"/>
<path d="M118.086 125.451C118.356 125.179 119.908 120.341 119.908 120.341L122.98 122.534L119.612 127.062L118.086 125.451Z" fill="white"/>
<path d="M119.614 127.282C119.583 127.282 119.552 127.276 119.524 127.263C119.495 127.251 119.47 127.233 119.448 127.211L117.921 125.603C117.881 125.56 117.859 125.505 117.859 125.447C117.859 125.389 117.881 125.333 117.921 125.291C118.105 125.042 118.972 122.52 119.696 120.268C119.706 120.233 119.724 120.201 119.749 120.174C119.775 120.148 119.806 120.128 119.84 120.116C119.874 120.105 119.911 120.102 119.946 120.107C119.982 120.113 120.016 120.126 120.045 120.146L123.117 122.339C123.142 122.357 123.163 122.38 123.179 122.406C123.195 122.432 123.205 122.461 123.21 122.491C123.214 122.521 123.213 122.552 123.206 122.581C123.198 122.61 123.185 122.638 123.167 122.663L119.799 127.189C119.78 127.216 119.755 127.238 119.725 127.254C119.696 127.27 119.664 127.279 119.631 127.28L119.614 127.282ZM118.366 125.408L119.593 126.7L122.668 122.576L120.038 120.701C119.576 122.11 118.733 124.656 118.366 125.408Z" fill="#1B1C21"/>
<path d="M123.625 131.56L121.581 131.548C120.917 131.543 120.264 131.374 119.681 131.056C119.098 130.739 118.603 130.281 118.24 129.725L116.214 126.514C116.083 126.304 115.997 126.07 115.961 125.826C115.925 125.582 115.939 125.333 116.003 125.095C116.068 124.857 116.18 124.634 116.334 124.441C116.489 124.249 116.681 124.09 116.899 123.975C117.742 123.527 118.626 123.089 118.832 123.109C119.253 123.149 119.423 125.138 119.423 125.138L121.245 125.208C121.245 125.208 122.144 128.948 122.935 129.373C123.444 129.655 123.874 130.061 124.185 130.553C124.25 130.652 124.286 130.767 124.29 130.886C124.294 131.004 124.266 131.122 124.208 131.225C124.151 131.329 124.066 131.415 123.963 131.474C123.86 131.533 123.743 131.562 123.625 131.56Z" fill="#1B1C21"/>
<path d="M123.423 130.99H123.388L120.592 130.57C120.249 130.518 119.92 130.391 119.632 130.198C119.343 130.005 119.1 129.75 118.922 129.452L116.453 125.326C116.435 125.3 116.424 125.272 116.418 125.241C116.412 125.211 116.413 125.18 116.42 125.15C116.426 125.119 116.439 125.091 116.457 125.066C116.475 125.041 116.498 125.02 116.525 125.004C116.551 124.988 116.581 124.978 116.611 124.973C116.642 124.969 116.673 124.971 116.703 124.98C116.733 124.988 116.76 125.002 116.784 125.022C116.809 125.041 116.828 125.065 116.843 125.092L119.314 129.218C119.457 129.458 119.651 129.664 119.884 129.819C120.116 129.975 120.38 130.077 120.656 130.119L123.452 130.539C123.482 130.541 123.511 130.55 123.538 130.563C123.564 130.576 123.588 130.595 123.608 130.618C123.627 130.64 123.642 130.667 123.652 130.695C123.661 130.724 123.665 130.754 123.663 130.784C123.661 130.814 123.652 130.843 123.639 130.87C123.626 130.896 123.607 130.92 123.584 130.94C123.561 130.96 123.535 130.974 123.507 130.984C123.478 130.993 123.448 130.997 123.418 130.995L123.423 130.99Z" fill="white"/>
<path d="M119.967 127.88C119.912 127.88 119.858 127.86 119.816 127.824C119.775 127.788 119.748 127.737 119.74 127.682C119.733 127.627 119.746 127.572 119.777 127.526C119.808 127.48 119.854 127.446 119.908 127.432L121.466 127.009C121.495 127.001 121.525 126.999 121.555 127.003C121.584 127.007 121.613 127.016 121.639 127.031C121.665 127.046 121.688 127.066 121.706 127.09C121.724 127.114 121.737 127.141 121.745 127.17C121.753 127.198 121.755 127.229 121.751 127.258C121.747 127.288 121.738 127.317 121.723 127.343C121.708 127.369 121.688 127.391 121.664 127.41C121.64 127.428 121.613 127.441 121.584 127.449L120.028 127.88C120.008 127.883 119.987 127.883 119.967 127.88Z" fill="white"/>
<path d="M120.78 128.687C120.72 128.694 120.659 128.677 120.611 128.639C120.563 128.602 120.532 128.547 120.525 128.486C120.518 128.426 120.535 128.365 120.572 128.317C120.61 128.269 120.665 128.238 120.726 128.231L121.77 127.976C121.8 127.967 121.831 127.964 121.862 127.967C121.893 127.971 121.922 127.981 121.949 127.996C121.976 128.011 122 128.032 122.018 128.057C122.037 128.081 122.05 128.11 122.058 128.14C122.065 128.17 122.066 128.201 122.061 128.232C122.056 128.262 122.045 128.291 122.028 128.318C122.011 128.344 121.989 128.366 121.963 128.383C121.938 128.4 121.909 128.412 121.878 128.418L120.833 128.673C120.816 128.68 120.798 128.684 120.78 128.687Z" fill="white"/>
<path d="M128.57 124.52L132.137 128.105L134.028 127.41L130.74 122.825L128.57 124.52Z" fill="white"/>
<path d="M132.139 128.336C132.079 128.336 132.021 128.312 131.978 128.269L128.41 124.684C128.387 124.661 128.369 124.634 128.358 124.604C128.347 124.573 128.342 124.541 128.344 124.509C128.347 124.477 128.356 124.446 128.37 124.417C128.385 124.389 128.406 124.364 128.431 124.344L130.601 122.647C130.625 122.629 130.653 122.615 130.683 122.607C130.713 122.599 130.744 122.597 130.774 122.602C130.805 122.606 130.834 122.617 130.86 122.633C130.886 122.648 130.909 122.67 130.927 122.695L134.21 127.273C134.231 127.301 134.245 127.334 134.251 127.369C134.257 127.403 134.254 127.439 134.244 127.473C134.234 127.506 134.216 127.537 134.191 127.562C134.167 127.588 134.137 127.607 134.104 127.619L132.214 128.315C132.19 128.326 132.165 128.333 132.139 128.336ZM128.914 124.54L132.197 127.839L133.671 127.299L130.695 123.149L128.914 124.54Z" fill="#1B1C21"/>
<path d="M131.012 127.543C131.012 127.543 130.839 129.069 131.132 130.416C131.21 130.765 131.406 131.076 131.686 131.299C131.965 131.521 132.313 131.642 132.67 131.64H141.424C141.562 131.641 141.697 131.598 141.81 131.519C141.922 131.44 142.008 131.329 142.055 131.199C142.102 131.069 142.108 130.929 142.072 130.796C142.036 130.663 141.96 130.544 141.854 130.456C140.298 129.153 137.434 127.161 133.912 126.576L132.931 127.95L131.012 127.543Z" fill="#1B1C21"/>
<path d="M141.007 130.664H131.931C131.87 130.664 131.813 130.64 131.77 130.597C131.727 130.554 131.703 130.496 131.703 130.436C131.703 130.376 131.727 130.318 131.77 130.275C131.813 130.232 131.87 130.208 131.931 130.208H141.004C141.065 130.208 141.123 130.232 141.165 130.275C141.208 130.318 141.232 130.376 141.232 130.436C141.232 130.496 141.208 130.554 141.165 130.597C141.123 130.64 141.065 130.664 141.004 130.664H141.007Z" fill="white"/>
<path d="M135.945 129.051C135.915 129.052 135.886 129.046 135.858 129.034C135.83 129.023 135.804 129.006 135.782 128.984C135.761 128.963 135.744 128.937 135.732 128.909C135.72 128.88 135.715 128.85 135.715 128.82C135.715 128.789 135.722 128.759 135.734 128.731L136.215 127.566C136.225 127.537 136.241 127.51 136.262 127.487C136.283 127.464 136.309 127.446 136.337 127.433C136.365 127.42 136.396 127.414 136.427 127.413C136.458 127.413 136.488 127.418 136.517 127.43C136.546 127.442 136.571 127.46 136.593 127.482C136.615 127.504 136.632 127.53 136.643 127.559C136.654 127.588 136.659 127.619 136.658 127.65C136.657 127.681 136.649 127.711 136.636 127.739L136.156 128.905C136.139 128.948 136.11 128.984 136.073 129.01C136.035 129.036 135.991 129.051 135.945 129.051Z" fill="white"/>
<path d="M137.523 129.358C137.499 129.358 137.475 129.354 137.452 129.346C137.423 129.337 137.396 129.323 137.372 129.304C137.349 129.285 137.329 129.261 137.315 129.234C137.301 129.207 137.293 129.178 137.29 129.148C137.287 129.118 137.291 129.087 137.3 129.059L137.648 128.008C137.667 127.95 137.708 127.903 137.762 127.876C137.816 127.848 137.878 127.844 137.936 127.863C137.993 127.882 138.041 127.923 138.068 127.977C138.095 128.031 138.1 128.093 138.081 128.151L137.733 129.201C137.718 129.246 137.69 129.285 137.653 129.313C137.615 129.341 137.57 129.356 137.523 129.358Z" fill="white"/>
<path d="M109.69 99.4381C109.69 99.4381 125.993 97.54 130.842 101.737C135.691 105.934 123.188 123.981 123.188 123.981L119.24 121.048L122.989 108.293L107.918 104.012L109.69 99.4381Z" fill="#1B1C21"/>
<path d="M100.716 107.745C103.083 108.504 107.321 109.468 113.244 109.388C114.069 109.375 114.88 109.594 115.588 110.019C116.295 110.444 116.869 111.059 117.245 111.793C118.999 115.234 122.795 121.428 128.98 125.443L131.932 123.852L124.396 106.88C124.055 106.113 123.564 105.421 122.951 104.847C122.338 104.274 121.616 103.829 120.827 103.54L105.885 98.0608C105.885 98.0608 101.258 96.7685 98.98 100.904C98.5745 101.643 97.8213 100.322 97.6422 100.919C97.0271 102.963 98.6763 107.099 100.716 107.745Z" fill="#1B1C21"/>
<path d="M127.802 114.777C127.758 114.777 127.715 114.764 127.678 114.74C127.641 114.716 127.612 114.682 127.594 114.642L124.188 106.973C123.858 106.235 123.384 105.571 122.793 105.018C122.203 104.466 121.508 104.037 120.75 103.757L113.593 101.133C113.563 101.124 113.535 101.11 113.511 101.09C113.486 101.071 113.466 101.046 113.452 101.018C113.437 100.991 113.429 100.96 113.426 100.929C113.424 100.898 113.428 100.866 113.439 100.837C113.449 100.807 113.466 100.78 113.487 100.758C113.509 100.735 113.534 100.716 113.563 100.704C113.592 100.692 113.623 100.685 113.654 100.685C113.685 100.685 113.716 100.692 113.745 100.704L120.9 103.329C121.716 103.63 122.463 104.091 123.098 104.685C123.733 105.279 124.243 105.994 124.598 106.788L128.004 114.456C128.017 114.484 128.024 114.514 128.025 114.544C128.026 114.574 128.022 114.604 128.011 114.633C128 114.661 127.984 114.687 127.963 114.709C127.942 114.731 127.917 114.748 127.889 114.76C127.861 114.771 127.832 114.777 127.802 114.777Z" fill="white"/>
<path d="M123.827 121.37C123.796 121.371 123.766 121.365 123.738 121.353C123.709 121.341 123.684 121.323 123.663 121.3C122.975 120.585 122.296 119.817 121.652 119.023C121.634 118.999 121.62 118.973 121.611 118.944C121.602 118.915 121.6 118.885 121.603 118.856C121.609 118.795 121.639 118.74 121.686 118.702C121.733 118.664 121.793 118.646 121.853 118.653C121.913 118.659 121.968 118.689 122.006 118.736C122.644 119.525 123.312 120.283 123.991 120.989C124.022 121.021 124.043 121.062 124.051 121.106C124.059 121.15 124.054 121.195 124.036 121.236C124.019 121.277 123.99 121.312 123.953 121.337C123.915 121.362 123.872 121.375 123.827 121.375V121.37Z" fill="white"/>
<path d="M121.827 119.103C121.793 119.103 121.759 119.096 121.729 119.081C121.698 119.066 121.672 119.045 121.651 119.018C121.333 118.626 121.016 118.218 120.709 117.803C120.673 117.755 120.658 117.694 120.667 117.634C120.675 117.574 120.708 117.52 120.756 117.484C120.805 117.448 120.865 117.433 120.925 117.442C120.985 117.451 121.039 117.483 121.075 117.531C121.379 117.938 121.692 118.341 122.004 118.728C122.023 118.751 122.037 118.778 122.046 118.807C122.054 118.835 122.057 118.865 122.054 118.895C122.051 118.925 122.042 118.954 122.028 118.98C122.013 119.006 121.994 119.03 121.971 119.049C121.931 119.083 121.88 119.103 121.827 119.103Z" fill="white"/>
<path d="M113.392 86.2723C113.392 86.2723 114.825 99.2937 124.456 100.146L113.392 100.297C113.392 100.297 109.292 91.9972 109.129 88.7657C108.967 85.5343 113.392 86.2723 113.392 86.2723Z" fill="white"/>
<path d="M113.394 100.527C113.351 100.527 113.31 100.515 113.273 100.493C113.237 100.471 113.208 100.439 113.189 100.401C113.022 100.059 109.07 92.0199 108.903 88.7779C108.859 87.929 109.11 87.2593 109.647 86.7764C110.915 85.6436 113.328 86.0278 113.432 86.0445C113.481 86.0528 113.525 86.0769 113.559 86.1131C113.593 86.1493 113.615 86.1956 113.62 86.2449C113.939 88.5114 114.583 90.7199 115.533 92.802C117.57 97.1784 120.581 99.5716 124.485 99.9179C124.546 99.9201 124.603 99.9462 124.644 99.9905C124.685 100.035 124.707 100.094 124.705 100.154C124.702 100.214 124.676 100.271 124.632 100.313C124.588 100.354 124.529 100.376 124.468 100.373L113.404 100.525L113.394 100.527ZM112.37 86.4241C111.611 86.4241 110.586 86.5456 109.95 87.1151C109.521 87.4977 109.322 88.049 109.359 88.7536C109.511 91.6844 113.019 99.0052 113.535 100.068L122.282 99.9437C119.255 98.9976 116.801 96.6257 115.108 92.9812C114.17 90.9106 113.525 88.7196 113.19 86.4712C112.918 86.4402 112.644 86.4244 112.37 86.4241Z" fill="#1B1C21"/>
<path d="M99.6884 77.9946C101.556 77.5542 102.335 77.5482 109.126 77.7942C110.786 77.8549 112.76 79.9384 112.954 81.5905C112.427 83.1713 109.993 90.9827 114.244 97.0796C114.958 98.1074 115.817 99.0278 116.792 99.813C115.926 100.52 114.931 101.052 113.862 101.377C111.673 102.027 110.57 101.324 108.804 101.377C104.135 101.515 102.426 106.716 99.4059 106.063C98.6011 105.889 97.5336 105.262 96.5313 103.154C95.8844 101.163 95.4313 99.1138 95.1783 97.0356C94.419 90.7488 95.6642 85.5144 96.7773 82.2298C97.1023 81.1927 97.4865 78.5109 99.6884 77.9946Z" fill="url(#paint27_linear_989_80118)"/>
<path d="M114.657 87.7285C114.657 87.7285 113.559 78.921 110.395 78.1724C111.609 80.9589 111.901 84.8631 111.735 89.3093L114.657 87.7285Z" fill="url(#paint28_linear_989_80118)"/>
<path d="M93.9353 87.4083C93.911 88.4546 93.9171 89.4113 93.9596 90.1872C94.2375 95.1984 94.9133 100.46 95.3263 104.817C95.4129 105.74 93.949 104.504 92.0615 104.513C91.5181 104.518 90.9927 104.709 90.5718 105.052C89.8034 105.675 88.4656 106.776 88.622 106.776H95.5814C96.1106 106.776 96.6196 106.572 97.0027 106.207C97.3858 105.842 97.6137 105.344 97.6391 104.815L98.5714 85.4099L93.9353 87.4083Z" fill="white"/>
<path d="M95.5808 107.004H88.4604L88.3951 106.852C88.3283 106.663 88.3055 106.6 90.4269 104.878C90.8884 104.501 91.464 104.293 92.0593 104.287C92.9553 104.287 93.7616 104.547 94.3462 104.742C94.6317 104.837 94.9825 104.952 95.0979 104.935C95.102 104.904 95.102 104.872 95.0979 104.841C94.9704 103.497 94.82 102.082 94.6606 100.589C94.2977 97.1892 93.9226 93.6738 93.7312 90.2085C93.6887 89.4583 93.6811 88.5184 93.7054 87.4114V87.2595L98.8153 85.0576L97.8647 104.829C97.8381 105.416 97.5855 105.97 97.1599 106.375C96.7343 106.781 96.1685 107.006 95.5808 107.004ZM89.1361 106.548H95.5808C96.0531 106.55 96.5078 106.369 96.8491 106.043C97.1904 105.717 97.3918 105.27 97.4107 104.799L98.3218 85.7577L94.1549 87.5541C94.1336 88.5852 94.1428 89.4644 94.1822 90.169C94.3736 93.6222 94.7487 97.133 95.1101 100.527C95.2695 102.026 95.4214 103.443 95.5489 104.79C95.5668 104.879 95.5614 104.971 95.5332 105.057C95.505 105.144 95.455 105.222 95.388 105.283C95.145 105.477 94.7684 105.353 94.2005 105.166C93.6325 104.979 92.896 104.735 92.0745 104.735H92.0532C91.5619 104.741 91.087 104.913 90.7063 105.224C89.8666 105.913 89.3988 106.317 89.1361 106.548Z" fill="#1B1C21"/>
<path d="M98.5727 85.3779C97.1271 85.9853 95.4294 86.7112 93.9336 87.352V87.4067L98.5712 85.4083L98.5727 85.3779Z" fill="white"/>
<path d="M93.6953 87.7591L93.7075 87.2018L93.8426 87.1441C95.1106 86.6005 96.7142 85.9172 98.4817 85.17L98.8173 85.0288L98.79 85.5649L93.6953 87.7591Z" fill="#1B1C21"/>
<path d="M93.125 89.3428C93.125 89.3428 93.4287 84.1114 93.8843 82.0918C94.8349 77.8398 99.8886 77.8398 99.8886 77.8398C98.6084 81.3537 99.8385 85.6603 98.9775 88.9252L93.125 89.3428Z" fill="url(#paint29_linear_989_80118)"/>
<path d="M105.089 77.7988L105.276 75.1536C105.402 75.1444 105.49 75.1399 105.516 75.1399C106.254 75.1308 106.494 74.8908 106.558 74.2849C106.615 73.7328 106.57 73.1748 106.426 72.6388C106.405 72.5638 106.411 72.4842 106.441 72.4126L106.567 72.1089C106.58 72.0611 106.579 72.0105 106.564 71.9633C106.549 71.916 106.52 71.8743 106.482 71.8431L106.415 71.7885C106.173 71.5887 105.968 71.3488 105.808 71.0793C105.656 70.8318 105.41 70.3671 105.237 70.2851C104.752 70.0528 102.784 69.0232 101.685 70.8227C100.827 72.2243 102.228 74.1544 102.737 74.7876C102.86 74.9394 101.906 77.937 101.906 77.937L100.672 78.2407C100.672 78.2407 101.624 79.9309 104.517 79.2323C106.576 78.7343 106.249 77.9674 106.249 77.9674L105.089 77.7988Z" fill="white"/>
<path d="M103.191 79.6347C101.229 79.6347 100.517 78.4199 100.482 78.3546C100.465 78.324 100.455 78.2899 100.453 78.2548C100.452 78.2198 100.458 78.1848 100.472 78.1526C100.486 78.1204 100.507 78.0919 100.534 78.0692C100.561 78.0466 100.592 78.0304 100.626 78.0221L101.735 77.7533C102.122 76.5385 102.503 75.1945 102.528 74.8878C101.887 74.0799 100.608 72.1666 101.498 70.7103C102.276 69.4393 103.551 69.2221 105.294 70.0619L105.346 70.0862C105.542 70.1803 105.72 70.4658 105.954 70.8576L106.019 70.97C106.163 71.2169 106.349 71.4369 106.569 71.6199L106.637 71.6746C106.709 71.7341 106.762 71.813 106.79 71.9018C106.818 71.9906 106.82 72.0857 106.796 72.1757C106.793 72.186 106.79 72.1962 106.786 72.2061L106.66 72.5098C106.652 72.5355 106.652 72.563 106.66 72.5887C106.812 73.1514 106.858 73.7372 106.798 74.3168C106.72 75.0579 106.353 75.3646 105.533 75.3798H105.504L105.352 77.6166L106.307 77.7578C106.346 77.7632 106.383 77.7785 106.414 77.8022C106.445 77.8258 106.469 77.8571 106.485 77.893C106.516 77.9829 106.528 78.0783 106.52 78.173C106.511 78.2678 106.483 78.3597 106.436 78.4427C106.218 78.8816 105.598 79.2263 104.596 79.4692C104.136 79.58 103.664 79.6356 103.191 79.6347ZM101.074 78.3759C101.462 78.7844 102.458 79.4935 104.471 79.0076C105.574 78.7403 105.903 78.4123 106.001 78.2407C106.015 78.2158 106.027 78.1893 106.036 78.1618L105.058 78.0099C105.001 78.002 104.949 77.9727 104.914 77.9282C104.878 77.8836 104.86 77.827 104.865 77.77L105.055 75.1384C105.058 75.0834 105.081 75.0316 105.12 74.9925C105.159 74.9534 105.211 74.9297 105.266 74.9258C105.399 74.9167 105.49 74.9121 105.518 74.9121C106.155 74.9045 106.286 74.7344 106.336 74.2622C106.391 73.737 106.348 73.2062 106.21 72.6965C106.178 72.5725 106.187 72.4414 106.236 72.323L106.353 72.0497C106.353 72.0453 106.352 72.0411 106.35 72.0372C106.348 72.0333 106.345 72.0298 106.342 72.0269L106.275 71.9722C106.015 71.756 105.794 71.496 105.622 71.2038L105.554 71.0869C105.462 70.935 105.25 70.5524 105.147 70.4962L105.097 70.4719C104.54 70.2031 102.847 69.3846 101.89 70.9487C101.131 72.1878 102.362 73.9509 102.926 74.6524C103.011 74.7572 103.126 74.8999 102.134 78.0145C102.123 78.0518 102.101 78.0854 102.072 78.1121C102.044 78.1387 102.009 78.1574 101.97 78.1663L101.074 78.3759Z" fill="#1B1C21"/>
<path d="M102.296 68.5435C102.829 68.4281 103.443 68.5101 103.701 68.4144C104.119 68.2626 104.131 67.7614 104.708 67.6217C105.406 67.4517 105.7 67.7493 105.973 68.1654C106.021 68.239 106.06 68.318 106.09 68.4007C106.53 69.5791 105.976 70.1531 105.728 70.3414C105.728 70.3414 104.155 71.1539 103.886 71.3847C103.618 71.6155 103.344 72.1166 103.526 72.8561C103.538 72.9019 103.535 72.9501 103.517 72.9938C103.499 73.0375 103.468 73.0744 103.428 73.0991C103.381 73.1263 103.327 73.1346 103.274 73.1225C103.222 73.1103 103.176 73.0786 103.147 73.0338C102.942 72.7301 102.495 72.1652 102.176 72.3003C101.779 72.4704 101.902 73.667 102.784 73.8052C102.922 73.8326 103.045 73.9095 103.13 74.0213C103.216 74.1332 103.257 74.2723 103.247 74.4126C103.226 74.5273 103.172 74.6331 103.091 74.7167C103.01 74.8003 102.905 74.8578 102.792 74.8819C102.712 74.8943 102.63 74.8903 102.552 74.8702C102.473 74.8501 102.4 74.8143 102.336 74.7649C101.76 74.3974 100.139 72.8409 99.9382 71.4454C99.7028 69.7614 101.587 68.6953 102.296 68.5435Z" fill="#1B1C21"/>
<path d="M105.474 75.3389C105.048 75.314 104.64 75.1616 104.302 74.9015C104.28 74.8836 104.263 74.8616 104.25 74.8369C104.237 74.8122 104.23 74.7852 104.227 74.7575C104.225 74.7298 104.228 74.7019 104.237 74.6754C104.245 74.6489 104.259 74.6244 104.277 74.6032C104.295 74.5819 104.316 74.5644 104.341 74.5517C104.366 74.5389 104.393 74.5311 104.421 74.5288C104.448 74.5265 104.476 74.5296 104.503 74.5381C104.529 74.5466 104.554 74.5601 104.575 74.5781C104.839 74.777 105.156 74.8943 105.486 74.9152C105.539 74.9206 105.588 74.9457 105.624 74.9856C105.659 75.0255 105.678 75.0772 105.677 75.1305C105.676 75.1839 105.655 75.2349 105.619 75.2735C105.582 75.3121 105.532 75.3354 105.479 75.3389H105.474Z" fill="#1B1C21"/>
<path d="M108.967 100.202H132.72V100.269C132.72 100.591 132.592 100.9 132.364 101.128C132.136 101.356 131.827 101.484 131.505 101.484H110.176C109.854 101.484 109.545 101.356 109.317 101.128C109.089 100.9 108.961 100.591 108.961 100.269V100.202H108.967Z" fill="white"/>
<path d="M131.514 101.705H110.179C109.798 101.705 109.433 101.553 109.163 101.284C108.894 101.015 108.743 100.65 108.742 100.269V100.202C108.742 100.141 108.766 100.084 108.809 100.041C108.852 99.9981 108.91 99.9741 108.97 99.9741H132.723C132.783 99.9741 132.841 99.9981 132.884 100.041C132.927 100.084 132.951 100.141 132.951 100.202V100.269C132.95 100.65 132.799 101.015 132.53 101.284C132.26 101.553 131.895 101.705 131.514 101.705ZM109.211 100.43C109.25 100.659 109.368 100.867 109.545 101.017C109.722 101.167 109.947 101.249 110.179 101.25H131.514C131.746 101.25 131.971 101.167 132.148 101.017C132.325 100.867 132.443 100.659 132.482 100.43H109.211Z" fill="#1B1C21"/>
<path d="M132.72 100.225H119.129L123.448 87.5146C123.578 87.3176 123.756 87.1563 123.965 87.0455C124.173 86.9346 124.406 86.8777 124.643 86.8798H136.132C136.247 86.8772 136.362 86.9028 136.465 86.9543C136.569 87.0058 136.658 87.0816 136.726 87.1754C136.793 87.2691 136.837 87.3778 136.853 87.4922C136.869 87.6066 136.857 87.7232 136.818 87.8319C136.752 88.0096 136.679 88.1858 136.619 88.3665L132.72 100.225Z" fill="white"/>
<path d="M132.719 100.452H119.128C119.091 100.453 119.055 100.444 119.022 100.428C118.99 100.411 118.961 100.387 118.94 100.357C118.919 100.327 118.905 100.293 118.9 100.256C118.896 100.22 118.9 100.183 118.912 100.149L123.231 87.437C123.237 87.4193 123.245 87.4025 123.255 87.3869C123.405 87.1574 123.611 86.9692 123.852 86.8395C124.094 86.7098 124.364 86.6427 124.639 86.6443H136.128C136.284 86.6426 136.438 86.6793 136.576 86.751C136.715 86.8228 136.833 86.9275 136.922 87.0559C137.007 87.1785 137.061 87.32 137.079 87.4681C137.098 87.6163 137.08 87.7666 137.027 87.9062L136.969 88.0581C136.919 88.1857 136.872 88.3056 136.831 88.4286L132.936 100.293C132.921 100.339 132.892 100.38 132.853 100.408C132.814 100.437 132.767 100.452 132.719 100.452ZM119.445 99.9969H132.555L136.398 88.2904C136.442 88.1553 136.494 88.0232 136.55 87.8956L136.608 87.7438C136.635 87.6734 136.644 87.5975 136.634 87.5228C136.625 87.448 136.597 87.3768 136.553 87.3155C136.506 87.248 136.443 87.193 136.37 87.1554C136.297 87.1178 136.216 87.0987 136.134 87.0999H124.642C124.448 87.0985 124.256 87.1445 124.084 87.234C123.912 87.3234 123.765 87.4536 123.655 87.6132L119.445 99.9969Z" fill="#1B1C21"/>
<path d="M127.683 93.3792C127.52 93.9167 127.768 94.4665 128.235 94.6077C128.703 94.7489 129.212 94.427 129.374 93.8894C129.537 93.3518 129.289 92.8021 128.822 92.6609C128.354 92.5197 127.835 92.8416 127.683 93.3792Z" fill="url(#paint30_linear_989_80118)"/>
<path d="M129.255 100.452H121.767C121.706 100.452 121.648 100.428 121.606 100.386C121.563 100.343 121.539 100.285 121.539 100.225C121.539 100.164 121.563 100.106 121.606 100.064C121.648 100.021 121.706 99.9968 121.767 99.9968H129.255C129.315 99.9968 129.373 100.021 129.416 100.064C129.459 100.106 129.483 100.164 129.483 100.225C129.483 100.285 129.459 100.343 129.416 100.386C129.373 100.428 129.315 100.452 129.255 100.452Z" fill="white"/>
<path d="M133.071 100.452H131.743C131.683 100.452 131.625 100.428 131.582 100.386C131.54 100.343 131.516 100.285 131.516 100.225C131.516 100.164 131.54 100.106 131.582 100.064C131.625 100.021 131.683 99.9968 131.743 99.9968H133.071C133.131 99.9968 133.189 100.021 133.232 100.064C133.274 100.106 133.298 100.164 133.298 100.225C133.298 100.285 133.274 100.343 133.232 100.386C133.189 100.428 133.131 100.452 133.071 100.452Z" fill="white"/>
<path d="M161.165 129.472C161.135 129.475 161.104 129.473 161.075 129.465C161.046 129.457 161.019 129.444 160.995 129.425C160.971 129.407 160.951 129.384 160.936 129.358C160.922 129.332 160.912 129.303 160.908 129.273C160.904 129.243 160.906 129.212 160.914 129.183C160.922 129.154 160.936 129.127 160.954 129.103C160.973 129.079 160.996 129.059 161.022 129.044C161.048 129.03 161.077 129.02 161.107 129.016C167.766 127.275 174.047 124.32 179.633 120.3C179.682 120.269 179.741 120.258 179.798 120.269C179.855 120.28 179.906 120.312 179.94 120.359C179.974 120.406 179.988 120.464 179.981 120.522C179.973 120.58 179.944 120.632 179.899 120.669C174.267 124.723 167.935 127.702 161.221 129.456C161.203 129.465 161.184 129.47 161.165 129.472Z" fill="#1B1C21"/>
<path d="M188.753 26.5542C188.722 26.5542 188.691 26.5477 188.662 26.5352C188.633 26.5226 188.608 26.5043 188.586 26.4813C182.238 19.6316 174.276 14.4814 165.426 11.5009C165.368 11.4818 165.321 11.4406 165.294 11.3865C165.267 11.3324 165.262 11.2698 165.281 11.2124C165.3 11.155 165.342 11.1075 165.396 11.0805C165.45 11.0534 165.512 11.049 165.57 11.0681C174.493 14.0734 182.52 19.2659 188.92 26.1715C188.95 26.204 188.97 26.2446 188.978 26.2883C188.985 26.332 188.98 26.3769 188.962 26.4175C188.944 26.4581 188.915 26.4927 188.878 26.517C188.841 26.5412 188.798 26.5542 188.753 26.5542Z" fill="#1B1C21"/>
<path d="M150.241 128.819C150.181 128.821 150.122 128.799 150.077 128.758C150.033 128.717 150.007 128.66 150.004 128.6C150.002 128.54 150.023 128.481 150.064 128.436C150.105 128.392 150.162 128.365 150.223 128.363C156.891 127.858 163.4 126.078 169.397 123.121C169.452 123.095 169.514 123.091 169.572 123.11C169.629 123.13 169.676 123.171 169.703 123.226C169.729 123.28 169.733 123.343 169.713 123.4C169.694 123.457 169.652 123.505 169.598 123.531C163.548 126.513 156.983 128.308 150.258 128.817L150.241 128.819Z" fill="#1B1C21"/>
<path d="M172.525 121.944C172.475 121.944 172.426 121.928 172.386 121.897C172.346 121.867 172.318 121.824 172.305 121.775C172.292 121.727 172.295 121.676 172.314 121.629C172.334 121.583 172.368 121.544 172.411 121.519C174.842 120.123 177.159 118.536 179.34 116.774C179.363 116.753 179.39 116.736 179.419 116.726C179.449 116.716 179.48 116.712 179.511 116.714C179.542 116.717 179.572 116.725 179.6 116.74C179.628 116.754 179.652 116.774 179.671 116.798C179.691 116.823 179.705 116.851 179.714 116.881C179.722 116.911 179.724 116.942 179.72 116.973C179.715 117.004 179.705 117.033 179.689 117.06C179.673 117.086 179.651 117.109 179.626 117.127C177.427 118.905 175.091 120.505 172.64 121.914C172.605 121.934 172.565 121.944 172.525 121.944Z" fill="#1B1C21"/>
<path d="M200.238 38.6754C200.193 38.6754 200.15 38.6623 200.112 38.6378C200.075 38.6132 200.046 38.5782 200.028 38.5372C195.475 28.003 187.576 19.2637 177.554 13.6726C177.501 13.643 177.462 13.5937 177.446 13.5355C177.43 13.4772 177.437 13.4149 177.467 13.3621C177.496 13.3093 177.546 13.2705 177.604 13.2541C177.662 13.2377 177.724 13.2452 177.777 13.2748C187.872 18.9338 195.836 27.7434 200.451 38.3565C200.463 38.3842 200.47 38.414 200.471 38.4444C200.472 38.4748 200.466 38.505 200.455 38.5333C200.444 38.5616 200.428 38.5874 200.406 38.6092C200.385 38.631 200.36 38.6483 200.332 38.6602C200.302 38.6723 200.27 38.6775 200.238 38.6754Z" fill="#1B1C21"/>
<path d="M157.443 10.915C157.382 10.915 157.324 10.891 157.282 10.8482C157.239 10.8055 157.215 10.7476 157.215 10.6872V9.50879C157.215 9.44838 157.239 9.39044 157.282 9.34772C157.324 9.305 157.382 9.28101 157.443 9.28101C157.503 9.28101 157.561 9.305 157.604 9.34772C157.646 9.39044 157.67 9.44838 157.67 9.50879V10.6872C157.67 10.7476 157.646 10.8055 157.604 10.8482C157.561 10.891 157.503 10.915 157.443 10.915Z" fill="#1B1C21"/>
<path d="M157.443 13.6589C157.382 13.6589 157.324 13.6349 157.282 13.5921C157.239 13.5494 157.215 13.4915 157.215 13.4311V12.2527C157.215 12.1923 157.239 12.1343 157.282 12.0916C157.324 12.0489 157.382 12.0249 157.443 12.0249C157.503 12.0249 157.561 12.0489 157.604 12.0916C157.646 12.1343 157.67 12.1923 157.67 12.2527V13.4311C157.67 13.4915 157.646 13.5494 157.604 13.5921C157.561 13.6349 157.503 13.6589 157.443 13.6589Z" fill="#1B1C21"/>
<path d="M156.659 11.6985H155.482C155.421 11.6985 155.363 11.6745 155.321 11.6318C155.278 11.589 155.254 11.5311 155.254 11.4707C155.254 11.4103 155.278 11.3524 155.321 11.3096C155.363 11.2669 155.421 11.2429 155.482 11.2429H156.659C156.719 11.2429 156.777 11.2669 156.82 11.3096C156.862 11.3524 156.886 11.4103 156.886 11.4707C156.886 11.5311 156.862 11.589 156.82 11.6318C156.777 11.6745 156.719 11.6985 156.659 11.6985Z" fill="#1B1C21"/>
<path d="M159.402 11.6985H158.224C158.163 11.6985 158.106 11.6745 158.063 11.6318C158.02 11.589 157.996 11.5311 157.996 11.4707C157.996 11.4103 158.02 11.3524 158.063 11.3096C158.106 11.2669 158.163 11.2429 158.224 11.2429H159.402C159.463 11.2429 159.521 11.2669 159.563 11.3096C159.606 11.3524 159.63 11.4103 159.63 11.4707C159.63 11.5311 159.606 11.589 159.563 11.6318C159.521 11.6745 159.463 11.6985 159.402 11.6985Z" fill="#1B1C21"/>
<path d="M171.915 34.1469C171.855 34.1469 171.797 34.1229 171.754 34.0802C171.712 34.0375 171.688 33.9795 171.688 33.9191V32.7407C171.687 32.6803 171.712 32.6224 171.754 32.5797C171.797 32.5369 171.855 32.5129 171.915 32.5129C171.976 32.5129 172.034 32.5369 172.076 32.5797C172.119 32.6224 172.143 32.6803 172.143 32.7407V33.9191C172.143 33.9795 172.119 34.0375 172.076 34.0802C172.034 34.1229 171.976 34.1469 171.915 34.1469Z" fill="#1B1C21"/>
<path d="M171.915 36.891C171.855 36.891 171.797 36.867 171.754 36.8243C171.712 36.7815 171.688 36.7236 171.688 36.6632V35.4863C171.687 35.4259 171.712 35.368 171.754 35.3253C171.797 35.2825 171.855 35.2585 171.915 35.2585C171.976 35.2585 172.034 35.2825 172.076 35.3253C172.119 35.368 172.143 35.4259 172.143 35.4863V36.6632C172.143 36.7236 172.119 36.7815 172.076 36.8243C172.034 36.867 171.976 36.891 171.915 36.891Z" fill="#1B1C21"/>
<path d="M171.131 34.9304H169.954C169.894 34.9304 169.836 34.9064 169.793 34.8637C169.751 34.821 169.727 34.763 169.727 34.7026C169.727 34.6422 169.751 34.5843 169.793 34.5416C169.836 34.4989 169.894 34.4749 169.954 34.4749H171.131C171.192 34.4749 171.25 34.4989 171.292 34.5416C171.335 34.5843 171.359 34.6422 171.359 34.7026C171.359 34.763 171.335 34.821 171.292 34.8637C171.25 34.9064 171.192 34.9304 171.131 34.9304Z" fill="#1B1C21"/>
<path d="M173.875 34.9304H172.697C172.636 34.9304 172.578 34.9064 172.535 34.8637C172.493 34.821 172.469 34.763 172.469 34.7026C172.469 34.6422 172.493 34.5843 172.535 34.5416C172.578 34.4989 172.636 34.4749 172.697 34.4749H173.875C173.935 34.4749 173.993 34.4989 174.036 34.5416C174.079 34.5843 174.103 34.6422 174.103 34.7026C174.103 34.763 174.079 34.821 174.036 34.8637C173.993 34.9064 173.935 34.9304 173.875 34.9304Z" fill="#1B1C21"/>
<path d="M150.753 14.6868C150.528 14.6868 150.306 14.6445 150.097 14.5623C149.868 14.4735 149.659 14.3397 149.482 14.1689C149.306 13.9981 149.165 13.7936 149.069 13.5676C148.874 13.1151 148.863 12.6043 149.039 12.144C149.214 11.6836 149.563 11.3101 150.01 11.103C150.229 11.0043 150.465 10.9504 150.705 10.9444C150.945 10.9384 151.184 10.9805 151.407 11.0681C151.637 11.1567 151.846 11.2903 152.022 11.4612C152.199 11.632 152.339 11.8366 152.435 12.0627C152.632 12.5149 152.643 13.0259 152.467 13.4864C152.291 13.9468 151.942 14.32 151.494 14.5258C151.261 14.6319 151.009 14.6868 150.753 14.6868ZM150.197 11.5191C149.859 11.6764 149.595 11.9597 149.462 12.3087C149.33 12.6577 149.339 13.0446 149.488 13.3869C149.56 13.5576 149.666 13.712 149.799 13.8411C149.932 13.9702 150.09 14.0714 150.262 14.1386C150.429 14.2041 150.608 14.2355 150.787 14.2308C150.967 14.2261 151.144 14.1854 151.307 14.1113C151.646 13.9543 151.91 13.671 152.042 13.3219C152.175 12.9728 152.166 12.5857 152.016 12.2435C151.944 12.073 151.838 11.9188 151.706 11.7897C151.573 11.6606 151.416 11.5593 151.243 11.4918C151.076 11.4262 150.897 11.3948 150.717 11.3995C150.538 11.4042 150.361 11.4449 150.197 11.5191Z" fill="#1B1C21"/>
<path d="M93.2993 67.8221C93.2617 67.8223 93.2247 67.813 93.1915 67.7953C93.1584 67.7775 93.1302 67.7518 93.1095 67.7204L83.0219 52.3831C82.9886 52.3326 82.9769 52.2709 82.9891 52.2117C83.0013 52.1524 83.0366 52.1005 83.0872 52.0673C83.1377 52.0341 83.1994 52.0223 83.2586 52.0345C83.3178 52.0468 83.3698 52.082 83.403 52.1326L93.4892 67.4698C93.5057 67.4947 93.5172 67.5227 93.523 67.552C93.5287 67.5814 93.5286 67.6116 93.5227 67.641C93.5168 67.6703 93.5051 67.6982 93.4884 67.723C93.4717 67.7478 93.4503 67.7691 93.4254 67.7857C93.3876 67.8094 93.3439 67.822 93.2993 67.8221Z" fill="#1B1C21"/>
<path d="M91.1025 70.3642C91.0467 70.3646 90.9927 70.3446 90.9506 70.308L84.6867 64.817C84.6411 64.7767 84.6135 64.72 84.6098 64.6594C84.6061 64.5987 84.6266 64.5391 84.6669 64.4935C84.7072 64.448 84.7639 64.4204 84.8246 64.4167C84.8852 64.413 84.9449 64.4335 84.9904 64.4738L91.2543 69.9664C91.2888 69.9971 91.3132 70.0376 91.3241 70.0825C91.3351 70.1273 91.3321 70.1745 91.3156 70.2177C91.2992 70.2608 91.2699 70.298 91.2319 70.3241C91.1938 70.3503 91.1487 70.3643 91.1025 70.3642Z" fill="#1B1C21"/>
<path d="M94.2803 73.5592C94.2641 73.5607 94.2479 73.5607 94.2317 73.5592L91.2113 72.9062C91.1721 72.8981 91.1358 72.8797 91.1059 72.8531C91.0761 72.8264 91.0538 72.7924 91.0413 72.7543C91.0292 72.7153 91.028 72.6737 91.0379 72.6341C91.0478 72.5945 91.0684 72.5583 91.0974 72.5296L93.5271 70.0711C93.5561 70.0414 93.5926 70.0202 93.6328 70.0098C93.6729 69.9993 93.7151 70.0001 93.7549 70.0119C93.7934 70.0253 93.8278 70.0486 93.8544 70.0796C93.8811 70.1105 93.8991 70.1479 93.9067 70.188L94.4975 73.301C94.5048 73.3378 94.5028 73.3758 94.4916 73.4116C94.4805 73.4474 94.4606 73.4799 94.4337 73.506C94.3908 73.542 94.3362 73.5609 94.2803 73.5592ZM91.7125 72.5417L93.9903 73.0353L93.5438 70.6876L91.7125 72.5417Z" fill="#1B1C21"/>
</g>
<defs>
<linearGradient id="paint0_linear_989_80118" x1="111.268" y1="94.031" x2="180.833" y2="46.9443" gradientUnits="userSpaceOnUse">
<stop offset="0.15" stop-color="#EF6129"/>
<stop offset="0.2" stop-color="#F06032"/>
<stop offset="0.55" stop-color="#F85D6A"/>
<stop offset="0.81" stop-color="#FD5B8C"/>
<stop offset="0.96" stop-color="#FF5A99"/>
</linearGradient>
<linearGradient id="paint1_linear_989_80118" x1="96.8188" y1="92.6306" x2="164.581" y2="37.9584" gradientUnits="userSpaceOnUse">
<stop offset="0.15" stop-color="#EF6129"/>
<stop offset="0.2" stop-color="#F06032"/>
<stop offset="0.55" stop-color="#F85D6A"/>
<stop offset="0.81" stop-color="#FD5B8C"/>
<stop offset="0.96" stop-color="#FF5A99"/>
</linearGradient>
<linearGradient id="paint2_linear_989_80118" x1="106.308" y1="89.5864" x2="162.296" y2="44.4118" gradientUnits="userSpaceOnUse">
<stop offset="0.15" stop-color="#EF6129"/>
<stop offset="0.2" stop-color="#F06032"/>
<stop offset="0.55" stop-color="#F85D6A"/>
<stop offset="0.81" stop-color="#FD5B8C"/>
<stop offset="0.96" stop-color="#FF5A99"/>
</linearGradient>
<linearGradient id="paint3_linear_989_80118" x1="73.4301" y1="111.759" x2="74.4395" y2="100.462" gradientUnits="userSpaceOnUse">
<stop offset="0.15" stop-color="#EF6129"/>
<stop offset="0.2" stop-color="#F06032"/>
<stop offset="0.55" stop-color="#F85D6A"/>
<stop offset="0.81" stop-color="#FD5B8C"/>
<stop offset="0.96" stop-color="#FF5A99"/>
</linearGradient>
<linearGradient id="paint4_linear_989_80118" x1="98.9448" y1="20.2116" x2="100.464" y2="19.4377" gradientUnits="userSpaceOnUse">
<stop offset="0.15" stop-color="#EF6129"/>
<stop offset="0.2" stop-color="#F06032"/>
<stop offset="0.55" stop-color="#F85D6A"/>
<stop offset="0.81" stop-color="#FD5B8C"/>
<stop offset="0.96" stop-color="#FF5A99"/>
</linearGradient>
<linearGradient id="paint5_linear_989_80118" x1="102.203" y1="20.2115" x2="103.722" y2="19.4377" gradientUnits="userSpaceOnUse">
<stop offset="0.15" stop-color="#EF6129"/>
<stop offset="0.2" stop-color="#F06032"/>
<stop offset="0.55" stop-color="#F85D6A"/>
<stop offset="0.81" stop-color="#FD5B8C"/>
<stop offset="0.96" stop-color="#FF5A99"/>
</linearGradient>
<linearGradient id="paint6_linear_989_80118" x1="105.46" y1="20.2115" x2="106.98" y2="19.4377" gradientUnits="userSpaceOnUse">
<stop offset="0.15" stop-color="#EF6129"/>
<stop offset="0.2" stop-color="#F06032"/>
<stop offset="0.55" stop-color="#F85D6A"/>
<stop offset="0.81" stop-color="#FD5B8C"/>
<stop offset="0.96" stop-color="#FF5A99"/>
</linearGradient>
<linearGradient id="paint7_linear_989_80118" x1="90.6984" y1="47.455" x2="122.016" y2="19.3358" gradientUnits="userSpaceOnUse">
<stop offset="0.15" stop-color="#EF6129"/>
<stop offset="0.2" stop-color="#F06032"/>
<stop offset="0.55" stop-color="#F85D6A"/>
<stop offset="0.81" stop-color="#FD5B8C"/>
<stop offset="0.96" stop-color="#FF5A99"/>
</linearGradient>
<linearGradient id="paint8_linear_989_80118" x1="141.235" y1="99.3052" x2="181.909" y2="85.2817" gradientUnits="userSpaceOnUse">
<stop offset="0.15" stop-color="#EF6129"/>
<stop offset="0.2" stop-color="#F06032"/>
<stop offset="0.55" stop-color="#F85D6A"/>
<stop offset="0.81" stop-color="#FD5B8C"/>
<stop offset="0.96" stop-color="#FF5A99"/>
</linearGradient>
<linearGradient id="paint9_linear_989_80118" x1="168.155" y1="85.3709" x2="171.587" y2="83.2574" gradientUnits="userSpaceOnUse">
<stop offset="0.15" stop-color="#EF6129"/>
<stop offset="0.2" stop-color="#F06032"/>
<stop offset="0.55" stop-color="#F85D6A"/>
<stop offset="0.81" stop-color="#FD5B8C"/>
<stop offset="0.96" stop-color="#FF5A99"/>
</linearGradient>
<linearGradient id="paint10_linear_989_80118" x1="155.174" y1="85.2144" x2="157.542" y2="84.4933" gradientUnits="userSpaceOnUse">
<stop offset="0.15" stop-color="#EF6129"/>
<stop offset="0.2" stop-color="#F06032"/>
<stop offset="0.55" stop-color="#F85D6A"/>
<stop offset="0.81" stop-color="#FD5B8C"/>
<stop offset="0.96" stop-color="#FF5A99"/>
</linearGradient>
<linearGradient id="paint11_linear_989_80118" x1="127.617" y1="79.2587" x2="150.866" y2="70.5595" gradientUnits="userSpaceOnUse">
<stop offset="0.15" stop-color="#EF6129"/>
<stop offset="0.2" stop-color="#F06032"/>
<stop offset="0.55" stop-color="#F85D6A"/>
<stop offset="0.81" stop-color="#FD5B8C"/>
<stop offset="0.96" stop-color="#FF5A99"/>
</linearGradient>
<linearGradient id="paint12_linear_989_80118" x1="158.561" y1="73.6388" x2="175.13" y2="67.2391" gradientUnits="userSpaceOnUse">
<stop offset="0.15" stop-color="#EF6129"/>
<stop offset="0.2" stop-color="#F06032"/>
<stop offset="0.55" stop-color="#F85D6A"/>
<stop offset="0.81" stop-color="#FD5B8C"/>
<stop offset="0.96" stop-color="#FF5A99"/>
</linearGradient>
<linearGradient id="paint13_linear_989_80118" x1="112.642" y1="53.0081" x2="126.144" y2="49.2783" gradientUnits="userSpaceOnUse">
<stop offset="0.15" stop-color="#EF6129"/>
<stop offset="0.2" stop-color="#F06032"/>
<stop offset="0.55" stop-color="#F85D6A"/>
<stop offset="0.81" stop-color="#FD5B8C"/>
<stop offset="0.96" stop-color="#FF5A99"/>
</linearGradient>
<linearGradient id="paint14_linear_989_80118" x1="76.5806" y1="115.625" x2="85.7316" y2="93.8239" gradientUnits="userSpaceOnUse">
<stop offset="0.15" stop-color="#EF6129"/>
<stop offset="0.2" stop-color="#F06032"/>
<stop offset="0.55" stop-color="#F85D6A"/>
<stop offset="0.81" stop-color="#FD5B8C"/>
<stop offset="0.96" stop-color="#FF5A99"/>
</linearGradient>
<linearGradient id="paint15_linear_989_80118" x1="94.6145" y1="111.033" x2="94.9712" y2="110.13" gradientUnits="userSpaceOnUse">
<stop offset="0.15" stop-color="#EF6129"/>
<stop offset="0.2" stop-color="#F06032"/>
<stop offset="0.55" stop-color="#F85D6A"/>
<stop offset="0.81" stop-color="#FD5B8C"/>
<stop offset="0.96" stop-color="#FF5A99"/>
</linearGradient>
<linearGradient id="paint16_linear_989_80118" x1="83.0767" y1="111.033" x2="83.1686" y2="109.997" gradientUnits="userSpaceOnUse">
<stop offset="0.15" stop-color="#EF6129"/>
<stop offset="0.2" stop-color="#F06032"/>
<stop offset="0.55" stop-color="#F85D6A"/>
<stop offset="0.81" stop-color="#FD5B8C"/>
<stop offset="0.96" stop-color="#FF5A99"/>
</linearGradient>
<linearGradient id="paint17_linear_989_80118" x1="83.0024" y1="112.218" x2="83.0808" y2="111.18" gradientUnits="userSpaceOnUse">
<stop offset="0.15" stop-color="#EF6129"/>
<stop offset="0.2" stop-color="#F06032"/>
<stop offset="0.55" stop-color="#F85D6A"/>
<stop offset="0.81" stop-color="#FD5B8C"/>
<stop offset="0.96" stop-color="#FF5A99"/>
</linearGradient>
<linearGradient id="paint18_linear_989_80118" x1="96.099" y1="114.339" x2="96.428" y2="113.412" gradientUnits="userSpaceOnUse">
<stop offset="0.15" stop-color="#EF6129"/>
<stop offset="0.2" stop-color="#F06032"/>
<stop offset="0.55" stop-color="#F85D6A"/>
<stop offset="0.81" stop-color="#FD5B8C"/>
<stop offset="0.96" stop-color="#FF5A99"/>
</linearGradient>
<linearGradient id="paint19_linear_989_80118" x1="82.9164" y1="114.339" x2="82.9949" y2="113.301" gradientUnits="userSpaceOnUse">
<stop offset="0.15" stop-color="#EF6129"/>
<stop offset="0.2" stop-color="#F06032"/>
<stop offset="0.55" stop-color="#F85D6A"/>
<stop offset="0.81" stop-color="#FD5B8C"/>
<stop offset="0.96" stop-color="#FF5A99"/>
</linearGradient>
<linearGradient id="paint20_linear_989_80118" x1="77.6527" y1="128.045" x2="88.9809" y2="104.308" gradientUnits="userSpaceOnUse">
<stop offset="0.15" stop-color="#EF6129"/>
<stop offset="0.2" stop-color="#F06032"/>
<stop offset="0.55" stop-color="#F85D6A"/>
<stop offset="0.81" stop-color="#FD5B8C"/>
<stop offset="0.96" stop-color="#FF5A99"/>
</linearGradient>
<linearGradient id="paint21_linear_989_80118" x1="84.0322" y1="121.731" x2="84.1709" y2="120.706" gradientUnits="userSpaceOnUse">
<stop offset="0.15" stop-color="#EF6129"/>
<stop offset="0.2" stop-color="#F06032"/>
<stop offset="0.55" stop-color="#F85D6A"/>
<stop offset="0.81" stop-color="#FD5B8C"/>
<stop offset="0.96" stop-color="#FF5A99"/>
</linearGradient>
<linearGradient id="paint22_linear_989_80118" x1="90.8246" y1="121.731" x2="90.9043" y2="120.693" gradientUnits="userSpaceOnUse">
<stop offset="0.15" stop-color="#EF6129"/>
<stop offset="0.2" stop-color="#F06032"/>
<stop offset="0.55" stop-color="#F85D6A"/>
<stop offset="0.81" stop-color="#FD5B8C"/>
<stop offset="0.96" stop-color="#FF5A99"/>
</linearGradient>
<linearGradient id="paint23_linear_989_80118" x1="83.3185" y1="123.103" x2="83.3773" y2="122.062" gradientUnits="userSpaceOnUse">
<stop offset="0.15" stop-color="#EF6129"/>
<stop offset="0.2" stop-color="#F06032"/>
<stop offset="0.55" stop-color="#F85D6A"/>
<stop offset="0.81" stop-color="#FD5B8C"/>
<stop offset="0.96" stop-color="#FF5A99"/>
</linearGradient>
<linearGradient id="paint24_linear_989_80118" x1="101.221" y1="123.103" x2="101.466" y2="122.12" gradientUnits="userSpaceOnUse">
<stop offset="0.15" stop-color="#EF6129"/>
<stop offset="0.2" stop-color="#F06032"/>
<stop offset="0.55" stop-color="#F85D6A"/>
<stop offset="0.81" stop-color="#FD5B8C"/>
<stop offset="0.96" stop-color="#FF5A99"/>
</linearGradient>
<linearGradient id="paint25_linear_989_80118" x1="83.234" y1="125.961" x2="83.2895" y2="124.92" gradientUnits="userSpaceOnUse">
<stop offset="0.15" stop-color="#EF6129"/>
<stop offset="0.2" stop-color="#F06032"/>
<stop offset="0.55" stop-color="#F85D6A"/>
<stop offset="0.81" stop-color="#FD5B8C"/>
<stop offset="0.96" stop-color="#FF5A99"/>
</linearGradient>
<linearGradient id="paint26_linear_989_80118" x1="101.545" y1="125.961" x2="101.951" y2="125.111" gradientUnits="userSpaceOnUse">
<stop offset="0.15" stop-color="#EF6129"/>
<stop offset="0.2" stop-color="#F06032"/>
<stop offset="0.55" stop-color="#F85D6A"/>
<stop offset="0.81" stop-color="#FD5B8C"/>
<stop offset="0.96" stop-color="#FF5A99"/>
</linearGradient>
<linearGradient id="paint27_linear_989_80118" x1="92.9716" y1="100.024" x2="115.004" y2="91.4678" gradientUnits="userSpaceOnUse">
<stop offset="0.15" stop-color="#EF6129"/>
<stop offset="0.2" stop-color="#F06032"/>
<stop offset="0.55" stop-color="#F85D6A"/>
<stop offset="0.81" stop-color="#FD5B8C"/>
<stop offset="0.96" stop-color="#FF5A99"/>
</linearGradient>
<linearGradient id="paint28_linear_989_80118" x1="110.009" y1="86.9264" x2="114.778" y2="86.0022" gradientUnits="userSpaceOnUse">
<stop offset="0.15" stop-color="#EF6129"/>
<stop offset="0.2" stop-color="#F06032"/>
<stop offset="0.55" stop-color="#F85D6A"/>
<stop offset="0.81" stop-color="#FD5B8C"/>
<stop offset="0.96" stop-color="#FF5A99"/>
</linearGradient>
<linearGradient id="paint29_linear_989_80118" x1="92.5139" y1="86.8815" x2="99.7246" y2="84.7344" gradientUnits="userSpaceOnUse">
<stop offset="0.15" stop-color="#EF6129"/>
<stop offset="0.2" stop-color="#F06032"/>
<stop offset="0.55" stop-color="#F85D6A"/>
<stop offset="0.81" stop-color="#FD5B8C"/>
<stop offset="0.96" stop-color="#FF5A99"/>
</linearGradient>
<linearGradient id="paint30_linear_989_80118" x1="127.471" y1="94.2101" x2="129.199" y2="93.4314" gradientUnits="userSpaceOnUse">
<stop offset="0.15" stop-color="#EF6129"/>
<stop offset="0.2" stop-color="#F06032"/>
<stop offset="0.55" stop-color="#F85D6A"/>
<stop offset="0.81" stop-color="#FD5B8C"/>
<stop offset="0.96" stop-color="#FF5A99"/>
</linearGradient>
</defs>
</svg>
