<svg width="288" height="155" viewBox="0 0 288 155" fill="none" xmlns="http://www.w3.org/2000/svg">
  <mask id="mask0_989_78500" style="mask-type:alpha" maskUnits="userSpaceOnUse" x="0" y="0" width="288" height="155">
    <rect width="288" height="155" fill="#25262D"/>
  </mask>
  <g mask="url(#mask0_989_78500)">
    <rect width="288" height="155" fill="current"/>
    <path d="M75.6116 121.579C79.693 131.504 89.2318 136.198 95.3287 139.197C119.361 151.022 155.868 149.636 182.151 128.064C188.301 123.015 218.614 96.5701 211.56 60.7647C205.323 29.1092 173.942 10.7448 147.513 8.305C125.617 6.28269 97.0221 14.2734 86.9155 33.5863C80.5597 45.7302 88.1947 49.5861 82.9962 77.1035C78.4973 100.915 70.6202 109.44 75.6116 121.579Z" opacity="0.47" fill="url(#paint0_linear_989_78500)"/>
    <path d="M166.133 83.082L139.883 83.249C139.716 83.249 139.658 83.416 139.658 83.5596V105.889C139.658 108.026 124.744 113.582 124.598 113.3L124.58 115.663C124.587 115.89 124.684 116.105 124.849 116.261C125.013 116.417 125.233 116.502 125.46 116.498H147.802C148.818 116.489 149.822 116.281 150.757 115.883L162.857 110.788C165.028 109.87 166.409 107.901 166.409 105.752V83.391C166.411 83.3526 166.406 83.3141 166.393 83.2778C166.381 83.2415 166.361 83.208 166.335 83.1793C166.31 83.1506 166.279 83.1272 166.244 83.1105C166.209 83.0938 166.172 83.0842 166.133 83.082Z" fill="url(#paint0_linear_989_78500)"/>
    <path d="M136.999 81.9446V104.282C136.999 106.485 135.583 108.49 133.356 109.44L125.193 112.926C124.66 113.153 124.842 113.867 125.433 113.867H147.861C148.862 113.869 149.853 113.671 150.776 113.285L159.821 109.477C162.065 108.532 163.495 106.518 163.495 104.3V81.9446C163.493 81.9214 163.488 81.8986 163.478 81.8776C163.467 81.8566 163.453 81.8378 163.436 81.8223C163.419 81.8068 163.398 81.7949 163.376 81.7872C163.354 81.7795 163.331 81.7763 163.308 81.7776H137.185C137.162 81.7763 137.138 81.7796 137.116 81.7872C137.095 81.7949 137.074 81.8069 137.057 81.8224C137.04 81.838 137.026 81.8568 137.016 81.8777C137.006 81.8987 137 81.9215 136.999 81.9446Z" fill="white"/>
    <path d="M147.86 114.118H125.432C125.25 114.125 125.071 114.068 124.927 113.957C124.782 113.846 124.681 113.688 124.641 113.51C124.608 113.343 124.635 113.169 124.718 113.02C124.801 112.87 124.934 112.755 125.093 112.695L133.256 109.21C135.378 108.305 136.748 106.371 136.748 104.282V81.9447C136.751 81.8319 136.798 81.7249 136.88 81.647C136.962 81.5691 137.071 81.5266 137.184 81.5289H163.308C163.421 81.5266 163.53 81.5691 163.612 81.647C163.694 81.7249 163.741 81.8319 163.744 81.9447V104.305C163.744 106.608 162.241 108.729 159.917 109.708L150.874 113.515C149.919 113.913 148.894 114.118 147.86 114.118ZM137.249 82.0299V104.282C137.249 106.571 135.759 108.687 133.453 109.671L125.294 113.156C125.239 113.169 125.191 113.203 125.16 113.25C125.129 113.297 125.117 113.354 125.127 113.41C125.144 113.475 125.184 113.532 125.239 113.57C125.295 113.608 125.362 113.624 125.429 113.617H147.856C148.824 113.617 149.782 113.425 150.675 113.052L159.72 109.245C161.859 108.345 163.24 106.406 163.24 104.305V82.0299H137.249Z" fill="#1B1C21"/>
    <path d="M87.9316 94.7464L201.071 95.0003C202.061 95.0003 203.048 94.2555 203.173 93.2719L212.358 22.4777C212.578 20.7627 211.249 19.056 209.542 19.0994L97.7159 19.6889L87.9316 94.7464Z" fill="url(#paint1_linear_989_78500)"/>
    <path d="M205.119 19.5087C207.064 19.5087 208.823 21.4826 208.574 23.418L199.648 93.1083C199.521 94.0919 198.467 94.9252 197.477 94.9252L86.342 94.7449C85.1547 94.7449 84.3614 93.7596 84.505 92.5739L93.7482 21.5911C93.8751 20.6075 94.5264 19.5037 95.515 19.5037L205.119 19.5087Z" fill="url(#paint2_linear_989_78500)"/>
    <path d="M197.467 95.012L115.414 94.8784C115.348 94.8784 115.284 94.8521 115.237 94.8051C115.19 94.7581 115.164 94.6944 115.164 94.628C115.164 94.5615 115.19 94.4978 115.237 94.4508C115.284 94.4039 115.348 94.3775 115.414 94.3775L197.467 94.5111C198.364 94.5111 199.279 93.7496 199.388 92.9129L208.314 23.2226C208.357 22.775 208.306 22.3232 208.162 21.8971C208.018 21.471 207.785 21.0804 207.479 20.7511C207.187 20.4019 206.826 20.1184 206.417 19.9195C206.008 19.7206 205.562 19.6107 205.107 19.5972H95.5135C94.7136 19.5972 94.1141 20.5474 93.9955 21.4658L84.7524 92.4487C84.7146 92.6902 84.7292 92.937 84.7951 93.1724C84.8611 93.4079 84.977 93.6263 85.1348 93.813C85.2854 93.9804 85.4703 94.1132 85.677 94.2026C85.8836 94.2919 86.1071 94.3356 86.3321 94.3307L93.0821 94.3424C93.1485 94.3424 93.2122 94.3688 93.2592 94.4158C93.3062 94.4627 93.3326 94.5264 93.3326 94.5929C93.3326 94.6593 93.3062 94.723 93.2592 94.77C93.2122 94.817 93.1485 94.8434 93.0821 94.8434L86.3338 94.8317C86.0375 94.8372 85.7435 94.7785 85.472 94.6598C85.2005 94.541 84.9579 94.365 84.7607 94.1437C84.5576 93.9023 84.408 93.6207 84.3216 93.3173C84.2353 93.0139 84.2142 92.6957 84.2597 92.3835L93.5029 21.4007C93.6465 20.2835 94.403 19.0962 95.5185 19.0962H205.117C205.638 19.1203 206.149 19.2489 206.62 19.4743C207.09 19.6997 207.51 20.0173 207.856 20.4083C208.201 20.7992 208.464 21.2556 208.63 21.7502C208.795 22.2448 208.86 22.7677 208.82 23.2878L199.894 92.9764C199.747 94.0618 198.616 95.012 197.467 95.012Z" fill="#1B1C21"/>
    <path d="M201.883 22.3643C203.675 22.3643 205.292 24.1795 205.056 25.9597L196.843 90.0723C196.728 90.9774 195.758 91.7423 194.848 91.7423L89.8447 91.5753C88.7525 91.5753 88.0228 90.6685 88.1614 89.583L96.6664 24.288C96.7817 23.3829 97.3812 22.3676 98.2913 22.3676L201.883 22.3643Z" fill="white"/>
    <path opacity="0.47" d="M190.844 31.2134H148.16L148.449 29.0725H191.131L190.844 31.2134Z" fill="url(#paint3_linear_989_78500)"/>
    <path opacity="0.8" d="M200.055 34.7403H156.566L156.854 32.6011H200.342L200.055 34.7403Z" fill="url(#paint4_linear_989_78500)"/>
    <path opacity="0.47" d="M194.335 38.2688H171.857L172.145 36.1279H194.624L194.335 38.2688Z" fill="url(#paint5_linear_989_78500)"/>
    <path opacity="0.47" d="M187.049 59.4373H144.365L144.652 57.2964H187.336L187.049 59.4373Z" fill="url(#paint6_linear_989_78500)"/>
    <path opacity="0.8" d="M196.259 62.9641H152.771L153.059 60.825H196.547L196.259 62.9641Z" fill="url(#paint7_linear_989_78500)"/>
    <path opacity="0.8" d="M195.784 66.4927H168.062L168.35 64.3535H196.073L195.784 66.4927Z" fill="url(#paint8_linear_989_78500)"/>
    <path opacity="0.8" d="M177.547 69.8743H151.682L151.969 67.7334H177.835L177.547 69.8743Z" fill="url(#paint9_linear_989_78500)"/>
    <path opacity="0.8" d="M189.42 41.7957H146.736L147.025 39.6565H189.707L189.42 41.7957Z" fill="url(#paint10_linear_989_78500)"/>
    <path opacity="0.8" d="M198.631 45.3245H155.143L155.43 43.1853H198.919L198.631 45.3245Z" fill="url(#paint11_linear_989_78500)"/>
    <path opacity="0.47" d="M187.195 52.3816H169.961L170.248 50.2407H187.482L187.195 52.3816Z" fill="url(#paint12_linear_989_78500)"/>
    <path opacity="0.8" d="M191.873 55.9053H174.639L174.926 53.7661H192.16L191.873 55.9053Z" fill="url(#paint13_linear_989_78500)"/>
    <path opacity="0.8" d="M198.158 48.853H170.436L170.723 46.7122H198.446L198.158 48.853Z" fill="url(#paint14_linear_989_78500)"/>
    <path opacity="0.47" d="M185.153 73.5481H142.469L142.756 71.4089H185.44L185.153 73.5481Z" fill="url(#paint15_linear_989_78500)"/>
    <path opacity="0.8" d="M192.964 77.0767H150.875L151.162 74.9375H193.252L192.964 77.0767Z" fill="url(#paint16_linear_989_78500)"/>
    <path opacity="0.8" d="M193.887 80.6055H166.166L166.453 78.4646H194.174L193.887 80.6055Z" fill="url(#paint17_linear_989_78500)"/>
    <path opacity="0.47" d="M183.727 84.1324H141.045L141.332 81.9932H184.016L183.727 84.1324Z" fill="url(#paint18_linear_989_78500)"/>
    <path opacity="0.8" d="M192.938 87.6609H149.449L149.738 85.5217H193.227L192.938 87.6609Z" fill="url(#paint19_linear_989_78500)"/>
    <path opacity="0.8" d="M141.293 55.8667H137.135L137.41 53.811H141.568L141.293 55.8667Z" fill="url(#paint20_linear_989_78500)"/>
    <path opacity="0.8" d="M144.763 31.2134H140.43L140.717 29.0725H145.05L144.763 31.2134Z" fill="url(#paint21_linear_989_78500)"/>
    <path opacity="0.8" d="M145.199 27.9703H140.865L141.152 25.8311H145.486L145.199 27.9703Z" fill="url(#paint22_linear_989_78500)"/>
    <path opacity="0.8" d="M144.255 34.7403H139.955L140.242 32.6011H144.542L144.255 34.7403Z" fill="url(#paint23_linear_989_78500)"/>
    <path opacity="0.8" d="M143.636 38.2688H139.553L139.842 36.1296H143.923L143.636 38.2688Z" fill="url(#paint24_linear_989_78500)"/>
    <path opacity="0.8" d="M143.182 41.7974H139.027L139.315 39.6565H143.469L143.182 41.7974Z" fill="url(#paint25_linear_989_78500)"/>
    <path opacity="0.8" d="M142.686 45.3245H138.531L138.818 43.1853H142.973L142.686 45.3245Z" fill="url(#paint26_linear_989_78500)"/>
    <path opacity="0.8" d="M141.861 52.2395H137.744L138.031 50.1003H142.148L141.861 52.2395Z" fill="url(#paint27_linear_989_78500)"/>
    <path opacity="0.8" d="M142.231 48.711H138.295L138.582 46.5718H142.518L142.231 48.711Z" fill="url(#paint28_linear_989_78500)"/>
    <path opacity="0.8" d="M139.852 66.5828H135.693L135.971 64.5271H140.129L139.852 66.5828Z" fill="url(#paint29_linear_989_78500)"/>
    <path opacity="0.8" d="M140.419 62.9556H136.303L136.59 60.8164H140.708L140.419 62.9556Z" fill="url(#paint30_linear_989_78500)"/>
    <path opacity="0.8" d="M140.79 59.4287H136.854L137.141 57.2878H141.077L140.79 59.4287Z" fill="url(#paint31_linear_989_78500)"/>
    <path opacity="0.8" d="M137.045 87.4522H132.887L133.164 85.3965H137.322L137.045 87.4522Z" fill="url(#paint32_linear_989_78500)"/>
    <path opacity="0.8" d="M139.388 69.8543H135.307L135.594 67.7151H139.675L139.388 69.8543Z" fill="url(#paint33_linear_989_78500)"/>
    <path opacity="0.8" d="M138.936 73.3829H134.781L135.068 71.2437H139.223L138.936 73.3829Z" fill="url(#paint34_linear_989_78500)"/>
    <path opacity="0.8" d="M138.44 76.9114H134.285L134.572 74.7705H138.727L138.44 76.9114Z" fill="url(#paint35_linear_989_78500)"/>
    <path opacity="0.8" d="M137.613 83.825H133.496L133.783 81.6858H137.901L137.613 83.825Z" fill="url(#paint36_linear_989_78500)"/>
    <path opacity="0.8" d="M137.985 80.2964H134.049L134.336 78.1572H138.272L137.985 80.2964Z" fill="url(#paint37_linear_989_78500)"/>
    <path opacity="0.8" d="M122.723 27.501H102.178L102.453 25.4453H123L122.723 27.501Z" fill="url(#paint38_linear_989_78500)"/>
    <path opacity="0.47" d="M126.333 31.0713H104.676L104.965 28.9321H126.622L126.333 31.0713Z" fill="url(#paint39_linear_989_78500)"/>
    <path opacity="0.47" d="M131.997 34.6001H106.764L107.051 32.4592H132.284L131.997 34.6001Z" fill="url(#paint40_linear_989_78500)"/>
    <path opacity="0.47" d="M135.23 38.127H114.174L114.461 35.9878H135.517L135.23 38.127Z" fill="url(#paint41_linear_989_78500)"/>
    <path opacity="0.8" d="M115.024 55.7249H98.3828L98.6584 53.6692H115.299L115.024 55.7249Z" fill="url(#paint42_linear_989_78500)"/>
    <path opacity="0.47" d="M115.284 59.2952H103.113L103.401 57.156H115.571L115.284 59.2952Z" fill="url(#paint43_linear_989_78500)"/>
    <path opacity="0.47" d="M119.642 62.8237H107.992L108.279 60.6829H119.929L119.642 62.8237Z" fill="url(#paint44_linear_989_78500)"/>
    <path opacity="0.47" d="M127.355 66.3506H112.611L112.9 64.2114H127.643L127.355 66.3506Z" fill="url(#paint45_linear_989_78500)"/>
    <path opacity="0.8" d="M115.42 41.6556H100.541L100.828 39.5164H115.709L115.42 41.6556Z" fill="url(#paint46_linear_989_78500)"/>
    <path opacity="0.47" d="M133.914 45.1841H110.922L111.209 43.0432H134.201L133.914 45.1841Z" fill="url(#paint47_linear_989_78500)"/>
    <path opacity="0.8" d="M114.659 48.7061H99.7793L100.067 46.5652H114.946L114.659 48.7061Z" fill="url(#paint48_linear_989_78500)"/>
    <path opacity="0.47" d="M133.152 52.233H110.16L110.447 50.0938H133.439L133.152 52.233Z" fill="url(#paint49_linear_989_78500)"/>
    <path opacity="0.8" d="M114.986 69.8377H96.4844L96.7616 67.782H115.263L114.986 69.8377Z" fill="url(#paint50_linear_989_78500)"/>
    <path opacity="0.47" d="M126.965 73.408H96.752L97.0392 71.2671H127.252L126.965 73.408Z" fill="url(#paint51_linear_989_78500)"/>
    <path opacity="0.47" d="M126.862 76.9349H109.518L109.805 74.7957H127.151L126.862 76.9349Z" fill="url(#paint52_linear_989_78500)"/>
    <path opacity="0.8" d="M119.587 83.9919H99.6074L99.8963 81.8511H119.874L119.587 83.9919Z" fill="url(#paint53_linear_989_78500)"/>
    <path opacity="0.47" d="M130.329 80.1846H113.693L113.981 78.0454H130.617L130.329 80.1846Z" fill="url(#paint54_linear_989_78500)"/>
    <path opacity="0.47" d="M123.016 87.5191H107.275L107.564 85.3799H123.304L123.016 87.5191Z" fill="url(#paint55_linear_989_78500)"/>
    <path d="M206.577 134.598L206.16 138.594L203.475 138.912V134.172L206.577 134.598Z" fill="white"/>
    <path d="M203.475 139.162C203.413 139.163 203.353 139.14 203.308 139.099C203.281 139.075 203.26 139.047 203.245 139.014C203.23 138.982 203.223 138.947 203.223 138.912V134.172C203.223 134.137 203.231 134.101 203.246 134.069C203.261 134.036 203.282 134.007 203.309 133.984C203.337 133.96 203.368 133.943 203.403 133.933C203.437 133.922 203.473 133.919 203.508 133.924L206.609 134.349C206.674 134.359 206.732 134.392 206.772 134.443C206.812 134.494 206.831 134.559 206.825 134.623L206.407 138.621C206.402 138.678 206.377 138.73 206.337 138.771C206.297 138.811 206.245 138.837 206.188 138.843L203.503 139.16L203.475 139.162ZM203.725 134.46V138.634L205.931 138.374L206.302 134.819L203.725 134.46Z" fill="#1B1C21"/>
    <path d="M203.053 145.87C204.748 146.104 206.467 146.104 208.163 145.87C208.33 145.846 208.49 145.788 208.633 145.698C208.776 145.609 208.898 145.491 208.993 145.351C209.087 145.211 209.151 145.053 209.181 144.887C209.21 144.721 209.205 144.551 209.165 144.387C208.69 142.447 207.872 138.766 206.469 137.06L206.122 137.985L205.641 137.113C205.608 137.055 205.562 137.005 205.507 136.967C205.452 136.929 205.388 136.905 205.322 136.896L204.267 136.762C204.161 136.749 204.054 136.776 203.967 136.838C203.88 136.9 203.82 136.992 203.798 137.096L203.631 137.9L202.988 136.846L202.704 140.777C202.642 141.62 202.515 142.458 202.325 143.282L202.037 144.523C201.997 144.835 202.08 145.152 202.27 145.404C202.46 145.656 202.741 145.823 203.053 145.87Z" fill="url(#paint56_linear_989_78500)"/>
    <path d="M205.59 146.294C204.729 146.295 203.869 146.236 203.017 146.117C202.638 146.061 202.297 145.858 202.067 145.553C201.837 145.247 201.736 144.864 201.786 144.484V144.461L202.073 143.22C202.261 142.41 202.385 141.588 202.446 140.759L202.731 136.829C202.735 136.776 202.755 136.726 202.79 136.686C202.824 136.645 202.87 136.616 202.922 136.604C202.973 136.591 203.027 136.595 203.076 136.615C203.125 136.635 203.166 136.67 203.194 136.716L203.508 137.228L203.546 137.045C203.581 136.878 203.677 136.731 203.816 136.632C203.954 136.533 204.124 136.49 204.293 136.51L205.348 136.646C205.452 136.66 205.552 136.699 205.639 136.758C205.726 136.818 205.798 136.897 205.849 136.99L206.068 137.385L206.225 136.968C206.24 136.927 206.266 136.891 206.3 136.863C206.334 136.835 206.375 136.817 206.418 136.81C206.462 136.803 206.506 136.807 206.547 136.822C206.588 136.838 206.624 136.864 206.652 136.898C207.997 138.531 208.81 141.896 209.294 143.911L209.396 144.332C209.445 144.53 209.451 144.736 209.416 144.936C209.38 145.137 209.302 145.328 209.188 145.496C209.074 145.665 208.926 145.808 208.753 145.916C208.58 146.024 208.387 146.094 208.185 146.122C207.325 146.239 206.458 146.297 205.59 146.294ZM202.279 144.561C202.248 144.808 202.316 145.057 202.466 145.255C202.616 145.453 202.838 145.584 203.084 145.622C204.756 145.852 206.451 145.852 208.123 145.622C208.255 145.602 208.381 145.556 208.493 145.485C208.606 145.415 208.702 145.321 208.777 145.211C208.852 145.101 208.903 144.977 208.927 144.847C208.951 144.716 208.947 144.582 208.917 144.453L208.815 144.032C208.372 142.205 207.656 139.236 206.539 137.582L206.352 138.083C206.336 138.129 206.307 138.169 206.269 138.199C206.23 138.228 206.184 138.246 206.136 138.25C206.088 138.253 206.041 138.243 205.998 138.22C205.956 138.198 205.921 138.163 205.897 138.122L205.417 137.25C205.404 137.225 205.385 137.204 205.363 137.189C205.34 137.173 205.314 137.163 205.286 137.16L204.231 137.026C204.187 137.021 204.143 137.033 204.107 137.059C204.071 137.085 204.046 137.123 204.037 137.167L203.87 137.968C203.86 138.017 203.835 138.063 203.799 138.098C203.763 138.133 203.717 138.156 203.668 138.165C203.618 138.173 203.567 138.167 203.521 138.146C203.476 138.125 203.437 138.091 203.411 138.048L203.175 137.663L202.947 140.795C202.885 141.65 202.756 142.499 202.563 143.334L202.279 144.561Z" fill="#1B1C21"/>
    <path d="M205.509 145.107C204.738 145.125 203.97 145.018 203.233 144.792C203.2 144.782 203.169 144.767 203.142 144.745C203.115 144.723 203.093 144.696 203.077 144.666C203.061 144.635 203.052 144.602 203.049 144.568C203.047 144.533 203.052 144.499 203.063 144.466C203.075 144.434 203.093 144.404 203.116 144.379C203.14 144.354 203.168 144.334 203.2 144.32C203.231 144.306 203.266 144.299 203.3 144.3C203.334 144.3 203.368 144.307 203.4 144.321C203.423 144.329 205.175 144.935 207.759 144.344C207.791 144.335 207.826 144.332 207.859 144.336C207.893 144.341 207.925 144.352 207.955 144.369C207.984 144.387 208.009 144.41 208.029 144.437C208.05 144.465 208.064 144.496 208.071 144.529C208.079 144.562 208.08 144.596 208.074 144.63C208.068 144.663 208.055 144.695 208.036 144.723C208.017 144.752 207.993 144.776 207.964 144.795C207.936 144.813 207.904 144.826 207.87 144.832C207.096 145.012 206.304 145.104 205.509 145.107Z" fill="#1B1C21"/>
    <path d="M206.803 142.038H206.788L204.272 141.954C204.239 141.953 204.206 141.946 204.176 141.932C204.146 141.918 204.119 141.899 204.097 141.875C204.074 141.851 204.057 141.823 204.045 141.792C204.034 141.761 204.028 141.728 204.029 141.695C204.031 141.663 204.038 141.63 204.052 141.6C204.065 141.57 204.085 141.543 204.109 141.521C204.133 141.498 204.161 141.481 204.192 141.469C204.223 141.458 204.255 141.452 204.288 141.453L206.805 141.537C206.871 141.537 206.935 141.563 206.982 141.61C207.029 141.657 207.055 141.721 207.055 141.787C207.055 141.854 207.029 141.917 206.982 141.964C206.935 142.011 206.871 142.038 206.805 142.038H206.803Z" fill="#1B1C21"/>
    <path d="M194.001 132.469L193.599 138.302H190.369L190.219 132.469H194.001Z" fill="white"/>
    <path d="M193.595 138.553H190.366C190.3 138.553 190.238 138.527 190.191 138.482C190.144 138.436 190.117 138.374 190.115 138.309L189.965 132.476C189.964 132.442 189.97 132.409 189.982 132.378C189.994 132.347 190.013 132.319 190.036 132.295C190.059 132.271 190.087 132.252 190.118 132.239C190.149 132.226 190.182 132.22 190.215 132.22H193.998C194.032 132.22 194.066 132.227 194.098 132.24C194.13 132.254 194.158 132.274 194.182 132.299C194.205 132.324 194.223 132.354 194.235 132.386C194.246 132.419 194.251 132.453 194.248 132.487L193.846 138.321C193.841 138.384 193.812 138.442 193.766 138.485C193.72 138.528 193.659 138.552 193.595 138.553ZM190.61 138.052H193.362L193.729 132.721H190.473L190.61 138.052Z" fill="#1B1C21"/>
    <path d="M194.443 141.595C194.448 141.863 194.361 142.124 194.197 142.335C194.033 142.546 193.801 142.695 193.541 142.756C191.684 143.192 187.501 144.16 186.307 144.339C184.759 144.571 182.855 144.093 182.037 143.182C181.218 142.27 183.873 140.092 185.128 139.301C186.996 138.123 188.791 135.794 189.545 135.692C190.298 135.59 191.702 137.786 191.702 137.786L194 136.816C194.28 138.394 194.428 139.993 194.443 141.595Z" fill="url(#paint57_linear_989_78500)"/>
    <path d="M185.503 144.648C184.054 144.648 182.559 144.138 181.851 143.349C181.764 143.25 181.7 143.133 181.664 143.007C181.628 142.88 181.621 142.747 181.644 142.617C181.821 141.348 184.182 139.6 184.996 139.089C185.906 138.514 186.794 137.667 187.577 136.918C188.521 136.016 189.08 135.503 189.511 135.443C190.281 135.336 191.348 136.794 191.801 137.472L193.905 136.582C193.939 136.568 193.976 136.561 194.013 136.563C194.05 136.565 194.086 136.574 194.119 136.592C194.152 136.609 194.18 136.634 194.202 136.664C194.225 136.693 194.24 136.728 194.247 136.764C194.529 138.358 194.679 139.972 194.695 141.59C194.698 141.914 194.592 142.229 194.393 142.485C194.195 142.741 193.915 142.921 193.601 142.998C191.822 143.415 187.554 144.404 186.347 144.586C186.067 144.627 185.785 144.647 185.503 144.648ZM189.606 135.939H189.588C189.289 135.981 188.598 136.64 187.93 137.275C187.13 138.038 186.221 138.905 185.268 139.506C184.037 140.281 182.262 141.816 182.147 142.679C182.133 142.737 182.134 142.798 182.148 142.856C182.163 142.914 182.191 142.968 182.23 143.013C182.965 143.831 184.782 144.314 186.278 144.09C187.469 143.911 191.72 142.921 193.492 142.51C193.696 142.46 193.877 142.343 194.006 142.177C194.134 142.011 194.203 141.807 194.2 141.597C194.181 140.113 194.053 138.632 193.818 137.166L191.814 138.015C191.76 138.038 191.699 138.042 191.642 138.024C191.585 138.007 191.537 137.97 191.505 137.92C190.87 136.948 189.977 135.939 189.606 135.939Z" fill="#1B1C21"/>
    <path d="M185.52 143.217C184.494 143.217 183.576 143.05 182.911 142.612C182.858 142.575 182.821 142.518 182.809 142.455C182.797 142.391 182.81 142.325 182.845 142.27C182.881 142.216 182.936 142.177 183 142.163C183.063 142.149 183.129 142.159 183.185 142.193C185.546 143.741 191.897 141.428 193.146 140.951C193.177 140.939 193.21 140.933 193.243 140.933C193.276 140.934 193.308 140.941 193.338 140.955C193.368 140.968 193.396 140.987 193.418 141.011C193.441 141.035 193.459 141.063 193.47 141.094C193.482 141.125 193.488 141.158 193.487 141.191C193.486 141.224 193.479 141.256 193.466 141.286C193.452 141.316 193.433 141.343 193.409 141.366C193.385 141.389 193.357 141.406 193.327 141.418C191.997 141.928 188.354 143.217 185.52 143.217Z" fill="#1B1C21"/>
    <path d="M189.112 140.046C189.047 140.045 188.984 140.02 188.937 139.974L187.601 138.663C187.576 138.64 187.556 138.613 187.542 138.582C187.528 138.552 187.521 138.518 187.52 138.485C187.519 138.451 187.525 138.418 187.537 138.387C187.549 138.355 187.568 138.327 187.591 138.303C187.615 138.279 187.643 138.26 187.674 138.247C187.705 138.234 187.738 138.228 187.772 138.228C187.806 138.228 187.839 138.235 187.87 138.248C187.9 138.262 187.928 138.281 187.951 138.306L189.287 139.615C189.322 139.649 189.346 139.693 189.356 139.741C189.367 139.789 189.363 139.839 189.345 139.885C189.327 139.931 189.296 139.97 189.257 139.999C189.217 140.027 189.169 140.044 189.12 140.046H189.112Z" fill="#1B1C21"/>
    <path d="M207.492 94.4459C207.492 94.4459 208.494 112.68 209.016 118.974C209.539 125.268 207.789 135.386 207.789 135.386L202.803 135.123C202.803 135.123 202.469 122.82 202.09 119.403C202.09 119.403 199.984 114.773 199.359 110.643C198.735 106.513 196.609 99.9885 196.609 99.9885C196.609 99.9885 194.88 132.552 194.715 135.109C194.715 135.109 190.804 135.276 189.403 134.398C189.403 134.398 186.918 122.523 187.275 116.063C187.633 109.604 187.24 93.5525 187.24 93.5525L207.492 94.4459Z" fill="url(#paint58_linear_989_78500)"/>
    <path d="M204.537 119.654H203.012C202.946 119.654 202.882 119.627 202.835 119.58C202.788 119.533 202.762 119.47 202.762 119.403C202.762 119.337 202.788 119.273 202.835 119.226C202.882 119.179 202.946 119.153 203.012 119.153H204.537C204.603 119.153 204.667 119.179 204.714 119.226C204.761 119.273 204.787 119.337 204.787 119.403C204.787 119.47 204.761 119.533 204.714 119.58C204.667 119.627 204.603 119.654 204.537 119.654Z" fill="white"/>
    <path d="M192.153 129.124C192.087 129.124 192.024 129.099 191.977 129.053C191.93 129.007 191.903 128.944 191.903 128.879C191.849 125.978 188.519 120.502 188.486 120.447C188.469 120.419 188.457 120.388 188.452 120.356C188.447 120.323 188.448 120.29 188.456 120.258C188.464 120.226 188.478 120.196 188.497 120.17C188.516 120.143 188.541 120.121 188.569 120.104C188.597 120.087 188.628 120.075 188.66 120.07C188.692 120.065 188.725 120.066 188.757 120.074C188.789 120.082 188.819 120.096 188.846 120.115C188.872 120.134 188.895 120.159 188.912 120.186C189.052 120.415 192.348 125.834 192.404 128.87C192.404 128.903 192.398 128.936 192.386 128.966C192.374 128.997 192.357 129.025 192.334 129.049C192.311 129.073 192.284 129.092 192.254 129.105C192.223 129.118 192.191 129.125 192.158 129.126L192.153 129.124Z" fill="white"/>
    <path d="M184.17 65.5992C183.895 65.5775 181.595 69.522 180.515 71.4057C180.443 71.5326 180.346 71.6438 180.23 71.7324C180.113 71.821 179.981 71.8853 179.839 71.9215C179.698 71.9576 179.55 71.9649 179.406 71.9428C179.261 71.9208 179.123 71.8699 178.999 71.7931L170.55 66.5778C169.86 66.154 169.27 65.584 168.824 64.9079C168.117 63.8324 167.698 62.737 166.753 61.9755C165.985 61.3542 165.207 60.6645 164.973 60.4842C164.827 60.3706 164.149 60.8533 164.66 61.7099C164.817 61.9721 165.404 62.5065 165.564 62.7486C165.691 62.9363 165.757 63.1592 165.752 63.3861C165.747 63.613 165.671 63.8327 165.536 64.0145C165.232 64.4036 164.979 65.0281 165.32 65.8982C165.821 67.1824 166.965 67.5013 167.611 67.5681C167.935 67.6076 168.232 67.7652 168.446 68.0107L176.245 76.9549C176.828 77.6264 177.63 78.0695 178.508 78.2056C179.387 78.3416 180.286 78.1618 181.044 77.698C183.579 76.1483 186.844 73.0222 189.195 69.0844L184.17 65.5992Z" fill="white"/>
    <path d="M179.083 78.4929C178.509 78.493 177.941 78.3697 177.419 78.1314C176.897 77.8932 176.432 77.5455 176.055 77.1118L168.258 68.1776C168.084 67.9779 167.842 67.85 167.579 67.8186C166.884 67.7384 165.637 67.3944 165.084 65.9816C164.695 64.9897 165.005 64.2766 165.336 63.8541C165.44 63.714 165.498 63.5447 165.501 63.37C165.504 63.1954 165.452 63.0242 165.353 62.8805C165.233 62.7273 165.105 62.5817 164.967 62.4447C164.774 62.2566 164.599 62.0515 164.443 61.8318C164.047 61.1638 164.245 60.6328 164.534 60.3773C164.738 60.1969 164.969 60.1585 165.124 60.2788C165.227 60.3589 165.414 60.5176 165.673 60.7397C166.026 61.0402 166.465 61.4076 166.907 61.775C167.612 62.3445 168.03 63.0676 168.47 63.8357C168.637 64.1397 168.828 64.4553 169.03 64.7642C169.457 65.4109 170.02 65.9567 170.68 66.364L179.13 71.5793C179.225 71.639 179.332 71.6787 179.443 71.696C179.555 71.7134 179.668 71.708 179.778 71.6802C179.887 71.6525 179.989 71.6029 180.079 71.5344C180.168 71.466 180.243 71.3801 180.299 71.282C183.724 65.312 183.973 65.3303 184.191 65.3487C184.236 65.3522 184.278 65.3672 184.315 65.3921L189.338 68.8673C189.39 68.9033 189.427 68.9578 189.441 69.0198C189.454 69.0818 189.444 69.1467 189.412 69.2013C186.875 73.4563 183.495 76.4856 181.175 77.9017C180.546 78.2878 179.822 78.4924 179.083 78.4929ZM164.888 60.7346C164.829 60.7792 164.783 60.8401 164.757 60.91C164.722 61.0226 164.715 61.1417 164.735 61.2576C164.755 61.3736 164.802 61.4833 164.872 61.578C165.011 61.7648 165.163 61.9407 165.329 62.104C165.487 62.2605 165.634 62.4279 165.768 62.605C165.926 62.8362 166.006 63.111 165.999 63.3905C165.992 63.67 165.897 63.9402 165.728 64.1631C165.366 64.629 165.306 65.1801 165.548 65.8013C166.006 66.9702 167.051 67.2541 167.635 67.3209C168.023 67.3654 168.381 67.553 168.637 67.847L176.433 76.7879C176.977 77.415 177.726 77.8289 178.546 77.9558C179.366 78.0827 180.205 77.9144 180.913 77.4809C183.144 76.1182 186.384 73.2225 188.859 69.1529L184.183 65.9165C183.849 66.3156 182.792 67.9538 180.735 71.5375C180.646 71.6938 180.526 71.8306 180.384 71.9397C180.241 72.0488 180.077 72.1279 179.903 72.1723C179.729 72.2168 179.548 72.2256 179.37 72.1983C179.192 72.171 179.022 72.1081 178.869 72.0135L170.419 66.7966C169.697 66.3509 169.081 65.7531 168.614 65.0448C168.404 64.7242 168.218 64.4035 168.04 64.0912C167.622 63.3665 167.228 62.6818 166.597 62.1708C166.148 61.8068 165.687 61.4143 165.351 61.1271C165.156 60.9568 164.994 60.8198 164.89 60.7346H164.888Z" fill="#1B1C21"/>
    <path d="M213.173 72.947C213.173 72.947 213.734 62.56 205.882 59.6409C199.801 57.3814 192.036 58.3567 189.603 59.2C183.611 61.2791 180.662 69.1963 180.662 69.1963L187.676 70.1849C187.676 70.1849 185.558 92.9313 186.477 98.0046C186.477 98.0046 192.128 98.6726 194.524 97.7174C196.921 96.7622 204.803 95.4362 208.569 97.178L207.884 72.8485L213.173 72.947Z" fill="#1B1C21"/>
    <path d="M203.385 92.4071H203.34C194.129 90.7688 191.43 84.3028 191.405 84.2377C191.383 84.1768 191.386 84.11 191.413 84.0512C191.439 83.9924 191.488 83.9461 191.548 83.922C191.607 83.8978 191.674 83.8978 191.734 83.9217C191.794 83.9457 191.842 83.9919 191.869 84.0506C191.894 84.1141 194.503 90.3263 203.429 91.9144C203.495 91.9202 203.556 91.9521 203.599 92.0031C203.642 92.0542 203.663 92.1202 203.657 92.1866C203.652 92.2531 203.62 92.3145 203.569 92.3574C203.518 92.4003 203.452 92.4212 203.385 92.4154V92.4071Z" fill="white"/>
    <path d="M186.629 81.305H198.133L194.53 68.3696H183.025L186.629 81.305Z" fill="url(#paint59_linear_989_78500)"/>
    <path d="M198.135 81.5555H186.631C186.576 81.5555 186.523 81.5378 186.479 81.5049C186.435 81.4721 186.404 81.426 186.388 81.3735L182.786 68.4381C182.776 68.4009 182.775 68.3618 182.782 68.3239C182.789 68.286 182.805 68.2503 182.828 68.2195C182.851 68.1887 182.881 68.1636 182.916 68.1462C182.95 68.1288 182.988 68.1196 183.027 68.1191H194.531C194.586 68.119 194.639 68.1369 194.683 68.1701C194.727 68.2033 194.759 68.2499 194.773 68.3028L198.377 81.2383C198.387 81.2755 198.388 81.3145 198.381 81.3524C198.374 81.3903 198.358 81.4261 198.335 81.457C198.312 81.4878 198.281 81.5127 198.247 81.5298C198.212 81.5469 198.174 81.5557 198.135 81.5555ZM186.821 81.0546H197.806L194.341 68.6201H183.357L186.821 81.0546Z" fill="#1B1C21"/>
    <path d="M211.807 72.947L206.749 72.7166C206.749 72.7166 206.71 77.005 206.248 77.0818C204.621 77.354 201.214 77.3674 198.998 77.0985C198.622 77.0495 198.271 76.8819 197.996 76.6201C197.722 76.3583 197.537 76.0158 197.47 75.6423C197.405 75.2799 197.264 74.9356 197.054 74.6328C196.845 74.33 196.572 74.0757 196.256 73.8872C195.49 73.4129 196.245 74.9059 195.528 75.8677C195.144 76.3838 193.925 76.155 192.265 75.7676C190.605 75.3801 190.181 77.167 192.043 78.2474C194.062 79.4164 195.344 79.2861 195.987 79.4164C197.27 79.6903 208.606 81.4788 210.349 80.5219C211.713 79.7938 211.807 72.947 211.807 72.947Z" fill="white"/>
    <path d="M208.166 81.0564C204.1 81.0564 196.585 79.8073 195.944 79.6703C195.787 79.6416 195.629 79.621 195.47 79.6086C194.216 79.5089 193.002 79.1177 191.926 78.4663C190.71 77.7616 190.423 76.783 190.66 76.1718C190.889 75.5957 191.544 75.3368 192.33 75.5255C193.462 75.7894 195.014 76.1518 195.336 75.7192C195.64 75.3134 195.635 74.7624 195.632 74.3599C195.632 74.0042 195.632 73.722 195.852 73.5951C196.073 73.4682 196.306 73.6218 196.397 73.6769C196.742 73.8841 197.039 74.1626 197.268 74.4938C197.497 74.8249 197.652 75.2012 197.724 75.5973C197.781 75.9189 197.939 76.214 198.175 76.4396C198.411 76.6652 198.713 76.8095 199.037 76.8515C201.159 77.1103 204.521 77.1053 206.151 76.8515C206.348 76.4857 206.485 74.4618 206.5 72.7217C206.5 72.6881 206.507 72.6548 206.52 72.624C206.533 72.5931 206.553 72.5652 206.577 72.542C206.601 72.5188 206.63 72.5007 206.662 72.4888C206.693 72.4769 206.727 72.4715 206.76 72.4729L211.82 72.7033C211.885 72.7063 211.946 72.7345 211.991 72.7819C212.036 72.8293 212.06 72.8921 212.059 72.9571C212.049 73.6719 211.922 79.9709 210.484 80.7541C210.082 80.9629 209.245 81.0564 208.166 81.0564ZM191.838 75.9664C191.487 75.9664 191.226 76.1033 191.126 76.3572C190.959 76.788 191.261 77.5011 192.177 78.0271C193.189 78.6447 194.334 79.0138 195.516 79.1042C195.694 79.1189 195.87 79.1429 196.044 79.176C197.881 79.5668 208.646 81.18 210.239 80.3049C211.102 79.8323 211.493 75.7877 211.55 73.1826L206.992 72.9755C206.937 77.2172 206.491 77.2923 206.291 77.3174C204.621 77.5979 201.199 77.6063 198.972 77.3358C198.542 77.281 198.141 77.0904 197.827 76.7918C197.513 76.4933 197.303 76.1023 197.226 75.6758C197.169 75.3481 197.041 75.0367 196.852 74.7631C196.662 74.4895 196.416 74.2602 196.129 74.091C196.129 74.1679 196.129 74.258 196.129 74.3432C196.129 74.7891 196.129 75.4637 195.735 76.0131C195.253 76.6594 194.027 76.4306 192.213 76.0131C192.09 75.9834 191.964 75.9677 191.838 75.9664Z" fill="#1B1C21"/>
    <path d="M194.387 59.3771C194.387 59.3771 195.696 58.5722 195.684 58.1013L196.058 55.6815C196.061 55.5748 196.03 55.4699 195.97 55.3816C195.91 55.2932 195.824 55.2258 195.724 55.1889L194.174 54.6562C194.078 54.6211 193.996 54.5558 193.939 54.47C193.883 54.3843 193.856 54.2826 193.862 54.1802L193.984 52.2581L193.376 51.7204C193.353 51.6996 193.339 51.6706 193.336 51.6396C193.334 51.6085 193.343 51.5777 193.363 51.5534L194.323 50.3845C194.637 49.9419 194.951 48.8815 195.208 48.9583C195.208 48.9583 200.672 48.3271 200.939 51.0825C200.973 51.4824 200.862 51.881 200.627 52.2064L200.143 52.8877C199.646 53.5708 199.412 54.4107 199.487 55.2524C199.505 55.4277 199.732 56.5499 199.884 57.293C199.97 57.7134 200.204 58.089 200.544 58.3518C200.971 58.6858 201.491 59.0982 201.405 59.125C200.918 59.4599 200.395 59.7399 199.846 59.9599C199.006 60.3007 198.099 60.439 197.196 60.3639C196.294 60.2888 195.422 60.0022 194.65 59.5274L194.387 59.3771Z" fill="white"/>
    <path d="M197.684 60.6412C196.564 60.6413 195.467 60.3328 194.511 59.7495L194.252 59.5825C194.216 59.5606 194.185 59.5295 194.164 59.4923C194.143 59.4551 194.132 59.4131 194.132 59.3704C194.132 59.3276 194.142 59.2854 194.163 59.248C194.184 59.2105 194.214 59.1791 194.25 59.1567C194.86 58.7809 195.433 58.2666 195.429 58.0996C195.428 58.0846 195.428 58.0695 195.429 58.0545L195.8 55.6548C195.8 55.6028 195.783 55.5522 195.754 55.5096C195.724 55.467 195.682 55.4344 195.633 55.416L194.085 54.8849C193.937 54.8317 193.81 54.7317 193.724 54.6001C193.637 54.4685 193.596 54.3123 193.606 54.1552L193.718 52.355L193.203 51.8991C193.132 51.8359 193.087 51.7473 193.079 51.652C193.072 51.5567 193.101 51.462 193.162 51.3881L194.115 50.2274C194.24 50.0273 194.348 49.8179 194.441 49.6012C194.686 49.0769 194.883 48.6577 195.211 48.6994C195.623 48.656 198.855 48.3655 200.388 49.5979C200.613 49.7726 200.8 49.9919 200.937 50.2421C201.074 50.4924 201.158 50.7682 201.184 51.0524C201.224 51.5122 201.097 51.971 200.827 52.3449L200.342 53.0279C199.88 53.6614 199.663 54.441 199.731 55.2223C199.731 55.279 199.788 55.5896 200.125 57.2379C200.199 57.5997 200.401 57.9228 200.693 58.148C201.695 58.9212 201.685 58.9947 201.657 59.15C201.644 59.2172 201.605 59.2768 201.55 59.317C201.046 59.6659 200.505 59.9572 199.937 60.1853C199.223 60.4837 198.457 60.6386 197.684 60.6412ZM194.855 59.3704C195.587 59.8032 196.409 60.0613 197.257 60.1247C198.105 60.1881 198.956 60.0552 199.745 59.7361C200.191 59.5504 200.622 59.3269 201.031 59.0682C200.917 58.968 200.72 58.806 200.386 58.5471C199.998 58.2487 199.731 57.8207 199.633 57.3414C199.381 56.114 199.247 55.4193 199.232 55.2774C199.153 54.3739 199.404 53.4724 199.94 52.7407L200.424 52.0594C200.626 51.7837 200.721 51.4445 200.693 51.1042C200.674 50.8863 200.61 50.6748 200.504 50.4833C200.399 50.2917 200.254 50.1244 200.08 49.992C198.642 48.823 195.273 49.2004 195.237 49.2054H195.229C195.102 49.3988 194.993 49.6034 194.903 49.8166C194.798 50.0631 194.672 50.3005 194.528 50.5264L194.518 50.5414L193.639 51.6118L194.15 52.0644C194.179 52.0897 194.201 52.1213 194.216 52.1566C194.23 52.1919 194.236 52.23 194.234 52.2681L194.114 54.1902C194.11 54.2385 194.123 54.2865 194.149 54.3271C194.175 54.3678 194.214 54.3988 194.259 54.4157L195.805 54.9467C195.956 54.9998 196.087 55.0992 196.179 55.2308C196.27 55.3624 196.318 55.5196 196.315 55.6798C196.315 55.6915 196.315 55.7032 196.315 55.7149L195.932 58.1213C195.92 58.5521 195.319 59.0498 194.855 59.3704Z" fill="#1B1C21"/>
    <path d="M195.021 44.7666C196.266 44.7032 194.687 45.9857 199.304 44.6598C201.141 44.1321 200.197 46.288 200.675 46.1527C202.437 45.6517 202.375 45.6667 203.232 45.9005C203.799 46.0542 204.16 47.1146 204.048 47.9045C203.898 48.9465 202.729 50.6014 201.682 52.3516C201.139 53.2567 200.179 53.3402 199.018 51.9908C198.895 51.8472 199.519 51.0022 199.197 50.6382C198.34 49.6913 197.96 51.1225 197.268 50.6799C196.6 50.2558 196.33 49.9819 195.627 49.344C194.778 48.5674 193.352 49.7748 192.86 48.0297C192.602 47.1146 193.316 44.8552 195.021 44.7666Z" fill="#1B1C21"/>
    <path d="M154.255 140.218C154.524 140.205 154.783 140.115 155.002 139.96C156.132 139.16 158.48 137.37 160.085 137.594C162.772 137.968 163.091 140.162 163.091 140.162C163.091 140.162 165.357 140.079 165.312 141.587C165.277 142.744 164.619 144.215 162.785 145.024C160.281 146.127 157.776 146.967 155.02 145.157C154.486 144.803 153.846 144.644 153.208 144.706C151.655 144.862 128.513 145.361 128.513 145.361C125.916 145.362 123.369 144.652 121.146 143.309C118.923 141.966 117.11 140.04 115.903 137.741L111.025 128.436L116.615 112.822L125.379 133.18C129.624 138.968 153.813 140.319 154.255 140.218Z" fill="white"/>
    <path d="M158.394 146.458C157.142 146.454 155.92 146.074 154.887 145.366C154.4 145.045 153.818 144.901 153.237 144.955C151.693 145.111 129.467 145.592 128.522 145.612C125.877 145.617 123.281 144.896 121.018 143.527C118.754 142.159 116.91 140.196 115.685 137.851L110.807 128.546C110.791 128.516 110.782 128.482 110.78 128.448C110.778 128.413 110.782 128.379 110.794 128.346L116.383 112.73C116.4 112.683 116.43 112.641 116.471 112.612C116.511 112.582 116.56 112.565 116.61 112.563C116.66 112.562 116.71 112.576 116.752 112.603C116.795 112.629 116.828 112.668 116.849 112.714L125.601 133.047C129.708 138.569 153.155 140.061 154.217 139.97C154.231 139.969 154.245 139.969 154.259 139.97C154.475 139.957 154.683 139.884 154.86 139.76L155.123 139.573C156.398 138.658 158.538 137.128 160.132 137.349C162.47 137.683 163.138 139.323 163.305 139.917C163.718 139.93 164.641 140.024 165.177 140.555C165.315 140.69 165.422 140.853 165.491 141.032C165.56 141.212 165.59 141.405 165.578 141.597C165.561 142.187 165.316 144.19 162.906 145.256C161.453 145.887 159.959 146.458 158.394 146.458ZM153.478 144.443C154.074 144.444 154.658 144.618 155.158 144.944C157.83 146.694 160.243 145.87 162.686 144.792C164.83 143.845 165.047 142.091 165.062 141.575C165.071 141.452 165.052 141.329 165.009 141.214C164.965 141.099 164.898 140.994 164.81 140.907C164.366 140.466 163.426 140.406 163.1 140.406C163.039 140.408 162.979 140.387 162.932 140.347C162.884 140.308 162.853 140.253 162.843 140.193C162.831 140.111 162.509 138.177 160.051 137.835C158.661 137.639 156.544 139.157 155.412 139.97L155.148 140.159C154.886 140.343 154.576 140.448 154.256 140.461C153.548 140.507 147.496 140.142 141.205 139.147C132.383 137.751 126.989 135.789 125.174 133.314C125.162 133.299 125.153 133.283 125.145 133.266L116.629 113.492L111.285 128.404L116.111 137.611C117.292 139.874 119.072 141.77 121.256 143.091C123.441 144.412 125.946 145.108 128.499 145.104C128.724 145.104 151.644 144.603 153.169 144.449C153.282 144.448 153.381 144.443 153.478 144.443Z" fill="#1B1C21"/>
    <path d="M148.172 136.033L150.41 132.115L152.247 133.307C152.348 133.373 152.432 133.462 152.494 133.566L152.604 133.755C152.671 133.872 152.769 133.969 152.886 134.037C153.003 134.104 153.137 134.139 153.272 134.137C153.421 134.136 153.566 134.178 153.691 134.259L167.353 143.11C167.466 143.182 167.569 143.27 167.658 143.37L170.421 146.43L166.58 145.561C166.37 145.514 166.168 145.44 165.977 145.341L151.599 137.826C151.475 137.763 151.372 137.666 151.3 137.547L151.281 137.519C151.213 137.408 151.117 137.316 151.003 137.252C150.889 137.188 150.761 137.154 150.63 137.153H150.498C150.375 137.154 150.254 137.125 150.146 137.068L148.172 136.033Z" fill="white"/>
    <path d="M170.422 146.679C170.404 146.68 170.385 146.68 170.367 146.679L166.526 145.81C166.294 145.758 166.069 145.676 165.858 145.566L151.48 138.052C151.317 137.966 151.181 137.839 151.084 137.683L151.066 137.652C151.02 137.578 150.956 137.516 150.88 137.473C150.805 137.43 150.719 137.408 150.632 137.407H150.496C150.334 137.407 150.173 137.368 150.029 137.293L148.058 136.263C148.028 136.247 148.002 136.226 147.981 136.2C147.96 136.174 147.944 136.144 147.935 136.111C147.925 136.079 147.922 136.045 147.925 136.012C147.929 135.979 147.94 135.947 147.956 135.917L150.196 132C150.213 131.969 150.238 131.943 150.266 131.922C150.295 131.901 150.328 131.887 150.363 131.879C150.396 131.872 150.43 131.871 150.464 131.877C150.497 131.882 150.529 131.895 150.558 131.913L152.395 133.105C152.532 133.192 152.647 133.31 152.729 133.449L152.839 133.638C152.884 133.716 152.948 133.78 153.025 133.825C153.103 133.87 153.191 133.894 153.28 133.895H153.298C153.493 133.897 153.683 133.955 153.844 134.062L167.508 142.913C167.639 142.998 167.758 143.1 167.864 143.215L170.624 146.276C170.656 146.312 170.677 146.357 170.685 146.404C170.692 146.452 170.686 146.501 170.666 146.545C170.647 146.589 170.615 146.626 170.575 146.653C170.534 146.679 170.487 146.693 170.439 146.694L170.422 146.679ZM150.632 136.906C150.804 136.907 150.974 136.952 151.125 137.037C151.276 137.122 151.402 137.243 151.493 137.39L151.51 137.42C151.56 137.499 151.63 137.563 151.712 137.607L166.09 145.122C166.262 145.212 166.444 145.279 166.633 145.321L169.707 146.016L167.475 143.541C167.399 143.457 167.314 143.384 167.219 143.324L153.556 134.473C153.474 134.42 153.379 134.391 153.282 134.391H153.263C153.087 134.391 152.913 134.344 152.76 134.256C152.607 134.169 152.479 134.042 152.39 133.89L152.28 133.7C152.238 133.632 152.181 133.575 152.113 133.533L150.496 132.484L148.519 135.946L150.259 136.856C150.331 136.895 150.411 136.915 150.493 136.913H150.63L150.632 136.906Z" fill="#1B1C21"/>
    <path d="M166.666 145.089C166.626 145.089 166.587 145.08 166.551 145.062C166.493 145.032 166.449 144.98 166.428 144.917C166.408 144.855 166.413 144.787 166.442 144.728L167.264 143.138C167.277 143.107 167.297 143.078 167.322 143.055C167.347 143.031 167.377 143.013 167.409 143.001C167.442 142.989 167.476 142.984 167.511 142.987C167.545 142.989 167.578 142.998 167.609 143.014C167.64 143.03 167.667 143.052 167.688 143.078C167.71 143.105 167.726 143.136 167.736 143.169C167.745 143.202 167.747 143.237 167.743 143.271C167.738 143.305 167.726 143.338 167.708 143.367L166.888 144.957C166.867 144.997 166.835 145.031 166.796 145.054C166.756 145.077 166.712 145.089 166.666 145.089Z" fill="#1B1C21"/>
    <path d="M147.231 130.174L150.487 132.143L148.19 136.054L144.933 134.087C144.648 133.918 144.44 133.643 144.355 133.323C144.27 133.002 144.314 132.661 144.477 132.372L145.528 130.584C145.612 130.444 145.723 130.322 145.854 130.226C145.986 130.13 146.135 130.06 146.294 130.022C146.452 129.984 146.617 129.978 146.778 130.004C146.939 130.03 147.093 130.088 147.231 130.174Z" fill="url(#paint60_linear_989_78500)"/>
    <path d="M148.19 136.305C148.144 136.305 148.1 136.293 148.061 136.27L144.805 134.301C144.463 134.098 144.214 133.769 144.113 133.384C144.011 133 144.065 132.591 144.262 132.245L145.312 130.457C145.41 130.292 145.539 130.147 145.693 130.033C145.847 129.918 146.021 129.835 146.208 129.789C146.401 129.738 146.603 129.727 146.801 129.756C146.999 129.784 147.19 129.852 147.361 129.956L150.616 131.923C150.671 131.957 150.71 132.01 150.726 132.073C150.742 132.135 150.734 132.201 150.703 132.257L148.407 136.168C148.39 136.197 148.367 136.222 148.341 136.242C148.314 136.262 148.284 136.276 148.252 136.285C148.232 136.294 148.211 136.301 148.19 136.305ZM146.575 130.241C146.493 130.241 146.411 130.251 146.331 130.271C146.209 130.302 146.094 130.356 145.993 130.432C145.892 130.507 145.807 130.602 145.743 130.711L144.693 132.499C144.563 132.731 144.529 133.004 144.598 133.261C144.667 133.518 144.834 133.737 145.064 133.872L148.103 135.709L150.145 132.23L147.101 130.393C146.943 130.295 146.761 130.243 146.575 130.241Z" fill="#1B1C21"/>
    <path d="M151.396 136.841C151.351 136.841 151.306 136.828 151.268 136.804C151.24 136.787 151.215 136.765 151.195 136.738C151.176 136.712 151.162 136.682 151.154 136.65C151.146 136.618 151.144 136.585 151.149 136.552C151.154 136.519 151.166 136.488 151.183 136.46L152.29 134.623C152.324 134.566 152.38 134.525 152.444 134.509C152.509 134.493 152.577 134.504 152.634 134.538C152.691 134.572 152.732 134.628 152.748 134.692C152.764 134.757 152.753 134.825 152.719 134.882L151.612 136.719C151.589 136.756 151.558 136.787 151.52 136.808C151.482 136.83 151.44 136.841 151.396 136.841Z" fill="#1B1C21"/>
    <path d="M157.935 138.396C157.888 138.396 157.842 138.383 157.802 138.357L153.725 135.799C153.696 135.782 153.67 135.76 153.649 135.733C153.629 135.706 153.614 135.675 153.605 135.643C153.597 135.61 153.595 135.575 153.601 135.542C153.606 135.508 153.618 135.476 153.636 135.448C153.654 135.419 153.677 135.394 153.705 135.375C153.733 135.355 153.765 135.342 153.798 135.335C153.831 135.328 153.865 135.328 153.898 135.335C153.932 135.342 153.963 135.355 153.991 135.375L158.069 137.933C158.097 137.951 158.121 137.974 158.14 138C158.159 138.027 158.173 138.058 158.18 138.09C158.187 138.122 158.188 138.155 158.183 138.188C158.177 138.22 158.165 138.251 158.147 138.279C158.125 138.315 158.094 138.345 158.057 138.365C158.02 138.386 157.978 138.396 157.935 138.396Z" fill="#1B1C21"/>
    <path d="M166.434 143.668C166.388 143.668 166.342 143.655 166.302 143.631L164.711 142.639C164.682 142.622 164.658 142.599 164.638 142.572C164.619 142.546 164.605 142.515 164.597 142.483C164.589 142.451 164.588 142.418 164.593 142.385C164.598 142.352 164.61 142.321 164.627 142.293C164.645 142.264 164.668 142.24 164.695 142.221C164.722 142.202 164.752 142.188 164.784 142.18C164.817 142.173 164.85 142.172 164.883 142.178C164.915 142.183 164.947 142.195 164.975 142.213L166.568 143.205C166.596 143.222 166.62 143.245 166.639 143.272C166.658 143.299 166.672 143.329 166.68 143.361C166.687 143.393 166.688 143.427 166.683 143.459C166.677 143.492 166.665 143.523 166.648 143.551C166.625 143.587 166.593 143.616 166.556 143.636C166.519 143.657 166.477 143.668 166.434 143.668Z" fill="#1B1C21"/>
    <path d="M147.826 134.735C147.78 134.735 147.734 134.722 147.694 134.698L145.214 133.174C145.184 133.158 145.158 133.135 145.136 133.109C145.115 133.082 145.1 133.051 145.091 133.018C145.082 132.985 145.08 132.951 145.085 132.917C145.09 132.883 145.101 132.851 145.119 132.822C145.137 132.792 145.161 132.767 145.189 132.748C145.217 132.728 145.248 132.714 145.282 132.708C145.315 132.701 145.35 132.701 145.383 132.708C145.417 132.715 145.448 132.728 145.476 132.748L147.956 134.271C148.013 134.305 148.054 134.361 148.069 134.426C148.085 134.49 148.074 134.558 148.04 134.615C148.017 134.651 147.986 134.681 147.948 134.703C147.911 134.724 147.869 134.735 147.826 134.735Z" fill="white"/>
    <path d="M154.256 140.218C154.256 140.218 157.596 139.803 159.715 140.097C161.368 140.326 166.264 139.152 165.241 142.318C165.02 143 164.907 143.454 164.299 144.099C163.965 144.449 163.06 145.176 162.545 145.403C160.041 146.507 157.779 146.969 155.012 145.152C154.481 144.8 153.844 144.643 153.21 144.706C152.848 144.743 154.139 140.246 154.256 140.218Z" fill="white"/>
    <path d="M158.736 146.624C157.501 146.624 156.243 146.26 154.875 145.361C154.391 145.042 153.813 144.899 153.236 144.955C152.825 144.997 151.517 145.042 151.462 145.044C151.429 145.045 151.396 145.04 151.366 145.028C151.335 145.016 151.307 144.999 151.283 144.976C151.259 144.954 151.239 144.927 151.226 144.897C151.212 144.867 151.204 144.835 151.203 144.802C151.202 144.769 151.208 144.736 151.219 144.705C151.231 144.674 151.248 144.646 151.271 144.622C151.293 144.598 151.32 144.579 151.35 144.565C151.38 144.551 151.413 144.544 151.445 144.543C151.459 144.543 152.791 144.496 153.185 144.456C153.876 144.389 154.57 144.56 155.149 144.942C157.766 146.662 159.882 146.305 162.444 145.172C162.915 144.965 163.793 144.271 164.114 143.927C164.64 143.367 164.765 142.973 164.949 142.377L164.992 142.242C165.174 141.682 165.159 141.276 164.954 141.001C164.484 140.373 163.03 140.413 161.746 140.45C160.919 140.471 160.137 140.495 159.63 140.336C157.125 139.561 154.351 140.448 154.323 140.456H154.301C154.186 140.483 153.925 140.485 152.938 140.416C152.906 140.414 152.873 140.406 152.844 140.392C152.815 140.377 152.788 140.357 152.767 140.332C152.745 140.308 152.729 140.279 152.718 140.248C152.708 140.216 152.704 140.184 152.706 140.151C152.711 140.085 152.741 140.023 152.791 139.98C152.841 139.936 152.906 139.913 152.972 139.917C153.375 139.957 153.78 139.974 154.186 139.969C154.453 139.884 157.207 139.054 159.778 139.852C160.206 139.984 160.947 139.964 161.731 139.942C163.137 139.902 164.737 139.857 165.356 140.694C165.662 141.103 165.7 141.674 165.47 142.389L165.426 142.524C165.229 143.137 165.076 143.623 164.471 144.262C164.112 144.643 163.185 145.383 162.634 145.625C161.298 146.228 160.029 146.624 158.736 146.624Z" fill="#1B1C21"/>
    <path d="M102.975 101.874C102.975 101.874 113.245 103.233 116.655 107.385C120.975 112.648 122.834 120.47 123.444 123.85C123.62 124.843 123.599 125.862 123.38 126.846L123.13 127.975C122.699 129.905 121.599 131.62 120.025 132.816C118.451 134.012 116.504 134.612 114.529 134.51H114.735C114.067 134.476 113.113 134.257 112.834 133.66L111.756 131.691L111.654 132.4C110.844 137.639 115.077 144.815 115.077 144.815L102.93 143.175C96.6826 142.573 90.7694 140.073 85.9849 136.011C83.3981 133.795 81.3975 131.722 80.5342 129.206C79.0696 124.932 79.1982 123.715 78.7924 118.53C78.4977 114.997 79.56 111.486 81.7633 108.709C85.0163 104.651 91.282 100.389 102.975 101.874Z" fill="url(#paint61_linear_989_78500)"/>
    <path d="M112.453 133.797C112.406 133.796 112.359 133.783 112.319 133.757C112.279 133.732 112.247 133.696 112.226 133.653L109.35 127.613C109.336 127.583 109.328 127.551 109.327 127.518C109.325 127.485 109.33 127.452 109.341 127.421C109.352 127.39 109.369 127.362 109.391 127.337C109.413 127.313 109.439 127.293 109.469 127.279C109.499 127.265 109.531 127.256 109.564 127.255C109.597 127.253 109.63 127.258 109.661 127.269C109.692 127.28 109.72 127.297 109.745 127.319C109.769 127.341 109.789 127.368 109.803 127.397L112.679 133.437C112.697 133.476 112.705 133.518 112.702 133.56C112.699 133.602 112.686 133.643 112.664 133.678C112.641 133.714 112.61 133.744 112.574 133.764C112.537 133.785 112.495 133.796 112.453 133.797Z" fill="url(#paint62_linear_989_78500)"/>
    <path d="M104.587 81.2969L105.342 80.7959C105.636 80.6002 105.856 80.3111 105.966 79.9751C106.076 79.6391 106.07 79.2758 105.948 78.9439C105.191 76.8966 102.429 73.3296 92.3813 76.0382C82.1345 78.802 83.9464 95.2426 92.6752 98.7495C101.404 102.256 104.365 84.2026 104.365 84.2026L104.587 81.2969Z" fill="#1B1C21"/>
    <path d="M103.326 81.6791C103.353 81.5431 103.42 81.4185 103.52 81.3218C103.619 81.2251 103.745 81.1608 103.882 81.1375C104.019 81.1141 104.159 81.1328 104.285 81.191C104.411 81.2493 104.516 81.3444 104.587 81.4637C105.353 82.8096 105.719 83.7448 105.841 84.3176C106.008 85.0858 105.291 85.8539 105.674 86.6772C106.056 87.5005 106.662 88.434 106.717 89.9169C106.771 91.3648 108.24 98.0028 103.084 97.7924C103.036 97.7899 102.988 97.7972 102.943 97.8139C102.898 97.8306 102.857 97.8563 102.822 97.8895C102.787 97.9226 102.76 97.9625 102.741 98.0067C102.722 98.0509 102.713 98.0984 102.713 98.1464C102.726 99.1568 102.78 101.936 103.005 103.44C103.063 103.837 102.974 104.241 102.756 104.577C102.537 104.913 102.204 105.158 101.818 105.265C99.7538 105.848 95.9095 106.668 93.0339 105.733C92.8565 105.675 92.6927 105.581 92.5522 105.458C92.4117 105.335 92.2973 105.185 92.2158 105.017C92.1343 104.849 92.0875 104.666 92.078 104.48C92.0685 104.293 92.0965 104.107 92.1605 103.931C92.4945 102.988 92.9755 100.334 92.6615 98.7543C93.9206 98.5888 95.1478 98.2353 96.302 97.7056C99.2495 96.3529 100.699 93.0598 99.8857 89.9203C99.7104 89.2523 99.3313 88.2854 99.7187 87.2684C100.737 84.6449 102.26 87.2818 102.26 87.2818L103.326 81.6791Z" fill="white"/>
    <path d="M96.0708 106.411C95.0175 106.429 93.9679 106.282 92.9597 105.977C92.7513 105.91 92.5587 105.801 92.3934 105.658C92.228 105.514 92.0935 105.339 91.9978 105.142C91.8995 104.943 91.8426 104.726 91.8305 104.505C91.8185 104.283 91.8515 104.061 91.9277 103.853C92.2617 102.946 92.7242 100.346 92.4287 98.8095L92.3769 98.539L92.6508 98.5123C93.8819 98.3473 95.0817 98.0006 96.2111 97.4836C99.0016 96.2027 100.451 93.0515 99.6562 89.9888C99.6345 89.9003 99.6078 89.8051 99.5794 89.7066C99.3907 89.0386 99.1352 88.1419 99.5059 87.185C99.8399 86.35 100.257 85.9041 100.773 85.8657C101.333 85.824 101.829 86.2732 102.144 86.6573L103.085 81.6307C103.12 81.4426 103.213 81.2699 103.349 81.136C103.486 81.0021 103.661 80.9134 103.85 80.8819C104.038 80.8504 104.232 80.8776 104.405 80.9599C104.578 81.0421 104.722 81.1754 104.816 81.3418C105.685 82.8648 105.985 83.7733 106.099 84.2659C106.184 84.6667 106.075 85.0441 105.969 85.4098C105.852 85.8156 105.741 86.1981 105.915 86.5788C105.979 86.7141 106.049 86.8527 106.119 86.9963C106.483 87.721 106.934 88.6245 106.982 89.9137C106.982 90.0807 107.017 90.3546 107.052 90.6635C107.233 92.3117 107.572 95.3811 106.05 97.0093C105.359 97.7508 104.36 98.1014 103.085 98.0497C103.07 98.0492 103.056 98.0516 103.042 98.0568C103.029 98.062 103.017 98.0698 103.006 98.0797C102.997 98.0888 102.989 98.0997 102.984 98.1118C102.979 98.1238 102.976 98.1368 102.976 98.1499C102.989 99.242 103.046 101.939 103.265 103.41C103.331 103.867 103.229 104.332 102.977 104.718C102.726 105.105 102.343 105.387 101.899 105.513C100.505 105.903 98.2802 106.411 96.0708 106.411ZM92.9564 98.9748C93.1868 100.631 92.7326 103.095 92.3986 104.021C92.3461 104.165 92.323 104.318 92.3307 104.471C92.3384 104.624 92.3767 104.774 92.4433 104.912C92.51 105.05 92.6036 105.173 92.7187 105.274C92.8338 105.376 92.968 105.453 93.1134 105.501C95.9322 106.416 99.7364 105.598 101.752 105.028C102.078 104.936 102.36 104.729 102.544 104.444C102.729 104.159 102.803 103.817 102.754 103.482C102.53 101.979 102.475 99.2554 102.46 98.1549C102.459 98.0737 102.475 97.9931 102.506 97.9182C102.537 97.8432 102.584 97.7754 102.642 97.719C102.702 97.6622 102.772 97.6181 102.85 97.5894C102.927 97.5607 103.009 97.548 103.091 97.552C104.215 97.5971 105.082 97.3015 105.67 96.6703C107.032 95.2108 106.71 92.29 106.538 90.7219C106.501 90.388 106.471 90.1274 106.465 89.9354C106.421 88.7547 106.014 87.9415 105.655 87.2234C105.581 87.0748 105.509 86.9328 105.444 86.7942C105.19 86.2481 105.339 85.7338 105.471 85.2796C105.563 84.9589 105.651 84.6567 105.591 84.3795C105.511 84.0037 105.246 83.1437 104.364 81.5973C104.32 81.5204 104.253 81.4587 104.173 81.4207C104.093 81.3827 104.003 81.3701 103.916 81.3846C103.828 81.3992 103.747 81.4402 103.684 81.5021C103.62 81.564 103.577 81.6439 103.561 81.7309L102.392 88.0016L102.058 87.4171C101.891 87.1332 101.303 86.33 100.803 86.3684C100.421 86.3984 100.135 86.9295 99.9685 87.3704C99.6579 88.1719 99.8783 88.9501 100.055 89.5747C100.085 89.6782 100.112 89.7768 100.137 89.8686C100.992 93.1668 99.4274 96.5618 96.4149 97.9445C95.3165 98.4435 94.1552 98.7901 92.9631 98.9748H92.9564Z" fill="#1B1C21"/>
    <path d="M88.2525 79.3662C88.2525 79.3662 83.2109 76.9548 79.5454 80.3983C75.8799 83.8417 72.3262 91.3982 77.8253 99.6478C81.2821 104.833 82.6114 108.931 83.1224 111.262C83.1602 111.436 83.2482 111.594 83.3755 111.718C83.5027 111.842 83.6636 111.926 83.838 111.959C84.0124 111.992 84.1928 111.973 84.3565 111.904C84.5203 111.836 84.6602 111.72 84.759 111.573C86.9733 108.25 91.0113 100.92 89.0558 94.0384C86.4206 84.7518 88.2525 79.3662 88.2525 79.3662Z" fill="#1B1C21"/>
    <path d="M106.869 89.3209L106.611 88.8917C108.15 87.9682 107.228 85.3848 106.898 84.5866L102.295 86.9362L102.068 86.4903L107.135 83.9036L107.245 84.134C107.322 84.291 109.077 87.9966 106.869 89.3209Z" fill="#1B1C21"/>
    <path d="M106.873 91.2763C106.824 91.2746 106.776 91.2586 106.736 91.2303C106.696 91.2019 106.666 91.1624 106.648 91.1168C106.63 91.0711 106.626 91.0212 106.636 90.9732C106.647 90.9253 106.671 90.8814 106.706 90.8471L107.366 90.1942C107.449 90.1124 107.5 90.0037 107.509 89.8876C107.519 89.7715 107.487 89.6557 107.419 89.5612L106.965 88.9283C106.946 88.9016 106.932 88.8713 106.924 88.8392C106.917 88.8072 106.916 88.774 106.921 88.7415C106.926 88.709 106.938 88.6779 106.956 88.6499C106.973 88.6219 106.996 88.5977 107.022 88.5785C107.049 88.5593 107.079 88.5456 107.111 88.5381C107.144 88.5306 107.177 88.5295 107.209 88.5348C107.242 88.5402 107.273 88.5519 107.301 88.5692C107.329 88.5866 107.353 88.6093 107.372 88.6361L107.826 89.269C107.964 89.4604 108.029 89.6946 108.009 89.9295C107.989 90.1643 107.886 90.3843 107.718 90.5498L107.05 91.2045C107.003 91.2505 106.939 91.2763 106.873 91.2763Z" fill="#1B1C21"/>
    <path d="M101.563 91.8508C101.442 91.8508 101.321 91.8356 101.204 91.8057C100.608 91.6588 100.099 91.1545 99.6912 90.3111C99.6768 90.2815 99.6684 90.2494 99.6665 90.2165C99.6645 90.1837 99.6691 90.1508 99.6798 90.1197C99.6906 90.0886 99.7074 90.0599 99.7293 90.0353C99.7511 90.0107 99.7776 89.9907 99.8072 89.9763C99.8368 89.9619 99.869 89.9535 99.9018 89.9516C99.9347 89.9497 99.9676 89.9542 99.9987 89.965C100.03 89.9758 100.058 89.9926 100.083 90.0144C100.108 90.0363 100.128 90.0628 100.142 90.0924C100.476 90.7937 100.875 91.2062 101.311 91.3181C101.454 91.3529 101.604 91.3576 101.749 91.332C101.894 91.3064 102.033 91.2511 102.156 91.1695C102.21 91.1303 102.277 91.1141 102.343 91.1244C102.409 91.1347 102.467 91.1708 102.507 91.2246C102.546 91.2784 102.562 91.3456 102.552 91.4114C102.541 91.4771 102.505 91.5361 102.452 91.5753C102.189 91.7517 101.88 91.8474 101.563 91.8508Z" fill="#1B1C21"/>
    <path d="M86.9883 78.9122C86.9883 78.9122 91.6725 80.3233 89.7554 84.8155C89.7554 84.8155 91.9263 83.2541 91.8645 80.8076C91.8028 78.3611 90.0009 77.5762 88.7952 77.603C87.5895 77.6297 86.9883 78.9122 86.9883 78.9122Z" fill="white"/>
    <path d="M89.17 85.5468L89.5241 84.7118C90.0584 83.4577 90.1069 82.3405 89.6643 81.3937C88.9062 79.7655 86.934 79.1509 86.9139 79.1459L86.6367 79.0607L86.7603 78.7986C86.787 78.7401 87.445 77.3841 88.7893 77.3541C89.564 77.34 90.3187 77.6002 90.9201 78.0888C91.4462 78.5213 92.0808 79.343 92.1142 80.8042C92.1709 83.3442 89.9933 84.9456 89.8998 85.0124L89.17 85.5468ZM87.3565 78.7785C87.986 79.029 89.4422 79.7404 90.1169 81.1849C90.5043 82.0199 90.5694 82.94 90.3123 83.9537C90.9034 83.3024 91.6482 82.2052 91.6132 80.8225C91.5898 79.8206 91.2408 79.0073 90.6012 78.4846C90.0911 78.0753 89.4549 77.8558 88.801 77.8634C88.0712 77.8784 87.5819 78.4445 87.3565 78.7785Z" fill="#1B1C21"/>
    <path d="M78.0528 117.321C81.9204 119.659 89.7825 122.989 102.434 122.216C102.887 122.187 103.337 122.304 103.719 122.551C104.1 122.797 104.393 123.159 104.553 123.583L105.343 126.743C106.731 132.298 109.341 137.474 112.983 141.893L114.873 144.187C114.938 144.266 114.978 144.361 114.989 144.463C115 144.564 114.981 144.666 114.934 144.756C114.887 144.847 114.815 144.921 114.726 144.971C114.637 145.021 114.536 145.043 114.434 145.035L106.085 144.423C91.763 142.527 80.6362 135.345 77.0675 122.259L76.1156 118.769C76.0457 118.517 76.0535 118.25 76.138 118.002C76.2225 117.755 76.3797 117.539 76.5891 117.382C76.7985 117.226 77.0502 117.136 77.3114 117.125C77.5726 117.114 77.831 117.183 78.0528 117.321Z" fill="white"/>
    <path d="M114.586 145.296H114.529L112.558 145.152C112.492 145.147 112.43 145.116 112.387 145.066C112.343 145.016 112.321 144.95 112.326 144.883C112.331 144.817 112.362 144.755 112.413 144.712C112.463 144.668 112.529 144.647 112.595 144.651L114.566 144.797C114.61 144.801 114.654 144.792 114.692 144.77C114.731 144.749 114.762 144.716 114.781 144.676C114.801 144.638 114.81 144.594 114.805 144.55C114.8 144.507 114.783 144.466 114.754 144.433L112.796 142.056C109.136 137.604 106.509 132.397 105.104 126.808L104.319 123.662C104.176 123.29 103.918 122.974 103.582 122.759C103.246 122.545 102.851 122.443 102.454 122.469C89.5182 123.259 81.5325 119.719 77.9254 117.538C77.7457 117.427 77.5366 117.373 77.3257 117.384C77.1148 117.395 76.9122 117.47 76.7447 117.598C76.5765 117.722 76.45 117.894 76.3823 118.092C76.3145 118.289 76.3087 118.503 76.3657 118.704L77.3175 122.194C80.4721 133.763 90.0091 141.463 104.152 143.877C104.185 143.882 104.216 143.894 104.245 143.912C104.273 143.929 104.297 143.952 104.317 143.979C104.336 144.007 104.35 144.037 104.358 144.07C104.365 144.102 104.366 144.136 104.361 144.169C104.355 144.202 104.343 144.233 104.326 144.261C104.308 144.29 104.285 144.314 104.258 144.334C104.231 144.353 104.2 144.367 104.167 144.374C104.135 144.382 104.101 144.383 104.068 144.378C97.1398 143.197 91.2983 140.789 86.701 137.222C81.8097 133.423 78.4882 128.413 76.8299 122.333L75.878 118.842C75.7971 118.543 75.8077 118.227 75.9083 117.934C76.009 117.642 76.1951 117.386 76.4427 117.2C76.6903 117.014 76.988 116.906 77.2972 116.891C77.6065 116.876 77.9131 116.955 78.1776 117.116C81.7362 119.265 89.6167 122.757 102.417 121.975C102.924 121.941 103.428 122.071 103.855 122.347C104.282 122.623 104.609 123.029 104.787 123.505C104.787 123.505 104.787 123.522 104.787 123.532L105.575 126.691C106.962 132.208 109.555 137.348 113.166 141.742L115.127 144.119C115.213 144.225 115.268 144.353 115.285 144.489C115.302 144.625 115.28 144.762 115.222 144.886C115.164 145.01 115.072 145.115 114.956 145.189C114.841 145.263 114.708 145.303 114.571 145.304L114.586 145.296Z" fill="#1B1C21"/>
    <path d="M156.768 28.3093H184.244C185.799 28.3093 186.989 29.5751 186.989 31.1299V39.0805C186.996 39.4457 186.93 39.8087 186.795 40.1483C186.661 40.4878 186.46 40.7972 186.204 41.0583C185.949 41.3194 185.644 41.527 185.307 41.6691C184.971 41.8112 184.609 41.885 184.244 41.886H183.242V47.1964L179.635 41.886H156.768C155.213 41.886 153.881 40.6302 153.881 39.0738V31.1299C153.881 29.5751 155.213 28.3093 156.768 28.3093Z" fill="white"/>
    <path d="M183.251 47.4536C183.21 47.4537 183.169 47.4437 183.133 47.4244C183.097 47.4052 183.066 47.3774 183.044 47.3434L179.503 42.1432H156.769C155.069 42.1432 153.631 40.7404 153.631 39.0805V31.1299C153.631 29.4599 155.069 28.0588 156.769 28.0588H184.244C185.924 28.0588 187.24 29.4082 187.24 31.1299V39.0805C187.248 39.4791 187.176 39.8753 187.029 40.2459C186.882 40.6165 186.662 40.9542 186.384 41.2392C186.105 41.5243 185.772 41.751 185.405 41.9062C185.038 42.0613 184.643 42.1419 184.244 42.1432H183.501V47.2031C183.501 47.2567 183.484 47.3088 183.452 47.3519C183.42 47.3949 183.375 47.4265 183.324 47.4419C183.301 47.4499 183.276 47.4538 183.251 47.4536ZM156.769 28.5598C155.339 28.5598 154.132 29.7371 154.132 31.1299V39.0805C154.132 40.4699 155.339 41.6422 156.769 41.6422H179.635C179.676 41.6423 179.716 41.6524 179.753 41.6716C179.789 41.6908 179.819 41.7185 179.842 41.7524L183 46.3949V41.886C183 41.8196 183.027 41.7559 183.074 41.7089C183.121 41.6619 183.184 41.6355 183.251 41.6355H184.253C184.586 41.6343 184.915 41.5667 185.221 41.4366C185.528 41.3066 185.806 41.1168 186.038 40.8783C186.27 40.6398 186.453 40.3574 186.574 40.0475C186.696 39.7377 186.755 39.4067 186.748 39.0738V31.1299C186.748 29.6887 185.65 28.5598 184.253 28.5598H156.769Z" fill="#1B1C21"/>
    <path d="M167.084 37.155C167.049 37.155 167.014 37.1476 166.982 37.1333L163.201 35.4166C163.158 35.3966 163.12 35.3646 163.094 35.3241C163.068 35.2837 163.055 35.2367 163.055 35.1886C163.055 35.1406 163.068 35.0935 163.094 35.0531C163.12 35.0127 163.158 34.9806 163.201 34.9607L166.985 33.2339C167.015 33.2202 167.048 33.2126 167.081 33.2114C167.114 33.2101 167.146 33.2154 167.177 33.2269C167.208 33.2384 167.236 33.2558 167.26 33.2782C167.285 33.3006 167.304 33.3276 167.318 33.3575C167.331 33.3875 167.339 33.4198 167.34 33.4527C167.342 33.4856 167.336 33.5184 167.325 33.5493C167.313 33.5801 167.296 33.6084 167.273 33.6325C167.251 33.6567 167.224 33.6761 167.194 33.6898L163.911 35.1928L167.192 36.6807C167.245 36.7041 167.288 36.7449 167.314 36.7962C167.34 36.8475 167.347 36.9062 167.335 36.9624C167.323 37.0186 167.292 37.0689 167.247 37.1049C167.202 37.1409 167.146 37.1603 167.089 37.16L167.084 37.155Z" fill="#1B1C21"/>
    <path d="M172.506 37.1551C172.448 37.1555 172.393 37.136 172.348 37.1C172.303 37.0641 172.272 37.0137 172.26 36.9575C172.247 36.9013 172.255 36.8426 172.281 36.7913C172.307 36.74 172.35 36.6992 172.402 36.6758L175.686 35.1879L172.402 33.685C172.342 33.6573 172.295 33.6067 172.272 33.5444C172.249 33.4821 172.251 33.4131 172.279 33.3526C172.307 33.2922 172.357 33.2452 172.419 33.222C172.482 33.1988 172.551 33.2014 172.611 33.2291L176.395 34.9608C176.439 34.9807 176.476 35.0128 176.502 35.0532C176.528 35.0936 176.542 35.1407 176.542 35.1887C176.542 35.2368 176.528 35.2838 176.502 35.3243C176.476 35.3647 176.439 35.3968 176.395 35.4167L172.611 37.1334C172.578 37.1482 172.542 37.1556 172.506 37.1551Z" fill="#1B1C21"/>
    <path d="M168.221 39.1689C168.191 39.1692 168.161 39.1635 168.133 39.1522C168.102 39.1407 168.074 39.1233 168.05 39.1008C168.026 39.0783 168.006 39.0513 167.993 39.0214C167.979 38.9914 167.972 38.9591 167.971 38.9262C167.97 38.8933 167.975 38.8606 167.987 38.8299L170.933 31.1231C170.944 31.0911 170.961 31.0616 170.983 31.0364C171.006 31.0112 171.033 30.9907 171.064 30.9763C171.094 30.9619 171.127 30.9539 171.161 30.9526C171.195 30.9513 171.228 30.9568 171.26 30.9689C171.291 30.9809 171.32 30.9992 171.344 31.0227C171.369 31.0461 171.388 31.0743 171.401 31.1054C171.414 31.1365 171.421 31.1699 171.421 31.2036C171.421 31.2374 171.414 31.2708 171.401 31.3018L168.455 39.0086C168.437 39.056 168.405 39.0967 168.363 39.1253C168.321 39.154 168.272 39.1692 168.221 39.1689Z" fill="#1B1C21"/>
    <path d="M162.817 132.115C162.759 132.115 162.704 132.095 162.659 132.059C162.615 132.023 162.584 131.973 162.572 131.916C162.56 131.86 162.568 131.802 162.594 131.751C162.62 131.7 162.662 131.659 162.715 131.636C171.32 127.823 179.124 121.648 185.284 113.767C185.304 113.74 185.329 113.717 185.358 113.7C185.387 113.683 185.419 113.672 185.452 113.668C185.485 113.663 185.519 113.665 185.551 113.674C185.584 113.683 185.614 113.698 185.64 113.719C185.667 113.739 185.689 113.765 185.705 113.794C185.721 113.824 185.731 113.856 185.735 113.889C185.739 113.923 185.735 113.956 185.726 113.988C185.716 114.021 185.7 114.05 185.678 114.076C179.468 122.013 171.597 128.241 162.919 132.085C162.887 132.102 162.852 132.112 162.817 132.115Z" fill="#1B1C21"/>
    <path d="M161.989 136.517C161.938 136.516 161.888 136.499 161.846 136.47C161.804 136.44 161.773 136.398 161.755 136.35C161.743 136.319 161.738 136.286 161.738 136.254C161.739 136.221 161.746 136.188 161.76 136.158C161.773 136.128 161.792 136.101 161.816 136.078C161.84 136.056 161.868 136.038 161.899 136.026C170.177 132.815 177.596 127.723 183.942 120.891C183.962 120.862 183.989 120.837 184.019 120.819C184.05 120.8 184.084 120.789 184.12 120.785C184.155 120.781 184.191 120.784 184.225 120.795C184.259 120.806 184.29 120.824 184.317 120.848C184.343 120.872 184.364 120.902 184.378 120.934C184.392 120.967 184.399 121.003 184.399 121.038C184.398 121.074 184.39 121.109 184.374 121.141C184.359 121.174 184.337 121.202 184.309 121.225C177.909 128.112 170.429 133.249 162.081 136.485C162.052 136.501 162.021 136.512 161.989 136.517Z" fill="#1B1C21"/>
    <path d="M125.46 15.3122C125.395 15.3181 125.329 15.2981 125.278 15.2564C125.227 15.2148 125.195 15.1549 125.187 15.0894C125.18 15.024 125.198 14.9582 125.239 14.9062C125.279 14.8542 125.338 14.8201 125.404 14.8112C134.044 12.8206 142.604 12.6853 150.842 14.4154C150.876 14.4201 150.909 14.4317 150.938 14.4495C150.967 14.4674 150.993 14.491 151.013 14.5191C151.032 14.5472 151.046 14.579 151.053 14.6126C151.06 14.6463 151.06 14.681 151.053 14.7146C151.046 14.7483 151.032 14.7801 151.012 14.8081C150.993 14.8362 150.967 14.8599 150.938 14.8777C150.909 14.8955 150.876 14.9071 150.842 14.9118C150.808 14.9164 150.773 14.914 150.74 14.9047C142.571 13.1913 134.084 13.3249 125.515 15.3005C125.497 15.306 125.479 15.3099 125.46 15.3122Z" fill="#1B1C21"/>
    <path d="M154.037 11.8268C154.016 11.8273 153.994 11.8245 153.974 11.8185C146.933 9.9932 139.565 9.53229 132.072 10.4474C132.006 10.4556 131.939 10.4371 131.886 10.3959C131.833 10.3547 131.799 10.2943 131.791 10.2278C131.783 10.1614 131.801 10.0944 131.842 10.0417C131.884 9.98888 131.944 9.95463 132.011 9.94644C139.567 9.02296 146.998 9.48887 154.099 11.3308C154.165 11.339 154.226 11.3733 154.267 11.426C154.308 11.4788 154.327 11.5458 154.319 11.6122C154.31 11.6786 154.276 11.7391 154.223 11.7803C154.171 11.8215 154.104 11.84 154.037 11.8318V11.8268Z" fill="#1B1C21"/>
    <path d="M158.768 133.506C159.385 133.506 159.885 133.007 159.885 132.39C159.885 131.774 159.385 131.275 158.768 131.275C158.151 131.275 157.65 131.774 157.65 132.39C157.65 133.007 158.151 133.506 158.768 133.506Z" fill="url(#paint63_linear_989_78500)"/>
    <path d="M81.0413 67.2409C80.9922 67.2408 80.9442 67.2264 80.9032 67.1993C80.8623 67.1721 80.8302 67.1336 80.811 67.0884C80.7918 67.0432 80.7863 66.9933 80.7952 66.945C80.804 66.8967 80.8269 66.8521 80.861 66.8167L81.4755 66.1754C81.5221 66.1299 81.5846 66.1043 81.6497 66.104C81.7149 66.1037 81.7775 66.1289 81.8245 66.1741C81.8714 66.2192 81.8989 66.2809 81.9011 66.346C81.9032 66.4111 81.88 66.4745 81.8362 66.5228L81.2217 67.1641C81.1985 67.1885 81.1705 67.2079 81.1395 67.2211C81.1084 67.2343 81.0751 67.241 81.0413 67.2409Z" fill="#1B1C21"/>
    <path d="M78.8955 69.4851C78.8464 69.4856 78.7983 69.4715 78.7571 69.4446C78.716 69.4177 78.6838 69.3792 78.6645 69.334C78.6452 69.2888 78.6397 69.239 78.6488 69.1907C78.6578 69.1424 78.6809 69.0978 78.7152 69.0626L79.3297 68.4214C79.3517 68.3948 79.3788 68.373 79.4096 68.3574C79.4403 68.3418 79.4739 68.3328 79.5083 68.3307C79.5427 68.3287 79.5771 68.3338 79.6095 68.3458C79.6418 68.3577 79.6714 68.3761 79.6962 68.4C79.7211 68.4238 79.7408 68.4525 79.7541 68.4843C79.7674 68.5161 79.7739 68.5503 79.7734 68.5848C79.7728 68.6192 79.7652 68.6532 79.7509 68.6846C79.7366 68.7159 79.7161 68.744 79.6904 68.7671L79.0759 69.4083C79.0528 69.4329 79.0248 69.4524 78.9938 69.4657C78.9627 69.4789 78.9293 69.4855 78.8955 69.4851Z" fill="#1B1C21"/>
    <path d="M79.4991 67.2693C79.4362 67.2668 79.3765 67.2406 79.3321 67.1958L78.7076 66.5829C78.6602 66.5362 78.6333 66.4726 78.6328 66.406C78.6323 66.3395 78.6583 66.2755 78.7051 66.2281C78.7518 66.1807 78.8154 66.1538 78.882 66.1533C78.9485 66.1529 79.0125 66.1788 79.0599 66.2256L79.6828 66.8401C79.7297 66.8871 79.7561 66.9507 79.7561 67.0171C79.7561 67.0835 79.7297 67.1472 79.6828 67.1941C79.6591 67.2187 79.6305 67.238 79.5988 67.251C79.5672 67.2639 79.5333 67.2701 79.4991 67.2693Z" fill="#1B1C21"/>
    <path d="M81.6816 69.4235C81.6189 69.4217 81.5592 69.396 81.5147 69.3517L80.8918 68.7388C80.867 68.7161 80.847 68.6887 80.8331 68.6581C80.8192 68.6275 80.8115 68.5944 80.8106 68.5608C80.8097 68.5272 80.8156 68.4938 80.8279 68.4625C80.8402 68.4312 80.8587 68.4027 80.8822 68.3788C80.9058 68.3548 80.9339 68.3358 80.965 68.3229C80.996 68.31 81.0293 68.3035 81.0629 68.3037C81.0966 68.304 81.1298 68.311 81.1606 68.3243C81.1914 68.3377 81.2193 68.3571 81.2425 68.3815L81.867 68.996C81.902 69.0311 81.9258 69.0757 81.9355 69.1242C81.9451 69.1728 81.9402 69.2231 81.9212 69.2689C81.9023 69.3146 81.8702 69.3537 81.8291 69.3812C81.7879 69.4088 81.7395 69.4235 81.69 69.4235H81.6816Z" fill="#1B1C21"/>
    <path d="M157.423 14.9146C157.209 14.9141 156.998 14.8739 156.8 14.7961C156.583 14.7119 156.385 14.585 156.217 14.4229C156.05 14.2609 155.917 14.0669 155.826 13.8525C155.64 13.4236 155.628 12.9387 155.795 12.5017C155.962 12.0646 156.293 11.7103 156.718 11.5146C156.925 11.4207 157.15 11.3692 157.377 11.3631C157.605 11.3571 157.832 11.3967 158.044 11.4796C158.261 11.5641 158.46 11.6913 158.627 11.8536C158.795 12.0159 158.928 12.2101 159.019 12.4247C159.206 12.8538 159.217 13.3391 159.05 13.7763C158.883 14.2134 158.551 14.5676 158.126 14.7627C157.905 14.8629 157.665 14.9148 157.423 14.9146ZM157.423 11.867C157.25 11.8672 157.079 11.9042 156.922 11.9755C156.617 12.1165 156.38 12.371 156.261 12.6847C156.141 12.9983 156.15 13.3462 156.284 13.6538C156.349 13.8071 156.445 13.9458 156.564 14.0619C156.684 14.178 156.825 14.2692 156.98 14.3302C157.131 14.389 157.291 14.4171 157.453 14.4128C157.614 14.4085 157.773 14.3719 157.92 14.3051C158.225 14.1639 158.462 13.9089 158.581 13.5949C158.7 13.2809 158.691 12.9327 158.557 12.6251C158.491 12.4732 158.396 12.3359 158.276 12.2212C158.157 12.1066 158.016 12.0168 157.862 11.9572C157.722 11.9004 157.573 11.8699 157.423 11.867Z" fill="#1B1C21"/>
  </g>
  <defs>
    <linearGradient id="paint0_linear_989_78500" x1="120.801" y1="109.348" x2="155.432" y2="87.3939" gradientUnits="userSpaceOnUse">
      <stop offset="0.15" stop-color="#EF6129"/>
      <stop offset="0.2" stop-color="#F06032"/>
      <stop offset="0.55" stop-color="#F85D6A"/>
      <stop offset="0.81" stop-color="#FD5B8C"/>
      <stop offset="0.96" stop-color="#FF5A99"/>
    </linearGradient>
    <linearGradient id="paint1_linear_989_78500" x1="76.6879" y1="78.7596" x2="162.182" y2="7.76933" gradientUnits="userSpaceOnUse">
      <stop offset="0.15" stop-color="#EF6129"/>
      <stop offset="0.2" stop-color="#F06032"/>
      <stop offset="0.55" stop-color="#F85D6A"/>
      <stop offset="0.81" stop-color="#FD5B8C"/>
      <stop offset="0.96" stop-color="#FF5A99"/>
    </linearGradient>
    <linearGradient id="paint2_linear_989_78500" x1="73.2754" y1="78.7873" x2="158.285" y2="7.94508" gradientUnits="userSpaceOnUse">
      <stop offset="0.15" stop-color="#EF6129"/>
      <stop offset="0.2" stop-color="#F06032"/>
      <stop offset="0.55" stop-color="#F85D6A"/>
      <stop offset="0.81" stop-color="#FD5B8C"/>
      <stop offset="0.96" stop-color="#FF5A99"/>
    </linearGradient>
    <linearGradient id="paint3_linear_989_78500" x1="144.278" y1="30.7553" x2="144.756" y2="25.8959" gradientUnits="userSpaceOnUse">
      <stop offset="0.15" stop-color="#EF6129"/>
      <stop offset="0.2" stop-color="#F06032"/>
      <stop offset="0.55" stop-color="#F85D6A"/>
      <stop offset="0.81" stop-color="#FD5B8C"/>
      <stop offset="0.96" stop-color="#FF5A99"/>
    </linearGradient>
    <linearGradient id="paint4_linear_989_78500" x1="152.611" y1="34.2826" x2="153.08" y2="29.4251" gradientUnits="userSpaceOnUse">
      <stop offset="0.15" stop-color="#EF6129"/>
      <stop offset="0.2" stop-color="#F06032"/>
      <stop offset="0.55" stop-color="#F85D6A"/>
      <stop offset="0.81" stop-color="#FD5B8C"/>
      <stop offset="0.96" stop-color="#FF5A99"/>
    </linearGradient>
    <linearGradient id="paint5_linear_989_78500" x1="169.801" y1="37.8107" x2="170.681" y2="33.0678" gradientUnits="userSpaceOnUse">
      <stop offset="0.15" stop-color="#EF6129"/>
      <stop offset="0.2" stop-color="#F06032"/>
      <stop offset="0.55" stop-color="#F85D6A"/>
      <stop offset="0.81" stop-color="#FD5B8C"/>
      <stop offset="0.96" stop-color="#FF5A99"/>
    </linearGradient>
    <linearGradient id="paint6_linear_989_78500" x1="140.483" y1="58.9792" x2="140.961" y2="54.1197" gradientUnits="userSpaceOnUse">
      <stop offset="0.15" stop-color="#EF6129"/>
      <stop offset="0.2" stop-color="#F06032"/>
      <stop offset="0.55" stop-color="#F85D6A"/>
      <stop offset="0.81" stop-color="#FD5B8C"/>
      <stop offset="0.96" stop-color="#FF5A99"/>
    </linearGradient>
    <linearGradient id="paint7_linear_989_78500" x1="148.816" y1="62.5064" x2="149.285" y2="57.649" gradientUnits="userSpaceOnUse">
      <stop offset="0.15" stop-color="#EF6129"/>
      <stop offset="0.2" stop-color="#F06032"/>
      <stop offset="0.55" stop-color="#F85D6A"/>
      <stop offset="0.81" stop-color="#FD5B8C"/>
      <stop offset="0.96" stop-color="#FF5A99"/>
    </linearGradient>
    <linearGradient id="paint8_linear_989_78500" x1="165.532" y1="66.035" x2="166.255" y2="61.2414" gradientUnits="userSpaceOnUse">
      <stop offset="0.15" stop-color="#EF6129"/>
      <stop offset="0.2" stop-color="#F06032"/>
      <stop offset="0.55" stop-color="#F85D6A"/>
      <stop offset="0.81" stop-color="#FD5B8C"/>
      <stop offset="0.96" stop-color="#FF5A99"/>
    </linearGradient>
    <linearGradient id="paint9_linear_989_78500" x1="149.319" y1="69.4162" x2="150.092" y2="64.6347" gradientUnits="userSpaceOnUse">
      <stop offset="0.15" stop-color="#EF6129"/>
      <stop offset="0.2" stop-color="#F06032"/>
      <stop offset="0.55" stop-color="#F85D6A"/>
      <stop offset="0.81" stop-color="#FD5B8C"/>
      <stop offset="0.96" stop-color="#FF5A99"/>
    </linearGradient>
    <linearGradient id="paint10_linear_989_78500" x1="142.854" y1="41.338" x2="143.331" y2="36.4822" gradientUnits="userSpaceOnUse">
      <stop offset="0.15" stop-color="#EF6129"/>
      <stop offset="0.2" stop-color="#F06032"/>
      <stop offset="0.55" stop-color="#F85D6A"/>
      <stop offset="0.81" stop-color="#FD5B8C"/>
      <stop offset="0.96" stop-color="#FF5A99"/>
    </linearGradient>
    <linearGradient id="paint11_linear_989_78500" x1="151.188" y1="44.8668" x2="151.656" y2="40.0094" gradientUnits="userSpaceOnUse">
      <stop offset="0.15" stop-color="#EF6129"/>
      <stop offset="0.2" stop-color="#F06032"/>
      <stop offset="0.55" stop-color="#F85D6A"/>
      <stop offset="0.81" stop-color="#FD5B8C"/>
      <stop offset="0.96" stop-color="#FF5A99"/>
    </linearGradient>
    <linearGradient id="paint12_linear_989_78500" x1="168.378" y1="51.9235" x2="169.497" y2="47.2869" gradientUnits="userSpaceOnUse">
      <stop offset="0.15" stop-color="#EF6129"/>
      <stop offset="0.2" stop-color="#F06032"/>
      <stop offset="0.55" stop-color="#F85D6A"/>
      <stop offset="0.81" stop-color="#FD5B8C"/>
      <stop offset="0.96" stop-color="#FF5A99"/>
    </linearGradient>
    <linearGradient id="paint13_linear_989_78500" x1="173.056" y1="55.4476" x2="174.173" y2="50.8142" gradientUnits="userSpaceOnUse">
      <stop offset="0.15" stop-color="#EF6129"/>
      <stop offset="0.2" stop-color="#F06032"/>
      <stop offset="0.55" stop-color="#F85D6A"/>
      <stop offset="0.81" stop-color="#FD5B8C"/>
      <stop offset="0.96" stop-color="#FF5A99"/>
    </linearGradient>
    <linearGradient id="paint14_linear_989_78500" x1="167.905" y1="48.395" x2="168.629" y2="43.5977" gradientUnits="userSpaceOnUse">
      <stop offset="0.15" stop-color="#EF6129"/>
      <stop offset="0.2" stop-color="#F06032"/>
      <stop offset="0.55" stop-color="#F85D6A"/>
      <stop offset="0.81" stop-color="#FD5B8C"/>
      <stop offset="0.96" stop-color="#FF5A99"/>
    </linearGradient>
    <linearGradient id="paint15_linear_989_78500" x1="138.586" y1="73.0904" x2="139.064" y2="68.2347" gradientUnits="userSpaceOnUse">
      <stop offset="0.15" stop-color="#EF6129"/>
      <stop offset="0.2" stop-color="#F06032"/>
      <stop offset="0.55" stop-color="#F85D6A"/>
      <stop offset="0.81" stop-color="#FD5B8C"/>
      <stop offset="0.96" stop-color="#FF5A99"/>
    </linearGradient>
    <linearGradient id="paint16_linear_989_78500" x1="147.046" y1="76.619" x2="147.53" y2="71.7646" gradientUnits="userSpaceOnUse">
      <stop offset="0.15" stop-color="#EF6129"/>
      <stop offset="0.2" stop-color="#F06032"/>
      <stop offset="0.55" stop-color="#F85D6A"/>
      <stop offset="0.81" stop-color="#FD5B8C"/>
      <stop offset="0.96" stop-color="#FF5A99"/>
    </linearGradient>
    <linearGradient id="paint17_linear_989_78500" x1="163.636" y1="80.1474" x2="164.36" y2="75.3502" gradientUnits="userSpaceOnUse">
      <stop offset="0.15" stop-color="#EF6129"/>
      <stop offset="0.2" stop-color="#F06032"/>
      <stop offset="0.55" stop-color="#F85D6A"/>
      <stop offset="0.81" stop-color="#FD5B8C"/>
      <stop offset="0.96" stop-color="#FF5A99"/>
    </linearGradient>
    <linearGradient id="paint18_linear_989_78500" x1="137.163" y1="83.6746" x2="137.64" y2="78.8189" gradientUnits="userSpaceOnUse">
      <stop offset="0.15" stop-color="#EF6129"/>
      <stop offset="0.2" stop-color="#F06032"/>
      <stop offset="0.55" stop-color="#F85D6A"/>
      <stop offset="0.81" stop-color="#FD5B8C"/>
      <stop offset="0.96" stop-color="#FF5A99"/>
    </linearGradient>
    <linearGradient id="paint19_linear_989_78500" x1="145.494" y1="87.2032" x2="145.963" y2="82.3458" gradientUnits="userSpaceOnUse">
      <stop offset="0.15" stop-color="#EF6129"/>
      <stop offset="0.2" stop-color="#F06032"/>
      <stop offset="0.55" stop-color="#F85D6A"/>
      <stop offset="0.81" stop-color="#FD5B8C"/>
      <stop offset="0.96" stop-color="#FF5A99"/>
    </linearGradient>
    <linearGradient id="paint20_linear_989_78500" x1="136.734" y1="55.4269" x2="139.081" y2="52.8639" gradientUnits="userSpaceOnUse">
      <stop offset="0.15" stop-color="#EF6129"/>
      <stop offset="0.2" stop-color="#F06032"/>
      <stop offset="0.55" stop-color="#F85D6A"/>
      <stop offset="0.81" stop-color="#FD5B8C"/>
      <stop offset="0.96" stop-color="#FF5A99"/>
    </linearGradient>
    <linearGradient id="paint21_linear_989_78500" x1="140.012" y1="30.7553" x2="142.456" y2="28.0844" gradientUnits="userSpaceOnUse">
      <stop offset="0.15" stop-color="#EF6129"/>
      <stop offset="0.2" stop-color="#F06032"/>
      <stop offset="0.55" stop-color="#F85D6A"/>
      <stop offset="0.81" stop-color="#FD5B8C"/>
      <stop offset="0.96" stop-color="#FF5A99"/>
    </linearGradient>
    <linearGradient id="paint22_linear_989_78500" x1="140.448" y1="27.5125" x2="142.889" y2="24.8418" gradientUnits="userSpaceOnUse">
      <stop offset="0.15" stop-color="#EF6129"/>
      <stop offset="0.2" stop-color="#F06032"/>
      <stop offset="0.55" stop-color="#F85D6A"/>
      <stop offset="0.81" stop-color="#FD5B8C"/>
      <stop offset="0.96" stop-color="#FF5A99"/>
    </linearGradient>
    <linearGradient id="paint23_linear_989_78500" x1="139.541" y1="34.2826" x2="141.984" y2="31.6295" gradientUnits="userSpaceOnUse">
      <stop offset="0.15" stop-color="#EF6129"/>
      <stop offset="0.2" stop-color="#F06032"/>
      <stop offset="0.55" stop-color="#F85D6A"/>
      <stop offset="0.81" stop-color="#FD5B8C"/>
      <stop offset="0.96" stop-color="#FF5A99"/>
    </linearGradient>
    <linearGradient id="paint24_linear_989_78500" x1="139.158" y1="37.8111" x2="141.608" y2="35.2764" gradientUnits="userSpaceOnUse">
      <stop offset="0.15" stop-color="#EF6129"/>
      <stop offset="0.2" stop-color="#F06032"/>
      <stop offset="0.55" stop-color="#F85D6A"/>
      <stop offset="0.81" stop-color="#FD5B8C"/>
      <stop offset="0.96" stop-color="#FF5A99"/>
    </linearGradient>
    <linearGradient id="paint25_linear_989_78500" x1="138.626" y1="41.3393" x2="141.076" y2="38.7646" gradientUnits="userSpaceOnUse">
      <stop offset="0.15" stop-color="#EF6129"/>
      <stop offset="0.2" stop-color="#F06032"/>
      <stop offset="0.55" stop-color="#F85D6A"/>
      <stop offset="0.81" stop-color="#FD5B8C"/>
      <stop offset="0.96" stop-color="#FF5A99"/>
    </linearGradient>
    <linearGradient id="paint26_linear_989_78500" x1="138.13" y1="44.8668" x2="140.578" y2="42.2922" gradientUnits="userSpaceOnUse">
      <stop offset="0.15" stop-color="#EF6129"/>
      <stop offset="0.2" stop-color="#F06032"/>
      <stop offset="0.55" stop-color="#F85D6A"/>
      <stop offset="0.81" stop-color="#FD5B8C"/>
      <stop offset="0.96" stop-color="#FF5A99"/>
    </linearGradient>
    <linearGradient id="paint27_linear_989_78500" x1="137.346" y1="51.7818" x2="139.795" y2="49.2285" gradientUnits="userSpaceOnUse">
      <stop offset="0.15" stop-color="#EF6129"/>
      <stop offset="0.2" stop-color="#F06032"/>
      <stop offset="0.55" stop-color="#F85D6A"/>
      <stop offset="0.81" stop-color="#FD5B8C"/>
      <stop offset="0.96" stop-color="#FF5A99"/>
    </linearGradient>
    <linearGradient id="paint28_linear_989_78500" x1="137.913" y1="48.2533" x2="140.365" y2="45.8024" gradientUnits="userSpaceOnUse">
      <stop offset="0.15" stop-color="#EF6129"/>
      <stop offset="0.2" stop-color="#F06032"/>
      <stop offset="0.55" stop-color="#F85D6A"/>
      <stop offset="0.81" stop-color="#FD5B8C"/>
      <stop offset="0.96" stop-color="#FF5A99"/>
    </linearGradient>
    <linearGradient id="paint29_linear_989_78500" x1="135.293" y1="66.1429" x2="137.639" y2="63.5791" gradientUnits="userSpaceOnUse">
      <stop offset="0.15" stop-color="#EF6129"/>
      <stop offset="0.2" stop-color="#F06032"/>
      <stop offset="0.55" stop-color="#F85D6A"/>
      <stop offset="0.81" stop-color="#FD5B8C"/>
      <stop offset="0.96" stop-color="#FF5A99"/>
    </linearGradient>
    <linearGradient id="paint30_linear_989_78500" x1="135.905" y1="62.4979" x2="138.354" y2="59.9437" gradientUnits="userSpaceOnUse">
      <stop offset="0.15" stop-color="#EF6129"/>
      <stop offset="0.2" stop-color="#F06032"/>
      <stop offset="0.55" stop-color="#F85D6A"/>
      <stop offset="0.81" stop-color="#FD5B8C"/>
      <stop offset="0.96" stop-color="#FF5A99"/>
    </linearGradient>
    <linearGradient id="paint31_linear_989_78500" x1="136.472" y1="58.9706" x2="138.925" y2="56.5198" gradientUnits="userSpaceOnUse">
      <stop offset="0.15" stop-color="#EF6129"/>
      <stop offset="0.2" stop-color="#F06032"/>
      <stop offset="0.55" stop-color="#F85D6A"/>
      <stop offset="0.81" stop-color="#FD5B8C"/>
      <stop offset="0.96" stop-color="#FF5A99"/>
    </linearGradient>
    <linearGradient id="paint32_linear_989_78500" x1="132.486" y1="87.0123" x2="134.832" y2="84.4485" gradientUnits="userSpaceOnUse">
      <stop offset="0.15" stop-color="#EF6129"/>
      <stop offset="0.2" stop-color="#F06032"/>
      <stop offset="0.55" stop-color="#F85D6A"/>
      <stop offset="0.81" stop-color="#FD5B8C"/>
      <stop offset="0.96" stop-color="#FF5A99"/>
    </linearGradient>
    <linearGradient id="paint33_linear_989_78500" x1="134.912" y1="69.3966" x2="137.362" y2="66.8628" gradientUnits="userSpaceOnUse">
      <stop offset="0.15" stop-color="#EF6129"/>
      <stop offset="0.2" stop-color="#F06032"/>
      <stop offset="0.55" stop-color="#F85D6A"/>
      <stop offset="0.81" stop-color="#FD5B8C"/>
      <stop offset="0.96" stop-color="#FF5A99"/>
    </linearGradient>
    <linearGradient id="paint34_linear_989_78500" x1="134.38" y1="72.9251" x2="136.828" y2="70.3506" gradientUnits="userSpaceOnUse">
      <stop offset="0.15" stop-color="#EF6129"/>
      <stop offset="0.2" stop-color="#F06032"/>
      <stop offset="0.55" stop-color="#F85D6A"/>
      <stop offset="0.81" stop-color="#FD5B8C"/>
      <stop offset="0.96" stop-color="#FF5A99"/>
    </linearGradient>
    <linearGradient id="paint35_linear_989_78500" x1="133.884" y1="76.4533" x2="136.334" y2="73.8787" gradientUnits="userSpaceOnUse">
      <stop offset="0.15" stop-color="#EF6129"/>
      <stop offset="0.2" stop-color="#F06032"/>
      <stop offset="0.55" stop-color="#F85D6A"/>
      <stop offset="0.81" stop-color="#FD5B8C"/>
      <stop offset="0.96" stop-color="#FF5A99"/>
    </linearGradient>
    <linearGradient id="paint36_linear_989_78500" x1="133.098" y1="83.3673" x2="135.547" y2="80.813" gradientUnits="userSpaceOnUse">
      <stop offset="0.15" stop-color="#EF6129"/>
      <stop offset="0.2" stop-color="#F06032"/>
      <stop offset="0.55" stop-color="#F85D6A"/>
      <stop offset="0.81" stop-color="#FD5B8C"/>
      <stop offset="0.96" stop-color="#FF5A99"/>
    </linearGradient>
    <linearGradient id="paint37_linear_989_78500" x1="133.667" y1="79.8387" x2="136.119" y2="77.3879" gradientUnits="userSpaceOnUse">
      <stop offset="0.15" stop-color="#EF6129"/>
      <stop offset="0.2" stop-color="#F06032"/>
      <stop offset="0.55" stop-color="#F85D6A"/>
      <stop offset="0.81" stop-color="#FD5B8C"/>
      <stop offset="0.96" stop-color="#FF5A99"/>
    </linearGradient>
    <linearGradient id="paint38_linear_989_78500" x1="100.296" y1="27.0612" x2="101.181" y2="22.5224" gradientUnits="userSpaceOnUse">
      <stop offset="0.15" stop-color="#EF6129"/>
      <stop offset="0.2" stop-color="#F06032"/>
      <stop offset="0.55" stop-color="#F85D6A"/>
      <stop offset="0.81" stop-color="#FD5B8C"/>
      <stop offset="0.96" stop-color="#FF5A99"/>
    </linearGradient>
    <linearGradient id="paint39_linear_989_78500" x1="102.693" y1="30.6136" x2="103.603" y2="25.8861" gradientUnits="userSpaceOnUse">
      <stop offset="0.15" stop-color="#EF6129"/>
      <stop offset="0.2" stop-color="#F06032"/>
      <stop offset="0.55" stop-color="#F85D6A"/>
      <stop offset="0.81" stop-color="#FD5B8C"/>
      <stop offset="0.96" stop-color="#FF5A99"/>
    </linearGradient>
    <linearGradient id="paint40_linear_989_78500" x1="104.458" y1="34.142" x2="105.249" y2="29.3666" gradientUnits="userSpaceOnUse">
      <stop offset="0.15" stop-color="#EF6129"/>
      <stop offset="0.2" stop-color="#F06032"/>
      <stop offset="0.55" stop-color="#F85D6A"/>
      <stop offset="0.81" stop-color="#FD5B8C"/>
      <stop offset="0.96" stop-color="#FF5A99"/>
    </linearGradient>
    <linearGradient id="paint41_linear_989_78500" x1="112.245" y1="37.6693" x2="113.179" y2="32.9514" gradientUnits="userSpaceOnUse">
      <stop offset="0.15" stop-color="#EF6129"/>
      <stop offset="0.2" stop-color="#F06032"/>
      <stop offset="0.55" stop-color="#F85D6A"/>
      <stop offset="0.81" stop-color="#FD5B8C"/>
      <stop offset="0.96" stop-color="#FF5A99"/>
    </linearGradient>
    <linearGradient id="paint42_linear_989_78500" x1="96.8544" y1="55.285" x2="97.9234" y2="50.8303" gradientUnits="userSpaceOnUse">
      <stop offset="0.15" stop-color="#EF6129"/>
      <stop offset="0.2" stop-color="#F06032"/>
      <stop offset="0.55" stop-color="#F85D6A"/>
      <stop offset="0.81" stop-color="#FD5B8C"/>
      <stop offset="0.96" stop-color="#FF5A99"/>
    </linearGradient>
    <linearGradient id="paint43_linear_989_78500" x1="101.988" y1="58.8375" x2="103.479" y2="54.4404" gradientUnits="userSpaceOnUse">
      <stop offset="0.15" stop-color="#EF6129"/>
      <stop offset="0.2" stop-color="#F06032"/>
      <stop offset="0.55" stop-color="#F85D6A"/>
      <stop offset="0.81" stop-color="#FD5B8C"/>
      <stop offset="0.96" stop-color="#FF5A99"/>
    </linearGradient>
    <linearGradient id="paint44_linear_989_78500" x1="106.914" y1="62.3657" x2="108.458" y2="58.006" gradientUnits="userSpaceOnUse">
      <stop offset="0.15" stop-color="#EF6129"/>
      <stop offset="0.2" stop-color="#F06032"/>
      <stop offset="0.55" stop-color="#F85D6A"/>
      <stop offset="0.81" stop-color="#FD5B8C"/>
      <stop offset="0.96" stop-color="#FF5A99"/>
    </linearGradient>
    <linearGradient id="paint45_linear_989_78500" x1="111.253" y1="65.8929" x2="112.53" y2="61.3491" gradientUnits="userSpaceOnUse">
      <stop offset="0.15" stop-color="#EF6129"/>
      <stop offset="0.2" stop-color="#F06032"/>
      <stop offset="0.55" stop-color="#F85D6A"/>
      <stop offset="0.81" stop-color="#FD5B8C"/>
      <stop offset="0.96" stop-color="#FF5A99"/>
    </linearGradient>
    <linearGradient id="paint46_linear_989_78500" x1="99.1706" y1="41.1978" x2="100.438" y2="36.648" gradientUnits="userSpaceOnUse">
      <stop offset="0.15" stop-color="#EF6129"/>
      <stop offset="0.2" stop-color="#F06032"/>
      <stop offset="0.55" stop-color="#F85D6A"/>
      <stop offset="0.81" stop-color="#FD5B8C"/>
      <stop offset="0.96" stop-color="#FF5A99"/>
    </linearGradient>
    <linearGradient id="paint47_linear_989_78500" x1="108.819" y1="44.726" x2="109.681" y2="39.9762" gradientUnits="userSpaceOnUse">
      <stop offset="0.15" stop-color="#EF6129"/>
      <stop offset="0.2" stop-color="#F06032"/>
      <stop offset="0.55" stop-color="#F85D6A"/>
      <stop offset="0.81" stop-color="#FD5B8C"/>
      <stop offset="0.96" stop-color="#FF5A99"/>
    </linearGradient>
    <linearGradient id="paint48_linear_989_78500" x1="98.4091" y1="48.248" x2="99.6781" y2="43.6952" gradientUnits="userSpaceOnUse">
      <stop offset="0.15" stop-color="#EF6129"/>
      <stop offset="0.2" stop-color="#F06032"/>
      <stop offset="0.55" stop-color="#F85D6A"/>
      <stop offset="0.81" stop-color="#FD5B8C"/>
      <stop offset="0.96" stop-color="#FF5A99"/>
    </linearGradient>
    <linearGradient id="paint49_linear_989_78500" x1="108.057" y1="51.7752" x2="108.918" y2="47.0289" gradientUnits="userSpaceOnUse">
      <stop offset="0.15" stop-color="#EF6129"/>
      <stop offset="0.2" stop-color="#F06032"/>
      <stop offset="0.55" stop-color="#F85D6A"/>
      <stop offset="0.81" stop-color="#FD5B8C"/>
      <stop offset="0.96" stop-color="#FF5A99"/>
    </linearGradient>
    <linearGradient id="paint50_linear_989_78500" x1="94.7878" y1="69.3978" x2="95.7607" y2="64.8969" gradientUnits="userSpaceOnUse">
      <stop offset="0.15" stop-color="#EF6129"/>
      <stop offset="0.2" stop-color="#F06032"/>
      <stop offset="0.55" stop-color="#F85D6A"/>
      <stop offset="0.81" stop-color="#FD5B8C"/>
      <stop offset="0.96" stop-color="#FF5A99"/>
    </linearGradient>
    <linearGradient id="paint51_linear_989_78500" x1="93.9964" y1="72.9499" x2="94.6636" y2="68.1359" gradientUnits="userSpaceOnUse">
      <stop offset="0.15" stop-color="#EF6129"/>
      <stop offset="0.2" stop-color="#F06032"/>
      <stop offset="0.55" stop-color="#F85D6A"/>
      <stop offset="0.81" stop-color="#FD5B8C"/>
      <stop offset="0.96" stop-color="#FF5A99"/>
    </linearGradient>
    <linearGradient id="paint52_linear_989_78500" x1="107.924" y1="76.4771" x2="109.035" y2="71.8406" gradientUnits="userSpaceOnUse">
      <stop offset="0.15" stop-color="#EF6129"/>
      <stop offset="0.2" stop-color="#F06032"/>
      <stop offset="0.55" stop-color="#F85D6A"/>
      <stop offset="0.81" stop-color="#FD5B8C"/>
      <stop offset="0.96" stop-color="#FF5A99"/>
    </linearGradient>
    <linearGradient id="paint53_linear_989_78500" x1="97.7764" y1="83.5339" x2="98.7572" y2="78.832" gradientUnits="userSpaceOnUse">
      <stop offset="0.15" stop-color="#EF6129"/>
      <stop offset="0.2" stop-color="#F06032"/>
      <stop offset="0.55" stop-color="#F85D6A"/>
      <stop offset="0.81" stop-color="#FD5B8C"/>
      <stop offset="0.96" stop-color="#FF5A99"/>
    </linearGradient>
    <linearGradient id="paint54_linear_989_78500" x1="112.164" y1="79.7269" x2="113.316" y2="75.1118" gradientUnits="userSpaceOnUse">
      <stop offset="0.15" stop-color="#EF6129"/>
      <stop offset="0.2" stop-color="#F06032"/>
      <stop offset="0.55" stop-color="#F85D6A"/>
      <stop offset="0.81" stop-color="#FD5B8C"/>
      <stop offset="0.96" stop-color="#FF5A99"/>
    </linearGradient>
    <linearGradient id="paint55_linear_989_78500" x1="105.827" y1="87.0614" x2="107.035" y2="82.4771" gradientUnits="userSpaceOnUse">
      <stop offset="0.15" stop-color="#EF6129"/>
      <stop offset="0.2" stop-color="#F06032"/>
      <stop offset="0.55" stop-color="#F85D6A"/>
      <stop offset="0.81" stop-color="#FD5B8C"/>
      <stop offset="0.96" stop-color="#FF5A99"/>
    </linearGradient>
    <linearGradient id="paint56_linear_989_78500" x1="201.379" y1="144.059" x2="208.599" y2="141.235" gradientUnits="userSpaceOnUse">
      <stop offset="0.15" stop-color="#EF6129"/>
      <stop offset="0.2" stop-color="#F06032"/>
      <stop offset="0.55" stop-color="#F85D6A"/>
      <stop offset="0.81" stop-color="#FD5B8C"/>
      <stop offset="0.96" stop-color="#FF5A99"/>
    </linearGradient>
    <linearGradient id="paint57_linear_989_78500" x1="180.748" y1="142.534" x2="190.254" y2="135.59" gradientUnits="userSpaceOnUse">
      <stop offset="0.15" stop-color="#EF6129"/>
      <stop offset="0.2" stop-color="#F06032"/>
      <stop offset="0.55" stop-color="#F85D6A"/>
      <stop offset="0.81" stop-color="#FD5B8C"/>
      <stop offset="0.96" stop-color="#FF5A99"/>
    </linearGradient>
    <linearGradient id="paint58_linear_989_78500" x1="185.264" y1="126.435" x2="208.988" y2="120.153" gradientUnits="userSpaceOnUse">
      <stop offset="0.15" stop-color="#EF6129"/>
      <stop offset="0.2" stop-color="#F06032"/>
      <stop offset="0.55" stop-color="#F85D6A"/>
      <stop offset="0.81" stop-color="#FD5B8C"/>
      <stop offset="0.96" stop-color="#FF5A99"/>
    </linearGradient>
    <linearGradient id="paint59_linear_989_78500" x1="181.66" y1="78.5373" x2="194.651" y2="70.8537" gradientUnits="userSpaceOnUse">
      <stop offset="0.15" stop-color="#EF6129"/>
      <stop offset="0.2" stop-color="#F06032"/>
      <stop offset="0.55" stop-color="#F85D6A"/>
      <stop offset="0.81" stop-color="#FD5B8C"/>
      <stop offset="0.96" stop-color="#FF5A99"/>
    </linearGradient>
    <linearGradient id="paint60_linear_989_78500" x1="143.755" y1="134.756" x2="149.417" y2="131.837" gradientUnits="userSpaceOnUse">
      <stop offset="0.15" stop-color="#EF6129"/>
      <stop offset="0.2" stop-color="#F06032"/>
      <stop offset="0.55" stop-color="#F85D6A"/>
      <stop offset="0.81" stop-color="#FD5B8C"/>
      <stop offset="0.96" stop-color="#FF5A99"/>
    </linearGradient>
    <linearGradient id="paint61_linear_989_78500" x1="74.695" y1="135.562" x2="115.477" y2="114.157" gradientUnits="userSpaceOnUse">
      <stop offset="0.15" stop-color="#EF6129"/>
      <stop offset="0.2" stop-color="#F06032"/>
      <stop offset="0.55" stop-color="#F85D6A"/>
      <stop offset="0.81" stop-color="#FD5B8C"/>
      <stop offset="0.96" stop-color="#FF5A99"/>
    </linearGradient>
    <linearGradient id="paint62_linear_989_78500" x1="109.021" y1="132.397" x2="112.689" y2="131.438" gradientUnits="userSpaceOnUse">
      <stop offset="0.15" stop-color="#EF6129"/>
      <stop offset="0.2" stop-color="#F06032"/>
      <stop offset="0.55" stop-color="#F85D6A"/>
      <stop offset="0.81" stop-color="#FD5B8C"/>
      <stop offset="0.96" stop-color="#FF5A99"/>
    </linearGradient>
    <linearGradient id="paint63_linear_989_78500" x1="157.449" y1="133.029" x2="159.511" y2="131.982" gradientUnits="userSpaceOnUse">
      <stop offset="0.15" stop-color="#EF6129"/>
      <stop offset="0.2" stop-color="#F06032"/>
      <stop offset="0.55" stop-color="#F85D6A"/>
      <stop offset="0.81" stop-color="#FD5B8C"/>
      <stop offset="0.96" stop-color="#FF5A99"/>
    </linearGradient>
  </defs>
</svg>
