<svg width="288" height="155" viewBox="0 0 288 155" fill="none" xmlns="http://www.w3.org/2000/svg">
<mask id="mask0_989_79093" style="mask-type:alpha" maskUnits="userSpaceOnUse" x="0" y="0" width="288" height="155">
<rect width="288" height="155" fill="#25262D"/>
</mask>
<g mask="url(#mask0_989_79093)">
<rect width="288" height="155" fill="current"/>
<path d="M117.967 140.637C124.58 143.638 137.243 148.081 152.99 146.296C173.196 144.005 189.126 132.661 198.077 121.628C227.779 85.0142 208.591 17.99 180.61 9.1142C175.534 7.50315 170.639 7.95699 164.615 8.51298C145.457 10.2848 139.763 19.6178 119.416 25.8945C100.9 31.6069 98.8169 25.9749 90.5859 31.3172C72.7321 42.9026 71.8294 76.3494 80.3921 99.3629C83.6795 108.202 93.7661 129.653 117.967 140.637Z" opacity="0.47" fill="url(#paint0_linear_989_79093)"/>
<path d="M197.088 33.5913H79.7968C76.825 33.5913 74.416 36.0004 74.416 38.9721V123.101C74.416 126.073 76.825 128.482 79.7968 128.482H197.088C200.06 128.482 202.469 126.073 202.469 123.101V38.9721C202.469 36.0004 200.06 33.5913 197.088 33.5913Z" fill="url(#paint0_linear_989_79093)"/>
<path opacity="0.2" d="M197.088 33.5913H79.7968C76.825 33.5913 74.416 36.0004 74.416 38.9721V123.101C74.416 126.073 76.825 128.482 79.7968 128.482H197.088C200.06 128.482 202.469 126.073 202.469 123.101V38.9721C202.469 36.0004 200.06 33.5913 197.088 33.5913Z" fill="white"/>
<path d="M191.376 39.4746H85.003C82.9044 39.4746 81.2031 41.1759 81.2031 43.2745V112.958C81.2031 115.057 82.9044 116.758 85.003 116.758H191.376C193.474 116.758 195.175 115.057 195.175 112.958V43.2745C195.175 41.1759 193.474 39.4746 191.376 39.4746Z" fill="white"/>
<path opacity="0.3" d="M191.376 39.4746H85.003C82.9044 39.4746 81.2031 41.1759 81.2031 43.2745V112.958C81.2031 115.057 82.9044 116.758 85.003 116.758H191.376C193.474 116.758 195.175 115.057 195.175 112.958V43.2745C195.175 41.1759 193.474 39.4746 191.376 39.4746Z" fill="url(#paint1_linear_989_79093)"/>
<path d="M168.455 39.632L127.333 39.5583C127.267 39.5583 127.203 39.5318 127.156 39.4847C127.108 39.4376 127.082 39.3737 127.082 39.3071C127.082 39.2405 127.108 39.1766 127.156 39.1295C127.203 39.0824 127.267 39.0559 127.333 39.0559L168.453 39.1296C168.52 39.1296 168.584 39.1561 168.631 39.2032C168.678 39.2503 168.705 39.3142 168.705 39.3808C168.705 39.4474 168.678 39.5113 168.631 39.5584C168.584 39.6055 168.52 39.632 168.453 39.632H168.455Z" fill="#1B1C21"/>
<path d="M81.2024 60.301C81.1358 60.301 81.0718 60.2745 81.0247 60.2274C80.9776 60.1803 80.9512 60.1164 80.9512 60.0498V43.1807C80.9512 42.1066 81.3777 41.0764 82.1371 40.3168C82.8965 39.5571 83.9264 39.1301 85.0005 39.1296H116.15C116.216 39.1296 116.28 39.1561 116.327 39.2032C116.374 39.2503 116.401 39.3142 116.401 39.3808C116.401 39.4475 116.374 39.5114 116.327 39.5585C116.28 39.6056 116.216 39.632 116.15 39.632H85.0005C84.0607 39.6343 83.16 40.0091 82.4961 40.6743C81.8321 41.3395 81.459 42.2408 81.4586 43.1807V60.0498C81.4586 60.0832 81.4519 60.1163 81.439 60.1471C81.426 60.1779 81.4071 60.2058 81.3833 60.2292C81.3594 60.2526 81.3311 60.271 81.3001 60.2833C81.269 60.2957 81.2358 60.3017 81.2024 60.301Z" fill="#1B1C21"/>
<path d="M190.081 117.096L85.0008 116.915C83.9279 116.913 82.8995 116.486 82.1412 115.727C81.383 114.968 80.9569 113.939 80.9565 112.866L80.9414 67.6091C80.9414 67.5425 80.9679 67.4786 81.015 67.4315C81.0621 67.3844 81.126 67.3579 81.1926 67.3579C81.2592 67.3579 81.3231 67.3844 81.3702 67.4315C81.4173 67.4786 81.4438 67.5425 81.4438 67.6091L81.4539 112.866C81.4543 113.806 81.8281 114.708 82.4932 115.373C83.1583 116.038 84.0603 116.412 85.0008 116.413L190.086 116.594C190.152 116.594 190.216 116.62 190.263 116.667C190.31 116.714 190.337 116.778 190.337 116.845C190.337 116.911 190.31 116.975 190.263 117.022C190.216 117.07 190.152 117.096 190.086 117.096H190.081Z" fill="#1B1C21"/>
<path d="M195.208 107.216C195.142 107.216 195.078 107.189 195.031 107.142C194.984 107.095 194.957 107.031 194.957 106.964L194.924 43.1807C194.923 42.2408 194.55 41.3395 193.886 40.6743C193.222 40.0091 192.322 39.6343 191.382 39.632H189.101C189.034 39.632 188.97 39.6056 188.923 39.5585C188.876 39.5114 188.85 39.4475 188.85 39.3808C188.85 39.3142 188.876 39.2503 188.923 39.2032C188.97 39.1561 189.034 39.1296 189.101 39.1296H191.382C192.455 39.1319 193.483 39.5596 194.241 40.319C195 41.0785 195.426 42.1076 195.426 43.1807L195.46 106.964C195.46 107.031 195.433 107.095 195.386 107.142C195.339 107.189 195.275 107.216 195.208 107.216Z" fill="#1B1C21"/>
<path d="M197.097 128.735H111.628C111.562 128.735 111.498 128.709 111.451 128.662C111.403 128.614 111.377 128.551 111.377 128.484C111.377 128.417 111.403 128.353 111.451 128.306C111.498 128.259 111.562 128.233 111.628 128.233H197.106C198.464 128.23 199.766 127.688 200.726 126.726C201.686 125.765 202.225 124.462 202.225 123.103V38.9721C202.225 37.6135 201.686 36.3105 200.726 35.3489C199.766 34.3873 198.464 33.8456 197.106 33.8425H113.124C113.057 33.8425 112.993 33.816 112.946 33.7689C112.899 33.7218 112.872 33.6579 112.872 33.5913C112.872 33.5247 112.899 33.4608 112.946 33.4137C112.993 33.3666 113.057 33.3401 113.124 33.3401H197.097C198.589 33.3432 200.019 33.9379 201.073 34.9937C202.127 36.0495 202.719 37.4802 202.719 38.9721V123.101C202.72 124.594 202.128 126.025 201.074 127.081C200.02 128.138 198.59 128.732 197.097 128.735Z" fill="#1B1C21"/>
<path d="M83.8688 128.735H79.786C78.294 128.732 76.8641 128.138 75.8101 127.082C74.7561 126.026 74.1641 124.595 74.1641 123.103V38.9721C74.1645 37.4802 74.7566 36.0495 75.8105 34.9937C76.8645 33.9379 78.2942 33.3432 79.786 33.3401H86.3758C86.4425 33.3401 86.5064 33.3666 86.5535 33.4137C86.6006 33.4608 86.627 33.5247 86.627 33.5913C86.627 33.6579 86.6006 33.7218 86.5535 33.7689C86.5064 33.816 86.4425 33.8425 86.3758 33.8425H79.786C78.4274 33.8456 77.1255 34.3873 76.1658 35.3489C75.2061 36.3105 74.6669 37.6135 74.6665 38.9721V123.101C74.6665 124.46 75.2055 125.764 76.1652 126.726C77.125 127.688 78.4271 128.23 79.786 128.233H83.8688C83.9355 128.233 83.9994 128.259 84.0465 128.306C84.0936 128.353 84.1201 128.417 84.1201 128.484C84.1201 128.551 84.0936 128.614 84.0465 128.662C83.9994 128.709 83.9355 128.735 83.8688 128.735Z" fill="#1B1C21"/>
<path d="M193.335 124.369H82.6556C82.4669 124.369 82.2801 124.332 82.1058 124.26C81.9314 124.188 81.7731 124.082 81.6396 123.948C81.5062 123.815 81.4003 123.657 81.3281 123.482C81.2559 123.308 81.2188 123.121 81.2188 122.932C81.2187 122.551 81.3701 122.186 81.6395 121.916C81.9089 121.646 82.2744 121.494 82.6556 121.494H193.335C193.717 121.494 194.082 121.646 194.352 121.916C194.621 122.186 194.772 122.551 194.772 122.932C194.772 123.121 194.735 123.308 194.663 123.482C194.591 123.657 194.485 123.815 194.352 123.948C194.218 124.082 194.06 124.188 193.885 124.26C193.711 124.332 193.524 124.369 193.335 124.369Z" fill="url(#paint2_linear_989_79093)"/>
<path d="M193.337 124.369H133.035V121.494H193.337C193.718 121.494 194.084 121.646 194.353 121.916C194.623 122.186 194.774 122.551 194.774 122.932C194.774 123.314 194.623 123.679 194.353 123.948C194.084 124.218 193.718 124.369 193.337 124.369Z" fill="url(#paint3_linear_989_79093)"/>
<path d="M193.336 124.621H82.6561C82.2174 124.607 81.8013 124.423 81.4958 124.107C81.1904 123.792 81.0195 123.371 81.0195 122.932C81.0195 122.493 81.1904 122.071 81.4958 121.756C81.8013 121.44 82.2174 121.256 82.6561 121.243H193.336C193.775 121.256 194.191 121.44 194.496 121.756C194.802 122.071 194.973 122.493 194.973 122.932C194.973 123.371 194.802 123.792 194.496 124.107C194.191 124.423 193.775 124.607 193.336 124.621ZM82.6561 121.745C82.3491 121.757 82.0586 121.887 81.8455 122.108C81.6324 122.329 81.5134 122.624 81.5134 122.932C81.5134 123.239 81.6324 123.534 81.8455 123.755C82.0586 123.977 82.3491 124.107 82.6561 124.118H193.336C193.643 124.107 193.934 123.977 194.147 123.755C194.36 123.534 194.479 123.239 194.479 122.932C194.479 122.624 194.36 122.329 194.147 122.108C193.934 121.887 193.643 121.757 193.336 121.745H82.6561Z" fill="url(#paint4_linear_989_79093)"/>
<path d="M133.112 125.135C134.355 125.135 135.363 124.126 135.363 122.881C135.363 121.636 134.355 120.626 133.112 120.626C131.869 120.626 130.861 121.636 130.861 122.881C130.861 124.126 131.869 125.135 133.112 125.135Z" fill="white"/>
<path d="M133.112 125.386C132.614 125.388 132.127 125.243 131.713 124.968C131.298 124.694 130.974 124.302 130.782 123.843C130.591 123.384 130.539 122.879 130.635 122.391C130.73 121.903 130.969 121.454 131.319 121.102C131.67 120.749 132.118 120.509 132.606 120.411C133.093 120.313 133.599 120.362 134.059 120.552C134.518 120.742 134.911 121.064 135.188 121.477C135.464 121.89 135.612 122.376 135.612 122.874C135.612 123.538 135.349 124.175 134.88 124.646C134.412 125.117 133.776 125.383 133.112 125.386ZM133.112 120.878C132.714 120.875 132.324 120.991 131.992 121.211C131.66 121.43 131.401 121.743 131.247 122.11C131.093 122.477 131.051 122.881 131.127 123.272C131.204 123.663 131.394 124.022 131.675 124.304C131.955 124.586 132.313 124.779 132.704 124.857C133.094 124.936 133.498 124.897 133.866 124.745C134.234 124.593 134.549 124.336 134.77 124.005C134.991 123.674 135.11 123.285 135.11 122.887C135.11 122.356 134.899 121.847 134.525 121.47C134.151 121.094 133.643 120.881 133.112 120.878Z" fill="#1B1C21"/>
<path d="M141.711 48.8529C141.711 48.8529 141.743 34.3836 146.112 29.8151C146.927 28.9789 147.922 28.3412 149.023 27.9512C150.123 27.5612 151.298 27.4294 152.457 27.566C155.82 27.9361 160.742 29.9993 162.658 38.4799C162.658 38.4799 162.917 43.931 166.568 45.758C170.219 47.5851 175.561 47.3255 177.516 53.8535C179.47 60.3814 175.463 63.8095 177.419 67.4653C179.375 71.1211 178.886 73.9296 178.661 79.5632C178.368 86.9318 167.675 91.847 156.987 83.621L141.711 48.8529Z" fill="#25262D"/>
<path d="M184.326 116.51C186.655 109.443 187.452 100.46 187.173 93.7862C186.771 84.073 181.946 74.9091 172.298 56.573C170.829 53.7797 168.478 49.5142 164.688 48.9716C162.952 48.7221 162.257 48.9901 155.283 50.9076C147.697 52.9926 145.771 50.7736 142.516 52.8301C139.151 54.9536 138.558 58.9946 137.269 66.9092C134.69 82.7232 134.392 82.956 134.043 84.6123C134.043 84.6123 133.02 89.2696 132.737 93.756C132.57 96.3669 132.846 107.746 136.686 116.51H184.326Z" fill="url(#paint5_linear_989_79093)"/>
<path d="M159.307 116.678C159.861 110.146 160.563 103.366 160.563 103.366C160.563 103.366 162.477 108.974 165.021 116.678H177.611C177.109 110.314 176.521 100.936 175.032 94.766C173.106 86.7778 169.326 77.7998 169.326 77.7998L145.211 82.0334C145.211 82.0334 145.457 100.098 146.149 116.678H159.307Z" fill="#25262D"/>
<path d="M170.173 92.4415C170.14 92.4419 170.107 92.4356 170.077 92.4231C168.053 91.5897 166.31 90.1951 165.053 88.4038C165.014 88.3496 164.998 88.2822 165.009 88.2164C165.02 88.1506 165.057 88.0918 165.111 88.053C165.165 88.0141 165.232 87.9984 165.298 88.0092C165.364 88.02 165.423 88.0566 165.462 88.1108C166.664 89.8274 168.332 91.1639 170.27 91.9625C170.324 91.9845 170.368 92.0246 170.396 92.0759C170.424 92.1273 170.433 92.1867 170.422 92.2439C170.41 92.3012 170.379 92.3527 170.334 92.3897C170.289 92.4267 170.233 92.4468 170.174 92.4465L170.173 92.4415Z" fill="url(#paint6_linear_989_79093)"/>
<path d="M147.389 92.3326C147.339 92.3316 147.29 92.3157 147.25 92.2871C147.209 92.2585 147.177 92.2184 147.159 92.1719C147.141 92.1254 147.138 92.0746 147.149 92.0259C147.16 91.9773 147.185 91.9331 147.221 91.8988C148.859 90.3531 149.097 89.4186 149.455 88.0035C149.489 87.8746 149.522 87.7423 149.557 87.6049C149.564 87.5714 149.578 87.5397 149.597 87.5116C149.616 87.4834 149.641 87.4596 149.67 87.4414C149.699 87.4233 149.732 87.4112 149.765 87.406C149.799 87.4008 149.834 87.4025 149.867 87.4111C149.9 87.4196 149.931 87.4348 149.958 87.4558C149.985 87.4767 150.007 87.5029 150.024 87.5328C150.04 87.5627 150.05 87.5957 150.054 87.6297C150.057 87.6637 150.053 87.698 150.043 87.7305C150.008 87.8662 149.974 87.9985 149.943 88.1258C149.576 89.5727 149.31 90.6177 147.566 92.2639C147.518 92.309 147.455 92.3337 147.389 92.3326Z" fill="url(#paint7_linear_989_79093)"/>
<path d="M108.979 51.1321C108.979 51.1321 110.416 49.218 112.779 48.6419C112.779 48.6419 112.803 46.7344 110.749 47.6371C108.696 48.5397 107.874 47.9887 106.956 47.7727C105.344 47.3925 101.914 43.5106 100.638 43.0166C99.3616 42.5226 99.7585 43.5893 99.7585 43.5893C99.7585 43.5893 98.5058 42.1793 97.645 42.886L99.4871 45.321C99.4871 45.321 98 43.3515 97.1426 44.3413L100.994 48.8512L98.1758 46.6322C98.1758 46.6322 97.7823 47.066 98.5108 47.833C99.2393 48.6 102.247 52.7884 105.117 52.7884C105.117 52.7884 105.496 65.4892 115.08 71.4042C116.286 67.6093 116.621 67.3849 117.798 63.5449C111.702 60.8235 108.323 53.2188 108.979 51.1321Z" fill="white"/>
<path d="M115.075 71.6569C115.028 71.6568 114.983 71.6434 114.943 71.6183C109.927 68.5235 107.454 63.5698 106.261 59.9592C105.519 57.7154 105.053 55.3894 104.873 53.0327C102.405 52.8535 99.983 49.968 98.8007 48.5579C98.5947 48.3134 98.4323 48.1192 98.3251 48.0087C97.4358 47.0826 97.9533 46.4897 97.9751 46.4663C98.0173 46.4207 98.0749 46.3925 98.1368 46.3869C98.1986 46.3813 98.2603 46.3989 98.31 46.4361L99.1473 47.0909L96.9435 44.4985C96.9019 44.4526 96.8789 44.3929 96.8789 44.331C96.8789 44.2692 96.9019 44.2095 96.9435 44.1636C97.041 44.0458 97.1641 43.9519 97.3034 43.8889C97.4427 43.826 97.5945 43.7956 97.7473 43.8002C97.8572 43.8043 97.9659 43.8235 98.0705 43.8571L97.4425 43.0198C97.4033 42.9681 97.3857 42.9032 97.3935 42.8388C97.4014 42.7744 97.4339 42.7156 97.4844 42.6748C98.166 42.1154 98.9916 42.581 99.494 42.9829C99.5214 42.9085 99.5648 42.841 99.6213 42.7853C99.9462 42.4638 100.534 42.6899 100.728 42.7652C101.329 42.998 102.284 43.8487 103.389 44.8335C104.694 45.9957 106.171 47.312 107.015 47.5129C107.182 47.5498 107.333 47.5984 107.486 47.6436C108.241 47.8713 109.023 48.1058 110.649 47.3907C111.396 47.0558 111.989 47.0407 112.423 47.3254C113.034 47.7307 113.03 48.5914 113.03 48.6283C113.03 48.6841 113.01 48.738 112.975 48.7817C112.94 48.8253 112.892 48.8561 112.838 48.8694C110.758 49.3718 109.41 50.9779 109.207 51.2324C108.643 53.2688 111.962 60.6458 117.895 63.3002C117.952 63.3247 117.997 63.3689 118.022 63.4244C118.048 63.48 118.052 63.5431 118.034 63.6016C117.415 65.6263 117.03 66.6412 116.624 67.7147C116.261 68.6743 115.886 69.6673 115.315 71.4643C115.304 71.5021 115.285 71.537 115.258 71.566C115.232 71.5951 115.199 71.6176 115.162 71.6317C115.135 71.6458 115.106 71.6544 115.075 71.6569ZM98.3284 47.0792C98.3959 47.3025 98.5226 47.5034 98.6952 47.6603C98.8124 47.7842 98.9799 47.9835 99.1976 48.2364C100.278 49.5242 102.808 52.5387 105.124 52.5387C105.19 52.5387 105.253 52.5642 105.3 52.6099C105.347 52.6555 105.374 52.7177 105.375 52.7832C105.375 52.9071 105.853 65.1758 114.946 71.0205C115.467 69.4027 115.822 68.4632 116.165 67.5539C116.556 66.5256 116.922 65.5526 117.505 63.682C111.317 60.7831 108.085 53.1868 108.757 51.0566C108.765 51.0289 108.778 51.0029 108.795 50.9795C108.854 50.9008 110.23 49.0972 112.528 48.4524C112.516 48.3181 112.478 48.1874 112.414 48.0683C112.351 47.9492 112.264 47.844 112.16 47.7591C111.813 47.5314 111.267 47.6921 110.868 47.868C109.072 48.6584 108.162 48.3838 107.352 48.141C107.199 48.0957 107.055 48.0522 106.91 48.0187C105.942 47.7909 104.48 46.488 103.058 45.227C102.033 44.3143 101.067 43.4518 100.546 43.2526C100.156 43.1002 99.9997 43.1353 99.9746 43.1604C99.9386 43.2734 99.9458 43.3957 99.9947 43.5038C100.014 43.5589 100.015 43.6192 99.9951 43.6744C99.9755 43.7296 99.9375 43.7764 99.8875 43.8069C99.8374 43.8369 99.7783 43.8484 99.7206 43.8396C99.6628 43.8307 99.6099 43.802 99.571 43.7583C99.561 43.7466 98.6768 42.7803 98.0203 42.9679L99.6849 45.1701C99.7251 45.2234 99.7425 45.2904 99.7332 45.3566C99.724 45.4227 99.6888 45.4824 99.6355 45.5226C99.5822 45.5628 99.5151 45.5802 99.449 45.5709C99.3829 45.5616 99.3232 45.5265 99.283 45.4732C99.0452 45.1583 98.3 44.3344 97.7306 44.316C97.6463 44.3116 97.5624 44.3301 97.4877 44.3696L101.172 48.6886C101.214 48.7357 101.237 48.7971 101.236 48.8605C101.235 48.9239 101.21 48.9846 101.167 49.0304C101.123 49.0761 101.063 49.1036 101 49.1073C100.937 49.111 100.874 49.0907 100.825 49.0503L98.3284 47.0792Z" fill="#1B1C21"/>
<path d="M102.985 47.1361C102.917 47.1357 102.853 47.1086 102.805 47.0607L99.58 43.7666C99.5556 43.7434 99.536 43.7155 99.5226 43.6845C99.5093 43.6536 99.5022 43.6203 99.502 43.5866C99.5017 43.5529 99.5082 43.5195 99.5212 43.4884C99.5341 43.4572 99.5532 43.429 99.5772 43.4054C99.6013 43.3818 99.6298 43.3633 99.6612 43.3509C99.6926 43.3386 99.7261 43.3327 99.7598 43.3336C99.7935 43.3345 99.8267 43.3421 99.8573 43.3561C99.888 43.3701 99.9156 43.3901 99.9383 43.415L103.165 46.7091C103.2 46.7445 103.224 46.7894 103.233 46.8381C103.242 46.8868 103.237 46.9372 103.217 46.9829C103.198 47.0285 103.166 47.0675 103.124 47.0947C103.083 47.122 103.034 47.1364 102.985 47.1361Z" fill="#1B1C21"/>
<path d="M101.671 47.8028C101.638 47.8028 101.604 47.7961 101.574 47.7832C101.543 47.7702 101.515 47.7513 101.492 47.7274L99.3045 45.5035C99.2801 45.4802 99.2607 45.4523 99.2473 45.4214C99.2339 45.3904 99.2268 45.3571 99.2266 45.3234C99.2263 45.2897 99.2329 45.2563 99.2458 45.2252C99.2587 45.194 99.2778 45.1658 99.3018 45.1422C99.3259 45.1186 99.3545 45.1001 99.3858 45.0878C99.4172 45.0754 99.4507 45.0695 99.4844 45.0704C99.5181 45.0713 99.5513 45.079 99.5819 45.0929C99.6126 45.1069 99.6402 45.1269 99.6629 45.1518L101.85 47.3808C101.897 47.4279 101.924 47.4917 101.924 47.5583C101.924 47.6249 101.897 47.6887 101.85 47.7358C101.826 47.7583 101.798 47.7758 101.767 47.7873C101.736 47.7988 101.704 47.8041 101.671 47.8028Z" fill="#1B1C21"/>
<path d="M107.427 51.3899C107.378 51.3899 107.331 51.376 107.29 51.3498C107.25 51.3237 107.217 51.2865 107.197 51.2426C107.189 51.2242 106.335 49.3703 105.092 49.6248C103.585 49.9346 102.518 49.5478 102.473 49.531C102.442 49.5198 102.413 49.5025 102.388 49.48C102.364 49.4576 102.344 49.4305 102.33 49.4003C102.316 49.3701 102.308 49.3375 102.307 49.3043C102.306 49.271 102.311 49.2379 102.323 49.2067C102.334 49.1756 102.352 49.1471 102.375 49.1228C102.397 49.0986 102.425 49.0791 102.455 49.0654C102.485 49.0518 102.518 49.0444 102.551 49.0435C102.585 49.0427 102.618 49.0484 102.649 49.0605C103.411 49.2827 104.218 49.3075 104.993 49.1325C106.626 48.7975 107.616 50.9445 107.658 51.0349C107.675 51.0732 107.683 51.1153 107.679 51.1573C107.676 51.1992 107.663 51.2397 107.64 51.2751C107.617 51.3104 107.586 51.3395 107.549 51.3595C107.512 51.3796 107.47 51.3901 107.428 51.3899H107.427Z" fill="#1B1C21"/>
<path d="M142.468 50.9226C142.468 50.9226 151.481 49.6314 160.354 49.3718C160.354 49.3718 172.02 80.5846 172.02 82.5473C172.02 84.51 166.431 88.9614 160.891 85.4177C151.65 79.5078 145.878 81.5241 141.323 82.5892C134.498 84.1885 142.468 50.9226 142.468 50.9226Z" fill="white"/>
<path d="M165.244 86.997C163.647 86.9867 162.088 86.5118 160.756 85.6305C152.247 80.1878 146.759 81.5258 142.348 82.601C142.013 82.6814 141.697 82.7685 141.382 82.8338C141.071 82.9241 140.742 82.928 140.43 82.8451C140.117 82.7622 139.833 82.5956 139.608 82.3632C135.68 78.4143 141.953 51.9878 142.224 50.8641C142.236 50.815 142.262 50.7705 142.299 50.7367C142.337 50.7029 142.383 50.6813 142.433 50.6748C142.524 50.6614 151.562 49.3769 160.353 49.1207C160.406 49.1192 160.458 49.1346 160.501 49.1647C160.545 49.1948 160.578 49.2381 160.595 49.2882C161.073 50.5643 172.278 80.5646 172.278 82.5507C172.278 83.5807 171.039 85.0058 169.336 85.9386C168.08 86.6236 166.675 86.9872 165.244 86.997ZM148.807 81.1189C152.125 81.1189 156.075 82.0366 161.033 85.2068C164.606 87.4927 167.86 86.1697 169.093 85.4948C170.767 84.5771 171.772 83.2742 171.772 82.5457C171.772 81.0385 164.236 60.4566 160.185 49.6281C152.147 49.876 143.941 50.9679 142.676 51.1471C142.139 53.4397 136.39 78.4109 139.967 82.0098C140.132 82.1797 140.341 82.3008 140.571 82.3598C140.801 82.4189 141.043 82.4137 141.27 82.3448C141.584 82.2711 141.905 82.194 142.233 82.1137C144.165 81.6414 146.305 81.1189 148.807 81.1189Z" fill="#1B1C21"/>
<path d="M104.93 54.7695C106.489 67.6093 114.204 72.5346 118.972 74.0853C128.506 77.1852 137.41 70.8599 137.41 70.8599L136.59 89.6984C136.59 89.6984 141.197 92.4332 141.197 92.1903C141.197 91.9726 142.829 58.0787 143.154 51.328C143.162 51.1784 143.135 51.0291 143.076 50.8913C143.018 50.7535 142.929 50.6306 142.816 50.5321C142.703 50.4335 142.57 50.3617 142.425 50.322C142.281 50.2824 142.129 50.2759 141.982 50.3031C140.748 50.5225 138.877 51.0969 137.831 52.5908C136.173 54.9554 130.172 62.9738 123.093 64.3722C117.409 65.4875 110.533 54.3609 109.497 53.9891L104.93 54.7695Z" fill="url(#paint8_linear_989_79093)"/>
<path d="M131.209 57.0588H148.639C148.923 57.0706 149.194 57.1797 149.408 57.3678C149.621 57.5559 149.764 57.8116 149.811 58.0921L153.767 82.5542C153.859 83.1236 153.487 83.5858 152.938 83.5858H135.497C135.215 83.5719 134.946 83.4621 134.735 83.2745C134.524 83.0869 134.383 82.8328 134.335 82.5542L130.385 58.0871C130.287 57.516 130.658 57.0588 131.209 57.0588Z" fill="url(#paint9_linear_989_79093)"/>
<path opacity="0.6" d="M131.209 57.0586H148.639C148.923 57.0704 149.194 57.1794 149.408 57.3675C149.621 57.5556 149.764 57.8114 149.811 58.0919L153.767 82.554C153.859 83.1234 153.487 83.5856 152.938 83.5856H135.497C135.215 83.5717 134.946 83.4618 134.735 83.2742C134.524 83.0867 134.383 82.8326 134.335 82.554L130.385 58.0869C130.287 57.5158 130.658 57.0586 131.209 57.0586Z" fill="white"/>
<path d="M152.928 83.8319H135.498C135.156 83.82 134.828 83.6897 134.571 83.463C134.313 83.2364 134.143 82.9276 134.088 82.5893L130.132 58.1272C130.102 57.9604 130.108 57.7889 130.15 57.6247C130.192 57.4605 130.27 57.3074 130.377 57.1759C130.48 57.0558 130.609 56.96 130.754 56.8955C130.899 56.8309 131.056 56.7992 131.214 56.8025H148.639C148.982 56.815 149.31 56.9457 149.567 57.1726C149.825 57.3994 149.996 57.7083 150.051 58.0468L153.998 82.5139C154.028 82.6804 154.022 82.8516 153.98 83.0155C153.938 83.1794 153.861 83.3322 153.754 83.4634C153.651 83.5812 153.524 83.6752 153.382 83.7388C153.239 83.8025 153.084 83.8342 152.928 83.8319ZM131.209 57.3049C131.124 57.3025 131.04 57.3191 130.963 57.3532C130.885 57.3874 130.816 57.4384 130.76 57.5025C130.7 57.5783 130.657 57.6662 130.635 57.7601C130.612 57.8541 130.61 57.9519 130.628 58.0468L134.584 82.5139C134.622 82.7333 134.733 82.9335 134.899 83.0822C135.065 83.231 135.276 83.3199 135.498 83.3345H152.928C153.013 83.3367 153.097 83.3203 153.174 83.2864C153.252 83.2526 153.321 83.2021 153.377 83.1386C153.437 83.0628 153.48 82.9749 153.503 82.8809C153.526 82.787 153.528 82.6892 153.509 82.5943L149.554 58.1322C149.514 57.9129 149.402 57.7132 149.236 57.5643C149.07 57.4155 148.86 57.326 148.638 57.3099L131.209 57.3049Z" fill="#1B1C21"/>
<path d="M151.226 66.9543L151.515 68.7965C151.521 68.9935 151.482 69.1892 151.402 69.3694C151.322 69.5496 151.203 69.7097 151.054 69.838C150.904 69.9664 150.728 70.0598 150.538 70.1114C150.348 70.1629 150.148 70.1714 149.955 70.1362L145.411 69.309C145.247 69.2784 145.078 69.2854 144.917 69.3294C144.756 69.3734 144.608 69.4532 144.482 69.563C144.356 69.6727 144.257 69.8094 144.192 69.963C144.126 70.1165 144.097 70.2828 144.105 70.4494C144.128 70.8547 144.309 71.3253 144.812 71.8159C145.046 72.0437 149.079 75.1201 152.18 74.5608C152.314 74.5373 155.216 76.1718 155.327 76.0914C155.814 75.7431 156.154 74.6277 156.261 73.6882C156.271 73.6079 153.858 72.2463 153.614 71.4978C153.369 70.7492 153.567 70.158 153.26 68.8434C152.897 67.2977 151.226 66.9543 151.226 66.9543Z" fill="white"/>
<path d="M155.325 76.3562C155.157 76.3562 154.784 76.1737 153.428 75.4636C152.939 75.2057 152.337 74.8908 152.161 74.8222C148.821 75.3799 144.671 72.0338 144.635 71.9987C144.146 71.5231 143.884 71.0073 143.852 70.468C143.84 70.2655 143.875 70.063 143.954 69.8759C144.032 69.6888 144.152 69.5219 144.304 69.3878C144.459 69.2502 144.643 69.1497 144.842 69.094C145.041 69.0382 145.251 69.0288 145.454 69.0663L149.998 69.8936C150.154 69.9214 150.314 69.9146 150.466 69.8735C150.619 69.8324 150.761 69.7581 150.882 69.6559C151.002 69.5537 151.099 69.4261 151.165 69.2822C151.231 69.1383 151.264 68.9817 151.262 68.8235L150.983 66.993C150.976 66.953 150.979 66.9119 150.992 66.8733C151.005 66.8348 151.027 66.8 151.056 66.772C151.086 66.7439 151.122 66.7234 151.161 66.7124C151.2 66.7013 151.241 66.6999 151.281 66.7083C151.356 66.7234 153.123 67.1052 153.506 68.79C153.628 69.32 153.696 69.8608 153.711 70.4044C153.709 70.7494 153.756 71.0929 153.853 71.4243C154.002 71.8814 155.36 72.7774 155.945 73.1592C156.475 73.5092 156.531 73.5461 156.511 73.7219C156.405 74.6447 156.069 75.8722 155.474 76.2993C155.433 76.3364 155.38 76.3568 155.325 76.3562ZM152.183 74.3081C152.29 74.3081 152.486 74.3985 153.66 75.0148C154.196 75.2944 154.975 75.7031 155.256 75.8169C155.573 75.5021 155.868 74.6932 155.988 73.7939L155.662 73.5762C154.605 72.8795 153.557 72.1527 153.369 71.5766C153.258 71.2026 153.202 70.8146 153.201 70.4245C153.189 69.9113 153.124 69.4007 153.009 68.9005C152.788 67.9409 152.004 67.4954 151.533 67.3112L151.761 68.7598C151.762 68.771 151.762 68.7822 151.761 68.7933C151.767 69.0274 151.721 69.2598 151.625 69.4737C151.53 69.6876 151.388 69.8775 151.21 70.0299C151.033 70.1822 150.823 70.293 150.597 70.3543C150.371 70.4156 150.134 70.4258 149.904 70.3843L145.361 69.557C145.232 69.5332 145.1 69.5391 144.974 69.5742C144.848 69.6093 144.732 69.6728 144.634 69.7596C144.539 69.8427 144.464 69.946 144.415 70.062C144.366 70.178 144.343 70.3036 144.349 70.4295C144.374 70.8398 144.587 71.2434 144.982 71.6286C145.332 71.9635 149.224 74.8306 152.125 74.3081C152.144 74.3062 152.164 74.3062 152.183 74.3081Z" fill="#1B1C21"/>
<path d="M155.276 72.3904C157.278 72.7254 157.556 73.7034 160.039 72.6115C165.636 70.148 164.578 61.5401 163.625 57.2563C163.429 56.3754 163.184 55.5163 162.92 54.7091C162.432 53.2237 168.446 51.8487 169.506 52.9926C170.993 54.5898 172.274 56.3665 173.321 58.2812C176.808 64.6802 177.943 78.9987 166.287 81.5878C160.143 82.951 155.26 77.9035 153.501 75.7415C153.093 75.2458 154.704 72.2983 155.276 72.3904Z" fill="url(#paint10_linear_989_79093)"/>
<path d="M171.234 80.0019C171.198 80.0017 171.162 79.9939 171.129 79.9789C171.096 79.9639 171.067 79.942 171.043 79.9148C171.021 79.8896 171.005 79.8605 170.995 79.829C170.984 79.7975 170.981 79.7643 170.983 79.7313C170.986 79.6983 170.995 79.6662 171.01 79.6368C171.025 79.6073 171.046 79.5811 171.071 79.5597C175.792 75.5254 175.395 68.7898 175.392 68.7229C175.39 68.6899 175.394 68.6568 175.405 68.6254C175.415 68.5941 175.432 68.5652 175.454 68.5403C175.475 68.5154 175.502 68.4951 175.532 68.4804C175.561 68.4658 175.593 68.4571 175.626 68.4549C175.659 68.4527 175.692 68.457 175.724 68.4676C175.755 68.4782 175.784 68.4949 175.809 68.5166C175.834 68.5384 175.854 68.5649 175.869 68.5945C175.883 68.6241 175.892 68.6564 175.894 68.6894C175.894 68.7597 176.31 75.7448 171.399 79.9416C171.353 79.981 171.294 80.0025 171.234 80.0019Z" fill="#1B1C21"/>
<path fill-rule="evenodd" clip-rule="evenodd" d="M138.45 53.4902C138.646 53.4043 138.859 53.3647 139.072 53.3745C139.551 53.3868 140.012 53.5603 140.381 53.8669C140.749 54.1735 141.003 54.5953 141.102 55.0643L141.223 55.7543H143.923C144.094 55.7589 144.258 55.8212 144.389 55.9309C144.521 56.0406 144.611 56.1914 144.646 56.3588L144.954 58.0938C144.969 58.1678 144.968 58.2442 144.95 58.3175C144.931 58.3908 144.897 58.4591 144.849 58.5172C144.8 58.5753 144.74 58.6217 144.671 58.6531C144.602 58.6845 144.527 58.6999 144.452 58.6984H135.599C135.429 58.6929 135.265 58.6304 135.135 58.5207C135.004 58.4111 134.914 58.2607 134.879 58.0938L134.571 56.3588C134.556 56.2849 134.557 56.2084 134.575 56.1351C134.594 56.0618 134.628 55.9935 134.677 55.9355C134.725 55.8774 134.786 55.8309 134.854 55.7995C134.923 55.7682 134.998 55.7527 135.073 55.7543H137.773L137.651 55.0676C137.604 54.8589 137.606 54.6422 137.657 54.4345C137.708 54.2268 137.806 54.0335 137.943 53.8698C138.081 53.706 138.254 53.5761 138.45 53.4902ZM138.953 55.4986C139.127 55.6433 139.35 55.7135 139.575 55.6939L139.581 55.6906C139.724 55.6753 139.856 55.6055 139.948 55.4956C140.04 55.3857 140.087 55.2443 140.077 55.1011C140.056 54.8764 139.947 54.6691 139.774 54.5244C139.601 54.3797 139.378 54.3095 139.153 54.3291C139.008 54.3431 138.875 54.4129 138.781 54.5236C138.687 54.6343 138.641 54.7771 138.65 54.9219C138.671 55.1466 138.78 55.3539 138.953 55.4986Z" fill="url(#paint11_linear_989_79093)"/>
<path opacity="0.8" fill-rule="evenodd" clip-rule="evenodd" d="M138.45 53.4902C138.646 53.4043 138.859 53.3647 139.072 53.3745C139.551 53.3868 140.012 53.5603 140.381 53.8669C140.749 54.1735 141.003 54.5953 141.102 55.0643L141.223 55.7543H143.923C144.094 55.7589 144.258 55.8212 144.389 55.9309C144.521 56.0406 144.611 56.1914 144.646 56.3588L144.954 58.0938C144.969 58.1678 144.968 58.2442 144.95 58.3175C144.931 58.3908 144.897 58.4591 144.849 58.5172C144.8 58.5753 144.74 58.6217 144.671 58.6531C144.602 58.6845 144.527 58.6999 144.452 58.6984H135.599C135.429 58.6929 135.265 58.6304 135.135 58.5207C135.004 58.4111 134.914 58.2607 134.879 58.0938L134.571 56.3588C134.556 56.2849 134.557 56.2084 134.575 56.1351C134.594 56.0618 134.628 55.9935 134.677 55.9355C134.725 55.8774 134.786 55.8309 134.854 55.7995C134.923 55.7682 134.998 55.7527 135.073 55.7543H137.773L137.651 55.0676C137.604 54.8589 137.606 54.6422 137.657 54.4345C137.708 54.2268 137.806 54.0335 137.943 53.8698C138.081 53.706 138.254 53.5761 138.45 53.4902ZM138.953 55.4986C139.127 55.6433 139.35 55.7135 139.575 55.6939L139.581 55.6906C139.724 55.6753 139.856 55.6055 139.948 55.4956C140.04 55.3857 140.087 55.2443 140.077 55.1011C140.056 54.8764 139.947 54.6691 139.774 54.5244C139.601 54.3797 139.378 54.3095 139.153 54.3291C139.008 54.3431 138.875 54.4129 138.781 54.5236C138.687 54.6343 138.641 54.7771 138.65 54.9219C138.671 55.1466 138.78 55.3539 138.953 55.4986Z" fill="white"/>
<path d="M150.161 32.2817C149.636 32.7222 144.528 36.3562 148.487 43.7466C148.487 43.7466 149.543 47.8864 147.304 49.4489C147.21 49.5147 147.131 49.6015 147.075 49.7025C147.02 49.8036 146.988 49.9161 146.983 50.0314C146.978 50.1467 147 50.2616 147.047 50.3671C147.093 50.4726 147.164 50.5659 147.252 50.6396C148.006 51.266 149.361 52.038 151.473 52.0732C153.787 52.1117 155.71 51.2626 156.775 50.6597C156.877 50.601 156.964 50.5189 157.029 50.4202C157.093 50.3214 157.133 50.2087 157.146 50.0914C157.158 49.9741 157.143 49.8555 157.101 49.7452C157.059 49.635 156.991 49.5364 156.904 49.4573C155.767 48.4236 154.935 47.0976 154.5 45.6239C154.376 45.1898 154.373 44.7298 154.491 44.2938C154.609 43.8579 154.844 43.4625 155.17 43.1504C156.171 42.2233 156.771 40.9436 156.845 39.5817C157.021 36.5907 155.216 35.7299 154.035 34.9495C151.642 33.3653 150.161 32.2817 150.161 32.2817Z" fill="white"/>
<path d="M151.619 52.3261H151.461C149.284 52.291 147.881 51.4888 147.086 50.834C146.968 50.735 146.875 50.6103 146.813 50.4696C146.751 50.3289 146.723 50.176 146.729 50.0225C146.736 49.869 146.778 49.7191 146.851 49.5843C146.925 49.4494 147.029 49.3333 147.154 49.2447C149.132 47.8648 148.326 44.1972 148.244 43.8372C146.622 40.7892 146.307 38.0009 147.308 35.5492C147.872 34.2123 148.771 33.0436 149.919 32.1562L150.001 32.0909L150.152 31.9653L150.311 32.0809C150.326 32.0926 151.818 33.1795 154.18 34.742L154.489 34.9396C155.662 35.6882 157.273 36.7131 157.103 39.5985C157.023 41.0259 156.39 42.3658 155.338 43.3348C155.044 43.6141 154.833 43.9692 154.727 44.3609C154.621 44.7526 154.625 45.1659 154.739 45.5554C155.158 46.9855 155.964 48.2721 157.068 49.2732C157.185 49.3804 157.276 49.5139 157.331 49.6626C157.387 49.8114 157.406 49.9712 157.388 50.129C157.371 50.2851 157.316 50.4347 157.228 50.5653C157.141 50.6959 157.023 50.8035 156.886 50.8792C155.282 51.8029 153.469 52.301 151.619 52.3261ZM150.17 32.5984C148.223 34.1826 145.523 37.6844 148.702 43.6278L148.723 43.6831C148.769 43.8589 149.797 48.0122 147.441 49.655C147.378 49.6994 147.326 49.7577 147.289 49.8253C147.252 49.893 147.231 49.9682 147.228 50.0452C147.224 50.1215 147.239 50.1976 147.27 50.2674C147.301 50.3372 147.348 50.3987 147.407 50.4471C148.141 51.0551 149.442 51.7869 151.47 51.8221C153.778 51.8589 155.703 50.973 156.645 50.4404C156.712 50.4031 156.769 50.3501 156.812 50.286C156.854 50.2219 156.881 50.1485 156.889 50.072C156.898 49.9921 156.887 49.9113 156.858 49.8364C156.829 49.7615 156.782 49.6947 156.722 49.6416C155.549 48.5784 154.693 47.211 154.25 45.691C154.111 45.2131 154.106 44.7061 154.236 44.2257C154.366 43.7452 154.627 43.3101 154.988 42.968C155.944 42.085 156.52 40.8657 156.594 39.5667C156.747 36.9777 155.342 36.0817 154.213 35.3616L153.896 35.159C151.966 33.8812 150.612 32.9166 150.17 32.5984Z" fill="#1B1C21"/>
<path d="M150.648 44.9341C150.138 44.9286 149.638 44.7963 149.192 44.5493C148.746 44.3022 148.369 43.9482 148.094 43.519C148.076 43.4904 148.064 43.4583 148.058 43.4248C148.053 43.3912 148.054 43.3569 148.062 43.3239C148.07 43.2909 148.085 43.2599 148.105 43.2328C148.126 43.2057 148.151 43.183 148.181 43.1661C148.21 43.1492 148.243 43.1384 148.277 43.1345C148.311 43.1306 148.345 43.1335 148.377 43.1432C148.41 43.1529 148.44 43.169 148.466 43.1908C148.493 43.2125 148.514 43.2393 148.529 43.2695C148.571 43.3415 149.548 44.981 151.711 44.2408C151.774 44.2186 151.844 44.2224 151.904 44.2513C151.964 44.2802 152.011 44.3318 152.033 44.3949C152.055 44.458 152.051 44.5273 152.022 44.5876C151.994 44.6479 151.942 44.6942 151.879 44.7164C151.483 44.8565 151.067 44.93 150.648 44.9341Z" fill="#1B1C21"/>
<path d="M181.001 23.4998L177.722 31.8732C176.397 35.3113 181.038 40.27 188.086 42.9512C195.135 45.6324 201.924 45.0194 203.249 41.583L206.528 33.2096L181.001 23.4998Z" fill="url(#paint12_linear_989_79093)"/>
<path d="M196.423 44.8738C193.836 44.8738 190.896 44.291 187.998 43.1874C183.019 41.2933 179.083 38.2303 177.728 35.1941C177.174 33.9515 177.094 32.8043 177.487 31.7828L180.766 23.4094C180.79 23.3476 180.838 23.2978 180.898 23.2708C180.959 23.2438 181.028 23.2418 181.09 23.2653L206.618 32.9785C206.681 33.0028 206.731 33.0508 206.758 33.112C206.785 33.1732 206.787 33.2426 206.762 33.3051L203.483 41.6785C202.814 43.4335 200.804 44.5472 197.838 44.8152C197.379 44.8554 196.907 44.8749 196.423 44.8738ZM181.143 23.823L177.961 31.9653C177.618 32.8562 177.697 33.8745 178.194 34.9898C179.477 37.8635 183.397 40.8964 188.182 42.7168C195.092 45.3444 201.747 44.7951 203.021 41.4926L206.203 33.3536L181.143 23.823Z" fill="#1B1C21"/>
<path d="M208.222 30.9338L197.27 20.395C197.057 20.2134 196.788 20.111 196.508 20.1053L181.268 20.683L176.057 18.7002L175.087 21.2122C175.054 21.2948 175.048 21.3858 175.069 21.4721C175.091 21.5584 175.139 21.6357 175.208 21.6929L190.762 35.0016C190.975 35.1825 191.244 35.2847 191.524 35.2913L212.051 35.7049C212.14 35.7074 212.227 35.6819 212.301 35.632C212.375 35.5822 212.432 35.5105 212.463 35.4269L213.432 32.9149L208.222 30.9338Z" fill="url(#paint13_linear_989_79093)"/>
<path opacity="0.8" d="M208.222 30.9338L197.27 20.395C197.057 20.2134 196.788 20.111 196.508 20.1053L181.268 20.683L176.057 18.7002L175.087 21.2122C175.054 21.2948 175.048 21.3858 175.069 21.4721C175.091 21.5584 175.139 21.6357 175.208 21.6929L190.762 35.0016C190.975 35.1825 191.244 35.2847 191.524 35.2913L212.051 35.7049C212.14 35.7074 212.227 35.6819 212.301 35.632C212.375 35.5822 212.432 35.5105 212.463 35.4269L213.432 32.9149L208.222 30.9338Z" fill="white"/>
<path d="M212.061 35.9577H212.048L191.521 35.5441C191.183 35.5367 190.858 35.4131 190.6 35.1941L175.046 21.8904C174.938 21.7997 174.861 21.6771 174.827 21.5403C174.792 21.4035 174.802 21.2593 174.855 21.1284L175.824 18.6164C175.848 18.5546 175.896 18.5048 175.956 18.4778C176.017 18.4508 176.086 18.4489 176.148 18.4724L181.312 20.4368L196.498 19.8607C196.842 19.8649 197.173 19.9887 197.434 20.2107L208.36 30.7227L213.523 32.6871C213.554 32.6986 213.583 32.7162 213.607 32.739C213.631 32.7617 213.65 32.789 213.664 32.8194C213.689 32.8811 213.689 32.9502 213.664 33.012L212.694 35.524C212.646 35.6524 212.559 35.7629 212.446 35.8405C212.333 35.9181 212.198 35.959 212.061 35.9577ZM176.203 19.0217L175.324 21.3059C175.308 21.3398 175.305 21.3778 175.314 21.4139C175.323 21.4499 175.343 21.4821 175.372 21.5052L190.927 34.8139C191.096 34.9569 191.309 35.0378 191.531 35.0434L212.058 35.4553C212.094 35.4547 212.13 35.4432 212.159 35.4224C212.189 35.4015 212.212 35.3721 212.225 35.3381L213.104 33.0572L208.127 31.1648C208.096 31.1528 208.068 31.1346 208.044 31.1112L197.091 20.5724C196.924 20.4343 196.715 20.357 196.498 20.353L181.275 20.9308C181.242 20.9319 181.208 20.9262 181.177 20.9141L176.203 19.0217Z" fill="#1B1C21"/>
<path d="M213.313 32.4408L197.759 19.1321C197.546 18.95 197.277 18.8471 196.997 18.8407L176.47 18.4271C176.381 18.4253 176.294 18.451 176.22 18.5006C176.146 18.5501 176.09 18.6212 176.058 18.7041C176.026 18.7871 176.021 18.8778 176.042 18.964C176.064 19.0501 176.111 19.1276 176.179 19.1857L191.733 32.4944C191.946 32.6763 192.216 32.7787 192.497 32.7842L213.022 33.1978C213.11 33.2001 213.198 33.1749 213.272 33.1255C213.346 33.0762 213.403 33.0051 213.434 32.9222C213.466 32.8392 213.472 32.7484 213.45 32.6622C213.428 32.576 213.38 32.4987 213.313 32.4408Z" fill="url(#paint14_linear_989_79093)"/>
<path d="M213.031 33.4457H213.018L192.493 33.032C192.155 33.0257 191.829 32.902 191.572 32.682L176.016 19.3783C175.91 19.286 175.835 19.1636 175.801 19.0274C175.768 18.8913 175.776 18.7481 175.827 18.6172C175.877 18.4862 175.966 18.3738 176.082 18.2952C176.198 18.2166 176.336 18.1755 176.476 18.1776L197.003 18.5929C197.341 18.5997 197.666 18.7234 197.924 18.9429L213.478 32.2516C213.584 32.3424 213.66 32.4636 213.695 32.5988C213.73 32.7339 213.722 32.8765 213.673 33.0072C213.625 33.138 213.537 33.2507 213.422 33.33C213.307 33.4093 213.171 33.4514 213.031 33.4507V33.4457ZM176.463 18.6749C176.426 18.6747 176.39 18.6861 176.36 18.7074C176.33 18.7287 176.307 18.759 176.295 18.7938C176.281 18.8275 176.277 18.8652 176.286 18.9009C176.295 18.9366 176.315 18.9684 176.344 18.9915L191.9 32.3002C192.069 32.4443 192.283 32.5254 192.505 32.5296L213.028 32.9433C213.065 32.9449 213.101 32.9344 213.132 32.9132C213.162 32.8919 213.184 32.8613 213.195 32.826C213.21 32.7923 213.213 32.7547 213.204 32.719C213.196 32.6833 213.175 32.6514 213.147 32.6284L197.592 19.3197C197.423 19.1757 197.21 19.0941 196.988 19.0886L176.461 18.6749H176.463Z" fill="#1B1C21"/>
<path d="M203.72 40.5078C203.535 40.5032 203.356 40.569 203.218 40.6918C203.08 40.8146 202.993 40.9853 202.976 41.1693L201.953 51.9325L204.889 52.0078L204.427 41.2061C204.419 41.0218 204.342 40.847 204.211 40.7174C204.08 40.5877 203.904 40.5128 203.72 40.5078Z" fill="url(#paint15_linear_989_79093)"/>
<path opacity="0.7" d="M203.72 40.5078C203.535 40.5032 203.356 40.569 203.218 40.6918C203.08 40.8146 202.993 40.9853 202.976 41.1693L201.953 51.9325L204.889 52.0078L204.427 41.2061C204.419 41.0218 204.342 40.847 204.211 40.7174C204.08 40.5877 203.904 40.5128 203.72 40.5078Z" fill="white"/>
<path d="M204.889 52.2592L201.953 52.1838C201.919 52.1831 201.885 52.1752 201.854 52.1607C201.822 52.1462 201.794 52.1254 201.772 52.0996C201.749 52.0738 201.732 52.0436 201.721 52.0108C201.71 51.978 201.707 51.9434 201.71 51.9092L202.732 41.1493C202.751 40.8996 202.866 40.6669 203.052 40.4992C203.238 40.3316 203.482 40.2417 203.732 40.2481C203.982 40.2546 204.221 40.3568 204.398 40.5339C204.575 40.7109 204.678 40.9492 204.684 41.1996L205.147 52.0013C205.148 52.0355 205.142 52.0696 205.13 52.1016C205.117 52.1335 205.099 52.1626 205.075 52.1872C205.05 52.2111 205.021 52.2299 204.989 52.2423C204.957 52.2546 204.923 52.2604 204.889 52.2592ZM202.229 51.6881L204.626 51.7501L204.177 41.218C204.172 41.0972 204.121 40.9828 204.035 40.8978C203.949 40.8127 203.834 40.7632 203.713 40.7591C203.593 40.758 203.476 40.8018 203.386 40.882C203.296 40.9621 203.239 41.073 203.226 41.1929L202.229 51.6881Z" fill="#1B1C21"/>
<path d="M203.585 40.6651C203.552 40.6647 203.52 40.6578 203.489 40.6447C203.459 40.6317 203.432 40.6128 203.409 40.5892C203.386 40.5656 203.367 40.5376 203.355 40.507C203.343 40.4763 203.337 40.4436 203.337 40.4106L203.445 33.1642L194.763 25.5293C194.713 25.4849 194.682 25.4224 194.678 25.3555C194.674 25.2886 194.697 25.2228 194.741 25.1726C194.786 25.1224 194.848 25.092 194.915 25.0879C194.982 25.0838 195.048 25.1064 195.098 25.1509L203.867 32.8544C203.894 32.8783 203.916 32.908 203.931 32.9412C203.945 32.9745 203.953 33.0106 203.952 33.047L203.843 40.4156C203.843 40.4491 203.836 40.4822 203.823 40.5131C203.81 40.5439 203.791 40.5718 203.767 40.5951C203.743 40.6184 203.715 40.6366 203.683 40.6486C203.652 40.6606 203.619 40.6663 203.585 40.6651Z" fill="#1B1C21"/>
<path d="M131.202 141.411C131.184 141.413 131.166 141.413 131.148 141.411C130.168 141.202 129.177 140.967 128.199 140.714C128.136 140.695 128.084 140.652 128.052 140.595C128.02 140.538 128.011 140.471 128.028 140.407C128.044 140.344 128.084 140.289 128.14 140.255C128.195 140.22 128.262 140.209 128.326 140.222C129.296 140.473 130.282 140.706 131.253 140.915C131.314 140.929 131.367 140.965 131.403 141.015C131.439 141.066 131.455 141.128 131.449 141.189C131.443 141.251 131.414 141.308 131.368 141.35C131.323 141.392 131.264 141.416 131.202 141.418V141.411Z" fill="#1B1C21"/>
<path d="M145.552 142.95C140.711 142.943 135.883 142.424 131.15 141.403C131.085 141.389 131.028 141.349 130.992 141.293C130.955 141.237 130.943 141.169 130.957 141.104C130.971 141.038 131.01 140.981 131.066 140.945C131.122 140.909 131.19 140.896 131.256 140.91C144.836 143.821 158.732 142.525 170.383 137.258C170.413 137.244 170.446 137.237 170.479 137.235C170.512 137.234 170.545 137.24 170.576 137.252C170.607 137.263 170.635 137.281 170.659 137.303C170.683 137.326 170.703 137.353 170.716 137.383C170.73 137.413 170.737 137.446 170.739 137.479C170.74 137.512 170.734 137.545 170.722 137.576C170.711 137.607 170.693 137.635 170.671 137.659C170.648 137.684 170.621 137.703 170.591 137.717C164.559 140.417 158.119 142.093 151.536 142.675C149.554 142.858 147.56 142.95 145.552 142.95Z" fill="#1B1C21"/>
<path d="M145.698 139.259C142.718 139.258 139.741 139.045 136.791 138.621C136.758 138.616 136.726 138.605 136.697 138.588C136.669 138.571 136.643 138.549 136.623 138.522C136.603 138.496 136.589 138.466 136.58 138.433C136.572 138.401 136.57 138.368 136.575 138.335C136.579 138.302 136.59 138.27 136.607 138.241C136.624 138.212 136.647 138.187 136.673 138.167C136.7 138.147 136.73 138.133 136.762 138.124C136.795 138.116 136.828 138.114 136.861 138.118C146.795 139.542 156.694 138.559 165.485 135.272C165.547 135.249 165.616 135.251 165.677 135.279C165.737 135.306 165.784 135.357 165.808 135.419C165.831 135.481 165.829 135.55 165.801 135.611C165.774 135.672 165.723 135.719 165.661 135.742C159.431 138.078 152.658 139.259 145.698 139.259Z" fill="#1B1C21"/>
<path d="M144.766 18.3114C144.71 18.3113 144.655 18.2921 144.611 18.257C144.566 18.2219 144.535 18.1729 144.522 18.1179C144.509 18.063 144.515 18.0052 144.539 17.954C144.563 17.9029 144.603 17.8612 144.654 17.8358C152.795 13.7262 161.736 11.4486 170.491 11.2476C170.558 11.2461 170.622 11.271 170.67 11.3171C170.719 11.3631 170.746 11.4263 170.748 11.493C170.75 11.5596 170.725 11.6241 170.679 11.6723C170.633 11.7205 170.569 11.7485 170.503 11.75C161.816 11.9476 152.955 14.2085 144.88 18.2813C144.845 18.3002 144.806 18.3105 144.766 18.3114Z" fill="#1B1C21"/>
<path d="M148.788 19.7584C148.73 19.7589 148.674 19.7392 148.629 19.7028C148.583 19.6663 148.552 19.6153 148.54 19.5585C148.529 19.5016 148.537 19.4424 148.564 19.3909C148.591 19.3394 148.635 19.2989 148.688 19.2761C155.172 16.4246 162.142 14.8409 169.221 14.6104C169.288 14.6086 169.353 14.6333 169.401 14.6792C169.45 14.725 169.479 14.7882 169.481 14.8549C169.482 14.8879 169.476 14.9208 169.464 14.9516C169.452 14.9824 169.435 15.0106 169.412 15.0346C169.389 15.0585 169.362 15.0778 169.332 15.0912C169.302 15.1046 169.269 15.112 169.236 15.1128C162.221 15.3403 155.314 16.9099 148.889 19.7367C148.857 19.751 148.823 19.7585 148.788 19.7584Z" fill="#1B1C21"/>
<path d="M90.4615 58.2511C90.4285 58.2511 90.3958 58.2446 90.3653 58.232C90.3348 58.2193 90.3072 58.2008 90.2839 58.1774L89.6425 57.536C89.619 57.5128 89.6004 57.4851 89.5877 57.4546C89.5749 57.4242 89.5684 57.3915 89.5684 57.3585C89.5684 57.3254 89.5749 57.2927 89.5877 57.2623C89.6004 57.2318 89.619 57.2041 89.6425 57.1809C89.6898 57.1343 89.7536 57.1082 89.8201 57.1082C89.8865 57.1082 89.9503 57.1343 89.9976 57.1809L90.639 57.8223C90.674 57.8575 90.6979 57.9022 90.7076 57.9509C90.7173 57.9996 90.7123 58.0501 90.6933 58.096C90.6743 58.1418 90.6422 58.181 90.6009 58.2087C90.5596 58.2363 90.5111 58.251 90.4615 58.2511Z" fill="#1B1C21"/>
<path d="M92.7042 60.4917C92.6377 60.4915 92.5739 60.465 92.5267 60.4181L91.8853 59.7783C91.8387 59.731 91.8125 59.6672 91.8125 59.6008C91.8125 59.5344 91.8387 59.4706 91.8853 59.4233C91.9085 59.3998 91.9362 59.3811 91.9666 59.3684C91.9971 59.3557 92.0298 59.3491 92.0628 59.3491C92.0958 59.3491 92.1285 59.3557 92.159 59.3684C92.1895 59.3811 92.2171 59.3998 92.2403 59.4233L92.8817 60.063C92.9052 60.0862 92.9239 60.1139 92.9366 60.1443C92.9493 60.1748 92.9559 60.2075 92.9559 60.2405C92.9559 60.2736 92.9493 60.3063 92.9366 60.3367C92.9239 60.3672 92.9052 60.3948 92.8817 60.4181C92.8346 60.465 92.7708 60.4915 92.7042 60.4917Z" fill="#1B1C21"/>
<path d="M89.8201 60.4917C89.7535 60.4915 89.6897 60.465 89.6425 60.4181C89.619 60.3948 89.6004 60.3672 89.5877 60.3367C89.5749 60.3063 89.5684 60.2736 89.5684 60.2405C89.5684 60.2075 89.5749 60.1748 89.5877 60.1443C89.6004 60.1139 89.619 60.0862 89.6425 60.063L90.2839 59.4233C90.3072 59.3998 90.3348 59.3811 90.3653 59.3684C90.3957 59.3557 90.4284 59.3491 90.4615 59.3491C90.4945 59.3491 90.5272 59.3557 90.5576 59.3684C90.5881 59.3811 90.6157 59.3998 90.639 59.4233C90.6856 59.4706 90.7117 59.5344 90.7117 59.6008C90.7117 59.6672 90.6856 59.731 90.639 59.7783L89.9976 60.4181C89.9504 60.465 89.8866 60.4915 89.8201 60.4917Z" fill="#1B1C21"/>
<path d="M92.0635 58.2511C92.0138 58.251 91.9653 58.2363 91.9241 58.2087C91.8828 58.181 91.8506 58.1418 91.8316 58.096C91.8126 58.0501 91.8076 57.9996 91.8173 57.9509C91.827 57.9022 91.8509 57.8575 91.886 57.8223L92.5274 57.1809C92.5747 57.1343 92.6385 57.1082 92.7049 57.1082C92.7713 57.1082 92.8351 57.1343 92.8824 57.1809C92.9059 57.2041 92.9246 57.2318 92.9373 57.2623C92.95 57.2927 92.9566 57.3254 92.9566 57.3585C92.9566 57.3915 92.95 57.4242 92.9373 57.4546C92.9246 57.4851 92.9059 57.5128 92.8824 57.536L92.241 58.1774C92.2178 58.2008 92.1901 58.2193 92.1596 58.232C92.1292 58.2446 92.0965 58.2511 92.0635 58.2511Z" fill="#1B1C21"/>
<path d="M174.093 10.1424C174.027 10.1422 173.963 10.1157 173.916 10.0687L173.274 9.42734C173.23 9.37972 173.206 9.31673 173.207 9.25166C173.208 9.18658 173.235 9.12448 173.281 9.07846C173.327 9.03243 173.389 9.00607 173.454 9.00492C173.519 9.00377 173.582 9.02793 173.629 9.0723L174.271 9.71371C174.294 9.73692 174.313 9.76456 174.326 9.79503C174.338 9.8255 174.345 9.8582 174.345 9.89122C174.345 9.92425 174.338 9.95694 174.326 9.98742C174.313 10.0179 174.294 10.0455 174.271 10.0687C174.224 10.1157 174.16 10.1422 174.093 10.1424Z" fill="#1B1C21"/>
<path d="M176.329 12.3832C176.262 12.3826 176.199 12.3561 176.151 12.3095L175.512 11.6697C175.488 11.6464 175.47 11.6187 175.457 11.5882C175.444 11.5577 175.438 11.525 175.438 11.492C175.437 11.4589 175.444 11.4262 175.456 11.3956C175.469 11.3651 175.487 11.3373 175.511 11.3139C175.534 11.2904 175.562 11.2718 175.592 11.2591C175.623 11.2464 175.655 11.2398 175.689 11.2397C175.722 11.2397 175.754 11.2461 175.785 11.2587C175.815 11.2712 175.843 11.2897 175.867 11.313L176.506 11.9544C176.553 12.0015 176.58 12.0654 176.58 12.1319C176.58 12.1985 176.553 12.2624 176.506 12.3095C176.459 12.3561 176.395 12.3826 176.329 12.3832Z" fill="#1B1C21"/>
<path d="M173.446 12.3832C173.397 12.3832 173.348 12.3684 173.307 12.3408C173.266 12.3132 173.233 12.274 173.214 12.2281C173.195 12.1822 173.19 12.1318 173.2 12.0831C173.21 12.0344 173.234 11.9896 173.269 11.9545L173.91 11.3131C173.958 11.2665 174.023 11.2408 174.09 11.2417C174.156 11.2427 174.22 11.2701 174.267 11.3181C174.314 11.3661 174.339 11.4306 174.338 11.4975C174.337 11.5644 174.31 11.6282 174.262 11.6748L173.62 12.3146C173.573 12.3592 173.511 12.3838 173.446 12.3832Z" fill="#1B1C21"/>
<path d="M175.69 10.1426C175.623 10.1424 175.559 10.1159 175.511 10.0689C175.464 10.0215 175.437 9.95737 175.438 9.89052C175.437 9.82368 175.464 9.75956 175.511 9.71217L176.151 9.07244C176.198 9.0257 176.262 8.99951 176.329 8.99951C176.396 8.99951 176.46 9.0257 176.508 9.07244C176.555 9.11954 176.581 9.18339 176.581 9.24996C176.581 9.31653 176.555 9.38037 176.508 9.42747L175.868 10.0689C175.82 10.1155 175.757 10.142 175.69 10.1426Z" fill="#1B1C21"/>
<path d="M89.6303 96.3101C89.6303 96.3101 87.7278 112.129 87.4934 115.182C87.2589 118.235 86.9055 128.914 87.4934 134.196C87.8735 137.618 88.1365 139.907 88.2755 141.094C88.3063 141.361 88.4339 141.606 88.634 141.784C88.8341 141.963 89.0927 142.061 89.3607 142.061H93.2375C93.3329 142.061 93.4244 142.023 93.4922 141.956C93.5599 141.889 93.5984 141.798 93.5993 141.702C93.6177 140.279 93.7433 134.851 94.6526 130.206C95.7094 124.806 96.8833 116.354 97.4695 112.956C97.6654 111.821 97.8312 110.557 97.9719 109.321L98.4107 110.609C98.8494 111.896 100.524 120.586 100.993 123.989C101.42 127.086 102.139 139.505 102.264 141.724C102.271 141.815 102.312 141.9 102.379 141.962C102.447 142.024 102.534 142.059 102.626 142.059H107.591C107.682 142.059 107.77 142.024 107.837 141.962C107.904 141.9 107.945 141.815 107.951 141.724C108.182 139.423 109.541 125.513 109.326 119.283C109.092 112.476 106.041 104.379 105.453 102.146C104.865 99.914 104.079 94.2603 104.079 94.2603C104.079 94.2603 92.1758 94.4461 89.6303 96.3101Z" fill="#32344B"/>
<path d="M97.9738 109.525H97.9453C97.8792 109.517 97.8187 109.484 97.7773 109.432C97.7358 109.38 97.7167 109.313 97.7243 109.247C97.803 108.538 97.88 107.788 97.9537 107.015C98.0289 106.241 98.3199 105.504 98.7937 104.887C99.2674 104.271 99.9048 103.8 100.633 103.528L101.489 103.21C101.521 103.196 101.555 103.189 101.589 103.188C101.624 103.188 101.658 103.195 101.69 103.209C101.721 103.223 101.75 103.243 101.773 103.268C101.797 103.293 101.815 103.323 101.827 103.356C101.838 103.388 101.843 103.423 101.84 103.457C101.838 103.492 101.829 103.525 101.813 103.556C101.797 103.587 101.775 103.614 101.748 103.635C101.721 103.657 101.69 103.673 101.656 103.682L100.801 103.998C100.161 104.238 99.6012 104.651 99.185 105.193C98.7688 105.734 98.5128 106.382 98.4461 107.061C98.3741 107.837 98.297 108.592 98.2166 109.304C98.2091 109.364 98.1805 109.419 98.136 109.459C98.0915 109.5 98.034 109.523 97.9738 109.525Z" fill="#1B1C21"/>
<path d="M106.499 142.059H103.336C103.227 142.058 103.12 142.089 103.029 142.149C102.938 142.209 102.866 142.294 102.823 142.394C102.542 143.076 101.971 144.67 102.048 146.182C102.059 146.381 102.146 146.569 102.29 146.706C102.435 146.843 102.627 146.919 102.827 146.919H112.11C112.21 146.921 112.31 146.9 112.402 146.859C112.494 146.817 112.575 146.755 112.639 146.677C112.704 146.599 112.75 146.508 112.774 146.41C112.798 146.313 112.8 146.21 112.779 146.112C112.677 145.609 112.324 144.951 111.307 144.36C109.66 143.4 107.588 142.442 106.935 142.144C106.797 142.086 106.649 142.057 106.499 142.059Z" fill="white"/>
<path d="M112.109 147.177H102.826C102.562 147.177 102.308 147.076 102.117 146.895C101.925 146.714 101.81 146.466 101.796 146.202C101.716 144.621 102.326 142.95 102.59 142.305C102.65 142.157 102.753 142.029 102.886 141.94C103.019 141.85 103.175 141.803 103.335 141.803H106.499C106.683 141.802 106.865 141.842 107.033 141.918C107.643 142.195 109.761 143.174 111.427 144.144C112.554 144.799 112.916 145.549 113.02 146.063C113.047 146.198 113.044 146.337 113.011 146.47C112.977 146.603 112.915 146.728 112.828 146.834C112.74 146.94 112.631 147.025 112.506 147.084C112.382 147.142 112.246 147.172 112.109 147.172V147.177ZM103.335 142.31C103.275 142.309 103.217 142.327 103.167 142.36C103.117 142.393 103.078 142.441 103.056 142.496C102.803 143.111 102.218 144.698 102.299 146.18C102.305 146.316 102.363 146.444 102.461 146.538C102.56 146.631 102.69 146.683 102.826 146.683H112.109C112.173 146.683 112.236 146.669 112.294 146.642C112.352 146.615 112.403 146.575 112.444 146.525C112.483 146.477 112.511 146.421 112.525 146.361C112.54 146.3 112.542 146.238 112.529 146.177C112.409 145.584 111.942 145.037 111.176 144.591C109.53 143.633 107.43 142.664 106.822 142.389C106.717 142.341 106.603 142.317 106.487 142.319L103.335 142.31Z" fill="#1B1C21"/>
<path d="M106.928 144.387C106.879 144.385 106.832 144.369 106.791 144.341C106.751 144.312 106.72 144.273 106.703 144.227C106.685 144.181 106.681 144.131 106.691 144.083C106.702 144.035 106.726 143.991 106.761 143.957L108.092 142.647C108.115 142.621 108.143 142.6 108.174 142.585C108.205 142.57 108.239 142.562 108.274 142.561C108.309 142.56 108.343 142.566 108.375 142.579C108.407 142.591 108.436 142.611 108.461 142.635C108.485 142.66 108.504 142.689 108.516 142.722C108.529 142.754 108.534 142.789 108.533 142.823C108.531 142.858 108.522 142.892 108.507 142.923C108.492 142.954 108.47 142.981 108.444 143.004L107.108 144.31C107.084 144.334 107.057 144.353 107.026 144.367C106.995 144.38 106.962 144.387 106.928 144.387Z" fill="#1B1C21"/>
<path d="M107.786 144.923C107.752 144.923 107.719 144.916 107.689 144.903C107.658 144.89 107.63 144.871 107.607 144.847C107.56 144.8 107.533 144.736 107.533 144.67C107.533 144.603 107.56 144.539 107.607 144.492L108.938 143.183C108.986 143.139 109.049 143.115 109.114 143.117C109.18 143.119 109.241 143.145 109.287 143.192C109.333 143.238 109.359 143.301 109.359 143.366C109.359 143.431 109.335 143.494 109.29 143.541L107.958 144.851C107.912 144.896 107.851 144.922 107.786 144.923Z" fill="#1B1C21"/>
<path d="M92.5362 142.059H89.3728C89.2655 142.06 89.1608 142.092 89.0716 142.151C88.9823 142.211 88.9124 142.295 88.8704 142.394C88.589 143.075 88.0179 144.67 88.095 146.182C88.1057 146.381 88.1924 146.569 88.3373 146.706C88.4822 146.843 88.6742 146.919 88.8737 146.919H98.1565C98.2573 146.921 98.3573 146.9 98.449 146.858C98.5407 146.817 98.6218 146.755 98.6862 146.677C98.7506 146.599 98.7967 146.508 98.8209 146.41C98.8452 146.312 98.8471 146.21 98.8264 146.112C98.7242 145.609 98.3708 144.951 97.3526 144.36C95.7047 143.4 93.6348 142.442 92.9817 142.144C92.8411 142.084 92.6891 142.055 92.5362 142.059Z" fill="white"/>
<path d="M98.15 147.177H88.8673C88.6034 147.177 88.3495 147.076 88.1579 146.895C87.9662 146.714 87.8515 146.466 87.8373 146.202C87.7569 144.621 88.3665 142.95 88.6311 142.305C88.6907 142.157 88.7934 142.029 88.9259 141.94C89.0584 141.85 89.2148 141.803 89.3747 141.803H92.5365C92.7214 141.802 92.9041 141.842 93.0724 141.918C93.6803 142.195 95.7971 143.173 97.4668 144.144C98.5921 144.799 98.9539 145.549 99.0594 146.063C99.0865 146.198 99.0833 146.337 99.05 146.47C99.0167 146.603 98.9542 146.728 98.867 146.834C98.7798 146.94 98.67 147.025 98.5457 147.084C98.4214 147.142 98.2857 147.172 98.1484 147.172L98.15 147.177ZM89.3747 142.31C89.315 142.31 89.2566 142.327 89.207 142.36C89.1574 142.393 89.1189 142.441 89.0967 142.496C88.8438 143.111 88.2593 144.698 88.3397 146.18C88.3458 146.316 88.4041 146.444 88.5024 146.538C88.6007 146.631 88.7315 146.683 88.8673 146.683H98.15C98.2141 146.683 98.2775 146.67 98.3355 146.642C98.3935 146.615 98.4446 146.575 98.485 146.525C98.5244 146.477 98.5527 146.421 98.5678 146.361C98.5828 146.301 98.5843 146.238 98.5721 146.177C98.4515 145.584 97.9826 145.037 97.2189 144.591C95.5693 143.631 93.4726 142.664 92.8647 142.389C92.7595 142.341 92.6452 142.317 92.5298 142.319L89.3747 142.31Z" fill="#1B1C21"/>
<path d="M92.614 144.271C92.5806 144.271 92.5475 144.265 92.5167 144.252C92.4859 144.239 92.458 144.22 92.4348 144.196C92.3877 144.149 92.3613 144.085 92.3613 144.018C92.3613 143.952 92.3877 143.888 92.4348 143.841L93.7662 142.531C93.8137 142.484 93.8779 142.458 93.9446 142.459C94.0113 142.459 94.0752 142.486 94.122 142.534C94.1689 142.581 94.195 142.645 94.1945 142.712C94.194 142.779 94.167 142.843 94.1195 142.89L92.7881 144.199C92.7418 144.245 92.6792 144.271 92.614 144.271Z" fill="#1B1C21"/>
<path d="M93.471 144.812C93.4222 144.81 93.3752 144.793 93.3355 144.765C93.2959 144.736 93.2654 144.697 93.2477 144.651C93.23 144.606 93.2258 144.556 93.2357 144.508C93.2456 144.46 93.2692 144.417 93.3036 144.382L94.6349 143.072C94.6825 143.025 94.7467 142.999 94.8134 143C94.8801 143 94.9439 143.027 94.9908 143.075C95.0377 143.122 95.0637 143.186 95.0633 143.253C95.0628 143.32 95.0358 143.384 94.9883 143.431L93.6485 144.74C93.6006 144.786 93.5372 144.812 93.471 144.812Z" fill="#1B1C21"/>
<path d="M105.375 81.9998C105.336 81.9998 105.298 81.9911 105.263 81.9743C105.229 81.9575 105.198 81.933 105.174 81.9027C105.134 81.8493 105.116 81.7822 105.125 81.716C105.135 81.6498 105.169 81.5899 105.223 81.5493L105.558 81.2965C105.804 81.0864 106.028 80.8519 106.227 80.5964C106.248 80.5703 106.273 80.5483 106.301 80.5318C106.33 80.5154 106.361 80.5047 106.394 80.5004C106.427 80.4961 106.46 80.4983 106.492 80.5069C106.524 80.5155 106.554 80.5303 106.58 80.5504C106.606 80.5705 106.628 80.5956 106.645 80.6242C106.661 80.6528 106.672 80.6844 106.676 80.7171C106.68 80.7498 106.678 80.7831 106.669 80.815C106.661 80.8469 106.646 80.8767 106.626 80.9029C106.402 81.1931 106.148 81.4591 105.869 81.6967L105.534 81.9496C105.488 81.9836 105.432 82.0013 105.375 81.9998Z" fill="#1B1C21"/>
<path d="M104.813 81.3701C104.757 81.3699 104.702 81.351 104.658 81.3162C104.614 81.2815 104.583 81.233 104.57 81.1784C104.556 81.1238 104.562 81.0664 104.585 81.0152C104.608 80.964 104.648 80.9221 104.698 80.8962L105.066 80.7052C105.344 80.5399 105.604 80.3463 105.841 80.1275C105.892 80.0898 105.954 80.0723 106.016 80.0783C106.079 80.0844 106.137 80.1136 106.179 80.1602C106.221 80.2068 106.244 80.2675 106.243 80.3302C106.243 80.393 106.219 80.4533 106.176 80.4992C105.905 80.7465 105.609 80.9648 105.292 81.1507L104.93 81.3416C104.894 81.3611 104.854 81.3709 104.813 81.3701Z" fill="#1B1C21"/>
<path d="M92.1377 74.4856C91.1328 74.6162 85.6265 75.7282 85.1592 81.9262C85.154 81.9961 85.1688 82.0661 85.2017 82.128C85.2345 82.19 85.2843 82.2413 85.3451 82.2762C86.2729 82.8088 87.4267 83.2659 88.1804 84.033C88.934 84.8 89.1684 85.8952 89.1986 86.9486C89.2978 89.8556 89.0561 92.7643 88.4785 95.6151C88.358 96.0797 88.2934 96.557 88.2859 97.0369C88.316 98.0718 89.0211 98.735 89.9606 99.0381C92.8171 99.9515 95.8212 100.314 98.8129 100.105C101.903 99.8939 105.039 99.5137 105.135 95.7909C105.246 91.4926 105.358 87.1942 105.47 82.8958C105.513 81.1358 105.895 78.9118 104.366 77.716C102.943 76.6007 101.184 76.1971 99.4644 75.7734C98.2703 75.4803 94.9729 74.1188 92.1377 74.4856Z" fill="#25262D"/>
<path d="M105.25 82.7349L105.215 83.0514L105.017 84.8818C104.894 85.8518 104.879 86.8325 104.972 87.8058C105.002 88.3563 105.248 88.8727 105.657 89.2427C105.946 89.5182 106.296 89.7219 106.679 89.8372C108.018 90.3262 108.605 90.1721 109.092 88.7888C109.579 87.4056 109.407 86.5448 108.255 82.2492C108.172 81.9783 108.184 81.6875 108.288 81.4241C108.392 81.1607 108.582 80.9403 108.827 80.7989C109.616 80.2798 109.357 79.0355 108.628 78.0943C107.467 76.5871 105.034 82.5339 105.244 82.7349H105.25Z" fill="white"/>
<path d="M107.79 90.3432C107.379 90.3222 106.974 90.231 106.593 90.0736H106.576C106.171 89.9468 105.8 89.7292 105.491 89.4372C105.032 89.0228 104.755 88.4437 104.721 87.8261C104.625 86.8384 104.639 85.8432 104.763 84.8586L104.989 82.7753C104.976 82.6007 105.003 82.4256 105.067 82.2628C105.342 81.3468 106.784 77.8584 108.055 77.6223C108.203 77.5955 108.355 77.6131 108.493 77.6727C108.63 77.7323 108.747 77.8313 108.829 77.9572C109.381 78.6723 109.646 79.4829 109.539 80.1259C109.512 80.3076 109.448 80.4815 109.349 80.6363C109.25 80.791 109.12 80.923 108.966 81.0236C108.274 81.4774 108.464 82.1104 108.494 82.1808V82.1992C109.658 86.5534 109.823 87.451 109.319 88.8879C109.058 89.6281 108.762 90.0434 108.356 90.2276C108.179 90.3072 107.985 90.3467 107.79 90.3432ZM105.494 82.6212L105.513 82.638L105.265 84.9088C105.145 85.86 105.13 86.8214 105.22 87.7759V87.8077C105.251 88.2853 105.466 88.7324 105.819 89.0553C106.081 89.3049 106.398 89.49 106.744 89.5963H106.762C107.449 89.8475 107.864 89.896 108.149 89.7637C108.433 89.6314 108.639 89.3082 108.852 88.7053C109.311 87.3957 109.162 86.6103 108.015 82.3214C107.916 81.999 107.929 81.6528 108.05 81.3383C108.172 81.0238 108.395 80.7591 108.685 80.5865C108.78 80.5236 108.861 80.441 108.922 80.3442C108.982 80.2474 109.021 80.1387 109.036 80.0255C109.12 79.523 108.886 78.8532 108.425 78.2469C108.301 78.0878 108.199 78.0795 108.09 78.1213C107.122 78.4546 105.6 81.9597 105.494 82.6212Z" fill="#1B1C21"/>
<path d="M99.7147 83.8269L103.138 74.3683C103.222 74.1422 103.376 73.9491 103.578 73.8176C103.78 73.6861 104.019 73.6232 104.26 73.6382L117.267 74.3867C117.451 74.3975 117.63 74.4535 117.787 74.5498C117.945 74.6461 118.076 74.7798 118.17 74.939C118.263 75.0981 118.316 75.2779 118.323 75.4623C118.33 75.6467 118.292 75.83 118.212 75.9961L113.898 84.8937C113.804 85.0856 113.658 85.2469 113.476 85.3587C113.294 85.4705 113.084 85.5282 112.871 85.5251L100.755 85.3375C100.575 85.3359 100.398 85.2909 100.239 85.2065C100.08 85.1221 99.9441 85.0007 99.8421 84.8525C99.7401 84.7044 99.6752 84.5338 99.6531 84.3553C99.6309 84.1768 99.6521 83.9956 99.7147 83.8269Z" fill="white"/>
<path d="M112.885 85.7677H112.865L100.743 85.5802C100.524 85.5772 100.309 85.5217 100.116 85.4185C99.9228 85.3153 99.7571 85.1674 99.6328 84.987C99.5085 84.8066 99.4292 84.5991 99.4016 84.3818C99.374 84.1645 99.3987 83.9438 99.4739 83.738L102.897 74.2794C102.999 74.0022 103.187 73.7649 103.433 73.6024C103.68 73.4399 103.972 73.3608 104.267 73.3768L117.274 74.1253C117.499 74.1383 117.718 74.2066 117.911 74.3243C118.103 74.4421 118.264 74.6055 118.378 74.8001C118.493 74.9948 118.557 75.2146 118.566 75.4402C118.575 75.6657 118.528 75.89 118.43 76.0931L114.116 84.9924C114.003 85.2235 113.828 85.4187 113.611 85.5557C113.393 85.6927 113.142 85.7662 112.885 85.7677ZM104.193 73.8775C104.015 73.8787 103.84 73.9343 103.694 74.0369C103.548 74.1395 103.436 74.2843 103.374 74.4519L99.9512 83.9105C99.9026 84.0411 99.8861 84.1815 99.9031 84.3198C99.9201 84.4581 99.9702 84.5903 100.049 84.7052C100.128 84.8202 100.233 84.9145 100.356 84.9802C100.479 85.0459 100.616 85.0811 100.755 85.0828L112.871 85.2704C113.037 85.2735 113.2 85.2291 113.341 85.1425C113.483 85.0558 113.596 84.9305 113.669 84.7814L117.983 75.8821C118.045 75.7534 118.075 75.6112 118.069 75.4682C118.064 75.3252 118.023 75.1858 117.951 75.0624C117.878 74.939 117.776 74.8353 117.654 74.7607C117.532 74.686 117.394 74.6427 117.251 74.6345L104.242 73.8859L104.193 73.8775Z" fill="#1B1C21"/>
<path d="M86.6993 89.5812C87.6455 90.9929 88.7408 91.4434 91.1256 90.8288C93.5103 90.2142 98.5695 86.5919 101.07 83.1437C101.07 83.1437 101.237 82.8272 101.74 82.8841C102.242 82.9411 104.24 83.7215 105.734 82.3968C107.228 81.0721 106.871 80.1259 106.797 79.9467C106.67 79.6419 104.441 80.0305 103.836 79.7625C103.232 79.4946 103.24 79.0759 103.694 78.4596C104.233 77.7227 103.024 77.5553 102.113 78.8615C101.555 79.6553 100.619 80.7037 99.7686 81.1307C98.8927 81.5728 89.9834 84.7799 89.5229 84.6375C89.0623 84.4952 86.1735 82.7451 86.1735 82.7451C86.1735 82.7451 85.6711 88.0405 86.6993 89.5812Z" fill="white"/>
<path d="M89.3329 91.3496C88.0835 91.3496 87.2362 90.8355 86.4859 89.7202C85.4174 88.1259 85.8863 82.9427 85.9081 82.7233L85.9449 82.3231L86.2799 82.5308C87.3667 83.1872 89.1922 84.2574 89.5572 84.3897C90.2807 84.3696 98.6005 81.4255 99.6355 80.9063C100.453 80.4927 101.359 79.4678 101.885 78.7175C102.444 77.9187 103.129 77.6022 103.559 77.644C103.654 77.6471 103.746 77.6759 103.825 77.7273C103.904 77.7786 103.968 77.8505 104.01 77.9354C104.07 78.0711 104.095 78.2971 103.869 78.6053C103.599 78.972 103.573 79.1646 103.599 79.2618C103.626 79.3589 103.73 79.451 103.911 79.5314C104.155 79.6403 104.862 79.6118 105.432 79.59C106.436 79.5498 106.875 79.5465 107.001 79.8479C107.16 80.2297 107.367 81.2613 105.872 82.5827C104.512 83.7851 102.806 83.3865 101.985 83.1956C101.856 83.1655 101.744 83.1403 101.682 83.132C101.376 83.0968 101.272 83.2609 101.272 83.2626L101.253 83.2894C98.7663 86.7208 93.6301 90.4353 91.17 91.07C90.5714 91.2384 89.9544 91.3324 89.3329 91.3496ZM86.9079 89.4405C87.7285 90.6664 88.6328 91.2123 91.0628 90.586C93.4408 89.9714 98.4314 86.3557 100.858 83.0064C100.957 82.8648 101.094 82.7546 101.254 82.6887C101.414 82.6228 101.589 82.604 101.759 82.6346C101.849 82.6463 101.967 82.6731 102.117 82.7083C102.856 82.8757 104.393 83.2391 105.559 82.2059C106.724 81.1726 106.668 80.3838 106.577 80.1008C106.209 80.0666 105.839 80.0638 105.47 80.0924C104.753 80.1192 104.077 80.146 103.725 79.9903C103.587 79.9423 103.462 79.8633 103.359 79.7594C103.256 79.6554 103.179 79.5293 103.132 79.3907C103.052 79.0876 103.162 78.7443 103.482 78.3089C103.522 78.2598 103.551 78.2026 103.566 78.1414C103.424 78.0895 102.844 78.2352 102.31 78.9988C101.749 79.7977 100.776 80.8912 99.875 81.3434C99.3257 81.6214 90.0747 85.0646 89.4417 84.8602C89.0498 84.738 87.1892 83.6377 86.382 83.1537C86.2933 84.4031 86.0973 88.2146 86.9079 89.4238V89.4405Z" fill="#1B1C21"/>
<path d="M96.1843 66.663C96.2598 66.689 96.3337 66.7198 96.4054 66.7551C96.5478 66.8594 96.6627 66.9968 96.7403 67.1553C96.9078 67.4501 97.169 68.3578 97.5157 68.3042C97.8623 68.2506 98.2911 66.8355 98.2911 66.8355C98.2911 66.8355 98.425 66.1405 99.4935 66.4068C100.271 66.6062 101.017 66.9123 101.711 67.3161C101.991 67.4877 102.32 67.563 102.647 67.5305C102.967 67.5037 104.01 66.8891 103.819 65.8993C103.628 64.9096 102.722 64.2397 101.922 64.2431C101.084 64.2431 99.8903 63.7088 99.6777 63.6017C99.465 63.4945 98.2056 62.9787 97.5207 63.3622C97.1752 63.5535 96.8724 63.8133 96.6308 64.1258C96.3892 64.4382 96.2139 64.7967 96.1156 65.1792C96.0084 65.6135 96.001 66.0664 96.0938 66.5039C96.1039 66.5742 96.1173 66.6412 96.1843 66.663Z" fill="#25262D"/>
<path d="M101.847 67.415C101.857 67.4205 101.865 67.4286 101.87 67.4384C101.875 67.4481 101.878 67.4591 101.877 67.4702C101.845 67.9532 101.864 68.4381 101.933 68.9172C101.989 69.2521 102.205 70.071 102.113 70.2385C102.021 70.406 101.686 70.421 101.531 70.406C101.375 70.3909 101.117 70.4579 101.052 70.5868C100.986 70.7158 100.794 71.9266 100.717 72.2063C100.675 72.3853 100.569 72.5427 100.418 72.6479C100.268 72.7531 100.083 72.7986 99.9011 72.7756C99.8392 72.7756 99.66 72.7288 99.5227 72.6969C99.4987 72.6911 99.4738 72.6903 99.4496 72.6945C99.4253 72.6988 99.4022 72.7081 99.3817 72.7218C99.3612 72.7355 99.3438 72.7533 99.3306 72.7741C99.3174 72.7949 99.3086 72.8183 99.3049 72.8426C99.0738 74.3046 100.553 75.9525 100.908 76.3293C100.916 76.3383 100.922 76.3492 100.926 76.3612C100.929 76.3731 100.93 76.3857 100.927 76.3978C100.925 76.41 100.92 76.4214 100.912 76.4311C100.904 76.4407 100.894 76.4483 100.883 76.4532C97.6052 77.8834 94.2324 75.4149 93.3113 74.6463C93.2694 74.6128 95.0328 74.1439 95.8752 72.1091C96.2453 71.2165 96.1214 69.8299 96.1348 69.2789C96.1361 69.2238 96.1208 69.1696 96.091 69.1233C96.0611 69.077 96.018 69.0408 95.9673 69.0193C95.6668 68.8482 95.4401 68.5721 95.3309 68.2439C95.1969 67.7633 95.2506 66.2343 96.5216 66.8439C96.6643 66.9487 96.7793 67.0866 96.8566 67.2458C97.024 67.5389 97.2853 68.4483 97.6319 68.3947C97.9786 68.3411 98.4073 66.9243 98.4073 66.9243C98.4073 66.9243 98.5413 66.2293 99.6097 66.4972C100.387 66.7203 101.137 67.028 101.847 67.415Z" fill="white"/>
<path d="M98.7416 77.155C96.1626 77.155 93.9051 75.4803 93.1482 74.8472L93.041 74.7585L93.0595 74.6178C93.0796 74.4721 93.1884 74.4252 93.304 74.375C93.831 74.157 94.3096 73.8366 94.712 73.4325C95.1145 73.0283 95.4328 72.5484 95.6485 72.0204C95.9232 71.3505 95.9047 70.3675 95.8913 69.7143C95.8913 69.5469 95.8913 69.3945 95.8913 69.2806C95.8917 69.2756 95.8906 69.2705 95.8882 69.2661C95.8859 69.2617 95.8823 69.258 95.8779 69.2555C95.5096 69.0541 95.2326 68.719 95.1042 68.3193C94.9954 67.9325 94.9903 67.0449 95.4643 66.6446C95.6703 66.4772 96.0404 66.3298 96.6366 66.6212L96.6583 66.6329C96.8394 66.7628 96.9855 66.9353 97.0837 67.1353C97.1362 67.235 97.1837 67.3373 97.226 67.4418C97.2964 67.6093 97.4772 68.0397 97.5995 68.1334C97.7385 68.0028 97.9947 67.4351 98.1689 66.8607C98.2243 66.6479 98.3591 66.4645 98.5457 66.3482C98.827 66.169 99.2072 66.1355 99.6745 66.2528C100.471 66.4805 101.24 66.7962 101.967 67.1939C102.02 67.2214 102.065 67.2637 102.094 67.3157C102.124 67.3677 102.138 67.4272 102.135 67.487C102.104 67.9503 102.121 68.4156 102.186 68.8753C102.2 68.9574 102.225 69.0696 102.25 69.1952C102.387 69.8433 102.441 70.1699 102.342 70.3557C102.165 70.6907 101.672 70.6689 101.517 70.6555C101.434 70.6524 101.352 70.6709 101.279 70.7091C101.25 70.8062 101.17 71.2316 101.111 71.518C101.051 71.8362 100.996 72.1376 100.959 72.2716C100.902 72.5086 100.76 72.7165 100.56 72.8555C100.36 72.9945 100.116 73.0549 99.8737 73.0252C99.7608 73.0098 99.6489 72.9875 99.5388 72.9582C99.3948 74.2511 100.683 75.7281 101.086 76.1568C101.122 76.1954 101.148 76.2419 101.163 76.2925C101.177 76.3432 101.18 76.3965 101.17 76.4482C101.159 76.4996 101.136 76.5475 101.102 76.5882C101.069 76.629 101.027 76.6613 100.979 76.6827C100.274 76.9944 99.5122 77.1552 98.7416 77.155ZM93.7779 74.7082C94.9501 75.6059 97.7569 77.3877 100.554 76.3243C99.9859 75.6846 98.8371 74.1891 99.0548 72.8075C99.0638 72.749 99.0849 72.693 99.1166 72.6431C99.1483 72.5932 99.19 72.5503 99.2391 72.5173C99.2882 72.4843 99.3436 72.4618 99.4018 72.4512C99.46 72.4406 99.5197 72.4422 99.5773 72.4558C99.8587 72.5211 99.9206 72.5278 99.9257 72.5295C100.048 72.5433 100.172 72.5115 100.272 72.4402C100.373 72.3688 100.444 72.2629 100.472 72.1426C100.503 72.0287 100.56 71.724 100.616 71.4275C100.74 70.7727 100.783 70.5684 100.827 70.478C100.952 70.2268 101.329 70.143 101.552 70.1581C101.665 70.1719 101.78 70.1587 101.887 70.1196C101.864 69.8441 101.82 69.5708 101.754 69.3024C101.726 69.1684 101.701 69.0495 101.686 68.9674C101.619 68.5107 101.597 68.0485 101.62 67.5875C100.964 67.2356 100.272 66.9549 99.5555 66.7501C99.2373 66.6714 98.9845 66.6798 98.8254 66.7769C98.7449 66.8228 98.685 66.8977 98.6579 66.9863V67.0064C98.4436 67.7215 98.0986 68.5889 97.6816 68.6526C97.226 68.7212 96.9715 68.1267 96.7689 67.6478C96.7236 67.5389 96.6801 67.4368 96.6483 67.3765C96.5885 67.2602 96.5059 67.1571 96.4055 67.0734C96.1241 66.9411 95.9131 66.9293 95.7825 67.0382C95.5212 67.2559 95.5061 67.9074 95.5849 68.1887C95.6757 68.4458 95.8534 68.6631 96.0873 68.8033C96.1782 68.8462 96.2549 68.9143 96.3084 68.9995C96.3618 69.0847 96.3897 69.1834 96.3887 69.2839C96.3887 69.3911 96.3887 69.5318 96.3887 69.6942C96.4021 70.3909 96.4239 71.4426 96.1074 72.2063C95.6642 73.2962 94.8348 74.1846 93.7779 74.7015V74.7082Z" fill="#1B1C21"/>
<path d="M99.4303 72.9246C99.406 72.9246 99.3818 72.9212 99.3583 72.9146C98.7692 72.729 98.2063 72.4684 97.6837 72.1392C97.6561 72.121 97.6323 72.0976 97.6137 72.0703C97.5952 72.043 97.5822 72.0123 97.5755 71.9799C97.5688 71.9476 97.5686 71.9142 97.5748 71.8818C97.581 71.8493 97.5935 71.8184 97.6117 71.7908C97.6298 71.7632 97.6532 71.7395 97.6805 71.7209C97.7078 71.7024 97.7386 71.6894 97.7709 71.6827C97.8033 71.676 97.8366 71.6758 97.869 71.682C97.9015 71.6882 97.9324 71.7007 97.96 71.7188C98.441 72.0226 98.9595 72.2624 99.5024 72.4322C99.5604 72.4492 99.6104 72.4865 99.6432 72.5373C99.6759 72.5881 99.6893 72.6491 99.6807 72.7089C99.6722 72.7688 99.6423 72.8236 99.5966 72.8632C99.5509 72.9028 99.4925 72.9246 99.432 72.9246H99.4303Z" fill="#1B1C21"/>
<path d="M136.581 10.2329C137.181 10.2329 137.667 11.1322 137.667 12.2425V26.0771C137.667 27.1874 137.181 28.0867 136.581 28.0867H116.013C115.413 28.0867 114.928 27.1857 114.928 26.0771V12.2442C114.928 11.1322 115.413 10.2346 116.013 10.2346L136.581 10.2329Z" fill="white"/>
<path d="M124.178 12.7817C124.136 12.9123 123.992 12.986 123.776 12.9709C123.395 14.0892 122.957 15.187 122.463 16.26L123.012 16.3873C122.982 16.533 122.866 16.6351 122.622 16.6669V25.8861L120.897 25.9263V19.1304C120.592 19.6097 120.262 20.0721 119.907 20.5154C119.585 19.9837 119.234 19.4705 118.855 18.978C120.155 17.444 121.435 14.7377 122.188 12.1587L124.178 12.7817ZM132.482 14.7745C132.354 15.959 132.148 17.1338 131.866 18.2914L130.829 18.1155C131.616 19.6248 132.199 21.2321 132.561 22.8951L130.95 23.5281C130.754 22.1967 130.064 20.1553 129.302 18.6431L130.768 18.0954L130.433 18.0419C130.503 17.5964 130.573 16.9784 130.657 16.3471L128.922 16.3588V23.8111C128.922 25.1358 128.639 25.7605 126.165 25.8208C126.049 25.2182 125.852 24.634 125.579 24.0841C126.181 24.0841 126.793 24.0741 126.993 24.0707C127.192 24.0674 127.234 24.0071 127.234 23.8195V16.3722L125.708 16.3822C125.3 17.3292 124.781 18.2242 124.161 19.0483C123.757 18.6473 123.318 18.2825 122.85 17.9581C123.916 16.6703 124.792 14.4044 125.264 12.2022L127.264 12.7348C127.23 12.8046 127.174 12.8611 127.104 12.8954C127.034 12.9296 126.955 12.9397 126.879 12.924C126.721 13.5453 126.544 14.1666 126.323 14.7662L131.57 14.7427L132.482 14.7745ZM126.84 18.7703C126.81 18.8876 126.673 18.9613 126.484 18.9629C126.055 20.6594 125.326 22.5367 124.474 23.7257C124.044 23.4136 123.592 23.1337 123.121 22.8884C123.926 21.83 124.588 19.9929 124.946 18.2931L126.84 18.7703Z" fill="url(#paint16_linear_989_79093)"/>
<path d="M136.582 28.3446H116.014C115.265 28.3446 114.674 27.3498 114.674 26.0821V12.2442C114.674 10.9748 115.262 9.98169 116.014 9.98169H136.582C137.331 9.98169 137.922 10.9748 137.922 12.2442V26.0771C137.922 27.3498 137.337 28.3446 136.582 28.3446ZM116.014 10.4841C115.62 10.4841 115.176 11.2059 115.176 12.2442V26.0771C115.176 27.1137 115.617 27.8372 116.014 27.8372H136.582C136.976 27.8372 137.419 27.1137 137.419 26.0771V12.2442C137.419 11.2059 136.979 10.4841 136.582 10.4841H116.014Z" fill="#1B1C21"/>
<path d="M110.018 18.9797C110.594 18.9797 111.062 19.8455 111.062 20.9123V34.216C111.062 35.2845 110.594 36.1503 110.018 36.1503H90.2386C89.6625 36.1503 89.1953 35.2845 89.1953 34.216V20.9123C89.1953 19.8455 89.6625 18.9797 90.2386 18.9797H110.018Z" fill="white"/>
<path d="M101.872 30.8951H97.0742L96.0694 33.7789H93.832L98.5111 21.3862H100.442L105.131 33.7789H102.885L101.872 30.8951ZM97.6855 29.1584H101.276L99.4807 24.0205L97.6855 29.1584Z" fill="url(#paint17_linear_989_79093)"/>
<path d="M110.02 36.4016H90.2398C89.5147 36.4016 88.9453 35.442 88.9453 34.2245V20.9124C88.9453 19.6882 89.5147 18.7354 90.2398 18.7354H110.02C110.746 18.7354 111.314 19.6949 111.314 20.9124V34.2161C111.314 35.442 110.746 36.4016 110.02 36.4016ZM90.2398 19.2311C89.8647 19.2311 89.4477 19.921 89.4477 20.9057V34.2161C89.4477 35.2075 89.8647 35.8908 90.2398 35.8908H110.02C110.395 35.8908 110.812 35.1992 110.812 34.2161V20.9124C110.812 19.921 110.395 19.2378 110.02 19.2378L90.2398 19.2311Z" fill="#1B1C21"/>
</g>
<defs>
<linearGradient id="paint0_linear_989_79093" x1="62.8468" y1="108.178" x2="164.154" y2="38.944" gradientUnits="userSpaceOnUse">
<stop offset="0.15" stop-color="#EF6129"/>
<stop offset="0.2" stop-color="#F06032"/>
<stop offset="0.55" stop-color="#F85D6A"/>
<stop offset="0.81" stop-color="#FD5B8C"/>
<stop offset="0.96" stop-color="#FF5A99"/>
</linearGradient>
<linearGradient id="paint1_linear_989_79093" x1="70.9061" y1="100.222" x2="155.822" y2="36.8026" gradientUnits="userSpaceOnUse">
<stop offset="0.15" stop-color="#EF6129"/>
<stop offset="0.2" stop-color="#F06032"/>
<stop offset="0.55" stop-color="#F85D6A"/>
<stop offset="0.81" stop-color="#FD5B8C"/>
<stop offset="0.96" stop-color="#FF5A99"/>
</linearGradient>
<linearGradient id="paint2_linear_989_79093" x1="70.9595" y1="123.754" x2="71.2882" y2="117.181" gradientUnits="userSpaceOnUse">
<stop offset="0.15" stop-color="#EF6129"/>
<stop offset="0.2" stop-color="#F06032"/>
<stop offset="0.55" stop-color="#F85D6A"/>
<stop offset="0.81" stop-color="#FD5B8C"/>
<stop offset="0.96" stop-color="#FF5A99"/>
</linearGradient>
<linearGradient id="paint3_linear_989_79093" x1="127.457" y1="123.754" x2="128.058" y2="117.219" gradientUnits="userSpaceOnUse">
<stop offset="0.15" stop-color="#EF6129"/>
<stop offset="0.2" stop-color="#F06032"/>
<stop offset="0.55" stop-color="#F85D6A"/>
<stop offset="0.81" stop-color="#FD5B8C"/>
<stop offset="0.96" stop-color="#FF5A99"/>
</linearGradient>
<linearGradient id="paint4_linear_989_79093" x1="70.7242" y1="123.898" x2="71.1758" y2="116.183" gradientUnits="userSpaceOnUse">
<stop offset="0.15" stop-color="#EF6129"/>
<stop offset="0.2" stop-color="#F06032"/>
<stop offset="0.55" stop-color="#F85D6A"/>
<stop offset="0.81" stop-color="#FD5B8C"/>
<stop offset="0.96" stop-color="#FF5A99"/>
</linearGradient>
<linearGradient id="paint5_linear_989_79093" x1="127.775" y1="102.042" x2="182.013" y2="79.8925" gradientUnits="userSpaceOnUse">
<stop offset="0.15" stop-color="#EF6129"/>
<stop offset="0.2" stop-color="#F06032"/>
<stop offset="0.55" stop-color="#F85D6A"/>
<stop offset="0.81" stop-color="#FD5B8C"/>
<stop offset="0.96" stop-color="#FF5A99"/>
</linearGradient>
<linearGradient id="paint6_linear_989_79093" x1="164.516" y1="91.4963" x2="169.068" y2="88.6825" gradientUnits="userSpaceOnUse">
<stop offset="0.15" stop-color="#EF6129"/>
<stop offset="0.2" stop-color="#F06032"/>
<stop offset="0.55" stop-color="#F85D6A"/>
<stop offset="0.81" stop-color="#FD5B8C"/>
<stop offset="0.96" stop-color="#FF5A99"/>
</linearGradient>
<linearGradient id="paint7_linear_989_79093" x1="146.879" y1="91.2778" x2="149.982" y2="90.3496" gradientUnits="userSpaceOnUse">
<stop offset="0.15" stop-color="#EF6129"/>
<stop offset="0.2" stop-color="#F06032"/>
<stop offset="0.55" stop-color="#F85D6A"/>
<stop offset="0.81" stop-color="#FD5B8C"/>
<stop offset="0.96" stop-color="#FF5A99"/>
</linearGradient>
<linearGradient id="paint8_linear_989_79093" x1="101.476" y1="83.2362" x2="138.044" y2="66.349" gradientUnits="userSpaceOnUse">
<stop offset="0.15" stop-color="#EF6129"/>
<stop offset="0.2" stop-color="#F06032"/>
<stop offset="0.55" stop-color="#F85D6A"/>
<stop offset="0.81" stop-color="#FD5B8C"/>
<stop offset="0.96" stop-color="#FF5A99"/>
</linearGradient>
<linearGradient id="paint9_linear_989_79093" x1="128.254" y1="77.9099" x2="150.902" y2="67.7874" gradientUnits="userSpaceOnUse">
<stop offset="0.15" stop-color="#EF6129"/>
<stop offset="0.2" stop-color="#F06032"/>
<stop offset="0.55" stop-color="#F85D6A"/>
<stop offset="0.81" stop-color="#FD5B8C"/>
<stop offset="0.96" stop-color="#FF5A99"/>
</linearGradient>
<linearGradient id="paint10_linear_989_79093" x1="151.423" y1="75.5595" x2="173.927" y2="66.8808" gradientUnits="userSpaceOnUse">
<stop offset="0.15" stop-color="#EF6129"/>
<stop offset="0.2" stop-color="#F06032"/>
<stop offset="0.55" stop-color="#F85D6A"/>
<stop offset="0.81" stop-color="#FD5B8C"/>
<stop offset="0.96" stop-color="#FF5A99"/>
</linearGradient>
<linearGradient id="paint11_linear_989_79093" x1="133.621" y1="57.559" x2="139.723" y2="51.5217" gradientUnits="userSpaceOnUse">
<stop offset="0.15" stop-color="#EF6129"/>
<stop offset="0.2" stop-color="#F06032"/>
<stop offset="0.55" stop-color="#F85D6A"/>
<stop offset="0.81" stop-color="#FD5B8C"/>
<stop offset="0.96" stop-color="#FF5A99"/>
</linearGradient>
<linearGradient id="paint12_linear_989_79093" x1="174.873" y1="40.1018" x2="197.571" y2="24.3021" gradientUnits="userSpaceOnUse">
<stop offset="0.15" stop-color="#EF6129"/>
<stop offset="0.2" stop-color="#F06032"/>
<stop offset="0.55" stop-color="#F85D6A"/>
<stop offset="0.81" stop-color="#FD5B8C"/>
<stop offset="0.96" stop-color="#FF5A99"/>
</linearGradient>
<linearGradient id="paint13_linear_989_79093" x1="171.59" y1="32.0666" x2="190.903" y2="9.99366" gradientUnits="userSpaceOnUse">
<stop offset="0.15" stop-color="#EF6129"/>
<stop offset="0.2" stop-color="#F06032"/>
<stop offset="0.55" stop-color="#F85D6A"/>
<stop offset="0.81" stop-color="#FD5B8C"/>
<stop offset="0.96" stop-color="#FF5A99"/>
</linearGradient>
<linearGradient id="paint14_linear_989_79093" x1="172.647" y1="30.0374" x2="189.06" y2="8.97311" gradientUnits="userSpaceOnUse">
<stop offset="0.15" stop-color="#EF6129"/>
<stop offset="0.2" stop-color="#F06032"/>
<stop offset="0.55" stop-color="#F85D6A"/>
<stop offset="0.81" stop-color="#FD5B8C"/>
<stop offset="0.96" stop-color="#FF5A99"/>
</linearGradient>
<linearGradient id="paint15_linear_989_79093" x1="201.688" y1="49.5471" x2="205.039" y2="49.1139" gradientUnits="userSpaceOnUse">
<stop offset="0.15" stop-color="#EF6129"/>
<stop offset="0.2" stop-color="#F06032"/>
<stop offset="0.55" stop-color="#F85D6A"/>
<stop offset="0.81" stop-color="#FD5B8C"/>
<stop offset="0.96" stop-color="#FF5A99"/>
</linearGradient>
<linearGradient id="paint16_linear_989_79093" x1="117.617" y1="22.9804" x2="130.301" y2="16.5861" gradientUnits="userSpaceOnUse">
<stop offset="0.15" stop-color="#EF6129"/>
<stop offset="0.2" stop-color="#F06032"/>
<stop offset="0.55" stop-color="#F85D6A"/>
<stop offset="0.81" stop-color="#FD5B8C"/>
<stop offset="0.96" stop-color="#FF5A99"/>
</linearGradient>
<linearGradient id="paint17_linear_989_79093" x1="92.8112" y1="31.1272" x2="103.621" y2="26.1361" gradientUnits="userSpaceOnUse">
<stop offset="0.15" stop-color="#EF6129"/>
<stop offset="0.2" stop-color="#F06032"/>
<stop offset="0.55" stop-color="#F85D6A"/>
<stop offset="0.81" stop-color="#FD5B8C"/>
<stop offset="0.96" stop-color="#FF5A99"/>
</linearGradient>
</defs>
</svg>
