<svg width="288" height="155" viewBox="0 0 288 155" fill="none" xmlns="http://www.w3.org/2000/svg">
<mask id="mask0_989_78797" style="mask-type:alpha" maskUnits="userSpaceOnUse" x="0" y="0" width="288" height="155">
<rect width="288" height="155" fill="#25262D"/>
</mask>
<g mask="url(#mask0_989_78797)">
<rect width="288" height="155" fill="current"/>
<path d="M80.5331 34.3826C91.3944 16.0235 112.066 11.5347 119.863 9.8436C146.397 4.08265 185.66 11.0042 204.601 42.2942C221.227 69.7558 211.971 99.086 210.629 103.114C208.379 109.851 202.741 126.024 186.775 136.983C161.911 154.047 124.012 150.215 111.044 132.606C104.952 124.328 109.882 120.523 102.788 105.901C93.2866 86.3224 81.4944 86.7887 76.0004 71.1175C69.7985 53.4106 79.5296 36.0787 80.5331 34.3826Z" opacity="0.47" fill="url(#paint0_linear_989_78797)"/>
<path d="M127.775 24.3608L126.793 20.7725L122.739 20.9566C122.369 20.1757 121.934 19.4274 121.438 18.7198L123.582 15.2818L120.943 12.6683L117.528 14.8595C116.818 14.3709 116.067 13.9426 115.285 13.5789L115.425 9.52424L111.833 8.58154L109.975 12.18C109.114 12.1145 108.249 12.1207 107.388 12.1986L105.483 8.61702L101.901 9.59858L102.085 13.6532C101.305 14.0243 100.558 14.46 99.8503 14.9558L96.414 12.8102L93.8038 15.4508L95.9882 18.8702C95.5008 19.5827 95.0731 20.3342 94.7093 21.1171L90.6547 20.9769L89.7188 24.5686L93.3139 26.427C93.2466 27.2892 93.2528 28.1557 93.3324 29.0169L89.7525 30.9226L90.7324 34.5058L94.787 34.3217C95.1581 35.1023 95.5938 35.8505 96.0896 36.5585L93.944 39.9965L96.5846 42.61L100.001 40.4222C100.712 40.9108 101.463 41.3391 102.246 41.7028L102.106 45.7574L105.697 46.7001L107.556 43.1017C108.417 43.1689 109.282 43.1627 110.142 43.0831L112.048 46.6647L115.63 45.6848L115.445 41.6302C116.226 41.2594 116.973 40.8236 117.68 40.3276L121.115 42.4732L123.727 39.8326L121.541 36.4132C122.029 35.7009 122.457 34.9494 122.821 34.1663L126.876 34.3065L127.817 30.7131L124.222 28.8547C124.288 27.9929 124.281 27.1272 124.203 26.2665L127.775 24.3608ZM111.283 36.8626C109.458 37.3628 107.527 37.3107 105.732 36.713C103.937 36.1153 102.36 34.9988 101.2 33.5047C100.04 32.0106 99.3486 30.206 99.2141 28.3191C99.0796 26.4322 99.5077 24.5479 100.444 22.9043C101.381 21.2607 102.784 19.9318 104.475 19.0856C106.167 18.2394 108.072 17.9139 109.949 18.1502C111.826 18.3866 113.59 19.1743 115.019 20.4136C116.449 21.6529 117.478 23.2882 117.978 25.1126C118.312 26.3242 118.403 27.5897 118.247 28.8368C118.092 30.0838 117.691 31.2879 117.069 32.3799C116.447 33.472 115.616 34.4307 114.623 35.201C113.63 35.9714 112.495 36.5383 111.283 36.8693V36.8626Z" fill="url(#paint0_linear_989_78797)"/>
<path d="M156.3 17.4376L155.109 15.1586L152.397 15.8732C152.031 15.3998 151.627 14.9579 151.187 14.5521L152.132 11.9115L149.963 10.5329L147.971 12.5197C147.418 12.296 146.847 12.118 146.264 11.9875L145.758 9.2236L143.19 9.11548L142.46 11.8186C141.867 11.8994 141.283 12.0311 140.713 12.2122L138.897 10.07L136.62 11.2611L137.341 13.9743C136.868 14.3405 136.426 14.7457 136.02 15.1856L133.381 14.2395L132.004 16.4104L133.982 18.4073C133.757 18.9603 133.579 19.531 133.448 20.1137L130.686 20.6205L130.578 23.1901L133.281 23.9216C133.367 24.5152 133.501 25.1006 133.683 25.6719L131.543 27.4796L132.734 29.7586L135.447 29.0372C135.812 29.5115 136.217 29.954 136.657 30.3601L135.712 33.0006L137.883 34.3792L139.872 32.3975C140.427 32.6236 141 32.8039 141.585 32.9364L142.092 35.7003L144.66 35.8085L145.389 33.1054C145.982 33.0237 146.566 32.892 147.136 32.7117L148.952 34.8539L151.215 33.6544L150.493 30.9395C150.966 30.5743 151.408 30.1696 151.813 29.7299L154.453 30.676L155.83 28.5051L153.855 26.5166C154.08 25.9636 154.259 25.3929 154.389 24.8103L157.151 24.3034L157.259 21.7338L154.556 21.0023C154.473 20.4089 154.34 19.8235 154.159 19.2521L156.3 17.4376ZM146.991 28.326C145.831 28.9326 144.517 29.1817 143.215 29.0417C141.914 28.9016 140.683 28.3787 139.678 27.5392C138.674 26.6996 137.941 25.5811 137.572 24.325C137.204 23.0688 137.216 21.7316 137.607 20.4823C137.998 19.233 138.751 18.1278 139.77 17.3064C140.79 16.485 142.03 15.9843 143.334 15.8676C144.637 15.7509 145.947 16.0235 147.096 16.6509C148.245 17.2783 149.182 18.2323 149.789 19.3923C150.192 20.1624 150.44 21.0046 150.518 21.8706C150.596 22.7366 150.502 23.6095 150.242 24.4392C149.982 25.269 149.561 26.0394 149.004 26.7063C148.446 27.3732 147.762 27.9236 146.991 28.326Z" fill="url(#paint1_linear_989_78797)"/>
<path d="M196.939 34.6023H83.9751C82.7779 34.6023 81.6297 35.0779 80.7831 35.9245C79.9365 36.771 79.4609 37.9192 79.4609 39.1164V116.563C79.4607 117.156 79.5773 117.743 79.8041 118.291C80.0308 118.839 80.3633 119.337 80.7825 119.756C81.2017 120.176 81.6994 120.508 82.2472 120.735C82.795 120.962 83.3821 121.079 83.9751 121.079H199.052C199.368 121.079 199.68 121.017 199.972 120.896C200.263 120.776 200.528 120.599 200.751 120.375C200.974 120.152 201.151 119.888 201.272 119.596C201.392 119.305 201.455 118.992 201.455 118.677V39.1164C201.454 37.9191 200.978 36.7709 200.131 35.9244C199.285 35.0778 198.136 34.6023 196.939 34.6023Z" fill="white"/>
<path opacity="0.4" d="M194.109 41.0728H86.807C86.2416 41.0728 85.7832 41.5311 85.7832 42.0965V45.467C85.7832 46.0324 86.2416 46.4908 86.807 46.4908H194.109C194.675 46.4908 195.133 46.0324 195.133 45.467V42.0965C195.133 41.5311 194.675 41.0728 194.109 41.0728Z" fill="url(#paint2_linear_989_78797)"/>
<path opacity="0.2" d="M85.7832 50.449V111.694C85.7832 112.631 86.1554 113.53 86.8179 114.192C87.4804 114.855 88.3789 115.227 89.3158 115.227H191.601C192.065 115.227 192.525 115.137 192.954 114.959C193.383 114.782 193.773 114.522 194.102 114.194C194.43 113.866 194.691 113.476 194.869 113.047C195.047 112.618 195.138 112.158 195.138 111.694V50.449H85.7832Z" fill="url(#paint3_linear_989_78797)"/>
<path d="M192.642 43.7825C192.642 44.0405 192.565 44.2926 192.422 44.5071C192.279 44.7216 192.075 44.8888 191.837 44.9875C191.598 45.0862 191.336 45.112 191.083 45.0617C190.83 45.0114 190.598 44.8871 190.415 44.7047C190.233 44.5223 190.109 44.2899 190.058 44.037C190.008 43.784 190.034 43.5217 190.132 43.2834C190.231 43.0451 190.398 42.8414 190.613 42.6981C190.827 42.5548 191.079 42.4783 191.337 42.4783C191.683 42.4783 192.015 42.6157 192.26 42.8603C192.504 43.1049 192.642 43.4366 192.642 43.7825Z" fill="white"/>
<path d="M209.968 121.079H79.5827C78.9401 121.073 78.3212 121.322 77.8621 121.772C77.4031 122.222 77.1415 122.835 77.1348 123.478V124.037C77.1403 124.595 77.2555 125.145 77.4739 125.658C77.6923 126.171 78.0096 126.636 78.4076 127.026C78.8056 127.416 79.2765 127.724 79.7935 127.932C80.3106 128.14 80.8635 128.244 81.4208 128.239L209.669 127.945C212.034 127.945 212.417 126.358 212.417 124.037V123.478C212.414 123.16 212.349 122.845 212.224 122.552C212.099 122.259 211.918 121.993 211.69 121.771C211.462 121.548 211.193 121.372 210.898 121.253C210.602 121.135 210.286 121.075 209.968 121.079Z" fill="white"/>
<path d="M81.424 128.492C78.9203 128.492 76.8828 126.494 76.8828 124.037V123.478C76.8899 122.768 77.1786 122.09 77.6855 121.592C78.1923 121.095 78.8758 120.819 79.5859 120.826H209.969C210.679 120.819 211.363 121.095 211.87 121.592C212.377 122.09 212.665 122.768 212.672 123.478V124.037C212.672 126.051 212.441 128.198 209.67 128.198L81.424 128.492ZM79.5825 121.332C79.007 121.327 78.4527 121.549 78.041 121.951C77.6293 122.353 77.3938 122.902 77.3863 123.478V124.037C77.3863 126.215 79.1956 127.985 81.4189 127.985L209.669 127.691C211.767 127.691 212.164 126.407 212.164 124.037V123.478C212.157 122.902 211.921 122.353 211.51 121.951C211.098 121.548 210.543 121.326 209.968 121.332H79.5825Z" fill="#1B1C21"/>
<path opacity="0.4" d="M158.585 53.1775H90.1822C89.1129 53.1775 88.2461 54.0443 88.2461 55.1136V99.9156C88.2461 100.985 89.1129 101.852 90.1822 101.852H158.585C159.655 101.852 160.522 100.985 160.522 99.9156V55.1136C160.522 54.0443 159.655 53.1775 158.585 53.1775Z" fill="url(#paint4_linear_989_78797)"/>
<path opacity="0.4" d="M89.119 112.177L191.728 112.177C192.211 112.177 192.602 111.786 192.602 111.304V107.704C192.602 107.221 192.211 106.83 191.728 106.83L89.119 106.83C88.6366 106.83 88.2455 107.221 88.2455 107.704V111.304C88.2455 111.786 88.6366 112.177 89.119 112.177Z" fill="url(#paint5_linear_989_78797)"/>
<path opacity="0.4" d="M190.747 69.8589H167.904C166.881 69.8589 166.051 70.6886 166.051 71.7122V83.0668C166.051 84.0904 166.881 84.9202 167.904 84.9202H190.747C191.77 84.9202 192.6 84.0904 192.6 83.0668V71.7122C192.6 70.6886 191.77 69.8589 190.747 69.8589Z" fill="url(#paint6_linear_989_78797)"/>
<path opacity="0.4" d="M190.747 86.8445H167.904C166.881 86.8445 166.051 87.6742 166.051 88.6978V100.052C166.051 101.076 166.881 101.906 167.904 101.906H190.747C191.77 101.906 192.6 101.076 192.6 100.052V88.6978C192.6 87.6742 191.77 86.8445 190.747 86.8445Z" fill="url(#paint7_linear_989_78797)"/>
<path opacity="0.4" d="M190.711 53.1775H167.94C166.896 53.1775 166.051 54.0231 166.051 55.0663V66.35C166.051 67.3931 166.896 68.2388 167.94 68.2388H190.711C191.755 68.2388 192.6 67.3931 192.6 66.35V55.0663C192.6 54.0231 191.755 53.1775 190.711 53.1775Z" fill="url(#paint8_linear_989_78797)"/>
<path d="M125.167 84.9016C129.262 84.9016 132.582 81.5629 132.582 77.4444C132.582 73.326 129.262 69.9873 125.167 69.9873C121.072 69.9873 117.752 73.326 117.752 77.4444C117.752 81.5629 121.072 84.9016 125.167 84.9016Z" fill="white"/>
<path d="M122.568 80.4567V74.6468C122.568 74.5789 122.586 74.512 122.619 74.4526C122.652 74.3932 122.699 74.3431 122.757 74.3071C122.814 74.2711 122.88 74.2504 122.948 74.2469C123.016 74.2433 123.083 74.2571 123.144 74.2869L128.956 77.159C129.023 77.1919 129.079 77.2429 129.118 77.306C129.157 77.3691 129.178 77.442 129.178 77.5163C129.178 77.5906 129.157 77.6634 129.118 77.7266C129.079 77.7897 129.023 77.8406 128.956 77.8736L123.146 80.8149C123.085 80.845 123.017 80.8591 122.95 80.8559C122.882 80.8526 122.816 80.8321 122.758 80.7963C122.7 80.7604 122.652 80.7104 122.619 80.651C122.586 80.5916 122.568 80.5248 122.568 80.4567Z" fill="url(#paint9_linear_989_78797)"/>
<path d="M199.052 121.333H83.9751C82.7114 121.33 81.5001 120.827 80.607 119.933C79.7139 119.039 79.2118 117.827 79.2109 116.563V39.1164C79.2123 37.853 79.7145 36.6416 80.6076 35.7479C81.5007 34.8542 82.7117 34.3511 83.9751 34.3489H173.684C173.751 34.3489 173.815 34.3756 173.863 34.4231C173.911 34.4706 173.937 34.5351 173.937 34.6023C173.937 34.6695 173.911 34.734 173.863 34.7815C173.815 34.829 173.751 34.8557 173.684 34.8557H83.9751C82.8455 34.857 81.7626 35.3064 80.9638 36.1051C80.1651 36.9039 79.7157 37.9868 79.7144 39.1164V116.563C79.7148 117.693 80.1638 118.777 80.9627 119.576C81.7616 120.375 82.8451 120.825 83.9751 120.826H199.052C199.119 120.826 199.184 120.852 199.231 120.9C199.279 120.947 199.306 121.012 199.306 121.079C199.306 121.146 199.279 121.211 199.231 121.258C199.184 121.306 199.119 121.333 199.052 121.333Z" fill="#1B1C21"/>
<path d="M75.8359 128.922C77.2314 126.049 77.3564 123.154 75.8359 120.229L76.9324 118.913L115.044 119.902L114.009 129.435L76.858 129.773L75.8359 128.922Z" fill="white"/>
<path d="M76.8592 130.023C76.8007 130.023 76.744 130.002 76.6987 129.965L75.6749 129.121C75.631 129.085 75.6006 129.035 75.5887 128.979C75.5767 128.924 75.5839 128.866 75.609 128.815C77.0433 125.86 77.045 123.091 75.609 120.351C75.5859 120.306 75.5763 120.256 75.5814 120.206C75.5865 120.157 75.6061 120.109 75.6377 120.07L76.7358 118.754C76.7604 118.725 76.7912 118.702 76.826 118.686C76.8608 118.67 76.8987 118.662 76.9369 118.663L115.061 119.648C115.096 119.649 115.13 119.657 115.162 119.672C115.193 119.686 115.222 119.708 115.245 119.734C115.267 119.761 115.284 119.792 115.295 119.825C115.305 119.859 115.309 119.894 115.305 119.929L114.272 129.462C114.265 129.524 114.235 129.581 114.189 129.622C114.143 129.664 114.084 129.688 114.022 129.688L76.871 130.026L76.8592 130.023ZM76.1496 128.852L76.9504 129.516L113.78 129.178L114.76 120.141L77.0484 119.17L76.1361 120.263C77.5231 123.015 77.5282 125.904 76.1496 128.852Z" fill="#1B1C21"/>
<path d="M141.316 117.864H75.32C75.0041 117.864 74.7011 117.989 74.4778 118.213C74.2544 118.436 74.1289 118.739 74.1289 119.055C74.1289 119.371 74.2544 119.674 74.4778 119.897C74.7011 120.121 75.0041 120.246 75.32 120.246H110.781C111.702 120.236 112.589 120.591 113.247 121.235C113.906 121.878 114.282 122.757 114.293 123.677V125.607C114.282 126.527 113.906 127.406 113.247 128.049C112.589 128.693 111.702 129.048 110.781 129.038H75.32C75.0041 129.038 74.7011 129.163 74.4778 129.387C74.2544 129.61 74.1289 129.913 74.1289 130.229C74.1289 130.545 74.2544 130.848 74.4778 131.071C74.7011 131.295 75.0041 131.42 75.32 131.42H141.316C144.892 131.42 147.791 128.587 147.791 125.093V124.191C147.791 120.697 144.892 117.864 141.316 117.864Z" fill="url(#paint10_linear_989_78797)"/>
<path d="M107.108 123.003H99.1948C99.1276 123.003 99.0632 122.977 99.0156 122.929C98.9681 122.882 98.9414 122.817 98.9414 122.75C98.9414 122.683 98.9681 122.618 99.0156 122.571C99.0632 122.523 99.1276 122.497 99.1948 122.497H107.108C107.175 122.497 107.24 122.523 107.287 122.571C107.335 122.618 107.362 122.683 107.362 122.75C107.362 122.817 107.335 122.882 107.287 122.929C107.24 122.977 107.175 123.003 107.108 123.003Z" fill="url(#paint11_linear_989_78797)"/>
<path d="M95.9686 123.003H79.8413C79.7741 123.003 79.7096 122.977 79.6621 122.929C79.6146 122.882 79.5879 122.817 79.5879 122.75C79.5879 122.683 79.6146 122.618 79.6621 122.571C79.7096 122.523 79.7741 122.497 79.8413 122.497H95.9686C96.0358 122.497 96.1003 122.523 96.1478 122.571C96.1953 122.618 96.222 122.683 96.222 122.75C96.222 122.817 96.1953 122.882 96.1478 122.929C96.1003 122.977 96.0358 123.003 95.9686 123.003Z" fill="url(#paint12_linear_989_78797)"/>
<path d="M104.494 124.762H79.6675C79.6003 124.762 79.5358 124.735 79.4883 124.688C79.4408 124.64 79.4141 124.576 79.4141 124.509C79.4141 124.441 79.4408 124.377 79.4883 124.329C79.5358 124.282 79.6003 124.255 79.6675 124.255H104.502C104.569 124.255 104.634 124.282 104.681 124.329C104.729 124.377 104.756 124.441 104.756 124.509C104.756 124.576 104.729 124.64 104.681 124.688C104.634 124.735 104.569 124.762 104.502 124.762H104.494Z" fill="url(#paint13_linear_989_78797)"/>
<path d="M106.672 126.97H104.175C104.108 126.97 104.044 126.943 103.996 126.896C103.949 126.848 103.922 126.784 103.922 126.717C103.922 126.649 103.949 126.585 103.996 126.537C104.044 126.49 104.108 126.463 104.175 126.463H106.672C106.739 126.463 106.804 126.49 106.851 126.537C106.899 126.585 106.926 126.649 106.926 126.717C106.926 126.784 106.899 126.848 106.851 126.896C106.804 126.943 106.739 126.97 106.672 126.97Z" fill="url(#paint14_linear_989_78797)"/>
<path d="M99.9484 126.97H78.1108C78.0436 126.97 77.9792 126.943 77.9316 126.896C77.8841 126.848 77.8574 126.784 77.8574 126.717C77.8574 126.649 77.8841 126.585 77.9316 126.537C77.9792 126.49 78.0436 126.463 78.1108 126.463H99.9484C100.016 126.463 100.08 126.49 100.128 126.537C100.175 126.585 100.202 126.649 100.202 126.717C100.202 126.784 100.175 126.848 100.128 126.896C100.08 126.943 100.016 126.97 99.9484 126.97Z" fill="url(#paint15_linear_989_78797)"/>
<path d="M149.694 144.984H88.6699V132.652H149.694C148.146 136.821 148.104 140.932 149.694 144.984Z" fill="white"/>
<path d="M149.693 145.238H88.6694C88.6022 145.238 88.5378 145.211 88.4902 145.164C88.4427 145.116 88.416 145.052 88.416 144.984V132.652C88.416 132.584 88.4427 132.52 88.4902 132.472C88.5378 132.425 88.6022 132.398 88.6694 132.398H149.693C149.734 132.398 149.775 132.408 149.811 132.427C149.847 132.447 149.878 132.474 149.901 132.508C149.924 132.542 149.939 132.58 149.944 132.621C149.949 132.662 149.944 132.703 149.93 132.741C148.387 136.88 148.387 140.967 149.93 144.886C149.945 144.925 149.951 144.966 149.946 145.007C149.942 145.048 149.928 145.087 149.904 145.121C149.882 145.157 149.85 145.186 149.814 145.206C149.777 145.226 149.735 145.237 149.693 145.238ZM88.9178 144.731H149.33C147.914 140.906 147.916 136.933 149.33 132.905H88.9228L88.9178 144.731Z" fill="#1B1C21"/>
<path d="M94.9971 133.265H150.059C150.322 133.27 150.577 133.171 150.767 132.989C150.957 132.807 151.067 132.557 151.073 132.293C151.066 132.031 150.956 131.781 150.766 131.599C150.576 131.417 150.322 131.318 150.059 131.324H81.1303C78.6688 131.324 76.6719 133.234 76.6719 135.591V142.302C76.6719 144.658 78.6688 146.569 81.1303 146.569H150.059C150.191 146.577 150.324 146.558 150.449 146.512C150.573 146.467 150.687 146.397 150.784 146.306C150.88 146.215 150.957 146.105 151.01 145.983C151.062 145.862 151.089 145.73 151.089 145.598C151.089 145.465 151.062 145.334 151.01 145.212C150.957 145.09 150.88 144.981 150.784 144.89C150.687 144.799 150.573 144.728 150.449 144.683C150.324 144.638 150.191 144.618 150.059 144.626H94.9971C93.257 144.626 91.8463 143.275 91.8463 141.611V136.28C91.8463 134.615 93.2654 133.265 94.9971 133.265Z" fill="white"/>
<path opacity="0.5" d="M94.9971 133.265H150.059C150.322 133.271 150.577 133.171 150.767 132.989C150.957 132.807 151.067 132.557 151.073 132.294C151.066 132.031 150.956 131.781 150.766 131.599C150.576 131.418 150.322 131.319 150.059 131.324H81.1303C78.6688 131.324 76.6719 133.235 76.6719 135.591V142.302C76.6719 144.659 78.6688 146.569 81.1303 146.569H150.059C150.191 146.577 150.324 146.558 150.449 146.513C150.573 146.467 150.687 146.397 150.784 146.306C150.88 146.215 150.957 146.105 151.01 145.984C151.062 145.862 151.089 145.731 151.089 145.598C151.089 145.465 151.062 145.334 151.01 145.212C150.957 145.091 150.88 144.981 150.784 144.89C150.687 144.799 150.573 144.729 150.449 144.683C150.324 144.638 150.191 144.619 150.059 144.627H94.9971C93.257 144.627 91.8463 143.275 91.8463 141.611V136.281C91.8463 134.615 93.2654 133.265 94.9971 133.265Z" fill="url(#paint16_linear_989_78797)"/>
<path d="M129.82 133.518H119.958C119.891 133.518 119.827 133.492 119.779 133.444C119.732 133.397 119.705 133.332 119.705 133.265C119.705 133.198 119.732 133.133 119.779 133.086C119.827 133.038 119.891 133.011 119.958 133.011H129.816C129.884 133.011 129.948 133.038 129.995 133.086C130.043 133.133 130.07 133.198 130.07 133.265C130.07 133.332 130.043 133.397 129.995 133.444C129.948 133.492 129.884 133.518 129.816 133.518H129.82Z" fill="#1B1C21"/>
<path d="M112.494 144.88H94.9979C93.121 144.88 91.5938 143.413 91.5938 141.611V136.281C91.5938 134.478 93.1142 133.011 94.9979 133.011L115.822 133.12C115.889 133.12 115.954 133.146 116.001 133.194C116.049 133.241 116.075 133.306 116.075 133.373C116.075 133.44 116.049 133.505 116.001 133.552C115.954 133.6 115.889 133.626 115.822 133.626L94.9996 133.518C93.4031 133.518 92.104 134.758 92.104 136.281V141.611C92.104 143.131 93.4031 144.373 95.0013 144.373H112.494C112.561 144.373 112.625 144.4 112.673 144.447C112.72 144.495 112.747 144.559 112.747 144.626C112.747 144.694 112.72 144.758 112.673 144.805C112.625 144.853 112.561 144.88 112.494 144.88Z" fill="#1B1C21"/>
<path d="M150.06 146.823H81.1317C78.5334 146.823 76.4199 144.795 76.4199 142.302V135.591C76.4199 133.098 78.5334 131.07 81.1317 131.07L116.412 130.923C116.479 130.923 116.544 130.95 116.591 130.998C116.639 131.045 116.666 131.11 116.666 131.177C116.666 131.244 116.639 131.308 116.591 131.356C116.544 131.403 116.479 131.43 116.412 131.43L81.1267 131.577C78.8071 131.577 76.92 133.378 76.92 135.591V142.302C76.92 144.515 78.8071 146.316 81.125 146.316H150.054C150.152 146.322 150.251 146.309 150.344 146.276C150.437 146.243 150.522 146.191 150.594 146.124C150.666 146.056 150.724 145.975 150.763 145.884C150.802 145.794 150.823 145.696 150.823 145.598C150.823 145.499 150.802 145.401 150.763 145.311C150.724 145.22 150.666 145.139 150.594 145.072C150.522 145.004 150.437 144.953 150.344 144.92C150.251 144.887 150.152 144.873 150.054 144.88H118.39C118.323 144.88 118.259 144.853 118.211 144.805C118.164 144.758 118.137 144.694 118.137 144.626C118.137 144.559 118.164 144.495 118.211 144.447C118.259 144.4 118.323 144.373 118.39 144.373H150.06C150.385 144.373 150.697 144.502 150.927 144.732C151.156 144.961 151.285 145.273 151.285 145.598C151.285 145.923 151.156 146.234 150.927 146.464C150.697 146.694 150.385 146.823 150.06 146.823Z" fill="#1B1C21"/>
<path d="M133.306 133.626C133.239 133.626 133.174 133.6 133.127 133.552C133.079 133.505 133.053 133.44 133.053 133.373C133.053 133.306 133.079 133.241 133.127 133.194C133.174 133.146 133.239 133.12 133.306 133.12L150.06 133.011C150.157 133.016 150.254 133.001 150.345 132.967C150.437 132.933 150.52 132.881 150.59 132.814C150.661 132.747 150.717 132.666 150.755 132.577C150.793 132.488 150.813 132.392 150.813 132.294C150.813 132.197 150.793 132.101 150.755 132.012C150.717 131.922 150.661 131.841 150.59 131.774C150.52 131.707 150.437 131.655 150.345 131.621C150.254 131.587 150.157 131.572 150.06 131.577L133.558 131.43C133.491 131.43 133.426 131.403 133.379 131.356C133.331 131.308 133.304 131.244 133.304 131.177C133.304 131.11 133.331 131.045 133.379 130.998C133.426 130.95 133.491 130.923 133.558 130.923L150.059 131.07C150.223 131.064 150.387 131.091 150.541 131.15C150.695 131.209 150.835 131.298 150.954 131.412C151.072 131.527 151.167 131.664 151.231 131.815C151.296 131.967 151.329 132.13 151.329 132.294C151.329 132.459 151.296 132.622 151.231 132.774C151.167 132.925 151.072 133.062 150.954 133.176C150.835 133.291 150.695 133.38 150.541 133.439C150.387 133.497 150.223 133.524 150.059 133.518L133.306 133.626Z" fill="#1B1C21"/>
<path d="M108.702 135.838H97.8276C97.7604 135.838 97.696 135.811 97.6484 135.764C97.6009 135.716 97.5742 135.652 97.5742 135.584C97.5742 135.517 97.6009 135.453 97.6484 135.405C97.696 135.358 97.7604 135.331 97.8276 135.331H108.696C108.763 135.331 108.827 135.358 108.875 135.405C108.922 135.453 108.949 135.517 108.949 135.584C108.949 135.652 108.922 135.716 108.875 135.764C108.827 135.811 108.763 135.838 108.696 135.838H108.702Z" fill="url(#paint17_linear_989_78797)"/>
<path d="M133.118 137.483H121.953C121.885 137.483 121.821 137.457 121.773 137.409C121.726 137.362 121.699 137.297 121.699 137.23C121.699 137.163 121.726 137.098 121.773 137.051C121.821 137.003 121.885 136.977 121.953 136.977H133.118C133.185 136.977 133.25 137.003 133.297 137.051C133.345 137.098 133.371 137.163 133.371 137.23C133.371 137.297 133.345 137.362 133.297 137.409C133.25 137.457 133.185 137.483 133.118 137.483Z" fill="url(#paint18_linear_989_78797)"/>
<path d="M109.618 137.483H102.154C102.087 137.483 102.022 137.457 101.975 137.409C101.927 137.362 101.9 137.297 101.9 137.23C101.9 137.163 101.927 137.098 101.975 137.051C102.022 137.003 102.087 136.977 102.154 136.977H109.618C109.685 136.977 109.749 137.003 109.797 137.051C109.844 137.098 109.871 137.163 109.871 137.23C109.871 137.297 109.844 137.362 109.797 137.409C109.749 137.457 109.685 137.483 109.618 137.483Z" fill="url(#paint19_linear_989_78797)"/>
<path d="M98.6042 137.483H94.6577C94.5905 137.483 94.526 137.457 94.4785 137.409C94.431 137.362 94.4043 137.297 94.4043 137.23C94.4043 137.163 94.431 137.098 94.4785 137.051C94.526 137.003 94.5905 136.977 94.6577 136.977H98.6042C98.6714 136.977 98.7359 137.003 98.7834 137.051C98.8309 137.098 98.8576 137.163 98.8576 137.23C98.8576 137.297 98.8309 137.362 98.7834 137.409C98.7359 137.457 98.6714 137.483 98.6042 137.483Z" fill="url(#paint20_linear_989_78797)"/>
<path d="M135.202 140.916H121.505C121.438 140.916 121.374 140.89 121.326 140.842C121.279 140.794 121.252 140.73 121.252 140.663C121.252 140.596 121.279 140.531 121.326 140.484C121.374 140.436 121.438 140.409 121.505 140.409H135.202C135.269 140.409 135.333 140.436 135.381 140.484C135.428 140.531 135.455 140.596 135.455 140.663C135.455 140.73 135.428 140.794 135.381 140.842C135.333 140.89 135.269 140.916 135.202 140.916Z" fill="url(#paint21_linear_989_78797)"/>
<path d="M111.532 140.916H95.0073C94.9401 140.916 94.8757 140.89 94.8281 140.842C94.7806 140.794 94.7539 140.73 94.7539 140.663C94.7539 140.596 94.7806 140.531 94.8281 140.484C94.8757 140.436 94.9401 140.409 95.0073 140.409H111.532C111.599 140.409 111.663 140.436 111.711 140.484C111.758 140.531 111.785 140.596 111.785 140.663C111.785 140.73 111.758 140.794 111.711 140.842C111.663 140.89 111.599 140.916 111.532 140.916Z" fill="url(#paint22_linear_989_78797)"/>
<path d="M119.066 140.916H118.041C117.973 140.916 117.909 140.89 117.861 140.842C117.814 140.794 117.787 140.73 117.787 140.663C117.787 140.596 117.814 140.531 117.861 140.484C117.909 140.436 117.973 140.409 118.041 140.409H119.066C119.133 140.409 119.198 140.436 119.245 140.484C119.293 140.531 119.319 140.596 119.319 140.663C119.319 140.73 119.293 140.794 119.245 140.842C119.198 140.89 119.133 140.916 119.066 140.916Z" fill="url(#paint23_linear_989_78797)"/>
<path d="M116.242 140.48C116.568 140.143 118.455 134.28 118.455 134.28L122.186 136.941L118.101 142.435L116.242 140.48Z" fill="white"/>
<path d="M118.1 142.688C118.066 142.688 118.032 142.681 118.001 142.668C117.969 142.654 117.941 142.634 117.918 142.609L116.059 140.654C116.015 140.608 115.99 140.546 115.99 140.481C115.99 140.417 116.015 140.355 116.059 140.308C116.281 140.016 117.335 136.948 118.217 134.202C118.229 134.163 118.251 134.126 118.28 134.097C118.309 134.067 118.346 134.046 118.386 134.034C118.423 134.021 118.463 134.018 118.503 134.024C118.542 134.03 118.579 134.045 118.612 134.067L122.324 136.733C122.379 136.774 122.415 136.835 122.427 136.902C122.432 136.936 122.43 136.97 122.422 137.002C122.414 137.035 122.4 137.066 122.379 137.093L118.296 142.58C118.274 142.61 118.245 142.634 118.212 142.652C118.18 142.669 118.144 142.679 118.107 142.682L118.1 142.688ZM116.559 140.442L118.08 142.041L121.817 137.005L118.58 134.696C118.033 136.4 116.992 139.553 116.551 140.442H116.559Z" fill="#1B1C21"/>
<path d="M122.96 147.904L120.48 147.889C119.671 147.885 118.876 147.68 118.166 147.293C117.455 146.906 116.853 146.348 116.412 145.67L113.96 141.785C113.8 141.531 113.695 141.246 113.65 140.949C113.605 140.652 113.621 140.349 113.699 140.059C113.777 139.769 113.913 139.498 114.1 139.264C114.287 139.029 114.521 138.835 114.786 138.695C115.81 138.151 116.883 137.62 117.135 137.644C117.642 137.693 117.851 140.107 117.851 140.107L120.061 140.191C120.061 140.191 121.152 144.731 122.112 145.246C122.731 145.589 123.253 146.082 123.632 146.679C123.711 146.799 123.756 146.938 123.762 147.082C123.767 147.225 123.734 147.368 123.665 147.494C123.595 147.62 123.493 147.724 123.369 147.797C123.245 147.869 123.104 147.906 122.96 147.904Z" fill="#25262D"/>
<path d="M122.71 147.189H122.673L119.28 146.682C118.866 146.62 118.472 146.466 118.124 146.233C117.777 145.999 117.487 145.691 117.273 145.331L114.276 140.323C114.259 140.295 114.248 140.263 114.243 140.23C114.238 140.197 114.24 140.163 114.248 140.131C114.264 140.066 114.306 140.01 114.364 139.975C114.422 139.941 114.491 139.931 114.556 139.947C114.621 139.964 114.677 140.005 114.712 140.063L117.709 145.071C117.884 145.365 118.123 145.617 118.408 145.808C118.692 145.998 119.016 146.123 119.355 146.174L122.747 146.681C122.814 146.686 122.877 146.717 122.921 146.768C122.965 146.819 122.987 146.885 122.982 146.953C122.977 147.02 122.945 147.082 122.894 147.126C122.843 147.17 122.777 147.192 122.71 147.188V147.189Z" fill="white"/>
<path d="M118.521 143.425C118.488 143.429 118.454 143.427 118.421 143.418C118.389 143.41 118.359 143.395 118.332 143.374C118.305 143.354 118.283 143.328 118.266 143.299C118.25 143.27 118.239 143.238 118.235 143.205C118.23 143.171 118.232 143.138 118.241 143.105C118.25 143.073 118.265 143.042 118.285 143.016C118.306 142.989 118.331 142.967 118.361 142.95C118.39 142.934 118.422 142.923 118.455 142.918L120.345 142.412C120.41 142.394 120.48 142.403 120.538 142.436C120.597 142.47 120.639 142.525 120.657 142.59C120.675 142.655 120.666 142.724 120.633 142.783C120.599 142.841 120.544 142.884 120.479 142.901L118.588 143.408C118.567 143.417 118.544 143.423 118.521 143.425Z" fill="white"/>
<path d="M119.507 144.393C119.474 144.397 119.44 144.394 119.408 144.385C119.376 144.376 119.346 144.36 119.32 144.34C119.266 144.298 119.232 144.236 119.224 144.169C119.217 144.102 119.236 144.034 119.278 143.981C119.32 143.928 119.381 143.894 119.448 143.886L120.715 143.575C120.779 143.563 120.845 143.576 120.899 143.612C120.954 143.647 120.992 143.701 121.008 143.764C121.023 143.827 121.014 143.894 120.982 143.95C120.95 144.006 120.897 144.048 120.835 144.067L119.568 144.378C119.549 144.385 119.528 144.391 119.507 144.393Z" fill="white"/>
<path d="M128.965 139.36L133.293 143.711L135.589 142.868L131.599 137.303L128.965 139.36Z" fill="white"/>
<path d="M133.293 143.964C133.259 143.964 133.226 143.958 133.195 143.945C133.164 143.932 133.136 143.913 133.112 143.89L128.782 139.539C128.757 139.514 128.737 139.484 128.725 139.45C128.712 139.417 128.707 139.381 128.71 139.345C128.712 139.309 128.722 139.275 128.738 139.243C128.755 139.211 128.778 139.183 128.806 139.161L131.446 137.103C131.473 137.082 131.504 137.066 131.537 137.057C131.57 137.048 131.604 137.046 131.638 137.051C131.672 137.056 131.704 137.067 131.734 137.085C131.763 137.103 131.788 137.126 131.808 137.154L135.8 142.729C135.823 142.761 135.838 142.797 135.844 142.836C135.85 142.874 135.847 142.913 135.836 142.95C135.825 142.989 135.806 143.024 135.779 143.054C135.753 143.083 135.719 143.106 135.682 143.119L133.386 143.964C133.355 143.97 133.324 143.97 133.293 143.964ZM129.343 139.384L133.357 143.425L135.187 142.749L131.544 137.664L129.343 139.384Z" fill="#1B1C21"/>
<path d="M131.925 143.03C131.925 143.03 131.715 144.888 132.07 146.517C132.165 146.938 132.401 147.315 132.739 147.584C133.077 147.854 133.496 148.001 133.928 148H144.555C144.722 148 144.884 147.948 145.021 147.852C145.157 147.757 145.261 147.621 145.318 147.464C145.375 147.307 145.382 147.137 145.339 146.976C145.295 146.815 145.203 146.671 145.075 146.564C143.186 144.981 139.711 142.565 135.437 141.855L134.254 143.523L131.925 143.03Z" fill="#25262D"/>
<path d="M144.058 146.794H133.046C132.979 146.794 132.915 146.767 132.867 146.719C132.82 146.672 132.793 146.607 132.793 146.54C132.793 146.473 132.82 146.409 132.867 146.361C132.915 146.314 132.979 146.287 133.046 146.287H144.058C144.125 146.287 144.19 146.314 144.237 146.361C144.285 146.409 144.311 146.473 144.311 146.54C144.311 146.607 144.285 146.672 144.237 146.719C144.19 146.767 144.125 146.794 144.058 146.794Z" fill="white"/>
<path d="M137.913 144.837C137.88 144.837 137.847 144.83 137.817 144.817C137.785 144.804 137.757 144.785 137.733 144.761C137.708 144.737 137.69 144.709 137.677 144.677C137.664 144.646 137.658 144.612 137.658 144.578C137.659 144.544 137.666 144.51 137.68 144.479L138.263 143.067C138.274 143.034 138.292 143.004 138.315 142.979C138.339 142.954 138.367 142.933 138.398 142.919C138.43 142.905 138.464 142.897 138.498 142.897C138.533 142.896 138.567 142.903 138.599 142.916C138.63 142.929 138.659 142.948 138.683 142.973C138.708 142.998 138.726 143.027 138.739 143.059C138.751 143.091 138.757 143.126 138.755 143.16C138.754 143.195 138.746 143.228 138.731 143.259L138.148 144.673C138.13 144.721 138.098 144.762 138.056 144.792C138.014 144.821 137.964 144.837 137.913 144.837Z" fill="white"/>
<path d="M139.831 145.209C139.79 145.209 139.751 145.199 139.715 145.18C139.679 145.162 139.648 145.135 139.624 145.102C139.601 145.069 139.585 145.031 139.579 144.991C139.573 144.951 139.577 144.91 139.589 144.871L140.012 143.596C140.022 143.564 140.039 143.535 140.06 143.51C140.082 143.484 140.109 143.464 140.138 143.449C140.168 143.434 140.2 143.425 140.234 143.422C140.267 143.42 140.3 143.424 140.332 143.434C140.363 143.445 140.393 143.461 140.418 143.483C140.443 143.505 140.464 143.531 140.479 143.561C140.494 143.591 140.503 143.623 140.505 143.656C140.508 143.69 140.504 143.723 140.493 143.755L140.071 145.03C140.055 145.082 140.023 145.127 139.98 145.159C139.937 145.191 139.885 145.209 139.831 145.209Z" fill="white"/>
<path d="M106.044 108.919C106.044 108.919 125.833 106.616 131.724 111.71C137.615 116.803 122.432 138.707 122.432 138.707L117.63 135.147L122.182 119.667L103.889 114.472L106.044 108.919Z" fill="#25262D"/>
<path d="M95.1543 119.001C98.0263 119.913 103.172 121.092 110.359 120.994C111.361 120.979 112.346 121.245 113.205 121.761C114.063 122.277 114.76 123.022 115.216 123.914C117.345 128.09 121.954 135.608 129.46 140.48L133.045 138.549L123.895 117.95C123.482 117.019 122.885 116.18 122.142 115.483C121.398 114.786 120.521 114.247 119.565 113.895L101.429 107.249C101.429 107.249 95.8064 105.678 93.0492 110.697C92.5576 111.594 91.642 109.993 91.4257 110.716C90.679 113.196 92.686 118.217 95.1543 119.001Z" fill="#25262D"/>
<path d="M128.03 127.512C127.981 127.512 127.933 127.498 127.892 127.471C127.85 127.445 127.818 127.407 127.798 127.362L123.664 118.053C123.262 117.155 122.685 116.346 121.966 115.674C121.247 115.001 120.401 114.48 119.478 114.139L110.792 110.953C110.758 110.944 110.725 110.929 110.697 110.907C110.669 110.886 110.645 110.858 110.628 110.827C110.611 110.796 110.601 110.761 110.598 110.726C110.596 110.69 110.6 110.655 110.612 110.621C110.624 110.588 110.643 110.557 110.668 110.531C110.692 110.505 110.722 110.485 110.755 110.472C110.788 110.458 110.823 110.452 110.859 110.453C110.894 110.454 110.929 110.462 110.961 110.478L119.645 113.662C120.632 114.027 121.537 114.585 122.305 115.304C123.074 116.023 123.691 116.888 124.12 117.849L128.254 127.156C128.268 127.186 128.276 127.219 128.278 127.253C128.279 127.287 128.273 127.32 128.262 127.352C128.25 127.383 128.231 127.412 128.208 127.437C128.185 127.461 128.157 127.48 128.126 127.494C128.095 127.506 128.063 127.513 128.03 127.512Z" fill="white"/>
<path d="M123.204 135.513C123.17 135.514 123.136 135.507 123.104 135.494C123.072 135.48 123.044 135.461 123.02 135.436C122.187 134.569 121.366 133.638 120.582 132.668C120.561 132.643 120.545 132.613 120.536 132.581C120.526 132.549 120.523 132.516 120.527 132.483C120.534 132.416 120.567 132.354 120.619 132.312C120.671 132.27 120.738 132.25 120.805 132.257C120.872 132.264 120.933 132.297 120.976 132.349C121.751 133.309 122.562 134.228 123.386 135.086C123.434 135.134 123.461 135.198 123.461 135.265C123.461 135.332 123.434 135.397 123.386 135.444C123.362 135.467 123.334 135.486 123.302 135.497C123.271 135.509 123.238 135.515 123.204 135.513Z" fill="white"/>
<path d="M120.779 132.763C120.741 132.763 120.704 132.755 120.67 132.738C120.635 132.722 120.605 132.698 120.581 132.669C120.196 132.192 119.813 131.699 119.441 131.199C119.419 131.172 119.402 131.142 119.392 131.108C119.382 131.075 119.379 131.041 119.382 131.006C119.386 130.972 119.397 130.938 119.415 130.908C119.432 130.878 119.455 130.852 119.483 130.832C119.511 130.811 119.542 130.796 119.576 130.788C119.61 130.78 119.645 130.779 119.679 130.785C119.713 130.791 119.745 130.804 119.774 130.823C119.803 130.842 119.828 130.867 119.847 130.896C120.215 131.39 120.595 131.88 120.975 132.349C120.996 132.375 121.012 132.405 121.021 132.437C121.031 132.469 121.034 132.502 121.03 132.535C121.027 132.568 121.017 132.6 121.001 132.63C120.985 132.659 120.964 132.685 120.938 132.706C120.893 132.743 120.837 132.763 120.779 132.763Z" fill="white"/>
<path d="M110.54 92.9365C110.54 92.9365 112.282 108.739 123.968 109.773L110.54 109.964C110.54 109.964 105.57 99.8902 105.367 95.9674C105.164 92.0445 110.54 92.9365 110.54 92.9365Z" fill="white"/>
<path d="M110.542 110.218C110.495 110.218 110.448 110.205 110.408 110.18C110.368 110.155 110.336 110.12 110.315 110.077C110.111 109.663 105.318 99.9104 105.115 95.9808C105.063 94.957 105.364 94.1461 106.011 93.5683C107.541 92.1999 110.461 92.6662 110.584 92.6864C110.638 92.6957 110.688 92.7225 110.726 92.7628C110.764 92.803 110.788 92.8545 110.793 92.9094C111.179 95.6609 111.958 98.3425 113.108 100.872C115.585 106.192 119.246 109.101 123.991 109.522C124.058 109.524 124.122 109.553 124.168 109.602C124.213 109.652 124.238 109.717 124.235 109.784C124.233 109.852 124.204 109.915 124.155 109.961C124.105 110.007 124.04 110.031 123.973 110.028L110.545 110.219L110.542 110.218ZM109.3 93.1037C108.374 93.1037 107.124 93.2524 106.347 93.9484C105.821 94.4181 105.578 95.0939 105.622 95.9555C105.806 99.5303 110.096 108.469 110.699 109.711L121.476 109.557C117.745 108.44 114.718 105.55 112.643 101.076C111.503 98.5595 110.719 95.8961 110.315 93.1628C109.978 93.1242 109.639 93.1045 109.3 93.1037Z" fill="#1B1C21"/>
<path d="M93.9091 82.8928C96.1763 82.3606 97.119 82.3521 105.363 82.6512C107.377 82.7238 109.773 85.2529 110.009 87.2532C109.369 89.1741 106.416 98.6535 111.574 106.06C112.443 107.303 113.483 108.417 114.665 109.368C113.614 110.229 112.404 110.876 111.104 111.272C108.447 112.061 107.109 111.208 104.966 111.272C99.2984 111.441 97.2204 117.752 93.5594 116.96C92.5812 116.749 91.2854 115.985 90.0707 113.429C89.2852 111.01 88.7353 108.521 88.4286 105.996C87.5044 98.3662 89.0165 92.014 90.368 88.0269C90.7701 86.7751 91.2398 83.5212 93.9091 82.8928Z" fill="url(#paint24_linear_989_78797)"/>
<path d="M112.077 94.7071C112.077 94.7071 110.746 84.0214 106.904 83.1091L107.786 97.1652L112.077 94.7071Z" fill="url(#paint25_linear_989_78797)"/>
<path d="M86.9255 94.3184C86.8984 95.5889 86.9052 96.7495 86.9559 97.6973C87.2938 103.779 88.1131 110.164 88.6166 115.451C88.7213 116.572 86.944 115.071 84.6532 115.083C83.9936 115.09 83.3559 115.321 82.8455 115.739C81.9129 116.494 80.2894 117.83 80.4803 117.83H88.9274C89.5696 117.831 90.1872 117.584 90.6521 117.141C91.117 116.698 91.3936 116.093 91.4244 115.451L92.5546 91.8975L86.9255 94.3184Z" fill="white"/>
<path d="M88.9263 118.084H80.3018L80.2274 117.915C80.1514 117.703 80.1244 117.624 82.6872 115.549C83.2404 115.092 83.9327 114.836 84.6504 114.825C85.7367 114.825 86.7115 115.141 87.421 115.374C87.7843 115.494 88.232 115.642 88.3587 115.605C88.3673 115.561 88.3673 115.515 88.3587 115.47C88.2049 113.841 88.0208 112.123 87.8282 110.305C87.3872 106.178 86.9328 101.912 86.6996 97.7057C86.649 96.7968 86.6388 95.6547 86.6675 94.3133V94.1443L92.8188 91.4919L91.6683 115.451C91.6378 116.159 91.3358 116.827 90.8251 117.317C90.3144 117.808 89.6343 118.082 88.9263 118.084ZM81.0451 117.577H88.9263C89.5036 117.577 90.059 117.355 90.4768 116.957C90.8947 116.559 91.1429 116.015 91.1699 115.438L92.2832 92.2927L87.1761 94.489C87.1507 95.7476 87.1625 96.8187 87.2098 97.6786C87.443 101.872 87.8974 106.126 88.3367 110.253C88.531 112.073 88.7134 113.791 88.8689 115.424C88.8901 115.529 88.8842 115.637 88.8517 115.738C88.8191 115.84 88.7611 115.931 88.683 116.004C88.3958 116.232 87.9447 116.083 87.2622 115.857C86.5797 115.631 85.6589 115.328 84.6554 115.333C84.0535 115.341 83.4718 115.551 83.0049 115.931C81.9321 116.8 81.3543 117.293 81.0451 117.577Z" fill="#1B1C21"/>
<path d="M92.5569 91.8552C90.8033 92.5969 88.7422 93.472 86.9277 94.2525C86.9277 94.2745 86.9277 94.2965 86.9277 94.3184L92.5552 91.8975L92.5569 91.8552Z" fill="white"/>
<path d="M86.6621 94.7088L86.6773 94.0837L86.8277 94.0195C88.387 93.3437 90.2809 92.5429 92.4585 91.6222L92.8285 91.4651L92.7998 92.0631L86.6621 94.7088Z" fill="#1B1C21"/>
<path d="M85.9434 96.6666C85.9434 96.6666 86.3184 90.3178 86.8675 87.8647C88.0214 82.7052 94.7081 82.6511 94.7081 82.6511L93.5407 95.7831L85.9434 96.6666Z" fill="url(#paint26_linear_989_78797)"/>
<path d="M100.466 82.6563L100.693 79.4464C100.846 79.4346 100.951 79.4278 100.983 79.4278C101.879 79.4177 102.166 79.1271 102.247 78.3922C102.317 77.7219 102.263 77.0444 102.088 76.3936C102.064 76.3023 102.07 76.2054 102.107 76.1182L102.259 75.7601C102.274 75.7021 102.273 75.6408 102.255 75.5835C102.236 75.5263 102.202 75.4756 102.156 75.4374L102.075 75.3715C101.783 75.1286 101.536 74.8371 101.345 74.5099C101.166 74.2092 100.86 73.6449 100.652 73.5452C100.063 73.2648 97.6754 72.0146 96.3407 74.1973C95.3 75.9003 97.0013 78.2435 97.6179 79.0105C97.7683 79.1963 96.6043 82.8337 96.6043 82.8337L95.1074 83.1952C95.1074 83.1952 96.263 85.2479 99.7719 84.3998C102.272 83.795 101.875 82.8641 101.875 82.8641L100.466 82.6563Z" fill="white"/>
<path d="M98.1655 84.861C95.8003 84.861 94.9387 83.3946 94.8965 83.3202C94.8771 83.2861 94.8658 83.248 94.8637 83.2088C94.8615 83.1696 94.8685 83.1304 94.884 83.0944C94.8996 83.0583 94.9233 83.0264 94.9533 83.0011C94.9833 82.9758 95.0188 82.9578 95.057 82.9486L96.417 82.6208C96.8917 81.1172 97.3597 79.4751 97.3833 79.1153C96.6113 78.1438 95.0553 75.8242 96.1298 74.0655C97.0657 72.5349 98.6048 72.2731 100.705 73.2867L100.766 73.3171C100.999 73.4269 101.222 73.7868 101.489 74.2446L101.568 74.3798C101.745 74.6823 101.974 74.9515 102.244 75.1755L102.325 75.2414C102.409 75.3105 102.472 75.4023 102.505 75.506C102.538 75.6097 102.541 75.7208 102.512 75.8259C102.509 75.8374 102.505 75.8487 102.501 75.8597L102.349 76.2179C102.336 76.254 102.336 76.2933 102.349 76.3294C102.532 77.0092 102.59 77.717 102.517 78.4175C102.423 79.3163 101.999 79.6694 100.997 79.6812H100.941L100.735 82.4367L101.918 82.6056C101.96 82.6122 102.001 82.6294 102.035 82.6557C102.069 82.682 102.096 82.7165 102.114 82.756C102.15 82.8618 102.164 82.9741 102.154 83.0856C102.144 83.1971 102.111 83.3053 102.056 83.403C101.793 83.9301 101.043 84.344 99.8364 84.6363C99.2903 84.7771 98.7294 84.8525 98.1655 84.861ZM95.552 83.3506C96.0047 83.844 97.2228 84.7579 99.7232 84.1531C101.075 83.8254 101.477 83.4199 101.597 83.207C101.619 83.1689 101.635 83.128 101.646 83.0854L100.434 82.9063C100.371 82.8971 100.314 82.8643 100.274 82.8145C100.233 82.7646 100.214 82.7015 100.218 82.6377L100.445 79.4278C100.449 79.3668 100.475 79.3094 100.518 79.2662C100.561 79.223 100.618 79.1969 100.679 79.193C100.848 79.1811 100.953 79.1744 100.985 79.1744C101.776 79.1659 101.938 78.9548 101.999 78.3651C102.065 77.7254 102.013 77.079 101.847 76.4578C101.809 76.311 101.821 76.1557 101.882 76.0168L102.024 75.6789C102.025 75.6698 102.024 75.6605 102.02 75.652C102.017 75.6434 102.011 75.6359 102.004 75.63L101.923 75.5641C101.609 75.3025 101.343 74.9888 101.136 74.6366L101.054 74.4963C100.938 74.2987 100.668 73.8358 100.548 73.7699L100.485 73.7395C99.8093 73.4117 97.7347 72.4116 96.5639 74.3274C95.6364 75.8479 97.135 77.9935 97.8226 78.8483C97.9155 78.9649 98.0574 79.1389 96.8579 82.9029C96.8444 82.9443 96.8206 82.9816 96.7887 83.0112C96.7567 83.0407 96.7177 83.0616 96.6754 83.0719L95.552 83.3506Z" fill="#1B1C21"/>
<path d="M97.0772 71.4234C97.7243 71.2832 98.4676 71.3829 98.7818 71.268C99.2887 71.0805 99.3022 70.474 100.003 70.3033C100.848 70.0972 101.204 70.4588 101.537 70.9639C101.595 71.0539 101.643 71.1496 101.681 71.2494C102.213 72.6804 101.541 73.3781 101.24 73.6045C101.24 73.6045 99.3326 74.5911 99.0048 74.8716C98.6771 75.152 98.3477 75.7602 98.569 76.6573C98.5828 76.7127 98.5786 76.771 98.5571 76.8239C98.5355 76.8768 98.4977 76.9214 98.449 76.9513C98.3934 76.9837 98.3275 76.9937 98.2647 76.9792C98.2019 76.9648 98.147 76.927 98.1111 76.8735C97.8628 76.5137 97.3205 75.8176 96.9285 75.9832C96.4437 76.1893 96.5906 77.6422 97.6634 77.8095C97.8299 77.8427 97.9786 77.9351 98.082 78.0696C98.1855 78.2042 98.2367 78.3716 98.226 78.541C98.201 78.6793 98.1358 78.8071 98.0384 78.9084C97.941 79.0097 97.8158 79.08 97.6786 79.1103C97.5823 79.1245 97.4841 79.1193 97.3898 79.0949C97.2955 79.0705 97.207 79.0275 97.1296 78.9684C96.4318 78.5224 94.4637 76.6336 94.2187 74.9408C93.9281 72.9 96.2156 71.6076 97.0772 71.4234Z" fill="#25262D"/>
<path d="M100.934 79.6491H100.923C100.412 79.6181 99.921 79.4345 99.5145 79.122C99.467 79.0817 99.4375 79.0241 99.4324 78.962C99.4274 78.8999 99.4472 78.8384 99.4875 78.7909C99.5278 78.7434 99.5854 78.7139 99.6475 78.7088C99.7095 78.7037 99.7711 78.7235 99.8186 78.7639C100.145 79.0076 100.535 79.1514 100.942 79.1778C101.001 79.1837 101.056 79.2117 101.095 79.256C101.135 79.3004 101.156 79.358 101.155 79.4173C101.154 79.4767 101.13 79.5334 101.089 79.5764C101.048 79.6193 100.993 79.6453 100.934 79.6491Z" fill="#1B1C21"/>
<path d="M105.171 109.846H133.998V110.049C133.998 110.407 133.855 110.751 133.602 111.004C133.348 111.258 133.004 111.4 132.646 111.4H106.516C106.157 111.4 105.813 111.258 105.56 111.004C105.306 110.751 105.164 110.407 105.164 110.049V109.846H105.171Z" fill="white"/>
<path d="M132.653 111.647H106.516C106.092 111.646 105.686 111.478 105.387 111.178C105.087 110.879 104.918 110.472 104.918 110.049V109.846C104.918 109.779 104.945 109.714 104.992 109.667C105.04 109.619 105.104 109.593 105.171 109.593H133.998C134.065 109.593 134.13 109.619 134.177 109.667C134.225 109.714 134.252 109.779 134.252 109.846V110.049C134.251 110.472 134.083 110.879 133.783 111.178C133.483 111.478 133.077 111.646 132.653 111.647ZM105.43 110.099C105.443 110.38 105.564 110.644 105.767 110.838C105.971 111.032 106.24 111.14 106.521 111.14H132.653C132.934 111.14 133.204 111.032 133.407 110.838C133.61 110.644 133.731 110.38 133.745 110.099H105.43Z" fill="#1B1C21"/>
<path d="M133.999 109.875H117.504L122.741 94.4468C122.899 94.2072 123.114 94.0109 123.367 93.8755C123.62 93.74 123.902 93.6699 124.189 93.6713H138.132C138.272 93.6685 138.411 93.6997 138.536 93.7622C138.662 93.8248 138.77 93.9168 138.852 94.0304C138.934 94.144 138.987 94.2758 139.007 94.4145C139.027 94.5533 139.013 94.6948 138.966 94.8269C138.884 95.0431 138.797 95.256 138.723 95.4756L133.999 109.875Z" fill="white"/>
<path d="M134 110.128H117.504C117.464 110.128 117.424 110.119 117.388 110.1C117.351 110.082 117.32 110.055 117.297 110.021C117.273 109.988 117.258 109.95 117.252 109.91C117.247 109.87 117.251 109.829 117.264 109.79L122.502 94.3641C122.508 94.3439 122.517 94.3246 122.529 94.3067C122.709 94.0313 122.956 93.8056 123.246 93.6501C123.536 93.4945 123.86 93.4142 124.189 93.4163H138.132C138.318 93.4142 138.501 93.4578 138.666 93.5432C138.83 93.6287 138.972 93.7534 139.077 93.9063C139.179 94.0523 139.243 94.2208 139.265 94.3974C139.287 94.574 139.266 94.7534 139.203 94.9199L139.132 95.1024C139.072 95.2578 139.014 95.4048 138.964 95.5568L134.233 109.956C134.217 110.005 134.185 110.048 134.144 110.079C134.102 110.109 134.052 110.127 134 110.128ZM117.857 109.621H133.812L138.484 95.3964C138.538 95.2274 138.6 95.072 138.661 94.9165L138.73 94.7375C138.764 94.6485 138.775 94.5526 138.762 94.4583C138.75 94.364 138.715 94.2742 138.659 94.1968C138.601 94.1116 138.522 94.0422 138.43 93.9948C138.338 93.9473 138.236 93.9233 138.132 93.9249H124.193C123.953 93.9228 123.717 93.9796 123.505 94.0904C123.292 94.2012 123.11 94.3625 122.975 94.5601L117.857 109.621Z" fill="#1B1C21"/>
<path opacity="0.4" d="M127.878 101.564C127.682 102.216 127.983 102.884 128.554 103.056C129.125 103.228 129.737 102.836 129.938 102.184C130.139 101.532 129.833 100.865 129.262 100.694C128.691 100.524 128.069 100.912 127.878 101.564Z" fill="url(#paint27_linear_989_78797)"/>
<path d="M129.794 110.128H120.707C120.639 110.128 120.575 110.101 120.527 110.054C120.48 110.006 120.453 109.942 120.453 109.875C120.453 109.808 120.48 109.743 120.527 109.696C120.575 109.648 120.639 109.621 120.707 109.621H129.794C129.861 109.621 129.926 109.648 129.973 109.696C130.021 109.743 130.047 109.808 130.047 109.875C130.047 109.942 130.021 110.006 129.973 110.054C129.926 110.101 129.861 110.128 129.794 110.128Z" fill="white"/>
<path d="M134.42 110.128H132.81C132.743 110.128 132.678 110.101 132.631 110.054C132.583 110.006 132.557 109.942 132.557 109.875C132.557 109.808 132.583 109.743 132.631 109.696C132.678 109.648 132.743 109.621 132.81 109.621H134.42C134.487 109.621 134.552 109.648 134.599 109.696C134.647 109.743 134.673 109.808 134.673 109.875C134.673 109.942 134.647 110.006 134.599 110.054C134.552 110.101 134.487 110.128 134.42 110.128Z" fill="white"/>
<path d="M181.118 27.2954L177.81 35.7426C176.473 39.2093 181.155 44.2134 188.267 46.9181C195.38 49.6229 202.227 49.0046 203.563 45.5362L206.871 37.089L181.118 27.2954Z" fill="url(#paint28_linear_989_78797)"/>
<path d="M196.679 48.8577C194.067 48.8577 191.104 48.2697 188.178 47.1564C183.155 45.2457 179.186 42.1557 177.82 39.0928C177.261 37.8409 177.178 36.6836 177.575 35.6531L180.884 27.2059C180.909 27.1436 180.956 27.0933 181.017 27.0661C181.079 27.0389 181.148 27.0369 181.21 27.0606L206.962 36.8593C206.994 36.8711 207.023 36.889 207.047 36.9121C207.071 36.9351 207.091 36.9628 207.104 36.9935C207.118 37.0242 207.125 37.0572 207.126 37.0908C207.126 37.1243 207.12 37.1576 207.108 37.1888L203.801 45.6359C203.126 47.4064 201.098 48.5299 198.105 48.8002C197.643 48.8374 197.165 48.8577 196.679 48.8577ZM181.264 27.6215L178.055 35.8355C177.708 36.7343 177.786 37.7615 178.289 38.8866C179.583 41.7857 183.538 44.8469 188.365 46.6817C195.336 49.3341 202.05 48.7799 203.335 45.4467L206.545 37.2361L181.264 27.6215Z" fill="#1B1C21"/>
<path d="M208.582 34.7949L197.535 24.165C197.32 23.981 197.048 23.8772 196.765 23.871L181.391 24.4539L176.133 22.4536L175.153 24.9878C175.12 25.0711 175.114 25.1628 175.136 25.2498C175.158 25.3368 175.206 25.4148 175.275 25.4726L190.966 38.8985C191.182 39.082 191.454 39.1852 191.737 39.1908L212.442 39.6081C212.532 39.6113 212.621 39.5859 212.696 39.5355C212.771 39.4851 212.827 39.4123 212.858 39.3276L213.838 36.7935L208.582 34.7949Z" fill="white"/>
<path opacity="0.6" d="M208.582 34.7949L197.535 24.165C197.32 23.981 197.048 23.8772 196.765 23.871L181.391 24.4539L176.133 22.4536L175.153 24.9878C175.12 25.0711 175.114 25.1628 175.136 25.2498C175.158 25.3368 175.206 25.4148 175.275 25.4726L190.966 38.8985C191.182 39.082 191.454 39.1852 191.737 39.1908L212.442 39.6081C212.532 39.6113 212.621 39.5859 212.696 39.5355C212.771 39.4851 212.827 39.4123 212.858 39.3276L213.838 36.7935L208.582 34.7949Z" fill="url(#paint29_linear_989_78797)"/>
<path d="M212.455 39.8631H212.44L191.734 39.4458C191.393 39.4391 191.064 39.3143 190.805 39.0927L175.113 25.6718C175.004 25.5805 174.927 25.457 174.892 25.319C174.857 25.181 174.866 25.0354 174.919 24.9032L175.899 22.369C175.923 22.3067 175.971 22.2564 176.032 22.2292C176.093 22.202 176.163 22.2 176.225 22.2237L181.435 24.2054L196.753 23.6243C197.1 23.6287 197.434 23.7542 197.698 23.979L208.72 34.5836L213.93 36.5636C213.992 36.5886 214.043 36.6363 214.072 36.6971C214.097 36.7599 214.097 36.8302 214.072 36.893L213.092 39.4272C213.043 39.5562 212.956 39.6671 212.842 39.745C212.728 39.8229 212.593 39.8641 212.455 39.8631ZM176.281 22.7795L175.392 25.0822C175.377 25.1166 175.374 25.155 175.383 25.1914C175.392 25.2279 175.413 25.2602 175.443 25.2833L191.134 38.7092C191.305 38.8546 191.52 38.9364 191.744 38.9406L212.45 39.3562C212.487 39.3579 212.524 39.3473 212.554 39.3259C212.585 39.3045 212.608 39.2736 212.619 39.238L213.506 36.937L208.485 35.0296C208.453 35.0175 208.423 34.9991 208.399 34.9755L197.351 24.3456C197.183 24.2055 196.971 24.1268 196.752 24.1226L181.396 24.7055C181.362 24.7068 181.328 24.701 181.297 24.6886L176.281 22.7795Z" fill="#1B1C21"/>
<path d="M213.723 36.3154L198.028 22.8827C197.813 22.6985 197.541 22.5952 197.258 22.5905L176.556 22.1732C176.466 22.1715 176.379 22.1972 176.304 22.247C176.23 22.2968 176.173 22.3683 176.141 22.4516C176.108 22.5349 176.103 22.6262 176.124 22.713C176.145 22.7998 176.193 22.8779 176.26 22.9368L191.953 36.3627C192.167 36.5469 192.439 36.6503 192.722 36.655L213.427 37.0723C213.515 37.0724 213.601 37.046 213.674 36.9965C213.746 36.9471 213.802 36.8768 213.834 36.795C213.866 36.7131 213.873 36.6236 213.853 36.538C213.833 36.4524 213.788 36.3748 213.723 36.3154Z" fill="url(#paint30_linear_989_78797)"/>
<path d="M213.434 37.3288H213.419L192.713 36.9115C192.372 36.9049 192.044 36.7801 191.784 36.5584L176.093 23.1376C175.984 23.0465 175.907 22.9236 175.872 22.7863C175.837 22.6489 175.847 22.5041 175.899 22.3723C175.948 22.2389 176.039 22.1243 176.157 22.0447C176.275 21.965 176.415 21.9242 176.557 21.928L197.263 22.3453C197.604 22.3519 197.933 22.4767 198.192 22.6984L213.892 36.1158C213.999 36.2073 214.075 36.3294 214.11 36.4656C214.146 36.6018 214.138 36.7454 214.089 36.8773C214.04 37.0091 213.952 37.1228 213.836 37.2029C213.721 37.2831 213.583 37.3258 213.443 37.3254L213.434 37.3288ZM176.542 22.4264C176.505 22.4265 176.469 22.4379 176.439 22.459C176.409 22.4802 176.386 22.51 176.373 22.5446C176.359 22.5788 176.356 22.6168 176.365 22.6529C176.374 22.6889 176.395 22.721 176.424 22.744L192.115 36.1699C192.286 36.3156 192.501 36.3975 192.725 36.4013L213.429 36.822C213.466 36.8218 213.502 36.8104 213.532 36.7893C213.562 36.7682 213.585 36.7383 213.598 36.7037C213.613 36.6695 213.616 36.6315 213.607 36.5954C213.598 36.5594 213.577 36.5274 213.548 36.5044L197.856 23.0785C197.686 22.9325 197.47 22.8506 197.246 22.847L176.556 22.4264H176.542Z" fill="#1B1C21"/>
<path d="M204.038 44.4551C203.852 44.4504 203.671 44.5165 203.532 44.6401C203.393 44.7636 203.306 44.9354 203.288 45.1207L202.258 55.9787L205.218 56.0547L204.753 45.1596C204.745 44.9736 204.667 44.7975 204.534 44.6668C204.402 44.5361 204.225 44.4604 204.038 44.4551Z" fill="white"/>
<path opacity="0.3" d="M204.038 44.4548C203.852 44.4501 203.671 44.5163 203.532 44.6398C203.393 44.7634 203.306 44.9351 203.288 45.1205L202.258 55.9784L205.218 56.0544L204.753 45.1593C204.745 44.9733 204.667 44.7973 204.534 44.6666C204.402 44.5358 204.225 44.4602 204.038 44.4548Z" fill="url(#paint31_linear_989_78797)"/>
<path d="M205.217 56.3081L202.257 56.2321C202.223 56.2313 202.188 56.2234 202.157 56.2089C202.125 56.1944 202.097 56.1735 202.073 56.1476C202.05 56.1214 202.033 56.0908 202.022 56.0577C202.012 56.0246 202.008 55.9897 202.011 55.955L203.043 45.0971C203.069 44.8497 203.187 44.6212 203.374 44.4572C203.561 44.2932 203.803 44.2056 204.051 44.212C204.3 44.2184 204.537 44.3183 204.715 44.4917C204.893 44.6651 205 44.8994 205.013 45.1477L205.477 56.0445C205.479 56.0787 205.473 56.1127 205.461 56.1446C205.449 56.1766 205.431 56.2057 205.407 56.2303C205.383 56.2549 205.355 56.2745 205.323 56.2879C205.292 56.3013 205.258 56.3081 205.224 56.3081H205.217ZM202.535 55.732L204.952 55.7945L204.499 45.1697C204.495 45.0477 204.444 44.9321 204.357 44.8464C204.27 44.7607 204.153 44.7114 204.031 44.7085C203.91 44.7062 203.792 44.7498 203.701 44.8306C203.61 44.9114 203.553 45.0234 203.541 45.1444L202.535 55.732Z" fill="#1B1C21"/>
<path d="M203.905 44.6138C203.838 44.6125 203.774 44.5845 203.727 44.5361C203.68 44.4877 203.654 44.4227 203.655 44.3553L203.763 37.0451L195.005 29.343C194.98 29.3209 194.96 29.294 194.945 29.2639C194.931 29.2339 194.922 29.2012 194.92 29.1679C194.918 29.1346 194.923 29.1012 194.934 29.0696C194.945 29.0381 194.962 29.009 194.984 28.984C195.006 28.9591 195.033 28.9387 195.063 28.9242C195.093 28.9096 195.126 28.9011 195.159 28.8991C195.193 28.8972 195.226 28.9018 195.258 28.9127C195.289 28.9237 195.318 28.9407 195.343 28.9629L204.189 36.7343C204.217 36.7584 204.239 36.7883 204.254 36.8219C204.268 36.8555 204.276 36.8919 204.275 36.9286L204.165 44.3621C204.165 44.3958 204.158 44.4291 204.145 44.4601C204.132 44.4911 204.112 44.5191 204.088 44.5426C204.064 44.566 204.035 44.5844 204.004 44.5966C203.972 44.6089 203.939 44.6147 203.905 44.6138Z" fill="#1B1C21"/>
<path d="M207.951 69.3166C207.883 69.3166 207.819 69.2899 207.771 69.2424C207.724 69.1949 207.697 69.1304 207.697 69.0632V67.7539C207.697 67.6867 207.724 67.6222 207.771 67.5747C207.819 67.5272 207.883 67.5005 207.951 67.5005C208.018 67.5005 208.082 67.5272 208.13 67.5747C208.177 67.6222 208.204 67.6867 208.204 67.7539V69.0632C208.204 69.1304 208.177 69.1949 208.13 69.2424C208.082 69.2899 208.018 69.3166 207.951 69.3166Z" fill="#1B1C21"/>
<path d="M207.951 72.3694C207.883 72.3694 207.819 72.3427 207.771 72.2951C207.724 72.2476 207.697 72.1832 207.697 72.1159V70.8066C207.697 70.7394 207.724 70.675 207.771 70.6275C207.819 70.5799 207.883 70.5532 207.951 70.5532C208.018 70.5532 208.082 70.5799 208.13 70.6275C208.177 70.675 208.204 70.7394 208.204 70.8066V72.1159C208.204 72.1832 208.177 72.2476 208.13 72.2951C208.082 72.3427 208.018 72.3694 207.951 72.3694Z" fill="#1B1C21"/>
<path d="M207.082 70.1885H205.771C205.704 70.1885 205.639 70.1618 205.592 70.1142C205.544 70.0667 205.518 70.0023 205.518 69.9351C205.518 69.8678 205.544 69.8034 205.592 69.7559C205.639 69.7083 205.704 69.6816 205.771 69.6816H207.082C207.149 69.6816 207.214 69.7083 207.261 69.7559C207.309 69.8034 207.335 69.8678 207.335 69.9351C207.335 70.0023 207.309 70.0667 207.261 70.1142C207.214 70.1618 207.149 70.1885 207.082 70.1885Z" fill="#1B1C21"/>
<path d="M210.135 70.1885H208.824C208.757 70.1885 208.692 70.1618 208.645 70.1142C208.597 70.0667 208.57 70.0023 208.57 69.9351C208.57 69.8678 208.597 69.8034 208.645 69.7559C208.692 69.7083 208.757 69.6816 208.824 69.6816H210.135C210.202 69.6816 210.266 69.7083 210.314 69.7559C210.361 69.8034 210.388 69.8678 210.388 69.9351C210.388 70.0023 210.361 70.0667 210.314 70.1142C210.266 70.1618 210.202 70.1885 210.135 70.1885Z" fill="#1B1C21"/>
<path d="M94.9292 65.5998C94.862 65.5998 94.7975 65.5731 94.75 65.5256C94.7025 65.4781 94.6758 65.4136 94.6758 65.3464V64.0371C94.6758 63.9699 94.7025 63.9054 94.75 63.8579C94.7975 63.8104 94.862 63.7837 94.9292 63.7837C94.9964 63.7837 95.0609 63.8104 95.1084 63.8579C95.1559 63.9054 95.1826 63.9699 95.1826 64.0371V65.3464C95.1826 65.4136 95.1559 65.4781 95.1084 65.5256C95.0609 65.5731 94.9964 65.5998 94.9292 65.5998Z" fill="#1B1C21"/>
<path d="M94.9292 68.6526C94.862 68.6526 94.7975 68.6259 94.75 68.5783C94.7025 68.5308 94.6758 68.4664 94.6758 68.3991V67.0898C94.6758 67.0226 94.7025 66.9582 94.75 66.9107C94.7975 66.8631 94.862 66.8364 94.9292 66.8364C94.9964 66.8364 95.0609 66.8631 95.1084 66.9107C95.1559 66.9582 95.1826 67.0226 95.1826 67.0898V68.3991C95.1826 68.4664 95.1559 68.5308 95.1084 68.5783C95.0609 68.6259 94.9964 68.6526 94.9292 68.6526Z" fill="#1B1C21"/>
<path d="M94.0586 66.4717H92.7476C92.6803 66.4717 92.6159 66.445 92.5684 66.3975C92.5208 66.3499 92.4941 66.2855 92.4941 66.2183C92.4941 66.151 92.5208 66.0866 92.5684 66.0391C92.6159 65.9915 92.6803 65.9648 92.7476 65.9648H94.0586C94.1258 65.9648 94.1902 65.9915 94.2377 66.0391C94.2853 66.0866 94.312 66.151 94.312 66.2183C94.312 66.2855 94.2853 66.3499 94.2377 66.3975C94.1902 66.445 94.1258 66.4717 94.0586 66.4717Z" fill="#1B1C21"/>
<path d="M97.1113 66.4717H95.8003C95.7331 66.4717 95.6686 66.445 95.6211 66.3975C95.5736 66.3499 95.5469 66.2855 95.5469 66.2183C95.5469 66.151 95.5736 66.0866 95.6211 66.0391C95.6686 65.9915 95.7331 65.9648 95.8003 65.9648H97.1113C97.1785 65.9648 97.243 65.9915 97.2905 66.0391C97.338 66.0866 97.3647 66.151 97.3647 66.2183C97.3647 66.2855 97.338 66.3499 97.2905 66.3975C97.243 66.445 97.1785 66.4717 97.1113 66.4717Z" fill="#1B1C21"/>
<path d="M106.487 70.8439C106.432 70.8442 106.378 70.8264 106.334 70.7931C106.289 70.7598 106.257 70.713 106.242 70.6598C106.227 70.6065 106.23 70.5498 106.25 70.4982C106.27 70.4466 106.306 70.4031 106.354 70.3742L118.994 62.6248C119.051 62.5897 119.12 62.5787 119.186 62.5944C119.251 62.6101 119.308 62.6511 119.343 62.7085C119.378 62.7658 119.389 62.8348 119.373 62.9002C119.358 62.9656 119.317 63.0221 119.259 63.0573L106.612 70.8067C106.574 70.8297 106.531 70.8426 106.487 70.8439Z" fill="white"/>
<path d="M113.694 61.591C113.639 61.5913 113.585 61.5734 113.541 61.5402C113.496 61.5069 113.464 61.4601 113.449 61.4068C113.434 61.3536 113.437 61.2968 113.457 61.2453C113.477 61.1937 113.514 61.1502 113.561 61.1213L120.214 57.043C120.242 57.0256 120.274 57.014 120.307 57.0088C120.339 57.0035 120.373 57.0048 120.405 57.0126C120.438 57.0204 120.468 57.0344 120.495 57.054C120.522 57.0736 120.545 57.0983 120.563 57.1267C120.58 57.1551 120.592 57.1866 120.597 57.2195C120.602 57.2524 120.601 57.286 120.593 57.3184C120.585 57.3508 120.571 57.3814 120.552 57.4083C120.532 57.4353 120.507 57.4581 120.479 57.4755L113.826 61.5538C113.786 61.578 113.741 61.5908 113.694 61.591Z" fill="white"/>
<path d="M147.665 92.3484C147.616 92.3484 147.567 92.3338 147.526 92.3064C147.484 92.2789 147.452 92.2399 147.432 92.1942C147.413 92.1485 147.407 92.098 147.416 92.0492C147.425 92.0003 147.448 91.9551 147.483 91.9193L148.28 91.0864C148.327 91.0399 148.39 91.0134 148.456 91.0127C148.522 91.012 148.586 91.0371 148.634 91.0827C148.682 91.1283 148.71 91.1908 148.712 91.2568C148.715 91.3228 148.691 91.3872 148.647 91.4362L147.85 92.2707C147.826 92.2955 147.797 92.3152 147.765 92.3285C147.734 92.3419 147.7 92.3487 147.665 92.3484Z" fill="#1B1C21"/>
<path d="M144.872 95.2662C144.823 95.2662 144.774 95.2516 144.733 95.2241C144.691 95.1967 144.659 95.1577 144.639 95.112C144.62 95.0663 144.614 95.0158 144.623 94.9669C144.632 94.9181 144.655 94.8729 144.69 94.8371L145.487 94.0042C145.51 93.9773 145.537 93.9553 145.568 93.9395C145.599 93.9238 145.633 93.9146 145.668 93.9125C145.703 93.9105 145.738 93.9157 145.77 93.9277C145.803 93.9398 145.833 93.9584 145.858 93.9826C145.883 94.0067 145.903 94.0357 145.917 94.0679C145.93 94.1001 145.937 94.1347 145.936 94.1695C145.936 94.2044 145.928 94.2388 145.913 94.2705C145.899 94.3022 145.878 94.3306 145.852 94.3539L145.055 95.1885C145.031 95.2132 145.003 95.2329 144.972 95.2462C144.94 95.2596 144.906 95.2664 144.872 95.2662Z" fill="#1B1C21"/>
<path d="M145.655 92.3942C145.588 92.3939 145.524 92.3672 145.477 92.3199L144.668 91.5225C144.643 91.4995 144.623 91.4717 144.609 91.4408C144.595 91.4098 144.587 91.3764 144.586 91.3424C144.585 91.3084 144.591 91.2746 144.604 91.2429C144.616 91.2113 144.635 91.1825 144.658 91.1582C144.682 91.1339 144.711 91.1147 144.742 91.1017C144.774 91.0886 144.807 91.082 144.841 91.0823C144.875 91.0825 144.909 91.0896 144.94 91.1032C144.971 91.1167 144.999 91.1363 145.023 91.161L145.832 91.9601C145.88 92.0076 145.906 92.072 145.906 92.1391C145.906 92.2063 145.88 92.2707 145.832 92.3182C145.809 92.342 145.782 92.361 145.751 92.374C145.721 92.3871 145.688 92.394 145.655 92.3942Z" fill="#1B1C21"/>
<path d="M148.489 95.1852C148.426 95.1833 148.365 95.1573 148.32 95.1125L147.498 94.3151C147.452 94.2675 147.427 94.2042 147.428 94.1385C147.428 94.0727 147.454 94.0098 147.5 93.9629C147.546 93.916 147.609 93.8888 147.674 93.8871C147.74 93.8853 147.804 93.9092 147.852 93.9536L148.663 94.7527C148.711 94.8002 148.737 94.8646 148.737 94.9318C148.737 94.9989 148.711 95.0633 148.663 95.1108C148.617 95.1576 148.555 95.1843 148.489 95.1852Z" fill="#1B1C21"/>
<path d="M154.748 86.8294C154.528 86.8293 154.31 86.788 154.105 86.7077C153.879 86.6212 153.673 86.4899 153.498 86.3219C153.324 86.1538 153.186 85.9523 153.091 85.7295C152.9 85.2851 152.889 84.7835 153.062 84.3314C153.234 83.8793 153.576 83.5124 154.015 83.3086C154.23 83.211 154.462 83.1576 154.698 83.1515C154.934 83.1454 155.169 83.1867 155.389 83.2731C155.615 83.3598 155.821 83.491 155.995 83.6591C156.169 83.8272 156.308 84.0286 156.402 84.2513C156.594 84.6957 156.605 85.1973 156.432 85.6494C156.259 86.1015 155.917 86.4685 155.478 86.6723C155.249 86.7759 155 86.8295 154.748 86.8294ZM154.226 83.7715C153.909 83.9209 153.663 84.1876 153.538 84.5154C153.414 84.8432 153.422 85.2065 153.561 85.5285C153.628 85.6892 153.727 85.8347 153.852 85.9563C153.977 86.0779 154.125 86.1731 154.287 86.2364C154.444 86.2976 154.612 86.3269 154.781 86.3225C154.949 86.3182 155.115 86.2803 155.269 86.211C155.586 86.0617 155.833 85.7946 155.958 85.4664C156.082 85.1382 156.074 84.7745 155.934 84.4523C155.867 84.2917 155.768 84.1462 155.643 84.0246C155.518 83.903 155.37 83.8077 155.208 83.7445C155.051 83.6831 154.883 83.6538 154.714 83.6585C154.546 83.6631 154.38 83.7015 154.226 83.7715Z" fill="#1B1C21"/>
<path d="M159.897 19.1894C159.863 19.1897 159.83 19.1832 159.8 19.1704C159.769 19.1577 159.741 19.1388 159.718 19.1151L158.986 18.3785C158.939 18.3308 158.912 18.2661 158.912 18.1988C158.912 18.1315 158.939 18.067 158.987 18.0195C159.035 17.972 159.099 17.9454 159.167 17.9456C159.234 17.9457 159.298 17.9726 159.346 18.0203L160.081 18.7569C160.116 18.7924 160.14 18.8375 160.15 18.8866C160.16 18.9358 160.155 18.9867 160.136 19.0329C160.116 19.0792 160.084 19.1188 160.042 19.1466C160.001 19.1745 159.952 19.1894 159.902 19.1894H159.897Z" fill="#1B1C21"/>
<path d="M162.472 21.7693C162.438 21.7695 162.405 21.7631 162.374 21.7503C162.344 21.7376 162.316 21.7187 162.292 21.695L161.556 20.9584C161.509 20.9106 161.482 20.8463 161.482 20.7793C161.482 20.7123 161.509 20.6479 161.556 20.6002C161.579 20.5765 161.607 20.5577 161.638 20.5448C161.669 20.532 161.702 20.5254 161.735 20.5254C161.768 20.5254 161.801 20.532 161.832 20.5448C161.863 20.5577 161.891 20.5765 161.914 20.6002L162.651 21.3368C162.674 21.3602 162.693 21.3881 162.706 21.4188C162.719 21.4496 162.725 21.4826 162.725 21.5159C162.725 21.5492 162.719 21.5822 162.706 21.6129C162.693 21.6437 162.674 21.6715 162.651 21.695C162.627 21.7187 162.599 21.7376 162.569 21.7503C162.538 21.7631 162.505 21.7695 162.472 21.7693Z" fill="#1B1C21"/>
<path d="M159.155 21.7693C159.122 21.7694 159.089 21.7629 159.058 21.7502C159.027 21.7374 158.999 21.7186 158.976 21.6949C158.929 21.6472 158.902 21.5829 158.902 21.5159C158.902 21.4488 158.929 21.3845 158.976 21.3368L159.712 20.6002C159.736 20.5753 159.764 20.5553 159.795 20.5415C159.826 20.5276 159.859 20.5202 159.893 20.5196C159.927 20.519 159.961 20.5252 159.993 20.538C160.024 20.5507 160.053 20.5697 160.077 20.5938C160.101 20.6178 160.12 20.6465 160.133 20.678C160.145 20.7096 160.152 20.7434 160.151 20.7774C160.151 20.8114 160.143 20.845 160.129 20.8761C160.115 20.9072 160.095 20.9351 160.071 20.9583L159.336 21.6949C159.312 21.7188 159.284 21.7376 159.253 21.7504C159.222 21.7631 159.188 21.7696 159.155 21.7693Z" fill="#1B1C21"/>
<path d="M161.736 19.1895C161.686 19.1895 161.637 19.1746 161.595 19.1467C161.553 19.1189 161.521 19.0793 161.502 19.0331C161.483 18.9868 161.478 18.9359 161.487 18.8867C161.497 18.8376 161.521 18.7925 161.557 18.757L162.293 18.0204C162.341 17.9734 162.405 17.947 162.472 17.947C162.539 17.947 162.604 17.9734 162.651 18.0204C162.675 18.0439 162.694 18.0717 162.707 18.1025C162.719 18.1332 162.726 18.1662 162.726 18.1995C162.726 18.2328 162.719 18.2658 162.707 18.2966C162.694 18.3273 162.675 18.3552 162.651 18.3786L161.915 19.1152C161.891 19.1391 161.864 19.158 161.833 19.1708C161.802 19.1836 161.769 19.19 161.736 19.1895Z" fill="#1B1C21"/>
<path d="M155.776 145.405C155.743 145.407 155.709 145.402 155.678 145.391C155.646 145.38 155.617 145.363 155.593 145.341C155.568 145.319 155.547 145.292 155.533 145.262C155.519 145.232 155.51 145.199 155.508 145.166C155.506 145.133 155.511 145.099 155.522 145.068C155.533 145.036 155.55 145.007 155.572 144.983C155.594 144.958 155.621 144.937 155.651 144.923C155.681 144.909 155.714 144.9 155.747 144.898C161.026 144.292 166.187 142.917 171.067 140.817C171.129 140.79 171.199 140.789 171.261 140.814C171.323 140.839 171.373 140.888 171.4 140.95C171.426 141.012 171.427 141.082 171.402 141.144C171.377 141.206 171.328 141.256 171.266 141.283C166.341 143.402 161.132 144.789 155.805 145.402L155.776 145.405Z" fill="#1B1C21"/>
<path d="M157.067 141.71C157.034 141.713 157 141.708 156.969 141.697C156.937 141.687 156.908 141.67 156.883 141.648C156.858 141.626 156.838 141.599 156.823 141.569C156.808 141.539 156.799 141.506 156.797 141.473C156.795 141.44 156.8 141.406 156.811 141.375C156.821 141.343 156.838 141.314 156.86 141.289C156.882 141.264 156.909 141.244 156.939 141.229C156.969 141.214 157.001 141.206 157.035 141.204C163.457 140.359 169.66 138.304 175.316 135.147C175.375 135.115 175.444 135.107 175.509 135.125C175.574 135.144 175.628 135.188 175.661 135.247C175.693 135.306 175.701 135.375 175.682 135.44C175.664 135.504 175.62 135.559 175.561 135.591C169.849 138.78 163.584 140.855 157.099 141.709L157.067 141.71Z" fill="#1B1C21"/>
<path d="M197.957 120.618C197.957 120.618 188.888 100.745 194.091 74.9846C194.091 74.9846 208.142 86.7582 203.076 120.616L197.957 120.618Z" fill="white"/>
<path opacity="0.8" d="M197.957 120.618C197.957 120.618 188.888 100.745 194.091 74.9846C194.091 74.9846 208.142 86.7582 203.076 120.616L197.957 120.618Z" fill="url(#paint32_linear_989_78797)"/>
<path d="M203.079 120.869H197.96C197.911 120.87 197.864 120.856 197.822 120.829C197.781 120.803 197.749 120.765 197.729 120.721C197.707 120.672 195.431 115.632 193.828 107.509C192.35 100.017 191.152 88.282 193.846 74.9338C193.855 74.8901 193.876 74.8496 193.905 74.8163C193.935 74.7831 193.973 74.7583 194.015 74.7446C194.057 74.7303 194.101 74.727 194.145 74.735C194.188 74.743 194.228 74.762 194.262 74.7902C194.407 74.9118 197.857 77.8565 200.727 85.0095C203.366 91.5848 205.965 103.107 203.336 120.656C203.326 120.717 203.295 120.772 203.247 120.811C203.2 120.85 203.14 120.871 203.079 120.869ZM198.126 120.363H202.856C205.411 103.051 202.856 91.6895 200.246 85.1988C197.926 79.4175 195.178 76.3918 194.248 75.4795C191.687 88.5607 192.867 100.047 194.321 107.41C195.762 114.705 197.741 119.479 198.122 120.363H198.126Z" fill="#1B1C21"/>
<path d="M200.173 118.798H200.159C200.126 118.797 200.093 118.788 200.063 118.774C200.033 118.76 200.006 118.739 199.984 118.715C199.962 118.69 199.944 118.661 199.933 118.629C199.922 118.598 199.917 118.565 199.919 118.531C200.614 105.825 194.885 78.7082 194.827 78.4345C194.818 78.4012 194.816 78.3664 194.821 78.3322C194.826 78.298 194.837 78.2652 194.855 78.2357C194.873 78.2062 194.897 78.1808 194.925 78.1608C194.954 78.1409 194.986 78.1269 195.019 78.1197C195.053 78.1126 195.088 78.1124 195.122 78.1193C195.156 78.1261 195.188 78.1397 195.216 78.1594C195.245 78.1791 195.269 78.2043 195.287 78.2336C195.305 78.2629 195.317 78.2956 195.322 78.3298C195.381 78.6035 201.124 105.786 200.426 118.56C200.422 118.625 200.393 118.685 200.346 118.729C200.299 118.773 200.237 118.798 200.173 118.798Z" fill="white"/>
<path d="M207.077 88.3091C207.077 88.3091 195.397 109.412 202.423 118.55H206.182C206.182 118.55 213.693 102.048 207.077 88.3091Z" fill="white"/>
<path d="M206.182 118.798H202.423C202.384 118.798 202.346 118.789 202.311 118.772C202.276 118.754 202.246 118.729 202.222 118.699C199.255 114.842 199.139 108.525 201.874 99.9256C203.191 95.8736 204.858 91.9439 206.856 88.1807C206.879 88.1403 206.913 88.1068 206.953 88.0839C206.993 88.061 207.039 88.0495 207.086 88.0506C207.132 88.0519 207.177 88.0659 207.216 88.0913C207.255 88.1167 207.286 88.1523 207.305 88.1942C210.752 95.3523 210.326 103.252 209.36 108.618C208.316 114.424 206.432 118.602 206.412 118.644C206.392 118.69 206.361 118.728 206.32 118.755C206.279 118.783 206.231 118.798 206.182 118.798ZM202.55 118.291H206.016C207.313 115.146 208.268 111.871 208.863 108.521C209.792 103.345 210.215 95.7848 207.062 88.8751C205.187 92.4758 203.612 96.2256 202.355 100.086C200.526 105.84 199.083 113.649 202.55 118.291Z" fill="#1B1C21"/>
<path d="M204.177 119.357C204.111 119.357 204.048 119.331 204.001 119.286C203.954 119.24 203.926 119.178 203.923 119.112C203.585 110.403 206.795 88.4932 206.826 88.2719C206.831 88.2387 206.842 88.2067 206.859 88.1778C206.877 88.1489 206.899 88.1237 206.926 88.1036C206.953 88.0835 206.984 88.069 207.017 88.0608C207.049 88.0525 207.083 88.0508 207.116 88.0557C207.15 88.0606 207.182 88.072 207.211 88.0892C207.239 88.1064 207.265 88.1292 207.285 88.1562C207.305 88.1832 207.319 88.2138 207.328 88.2465C207.336 88.2791 207.338 88.313 207.333 88.3463C207.302 88.5659 204.092 110.43 204.43 119.097C204.432 119.164 204.408 119.229 204.363 119.278C204.317 119.327 204.254 119.356 204.187 119.359L204.177 119.357Z" fill="#1B1C21"/>
<path d="M184.775 96.1768C184.775 96.1768 194.726 99.5708 198.33 119.67H194.415C194.415 119.67 186.249 108.631 184.775 96.1768Z" fill="white"/>
<path d="M198.329 119.923H194.415C194.375 119.923 194.337 119.914 194.301 119.896C194.266 119.878 194.236 119.852 194.212 119.82C194.129 119.709 185.988 108.586 184.523 96.2054C184.518 96.1624 184.524 96.1188 184.54 96.0788C184.557 96.0388 184.583 96.0036 184.617 95.9767C184.651 95.9497 184.691 95.9319 184.734 95.925C184.777 95.918 184.821 95.922 184.861 95.9368C184.966 95.9722 187.446 96.8457 190.396 100.219C193.099 103.309 196.711 109.185 198.581 119.624C198.588 119.661 198.586 119.698 198.577 119.734C198.568 119.77 198.55 119.803 198.527 119.832C198.503 119.86 198.473 119.883 198.44 119.899C198.406 119.915 198.37 119.923 198.333 119.923H198.329ZM194.545 119.416H198.025C196.167 109.305 192.663 103.6 190.041 100.586C187.845 98.0638 185.887 96.9623 185.083 96.5821C186.583 108.023 193.734 118.283 194.545 119.416Z" fill="#1B1C21"/>
<path d="M196.191 119.357C196.131 119.357 196.073 119.335 196.027 119.296C195.982 119.257 195.952 119.204 195.942 119.145C194.461 110.191 188.049 101.176 187.985 101.086C187.946 101.032 187.93 100.964 187.941 100.897C187.952 100.831 187.989 100.772 188.043 100.732C188.098 100.693 188.166 100.677 188.232 100.688C188.299 100.699 188.358 100.736 188.397 100.791C188.463 100.882 194.94 109.993 196.442 119.062C196.453 119.128 196.437 119.196 196.398 119.251C196.359 119.306 196.299 119.343 196.233 119.354L196.191 119.357Z" fill="#1B1C21"/>
<path d="M188.615 118.073H213.163L213.713 129.685C213.747 130.36 213.642 131.036 213.407 131.67C213.171 132.303 212.809 132.883 212.343 133.373C211.876 133.862 211.315 134.252 210.694 134.519C210.072 134.785 209.403 134.922 208.726 134.922H194.704C193.902 134.922 193.109 134.764 192.368 134.457C191.627 134.15 190.955 133.7 190.388 133.133C189.821 132.566 189.372 131.892 189.066 131.152C188.76 130.411 188.603 129.617 188.604 128.815L188.615 118.073Z" fill="white"/>
<path opacity="0.6" d="M188.615 118.073H213.163L213.713 129.685C213.747 130.36 213.642 131.036 213.407 131.67C213.171 132.303 212.809 132.883 212.343 133.373C211.876 133.862 211.315 134.252 210.694 134.519C210.072 134.785 209.403 134.922 208.726 134.922H194.704C193.902 134.922 193.109 134.764 192.368 134.457C191.627 134.15 190.955 133.7 190.388 133.133C189.821 132.566 189.372 131.892 189.066 131.152C188.76 130.411 188.603 129.617 188.604 128.815L188.615 118.073Z" fill="url(#paint33_linear_989_78797)"/>
</g>
<defs>
<linearGradient id="paint0_linear_989_78797" x1="86.2767" y1="38.5439" x2="121.477" y2="20.7271" gradientUnits="userSpaceOnUse">
<stop offset="0.15" stop-color="#EF6129"/>
<stop offset="0.2" stop-color="#F06032"/>
<stop offset="0.55" stop-color="#F85D6A"/>
<stop offset="0.81" stop-color="#FD5B8C"/>
<stop offset="0.96" stop-color="#FF5A99"/>
</linearGradient>
<linearGradient id="paint1_linear_989_78797" x1="128.168" y1="30.097" x2="152.818" y2="17.6188" gradientUnits="userSpaceOnUse">
<stop offset="0.15" stop-color="#EF6129"/>
<stop offset="0.2" stop-color="#F06032"/>
<stop offset="0.55" stop-color="#F85D6A"/>
<stop offset="0.81" stop-color="#FD5B8C"/>
<stop offset="0.96" stop-color="#FF5A99"/>
</linearGradient>
<linearGradient id="paint2_linear_989_78797" x1="75.9038" y1="45.3315" x2="77.1071" y2="33.0322" gradientUnits="userSpaceOnUse">
<stop offset="0.15" stop-color="#EF6129"/>
<stop offset="0.2" stop-color="#F06032"/>
<stop offset="0.55" stop-color="#F85D6A"/>
<stop offset="0.81" stop-color="#FD5B8C"/>
<stop offset="0.96" stop-color="#FF5A99"/>
</linearGradient>
<linearGradient id="paint3_linear_989_78797" x1="75.9033" y1="101.366" x2="149.23" y2="38.6772" gradientUnits="userSpaceOnUse">
<stop offset="0.15" stop-color="#EF6129"/>
<stop offset="0.2" stop-color="#F06032"/>
<stop offset="0.55" stop-color="#F85D6A"/>
<stop offset="0.81" stop-color="#FD5B8C"/>
<stop offset="0.96" stop-color="#FF5A99"/>
</linearGradient>
<linearGradient id="paint4_linear_989_78797" x1="81.7162" y1="91.4369" x2="135.301" y2="51.1421" gradientUnits="userSpaceOnUse">
<stop offset="0.15" stop-color="#EF6129"/>
<stop offset="0.2" stop-color="#F06032"/>
<stop offset="0.55" stop-color="#F85D6A"/>
<stop offset="0.81" stop-color="#FD5B8C"/>
<stop offset="0.96" stop-color="#FF5A99"/>
</linearGradient>
<linearGradient id="paint5_linear_989_78797" x1="202.03" y1="107.974" x2="200.803" y2="120.105" gradientUnits="userSpaceOnUse">
<stop offset="0.15" stop-color="#EF6129"/>
<stop offset="0.2" stop-color="#F06032"/>
<stop offset="0.55" stop-color="#F85D6A"/>
<stop offset="0.81" stop-color="#FD5B8C"/>
<stop offset="0.96" stop-color="#FF5A99"/>
</linearGradient>
<linearGradient id="paint6_linear_989_78797" x1="163.652" y1="81.6975" x2="180.8" y2="66.3891" gradientUnits="userSpaceOnUse">
<stop offset="0.15" stop-color="#EF6129"/>
<stop offset="0.2" stop-color="#F06032"/>
<stop offset="0.55" stop-color="#F85D6A"/>
<stop offset="0.81" stop-color="#FD5B8C"/>
<stop offset="0.96" stop-color="#FF5A99"/>
</linearGradient>
<linearGradient id="paint7_linear_989_78797" x1="163.652" y1="98.6831" x2="180.8" y2="83.3747" gradientUnits="userSpaceOnUse">
<stop offset="0.15" stop-color="#EF6129"/>
<stop offset="0.2" stop-color="#F06032"/>
<stop offset="0.55" stop-color="#F85D6A"/>
<stop offset="0.81" stop-color="#FD5B8C"/>
<stop offset="0.96" stop-color="#FF5A99"/>
</linearGradient>
<linearGradient id="paint8_linear_989_78797" x1="163.652" y1="65.0161" x2="180.8" y2="49.7077" gradientUnits="userSpaceOnUse">
<stop offset="0.15" stop-color="#EF6129"/>
<stop offset="0.2" stop-color="#F06032"/>
<stop offset="0.55" stop-color="#F85D6A"/>
<stop offset="0.81" stop-color="#FD5B8C"/>
<stop offset="0.96" stop-color="#FF5A99"/>
</linearGradient>
<linearGradient id="paint9_linear_989_78797" x1="121.971" y1="79.442" x2="128.077" y2="76.3502" gradientUnits="userSpaceOnUse">
<stop offset="0.15" stop-color="#EF6129"/>
<stop offset="0.2" stop-color="#F06032"/>
<stop offset="0.55" stop-color="#F85D6A"/>
<stop offset="0.81" stop-color="#FD5B8C"/>
<stop offset="0.96" stop-color="#FF5A99"/>
</linearGradient>
<linearGradient id="paint10_linear_989_78797" x1="67.4737" y1="128.519" x2="77.4464" y2="101.076" gradientUnits="userSpaceOnUse">
<stop offset="0.15" stop-color="#EF6129"/>
<stop offset="0.2" stop-color="#F06032"/>
<stop offset="0.55" stop-color="#F85D6A"/>
<stop offset="0.81" stop-color="#FD5B8C"/>
<stop offset="0.96" stop-color="#FF5A99"/>
</linearGradient>
<linearGradient id="paint11_linear_989_78797" x1="98.1807" y1="122.895" x2="98.3168" y2="121.75" gradientUnits="userSpaceOnUse">
<stop offset="0.15" stop-color="#EF6129"/>
<stop offset="0.2" stop-color="#F06032"/>
<stop offset="0.55" stop-color="#F85D6A"/>
<stop offset="0.81" stop-color="#FD5B8C"/>
<stop offset="0.96" stop-color="#FF5A99"/>
</linearGradient>
<linearGradient id="paint12_linear_989_78797" x1="78.085" y1="122.895" x2="78.1547" y2="121.738" gradientUnits="userSpaceOnUse">
<stop offset="0.15" stop-color="#EF6129"/>
<stop offset="0.2" stop-color="#F06032"/>
<stop offset="0.55" stop-color="#F85D6A"/>
<stop offset="0.81" stop-color="#FD5B8C"/>
<stop offset="0.96" stop-color="#FF5A99"/>
</linearGradient>
<linearGradient id="paint13_linear_989_78797" x1="77.1245" y1="124.654" x2="77.1703" y2="123.494" gradientUnits="userSpaceOnUse">
<stop offset="0.15" stop-color="#EF6129"/>
<stop offset="0.2" stop-color="#F06032"/>
<stop offset="0.55" stop-color="#F85D6A"/>
<stop offset="0.81" stop-color="#FD5B8C"/>
<stop offset="0.96" stop-color="#FF5A99"/>
</linearGradient>
<linearGradient id="paint14_linear_989_78797" x1="103.65" y1="126.862" x2="103.999" y2="125.816" gradientUnits="userSpaceOnUse">
<stop offset="0.15" stop-color="#EF6129"/>
<stop offset="0.2" stop-color="#F06032"/>
<stop offset="0.55" stop-color="#F85D6A"/>
<stop offset="0.81" stop-color="#FD5B8C"/>
<stop offset="0.96" stop-color="#FF5A99"/>
</linearGradient>
<linearGradient id="paint15_linear_989_78797" x1="75.8387" y1="126.862" x2="75.8906" y2="125.702" gradientUnits="userSpaceOnUse">
<stop offset="0.15" stop-color="#EF6129"/>
<stop offset="0.2" stop-color="#F06032"/>
<stop offset="0.55" stop-color="#F85D6A"/>
<stop offset="0.81" stop-color="#FD5B8C"/>
<stop offset="0.96" stop-color="#FF5A99"/>
</linearGradient>
<linearGradient id="paint16_linear_989_78797" x1="69.9485" y1="143.309" x2="82.0974" y2="113.28" gradientUnits="userSpaceOnUse">
<stop offset="0.15" stop-color="#EF6129"/>
<stop offset="0.2" stop-color="#F06032"/>
<stop offset="0.55" stop-color="#F85D6A"/>
<stop offset="0.81" stop-color="#FD5B8C"/>
<stop offset="0.96" stop-color="#FF5A99"/>
</linearGradient>
<linearGradient id="paint17_linear_989_78797" x1="96.5465" y1="135.729" x2="96.6479" y2="134.577" gradientUnits="userSpaceOnUse">
<stop offset="0.15" stop-color="#EF6129"/>
<stop offset="0.2" stop-color="#F06032"/>
<stop offset="0.55" stop-color="#F85D6A"/>
<stop offset="0.81" stop-color="#FD5B8C"/>
<stop offset="0.96" stop-color="#FF5A99"/>
</linearGradient>
<linearGradient id="paint18_linear_989_78797" x1="120.645" y1="137.375" x2="120.744" y2="136.222" gradientUnits="userSpaceOnUse">
<stop offset="0.15" stop-color="#EF6129"/>
<stop offset="0.2" stop-color="#F06032"/>
<stop offset="0.55" stop-color="#F85D6A"/>
<stop offset="0.81" stop-color="#FD5B8C"/>
<stop offset="0.96" stop-color="#FF5A99"/>
</linearGradient>
<linearGradient id="paint19_linear_989_78797" x1="101.18" y1="137.375" x2="101.324" y2="136.231" gradientUnits="userSpaceOnUse">
<stop offset="0.15" stop-color="#EF6129"/>
<stop offset="0.2" stop-color="#F06032"/>
<stop offset="0.55" stop-color="#F85D6A"/>
<stop offset="0.81" stop-color="#FD5B8C"/>
<stop offset="0.96" stop-color="#FF5A99"/>
</linearGradient>
<linearGradient id="paint20_linear_989_78797" x1="94.002" y1="137.375" x2="94.2504" y2="136.269" gradientUnits="userSpaceOnUse">
<stop offset="0.15" stop-color="#EF6129"/>
<stop offset="0.2" stop-color="#F06032"/>
<stop offset="0.55" stop-color="#F85D6A"/>
<stop offset="0.81" stop-color="#FD5B8C"/>
<stop offset="0.96" stop-color="#FF5A99"/>
</linearGradient>
<linearGradient id="paint21_linear_989_78797" x1="119.969" y1="140.808" x2="120.05" y2="139.652" gradientUnits="userSpaceOnUse">
<stop offset="0.15" stop-color="#EF6129"/>
<stop offset="0.2" stop-color="#F06032"/>
<stop offset="0.55" stop-color="#F85D6A"/>
<stop offset="0.81" stop-color="#FD5B8C"/>
<stop offset="0.96" stop-color="#FF5A99"/>
</linearGradient>
<linearGradient id="paint22_linear_989_78797" x1="93.2152" y1="140.808" x2="93.2832" y2="139.65" gradientUnits="userSpaceOnUse">
<stop offset="0.15" stop-color="#EF6129"/>
<stop offset="0.2" stop-color="#F06032"/>
<stop offset="0.55" stop-color="#F85D6A"/>
<stop offset="0.81" stop-color="#FD5B8C"/>
<stop offset="0.96" stop-color="#FF5A99"/>
</linearGradient>
<linearGradient id="paint23_linear_989_78797" x1="117.649" y1="140.808" x2="118.18" y2="139.994" gradientUnits="userSpaceOnUse">
<stop offset="0.15" stop-color="#EF6129"/>
<stop offset="0.2" stop-color="#F06032"/>
<stop offset="0.55" stop-color="#F85D6A"/>
<stop offset="0.81" stop-color="#FD5B8C"/>
<stop offset="0.96" stop-color="#FF5A99"/>
</linearGradient>
<linearGradient id="paint24_linear_989_78797" x1="85.7484" y1="109.631" x2="112.494" y2="99.2415" gradientUnits="userSpaceOnUse">
<stop offset="0.15" stop-color="#EF6129"/>
<stop offset="0.2" stop-color="#F06032"/>
<stop offset="0.55" stop-color="#F85D6A"/>
<stop offset="0.81" stop-color="#FD5B8C"/>
<stop offset="0.96" stop-color="#FF5A99"/>
</linearGradient>
<linearGradient id="paint25_linear_989_78797" x1="106.437" y1="94.1576" x2="112.239" y2="93.0762" gradientUnits="userSpaceOnUse">
<stop offset="0.15" stop-color="#EF6129"/>
<stop offset="0.2" stop-color="#F06032"/>
<stop offset="0.55" stop-color="#F85D6A"/>
<stop offset="0.81" stop-color="#FD5B8C"/>
<stop offset="0.96" stop-color="#FF5A99"/>
</linearGradient>
<linearGradient id="paint26_linear_989_78797" x1="85.1515" y1="93.6677" x2="94.3969" y2="90.7397" gradientUnits="userSpaceOnUse">
<stop offset="0.15" stop-color="#EF6129"/>
<stop offset="0.2" stop-color="#F06032"/>
<stop offset="0.55" stop-color="#F85D6A"/>
<stop offset="0.81" stop-color="#FD5B8C"/>
<stop offset="0.96" stop-color="#FF5A99"/>
</linearGradient>
<linearGradient id="paint27_linear_989_78797" x1="127.621" y1="102.574" x2="129.723" y2="101.624" gradientUnits="userSpaceOnUse">
<stop offset="0.15" stop-color="#EF6129"/>
<stop offset="0.2" stop-color="#F06032"/>
<stop offset="0.55" stop-color="#F85D6A"/>
<stop offset="0.81" stop-color="#FD5B8C"/>
<stop offset="0.96" stop-color="#FF5A99"/>
</linearGradient>
<linearGradient id="paint28_linear_989_78797" x1="174.936" y1="44.0435" x2="197.833" y2="28.1035" gradientUnits="userSpaceOnUse">
<stop offset="0.15" stop-color="#EF6129"/>
<stop offset="0.2" stop-color="#F06032"/>
<stop offset="0.55" stop-color="#F85D6A"/>
<stop offset="0.81" stop-color="#FD5B8C"/>
<stop offset="0.96" stop-color="#FF5A99"/>
</linearGradient>
<linearGradient id="paint29_linear_989_78797" x1="171.625" y1="35.9378" x2="191.109" y2="13.6698" gradientUnits="userSpaceOnUse">
<stop offset="0.15" stop-color="#EF6129"/>
<stop offset="0.2" stop-color="#F06032"/>
<stop offset="0.55" stop-color="#F85D6A"/>
<stop offset="0.81" stop-color="#FD5B8C"/>
<stop offset="0.96" stop-color="#FF5A99"/>
</linearGradient>
<linearGradient id="paint30_linear_989_78797" x1="172.7" y1="33.8843" x2="189.256" y2="12.6397" gradientUnits="userSpaceOnUse">
<stop offset="0.15" stop-color="#EF6129"/>
<stop offset="0.2" stop-color="#F06032"/>
<stop offset="0.55" stop-color="#F85D6A"/>
<stop offset="0.81" stop-color="#FD5B8C"/>
<stop offset="0.96" stop-color="#FF5A99"/>
</linearGradient>
<linearGradient id="paint31_linear_989_78797" x1="201.99" y1="53.5724" x2="205.369" y2="53.1358" gradientUnits="userSpaceOnUse">
<stop offset="0.15" stop-color="#EF6129"/>
<stop offset="0.2" stop-color="#F06032"/>
<stop offset="0.55" stop-color="#F85D6A"/>
<stop offset="0.81" stop-color="#FD5B8C"/>
<stop offset="0.96" stop-color="#FF5A99"/>
</linearGradient>
<linearGradient id="paint32_linear_989_78797" x1="191.424" y1="110.854" x2="204.775" y2="109.121" gradientUnits="userSpaceOnUse">
<stop offset="0.15" stop-color="#EF6129"/>
<stop offset="0.2" stop-color="#F06032"/>
<stop offset="0.55" stop-color="#F85D6A"/>
<stop offset="0.81" stop-color="#FD5B8C"/>
<stop offset="0.96" stop-color="#FF5A99"/>
</linearGradient>
<linearGradient id="paint33_linear_989_78797" x1="186.334" y1="131.317" x2="204.903" y2="117.299" gradientUnits="userSpaceOnUse">
<stop offset="0.15" stop-color="#EF6129"/>
<stop offset="0.2" stop-color="#F06032"/>
<stop offset="0.55" stop-color="#F85D6A"/>
<stop offset="0.81" stop-color="#FD5B8C"/>
<stop offset="0.96" stop-color="#FF5A99"/>
</linearGradient>
</defs>
</svg>
