<svg width="288" height="155" viewBox="0 0 288 155" fill="none" xmlns="http://www.w3.org/2000/svg">
  <mask id="mask0_989_81669" style="mask-type:alpha" maskUnits="userSpaceOnUse" x="0" y="0" width="288" height="155">
    <rect width="288" height="155" fill="#25262D"/>
  </mask>
  <g mask="url(#mask0_989_81669)">
    <rect x="-1" width="288" height="155" fill="current"/>
    <path d="M156.665 8C152.141 8 110.865 8.62106 88.3115 42.5519C76.3061 60.6062 68.2509 90.1459 80.019 106.238C83.4929 110.991 85.3157 109.941 103.892 121.192C129.39 136.632 127.147 142.244 137.703 145.77C151.445 150.37 174.606 144.76 190.023 136.176C210.698 124.666 209.21 110.043 211.76 88.7136C214.266 67.793 216.498 39.864 203.158 24.2518C189.323 8.05217 167.09 8.01683 156.665 8Z" opacity="0.47" fill="url(#paint0_linear_989_81669)"/>
    <path d="M165.961 16.1175L167.61 14.1164C167.674 14.0409 167.753 13.9802 167.842 13.9386C167.931 13.8971 168.029 13.8756 168.127 13.8757C177.323 13.9649 188.947 13.0341 203.061 11.1289L201.024 13.3169C188.785 15.3029 176.943 17.0146 165.961 16.1175Z" fill="url(#paint0_linear_989_81669)"/>
    <path d="M203.06 11.1238C201.983 11.5867 200.931 12.2162 199.844 12.5073L200.699 50.2082C202.505 50.0904 204.275 50.2503 206.117 50.3075C206.621 50.3244 207.041 49.7151 207.044 48.9493C207.088 37.772 205.975 24.8948 204.122 12.0899C204.018 11.3713 203.528 10.9286 203.06 11.1238Z" fill="url(#paint1_linear_989_81669)"/>
    <path d="M202.171 142.74L202.257 142.656L191.436 131.837L190.746 132.526L200.962 142.74H202.171Z" fill="url(#paint2_linear_989_81669)"/>
    <path d="M182.367 142.74L190.936 132.32L190.121 131.65L181.004 142.74H182.367Z" fill="url(#paint3_linear_989_81669)"/>
    <path d="M191.883 38.7261H189.695V142.74H191.883V38.7261Z" fill="white"/>
    <path opacity="0.6" d="M191.883 38.7266H189.695V142.741H191.883V38.7266Z" fill="url(#paint4_linear_989_81669)"/>
    <path d="M203.306 50.1865C192.318 49.7938 181.322 50.7279 170.557 52.9687C170.402 53.0006 170.241 52.9979 170.087 52.9608C169.933 52.9236 169.789 52.853 169.665 52.7538C169.541 52.6547 169.441 52.5295 169.371 52.3871C169.301 52.2447 169.264 52.0887 169.261 51.9302C169.013 39.5327 168.059 27.6602 166.176 16.4728C166.155 16.3451 166.162 16.2142 166.198 16.0898C166.234 15.9654 166.297 15.8505 166.383 15.7537C166.469 15.6569 166.576 15.5806 166.695 15.5303C166.814 15.48 166.944 15.457 167.073 15.463C177.617 15.9679 188.65 15.3856 199.871 13.1824C200.003 13.1562 200.139 13.1567 200.271 13.1838C200.403 13.2109 200.528 13.2641 200.639 13.3404C200.75 13.4166 200.845 13.5142 200.918 13.6276C200.99 13.7409 201.04 13.8677 201.063 14.0004C203.237 26.8086 204.383 38.4319 204.092 49.4594C204.088 49.5589 204.065 49.6566 204.024 49.747C203.982 49.8373 203.923 49.9187 203.85 49.9862C203.777 50.0538 203.691 50.1062 203.598 50.1406C203.505 50.175 203.406 50.1906 203.306 50.1865Z" fill="white"/>
    <path d="M170.335 53.2427C170.035 53.2426 169.745 53.1412 169.51 52.9549C169.357 52.832 169.232 52.6771 169.145 52.5009C169.057 52.3247 169.01 52.1315 169.005 51.9349C168.743 38.8726 167.735 27.2812 165.922 16.5095C165.894 16.3444 165.904 16.1752 165.95 16.0143C165.996 15.8533 166.077 15.7048 166.188 15.5795C166.299 15.4543 166.437 15.3554 166.591 15.2904C166.746 15.2253 166.913 15.1956 167.08 15.2035C178.398 15.737 189.413 14.9712 199.817 12.9279C199.983 12.8952 200.153 12.8958 200.318 12.9297C200.482 12.9637 200.639 13.0303 200.778 13.1257C200.917 13.221 201.035 13.3432 201.126 13.485C201.217 13.6268 201.278 13.7853 201.307 13.9513C203.653 27.7693 204.614 39.0527 204.336 49.4642C204.332 49.5968 204.302 49.7273 204.247 49.8481C204.192 49.969 204.114 50.0779 204.017 50.1685C203.92 50.2592 203.806 50.3299 203.682 50.3765C203.558 50.4232 203.426 50.4448 203.293 50.4404C192.325 50.0405 181.349 50.973 170.606 53.2174C170.517 53.2349 170.426 53.2433 170.335 53.2427ZM167.031 15.7101C166.941 15.71 166.852 15.7296 166.771 15.7674C166.689 15.8052 166.617 15.8603 166.559 15.9289C166.501 15.9974 166.459 16.0778 166.435 16.1645C166.411 16.2511 166.407 16.3419 166.422 16.4304C168.241 27.2257 169.251 38.8372 169.512 51.9248C169.514 52.0471 169.543 52.1674 169.598 52.277C169.652 52.3867 169.729 52.4831 169.825 52.5593C169.918 52.6352 170.026 52.6897 170.143 52.7188C170.259 52.7479 170.38 52.7509 170.498 52.7277C181.282 50.4747 192.299 49.5388 203.308 49.9405C203.375 49.9426 203.441 49.9316 203.504 49.9079C203.566 49.8842 203.623 49.8484 203.672 49.8025C203.72 49.7582 203.758 49.7046 203.785 49.645C203.812 49.5855 203.827 49.5211 203.828 49.4557C204.107 39.0829 203.155 27.8316 200.799 14.0455C200.782 13.9467 200.746 13.8522 200.692 13.7678C200.638 13.6833 200.568 13.6106 200.486 13.554C200.402 13.4962 200.307 13.4556 200.207 13.4348C200.108 13.414 200.005 13.4133 199.905 13.4329C189.47 15.4778 178.414 16.247 167.056 15.7117L167.031 15.7101Z" fill="#1B1C21"/>
    <path d="M94.6655 40.2142L94.408 38.3224L92.331 38.1407C92.1978 37.7181 92.0289 37.3076 91.8261 36.9137L93.1524 35.3064L91.9843 33.7916L90.0875 34.687C89.7577 34.3902 89.4036 34.1217 89.0288 33.8842L89.384 31.8257L87.6167 31.1037L86.4234 32.8104C85.9892 32.7167 85.5477 32.6604 85.1039 32.642L84.3751 30.688L82.4834 30.9388L82.3016 33.0157C81.8793 33.1496 81.4689 33.3185 81.0746 33.5206L79.4538 32.2011L77.9391 33.3708L78.821 35.2592C78.5232 35.5886 78.254 35.9427 78.0165 36.3179L75.9598 35.9712L75.236 37.7384L76.9427 38.9317C76.85 39.3661 76.7937 39.8075 76.7744 40.2512L74.8203 40.98L75.0778 42.8718L77.1547 43.0536C77.2907 43.4764 77.4625 43.8868 77.6681 44.2805L76.3418 45.8862L77.5099 47.4009L79.4 46.5173C79.729 46.8147 80.0826 47.0839 80.4569 47.3218L80.1271 49.3752L81.8943 50.0989L83.0893 48.3923C83.5235 48.486 83.965 48.5423 84.4088 48.5606L85.1342 50.5079L87.0277 50.2554L87.2078 48.1785C87.6305 48.0442 88.0414 47.8753 88.4364 47.6736L90.0404 48.9931L91.5551 47.8234L90.6732 45.9333C90.97 45.6037 91.2391 45.2502 91.4777 44.8763L93.5344 45.223L94.2582 43.4558L92.5465 42.2608C92.6393 41.8259 92.6956 41.3839 92.7148 40.9396L94.6655 40.2142ZM85.4085 45.4671C84.4454 45.598 83.4651 45.4404 82.5915 45.0142C81.718 44.588 80.9904 43.9123 80.5008 43.0726C80.0113 42.2329 79.7817 41.2669 79.8411 40.2967C79.9006 39.3266 80.2464 38.3958 80.8348 37.6221C81.4232 36.8485 82.2278 36.2667 83.1469 35.9503C84.0659 35.634 85.0582 35.5972 85.9981 35.8448C86.9381 36.0923 87.7835 36.613 88.4275 37.341C89.0715 38.0691 89.4852 38.9717 89.6162 39.9348C89.792 41.2259 89.4479 42.534 88.6594 43.5714C87.871 44.6088 86.7029 45.2907 85.4119 45.4671H85.4085Z" fill="url(#paint5_linear_989_81669)"/>
    <path d="M127.271 25.7664L126.83 22.5281L123.275 22.2184C123.043 21.4951 122.75 20.7924 122.4 20.118L124.669 17.3695L122.669 14.786L119.434 16.3007C118.87 15.7925 118.265 15.332 117.625 14.924L118.217 11.4047L115.188 10.1676L113.145 13.0877C112.403 12.9305 111.65 12.8365 110.893 12.8067L109.646 9.4624L106.409 9.90337L106.099 13.458C105.376 13.6903 104.673 13.983 103.999 14.3332L101.25 12.0644L98.6668 14.0639L100.182 17.2988C99.6738 17.8602 99.2138 18.4632 98.8065 19.1014L95.2872 18.5089L94.0485 21.5385L96.9552 23.5784C96.7978 24.322 96.7032 25.0776 96.6724 25.8371L93.3281 27.0842L93.7741 30.3107L97.3288 30.6204C97.5616 31.3439 97.8549 32.0465 98.2057 32.7208L95.9453 35.476L97.9364 38.0528L101.17 36.5381C101.733 37.0464 102.339 37.5069 102.979 37.9148L102.386 41.4341L105.416 42.6729L107.459 39.7527C108.202 39.9101 108.957 40.0047 109.716 40.0355L110.963 43.3798L114.202 42.9405L114.506 39.3993C115.23 39.1662 115.932 38.8729 116.607 38.5224L119.355 40.7912L121.939 38.7917L120.424 35.5585C120.932 34.9942 121.392 34.3891 121.801 33.7492L125.32 34.3416L126.557 31.3121L123.637 29.2688C123.796 28.5254 123.891 27.7698 123.921 27.0102L127.271 25.7664ZM111.43 34.7574C109.78 34.9824 108.101 34.7131 106.604 33.9836C105.108 33.2541 103.861 32.097 103.023 30.6589C102.184 29.2208 101.791 27.5662 101.892 25.9045C101.994 24.2428 102.587 22.6486 103.595 21.3236C104.603 19.9987 105.981 19.0025 107.556 18.4612C109.13 17.9198 110.83 17.8576 112.439 18.2824C114.049 18.7072 115.497 19.5999 116.599 20.8476C117.701 22.0953 118.408 23.6419 118.631 25.2917C118.93 27.5018 118.34 29.74 116.989 31.5148C115.639 33.2896 113.639 34.4559 111.43 34.7574Z" fill="url(#paint6_linear_989_81669)"/>
    <path d="M142.591 91.501H119.113V93.5207H142.591V91.501Z" fill="white"/>
    <path opacity="0.6" d="M142.591 91.501H119.113V93.5207H142.591V91.501Z" fill="url(#paint7_linear_989_81669)"/>
    <path fill-rule="evenodd" clip-rule="evenodd" d="M108.629 66.7258V76.6913C108.629 86.4363 114.028 94.3366 120.69 94.3366C127.351 94.3366 132.752 102.235 132.752 111.98C132.752 112.849 132.259 113.554 131.65 113.554H109.598V143.98L119.007 145.098V146.039H97.8789V145.098L106.704 144.071V113.554H99.7202C89.7329 113.554 81.6406 101.71 81.6406 87.1011V65.8405C81.6406 60.0288 84.8603 55.3179 88.8341 55.3179H100.828C105.136 55.3179 108.629 60.426 108.629 66.7258Z" fill="white"/>
    <path opacity="0.6" fill-rule="evenodd" clip-rule="evenodd" d="M108.629 66.7258V76.6913C108.629 86.4363 114.028 94.3366 120.69 94.3366C127.351 94.3366 132.752 102.235 132.752 111.98C132.752 112.849 132.259 113.554 131.65 113.554H109.598V143.98L119.007 145.098V146.039H97.8789V145.098L106.704 144.071V113.554H99.7202C89.7329 113.554 81.6406 101.71 81.6406 87.1011V65.8405C81.6406 60.0288 84.8603 55.3179 88.8341 55.3179H100.828C105.136 55.3179 108.629 60.426 108.629 66.7258Z" fill="url(#paint8_linear_989_81669)"/>
    <path d="M135.035 135.012L137.055 137.141C137.822 137.953 138.254 139.024 138.265 140.14L138.282 141.749L144.198 140.118C142.907 138.735 141.604 137.456 140.731 135.776L138.901 132.258L135.035 135.012Z" fill="white"/>
    <path d="M138.274 142.002C138.219 142.002 138.166 141.984 138.122 141.951C138.092 141.928 138.067 141.898 138.049 141.863C138.032 141.829 138.022 141.791 138.021 141.753L138.004 140.144C137.995 139.09 137.588 138.079 136.863 137.314L134.844 135.185C134.819 135.159 134.799 135.128 134.788 135.094C134.776 135.06 134.771 135.024 134.774 134.988C134.778 134.952 134.79 134.917 134.808 134.886C134.826 134.855 134.851 134.828 134.881 134.807L138.736 132.053C138.766 132.032 138.8 132.018 138.836 132.011C138.871 132.004 138.908 132.004 138.943 132.013C138.979 132.021 139.013 132.036 139.042 132.059C139.071 132.081 139.095 132.11 139.112 132.142L140.941 135.66C141.694 137.106 142.764 138.242 143.9 139.445L144.37 139.95C144.4 139.982 144.421 140.02 144.431 140.063C144.441 140.105 144.439 140.149 144.427 140.191C144.415 140.23 144.393 140.267 144.364 140.296C144.335 140.325 144.298 140.347 144.259 140.359L138.343 141.99C138.32 141.997 138.297 142.001 138.274 142.002ZM135.412 135.049L137.225 136.968C138.037 137.825 138.494 138.958 138.504 140.138L138.518 141.419L143.715 139.985L143.532 139.792C142.372 138.561 141.278 137.4 140.502 135.892L138.805 132.632L135.412 135.049Z" fill="#1B1C21"/>
    <path d="M137.196 139.739C137.075 140.604 137.072 142.171 137.055 143.61C137.051 144.046 137.208 144.468 137.495 144.796C137.782 145.125 138.179 145.336 138.612 145.391C141.136 145.716 147.426 146.036 152.297 145.593C152.633 145.561 153.219 145.317 153.384 144.48C153.934 141.673 149.072 140.985 143.74 138.947C143.638 138.907 143.526 138.898 143.419 138.92C143.311 138.943 143.213 138.995 143.134 139.071L142.569 139.628C142.288 139.902 141.933 140.086 141.547 140.158C141.162 140.23 140.764 140.185 140.404 140.03L137.879 139.357C137.81 139.327 137.734 139.313 137.659 139.317C137.583 139.32 137.509 139.342 137.443 139.379C137.377 139.416 137.32 139.467 137.277 139.53C137.234 139.593 137.207 139.664 137.196 139.739Z" fill="url(#paint9_linear_989_81669)"/>
    <path d="M146.835 146.059C143.543 146.059 140.342 145.868 138.578 145.64C138.084 145.578 137.631 145.336 137.303 144.961C136.976 144.587 136.797 144.105 136.801 143.607V143.141C136.814 141.838 136.828 140.494 136.939 139.704C136.955 139.59 136.997 139.482 137.061 139.387C137.126 139.292 137.212 139.213 137.313 139.157C137.409 139.102 137.516 139.07 137.627 139.063C137.737 139.056 137.848 139.073 137.95 139.115L140.488 139.798C140.803 139.934 141.15 139.972 141.486 139.91C141.822 139.847 142.132 139.686 142.377 139.447L142.952 138.888C143.066 138.778 143.208 138.703 143.362 138.672C143.517 138.64 143.677 138.653 143.824 138.709C145.068 139.184 146.263 139.578 147.419 139.96C151.146 141.189 154.089 142.16 153.625 144.528C153.448 145.427 152.809 145.797 152.314 145.842C150.627 145.996 148.717 146.059 146.835 146.059ZM137.686 139.568C137.645 139.568 137.605 139.578 137.57 139.598C137.539 139.616 137.512 139.64 137.491 139.669C137.47 139.698 137.455 139.731 137.449 139.766C137.343 140.522 137.329 141.852 137.316 143.133V143.599C137.313 143.973 137.447 144.335 137.694 144.616C137.94 144.898 138.281 145.079 138.652 145.125C140.94 145.42 147.283 145.782 152.285 145.326C152.401 145.316 152.99 145.221 153.149 144.418C153.527 142.486 150.907 141.621 147.28 140.426C146.118 140.042 144.923 139.647 143.663 139.167C143.606 139.146 143.544 139.141 143.485 139.153C143.425 139.166 143.37 139.194 143.326 139.236L142.735 139.809C142.422 140.116 142.024 140.323 141.593 140.405C141.162 140.487 140.716 140.44 140.312 140.27L137.775 139.586C137.747 139.574 137.717 139.568 137.686 139.568Z" fill="#1B1C21"/>
    <path d="M137.191 143.333C137.191 143.333 137.191 143.479 137.191 143.55C137.188 143.986 137.344 144.408 137.631 144.735C137.917 145.063 138.314 145.275 138.747 145.329C141.271 145.654 147.428 146.034 152.299 145.592C152.635 145.56 153.221 145.316 153.386 144.479C153.416 144.241 153.422 144 153.405 143.761L153.068 143.779C148.147 144.023 143.214 143.904 138.311 143.424L137.191 143.333Z" fill="white"/>
    <path d="M147.305 146.046C144.437 146.051 141.571 145.896 138.721 145.58C138.227 145.517 137.774 145.275 137.447 144.901C137.119 144.526 136.941 144.044 136.945 143.546C136.945 143.476 136.945 143.328 136.945 143.328C136.946 143.293 136.954 143.26 136.968 143.228C136.982 143.197 137.003 143.169 137.028 143.146C137.054 143.123 137.084 143.105 137.116 143.094C137.149 143.083 137.184 143.079 137.218 143.082L138.326 143.171C143.219 143.649 148.14 143.768 153.051 143.526L153.387 143.509C153.453 143.506 153.518 143.528 153.568 143.572C153.617 143.616 153.647 143.677 153.652 143.743C153.671 144.005 153.663 144.268 153.628 144.528C153.451 145.426 152.812 145.797 152.317 145.842C150.708 145.989 148.981 146.046 147.305 146.046ZM137.442 143.607C137.452 143.971 137.592 144.32 137.837 144.59C138.082 144.859 138.415 145.033 138.777 145.078C140.986 145.364 147.192 145.802 152.273 145.339C152.389 145.329 152.978 145.234 153.137 144.432C153.156 144.297 153.164 144.162 153.16 144.026H153.069C148.136 144.27 143.191 144.151 138.275 143.671L137.442 143.607Z" fill="#1B1C21"/>
    <path d="M144.963 142.235C144.913 142.235 144.865 142.221 144.824 142.193C144.782 142.166 144.75 142.127 144.731 142.081C144.711 142.035 144.706 141.984 144.715 141.936C144.725 141.887 144.748 141.842 144.783 141.806L146.655 139.925C146.702 139.877 146.766 139.85 146.833 139.85C146.9 139.85 146.965 139.876 147.012 139.924C147.06 139.971 147.087 140.035 147.087 140.102C147.087 140.169 147.06 140.234 147.013 140.281L145.142 142.161C145.118 142.185 145.091 142.204 145.06 142.217C145.029 142.229 144.996 142.236 144.963 142.235Z" fill="#1B1C21"/>
    <path d="M146.801 142.425C146.738 142.424 146.678 142.399 146.633 142.355C146.584 142.309 146.556 142.245 146.555 142.178C146.553 142.111 146.578 142.046 146.624 141.998L148.119 140.438C148.165 140.389 148.229 140.361 148.296 140.36C148.363 140.358 148.428 140.384 148.477 140.43C148.525 140.477 148.553 140.54 148.555 140.607C148.556 140.675 148.531 140.739 148.484 140.788L146.99 142.348C146.965 142.374 146.936 142.394 146.904 142.407C146.871 142.42 146.836 142.427 146.801 142.425Z" fill="#1B1C21"/>
    <path d="M118.148 135.87C119.816 133.514 121.388 128.619 121.388 128.619L125.106 131.223L123.14 134.565C122.482 135.429 122.481 136.73 122.748 137.782L123.457 139.734L118.148 135.87Z" fill="white"/>
    <path d="M123.459 139.985C123.405 139.985 123.353 139.969 123.309 139.938L118.002 136.067C117.949 136.028 117.912 135.97 117.902 135.904C117.891 135.839 117.907 135.772 117.945 135.718C119.571 133.414 121.134 128.584 121.143 128.535C121.155 128.495 121.177 128.459 121.206 128.43C121.235 128.401 121.271 128.379 121.311 128.367C121.348 128.354 121.388 128.35 121.428 128.356C121.467 128.361 121.504 128.376 121.537 128.399L125.254 131.002C125.307 131.039 125.343 131.094 125.357 131.156C125.37 131.219 125.36 131.284 125.327 131.339L123.361 134.682C123.357 134.691 123.351 134.699 123.344 134.707C122.824 135.39 122.693 136.506 122.994 137.696L123.698 139.635C123.716 139.686 123.718 139.741 123.702 139.793C123.687 139.845 123.655 139.89 123.612 139.923C123.569 139.96 123.515 139.982 123.459 139.985ZM118.499 135.811L122.94 139.037L122.513 137.859C122.513 137.859 122.513 137.844 122.513 137.836C122.176 136.501 122.331 135.223 122.939 134.417L124.773 131.295L121.528 129.02C121.151 130.117 119.884 133.729 118.499 135.811Z" fill="#1B1C21"/>
    <path d="M118.239 134.554C117.426 135.575 116.675 136.642 115.989 137.752C115.768 138.128 115.692 138.572 115.775 139C115.859 139.429 116.095 139.812 116.441 140.078C117.402 140.822 120.359 142.715 122.285 143.935C123.421 144.653 124.722 145.07 126.063 145.145L127.965 145.252C128.575 145.289 129.186 145.226 129.775 145.065C130.359 144.896 130.953 144.63 130.975 144.205C131.042 143.08 129.933 142.353 128.955 141.932C127.86 141.452 126.886 140.732 126.106 139.827C125.284 138.886 124.284 137.721 123.581 136.845C123.513 136.759 123.422 136.695 123.319 136.66C123.216 136.625 123.104 136.62 122.999 136.646L122.224 136.85C121.844 136.944 121.444 136.923 121.075 136.79C120.706 136.657 120.385 136.418 120.152 136.102L119.018 134.569C118.974 134.508 118.916 134.458 118.849 134.423C118.782 134.388 118.708 134.369 118.632 134.367C118.557 134.366 118.482 134.382 118.414 134.414C118.345 134.447 118.285 134.494 118.239 134.554Z" fill="url(#paint10_linear_989_81669)"/>
    <path d="M128.304 145.523C128.186 145.523 128.068 145.523 127.948 145.513L126.047 145.407C124.661 145.328 123.319 144.898 122.147 144.156C119.991 142.793 117.224 141.012 116.283 140.285C115.89 139.98 115.621 139.542 115.528 139.053C115.435 138.565 115.524 138.059 115.778 137.631C116.469 136.508 117.226 135.428 118.045 134.396C118.116 134.306 118.206 134.235 118.309 134.186C118.412 134.137 118.525 134.113 118.639 134.114C118.753 134.116 118.865 134.144 118.966 134.196C119.067 134.248 119.155 134.323 119.223 134.414L120.358 135.948C120.561 136.223 120.841 136.432 121.163 136.548C121.485 136.665 121.835 136.683 122.167 136.601L122.945 136.409C123.097 136.371 123.258 136.377 123.407 136.428C123.556 136.478 123.688 136.57 123.786 136.693C124.36 137.405 125.232 138.435 126.311 139.667C127.068 140.544 128.011 141.241 129.071 141.709C130.547 142.345 131.296 143.224 131.235 144.233C131.207 144.705 130.742 145.075 129.85 145.322C129.346 145.46 128.826 145.528 128.304 145.523ZM118.434 134.711C117.628 135.725 116.883 136.787 116.202 137.89C116.014 138.212 115.95 138.592 116.022 138.958C116.094 139.324 116.297 139.652 116.593 139.879C117.566 140.632 120.659 142.611 122.416 143.723C123.515 144.42 124.774 144.826 126.073 144.902L127.977 145.008C128.558 145.044 129.141 144.984 129.702 144.831C130.327 144.663 130.712 144.419 130.712 144.198C130.771 143.213 129.732 142.554 128.851 142.178C127.722 141.681 126.718 140.94 125.91 140.007C124.815 138.75 123.961 137.745 123.375 137.016C123.338 136.968 123.287 136.932 123.23 136.913C123.172 136.893 123.11 136.89 123.051 136.905L122.273 137.097C121.844 137.204 121.393 137.181 120.977 137.031C120.561 136.881 120.199 136.611 119.937 136.256L118.803 134.724C118.781 134.695 118.752 134.671 118.719 134.655C118.687 134.638 118.651 134.63 118.614 134.63C118.577 134.63 118.541 134.638 118.509 134.655C118.476 134.671 118.448 134.695 118.426 134.724L118.434 134.711Z" fill="#1B1C21"/>
    <path d="M116.101 137.577L115.989 137.76C115.768 138.136 115.692 138.58 115.775 139.009C115.859 139.437 116.095 139.82 116.441 140.086C118.892 141.95 121.475 143.632 124.17 145.12C126.031 146.138 129.33 145.687 130.034 145.581C130.522 145.509 130.928 145.176 130.944 144.679L130.97 143.887C130.97 143.887 126.663 144.511 125.042 143.457C122.17 141.586 119.419 139.983 116.642 137.969L116.101 137.577Z" fill="white"/>
    <path d="M127.544 146.026C126.341 146.026 125.02 145.873 124.045 145.343C121.339 143.85 118.744 142.163 116.283 140.293C115.89 139.989 115.621 139.551 115.528 139.062C115.435 138.573 115.524 138.067 115.778 137.639C115.813 137.577 115.891 137.452 115.891 137.452C115.909 137.422 115.932 137.396 115.961 137.376C115.989 137.355 116.022 137.341 116.056 137.334C116.09 137.327 116.126 137.327 116.16 137.335C116.194 137.343 116.226 137.357 116.254 137.378L116.795 137.77C118.66 139.117 120.479 140.268 122.404 141.482C123.31 142.05 124.256 142.641 125.185 143.252C126.708 144.244 130.897 143.649 130.939 143.643C130.976 143.638 131.013 143.641 131.048 143.651C131.083 143.662 131.116 143.68 131.143 143.705C131.17 143.73 131.192 143.76 131.207 143.794C131.221 143.828 131.228 143.865 131.227 143.902L131.202 144.695C131.182 145.282 130.729 145.741 130.076 145.839C129.238 145.962 128.392 146.024 127.544 146.026ZM116.174 137.947C116.004 138.267 115.953 138.636 116.03 138.99C116.107 139.343 116.306 139.658 116.593 139.879C119.033 141.735 121.604 143.411 124.288 144.893C125.999 145.829 129.086 145.46 129.992 145.326C130.305 145.279 130.675 145.078 130.688 144.666L130.704 144.161C129.68 144.284 126.344 144.595 124.902 143.656C123.966 143.047 123.03 142.459 122.127 141.889C120.194 140.672 118.368 139.533 116.49 138.161L116.174 137.947Z" fill="#1B1C21"/>
    <path d="M123.119 140.346C123.058 140.345 122.999 140.323 122.953 140.282C122.907 140.242 122.877 140.186 122.869 140.125C122.861 140.065 122.876 140.003 122.91 139.952C122.944 139.901 122.996 139.865 123.055 139.849L125.613 139.176C125.678 139.159 125.747 139.169 125.805 139.203C125.863 139.236 125.905 139.291 125.923 139.356C125.931 139.388 125.932 139.422 125.927 139.454C125.922 139.487 125.91 139.519 125.893 139.547C125.875 139.575 125.853 139.6 125.826 139.619C125.799 139.639 125.768 139.653 125.736 139.661L123.178 140.334C123.159 140.34 123.139 140.344 123.119 140.346Z" fill="#1B1C21"/>
    <path d="M124.61 141.445C124.55 141.444 124.491 141.422 124.445 141.382C124.4 141.342 124.37 141.287 124.362 141.227C124.353 141.167 124.367 141.106 124.4 141.055C124.433 141.004 124.483 140.967 124.541 140.95L126.615 140.359C126.647 140.348 126.682 140.343 126.716 140.345C126.75 140.348 126.784 140.357 126.815 140.373C126.845 140.389 126.872 140.411 126.894 140.437C126.916 140.464 126.932 140.495 126.941 140.528C126.951 140.561 126.953 140.596 126.949 140.63C126.944 140.664 126.933 140.697 126.915 140.727C126.898 140.756 126.874 140.782 126.846 140.802C126.818 140.822 126.786 140.836 126.753 140.844L124.679 141.436C124.657 141.442 124.633 141.444 124.61 141.445Z" fill="#1B1C21"/>
    <path d="M105.85 96.4443C105.85 96.4443 129.296 95.6599 137.628 100.652C145.549 105.376 124.07 134.396 124.07 134.396L119.599 131.937L125.249 112.482C125.439 111.798 125.351 111.066 125.005 110.447C124.658 109.827 124.081 109.369 123.398 109.173L103.164 103.399L105.85 96.4443Z" fill="#1B1C21"/>
    <path d="M93.8128 109.833C97.3961 110.976 101.02 110.826 109.979 110.703C112.524 110.669 116.125 112.945 117.282 115.224C119.936 120.451 127.212 131.568 136.558 137.671L141.026 135.252L128.094 107.754C127.581 106.592 126.84 105.544 125.915 104.673C124.989 103.802 123.899 103.125 122.708 102.683L100.101 94.3536C100.101 94.3536 94.1965 92.5022 90.7597 98.7868C90.2217 99.7529 89.7851 100.772 89.457 101.828C88.5279 104.933 90.7294 108.852 93.8128 109.833Z" fill="#1B1C21"/>
    <path d="M134.321 120.567C134.272 120.567 134.225 120.553 134.184 120.526C134.143 120.5 134.111 120.462 134.092 120.418L128.57 108.17C127.619 106.019 125.17 103.861 122.615 102.919L111.791 98.9315C111.758 98.9223 111.726 98.9063 111.699 98.8845C111.672 98.8627 111.65 98.8356 111.634 98.8048C111.618 98.7741 111.609 98.7403 111.606 98.7057C111.604 98.6711 111.608 98.6363 111.62 98.6036C111.632 98.5709 111.65 98.541 111.673 98.5156C111.697 98.4903 111.726 98.4701 111.758 98.4563C111.79 98.4425 111.824 98.4355 111.859 98.4355C111.893 98.4356 111.928 98.4429 111.959 98.4568L122.782 102.446C125.456 103.43 128.023 105.699 129.024 107.965L134.551 120.211C134.568 120.249 134.576 120.291 134.572 120.333C134.569 120.375 134.555 120.416 134.532 120.451C134.509 120.487 134.478 120.516 134.441 120.536C134.404 120.556 134.363 120.567 134.321 120.567Z" fill="url(#paint11_linear_989_81669)"/>
    <path d="M127.467 130.41C127.432 130.41 127.398 130.403 127.366 130.389C127.334 130.375 127.306 130.355 127.282 130.329C126.355 129.302 125.48 128.229 124.66 127.114C124.62 127.061 124.602 126.993 124.612 126.927C124.621 126.861 124.657 126.801 124.71 126.761C124.764 126.721 124.831 126.704 124.898 126.713C124.964 126.722 125.024 126.758 125.064 126.811C126.053 128.131 126.925 129.2 127.652 129.986C127.686 130.022 127.708 130.067 127.716 130.115C127.724 130.164 127.718 130.213 127.699 130.258C127.679 130.303 127.647 130.342 127.606 130.369C127.564 130.396 127.516 130.41 127.467 130.41Z" fill="url(#paint12_linear_989_81669)"/>
    <path d="M136.343 54.6213L138.531 51.9823C138.566 51.9397 138.614 51.9093 138.667 51.8951C138.72 51.8809 138.777 51.8838 138.828 51.9033C138.88 51.9228 138.924 51.9579 138.955 52.0037C138.985 52.0496 139.001 52.1039 138.999 52.159C138.987 52.6252 138.94 53.0899 138.859 53.5492C138.846 53.6166 138.848 53.6861 138.866 53.7526C138.883 53.8191 138.915 53.8808 138.96 53.9332C139.004 53.9855 139.06 54.0272 139.122 54.0552C139.185 54.0831 139.253 54.0966 139.322 54.0945H139.623C139.851 54.0937 140.077 54.0449 140.285 53.9512C140.493 53.8575 140.678 53.7211 140.83 53.5509C141.194 53.1453 141.651 52.6454 141.826 52.504C142.134 52.2549 142.528 51.8745 142.979 51.8207H142.993C143.099 51.8102 143.206 51.8293 143.302 51.8759C143.398 51.9225 143.479 51.9948 143.537 52.0848C143.594 52.1748 143.625 52.2789 143.627 52.3856C143.629 52.4922 143.601 52.5973 143.547 52.6892L142.894 53.7865C142.163 55.016 141.059 55.9793 139.741 56.535L137.78 57.3631C137.621 57.4309 137.485 57.5445 137.39 57.6895C137.295 57.8345 137.245 58.0044 137.247 58.1777L137.318 65.8373L134.805 63.237C134.805 63.237 135.044 58.6254 135.537 56.3095C135.666 55.6902 135.943 55.1112 136.343 54.6213Z" fill="white"/>
    <path d="M137.303 66.0814C137.269 66.0814 137.236 66.0745 137.204 66.0612C137.173 66.0479 137.145 66.0285 137.121 66.004L134.61 63.4037C134.586 63.3791 134.567 63.3495 134.555 63.317C134.542 63.2845 134.537 63.2498 134.54 63.2151C134.54 63.0266 134.784 58.5564 135.275 56.2489C135.419 55.592 135.718 54.9791 136.147 54.4615L136.34 54.6214L136.147 54.4615L138.323 51.8207C138.392 51.7367 138.485 51.6764 138.589 51.6484C138.694 51.6203 138.805 51.626 138.906 51.6646C139.007 51.7032 139.094 51.7727 139.153 51.8633C139.213 51.9539 139.242 52.0609 139.237 52.1691C139.225 52.6478 139.177 53.1249 139.094 53.5964C139.088 53.626 139.089 53.6566 139.097 53.6858C139.105 53.7149 139.12 53.7419 139.139 53.7647C139.16 53.7883 139.186 53.807 139.216 53.8192C139.245 53.8315 139.276 53.837 139.308 53.8354H139.616C139.808 53.8315 139.997 53.7881 140.171 53.7079C140.345 53.6277 140.501 53.5124 140.629 53.3691C140.95 52.992 141.293 52.6329 141.654 52.2937C141.696 52.26 141.74 52.2247 141.784 52.1859C142.092 51.9301 142.474 51.6103 142.935 51.5565C143.089 51.5376 143.245 51.5622 143.386 51.6276C143.526 51.6929 143.646 51.7964 143.731 51.9263C143.815 52.0562 143.862 52.2072 143.865 52.3623C143.869 52.5174 143.829 52.6703 143.749 52.8036L143.096 53.901C142.34 55.178 141.194 56.1782 139.826 56.7538L137.865 57.5819C137.751 57.6295 137.654 57.7101 137.587 57.8132C137.519 57.9164 137.483 58.0374 137.485 58.1609L137.556 65.8205C137.556 65.871 137.541 65.9204 137.514 65.9624C137.486 66.0043 137.446 66.037 137.399 66.0562C137.369 66.0711 137.337 66.0797 137.303 66.0814ZM135.05 63.131L137.046 65.1961L136.98 58.171C136.978 57.9473 137.042 57.728 137.164 57.541C137.287 57.3539 137.462 57.2076 137.668 57.1207L139.629 56.2927C140.896 55.7586 141.958 54.8317 142.659 53.6485L143.312 52.5495C143.343 52.499 143.36 52.4407 143.36 52.3812C143.36 52.3217 143.343 52.2634 143.312 52.2129C143.28 52.1625 143.235 52.1221 143.181 52.0965C143.128 52.0708 143.068 52.061 143.009 52.0681C142.684 52.1052 142.379 52.3593 142.112 52.5848L141.975 52.6976C141.636 53.0206 141.313 53.3605 141.008 53.7159C140.832 53.9117 140.617 54.0687 140.377 54.1771C140.137 54.2855 139.877 54.3428 139.614 54.3453H139.32C139.213 54.3499 139.108 54.33 139.01 54.2871C138.913 54.2441 138.827 54.1794 138.759 54.0979C138.689 54.0167 138.638 53.9205 138.611 53.8166C138.583 53.7128 138.58 53.6041 138.601 53.4987C138.679 53.0539 138.724 52.6038 138.736 52.1523L138.643 51.8981L138.72 52.1388L136.532 54.7829C136.155 55.2385 135.892 55.7774 135.765 56.3549C135.327 58.4268 135.088 62.4224 135.05 63.131Z" fill="#1B1C21"/>
    <path d="M94.3438 60.2917C94.3438 60.2917 97.4962 59.7767 100.115 58.4302C101.197 57.8731 104.109 56.8683 105.88 59.0395C107.176 60.6283 108.823 62.7675 110.7 64.6324C111.477 65.4066 111.732 66.5864 111.732 66.5864C111.732 66.5864 109.259 66.1202 104.75 64.6307C100.241 63.1411 94.3438 60.2917 94.3438 60.2917Z" fill="#1B1C21"/>
    <path d="M114.543 68.1649C114.543 68.1649 117.211 70.299 124.564 68.7826C133.708 66.8975 134.444 58.748 134.444 58.748H137.936C137.936 58.748 142.179 75.5031 126.362 80.7762C110.544 86.0492 108.031 77.6389 108.031 77.6389L114.543 68.1649Z" fill="url(#paint13_linear_989_81669)"/>
    <path d="M101.165 105.019C101.165 105.019 94.1318 108.604 89.7929 105.569C89.1028 105.086 88.5794 101.82 88.3252 101.034C84.5181 89.3143 86.6674 72.3859 98.9286 64.9922C103.473 62.2471 108.931 64.9299 111.964 66.576C113.068 67.1751 114.644 68.2388 114.825 68.3415C117.658 70.0078 107.915 76.6105 108.111 83.952C108.229 88.3684 110.269 94.8517 111.121 95.5215C111.356 95.7015 111.512 95.967 111.553 96.2606C111.594 96.5542 111.518 96.8522 111.341 97.0901C109.842 99.0694 106.299 103.112 101.165 105.019Z" fill="url(#paint14_linear_989_81669)"/>
    <path d="M109.251 70.725C109.529 72.913 106.16 77.6037 107.737 80.4531C112.766 89.5418 118.476 89.5889 120.467 89.9844L117.116 92.8877C117.116 92.8877 105.369 94.9074 99.2388 76.3246C99.2388 76.3246 96.8825 68.9796 102.127 67.1636C103.219 66.7866 104.652 66.5661 106.03 67.103C108.412 68.0354 109.157 70.4085 109.251 70.725Z" fill="url(#paint15_linear_989_81669)"/>
    <path d="M95.1585 67.7709C95.1585 67.7709 92.9974 67.7052 91.9994 66.3537C89.9662 63.6002 89.7255 58.0663 100.97 61.079C104.641 62.0636 108.228 65.3674 108.228 65.3674L111.301 68.7774L95.1585 67.7709Z" fill="url(#paint16_linear_989_81669)"/>
    <path d="M96.5029 67.0742C96.4698 67.0745 96.4369 67.0681 96.4062 67.0553C96.3756 67.0426 96.3478 67.0238 96.3245 67.0002C96.3009 66.9768 96.2822 66.9491 96.2694 66.9184C96.2566 66.8878 96.25 66.8549 96.25 66.8218C96.25 66.7886 96.2566 66.7557 96.2694 66.7251C96.2822 66.6945 96.3009 66.6667 96.3245 66.6434C96.4726 66.4952 100 63.0247 104.59 63.6525C104.623 63.6571 104.655 63.6681 104.684 63.6849C104.713 63.7018 104.738 63.7242 104.759 63.7509C104.779 63.7775 104.794 63.8079 104.802 63.8403C104.811 63.8726 104.813 63.9063 104.808 63.9395C104.804 63.9726 104.793 64.0046 104.776 64.0335C104.759 64.0624 104.736 64.0877 104.71 64.1079C104.683 64.1281 104.653 64.1429 104.62 64.1514C104.588 64.1599 104.554 64.162 104.521 64.1574C100.177 63.5633 96.7167 66.9716 96.6814 67.0052C96.6577 67.028 96.6297 67.0458 96.5991 67.0577C96.5685 67.0695 96.5358 67.0751 96.5029 67.0742Z" fill="#1B1C21"/>
    <path d="M105.132 89.966C105.095 89.9656 105.058 89.957 105.025 89.9407C102.5 88.7508 100.629 87.0559 99.4454 84.9083C97.8178 81.9562 97.5788 78.2332 98.7334 73.8421C98.7408 73.809 98.7548 73.7777 98.7745 73.7501C98.7943 73.7225 98.8194 73.6991 98.8484 73.6815C98.8774 73.6638 98.9096 73.6521 98.9432 73.6472C98.9768 73.6423 99.011 73.6442 99.0438 73.6528C99.0767 73.6614 99.1074 73.6765 99.1343 73.6973C99.1611 73.7181 99.1835 73.744 99.2001 73.7736C99.2167 73.8032 99.2271 73.8359 99.2308 73.8696C99.2345 73.9034 99.2313 73.9375 99.2215 73.97C96.7743 83.2825 101.144 87.5474 105.24 89.4846C105.292 89.5089 105.335 89.5503 105.36 89.602C105.386 89.6536 105.393 89.7124 105.38 89.7686C105.367 89.8248 105.336 89.8751 105.291 89.9109C105.246 89.9468 105.19 89.9663 105.132 89.966Z" fill="#1B1C21"/>
    <path d="M114.106 79.2579C114.063 79.2578 114.021 79.2474 113.983 79.2276C113.926 79.195 113.884 79.1419 113.866 79.0792C113.847 79.0165 113.854 78.9491 113.884 78.891C115.703 75.5972 115.282 71.9483 115.277 71.913C115.273 71.8798 115.276 71.8462 115.285 71.814C115.293 71.7818 115.309 71.7516 115.329 71.7253C115.35 71.699 115.375 71.677 115.404 71.6605C115.433 71.644 115.465 71.6334 115.499 71.6294C115.532 71.6253 115.565 71.6277 115.598 71.6367C115.63 71.6456 115.66 71.6607 115.686 71.6813C115.713 71.7018 115.735 71.7274 115.751 71.7564C115.767 71.7855 115.778 71.8175 115.782 71.8507C115.801 72.0072 116.226 75.6999 114.33 79.135C114.307 79.1736 114.274 79.2053 114.234 79.2269C114.195 79.2485 114.151 79.2592 114.106 79.2579Z" fill="#1B1C21"/>
    <path d="M118.163 90.0603C118.15 90.062 118.138 90.062 118.126 90.0603C115.384 89.6496 110.5 85.2635 108.13 81.7644C108.092 81.7091 108.078 81.641 108.09 81.5752C108.103 81.5094 108.141 81.4512 108.196 81.4135C108.252 81.3758 108.32 81.3616 108.386 81.374C108.451 81.3865 108.509 81.4246 108.547 81.48C110.813 84.8242 115.625 89.175 118.2 89.5587C118.233 89.5612 118.265 89.5701 118.295 89.585C118.325 89.6 118.351 89.6206 118.373 89.6458C118.394 89.6709 118.411 89.7001 118.421 89.7317C118.432 89.7632 118.436 89.7966 118.434 89.8297C118.431 89.8629 118.422 89.8952 118.407 89.9249C118.392 89.9546 118.372 89.9811 118.347 90.0028C118.321 90.0245 118.292 90.0411 118.261 90.0515C118.229 90.062 118.196 90.0661 118.163 90.0637V90.0603Z" fill="#1B1C21"/>
    <path d="M108.338 81.8703C108.297 81.8703 108.256 81.8603 108.22 81.8412C108.184 81.8222 108.153 81.7946 108.129 81.7609C107.029 80.135 106.931 78.4318 106.847 76.9288C106.835 76.7436 106.825 76.5585 106.813 76.375C106.811 76.3416 106.815 76.308 106.826 76.2762C106.837 76.2445 106.854 76.2153 106.877 76.1903C106.899 76.1654 106.926 76.1452 106.957 76.1309C106.987 76.1167 107.02 76.1087 107.054 76.1074C107.12 76.1033 107.186 76.1254 107.236 76.1692C107.287 76.213 107.318 76.2748 107.323 76.3414C107.335 76.5265 107.347 76.7133 107.357 76.9002C107.443 78.4149 107.525 79.9667 108.553 81.4765C108.572 81.5039 108.585 81.5349 108.592 81.5674C108.599 81.6 108.599 81.6336 108.593 81.6663C108.587 81.699 108.574 81.7302 108.556 81.7579C108.537 81.7857 108.514 81.8096 108.486 81.8282C108.442 81.8571 108.39 81.8718 108.338 81.8703Z" fill="#1B1C21"/>
    <path d="M124.961 94.0037C121.921 90.6544 117.348 89.9846 114.223 94.0037H124.961Z" fill="url(#paint17_linear_989_81669)"/>
    <path d="M115.617 92.3489C115.785 92.2513 117.275 89.9219 118.918 89.4372C120.56 88.9525 124.135 92.5761 124.135 92.5761L115.617 92.3489Z" fill="white"/>
    <path d="M124.139 92.8289L115.621 92.6016C115.568 92.6003 115.518 92.5826 115.476 92.5511C115.434 92.5196 115.403 92.4758 115.387 92.4259C115.371 92.3759 115.371 92.3222 115.387 92.2723C115.403 92.2224 115.434 92.1786 115.476 92.1472C115.51 92.1135 115.602 91.9957 115.692 91.8813C116.225 91.1996 117.477 89.6024 118.857 89.1884C120.593 88.675 123.947 92.0092 124.324 92.3862C124.359 92.4215 124.383 92.4665 124.393 92.5154C124.403 92.5644 124.398 92.6151 124.379 92.6612C124.36 92.7073 124.327 92.7467 124.286 92.7744C124.244 92.8022 124.196 92.817 124.146 92.8171L124.139 92.8289ZM116.146 92.1102L123.498 92.3071C122.299 91.1845 120.062 89.3634 118.994 89.6798C117.819 90.0265 116.683 91.4285 116.146 92.1102Z" fill="#1B1C21"/>
    <path d="M109.935 66.8555C110.289 66.9302 110.659 66.8777 110.978 66.7071C111.297 66.5366 111.546 66.259 111.681 65.923L112.776 63.1998C112.83 63.0689 112.925 62.9589 113.046 62.8858C113.167 62.8128 113.309 62.7807 113.45 62.7942L115.08 62.9255C115.249 62.939 115.418 62.897 115.561 62.8058C115.704 62.7147 115.813 62.5794 115.871 62.4206L116.674 60.2157C116.677 60.215 116.68 60.215 116.683 60.2157L117.524 59.9532C117.605 59.9279 117.672 59.8722 117.711 59.7979C117.751 59.7236 117.76 59.6368 117.736 59.556L117.243 57.8325C117.146 57.4959 117.267 55.7337 116.923 55.6832C116.923 55.6832 111.57 52.5527 109.417 54.6111C109.14 54.8867 108.939 55.2281 108.83 55.6032C108.722 55.9784 108.712 56.3749 108.799 56.7553L109.006 57.7332C109.168 58.4281 109.157 59.1521 108.974 59.8418C108.791 60.5314 108.441 61.1655 107.956 61.6884L105.847 63.9C105.763 63.9883 105.7 64.0947 105.663 64.2112C105.626 64.3277 105.616 64.451 105.634 64.5719C105.652 64.6927 105.697 64.8078 105.767 64.9084C105.836 65.009 105.927 65.0924 106.034 65.1522C107.054 65.7211 108.782 66.6114 109.935 66.8555Z" fill="white"/>
    <path d="M110.254 67.1415C110.129 67.141 110.004 67.1281 109.882 67.1028C108.735 66.8604 107.083 66.0223 105.898 65.3625C105.758 65.2838 105.637 65.1741 105.546 65.0418C105.455 64.9095 105.395 64.7581 105.371 64.5991C105.347 64.4402 105.36 64.2779 105.408 64.1246C105.457 63.9714 105.54 63.8312 105.65 63.7148L107.759 61.5032C107.95 61.2968 108.12 61.0712 108.264 60.83C108.805 59.9121 108.975 58.8224 108.739 57.7836L108.532 56.8041C108.436 56.3816 108.45 55.9419 108.57 55.526C108.691 55.1101 108.915 54.7316 109.222 54.4259C111.42 52.3237 116.494 55.1546 116.998 55.4441C117.361 55.5518 117.398 56.1628 117.425 57.1272C117.425 57.3399 117.439 57.5524 117.466 57.7634L117.959 59.4852C118 59.6293 117.983 59.7837 117.912 59.9159C117.842 60.048 117.723 60.1476 117.58 60.1938L116.855 60.421L116.092 62.513C116.015 62.7242 115.87 62.9043 115.681 63.0258C115.492 63.1474 115.268 63.2037 115.044 63.1863L113.413 63.055C113.328 63.0485 113.242 63.0691 113.17 63.1138C113.097 63.1585 113.04 63.2251 113.007 63.3041L111.906 66.0273C111.772 66.3559 111.544 66.6372 111.249 66.8356C110.955 67.034 110.608 67.1405 110.254 67.1415ZM111.46 54.1482C110.725 54.1482 110.058 54.3165 109.577 54.7827C109.333 55.0295 109.155 55.3339 109.059 55.6679C108.964 56.0018 108.954 56.3544 109.032 56.693L109.24 57.6708C109.503 58.836 109.311 60.0575 108.703 61.0858C108.537 61.3586 108.344 61.6146 108.128 61.8499L106.016 64.0632C105.958 64.1238 105.915 64.1968 105.89 64.2766C105.864 64.3563 105.858 64.4408 105.87 64.5236C105.882 64.6063 105.913 64.6852 105.961 64.7541C106.008 64.8231 106.071 64.8803 106.144 64.9215C107.088 65.4483 108.836 66.3673 109.986 66.6046C110.283 66.6676 110.592 66.6238 110.86 66.4809C111.127 66.338 111.336 66.1053 111.449 65.8237L112.549 63.0988C112.623 62.9207 112.751 62.7705 112.915 62.6698C113.079 62.5691 113.271 62.523 113.463 62.5383L115.094 62.6696C115.207 62.6786 115.321 62.6506 115.417 62.59C115.513 62.5293 115.587 62.4391 115.628 62.333L116.43 60.1281C116.445 60.0909 116.468 60.0572 116.497 60.0296C116.526 60.002 116.561 59.9811 116.599 59.9682L117.44 59.704C117.458 59.6979 117.472 59.6854 117.48 59.6692C117.489 59.6529 117.491 59.6341 117.486 59.6165L116.986 57.8913C116.941 57.6403 116.922 57.3855 116.927 57.1306C116.917 56.7855 116.897 56.0837 116.808 55.9036L116.782 55.8918C116.747 55.8683 113.768 54.1482 111.464 54.1482H111.46Z" fill="#1B1C21"/>
    <path d="M111.98 57.5871C111.857 56.6176 111.362 56.2154 111.546 55.7744C111.651 55.5781 111.826 55.4277 112.035 55.3519C112.737 55.0254 113.493 55.458 115.055 56.0824C116.995 56.8583 117.214 56.9626 117.623 56.8869C118.663 56.6934 119.444 55.6095 119.676 54.6383C119.742 54.3657 120.05 52.9098 118.959 51.9151C118.173 51.1964 116.97 51.0029 115.888 51.4102C115.88 51.2188 115.835 51.0309 115.753 50.8575C115.672 50.6841 115.557 50.5287 115.415 50.4003C114.595 49.7557 113.035 50.535 112.49 50.8076C111.598 51.2587 110.833 51.9244 110.263 52.7449C110.103 52.6085 109.499 52.1272 108.72 52.2181C107.562 52.3527 107.037 53.6352 106.988 53.7581C106.429 55.1786 107.388 56.7035 108.112 57.8547C108.414 58.3782 108.794 58.8522 109.24 59.26L109.516 59.1708C109.588 59.1475 109.654 59.1098 109.711 59.06C109.768 59.0103 109.814 58.9495 109.847 58.8814C109.879 58.8132 109.898 58.7392 109.901 58.6637C109.905 58.5882 109.892 58.5128 109.866 58.4421L109.857 58.4219C109.736 58.1064 109.685 57.7679 109.709 57.4305C109.731 57.1613 109.805 56.8886 110.002 56.7792C110.319 56.6109 110.753 56.8465 110.815 56.8802C110.978 56.9813 111.118 57.1165 111.224 57.2766C111.331 57.4366 111.401 57.6177 111.431 57.8076C111.475 58.0028 112.02 57.9136 111.98 57.5871Z" fill="#1B1C21"/>
    <path d="M109.156 57.2605C109.098 57.2602 109.041 57.24 108.996 57.2032C108.951 57.1665 108.92 57.1154 108.908 57.0585C108.873 56.8902 108.082 52.935 110.928 51.6457C110.958 51.6308 110.991 51.622 111.025 51.6201C111.059 51.6181 111.093 51.6229 111.125 51.6343C111.157 51.6457 111.186 51.6634 111.211 51.6863C111.236 51.7092 111.256 51.7369 111.27 51.7677C111.284 51.7985 111.291 51.8318 111.292 51.8656C111.293 51.8995 111.287 51.9331 111.275 51.9646C111.262 51.9961 111.244 52.0248 111.22 52.0489C111.196 52.0731 111.168 52.0922 111.137 52.1052C108.649 53.2295 109.388 56.9188 109.396 56.9559C109.403 56.9883 109.404 57.0219 109.398 57.0545C109.392 57.0872 109.379 57.1183 109.361 57.1462C109.343 57.174 109.319 57.198 109.292 57.2167C109.265 57.2355 109.234 57.2486 109.201 57.2554L109.156 57.2605Z" fill="url(#paint18_linear_989_81669)"/>
    <path d="M112.515 57.5769C112.925 56.296 112.309 54.9529 111.141 54.5742C111.013 54.5339 110.529 54.4295 110.399 54.4059C109.347 54.2797 108.649 55.0607 108.283 56.2018C107.89 57.4321 108.147 58.6978 109.228 59.1337C109.271 59.1522 109.598 59.2414 109.647 59.2498C110.958 59.509 112.101 58.8577 112.515 57.5769Z" fill="white"/>
    <path opacity="0.6" d="M112.515 57.5769C112.925 56.296 112.309 54.9529 111.141 54.5742C111.013 54.5339 110.529 54.4295 110.399 54.4059C109.347 54.2797 108.649 55.0607 108.283 56.2018C107.89 57.4321 108.147 58.6978 109.228 59.1337C109.271 59.1522 109.598 59.2414 109.647 59.2498C110.958 59.509 112.101 58.8577 112.515 57.5769Z" fill="url(#paint19_linear_989_81669)"/>
    <path d="M112.021 57.4067C112.389 56.1129 111.729 54.792 110.548 54.4564C109.367 54.1208 108.111 54.8976 107.744 56.1915C107.376 57.4853 108.036 58.8062 109.217 59.1418C110.398 59.4774 111.654 58.7005 112.021 57.4067Z" fill="url(#paint20_linear_989_81669)"/>
    <path d="M90.3074 106.554C90.2571 106.554 90.2079 106.539 90.1663 106.511C90.1246 106.483 90.0923 106.443 90.0735 106.396C84.2887 92.1102 85.3205 79.3659 93.0542 69.5368C93.0748 69.5107 93.1003 69.4889 93.1292 69.4727C93.1582 69.4565 93.1901 69.4461 93.2231 69.4422C93.256 69.4383 93.2895 69.4409 93.3214 69.4499C93.3534 69.4589 93.3833 69.4741 93.4093 69.4947C93.4354 69.5153 93.4572 69.5407 93.4734 69.5697C93.4897 69.5987 93.5 69.6306 93.5039 69.6636C93.5078 69.6965 93.5052 69.73 93.4962 69.7619C93.4872 69.7939 93.472 69.8237 93.4514 69.8498C85.8355 79.5258 84.829 92.0967 90.5414 106.204C90.5663 106.266 90.5656 106.336 90.5394 106.397C90.5132 106.459 90.4637 106.507 90.4017 106.532C90.3719 106.546 90.3399 106.553 90.3074 106.554Z" fill="#1B1C21"/>
    <path d="M158.648 87.3855L122.652 87.463C122.582 87.4657 122.513 87.4535 122.448 87.427C122.383 87.4006 122.325 87.3605 122.277 87.3096C122.229 87.2587 122.193 87.1981 122.17 87.132C122.148 87.0658 122.14 86.9956 122.147 86.9261L123.764 64.9686C123.793 64.6945 123.918 64.4394 124.118 64.2492C124.317 64.0589 124.578 63.9459 124.853 63.9302L160.366 63.9605L158.648 87.3855Z" fill="#1B1C21"/>
    <path d="M122.656 87.7154C122.55 87.7175 122.444 87.6973 122.346 87.6561C122.248 87.615 122.159 87.5538 122.086 87.4764C122.016 87.4003 121.962 87.3104 121.929 87.2124C121.896 87.1144 121.884 87.0105 121.894 86.9076L123.511 64.9501C123.545 64.6115 123.7 64.2964 123.947 64.0627C124.194 63.8289 124.518 63.6923 124.858 63.6777L160.371 63.708C160.405 63.7084 160.439 63.7157 160.471 63.7296C160.502 63.7435 160.531 63.7636 160.554 63.7888C160.578 63.8141 160.596 63.8441 160.608 63.8768C160.619 63.9096 160.624 63.9444 160.621 63.979L158.905 87.4041C158.9 87.4676 158.871 87.527 158.824 87.5703C158.777 87.6136 158.716 87.6378 158.652 87.638L122.656 87.7154ZM124.851 64.1827C124.639 64.198 124.439 64.2868 124.286 64.4336C124.132 64.5804 124.034 64.7762 124.009 64.9872L122.392 86.9446C122.388 86.9783 122.39 87.0125 122.4 87.045C122.41 87.0775 122.427 87.1075 122.449 87.1331C122.476 87.1589 122.508 87.1791 122.542 87.1924C122.577 87.2057 122.614 87.2119 122.651 87.2105L158.413 87.1331L160.083 64.213L124.851 64.1827Z" fill="#1B1C21"/>
    <path d="M159.397 87.3571H124.129C124.059 87.3599 123.989 87.3477 123.924 87.3212C123.86 87.2948 123.801 87.2547 123.754 87.2038C123.706 87.1529 123.669 87.0923 123.647 87.0262C123.625 86.96 123.617 86.8898 123.624 86.8202L125.219 65.0598C125.258 64.7519 125.405 64.4679 125.634 64.259C125.863 64.0501 126.16 63.93 126.47 63.9203H161.276C161.346 63.9175 161.415 63.9298 161.48 63.9562C161.544 63.9827 161.603 64.0227 161.651 64.0736C161.698 64.1245 161.735 64.1851 161.757 64.2513C161.78 64.3175 161.788 64.3877 161.781 64.4572L160.151 86.662C160.129 86.8486 160.04 87.021 159.902 87.1483C159.764 87.2757 159.585 87.3497 159.397 87.3571Z" fill="white"/>
    <path opacity="0.6" d="M159.397 87.3571H124.129C124.059 87.3599 123.989 87.3477 123.924 87.3212C123.86 87.2948 123.801 87.2547 123.754 87.2038C123.706 87.1529 123.669 87.0923 123.647 87.0262C123.625 86.96 123.617 86.8898 123.624 86.8202L125.219 65.0598C125.258 64.7519 125.405 64.4679 125.634 64.259C125.863 64.0501 126.16 63.93 126.47 63.9203H161.276C161.346 63.9175 161.415 63.9298 161.48 63.9562C161.544 63.9827 161.603 64.0227 161.651 64.0736C161.698 64.1245 161.735 64.1851 161.757 64.2513C161.78 64.3175 161.788 64.3877 161.781 64.4572L160.151 86.662C160.129 86.8486 160.04 87.021 159.902 87.1483C159.764 87.2757 159.585 87.3497 159.397 87.3571Z" fill="url(#paint21_linear_989_81669)"/>
    <path d="M159.4 87.6094H124.133C124.026 87.6115 123.921 87.5916 123.822 87.5507C123.724 87.5099 123.636 87.449 123.562 87.3721C123.492 87.2955 123.439 87.2053 123.406 87.107C123.373 87.0088 123.361 86.9047 123.37 86.8015L124.966 65.041C125.01 64.6702 125.186 64.3276 125.461 64.0755C125.737 63.8235 126.094 63.6787 126.467 63.6676H161.273C161.38 63.6655 161.485 63.6855 161.583 63.7263C161.682 63.7672 161.77 63.828 161.844 63.9049C161.914 63.9814 161.967 64.0716 162 64.1699C162.033 64.2682 162.045 64.3723 162.036 64.4755L160.41 86.6803C160.383 86.9314 160.266 87.1641 160.08 87.335C159.894 87.506 159.652 87.6035 159.4 87.6094ZM126.467 64.1726C126.221 64.1815 125.985 64.2773 125.803 64.443C125.62 64.6087 125.502 64.8336 125.469 65.0781L123.874 86.8386C123.87 86.8726 123.873 86.9071 123.883 86.9398C123.893 86.9726 123.91 87.0028 123.932 87.0287C123.959 87.0545 123.99 87.0745 124.025 87.0875C124.059 87.1006 124.096 87.1063 124.133 87.1045H159.4C159.524 87.097 159.642 87.0472 159.734 86.9632C159.826 86.8793 159.886 86.7664 159.905 86.6433L161.532 64.4385C161.536 64.4044 161.533 64.3699 161.523 64.3372C161.513 64.3045 161.496 64.2742 161.473 64.2483C161.447 64.2226 161.416 64.2026 161.381 64.1895C161.347 64.1765 161.31 64.1707 161.273 64.1726H126.467Z" fill="#1B1C21"/>
    <path d="M137.898 92.7196H143.294L144.641 78.0515C144.646 78.0122 144.643 77.9721 144.631 77.9341C144.62 77.8962 144.6 77.8612 144.573 77.8317C144.547 77.8022 144.514 77.7789 144.477 77.7634C144.441 77.7478 144.401 77.7405 144.361 77.7419H139.873C139.704 77.744 139.542 77.8095 139.419 77.9255C139.296 78.0415 139.221 78.1994 139.21 78.368L137.898 92.7196Z" fill="#1B1C21"/>
    <path d="M138.746 92.7194H144.144L145.47 78.0464H140.074L138.746 92.7194Z" fill="white"/>
    <path opacity="0.6" d="M138.746 92.7194H144.144L145.47 78.0464H140.074L138.746 92.7194Z" fill="url(#paint22_linear_989_81669)"/>
    <path d="M144.14 92.9719H138.744C138.709 92.9721 138.674 92.9649 138.642 92.9509C138.61 92.9368 138.581 92.9162 138.558 92.8904C138.534 92.8645 138.516 92.834 138.505 92.8008C138.494 92.7676 138.49 92.7325 138.493 92.6976L139.821 78.0229C139.827 77.9604 139.856 77.9023 139.902 77.86C139.949 77.8176 140.009 77.7941 140.072 77.794H145.468C145.503 77.7936 145.538 77.8006 145.57 77.8145C145.603 77.8285 145.631 77.849 145.655 77.8749C145.679 77.9008 145.697 77.9314 145.708 77.9647C145.72 77.998 145.724 78.0333 145.72 78.0683L144.392 92.743C144.387 92.8058 144.357 92.8642 144.311 92.9065C144.264 92.9489 144.203 92.9722 144.14 92.9719ZM139.02 92.467H143.901L145.184 78.2989H140.303L139.02 92.467Z" fill="#1B1C21"/>
    <path d="M147.976 90.4253H133.234C133.118 90.4253 133.023 90.5195 133.023 90.6357V92.785C133.023 92.9012 133.118 92.9954 133.234 92.9954H147.976C148.092 92.9954 148.186 92.9012 148.186 92.785V90.6357C148.186 90.5195 148.092 90.4253 147.976 90.4253Z" fill="#1B1C21"/>
    <path d="M148.952 90.6509H133.789V92.7699H148.952V90.6509Z" fill="white"/>
    <path opacity="0.6" d="M148.952 90.6509H133.789V92.7699H148.952V90.6509Z" fill="url(#paint23_linear_989_81669)"/>
    <path d="M148.95 93.0223H133.788C133.721 93.0219 133.657 92.9952 133.61 92.9479C133.562 92.9007 133.536 92.8367 133.535 92.7699V90.6509C133.535 90.5839 133.562 90.5197 133.609 90.4724C133.656 90.425 133.721 90.3984 133.788 90.3984H148.95C149.017 90.3984 149.082 90.425 149.129 90.4724C149.176 90.5197 149.203 90.5839 149.203 90.6509V92.7699C149.203 92.803 149.196 92.8359 149.184 92.8665C149.171 92.8971 149.152 92.925 149.129 92.9484C149.106 92.9718 149.078 92.9905 149.047 93.0031C149.016 93.0158 148.984 93.0223 148.95 93.0223ZM134.04 92.5174H148.698V90.9017H134.04V92.5174Z" fill="#1B1C21"/>
    <path d="M197.203 92.7378H95.4674C93.5723 92.7378 92.1013 94.0994 92.3133 95.6563L99.3385 146.598H104.411L98.8083 98.9803C98.4717 96.9606 100.742 97.2266 101.765 97.2266H189.097C190.627 97.2266 193.566 96.7923 193.397 99.4853L188.348 146.611L192.438 146.898L199.583 94.9409C199.744 93.7628 198.633 92.7378 197.203 92.7378Z" fill="white"/>
    <path d="M102.314 129.048C102.252 129.048 102.193 129.025 102.147 128.984C102.1 128.943 102.071 128.886 102.064 128.825L98.556 99.0089C98.4584 98.4266 98.556 97.9486 98.8589 97.6035C99.448 96.9303 100.648 96.9505 101.442 96.9673C101.56 96.9673 101.668 96.9673 101.764 96.9673H189.095C189.264 96.9673 189.459 96.9673 189.663 96.9555C190.772 96.9236 192.293 96.8781 193.103 97.7146C193.512 98.1371 193.695 98.7362 193.648 99.4936L193.143 105.721C193.138 105.788 193.106 105.85 193.055 105.894C193.004 105.937 192.938 105.959 192.871 105.953C192.804 105.948 192.742 105.916 192.698 105.865C192.654 105.814 192.633 105.748 192.638 105.681L193.143 99.4532C193.182 98.8389 193.051 98.3811 192.741 98.0613C192.086 97.3881 190.693 97.4251 189.676 97.4537C189.469 97.4537 189.272 97.4672 189.095 97.4672H101.764C101.665 97.4672 101.552 97.4672 101.427 97.4672C100.727 97.4521 99.6685 97.4285 99.2393 97.9284C99.0407 98.1589 98.9801 98.4871 99.0542 98.9382L102.565 128.771C102.569 128.804 102.567 128.837 102.558 128.869C102.549 128.901 102.534 128.931 102.513 128.957C102.493 128.983 102.467 129.005 102.438 129.021C102.409 129.037 102.378 129.048 102.345 129.052L102.314 129.048Z" fill="#1B1C21"/>
    <path d="M99.3355 146.85C99.2746 146.85 99.2159 146.828 99.1698 146.788C99.1238 146.748 99.0936 146.693 99.0847 146.633L92.0596 95.6898C92.0131 95.3272 92.0459 94.9588 92.1557 94.61C92.2655 94.2613 92.4498 93.9406 92.6958 93.6701C93.3387 92.9312 94.3789 92.492 95.4644 92.492H197.2C197.6 92.4827 197.997 92.559 198.366 92.7158C198.734 92.8725 199.065 93.1061 199.336 93.4008C199.527 93.6126 199.67 93.8635 199.755 94.1361C199.841 94.4086 199.866 94.6964 199.829 94.9795L196.434 119.665C196.425 119.732 196.39 119.793 196.336 119.834C196.282 119.875 196.215 119.893 196.148 119.884C196.081 119.875 196.02 119.84 195.979 119.786C195.938 119.733 195.92 119.665 195.929 119.598L199.324 94.9038C199.35 94.692 199.33 94.4769 199.266 94.2735C199.201 94.0701 199.093 93.8832 198.948 93.7257C198.724 93.4868 198.452 93.2979 198.15 93.1712C197.848 93.0445 197.522 92.9828 197.195 92.9901H95.4644C95.0178 92.9812 94.5742 93.0665 94.1627 93.2405C93.7512 93.4145 93.3809 93.6733 93.0762 94C92.8785 94.2157 92.7301 94.4717 92.6412 94.7504C92.5523 95.0291 92.525 95.3238 92.5611 95.6141L99.5863 146.557C99.5954 146.624 99.5778 146.691 99.5374 146.744C99.497 146.798 99.4371 146.833 99.3709 146.842L99.3355 146.85Z" fill="#1B1C21"/>
    <path d="M155.133 44.0634L145.829 45.0733C145.354 45.125 144.877 44.997 144.491 44.7144C144.106 44.4319 143.84 44.0153 143.747 43.5467L143.723 43.4238C143.628 42.9365 143.725 42.431 143.996 42.0145C144.266 41.598 144.688 41.303 145.172 41.1921L154.182 39.1202C154.486 39.0469 154.803 39.0521 155.104 39.1354C157.383 39.8086 157.567 42.8011 155.878 43.8227C155.65 43.9564 155.396 44.0386 155.133 44.0634Z" fill="#1B1C21"/>
    <path d="M156.216 40.4531H154.973V48.4949H156.216V40.4531Z" fill="#1B1C21"/>
    <path d="M164.898 66.7797H165.077C165.419 66.7797 165.748 66.9157 165.99 67.1578C166.232 67.3999 166.368 67.7282 166.368 68.0706V92.6923H164.898V66.7729V66.7797Z" fill="#1B1C21"/>
    <path d="M157.363 49.1646H156.023V61.7052H157.363V49.1646Z" fill="#1B1C21"/>
    <path d="M156.137 61.102L156.59 60.4413L165.96 66.8673C166.218 67.044 166.395 67.3158 166.452 67.623C166.51 67.9302 166.443 68.2475 166.266 68.5052L166.171 68.644L156.272 61.8564C156.214 61.8161 156.163 61.7645 156.125 61.7046C156.086 61.6447 156.059 61.5778 156.047 61.5076C156.034 61.4374 156.036 61.3654 156.051 61.2958C156.066 61.2262 156.096 61.1603 156.137 61.102Z" fill="#1B1C21"/>
    <path d="M166.269 91.063H164.901C164.459 91.063 164.102 91.4209 164.102 91.8624V97.0598C164.102 97.5013 164.459 97.8593 164.901 97.8593H166.269C166.711 97.8593 167.069 97.5013 167.069 97.0598V91.8624C167.069 91.4209 166.711 91.063 166.269 91.063Z" fill="#1B1C21"/>
    <path d="M168.614 97.7955C169.063 97.7955 169.427 96.7028 169.427 95.355C169.427 94.0072 169.063 92.9146 168.614 92.9146C168.165 92.9146 167.801 94.0072 167.801 95.355C167.801 96.7028 168.165 97.7955 168.614 97.7955Z" fill="#1B1C21"/>
    <path d="M168.278 95.1162H165.406V95.882H168.278V95.1162Z" fill="#1B1C21"/>
    <path d="M169.416 66.9697H165.991C165.457 66.9697 165.023 67.403 165.023 67.9375V68.2034C165.023 68.7379 165.457 69.1712 165.991 69.1712H169.416C169.951 69.1712 170.384 68.7379 170.384 68.2034V67.9375C170.384 67.403 169.951 66.9697 169.416 66.9697Z" fill="#1B1C21"/>
    <path d="M169.586 65.3442H169.366C168.924 65.3442 168.566 65.7022 168.566 66.1437V69.8094C168.566 70.251 168.924 70.6089 169.366 70.6089H169.586C170.028 70.6089 170.386 70.251 170.386 69.8094V66.1437C170.386 65.7022 170.028 65.3442 169.586 65.3442Z" fill="#1B1C21"/>
    <path d="M151.546 47.5693H162.102C162.31 47.5693 162.51 47.652 162.657 47.7991C162.804 47.9461 162.887 48.1456 162.887 48.3537V54.7662C162.887 54.9894 162.798 55.2034 162.64 55.3612C162.482 55.519 162.268 55.6077 162.045 55.6077H151.546C151.443 55.6077 151.341 55.5874 151.246 55.548C151.151 55.5086 151.064 55.4508 150.991 55.378C150.919 55.3052 150.861 55.2187 150.821 55.1235C150.782 55.0284 150.762 54.9264 150.762 54.8234V48.3537C150.762 48.1456 150.844 47.9461 150.991 47.7991C151.139 47.652 151.338 47.5693 151.546 47.5693Z" fill="#1B1C21"/>
    <path d="M153.194 49.0688H149.285C148.355 49.0688 147.602 49.8224 147.602 50.7519V52.5562C147.602 53.4857 148.355 54.2393 149.285 54.2393H153.194C154.124 54.2393 154.877 53.4857 154.877 52.5562V50.7519C154.877 49.8224 154.124 49.0688 153.194 49.0688Z" fill="#1B1C21"/>
    <path d="M150.951 54.2105C150.884 54.2088 150.82 54.1808 150.774 54.1326C150.728 54.0844 150.702 54.0199 150.703 53.953L150.799 49.1664C150.802 49.0998 150.83 49.0369 150.878 48.9908C150.926 48.9446 150.99 48.9189 151.057 48.9189C151.09 48.9194 151.123 48.9264 151.153 48.9396C151.184 48.9528 151.211 48.972 151.234 48.996C151.257 49.0199 151.275 49.0482 151.287 49.0792C151.299 49.1102 151.305 49.1432 151.304 49.1765L151.208 53.9631C151.207 53.9963 151.2 54.029 151.187 54.0594C151.174 54.0897 151.154 54.1172 151.131 54.1402C151.107 54.1632 151.078 54.1812 151.048 54.1933C151.017 54.2053 150.984 54.2112 150.951 54.2105Z" fill="url(#paint24_linear_989_81669)"/>
    <path d="M159.487 49.5635H154.174C153.918 49.5635 153.711 49.7707 153.711 50.0263V52.8337C153.711 53.0893 153.918 53.2965 154.174 53.2965H159.487C159.743 53.2965 159.95 53.0893 159.95 52.8337V50.0263C159.95 49.7707 159.743 49.5635 159.487 49.5635Z" fill="url(#paint25_linear_989_81669)"/>
    <path d="M208.976 67.3841C208.585 67.3829 208.202 67.2668 207.876 67.0501C207.55 66.8335 207.295 66.5259 207.142 66.1655C206.929 65.6731 206.916 65.1167 207.108 64.6153C207.3 64.114 207.68 63.7075 208.167 63.4827C208.404 63.3758 208.66 63.3172 208.92 63.3103C209.18 63.3033 209.439 63.3482 209.682 63.4423C209.931 63.5397 210.158 63.686 210.35 63.8724C210.542 64.0588 210.695 64.2817 210.799 64.5279C211.012 65.0201 211.025 65.5762 210.833 66.0773C210.641 66.5784 210.261 66.9846 209.774 67.209C209.524 67.3228 209.252 67.3824 208.976 67.3841ZM208.376 63.9422C208.01 64.1124 207.725 64.4188 207.581 64.796C207.438 65.1733 207.448 65.5916 207.608 65.9619C207.687 66.1469 207.802 66.3141 207.946 66.4538C208.091 66.5934 208.262 66.7026 208.45 66.7748C208.631 66.8457 208.824 66.8796 209.018 66.8747C209.212 66.8698 209.404 66.8261 209.581 66.7462C209.947 66.5762 210.232 66.27 210.376 65.8927C210.52 65.5154 210.51 65.097 210.35 64.7265C210.271 64.5417 210.156 64.3745 210.011 64.2349C209.867 64.0953 209.696 63.986 209.508 63.9136C209.327 63.8427 209.134 63.8087 208.939 63.8136C208.745 63.8185 208.553 63.8622 208.376 63.9422Z" fill="#1B1C21"/>
    <path d="M209.413 55.7825C209.346 55.7825 209.281 55.7559 209.234 55.7085C209.187 55.6612 209.16 55.5969 209.16 55.53V54.2256C209.16 54.1586 209.187 54.0944 209.234 54.0471C209.281 53.9997 209.346 53.9731 209.413 53.9731C209.48 53.9731 209.544 53.9997 209.591 54.0471C209.638 54.0944 209.665 54.1586 209.665 54.2256V55.53C209.665 55.5969 209.638 55.6612 209.591 55.7085C209.544 55.7559 209.48 55.7825 209.413 55.7825Z" fill="#1B1C21"/>
    <path d="M209.413 58.824C209.346 58.824 209.281 58.7974 209.234 58.75C209.187 58.7027 209.16 58.6385 209.16 58.5715V57.2671C209.16 57.2002 209.187 57.1359 209.234 57.0886C209.281 57.0412 209.346 57.0146 209.413 57.0146C209.48 57.0146 209.544 57.0412 209.591 57.0886C209.638 57.1359 209.665 57.2002 209.665 57.2671V58.5715C209.665 58.6385 209.638 58.7027 209.591 58.75C209.544 58.7974 209.48 58.824 209.413 58.824Z" fill="#1B1C21"/>
    <path d="M208.543 56.6509H207.237C207.17 56.6509 207.106 56.6243 207.058 56.577C207.011 56.5296 206.984 56.4654 206.984 56.3985C206.984 56.3315 207.011 56.2673 207.058 56.2199C207.106 56.1726 207.17 56.146 207.237 56.146H208.543C208.61 56.146 208.674 56.1726 208.721 56.2199C208.769 56.2673 208.795 56.3315 208.795 56.3985C208.795 56.4654 208.769 56.5296 208.721 56.577C208.674 56.6243 208.61 56.6509 208.543 56.6509Z" fill="#1B1C21"/>
    <path d="M211.586 56.6509H210.28C210.213 56.6509 210.149 56.6243 210.101 56.577C210.054 56.5296 210.027 56.4654 210.027 56.3985C210.027 56.3315 210.054 56.2673 210.101 56.2199C210.149 56.1726 210.213 56.146 210.28 56.146H211.586C211.653 56.146 211.717 56.1726 211.764 56.2199C211.812 56.2673 211.838 56.3315 211.838 56.3985C211.838 56.4654 211.812 56.5296 211.764 56.577C211.717 56.6243 211.653 56.6509 211.586 56.6509Z" fill="#1B1C21"/>
    <path d="M156.767 27.2007C156.711 27.2006 156.656 27.1813 156.611 27.146C156.567 27.1107 156.535 27.0615 156.522 27.0062C156.509 26.951 156.515 26.893 156.539 26.8415C156.563 26.7901 156.604 26.7482 156.655 26.7227L162.426 23.8716C162.456 23.8539 162.489 23.8426 162.523 23.8383C162.558 23.8341 162.593 23.837 162.626 23.8468C162.659 23.8567 162.69 23.8733 162.717 23.8956C162.743 23.918 162.765 23.9456 162.781 23.9767C162.796 24.0078 162.805 24.0417 162.807 24.0764C162.808 24.1111 162.803 24.1457 162.791 24.1782C162.778 24.2107 162.759 24.2403 162.735 24.2651C162.711 24.29 162.682 24.3096 162.65 24.3227L156.872 27.1755C156.839 27.191 156.804 27.1996 156.767 27.2007Z" fill="white"/>
    <path d="M138.349 36.3111C138.292 36.3117 138.236 36.2928 138.191 36.2574C138.145 36.222 138.114 36.1723 138.1 36.1164C138.087 36.0605 138.094 36.0019 138.118 35.9501C138.143 35.8983 138.185 35.8564 138.236 35.8314L150.383 29.8245C150.443 29.7948 150.512 29.7902 150.576 29.8117C150.639 29.8331 150.692 29.8789 150.721 29.9389C150.751 29.999 150.756 30.0684 150.734 30.1318C150.713 30.1952 150.667 30.2476 150.607 30.2772L138.46 36.2841C138.426 36.3019 138.388 36.3111 138.349 36.3111Z" fill="white"/>
    <path d="M116.587 47.0694C116.54 47.0695 116.494 47.0565 116.454 47.0318C116.414 47.0071 116.382 46.9717 116.361 46.9297C116.332 46.8698 116.328 46.8009 116.349 46.7378C116.371 46.6748 116.416 46.6227 116.476 46.5931L134.692 37.5852C134.722 37.5705 134.754 37.5618 134.787 37.5596C134.82 37.5574 134.853 37.5618 134.885 37.5724C134.916 37.583 134.945 37.5997 134.97 37.6216C134.995 37.6434 135.015 37.67 135.03 37.6997C135.045 37.7294 135.054 37.7617 135.056 37.7948C135.058 37.8279 135.054 37.8611 135.043 37.8925C135.032 37.924 135.016 37.953 134.994 37.9779C134.972 38.0029 134.945 38.0233 134.916 38.038L116.7 47.0441C116.664 47.0607 116.626 47.0693 116.587 47.0694Z" fill="white"/>
    <path d="M172.633 63.9843C172.579 63.9847 172.526 63.9675 172.482 63.9353C172.438 63.9031 172.406 63.8576 172.39 63.8056C172.374 63.7536 172.375 63.6978 172.394 63.6466C172.412 63.5954 172.446 63.5515 172.492 63.5215L185.62 54.687C185.647 54.6671 185.678 54.653 185.712 54.6455C185.745 54.6379 185.779 54.6371 185.812 54.6431C185.846 54.6491 185.877 54.6617 185.906 54.6802C185.934 54.6988 185.958 54.7228 185.977 54.751C185.996 54.7791 186.009 54.8108 186.016 54.8441C186.022 54.8774 186.022 54.9116 186.014 54.9448C186.007 54.9779 185.994 55.0093 185.974 55.037C185.955 55.0647 185.93 55.0882 185.901 55.1061L172.773 63.9405C172.732 63.9695 172.683 63.9848 172.633 63.9843Z" fill="white"/>
    <path d="M122.395 53.8859C122.335 53.8854 122.278 53.8638 122.232 53.8249C122.187 53.786 122.157 53.7324 122.148 53.6736C122.138 53.6147 122.15 53.5544 122.181 53.5033C122.211 53.4522 122.259 53.4136 122.316 53.3944C122.918 53.1925 131.056 48.7828 134.139 47.1014C134.198 47.0718 134.265 47.0661 134.328 47.0855C134.391 47.105 134.443 47.1479 134.475 47.2054C134.506 47.2629 134.514 47.3304 134.497 47.3936C134.479 47.4568 134.438 47.5107 134.382 47.5441C133.927 47.7915 123.245 53.6166 122.476 53.8724C122.45 53.8818 122.422 53.8864 122.395 53.8859Z" fill="white"/>
    <path d="M158.496 37.225C158.439 37.2253 158.384 37.2065 158.339 37.1717C158.295 37.1369 158.263 37.0881 158.25 37.0332C158.236 36.9782 158.241 36.9203 158.265 36.8687C158.288 36.8171 158.328 36.7749 158.378 36.7487L162.67 34.4766C162.699 34.4593 162.732 34.4482 162.766 34.4439C162.799 34.4396 162.834 34.4422 162.867 34.4515C162.899 34.4609 162.93 34.4768 162.956 34.4982C162.983 34.5197 163.005 34.5463 163.021 34.5764C163.037 34.6066 163.046 34.6396 163.049 34.6736C163.052 34.7076 163.048 34.7418 163.037 34.7741C163.026 34.8065 163.009 34.8363 162.986 34.8618C162.964 34.8873 162.936 34.908 162.905 34.9226L158.614 37.1947C158.577 37.2145 158.537 37.2249 158.496 37.225Z" fill="white"/>
    <path d="M155.136 12.8066H134.266V21.4459H155.136V12.8066Z" fill="url(#paint26_linear_989_81669)"/>
    <path d="M139.141 18.6625H141.238V19.5898H137.938V14.5928H139.141V18.6625Z" fill="white"/>
    <path d="M143.03 19.5898H141.828V14.5928H143.03V19.5898Z" fill="white"/>
    <path d="M145.806 18.2299L146.803 14.5928H148.149L146.466 19.5898H145.148L143.48 14.5928H144.815L145.806 18.2299Z" fill="white"/>
    <path d="M151.61 17.4692H149.715V18.6625H151.954V19.5898H148.512V14.5928H151.96V15.5235H149.715V16.5771H151.61V17.4692Z" fill="white"/>
    <path d="M185.963 138.028C185.963 138.028 179.802 124.519 183.336 107.007C183.336 107.007 192.888 115.012 189.444 138.028H185.963Z" fill="white"/>
    <path opacity="0.6" d="M185.963 138.028C185.963 138.028 179.802 124.519 183.336 107.007C183.336 107.007 192.888 115.012 189.444 138.028H185.963Z" fill="url(#paint27_linear_989_81669)"/>
    <path d="M189.442 138.28H185.961C185.913 138.28 185.866 138.266 185.825 138.24C185.785 138.214 185.752 138.176 185.733 138.132C185.717 138.098 184.167 134.665 183.075 129.133C181.633 121.811 181.637 114.277 183.087 106.957C183.096 106.914 183.115 106.874 183.144 106.841C183.173 106.808 183.21 106.783 183.251 106.769C183.292 106.755 183.336 106.751 183.379 106.759C183.422 106.767 183.462 106.786 183.496 106.813C183.595 106.898 185.955 108.912 187.914 113.791C189.711 118.272 191.479 126.12 189.691 138.065C189.682 138.125 189.652 138.179 189.607 138.219C189.561 138.258 189.503 138.28 189.442 138.28ZM186.128 137.775H189.225C190.938 126.088 189.215 118.41 187.461 114.019C185.968 110.284 184.204 108.236 183.492 107.509C180.394 123.553 185.485 136.272 186.128 137.775Z" fill="#1B1C21"/>
    <path d="M187.472 136.872H187.458C187.425 136.87 187.393 136.862 187.363 136.847C187.333 136.833 187.306 136.813 187.284 136.788C187.261 136.763 187.244 136.735 187.233 136.703C187.222 136.672 187.218 136.639 187.219 136.606C187.691 127.978 183.798 109.554 183.759 109.368C183.75 109.335 183.748 109.301 183.752 109.266C183.757 109.232 183.769 109.2 183.787 109.17C183.805 109.141 183.829 109.116 183.857 109.096C183.885 109.076 183.917 109.062 183.95 109.055C183.984 109.048 184.019 109.047 184.052 109.054C184.086 109.061 184.118 109.075 184.146 109.094C184.175 109.114 184.199 109.139 184.217 109.168C184.235 109.197 184.247 109.23 184.252 109.264C184.292 109.449 188.199 127.946 187.723 136.633C187.72 136.697 187.692 136.758 187.645 136.802C187.598 136.847 187.536 136.872 187.472 136.872Z" fill="url(#paint28_linear_989_81669)"/>
    <path d="M192.162 116.065C192.162 116.065 184.221 130.412 188.998 136.619H191.553C191.553 136.619 196.659 125.405 192.162 116.065Z" fill="white"/>
    <path d="M191.552 136.871H188.998C188.959 136.871 188.921 136.862 188.886 136.845C188.851 136.828 188.821 136.803 188.797 136.772C186.764 134.13 186.68 129.811 188.548 123.937C189.446 121.179 190.581 118.504 191.941 115.942C191.963 115.901 191.996 115.868 192.036 115.845C192.076 115.822 192.122 115.811 192.168 115.813C192.215 115.814 192.26 115.828 192.299 115.853C192.338 115.879 192.369 115.914 192.389 115.956C196.884 125.294 191.834 136.611 191.783 136.723C191.763 136.768 191.73 136.805 191.69 136.831C191.649 136.858 191.601 136.872 191.552 136.871ZM189.124 136.367H191.388C191.948 135.04 195.905 125.09 192.147 116.634C190.881 119.078 185.113 130.92 189.124 136.367Z" fill="#1B1C21"/>
    <path d="M190.198 137.252C190.132 137.252 190.07 137.226 190.023 137.181C189.976 137.136 189.948 137.075 189.945 137.01C189.715 131.08 191.618 118.01 191.638 117.878C191.648 117.811 191.684 117.751 191.738 117.711C191.793 117.67 191.861 117.653 191.928 117.663C191.995 117.673 192.055 117.709 192.095 117.763C192.136 117.817 192.153 117.885 192.143 117.952C192.125 118.084 190.228 131.107 190.46 136.99C190.462 137.056 190.438 137.122 190.393 137.171C190.348 137.22 190.285 137.249 190.218 137.252H190.198Z" fill="url(#paint29_linear_989_81669)"/>
    <path d="M177 121.414C177 121.414 183.764 123.722 186.213 137.383H183.552C183.552 137.383 178 129.88 177 121.414Z" fill="white"/>
    <path d="M186.216 137.636H183.555C183.515 137.636 183.477 137.627 183.442 137.609C183.407 137.592 183.376 137.566 183.353 137.535C183.295 137.459 177.748 129.879 176.752 121.443C176.747 121.401 176.753 121.358 176.769 121.318C176.785 121.279 176.811 121.244 176.844 121.217C176.877 121.19 176.916 121.172 176.958 121.165C177 121.157 177.043 121.161 177.083 121.175C177.156 121.199 178.862 121.8 180.88 124.109C182.732 126.218 185.189 130.225 186.465 137.34C186.471 137.376 186.469 137.414 186.46 137.449C186.45 137.485 186.433 137.518 186.409 137.547C186.385 137.575 186.356 137.597 186.322 137.613C186.289 137.628 186.252 137.636 186.216 137.636ZM183.691 137.131H185.919C183.829 125.898 178.76 122.566 177.317 121.828C178.356 129.424 183.038 136.224 183.684 137.131H183.691Z" fill="#1B1C21"/>
    <path d="M184.76 137.252C184.7 137.252 184.642 137.23 184.596 137.191C184.551 137.153 184.52 137.099 184.511 137.04C183.501 130.981 179.16 124.859 179.116 124.797C179.095 124.77 179.08 124.739 179.071 124.706C179.062 124.673 179.06 124.639 179.065 124.605C179.07 124.571 179.082 124.539 179.099 124.51C179.117 124.481 179.141 124.455 179.168 124.436C179.196 124.416 179.228 124.402 179.261 124.395C179.294 124.387 179.329 124.387 179.362 124.393C179.396 124.4 179.428 124.413 179.456 124.432C179.484 124.451 179.508 124.475 179.527 124.504C179.571 124.565 183.985 130.775 185.009 136.959C185.014 136.992 185.013 137.025 185.006 137.057C184.999 137.09 184.985 137.12 184.966 137.147C184.946 137.174 184.922 137.197 184.894 137.215C184.866 137.233 184.834 137.245 184.802 137.25L184.76 137.252Z" fill="url(#paint30_linear_989_81669)"/>
    <path d="M179.612 136.299H196.3L196.675 144.193C196.697 144.652 196.625 145.11 196.465 145.54C196.304 145.97 196.058 146.363 195.741 146.696C195.424 147.028 195.043 147.292 194.621 147.473C194.199 147.654 193.745 147.747 193.286 147.748H183.754C183.209 147.748 182.669 147.64 182.166 147.431C181.662 147.223 181.205 146.917 180.819 146.531C180.434 146.146 180.129 145.688 179.92 145.184C179.712 144.68 179.605 144.141 179.605 143.595L179.612 136.299Z" fill="url(#paint31_linear_989_81669)"/>
    <path d="M193.284 148H183.753C183.175 148 182.602 147.886 182.068 147.665C181.534 147.443 181.048 147.119 180.639 146.71C180.231 146.301 179.907 145.815 179.686 145.281C179.465 144.746 179.351 144.174 179.352 143.595V136.299C179.352 136.232 179.378 136.168 179.426 136.121C179.473 136.073 179.537 136.047 179.604 136.047H196.292C196.357 136.047 196.419 136.072 196.466 136.117C196.513 136.161 196.541 136.223 196.544 136.288L196.918 144.181C196.941 144.674 196.865 145.166 196.692 145.628C196.52 146.091 196.255 146.513 195.915 146.87C195.575 147.227 195.165 147.511 194.712 147.705C194.259 147.9 193.771 148 193.277 148H193.284ZM179.863 136.555V143.599C179.863 144.633 180.274 145.624 181.004 146.355C181.735 147.086 182.726 147.498 183.76 147.499H193.291C193.716 147.498 194.136 147.411 194.526 147.243C194.917 147.075 195.269 146.83 195.562 146.522C195.855 146.214 196.082 145.85 196.231 145.452C196.379 145.053 196.445 144.629 196.425 144.205L196.061 136.552L179.863 136.555Z" fill="#1B1C21"/>
  </g>
  <defs>
    <linearGradient id="paint0_linear_989_81669" x1="162.609" y1="15.2426" x2="165.709" y2="4.11203" gradientUnits="userSpaceOnUse">
      <stop offset="0.15" stop-color="#EF6129"/>
      <stop offset="0.2" stop-color="#F06032"/>
      <stop offset="0.55" stop-color="#F85D6A"/>
      <stop offset="0.81" stop-color="#FD5B8C"/>
      <stop offset="0.96" stop-color="#FF5A99"/>
    </linearGradient>
    <linearGradient id="paint1_linear_989_81669" x1="199.193" y1="41.9138" x2="207.48" y2="41.1435" gradientUnits="userSpaceOnUse">
      <stop offset="0.15" stop-color="#EF6129"/>
      <stop offset="0.2" stop-color="#F06032"/>
      <stop offset="0.55" stop-color="#F85D6A"/>
      <stop offset="0.81" stop-color="#FD5B8C"/>
      <stop offset="0.96" stop-color="#FF5A99"/>
    </linearGradient>
    <linearGradient id="paint2_linear_989_81669" x1="189.706" y1="140.407" x2="200.096" y2="134.853" gradientUnits="userSpaceOnUse">
      <stop offset="0.15" stop-color="#EF6129"/>
      <stop offset="0.2" stop-color="#F06032"/>
      <stop offset="0.55" stop-color="#F85D6A"/>
      <stop offset="0.81" stop-color="#FD5B8C"/>
      <stop offset="0.96" stop-color="#FF5A99"/>
    </linearGradient>
    <linearGradient id="paint3_linear_989_81669" x1="180.107" y1="140.367" x2="189.667" y2="136.031" gradientUnits="userSpaceOnUse">
      <stop offset="0.15" stop-color="#EF6129"/>
      <stop offset="0.2" stop-color="#F06032"/>
      <stop offset="0.55" stop-color="#F85D6A"/>
      <stop offset="0.81" stop-color="#FD5B8C"/>
      <stop offset="0.96" stop-color="#FF5A99"/>
    </linearGradient>
    <linearGradient id="paint4_linear_989_81669" x1="189.498" y1="120.485" x2="192.037" y2="120.458" gradientUnits="userSpaceOnUse">
      <stop offset="0.15" stop-color="#EF6129"/>
      <stop offset="0.2" stop-color="#F06032"/>
      <stop offset="0.55" stop-color="#F85D6A"/>
      <stop offset="0.81" stop-color="#FD5B8C"/>
      <stop offset="0.96" stop-color="#FF5A99"/>
    </linearGradient>
    <linearGradient id="paint5_linear_989_81669" x1="73.0274" y1="46.267" x2="91.3494" y2="36.9765" gradientUnits="userSpaceOnUse">
      <stop offset="0.15" stop-color="#EF6129"/>
      <stop offset="0.2" stop-color="#F06032"/>
      <stop offset="0.55" stop-color="#F85D6A"/>
      <stop offset="0.81" stop-color="#FD5B8C"/>
      <stop offset="0.96" stop-color="#FF5A99"/>
    </linearGradient>
    <linearGradient id="paint6_linear_989_81669" x1="90.2615" y1="36.1225" x2="121.606" y2="20.2371" gradientUnits="userSpaceOnUse">
      <stop offset="0.15" stop-color="#EF6129"/>
      <stop offset="0.2" stop-color="#F06032"/>
      <stop offset="0.55" stop-color="#F85D6A"/>
      <stop offset="0.81" stop-color="#FD5B8C"/>
      <stop offset="0.96" stop-color="#FF5A99"/>
    </linearGradient>
    <linearGradient id="paint7_linear_989_81669" x1="116.992" y1="93.0885" x2="117.756" y2="88.5896" gradientUnits="userSpaceOnUse">
      <stop offset="0.15" stop-color="#EF6129"/>
      <stop offset="0.2" stop-color="#F06032"/>
      <stop offset="0.55" stop-color="#F85D6A"/>
      <stop offset="0.81" stop-color="#FD5B8C"/>
      <stop offset="0.96" stop-color="#FF5A99"/>
    </linearGradient>
    <linearGradient id="paint8_linear_989_81669" x1="77.0228" y1="126.628" x2="131.879" y2="110.976" gradientUnits="userSpaceOnUse">
      <stop offset="0.15" stop-color="#EF6129"/>
      <stop offset="0.2" stop-color="#F06032"/>
      <stop offset="0.55" stop-color="#F85D6A"/>
      <stop offset="0.81" stop-color="#FD5B8C"/>
      <stop offset="0.96" stop-color="#FF5A99"/>
    </linearGradient>
    <linearGradient id="paint9_linear_989_81669" x1="135.576" y1="144.333" x2="143.353" y2="134.99" gradientUnits="userSpaceOnUse">
      <stop offset="0.15" stop-color="#EF6129"/>
      <stop offset="0.2" stop-color="#F06032"/>
      <stop offset="0.55" stop-color="#F85D6A"/>
      <stop offset="0.81" stop-color="#FD5B8C"/>
      <stop offset="0.96" stop-color="#FF5A99"/>
    </linearGradient>
    <linearGradient id="paint10_linear_989_81669" x1="114.366" y1="142.931" x2="126.142" y2="134.591" gradientUnits="userSpaceOnUse">
      <stop offset="0.15" stop-color="#EF6129"/>
      <stop offset="0.2" stop-color="#F06032"/>
      <stop offset="0.55" stop-color="#F85D6A"/>
      <stop offset="0.81" stop-color="#FD5B8C"/>
      <stop offset="0.96" stop-color="#FF5A99"/>
    </linearGradient>
    <linearGradient id="paint11_linear_989_81669" x1="109.53" y1="115.832" x2="130.418" y2="104.854" gradientUnits="userSpaceOnUse">
      <stop offset="0.15" stop-color="#EF6129"/>
      <stop offset="0.2" stop-color="#F06032"/>
      <stop offset="0.55" stop-color="#F85D6A"/>
      <stop offset="0.81" stop-color="#FD5B8C"/>
      <stop offset="0.96" stop-color="#FF5A99"/>
    </linearGradient>
    <linearGradient id="paint12_linear_989_81669" x1="124.328" y1="129.618" x2="127.384" y2="128.317" gradientUnits="userSpaceOnUse">
      <stop offset="0.15" stop-color="#EF6129"/>
      <stop offset="0.2" stop-color="#F06032"/>
      <stop offset="0.55" stop-color="#F85D6A"/>
      <stop offset="0.81" stop-color="#FD5B8C"/>
      <stop offset="0.96" stop-color="#FF5A99"/>
    </linearGradient>
    <linearGradient id="paint13_linear_989_81669" x1="105.283" y1="77.4286" x2="130.144" y2="61.3119" gradientUnits="userSpaceOnUse">
      <stop offset="0.15" stop-color="#EF6129"/>
      <stop offset="0.2" stop-color="#F06032"/>
      <stop offset="0.55" stop-color="#F85D6A"/>
      <stop offset="0.81" stop-color="#FD5B8C"/>
      <stop offset="0.96" stop-color="#FF5A99"/>
    </linearGradient>
    <linearGradient id="paint14_linear_989_81669" x1="84.022" y1="97.5931" x2="113.934" y2="87.4684" gradientUnits="userSpaceOnUse">
      <stop offset="0.15" stop-color="#EF6129"/>
      <stop offset="0.2" stop-color="#F06032"/>
      <stop offset="0.55" stop-color="#F85D6A"/>
      <stop offset="0.81" stop-color="#FD5B8C"/>
      <stop offset="0.96" stop-color="#FF5A99"/>
    </linearGradient>
    <linearGradient id="paint15_linear_989_81669" x1="96.7453" y1="87.3527" x2="118.194" y2="78.322" gradientUnits="userSpaceOnUse">
      <stop offset="0.15" stop-color="#EF6129"/>
      <stop offset="0.2" stop-color="#F06032"/>
      <stop offset="0.55" stop-color="#F85D6A"/>
      <stop offset="0.81" stop-color="#FD5B8C"/>
      <stop offset="0.96" stop-color="#FF5A99"/>
    </linearGradient>
    <linearGradient id="paint16_linear_989_81669" x1="89.0722" y1="66.9434" x2="98.7264" y2="55.3145" gradientUnits="userSpaceOnUse">
      <stop offset="0.15" stop-color="#EF6129"/>
      <stop offset="0.2" stop-color="#F06032"/>
      <stop offset="0.55" stop-color="#F85D6A"/>
      <stop offset="0.81" stop-color="#FD5B8C"/>
      <stop offset="0.96" stop-color="#FF5A99"/>
    </linearGradient>
    <linearGradient id="paint17_linear_989_81669" x1="113.253" y1="93.4113" x2="115.818" y2="88.372" gradientUnits="userSpaceOnUse">
      <stop offset="0.15" stop-color="#EF6129"/>
      <stop offset="0.2" stop-color="#F06032"/>
      <stop offset="0.55" stop-color="#F85D6A"/>
      <stop offset="0.81" stop-color="#FD5B8C"/>
      <stop offset="0.96" stop-color="#FF5A99"/>
    </linearGradient>
    <linearGradient id="paint18_linear_989_81669" x1="108.554" y1="56.0535" x2="111.328" y2="55.4282" gradientUnits="userSpaceOnUse">
      <stop offset="0.15" stop-color="#EF6129"/>
      <stop offset="0.2" stop-color="#F06032"/>
      <stop offset="0.55" stop-color="#F85D6A"/>
      <stop offset="0.81" stop-color="#FD5B8C"/>
      <stop offset="0.96" stop-color="#FF5A99"/>
    </linearGradient>
    <linearGradient id="paint19_linear_989_81669" x1="107.7" y1="58.2547" x2="112.018" y2="56.2373" gradientUnits="userSpaceOnUse">
      <stop offset="0.15" stop-color="#EF6129"/>
      <stop offset="0.2" stop-color="#F06032"/>
      <stop offset="0.55" stop-color="#F85D6A"/>
      <stop offset="0.81" stop-color="#FD5B8C"/>
      <stop offset="0.96" stop-color="#FF5A99"/>
    </linearGradient>
    <linearGradient id="paint20_linear_989_81669" x1="110.32" y1="59.9127" x2="109.195" y2="55.0989" gradientUnits="userSpaceOnUse">
      <stop offset="0.15" stop-color="#EF6129"/>
      <stop offset="0.2" stop-color="#F06032"/>
      <stop offset="0.55" stop-color="#F85D6A"/>
      <stop offset="0.81" stop-color="#FD5B8C"/>
      <stop offset="0.96" stop-color="#FF5A99"/>
    </linearGradient>
    <linearGradient id="paint21_linear_989_81669" x1="120.173" y1="82.3426" x2="146.539" y2="60.6022" gradientUnits="userSpaceOnUse">
      <stop offset="0.15" stop-color="#EF6129"/>
      <stop offset="0.2" stop-color="#F06032"/>
      <stop offset="0.55" stop-color="#F85D6A"/>
      <stop offset="0.81" stop-color="#FD5B8C"/>
      <stop offset="0.96" stop-color="#FF5A99"/>
    </linearGradient>
    <linearGradient id="paint22_linear_989_81669" x1="138.139" y1="89.5799" x2="145.544" y2="87.8613" gradientUnits="userSpaceOnUse">
      <stop offset="0.15" stop-color="#EF6129"/>
      <stop offset="0.2" stop-color="#F06032"/>
      <stop offset="0.55" stop-color="#F85D6A"/>
      <stop offset="0.81" stop-color="#FD5B8C"/>
      <stop offset="0.96" stop-color="#FF5A99"/>
    </linearGradient>
    <linearGradient id="paint23_linear_989_81669" x1="132.419" y1="92.3165" x2="133.664" y2="87.8038" gradientUnits="userSpaceOnUse">
      <stop offset="0.15" stop-color="#EF6129"/>
      <stop offset="0.2" stop-color="#F06032"/>
      <stop offset="0.55" stop-color="#F85D6A"/>
      <stop offset="0.81" stop-color="#FD5B8C"/>
      <stop offset="0.96" stop-color="#FF5A99"/>
    </linearGradient>
    <linearGradient id="paint24_linear_989_81669" x1="150.649" y1="53.0783" x2="151.344" y2="53.0384" gradientUnits="userSpaceOnUse">
      <stop offset="0.15" stop-color="#EF6129"/>
      <stop offset="0.2" stop-color="#F06032"/>
      <stop offset="0.55" stop-color="#F85D6A"/>
      <stop offset="0.81" stop-color="#FD5B8C"/>
      <stop offset="0.96" stop-color="#FF5A99"/>
    </linearGradient>
    <linearGradient id="paint25_linear_989_81669" x1="153.147" y1="52.4978" x2="157.366" y2="48.9268" gradientUnits="userSpaceOnUse">
      <stop offset="0.15" stop-color="#EF6129"/>
      <stop offset="0.2" stop-color="#F06032"/>
      <stop offset="0.55" stop-color="#F85D6A"/>
      <stop offset="0.81" stop-color="#FD5B8C"/>
      <stop offset="0.96" stop-color="#FF5A99"/>
    </linearGradient>
    <linearGradient id="paint26_linear_989_81669" x1="132.38" y1="19.5973" x2="142.082" y2="7.72812" gradientUnits="userSpaceOnUse">
      <stop offset="0.15" stop-color="#EF6129"/>
      <stop offset="0.2" stop-color="#F06032"/>
      <stop offset="0.55" stop-color="#F85D6A"/>
      <stop offset="0.81" stop-color="#FD5B8C"/>
      <stop offset="0.96" stop-color="#FF5A99"/>
    </linearGradient>
    <linearGradient id="paint27_linear_989_81669" x1="181.524" y1="131.39" x2="190.599" y2="130.212" gradientUnits="userSpaceOnUse">
      <stop offset="0.15" stop-color="#EF6129"/>
      <stop offset="0.2" stop-color="#F06032"/>
      <stop offset="0.55" stop-color="#F85D6A"/>
      <stop offset="0.81" stop-color="#FD5B8C"/>
      <stop offset="0.96" stop-color="#FF5A99"/>
    </linearGradient>
    <linearGradient id="paint28_linear_989_81669" x1="183.387" y1="130.918" x2="188.02" y2="130.58" gradientUnits="userSpaceOnUse">
      <stop offset="0.15" stop-color="#EF6129"/>
      <stop offset="0.2" stop-color="#F06032"/>
      <stop offset="0.55" stop-color="#F85D6A"/>
      <stop offset="0.81" stop-color="#FD5B8C"/>
      <stop offset="0.96" stop-color="#FF5A99"/>
    </linearGradient>
    <linearGradient id="paint29_linear_989_81669" x1="189.725" y1="133.06" x2="192.294" y2="132.913" gradientUnits="userSpaceOnUse">
      <stop offset="0.15" stop-color="#EF6129"/>
      <stop offset="0.2" stop-color="#F06032"/>
      <stop offset="0.55" stop-color="#F85D6A"/>
      <stop offset="0.81" stop-color="#FD5B8C"/>
      <stop offset="0.96" stop-color="#FF5A99"/>
    </linearGradient>
    <linearGradient id="paint30_linear_989_81669" x1="178.525" y1="134.499" x2="185.071" y2="132.966" gradientUnits="userSpaceOnUse">
      <stop offset="0.15" stop-color="#EF6129"/>
      <stop offset="0.2" stop-color="#F06032"/>
      <stop offset="0.55" stop-color="#F85D6A"/>
      <stop offset="0.81" stop-color="#FD5B8C"/>
      <stop offset="0.96" stop-color="#FF5A99"/>
    </linearGradient>
    <linearGradient id="paint31_linear_989_81669" x1="178.063" y1="145.298" x2="190.681" y2="135.768" gradientUnits="userSpaceOnUse">
      <stop offset="0.15" stop-color="#EF6129"/>
      <stop offset="0.2" stop-color="#F06032"/>
      <stop offset="0.55" stop-color="#F85D6A"/>
      <stop offset="0.81" stop-color="#FD5B8C"/>
      <stop offset="0.96" stop-color="#FF5A99"/>
    </linearGradient>
  </defs>
</svg>
