<svg width="20" height="20" viewBox="0 0 20 20" fill="none" xmlns="http://www.w3.org/2000/svg">
<path fill-rule="evenodd" clip-rule="evenodd" d="M13.0667 0C18.6667 0 20 1.33333 20 6.93333V13.0667C20 18.6667 18.6667 20 13.0667 20H6.93333C1.33333 20 0 18.6667 0 13.0667V6.93333C0 1.33333 1.33333 0 6.93333 0H13.0667ZM5.41667 6.25H3.95833C3.54167 6.25 3.45833 6.45 3.45833 6.65833C3.45833 7.05 3.95 8.96667 5.75833 11.5C6.23673 12.2644 6.88941 12.9045 7.6629 13.3681C8.43639 13.8316 9.30869 14.1053 10.2083 14.1667C11.1333 14.1667 11.25 13.9583 11.25 13.6V12.2917C11.25 11.875 11.3417 11.7917 11.6333 11.7917C11.925 11.7917 12.2167 11.9 13.0833 12.7333C14.075 13.725 14.2333 14.1667 14.7917 14.1667H16.25C16.6667 14.1667 16.875 13.9583 16.7583 13.55C16.4478 12.9143 16.0307 12.3365 15.525 11.8417C15.1833 11.4333 14.6917 11.0083 14.5167 10.7917C14.3417 10.575 14.3667 10.3833 14.5167 10.1417C15.2889 9.10365 15.9482 7.98622 16.4833 6.80833C16.575 6.5 16.4833 6.275 16.0417 6.275H14.5833C14.4482 6.26757 14.3142 6.30306 14.2004 6.3764C14.0867 6.44974 13.999 6.55718 13.95 6.68333C13.4981 7.75813 12.8948 8.76275 12.1583 9.66667C11.8167 10.0083 11.6583 10.1167 11.475 10.1167C11.2917 10.1167 11.25 10.0083 11.25 9.7V6.78333C11.25 6.41667 11.1417 6.25 10.8333 6.25H8.54167C8.44797 6.24542 8.35621 6.27776 8.28609 6.34008C8.21598 6.40241 8.1731 6.48974 8.16667 6.58333C8.16667 6.93333 8.7 7.01667 8.75 8.00833V10.15C8.75 10.625 8.66667 10.7083 8.48333 10.7083C7.98333 10.7083 6.81667 8.89167 6.06667 6.81667C5.93333 6.41667 5.83333 6.25 5.41667 6.25Z" fill="url(#paint0_linear_301_12506)"/>
<defs>
<linearGradient id="paint0_linear_301_12506" x1="-1.80694" y1="15.7206" x2="16.6676" y2="6.36459" gradientUnits="userSpaceOnUse">
<stop offset="0.15" stop-color="#EF6129"/>
<stop offset="0.2" stop-color="#F06032"/>
<stop offset="0.55" stop-color="#F85D6A"/>
<stop offset="0.81" stop-color="#FD5B8C"/>
<stop offset="0.96" stop-color="#FF5A99"/>
</linearGradient>
</defs>
</svg>
