<svg width="23" height="20" viewBox="0 0 23 20" fill="none" xmlns="http://www.w3.org/2000/svg">
<path d="M23 0.708756L19.3623 19.1674C19.3623 19.1674 18.8537 20.4476 17.4546 19.8331L9.06007 13.3558L6.00763 11.871L0.869222 10.13C0.869222 10.13 0.0806558 9.8485 0.00428129 9.23404C-0.0719341 8.61959 0.894681 8.28683 0.894681 8.28683L21.321 0.222255C21.321 0.222255 23 -0.520147 23 0.708756Z" fill="url(#paint0_linear_301_12507)"/>
<path d="M8.39903 19C8.39903 19 8.15483 18.9772 7.85053 18.015C7.54639 17.0529 6 11.9893 6 11.9893L18.2952 4.19131C18.2952 4.19131 19.0051 3.76087 18.9797 4.19131C18.9797 4.19131 19.1064 4.26716 18.7262 4.62159C18.3459 4.97617 9.06741 13.3058 9.06741 13.3058" fill="url(#paint1_linear_301_12507)"/>
<path d="M8.39903 19C8.39903 19 8.15483 18.9772 7.85053 18.015C7.54639 17.0529 6 11.9893 6 11.9893L18.2952 4.19131C18.2952 4.19131 19.0051 3.76087 18.9797 4.19131C18.9797 4.19131 19.1064 4.26716 18.7262 4.62159C18.3459 4.97617 9.06741 13.3058 9.06741 13.3058" fill="black" fill-opacity="0.2"/>
<path d="M12 15.6721L8.56268 18.879C8.56268 18.879 8.29402 19.0877 8 18.9569L8.65821 13" fill="url(#paint2_linear_301_12507)"/>
<path d="M12 15.6721L8.56268 18.879C8.56268 18.879 8.29402 19.0877 8 18.9569L8.65821 13" fill="black" fill-opacity="0.2"/>
<defs>
<linearGradient id="paint0_linear_301_12507" x1="-2.07798" y1="15.7206" x2="17.8556" y2="4.11148" gradientUnits="userSpaceOnUse">
<stop offset="0.15" stop-color="#EF6129"/>
<stop offset="0.2" stop-color="#F06032"/>
<stop offset="0.55" stop-color="#F85D6A"/>
<stop offset="0.81" stop-color="#FD5B8C"/>
<stop offset="0.96" stop-color="#FF5A99"/>
</linearGradient>
<linearGradient id="paint1_linear_301_12507" x1="4.82549" y1="15.7905" x2="17.4767" y2="10.2378" gradientUnits="userSpaceOnUse">
<stop offset="0.15" stop-color="#EF6129"/>
<stop offset="0.2" stop-color="#F06032"/>
<stop offset="0.55" stop-color="#F85D6A"/>
<stop offset="0.81" stop-color="#FD5B8C"/>
<stop offset="0.96" stop-color="#FF5A99"/>
</linearGradient>
<linearGradient id="paint2_linear_301_12507" x1="7.63861" y1="17.7162" x2="11.8061" y2="16.3092" gradientUnits="userSpaceOnUse">
<stop offset="0.15" stop-color="#EF6129"/>
<stop offset="0.2" stop-color="#F06032"/>
<stop offset="0.55" stop-color="#F85D6A"/>
<stop offset="0.81" stop-color="#FD5B8C"/>
<stop offset="0.96" stop-color="#FF5A99"/>
</linearGradient>
</defs>
</svg>
